<svg xmlns="http://www.w3.org/2000/svg" width="20" height="20" viewBox="0 0 20 20">
    <path fill="#FF4C5A" fill-rule="evenodd" d="M10 1.667a8.332 8.332 0 0 1 5.893 14.226A8.309 8.309 0 0 1 10 18.333a8.309 8.309 0 0 1-5.893-2.44 8.332 8.332 0 0 1 0-11.785A8.305 8.305 0 0 1 10 1.667zm0 1.666c-1.78 0-3.455.694-4.714 1.953A6.623 6.623 0 0 0 3.333 10c0 1.78.694 3.455 1.953 4.714A6.626 6.626 0 0 0 10 16.667c1.78 0 3.455-.694 4.714-1.953A6.623 6.623 0 0 0 16.667 10c0-1.78-.694-3.455-1.953-4.714A6.623 6.623 0 0 0 10 3.333zm0 1.71c.46 0 .833.372.833.833v3.29h3.292a.833.833 0 1 1 0 1.667h-3.292v3.292a.833.833 0 1 1-1.666 0v-3.292H5.876a.833.833 0 1 1 0-1.666h3.29V5.875c0-.461.373-.834.834-.834z"/>
</svg>
