<svg xmlns="http://www.w3.org/2000/svg" width="20" height="20" viewBox="0 0 20 20">
    <g fill="none" fill-rule="evenodd">
        <path d="M-2-2h24v24H-2z"/>
        <g fill="#FFF" fill-rule="nonzero">
            <path d="M3.333 17.5h7.5a.833.833 0 1 0 0-1.667h-7.5c-.92 0-1.666-.746-1.666-1.666v-7.5c0-.92.746-1.667 1.666-1.667H5a.833.833 0 0 0 .746-.46l1.206-2.413a.833.833 0 0 1 .744-.46h2.941c.316 0 .603.178.744.46l1.207 2.413c.14.282.43.46.745.46H15c.92 0 1.667.746 1.667 1.667v4.166a.833.833 0 0 0 1.666 0V6.667A3.333 3.333 0 0 0 15 3.333h-1.152l-.975-1.952A2.488 2.488 0 0 0 10.637 0H7.696A2.488 2.488 0 0 0 5.46 1.381l-.975 1.952H3.333A3.333 3.333 0 0 0 0 6.667v7.5A3.333 3.333 0 0 0 3.333 17.5z"/>
            <path d="M9.167 5.833a4.167 4.167 0 1 0 0 8.334 4.167 4.167 0 0 0 0-8.334zm0 6.667a2.5 2.5 0 1 1 0-5 2.5 2.5 0 0 1 0 5zM19.167 15.833H17.5v-1.666a.833.833 0 1 0-1.667 0v1.666h-1.666a.833.833 0 0 0 0 1.667h1.666v1.667a.833.833 0 0 0 1.667 0V17.5h1.667a.833.833 0 1 0 0-1.667z"/>
        </g>
    </g>
</svg>
