<svg xmlns="http://www.w3.org/2000/svg" width="32" height="32" viewBox="0 0 32 32">
    <g fill="none" fill-rule="evenodd">
        <path d="M0 0h32v32H0z"/>
        <path fill="#329873" stroke="#FFF" stroke-width="2" d="M11.324 27.288l-.478.137a5.073 5.073 0 0 1-6.271-6.271l.137-.478-.435-.241a5.073 5.073 0 0 1 0-8.87l.435-.24-.137-.479a5.073 5.073 0 0 1 6.271-6.271l.478.137.241-.435a5.073 5.073 0 0 1 8.87 0l.24.435.479-.137a5.073 5.073 0 0 1 6.271 6.271l-.137.478.435.241a5.073 5.073 0 0 1 0 8.87l-.435.24.137.479a5.073 5.073 0 0 1-6.271 6.271l-.478-.137-.241.435a5.073 5.073 0 0 1-8.87 0l-.24-.435z"/>
        <path fill="#FFF" d="M12 14.667a2.667 2.667 0 1 0 0-5.334 2.667 2.667 0 0 0 0 5.334zm8 2.666a2.667 2.667 0 1 1 0 5.334 2.667 2.667 0 0 1 0-5.334zm-.8-7.266a1 1 0 1 1 1.6 1.2l-8 10.666a1 1 0 1 1-1.6-1.2z"/>
    </g>
</svg>
