<svg xmlns="http://www.w3.org/2000/svg" width="40" height="40" viewBox="0 0 40 40">
    <g fill="none" fill-rule="evenodd">
        <path fill="#141414" d="M39.333 20.01c0 10.677-8.656 19.333-19.333 19.333C9.323 39.343.667 30.687.667 20.009.667 9.332 9.323.676 20 .676c10.677 0 19.333 8.656 19.333 19.333"/>
        <g>
            <path fill="#505661" d="M33.546 16.54c-.228.643-.568 1.274-1.009 1.874-.427.582-.954 1.142-1.567 1.664-.6.511-1.288.992-2.044 1.427-1.523.877-3.292 1.564-5.258 2.043-2.027.494-4.178.744-6.395.744-2.216 0-4.368-.25-6.394-.744-1.967-.479-3.736-1.166-5.258-2.043-.756-.435-1.444-.916-2.045-1.427-.612-.522-1.139-1.082-1.566-1.664-.441-.6-.781-1.23-1.01-1.874-.237-.667-.357-1.354-.357-2.042 0-.72.132-1.438.39-2.134.25-.67.62-1.325 1.1-1.947.466-.603 1.038-1.18 1.702-1.714 1.473-1.275 3.84-1.855 3.84-1.855s-2.943 2.256-3.047 4.587c0 .797.314 1.58.934 2.326.63.758 1.541 1.443 2.71 2.038 1.19.606 2.581 1.083 4.133 1.417 1.617.348 3.335.524 5.108.524 1.773 0 3.491-.176 5.108-.524 1.552-.334 2.943-.811 4.134-1.417 1.168-.595 2.345-1.547 2.975-2.305.683-1.01 1.347-2.477-.03-4.898l-.017-.019.01.007c-.079-.138-.164-.279-.256-.423 1.97.72 2.732 1.811 3.4 2.858.708 1.108 1.067 2.278 1.067 3.479 0 .688-.12 1.375-.358 2.042" transform="translate(2.667 7.333)"/>
            <path fill="#FFCE07" d="M24.406 17.45l2.458 4.247c1.24-.536 2.785-1.424 3.658-2.174l-3.153-3.32c-.811.474-2.036.966-2.963 1.247M21.2 23.289c1.62-.217 2.783-.532 4.167-1.013l-2.087-4.521c-.966.233-1.994.41-3.067.522l.988 5.012zM19.05 18.373c-.52.03-1.047.046-1.582.046-.74 0-1.13.003-1.839-.059l-.581 5.143c.83.078 1.356.066 2.225.066.83 0 1.646-.037 2.442-.109l-.665-5.087zM11.436 17.687l-2.357 4.56c1.385.504 2.59.776 4.224 1.01l.955-5.043c-1.071-.14-1.865-.262-2.822-.527M7.698 16.217L4.17 19.508c.837.78 1.908 1.45 3.317 2.066l2.48-4.346c-.924-.31-1.514-.6-2.269-1.011" transform="translate(2.667 7.333)"/>
            <path fill="#141414" d="M7.517 17.258L5.467 19.493 7.242 20.595 7.732 19.937 6.737 19.248 8.099 17.58zM28.756 19.764L29.388 19.3 27.423 17.077 26.83 17.398 27.549 18.281 26.758 18.698 26.12 17.831 25.493 18.102 27.287 20.716 27.966 20.304 27.208 19.308 27.999 18.834z" transform="translate(2.667 7.333)"/>
            <g>
                <path fill="#FFCE07" d="M7.384 12.81c0 .45-.372.817-.833.817H.833c-.46 0-.833-.367-.833-.818V2.397c0-.448.373-.81.833-.81l1.344-.001V.546c0-.272.202-.497.466-.539L2.733 0h1.954c.307 0 .556.244.556.545l-.001 1.041h1.31c.424 0 .775.31.826.71l.006.1z" transform="translate(2.667 7.333) translate(14)"/>
                <path fill="#141414" d="M5.49 5.52c-.017-.033-.052-.052-.09-.05l-1.463.054.76-1.442c.017-.03.017-.066-.001-.095-.018-.029-.051-.046-.087-.044l-1.249.005c-.036.001-.068.023-.082.055L1.935 6.54c-.014.029-.01.064.008.09.019.026.05.042.084.041l1.487.037-1.32 3.689c-.017.043.002.092.043.114.016.01.034.013.05.012.028-.001.055-.014.072-.037L5.481 5.62c.022-.029.026-.068.009-.1" transform="translate(2.667 7.333) translate(14)"/>
            </g>
            <path fill="#888E99" d="M29.282 14.985c2.24 1.41 3.359 2.108 3.355 2.092.2-.277.662-1.365.662-1.867l-3.25-1.038-.767.813zM5.35 14.53c-2.24 1.41-3.359 2.107-3.355 2.091-.2-.276-.662-1.365-.662-1.866l3.387-.979.63.754zM30.818 12.686c1.65.243 2.474.356 2.47.34 0-.358-.203-.847-.335-1.026l-2.035.129-.1.557zM4.17 11.394c-.007.03-2.176.323-2.17.299.11-.364.365-.715.496-.894h1.746c-.048.255-.072.454-.072.595z" transform="translate(2.667 7.333)"/>
        </g>
    </g>
</svg>
