<svg xmlns="http://www.w3.org/2000/svg" width="20" height="20" viewBox="0 0 20 20">
    <path fill="#FFC300" fill-rule="evenodd" d="M8.795 15.925c.184.47.638.813 1.172.813.535 0 .998-.343 1.173-.813h1.635a2.849 2.849 0 0 1-2.808 2.408c-1.41 0-2.6-1.052-2.807-2.408h1.635zM9.967 3.808l.216.004c2.435.11 4.406 2.079 4.517 4.51l.005.216.23 6.071a.834.834 0 0 1-.726.858l-.108.007H5.833a.833.833 0 0 1-.83-.757l-.002-.108.229-6.072c0-2.601 2.132-4.73 4.737-4.73zm0 1.666a3.07 3.07 0 0 0-3.07 3.063v.032l-.001.032-.197 5.206h6.537l-.196-5.206-.002-.064a3.07 3.07 0 0 0-3.07-3.063zm0-3.807c.442 0 .798.356.798.797v.893H9.17v-.893c0-.44.357-.797.798-.797z"/>
</svg>
