<svg xmlns="http://www.w3.org/2000/svg" width="24" height="24" viewBox="0 0 24 24">
    <path fill="#FFF" fill-rule="evenodd" d="M21.5 16.828c.42.6.582 1.33.46 2.053-.121.723-.514 1.356-1.105 1.78-.475.342-1.021.506-1.563.506-.85 0-1.688-.404-2.216-1.16-.829-1.188-.595-2.821.504-3.725l.142-.11c1.22-.876 2.916-.582 3.779.656zm-14.112 0c.863 1.238.574 2.958-.646 3.834-.475.34-1.022.504-1.563.504-.85 0-1.688-.403-2.216-1.16-.418-.599-.582-1.328-.46-2.053.122-.723.515-1.356 1.105-1.78 1.22-.877 2.915-.582 3.78.655zm11.083.418c-.637.457-.788 1.355-.337 2 .218.314.544.522.916.586.372.064.748-.022 1.056-.243.309-.222.514-.552.577-.93.064-.377-.021-.758-.24-1.07-.45-.646-1.334-.8-1.972-.343zm-13.298-.263c-.282 0-.568.085-.815.263-.309.222-.514.551-.577.93-.064.378.022.758.24 1.071.45.646 1.335.8 1.972.341.636-.456.787-1.354.336-2-.274-.395-.712-.605-1.156-.605zm9.7-9.803c.215-.18.5-.229.755-.13l.308.12c.778.302 1.106 1.302.678 2.07l-.205.368 3.68 4.627c.178.23.017.58-.26.56l-.371-.028c-1.435-.106-2.978.85-3.493 2.198-.346.84-.288 1.587-.289 1.754-.001.187-.188.241-.4.172l-3.237-.81c-1.79-.368-2.303-.292-2.888.121-.121.086-.346.008-.385-.144l-.162-.647c-.522-1.762-1.942-2.516-3.295-2.627 0 0-.455-.038-.8.03l-1.577.902c-.102.083-.257.088-.376.088-.172 0-.343-.085-.454-.247-.189-.273-.102-.625.148-.828l1.51-.916c-.327-.484-.27-.84-.018-1.427 0 0 .125-.304.26-.351.122-.043.224-.021.415.033 1.577.447 6.636 1.874 6.775 1.927.176.06.186.235.133.328-.036.063-.413.677-.413.677-.13.26.005.581.27.647l2.109.522c.772.19 1.55-.3 1.781-1.124l.381-1.365c.104-.372.073-.771-.086-1.118l-1.739-3.554s-.97-.037-1.591-.064c-.622-.026-.656-.8.017-.797.51.002 1.488.039 1.488.039zM4.409 10.91c.441-.663 1.239-1.11 1.97-.951l4.097.648c.606.132 1.077.65 1.193 1.31 0 0 .169.817.197 1.169.012.142-.11.251-.236.215l-7.123-2.064c-.13-.038-.178-.205-.098-.326z"/>
</svg>
