<svg xmlns="http://www.w3.org/2000/svg" width="99" height="85" viewBox="0 0 99 85">
    <g fill="none" fill-rule="evenodd">
        <path fill="#009C58" d="M65.066 53.528C53.849 56.49 38.044 13.618 25.183 2.74 16.493-4.61 3.889 9.486 1 32.165-6.153 88.32 61.736 92.893 78.938 76.882c20.14-18.744 18.11-42.221-10.579-34.646l-3.293 11.292z"/>
        <path fill="#231515" d="M18.129 32.256c.179-1.16.52-2.31 1.02-3.446 1.341-3.082 3.475-5.323 6.398-6.723 2.282-1.08 9.734-1.319 22.358-.716 3.962.191 8.19.454 12.682.787l5.572.437c.588-.112 1.348-.19 2.28-.232a27.07 27.07 0 0 1 5.313.2c2.381.358 4.444 1.023 6.188 1.996 2.169 1.231 3.775 2.932 4.817 5.104l11.857 22.183 1.273 3.955c.296 1.607.546 3.027.36 4.436-.601 4.502-3.368 7.524-8.604 8.36-4.393.684-13.095 1.717-26.105 3.092-11.143 1.176-18.054 1.867-20.727 2.067-2.149.157-3.924.174-5.325.055-1.737-.152-3.256-.537-4.558-1.155-1.441-.668-2.736-1.665-3.885-2.991-1.207-1.42-2.309-3.272-3.306-5.558-.286-.74-1.56-5.506-3.82-14.293-2.172-8.467-3.45-13.544-3.833-15.233-.126-.556-.11-1.332.045-2.325"/>
        <path fill="#9196B2" d="M21.273 27.515c.497-2.554 1.919-4.364 4.264-5.435 2.296-1.042 10.135-1.861 23.516-2.458a663.38 663.38 0 0 1 13.453-.46l5.934-.117c.887-.04 1.887-.053 3.003-.04 2.213.033 3.877.173 4.991.42 1.939.438 3.598 1.144 4.977 2.115 1.66 1.18 2.982 2.794 3.965 4.847l11.237 25.46s4.787 9.444-8.022 11.04c-4.174.535-43.21 4.102-43.708 4.14-2.055.146-3.754.127-5.094-.058-1.534-.206-2.87-.662-4.01-1.367-1.197-.73-2.308-1.805-3.333-3.23-1.028-1.412-2.055-3.295-3.083-5.646-.24-.632-1.58-4.795-4.019-12.488-2.526-7.94-3.82-12.017-3.89-12.222-.152-.446-.258-1.021-.32-1.727-.077-.961-.031-1.887.14-2.774"/>
        <path fill="#07081B" d="M58.471 26.624a.772.772 0 0 1 .464.122.802.802 0 0 1 .317.373l1.943 4.628c.13.294.135.504.016.63-.102.11-.325.18-.667.21l-9.106.764a.766.766 0 0 1-.472-.11.847.847 0 0 1-.325-.381L48.709 27.7c-.103-.341.017-.6.362-.781.249-.126.6-.206 1.056-.238l8.344-.058z"/>
        <path fill="#9196B2" d="M58.602 26.518a.77.77 0 0 1 .304.358l1.695 2.207c.199.59.243 1.117.135 1.578-.105.47-.344.753-.716.85l-7.523.655c-.227.038-.465-.014-.71-.157a1.328 1.328 0 0 1-.56-.606l-1.413-3.248c-.171-.55-.15-1.004.062-1.365.22-.364.617-.597 1.195-.695l7.085.306c.158-.01.306.03.446.117"/>
        <path fill="#FFF" d="M58.981 25.868c.192.122.33.279.415.47l1.106 2.479c.14.32.155.599.046.836-.118.264-.375.433-.773.509l-7.318.543a.718.718 0 0 1-.456-.11.809.809 0 0 1-.312-.367l-1.194-2.72c-.147-.402-.134-.742.037-1.024.162-.267.42-.412.774-.434l6.773-.384c.354-.023.655.045.902.202"/>
        <path fill="#07081B" d="M37.6 28.104c.25-.13.603-.209 1.057-.238l8.35-.062a.758.758 0 0 1 .458.123.804.804 0 0 1 .318.372l1.99 4.631c.13.292.134.502.013.63-.1.108-.321.178-.664.21l-9.107.768a.74.74 0 0 1-.47-.116.835.835 0 0 1-.327-.38l-1.978-5.16c-.1-.345.02-.603.36-.778"/>
        <path fill="#9196B2" d="M38.35 29.336c-.172-.55-.151-1.005.06-1.366.22-.365.617-.598 1.192-.696l7.09.306a.727.727 0 0 1 .44.117.785.785 0 0 1 .305.358l1.7 2.208c.2.597.25 1.14.153 1.628-.102.5-.335.8-.701.898l-7.523.653c-.225.038-.462-.014-.71-.156a1.305 1.305 0 0 1-.555-.604l-1.452-3.346z"/>
        <path fill="#FFF" d="M40.536 31.775a.809.809 0 0 1-.312-.367l-1.194-2.72c-.147-.402-.134-.743.037-1.024.162-.266.42-.412.77-.436l6.777-.382c.354-.022.655.045.902.202.192.121.33.28.415.471l1.102 2.478c.143.32.16.6.05.836-.118.264-.375.433-.773.51l-7.318.542a.727.727 0 0 1-.456-.11"/>
        <path fill="#07081B" d="M25.217 29.877c-.1-.344.02-.603.36-.781.248-.127.6-.206 1.056-.238l8.35-.058a.729.729 0 0 1 .458.118.825.825 0 0 1 .317.377l1.988 4.631c.128.294.134.504.015.63-.099.11-.321.177-.663.206l-9.106.766a.769.769 0 0 1-.472-.108.847.847 0 0 1-.325-.381l-1.978-5.162z"/>
        <path fill="#9196B2" d="M26.326 30.332c-.172-.553-.15-1.008.062-1.37.219-.365.615-.596 1.19-.692l7.09.306a.705.705 0 0 1 .441.113.785.785 0 0 1 .305.358l1.7 2.211c.23.635.283 1.2.158 1.693-.118.483-.368.775-.752.875l-7.522.653c-.226.038-.463-.012-.711-.155a1.343 1.343 0 0 1-.56-.606l-1.4-3.386z"/>
        <path fill="#FFF" d="M27.007 29.684c-.147-.402-.134-.743.036-1.028.163-.267.419-.41.77-.43l6.778-.383c.354-.026.654.041.901.2.193.123.331.281.416.473l1.102 2.478c.143.319.158.597.05.832-.12.262-.378.433-.777.512l-7.316.539a.73.73 0 0 1-.453-.106.812.812 0 0 1-.315-.367l-1.192-2.72z"/>
        <path fill="#07081B" d="M61.727 34.804a.752.752 0 0 1 .463.119.844.844 0 0 1 .324.38l1.975 4.701c.129.299.134.512.017.639-.102.111-.328.182-.677.214l-9.244.777a.77.77 0 0 1-.48-.114.84.84 0 0 1-.33-.386l-1.965-5.238c-.103-.35.02-.614.37-.794.251-.128.609-.209 1.068-.238l8.479-.06z"/>
        <path fill="#9196B2" d="M61.402 34.576a.71.71 0 0 1 .45.114c.14.087.244.209.314.367l1.723 2.242c.2.6.245 1.135.133 1.605-.109.475-.352.763-.729.863l-7.639.666c-.229.038-.468-.016-.72-.161a1.316 1.316 0 0 1-.568-.615l-1.43-3.302c-.174-.558-.153-1.02.062-1.386.222-.37.624-.606 1.208-.705l7.196.312z"/>
        <path fill="#FFF" d="M62.241 34.035c.196.123.337.282.425.477l1.12 2.517c.142.323.159.607.05.85-.119.266-.381.44-.786.517l-7.431.55a.734.734 0 0 1-.464-.11.798.798 0 0 1-.317-.371l-1.212-2.766c-.15-.407-.139-.753.036-1.036.166-.272.426-.42.782-.443l6.882-.39c.36-.026.665.043.915.205"/>
        <path fill="#07081B" d="M40.163 37.097c-.104-.35.02-.614.37-.792.253-.13.61-.212 1.074-.243l8.474-.06a.762.762 0 0 1 .467.118.847.847 0 0 1 .325.38l2.017 4.708c.132.296.138.508.016.64-.103.11-.328.18-.676.21l-9.248.775a.749.749 0 0 1-.476-.114.824.824 0 0 1-.335-.385l-2.008-5.237z"/>
        <path fill="#9196B2" d="M41.356 36.17c.218-.37.622-.607 1.208-.707l7.197.31a.71.71 0 0 1 .45.114c.139.087.242.21.31.367l1.721 2.242c.204.608.256 1.158.158 1.654-.1.51-.337.814-.71.911l-7.64.666c-.232.038-.472-.016-.723-.16a1.293 1.293 0 0 1-.565-.616l-1.473-3.394c-.173-.562-.15-1.024.067-1.387"/>
        <path fill="#FFF" d="M42.016 35.86c.168-.272.43-.42.786-.443l6.883-.39c.359-.023.663.046.914.205.194.126.334.287.42.481l1.12 2.513c.143.323.159.607.05.85-.12.266-.38.438-.787.517l-7.43.55a.731.731 0 0 1-.459-.11.807.807 0 0 1-.318-.371l-1.217-2.766c-.149-.407-.136-.751.038-1.036"/>
        <path fill="#07081B" d="M27.954 38.106c-.104-.347.02-.61.37-.792.253-.13.609-.212 1.068-.244l8.479-.06a.767.767 0 0 1 .468.119.892.892 0 0 1 .32.385l2.017 4.703c.133.296.137.508.017.639-.103.11-.327.182-.673.214l-9.248.777a.761.761 0 0 1-.476-.115.861.861 0 0 1-.334-.385l-2.008-5.24z"/>
        <path fill="#9196B2" d="M29.08 38.565c-.175-.558-.151-1.02.067-1.386.219-.37.621-.608 1.208-.708l7.196.31c.16-.008.312.03.45.119.14.087.243.21.308.367l1.724 2.242c.236.643.29 1.217.162 1.72-.12.488-.375.785-.76.888l-7.64.664c-.23.038-.473-.016-.723-.161a1.316 1.316 0 0 1-.568-.615l-1.424-3.44z"/>
        <path fill="#FFF" d="M29.77 37.905c-.15-.407-.137-.752.036-1.036.166-.273.427-.42.784-.443l6.88-.387c.36-.025.667.043.92.202.195.125.334.286.42.482l1.121 2.512c.141.326.158.61.049.849-.119.266-.381.44-.786.522l-7.431.545a.72.72 0 0 1-.46-.11.827.827 0 0 1-.321-.372l-1.212-2.764z"/>
        <path fill="#07081B" d="M65.451 43.225c.17-.011.329.03.477.123.143.092.252.22.325.386l2.001 4.767c.134.302.14.519.016.652-.104.111-.331.181-.686.213l-9.374.79a.804.804 0 0 1-.489-.116.891.891 0 0 1-.333-.391l-1.992-5.312c-.103-.353.021-.621.374-.803.256-.132.618-.214 1.087-.247l8.594-.062z"/>
        <path fill="#9196B2" d="M59.297 48.936c-.233.038-.478-.017-.732-.162a1.373 1.373 0 0 1-.575-.628l-1.451-3.34c-.176-.57-.155-1.037.063-1.41.225-.376.634-.615 1.226-.716l7.3.317a.713.713 0 0 1 .454.117c.142.09.248.21.318.368l1.747 2.275c.203.61.249 1.15.137 1.626-.113.484-.359.776-.74.876l-7.747.677z"/>
        <path fill="#FFF" d="M59.258 47.427a.735.735 0 0 1-.466-.11.842.842 0 0 1-.327-.38l-1.228-2.8c-.149-.413-.135-.764.04-1.055.167-.275.431-.424.79-.451l6.981-.39c.365-.025.673.043.928.202.197.126.339.29.427.491l1.141 2.548c.145.329.16.615.049.858-.123.272-.388.448-.799.529l-7.536.558z"/>
        <path fill="#07081B" d="M43.96 44.749c.255-.133.617-.214 1.086-.245l8.594-.064c.17-.011.329.03.477.124.144.09.254.219.33.385l2.044 4.773c.131.301.135.519.015.648-.103.11-.33.182-.686.213l-9.377.789a.777.777 0 0 1-.485-.116.812.812 0 0 1-.334-.39l-2.039-5.315c-.103-.352.023-.62.375-.802"/>
        <path fill="#9196B2" d="M44.792 44.612c.224-.376.634-.616 1.226-.716l7.298.316a.716.716 0 0 1 .455.118c.141.087.248.21.317.368l1.749 2.273c.205.618.258 1.177.159 1.676-.102.519-.342.828-.72.925l-7.751.677c-.234.037-.478-.017-.732-.162a1.326 1.326 0 0 1-.571-.624l-1.493-3.442c-.176-.568-.155-1.038.063-1.409"/>
        <path fill="#FFF" d="M45.465 44.298c.168-.275.433-.426.796-.451l6.976-.39c.366-.026.676.041.932.202.198.129.34.292.428.491l1.137 2.548c.141.332.157.618.048.862-.122.268-.389.443-.8.525l-7.535.558a.79.79 0 0 1-.79-.487l-1.23-2.804c-.149-.414-.136-.765.038-1.054"/>
        <path fill="#07081B" d="M72.275 57.59c.131.303.137.517.017.648-.103.11-.332.182-.686.213l-9.378.788a.783.783 0 0 1-.484-.114.82.82 0 0 1-.334-.39l-1.993-5.314c-.106-.353.018-.62.372-.801.255-.133.617-.215 1.086-.247l8.599-.062a.763.763 0 0 1 .475.123c.145.091.254.22.325.385l2.001 4.77z"/>
        <path fill="#9196B2" d="M71.805 56.468c-.113.484-.358.776-.738.876l-7.748.677c-.236.038-.482-.017-.736-.162a1.333 1.333 0 0 1-.572-.623l-1.455-3.346c-.176-.566-.155-1.036.064-1.408.224-.377.634-.615 1.23-.717l7.3.318a.72.72 0 0 1 .453.117.8.8 0 0 1 .317.372l1.749 2.275c.202.606.248 1.146.136 1.621"/>
        <path fill="#FFF" d="M71.615 55.43c-.122.268-.389.443-.8.525l-7.535.558a.754.754 0 0 1-.468-.111.819.819 0 0 1-.325-.375l-1.232-2.805c-.148-.414-.137-.765.038-1.054.169-.275.434-.424.796-.447l6.981-.395c.364-.025.675.044.927.208.197.125.34.286.428.485l1.136 2.554c.144.328.162.613.054.857"/>
        <path fill="#07081B" d="M57.663 53.53a.792.792 0 0 1 .476.119.882.882 0 0 1 .325.385l2.048 4.773c.13.304.136.518.016.649-.103.11-.332.182-.685.213l-9.378.788a.762.762 0 0 1-.485-.111.838.838 0 0 1-.338-.395l-2.035-5.314c-.106-.352.017-.62.37-.804.259-.13.622-.213 1.091-.245l8.595-.058z"/>
        <path fill="#9196B2" d="M57.339 53.297a.72.72 0 0 1 .454.118.805.805 0 0 1 .318.373l1.747 2.273c.205.615.258 1.175.16 1.675-.103.518-.344.824-.724.925l-7.747.672c-.234.04-.477-.014-.732-.161a1.346 1.346 0 0 1-.576-.623l-1.493-3.444c-.176-.567-.154-1.037.068-1.408.225-.376.633-.616 1.225-.716l7.3.316z"/>
        <path fill="#FFF" d="M57.259 52.542c.366-.025.674.044.927.206.199.125.341.288.429.486l1.135 2.553c.146.329.162.613.053.857-.121.274-.388.45-.798.53l-7.536.553a.74.74 0 0 1-.467-.11.814.814 0 0 1-.325-.376l-1.228-2.805c-.149-.412-.136-.763.038-1.054.168-.275.432-.424.79-.447l6.982-.393z"/>
        <path fill="#07081B" d="M44.108 50.744c.132.302.137.518.016.647-.105.115-.334.187-.685.219l-9.377.788a.79.79 0 0 1-.486-.115.846.846 0 0 1-.337-.394l-2.036-5.312c-.105-.353.018-.62.37-.806.26-.132.623-.214 1.092-.246l8.594-.058a.829.829 0 0 1 .8.51l2.05 4.767z"/>
        <path fill="#9196B2" d="M43.454 47.998c.238.652.292 1.234.165 1.744-.121.495-.38.796-.775.9l-7.747.679c-.233.036-.479-.017-.736-.163a1.349 1.349 0 0 1-.57-.627l-1.45-3.49c-.175-.566-.153-1.036.07-1.407.22-.376.63-.616 1.224-.717l7.3.317a.749.749 0 0 1 .454.118c.142.09.248.215.318.371l1.747 2.275z"/>
        <path fill="#FFF" d="M43.347 47.724c.146.328.162.615.053.857-.121.272-.388.449-.8.53l-7.534.558a.727.727 0 0 1-.468-.115.83.83 0 0 1-.325-.376l-1.232-2.805c-.15-.412-.137-.765.037-1.054.17-.275.435-.424.797-.447l6.98-.393c.365-.026.675.042.928.206.197.125.34.287.428.485l1.136 2.554z"/>
        <path fill="#07081B" d="M72.737 53.624c-.14-.322-.12-.729.059-1.218.2-.516.493-.876.877-1.076l14.948.494c.34-.023.63.049.869.214.186.134.32.303.402.508l1.763 1.638c.143.62.111 1.17-.094 1.648-.197.45-.503.723-.92.817l-15.753 1.119a.662.662 0 0 1-.435-.121.738.738 0 0 1-.297-.39l-1.42-3.633z"/>
        <path fill="#9196B2" d="M75.315 56.309a.656.656 0 0 1-.434-.122.666.666 0 0 1-.298-.375l-1.409-3.56c-.14-.312-.116-.714.073-1.202.198-.498.485-.844.862-1.035l15.085.457c.333-.031.617.035.856.2.178.124.307.289.39.493l1.142 1.666c.144.61.115 1.145-.09 1.605-.197.45-.503.718-.92.802l-15.257 1.07z"/>
        <path fill="#FFF" d="M75.611 54.744a.664.664 0 0 1-.434-.122.666.666 0 0 1-.298-.375l-1.127-2.842c-.135-.418-.123-.772.038-1.061.15-.28.397-.436.737-.467l14.715-.954c.332-.022.617.044.857.2.176.133.306.298.388.493l1.042 2.595c.131.331.145.62.042.864-.115.272-.362.451-.742.538l-15.218 1.13z"/>
        <path fill="#07081B" d="M69.026 44.863c-.141-.323-.12-.73.059-1.219.2-.516.491-.875.877-1.077l14.947.494c.34-.022.63.05.87.215.186.134.32.304.4.508l1.763 1.639c.144.62.113 1.169-.092 1.647-.197.45-.503.723-.92.818l-15.753 1.118a.655.655 0 0 1-.435-.123.729.729 0 0 1-.297-.387l-1.419-3.633z"/>
        <path fill="#9196B2" d="M71.604 47.547a.662.662 0 0 1-.434-.121.666.666 0 0 1-.298-.375l-1.409-3.56c-.14-.314-.117-.715.073-1.203.198-.5.484-.843.86-1.035l15.087.457c.331-.031.616.035.856.2.178.124.307.29.388.494l1.144 1.665c.144.61.113 1.145-.092 1.604-.195.451-.501.718-.919.802l-15.256 1.072z"/>
        <path fill="#FFF" d="M71.9 45.981a.664.664 0 0 1-.435-.121.666.666 0 0 1-.297-.375l-1.127-2.842c-.136-.419-.123-.773.037-1.062.151-.28.397-.434.738-.465l14.714-.955c.332-.023.617.045.857.2.176.133.306.298.389.494l1.043 2.593c.13.333.144.62.04.865-.114.272-.361.451-.741.537L71.9 45.981z"/>
        <path fill="#07081B" d="M44.258 54.815a.782.782 0 0 1 .476.118.882.882 0 0 1 .325.385l2.049 4.774c.131.302.135.518.015.649-.103.11-.332.182-.685.213l-9.378.788a.762.762 0 0 1-.485-.111.845.845 0 0 1-.338-.395l-2.035-5.315c-.106-.353.017-.62.37-.803.259-.13.623-.214 1.091-.245l8.595-.058z"/>
        <path fill="#9196B2" d="M43.934 54.582a.711.711 0 0 1 .454.117.81.81 0 0 1 .318.372l1.747 2.275c.205.615.258 1.173.16 1.675-.103.516-.344.824-.724.924l-7.747.673c-.234.039-.477-.016-.732-.161a1.342 1.342 0 0 1-.575-.624l-1.494-3.443c-.176-.567-.154-1.037.068-1.408.225-.376.633-.616 1.225-.718l7.3.318z"/>
        <path fill="#FFF" d="M43.854 53.826c.366-.025.674.044.927.206.198.126.34.29.429.487l1.135 2.552c.146.329.162.615.053.86-.121.27-.388.446-.798.528l-7.536.553a.74.74 0 0 1-.467-.11.803.803 0 0 1-.325-.375l-1.228-2.805c-.15-.414-.137-.765.038-1.054.168-.276.432-.424.79-.448l6.982-.394z"/>
        <path fill="#07081B" d="M65.092 36.52c-.14-.324-.12-.733.06-1.223.2-.52.493-.882.882-1.083l15.021.496c.342-.021.633.05.874.216.186.134.321.304.404.51l1.77 1.647c.146.624.114 1.175-.093 1.656-.197.453-.504.726-.924.82l-15.833 1.125a.661.661 0 0 1-.436-.123.734.734 0 0 1-.299-.39l-1.426-3.65z"/>
        <path fill="#9196B2" d="M67.664 39.426a.659.659 0 0 1-.436-.123.666.666 0 0 1-.3-.375l-1.416-3.579c-.141-.314-.117-.716.072-1.209.2-.5.488-.847.866-1.039l15.161.46c.334-.033.622.035.862.2.177.124.309.29.39.496l1.149 1.673c.145.615.114 1.152-.092 1.613-.197.453-.504.721-.923.807l-15.333 1.076z"/>
        <path fill="#FFF" d="M67.961 37.853a.657.657 0 0 1-.435-.123.666.666 0 0 1-.3-.375l-1.133-2.857c-.137-.42-.125-.776.037-1.067.153-.28.4-.437.742-.468l14.788-.959c.332-.022.619.044.86.2.178.135.309.3.391.497l1.048 2.606c.131.334.145.623.04.869-.114.273-.361.454-.744.54L67.96 37.853z"/>
        <path fill="#07081B" d="M61.95 27.61c-.14-.32-.118-.723.06-1.208.196-.513.487-.869.87-1.07l14.825.49c.338-.02.626.051.862.215.185.132.318.3.4.505l1.748 1.624c.142.615.111 1.16-.093 1.635-.195.447-.498.716-.913.81L64.083 31.72a.643.643 0 0 1-.43-.121.718.718 0 0 1-.295-.385l-1.407-3.604z"/>
        <path fill="#9196B2" d="M64.478 30.581a.65.65 0 0 1-.43-.121.655.655 0 0 1-.296-.371l-1.398-3.531c-.138-.312-.116-.708.073-1.193.195-.494.48-.837.854-1.027l14.963.454c.33-.032.613.034.85.198.177.122.305.286.386.489l1.134 1.653c.142.605.113 1.135-.09 1.59-.195.448-.5.713-.913.797l-15.133 1.062z"/>
        <path fill="#FFF" d="M64.772 29.028a.65.65 0 0 1-.43-.12.655.655 0 0 1-.297-.372l-1.117-2.819c-.135-.416-.123-.767.036-1.053.15-.278.394-.432.732-.463l14.597-.946c.328-.021.61.045.85.199.174.132.302.294.383.489l1.036 2.572c.129.33.143.615.04.858-.114.27-.358.448-.735.534l-15.095 1.121z"/>
        <g>
            <path fill="#9A9EB2" d="M30.368 28.674l-.75.127a1.044 1.044 0 0 1-.164.317.895.895 0 0 1-.607.388l.42.713.352-.091c.24-.088.378-.194.414-.323l.923 1.903.97-.048-1.558-2.986zM41.035 28.898l.636.006-.02-.063a.394.394 0 0 1-.013-.139c.012-.132.103-.202.271-.21.27-.01.447.076.532.258.083.18.043.386-.119.623-.214.317-.354.566-.42.746-.11.302-.092.557.055.762l1.948-.273-.086-.538-1.048.113.139-.24c.107-.199.202-.391.285-.578.116-.27.056-.547-.18-.83a1.405 1.405 0 0 0-.955-.499c-.395-.045-.693.015-.893.177-.206.166-.25.394-.132.685M53.334 27.043a1.05 1.05 0 0 0-.51.221.756.756 0 0 0-.262.388.503.503 0 0 0 .064.416l.633-.075-.005-.056a.457.457 0 0 1 .02-.125c.046-.127.152-.206.318-.236a.406.406 0 0 1 .283.048c.086.05.143.117.17.199.03.09.013.176-.049.259-.072.096-.197.174-.375.234l.09.332.1-.005c.083 0 .16.007.234.02.235.044.379.152.433.324.031.098.016.182-.043.25a.392.392 0 0 1-.241.124.692.692 0 0 1-.325-.02.595.595 0 0 1-.286-.173l-.538.314c.03.08.14.166.33.265.21.107.43.175.663.206.194.029.377.022.546-.016.193-.046.36-.134.497-.265.331-.313.356-.642.071-.983a1.314 1.314 0 0 0-.388-.32c-.144-.079-.259-.114-.344-.106a.278.278 0 0 0 .193-.163.507.507 0 0 0 .03-.312c-.058-.293-.269-.515-.631-.665a1.356 1.356 0 0 0-.678-.08M32.767 37.416l.687 1.015-.791.08.104-1.095zm1.56 2.44l.81-.082-.43-.696.787-.037-.478-.536-.76.018-1.176-1.693-.977.086-.226 1.675.343.628 1.625-.107.483.744zM45.214 38.695l-.729.195.137.12c.119.094.245.176.379.247.434.232.872.31 1.315.236 1.077-.242.788-1.615-.149-1.934-.403-.129-.964-.096-1.178-.003l-.008-.458 1.135-.12-.084-.526-1.898.234.042.263.106 1.326.863-.138s.26-.117.433-.114c.241.004.413.058.58.243.226.242.224.706-.237.7a1.066 1.066 0 0 1-.707-.27M57.298 37.534a.737.737 0 0 1-.334-.312c-.15-.261-.134-.455.047-.578a.647.647 0 0 1 .317-.106c.18.019.308.052.386.101.123.076.217.22.286.432a.38.38 0 0 1-.035.343.426.426 0 0 1-.284.167.628.628 0 0 1-.383-.047m.01-2.539c-.48-.15-.88-.098-1.201.151-.26.203-.39.517-.386.94.001.375.098.732.292 1.07.215.376.527.642.934.802.385.147.774.173 1.168.077a.836.836 0 0 0 .646-.751.918.918 0 0 0-.128-.546 1.394 1.394 0 0 0-.507-.494c-.4-.234-.777-.308-1.137-.22a1.078 1.078 0 0 0-.312.125l-.11.077-.042-.3c.003-.216.08-.363.234-.443.197-.09.372-.077.523.034a.524.524 0 0 1 .17.196l.58-.242c-.023-.072-.101-.155-.236-.248a1.705 1.705 0 0 0-.489-.228M34.948 46.136l.163.622 1.186-.092c.02.309.055.648.101 1.015.092.733.205 1.243.335 1.533l.668-.067-.196-1.073c-.116-.762-.148-1.268-.094-1.514l-.311-.583-1.852.159zM48.094 45.322c-.025.123.034.242.173.354.14.115.282.142.43.082.147-.06.187-.168.117-.324a.46.46 0 0 0-.262-.24.581.581 0 0 0-.175-.044c-.163-.007-.257.05-.283.172m1.262 1.307a.75.75 0 0 0-.213-.083c-.22-.037-.375.018-.464.162-.091.146-.06.302.098.465a.66.66 0 0 0 .294.17c.11.031.217.038.322.017.108-.02.187-.06.236-.123.057-.07.068-.154.032-.253a.64.64 0 0 0-.305-.355m-1.591-1.837a.792.792 0 0 1 .482-.111c.13.01.275.048.43.111.313.128.53.326.648.595.061.138.082.268.063.387a.498.498 0 0 1-.154.283c.197.06.376.147.54.263.256.183.433.416.53.697.08.226.055.417-.071.576-.114.14-.292.233-.532.277a1.6 1.6 0 0 1-.733-.04 1.445 1.445 0 0 1-.66-.384c-.229-.235-.337-.476-.326-.724a.676.676 0 0 1 .319-.55 1.174 1.174 0 0 1-.33-.19 1.25 1.25 0 0 1-.358-.441.688.688 0 0 1-.062-.43.482.482 0 0 1 .214-.32M59.966 43.86c.062-.093.163-.145.297-.157a.657.657 0 0 1 .4.095c.13.076.219.174.266.291.048.122.044.23-.01.32-.057.091-.153.142-.289.154a.71.71 0 0 1-.41-.095.596.596 0 0 1-.275-.291.326.326 0 0 1 .02-.318m.03 1.853c.061.101.132.192.213.272.261.256.581.36.962.31.507-.07.811-.268.912-.6.093-.307.02-.755-.218-1.348-.208-.493-.48-.839-.815-1.039a1.272 1.272 0 0 0-.672-.182 1.657 1.657 0 0 0-.703.157c-.338.16-.501.416-.492.766.007.198.08.39.222.572.133.175.308.313.52.415.22.104.441.15.667.137a1.1 1.1 0 0 0 .656-.254c.035.122.052.25.05.38-.004.259-.099.408-.284.444a.373.373 0 0 1-.358-.143l-.096-.179-.628.165.064.127M53.994 55.618c-.006-.186-.079-.383-.215-.592a1.11 1.11 0 0 0-.415-.397.707.707 0 0 0-.467-.064c-.215.043-.317.182-.303.417.01.197.091.408.239.634.124.192.265.323.421.39a.67.67 0 0 0 .505.008c.166-.057.245-.19.235-.396m.25-.853c.266.408.408.795.424 1.157.017.404-.138.663-.465.774-.35.123-.678.116-.985-.017-.305-.131-.578-.385-.823-.76-.29-.442-.446-.856-.469-1.239-.026-.461.172-.734.594-.818.321-.061.625-.02.915.127.299.15.569.41.808.776M39.288 55.837l-.204-.823.73-.02-.073.886.865-.545.394.755-1.024.261.762.698-.678.475-.477-.85-.526.846-.686-.513.691-.653-1.07-.278.15-.703z"/>
            <path fill="#383C45" d="M64.88 53.524l.192.462.46-.023-.176-.453-.475.014zm-.957-1.06l.55-.022.295.623.405-.02-.285-.637.55-.022.296.629.578-.03.195.534-.595.016.222.446.574-.03.194.533-.59.017.201.488-.618.016-.19-.487-.37.011.214.517-.619.016-.199-.516-.576.016-.16-.47.586-.03-.225-.484-.598.017-.158-.468.606-.032-.283-.63z"/>
            <path fill="#9A9EB2" d="M68.63 33.906a.172.172 0 0 0-.105-.03l-1.349.12a.065.065 0 0 0-.05.025c-.007.015-.006.033.003.054l1.036 2.246a.163.163 0 0 0 .073.073.152.152 0 0 0 .096.026l1.467-.111c.024-.003.04-.012.051-.026.008-.017.007-.035-.002-.056l-.127-.271a.15.15 0 0 0-.068-.072.17.17 0 0 0-.097-.028l-.95.047a.175.175 0 0 1-.098-.027.157.157 0 0 1-.07-.07l-.199-.44c-.012-.022-.012-.042-.002-.059.01-.014.027-.022.053-.023l.832-.043a.07.07 0 0 0 .05-.026c.01-.015.01-.033 0-.056l-.108-.24a.153.153 0 0 0-.067-.073.185.185 0 0 0-.099-.029l-.765.04a.177.177 0 0 1-.097-.028.164.164 0 0 1-.069-.072l-.164-.357c-.009-.02-.01-.039-.001-.056.009-.014.025-.023.05-.024l.854-.072c.02 0 .037-.008.047-.022a.06.06 0 0 0 .005-.048l-.061-.191c-.008-.03-.033-.057-.069-.08M70.814 33.731a.168.168 0 0 0-.097-.026l-.331.03c-.024.002-.04.012-.048.028-.011.014-.01.033.002.055l.408.867c.023.046.01.073-.04.08-.048.01-.095-.007-.141-.052l-.893-.829a.222.222 0 0 0-.066-.042.177.177 0 0 0-.07-.012l-.354.028c-.021.004-.037.012-.047.027-.008.016-.008.032 0 .053l.965 2.233a.172.172 0 0 0 .07.073.17.17 0 0 0 .096.028l.374-.016c.025-.001.042-.01.052-.027.01-.016.009-.036-.002-.058l-.462-.971c-.022-.047-.009-.074.04-.081.047-.009.096.009.142.052l1.028.96a.186.186 0 0 0 .127.055l.312-.004c.025-.001.043-.009.054-.023.01-.016.011-.037 0-.059l-1.049-2.296a.15.15 0 0 0-.07-.073M72.046 34.25c.106-.203.274-.279.505-.228.15.031.31.11.484.24.026.02.055.032.086.037.03.004.053.002.068-.01a2.32 2.32 0 0 1 .17-.116c.019-.01.027-.026.024-.049a.12.12 0 0 0-.037-.065c-.104-.1-.23-.194-.38-.28a1.456 1.456 0 0 0-.516-.2c-.336-.052-.594.002-.776.16-.259.223-.245.622.043 1.195.156.31.353.563.593.756.21.17.442.286.69.35.22.054.424.062.62.025.183-.037.315-.108.394-.213.106-.138.123-.33.05-.575a2.036 2.036 0 0 0-.234-.493.207.207 0 0 0-.068-.062.186.186 0 0 0-.087-.025l-.817.019c-.024 0-.042.007-.053.021-.01.015-.011.031-.004.052l.092.248a.166.166 0 0 0 .067.074.182.182 0 0 0 .1.032l.318-.013a.168.168 0 0 1 .1.033c.036.023.06.05.068.08a.322.322 0 0 1-.012.255c-.053.097-.162.157-.326.18-.123.019-.268-.02-.437-.117a1.698 1.698 0 0 1-.442-.372 1.408 1.408 0 0 1-.291-.482c-.06-.179-.058-.332.008-.457M75.318 33.923c.07-.072.172-.106.305-.103.158-.005.336.088.532.28.138.138.245.276.323.413.088.162.127.311.115.446-.019.194-.157.279-.414.255-.243-.02-.458-.138-.643-.354a1.416 1.416 0 0 1-.155-.22l-.052-.1c-.125-.292-.128-.498-.01-.617m.073-.58a.697.697 0 0 0-.453.137c-.26.193-.283.544-.066 1.053l.09.175c.08.14.174.271.277.39.332.387.715.598 1.147.636.46.04.707-.112.738-.456.02-.245-.049-.51-.206-.798a2.828 2.828 0 0 0-.526-.678c-.328-.308-.66-.462-1.001-.46M78.126 33.211a.177.177 0 0 0-.074-.074.171.171 0 0 0-.098-.026l-1.209.116c-.023.002-.04.01-.048.026-.01.014-.009.032 0 .053l.952 2.177c.01.028.034.05.066.072.034.02.067.03.097.029l.346-.012c.025-.001.043-.01.052-.027.01-.016.01-.036-.002-.058l-.402-.86c-.011-.022-.012-.04-.002-.054.009-.015.025-.024.05-.026l.76-.056c.024-.002.04-.011.052-.025.008-.015.007-.033-.002-.055l-.105-.241a.153.153 0 0 0-.072-.074.175.175 0 0 0-.099-.026l-.71.055a.182.182 0 0 1-.1-.028.166.166 0 0 1-.07-.073l-.145-.328c-.01-.022-.01-.04 0-.055.007-.014.022-.023.044-.025l.78-.085c.021-.002.038-.01.047-.024.008-.016.006-.035-.003-.056l-.105-.24zM78.455 33.076c-.01.016-.01.033 0 .055l.95 2.175c.011.027.033.05.066.072.033.02.066.03.098.028l.344-.013c.025 0 .045-.009.054-.023.01-.016.01-.037 0-.057l-.405-.86c-.009-.022-.011-.042-.003-.058.01-.015.027-.023.05-.025l.76-.056c.026-.003.042-.01.052-.026.009-.014.008-.032 0-.053l-.107-.243a.153.153 0 0 0-.071-.073.17.17 0 0 0-.1-.026l-.71.054a.175.175 0 0 1-.098-.027.171.171 0 0 1-.073-.073l-.144-.329c-.01-.022-.01-.039 0-.054.007-.015.022-.023.044-.027l.78-.083c.022-.001.038-.01.047-.024.01-.016.01-.033-.001-.054l-.106-.242a.16.16 0 0 0-.074-.073.155.155 0 0 0-.099-.026l-1.209.115c-.022.003-.037.012-.045.026M84.058 50.807c-.01-.018-.011-.035 0-.048.01-.014.027-.023.052-.027.153-.02.295-.02.424 0 .196.026.33.096.403.208.074.112.03.19-.13.231-.102.03-.243.041-.423.038a.223.223 0 0 1-.087-.024.133.133 0 0 1-.057-.051l-.182-.327zm-.765-.318a.056.056 0 0 0 .003.044l.993 1.871c.012.022.033.04.065.055a.173.173 0 0 0 .093.02l.316-.024c.023-.004.043-.012.053-.026.012-.014.013-.031.003-.05l-.362-.726c-.012-.02-.01-.04.005-.055.015-.013.039-.02.07-.02.33.012.583-.021.763-.094.292-.121.325-.341.099-.657-.217-.303-.585-.461-1.108-.477a3.424 3.424 0 0 0-.953.11.08.08 0 0 0-.04.029zM81.206 51.16a.043.043 0 0 0 .008-.042l-.109-.233c-.007-.026-.028-.048-.063-.066a.184.184 0 0 0-.107-.022l-1.397.15c-.024.002-.041.01-.052.023a.046.046 0 0 0-.004.046l.882 1.904c.01.024.033.044.067.06a.18.18 0 0 0 .1.017l1.488-.174c.025-.004.041-.013.052-.027.008-.016.007-.032-.003-.052l-.161-.281a.146.146 0 0 0-.072-.055.175.175 0 0 0-.095-.016l-.906.12a.175.175 0 0 1-.1-.02c-.036-.015-.059-.035-.07-.059l-.16-.36c-.01-.018-.009-.034.002-.047.012-.015.03-.022.055-.025l.86-.066c.027-.001.045-.009.057-.022.011-.013.014-.028.006-.048l-.087-.201c-.01-.025-.032-.044-.067-.06a.183.183 0 0 0-.096-.02l-.792.061a.189.189 0 0 1-.096-.02c-.032-.016-.054-.036-.063-.058l-.071-.226c-.01-.018-.008-.033.004-.046.01-.015.028-.02.054-.025l.886-.09a.076.076 0 0 0 .05-.02M81.623 50.729c-.01.014-.013.031-.003.05l.964 1.865a.145.145 0 0 0 .07.06.18.18 0 0 0 .099.015l1.192-.166c.023-.004.041-.011.05-.027.01-.013.01-.03-.001-.048l-.175-.321a.14.14 0 0 0-.067-.057.201.201 0 0 0-.097-.017l-.54.053a.202.202 0 0 1-.096-.019.134.134 0 0 1-.066-.056l-.686-1.31a.152.152 0 0 0-.065-.056.187.187 0 0 0-.095-.018l-.426.027c-.027.003-.046.01-.058.025M77.622 51.126a.165.165 0 0 0-.088-.015l-.463.042c-.025.003-.043.012-.055.028-.011.014-.013.03-.003.052l.906 1.99c.01.023.03.042.062.056.03.016.061.02.092.02l.455-.045c.027-.002.044-.011.057-.027.012-.014.012-.033.003-.052l-.377-.808c-.009-.019-.008-.036.003-.052.009-.014.027-.023.053-.025l.557-.066a.177.177 0 0 1 .092.018c.03.014.051.033.06.058l.36.77c.01.02.03.039.059.055.03.014.06.02.089.017l.359-.025c.026 0 .046-.01.058-.026.012-.013.014-.03.006-.05l-.81-2.004a.118.118 0 0 0-.062-.06.172.172 0 0 0-.093-.018l-.456.044c-.025.002-.043.01-.054.023a.05.05 0 0 0-.007.052l.253.65c.006.02.005.035-.007.049a.086.086 0 0 1-.056.024l-.465.046a.177.177 0 0 1-.09-.016.147.147 0 0 1-.061-.054l-.315-.596c-.01-.022-.032-.04-.062-.055"/>
            <path fill="#383C45" d="M65.692 25.492c-.011-.028-.039-.053-.08-.077a.204.204 0 0 0-.109-.027l-1.496.077c-.045.009-.063.033-.053.078l1.175 2.059c.03.063.09.095.18.094l1.618-.076a.153.153 0 0 0 .058-.02.085.085 0 0 0-.017-.053l-.139-.249a.13.13 0 0 0-.07-.066.164.164 0 0 0-.1-.019l-.98.039a.302.302 0 0 1-.107-.038.188.188 0 0 1-.082-.066l-.212-.393c-.012-.021-.014-.04-.006-.055a.154.154 0 0 1 .058-.022l.849-.038c.03.002.049-.004.056-.021.011-.016.009-.036-.004-.055l-.121-.217a.135.135 0 0 0-.07-.067.272.272 0 0 0-.109-.027l-.782.038a.199.199 0 0 1-.106-.038.198.198 0 0 1-.082-.066l-.177-.32c-.012-.02-.01-.036.006-.047.01-.015.028-.023.058-.02l.873-.065c.045-.008.062-.03.051-.065l-.08-.178zM67.346 25.32c-.008.016-.006.034.004.053l.455.787c.026.044.011.068-.04.076a.202.202 0 0 1-.152-.051l-.947-.756a.214.214 0 0 0-.145-.05l-.36.024c-.024.004-.04.012-.048.026-.011.013-.01.03 0 .049L67.2 27.52a.18.18 0 0 0 .074.068c.037.02.072.03.106.028l.377-.016c.027 0 .046-.007.057-.021.008-.016.006-.034-.007-.056l-.51-.88c-.026-.044-.012-.07.038-.077.051-.008.1.009.151.05l1.094.873a.194.194 0 0 0 .135.051l.316-.001c.028-.001.048-.007.059-.023.01-.013.01-.031-.002-.053l-1.175-2.1a.169.169 0 0 0-.078-.067.2.2 0 0 0-.106-.026l-.334.024c-.023.003-.04.012-.05.026M72.562 25.004a.211.211 0 0 0-.103-.026l-1.642.092c-.028.001-.044.01-.055.025-.008.014-.007.032.005.053l.139.241a.16.16 0 0 0 .075.068.204.204 0 0 0 .106.024l.458-.027a.207.207 0 0 1 .103.026c.039.02.065.042.081.067l.929 1.633a.17.17 0 0 0 .078.069.198.198 0 0 0 .106.024l.363-.03c.023-.002.04-.01.05-.023.007-.018.005-.034-.008-.053l-.991-1.66c-.013-.023-.015-.04-.006-.055.008-.013.024-.022.048-.024l.434-.038c.024-.002.04-.011.05-.026.008-.014.007-.03-.005-.05l-.137-.244a.192.192 0 0 0-.078-.066M74.937 24.827c-.009.017-.008.035.005.056l1.29 2.058c.016.024.04.046.074.063.038.018.07.027.1.027l.344-.009c.03-.001.047-.009.056-.024.012-.016.01-.034-.004-.056l-1.288-2.058a.202.202 0 0 0-.077-.063.204.204 0 0 0-.096-.025l-.347.007c-.028 0-.047.008-.057.024M76.702 25.068c.008-.015.023-.026.046-.03.156-.016.302-.011.434.014.209.034.36.116.457.244.093.125.064.21-.09.253-.1.029-.243.04-.425.03a.232.232 0 0 1-.163-.085l-.25-.37c-.013-.022-.016-.04-.009-.056m-.796-.35c-.045.011-.054.037-.026.08l1.374 2.107a.208.208 0 0 0 .078.063.215.215 0 0 0 .1.025l.318-.018c.025-.002.043-.011.052-.027.008-.016.006-.034-.008-.055l-.511-.818c-.017-.025-.019-.044-.005-.061.012-.015.034-.023.068-.02.338.022.592-.006.761-.084.278-.124.27-.366-.022-.726-.281-.343-.69-.53-1.226-.564a3.035 3.035 0 0 0-.953.098M74.473 25.4l.038.05c.064.105.009.177-.166.218a1.928 1.928 0 0 1-.462.033.19.19 0 0 1-.094-.028.185.185 0 0 1-.073-.062l-.187-.31c-.01-.019-.014-.037-.009-.051.008-.014.023-.023.046-.027.258-.034.472-.028.64.021.135.035.223.086.267.156m-1.587-.463c-.04.011-.05.034-.03.073l1.141 2.071c.015.027.041.05.08.07a.18.18 0 0 0 .103.023l.31-.02c.026-.001.042-.01.051-.023.01-.013.01-.03-.004-.052l-.413-.781c-.012-.02-.012-.038-.002-.05.008-.015.025-.023.05-.023a.643.643 0 0 1 .244.036c.126.042.26.115.398.218l.665.542a.223.223 0 0 0 .078.042.15.15 0 0 0 .08.008l.326-.059c.032-.005.047-.02.045-.047-.001-.024-.019-.047-.052-.072l-.958-.73c-.029-.02-.045-.044-.049-.068-.003-.024.007-.04.032-.049.12-.037.181-.107.186-.208.012-.149-.106-.353-.352-.615-.243-.256-.602-.387-1.078-.394a3.16 3.16 0 0 0-.851.108M69.13 25.715c.159-.019.312-.004.458.042.236.076.43.226.582.454.177.262.212.457.101.583-.072.082-.198.13-.38.145a.206.206 0 0 1-.107-.024.172.172 0 0 1-.074-.068l-.618-1.055c-.012-.02-.014-.036-.006-.05a.06.06 0 0 1 .044-.027m-.891-.446c-.006.013-.002.029.007.046l1.216 2.128a.174.174 0 0 0 .068.063c.034.019.067.03.098.03.412.024.74-.013.988-.11.411-.158.5-.464.265-.915-.303-.588-.717-.981-1.242-1.181-.41-.155-.864-.186-1.362-.088-.02.003-.033.012-.038.027"/>
            <path fill="#9A9EB2" d="M73.855 42.157a1.64 1.64 0 0 1 .457.007c.207.035.343.12.406.253.064.13.007.217-.171.265-.113.03-.265.042-.458.035a.189.189 0 0 1-.091-.027.146.146 0 0 1-.054-.06l-.153-.385c-.007-.022-.006-.04.006-.058a.084.084 0 0 1 .058-.03m-.795-.326c-.048.011-.064.038-.05.083l.819 2.193c.01.025.031.046.064.064a.178.178 0 0 0 .096.024l.342-.023c.03-.001.05-.01.064-.026.015-.017.017-.036.009-.06l-.296-.852a.055.055 0 0 1 .015-.06c.017-.018.042-.026.075-.024.352.02.63-.012.833-.096.33-.135.394-.39.193-.76-.193-.357-.568-.55-1.125-.577a3.491 3.491 0 0 0-1.039.114M81.874 41.223a.05.05 0 0 0-.003.052l.904 2.062c.01.027.035.047.072.065a.216.216 0 0 0 .106.023l1.67-.156c.028-.004.047-.012.06-.026.013-.015.013-.032.004-.05l-.11-.252c-.011-.026-.034-.046-.069-.063a.206.206 0 0 0-.104-.022l-1.083.076a.208.208 0 0 1-.105-.023c-.035-.017-.058-.039-.07-.065l-.176-.404c-.007-.02-.005-.038.008-.052.014-.015.033-.023.061-.026l.943-.068c.028-.003.047-.01.06-.025.014-.014.017-.033.008-.052l-.092-.222c-.01-.027-.033-.048-.068-.067a.212.212 0 0 0-.11-.022l-.868.062a.194.194 0 0 1-.106-.021.142.142 0 0 1-.07-.065l-.143-.327c-.007-.02-.006-.036.006-.052.012-.015.031-.022.058-.026l.974-.096c.025-.002.043-.01.055-.023a.047.047 0 0 0 .01-.045l-.043-.176c-.005-.027-.028-.051-.068-.072a.18.18 0 0 0-.114-.024l-1.54.155a.088.088 0 0 0-.057.027M76.59 42.642c.022.027.026.052.014.077-.013.024-.04.036-.076.037l-.203.005a.166.166 0 0 1-.11-.036c-.035-.022-.051-.048-.05-.077l-.006-.273c.001-.042.03-.064.089-.064a.16.16 0 0 1 .135.065l.207.266zm-.93-1.04c-.053.005-.079.026-.078.065l.058 2.255c.003.03.02.055.055.08a.184.184 0 0 0 .11.032l.445-.025a.092.092 0 0 0 .058-.02.066.066 0 0 0 .02-.049l-.061-.64c0-.018.007-.035.024-.047.013-.013.033-.018.06-.02l.402-.013c.028 0 .055.007.083.02a.144.144 0 0 1 .062.048l.388.544c.015.02.036.038.066.051a.166.166 0 0 0 .082.017l.454-.024c.037-.002.06-.014.072-.036.012-.025.008-.05-.014-.077l-1.625-2.123a.15.15 0 0 0-.063-.048.155.155 0 0 0-.083-.016l-.515.027zM77.816 41.483l-.43.051a.075.075 0 0 0-.053.032.061.061 0 0 0-.008.056c.116.317.287.711.432 1.003.238.482.463.8.672.953a1.132 1.132 0 0 0 .932.183.744.744 0 0 0 .363-.206.507.507 0 0 0 .138-.37c-.004-.153-.094-.455-.27-.907-.11-.278-.235-.572-.376-.88a.124.124 0 0 0-.061-.06.16.16 0 0 0-.088-.015l-.316.047c-.027.004-.046.016-.056.033a.064.064 0 0 0-.004.062c.154.342.275.65.366.926.152.46.175.708.068.745a.448.448 0 0 1-.292.018.543.543 0 0 1-.244-.213c-.121-.171-.343-.675-.621-1.38a.118.118 0 0 0-.061-.063.147.147 0 0 0-.09-.015M80.982 41.572l.04.014c.065.033.11.082.14.15.013.027.037.048.073.064a.161.161 0 0 0 .1.016l.299-.06c.028-.005.047-.018.056-.04.009-.02.004-.041-.012-.066a1.223 1.223 0 0 0-.36-.33 1.243 1.243 0 0 0-.74-.165c-.118.007-.236.03-.352.07-.23.079-.338.2-.324.367a.835.835 0 0 0 .273.553c.191.178.499.32.919.426.209.053.368.125.48.215.093.076.138.154.133.234-.003.073-.047.125-.13.153a.47.47 0 0 1-.32-.026 1.3 1.3 0 0 1-.413-.25.164.164 0 0 0-.068-.039.15.15 0 0 0-.077-.005l-.35.068c-.03.006-.05.018-.057.04-.01.022-.004.045.015.068a1.38 1.38 0 0 0 1.268.562c.419-.037.664-.156.73-.36.053-.156.002-.344-.156-.564-.09-.125-.348-.256-.772-.39a8.893 8.893 0 0 1-.449-.153c-.142-.056-.235-.115-.278-.175-.099-.138-.12-.246-.066-.324.058-.083.191-.1.398-.053"/>
        </g>
    </g>
</svg>
