<svg xmlns="http://www.w3.org/2000/svg" width="180" height="150" viewBox="0 0 180 150">
    <defs>
        <linearGradient id="a" x1="50%" x2="50%" y1="90.253%" y2="2.51%">
            <stop offset="0%" stop-color="#CCEBF8"/>
            <stop offset="100%" stop-color="#F5F5F5"/>
        </linearGradient>
    </defs>
    <g fill="none" fill-rule="evenodd">
        <path d="M0-19h180v180H0z"/>
        <g transform="translate(0 24)">
            <path fill="url(#a)" d="M160.118 49.957c.714.618 1.39 1.261 2.063 1.908.34.32.668.651 1.004.973l.996.98c.662.653 1.318 1.314 1.971 1.98a52.1 52.1 0 0 1 1.925 2.042 23.415 23.415 0 0 1-2.253-1.698 34.159 34.159 0 0 1-2.078-1.898c-.329-.335-.658-.668-.979-1.01-.314-.347-.634-.69-.936-1.048a23.281 23.281 0 0 1-1.713-2.23" transform="rotate(-8 164.098 53.899)"/>
            <path fill="#353535" d="M35.2 104.74a5.529 5.529 0 0 1-.033.409c-.024.272-.058.539-.102.805a11.28 11.28 0 0 1-.153.79c-.11.503-.256.996-.427 1.475a13.304 13.304 0 0 1-.472 1.142 13.457 13.457 0 0 1-.912 1.622c-.052.083-.108.163-.163.243l-.03.042a15.589 15.589 0 0 1-.52.692c-.088.114-.183.225-.278.336a12.915 12.915 0 0 1-1.384 1.386c-.052.047-.108.09-.16.135-.08.067-.155.132-.237.192-.03.028-.061.051-.092.075-.08.064-.161.127-.243.184a12.922 12.922 0 0 1-.899.62 9.662 9.662 0 0 1-.416.247 11.067 11.067 0 0 1-.685.368c-.098.05-.195.099-.296.143-.105.052-.213.1-.32.148-.133.06-.264.113-.399.166a9.883 9.883 0 0 1-.54.202c-.148.054-.295.1-.443.147-.158.05-.316.096-.477.137-.15.042-.303.08-.456.117-.016.002-.029.008-.045.008a6.966 6.966 0 0 1-.41.088c-.03.008-.061.013-.09.018-.156.031-.312.057-.47.08-.3.047-.603.083-.912.106-.052.006-.107.011-.16.014-.013.002-.029.002-.045.002-.103.01-.21.016-.313.018 0 0 0 .003-.003 0a3.74 3.74 0 0 1-.235.008 9.027 9.027 0 0 1-.756 0c-.38-.008-.76-.034-1.13-.078a12.76 12.76 0 0 1-1.953-.365 13.76 13.76 0 0 1-.351-.099c-.058-.018-.119-.033-.177-.054a7.601 7.601 0 0 1-.25-.08 9.551 9.551 0 0 1-.538-.192 5.8 5.8 0 0 1-.295-.116l-.176-.073-.042-.018-.17-.075a12.877 12.877 0 0 1-1.932-1.062 12.934 12.934 0 0 1-1.686-1.33 12.934 12.934 0 0 1-.92-.942 12.924 12.924 0 0 1-1.628-2.311c-.103-.184-.2-.37-.293-.56 0 0 .003 0 0-.002a12.277 12.277 0 0 1-.5-1.164 13.012 13.012 0 0 1-.696-2.808 13.078 13.078 0 0 1-.037-.334 11.607 11.607 0 0 1-.053-1.982c.006-.109.013-.215.021-.324.013-.215.034-.43.064-.64.013-.106.029-.21.044-.315a5.64 5.64 0 0 1 .053-.314c.013-.08.026-.16.045-.241a10.716 10.716 0 0 1 .11-.51 10.317 10.317 0 0 1 .214-.778c.048-.147.095-.297.148-.445.05-.148.105-.293.16-.438.074-.191.153-.383.237-.57.066-.145.132-.287.201-.43.008-.008.01-.018.016-.028.063-.127.126-.251.192-.373l.15-.27c.048-.088.1-.176.156-.264a12.032 12.032 0 0 1 .414-.648c.087-.127.176-.25.266-.375.058-.083.12-.164.184-.244.08-.1.158-.202.24-.3.04-.05.082-.099.124-.148a11.197 11.197 0 0 1 .643-.707c.084-.086.171-.171.258-.257l.182-.17c.06-.058.121-.115.185-.17.058-.053.118-.105.179-.157.092-.08.187-.16.284-.238a11.37 11.37 0 0 1 1.04-.77l.004-.003a12.115 12.115 0 0 1 .907-.548.31.31 0 0 1 .057-.032c.04-.023.08-.046.122-.065.068-.038.137-.074.205-.108.106-.055.214-.107.325-.16.092-.048.187-.092.282-.13.09-.044.181-.083.273-.122.1-.042.201-.083.304-.122.097-.042.192-.078.292-.111.098-.04.198-.073.298-.106.1-.034.198-.068.3-.099.1-.03.2-.062.304-.09.203-.06.408-.115.616-.161.103-.026.206-.05.311-.07a5.26 5.26 0 0 1 .285-.057c.005-.003.01-.003.018-.006.006 0 .008-.002.014 0 .036-.007.076-.015.113-.02.058-.013.118-.021.18-.031.02-.003.041-.008.06-.01h.008l.052-.008.08-.016c.047-.008.094-.013.144-.018.214-.031.43-.054.648-.072.085-.01.169-.016.256-.021h.008l.142-.008.035-.003c.07-.008.142-.01.216-.01a12.903 12.903 0 0 1 1.049-.002c.058.002.113.002.168.007.087.003.172.008.253.016a11.605 11.605 0 0 1 .395.031c.093.01.185.018.277.031a7.652 7.652 0 0 1 .408.054l.104.016.14.023.179.031c.02.003.042.008.063.013.055.008.11.02.166.031.026.006.053.01.079.018.058.01.116.021.171.034.048.01.093.02.14.034.042.008.084.018.126.028.148.036.293.076.44.114l.24.07.148.047.1.03h.002l.011.003a16.732 16.732 0 0 1 .727.26l.059.023c.081.028.16.062.24.096.028.01.055.023.081.033a15.427 15.427 0 0 1 1.001.474l.354.192c.203.117.403.238.6.363l.183.116c.065.047.128.089.194.133.12.08.235.165.35.248.156.117.31.234.46.355l.205.168.203.174c.066.057.135.117.198.176a11.395 11.395 0 0 1 .89.891c.016.018.035.037.05.055l.288.329c.11.137.221.272.329.412.05.064.098.127.145.192.048.064.095.126.143.194a13.745 13.745 0 0 1 .806 1.275 12.833 12.833 0 0 1 1.492 4.559c.015.1.026.204.034.308a12.336 12.336 0 0 1 .042 2.156"/>
            <path fill="#353535" d="M38.91 90.069c-.003 0-.003-.003-.005-.005a22.047 22.047 0 0 0-8.463-6.132 22.25 22.25 0 0 0-9.084-1.638c-.2.006-.4.014-.601.024l-.048.002a25.737 25.737 0 0 0-1.887.19c-.205.028-.41.06-.614.096l-.018.002c-.169.029-.337.06-.506.093l-.156.031c-.184.036-.366.078-.548.12-.203.046-.403.095-.6.147a14.451 14.451 0 0 0-.786.22h-.003c-.134.04-.266.08-.397.125-.146.044-.288.09-.43.142-.119.039-.237.08-.356.124-.261.091-.519.19-.772.296-.127.052-.253.103-.38.158-.126.052-.253.109-.376.163-.132.057-.261.117-.39.179l-.33.158c-.253.124-.5.254-.748.388-.093.05-.185.102-.277.153-.322.177-.635.365-.946.562-.13.078-.259.161-.385.244-.556.365-1.094.754-1.613 1.166-.121.098-.242.194-.364.295-.14.114-.276.23-.41.35l-.085.073c-.127.113-.253.225-.374.339a3.287 3.287 0 0 0-.14.13 34.85 34.85 0 0 0-.675.658 24.125 24.125 0 0 0-.87.945c-.131.148-.258.3-.384.453C1.832 94.035 0 98.765 0 103.916c0 11.945 9.852 21.629 22.003 21.629 12.152 0 22.004-9.684 22.004-21.63 0-5.266-1.914-10.095-5.097-13.846"/>
            <path fill="#FFC526" d="M35.225 103.913c0 4.446-2.266 8.368-5.726 10.71a13.303 13.303 0 0 1-7.496 2.29c-7.302 0-13.222-5.819-13.222-13 0-7.002 5.632-12.71 12.685-12.984.18-.01.358-.013.537-.013 7.303 0 13.222 5.819 13.222 12.997"/>
            <path fill="#FFD464" d="M35.225 103.913c0 4.446-2.266 8.368-5.726 10.71.582-.795 1.096-1.643 1.489-2.606.985-2.415 1.404-5.169.63-7.697-.132-.425-.32-.847-.644-1.156-1.325-1.256-3.138.33-4.177 1.171-1.207.982-2.459 2.138-4.09 2.306-.327.034-.688.016-.93-.202-.232-.21-.293-.547-.309-.855-.131-2.326 1.255-4.427 2.28-6.526 1.025-2.098 1.666-4.777.216-6.619-.685-.873-1.56-1.254-2.498-1.51.18-.01.358-.013.537-.013 7.303 0 13.222 5.819 13.222 12.997"/>
            <path fill="#FFD464" d="M27.12 103.914c0 3.016-2.488 5.46-5.556 5.46-3.067 0-5.554-2.444-5.554-5.46 0-3.015 2.487-5.46 5.554-5.46 3.068 0 5.555 2.445 5.555 5.46"/>
            <path fill="#282828" d="M30.442 83.932c-.097.363-.208.725-.319 1.08-.079.251-.155.502-.234.754-.67 2.147-1.374 4.313-2.232 6.394a13.133 13.133 0 0 0-1.542-.604 13.452 13.452 0 0 0-4.112-.64c-.11 0-.22.003-.332.005-.068 0-.137.003-.205.008-.084 0-.169.005-.25.013l-.143.008a10.796 10.796 0 0 0-.912.093c-.097.01-.192.026-.284.041-.019.003-.04.008-.06.01-.207.032-.41.07-.61.115-.105.02-.208.044-.31.07a9.94 9.94 0 0 0-.617.16c-.103.029-.203.06-.304.091-.102.03-.2.065-.3.099-.1.033-.2.067-.298.105-.1.034-.195.07-.292.112a9.688 9.688 0 0 0-.577.244c-.095.039-.19.083-.282.13-.111.053-.22.105-.325.16a11.86 11.86 0 0 0-.772.427c-.176.104-.35.215-.519.327l-.003.002c-.087.057-.17.114-.255.174-.137-.922-.272-1.855-.701-2.684-.517-.997-1.624-1.816-2.739-1.588-.869.176-1.491.907-2.25 1.357-1.141.677-2.625.57-3.774-.075 4.032-4.901 10.202-8.036 17.114-8.036 2.992 0 5.84.586 8.439 1.648"/>
            <path fill="#767676" d="M20.023 106.279a2.881 2.881 0 0 1-.893-4.01L30.648 84.6c.876-1.343 2.712-1.738 4.079-.877a2.881 2.881 0 0 1 .893 4.01L24.102 105.4c-.876 1.344-2.712 1.739-4.079.878"/>
            <path fill="#353535" d="M155.64 104.74a5.39 5.39 0 0 1-.03.409c-.024.272-.059.539-.103.805a11.28 11.28 0 0 1-.153.79c-.111.503-.256.996-.427 1.475a13.492 13.492 0 0 1-.472 1.142 12.95 12.95 0 0 1-1.06 1.842c-.052.078-.105.153-.158.228-.065.086-.129.174-.195.26a13.178 13.178 0 0 1-.746.896c-.068.077-.14.152-.21.228-.021.017-.04.038-.058.057a.049.049 0 0 0-.01.012c-.088.088-.175.176-.264.262a12.903 12.903 0 0 1-.63.575c-.022.018-.042.037-.063.052-.095.083-.193.16-.29.236-.03.028-.061.051-.093.075-.079.064-.16.127-.242.184-.16.124-.327.24-.496.355a17.6 17.6 0 0 1-.403.264 9.504 9.504 0 0 1-.416.248 10.722 10.722 0 0 1-.685.368c-.098.05-.195.099-.296.143a7.82 7.82 0 0 1-.321.148 6.801 6.801 0 0 1-.385.16c0 .003-.002 0-.002 0a3.924 3.924 0 0 1-.29.112c-.232.09-.467.17-.704.243-.158.05-.316.096-.477.137a7.145 7.145 0 0 1-.461.117l-.032.008a8.196 8.196 0 0 1-.508.106c-.156.031-.311.057-.47.08-.3.047-.603.083-.911.106-.053.006-.109.011-.161.014-.013.002-.03.002-.045.002-.103.01-.21.016-.314.018 0 0 0 .003-.002 0-.08.005-.156.008-.235.008a9.027 9.027 0 0 1-.75 0 11.634 11.634 0 0 1-1.137-.078 12.058 12.058 0 0 1-1.096-.168c-.045-.008-.09-.016-.132-.026a4.074 4.074 0 0 1-.242-.055 10.612 10.612 0 0 1-1.089-.295 9.642 9.642 0 0 1-.709-.246 5.8 5.8 0 0 1-.295-.116l-.176-.073-.043-.018-.168-.075c-.1-.044-.2-.09-.3-.14a12.699 12.699 0 0 1-1.632-.922l-.245-.166a13.3 13.3 0 0 1-2.362-2.106 12.987 12.987 0 0 1-1.52-2.122c-.037-.065-.074-.125-.108-.19-.103-.183-.2-.37-.293-.559v-.002a12.211 12.211 0 0 1-.5-1.164l-.016-.046c-.032-.086-.06-.169-.09-.254v-.003a6.729 6.729 0 0 1-.103-.303c-.02-.067-.042-.132-.06-.2a20.465 20.465 0 0 1-.195-.727v-.003c-.05-.21-.095-.42-.132-.635a10.01 10.01 0 0 1-.137-.971 11.607 11.607 0 0 1-.053-1.982c.005-.109.013-.215.021-.324.013-.215.034-.43.063-.64.013-.106.03-.21.046-.315a5.64 5.64 0 0 1 .052-.314c.013-.08.026-.16.045-.241a12.987 12.987 0 0 1 .633-2.17c.026-.068.052-.138.084-.208a10.491 10.491 0 0 1 .3-.679 11.098 11.098 0 0 1 .566-1.05c.05-.087.103-.175.161-.26.05-.081.1-.159.153-.237.05-.077.103-.155.158-.233.066-.098.137-.194.209-.292.058-.083.12-.164.184-.244.08-.1.158-.202.24-.3a10.603 10.603 0 0 1 .348-.407c.134-.153.274-.303.419-.448a12.476 12.476 0 0 1 1.378-1.223 11.22 11.22 0 0 1 .751-.539l.003-.003a12.116 12.116 0 0 1 .907-.548.303.303 0 0 1 .057-.032c.04-.023.08-.046.122-.065.068-.038.137-.074.205-.108.106-.055.214-.107.324-.16.092-.048.188-.092.282-.13.09-.044.182-.083.275-.122.1-.042.2-.083.303-.122.097-.042.192-.078.292-.111.098-.04.198-.073.298-.106.1-.034.198-.068.3-.099.1-.03.2-.062.303-.09.203-.06.409-.115.617-.161.103-.026.206-.05.311-.07.095-.021.19-.042.285-.057.005-.003.01-.003.018-.006.005 0 .008-.002.013 0 .037-.007.077-.015.114-.02.058-.013.118-.021.179-.031l.06-.01h.008l.053-.008.08-.016c.047-.008.097-.013.144-.018.214-.031.43-.054.648-.072.085-.01.17-.016.256-.021h.008l.142-.008.035-.003c.07-.008.142-.01.216-.01a12.903 12.903 0 0 1 1.365.013c.026 0 .053.003.082.005l.108.008c.105.008.208.016.313.026.09.01.182.018.274.031a7.636 7.636 0 0 1 .408.054l.104.016.14.023.178.031c.022.003.043.008.064.013.055.008.11.02.166.031.026.006.052.01.079.018.058.01.115.021.171.034.048.01.092.02.14.034l.103.023c.076.018.15.036.224.057.031.008.063.016.094.026a4.55 4.55 0 0 1 .3.083c.088.023.175.05.262.078l.073.023.011.002a17.279 17.279 0 0 1 .727.26l.058.023c.082.028.161.062.24.096l.082.033a12.166 12.166 0 0 1 .638.293c.498.241.978.513 1.436.813.06.04.119.076.177.117.026.018.055.036.081.055.119.08.235.165.35.248.156.117.31.234.46.355.07.057.14.111.205.168.069.058.134.117.203.174.068.057.132.117.198.176l.195.182a14.267 14.267 0 0 1 .696.71l.05.054.287.329v.002c.09.107.176.215.26.324.333.42.636.86.912 1.316.053.086.1.171.148.257.018.023.031.05.042.072.024.034.042.068.06.102.103.186.201.373.293.562.03.056.056.116.082.173a11.728 11.728 0 0 1 .543 1.347c.032.083.058.166.084.25.021.066.042.13.06.199.048.158.09.318.133.479l.063.25a13.395 13.395 0 0 1 .235 1.298c.015.102.026.205.034.31a12.337 12.337 0 0 1 .042 2.155"/>
            <path fill="#353535" d="M156.352 87.152a22.001 22.001 0 0 0-5.468-3.22c-.119-.05-.24-.096-.361-.143a7.205 7.205 0 0 0-.295-.111 18.352 18.352 0 0 0-1.197-.407 9.09 9.09 0 0 0-.53-.155c-.115-.034-.234-.065-.35-.096a21.104 21.104 0 0 0-2.57-.516c-.02-.005-.04-.007-.06-.01h-.003a21.676 21.676 0 0 0-1.341-.142 12.327 12.327 0 0 0-.63-.04c-.182-.01-.361-.018-.543-.02a19.944 19.944 0 0 0-1.194.002c-.031 0-.066 0-.097.003-.174.005-.348.013-.522.023-.024 0-.045 0-.066.003-.203.01-.403.026-.604.044-.142.01-.284.023-.424.041-.182.019-.364.042-.543.065-.008 0-.016.003-.023.003-.003.002-.006.002-.011.002a21.47 21.47 0 0 0-2.182.394c-.174.039-.345.08-.52.127a18.488 18.488 0 0 0-1.183.342 23.7 23.7 0 0 0-1.154.404c-.171.065-.34.133-.509.2-.037.015-.073.031-.113.046-.003.003-.005.003-.008.003-.166.07-.33.143-.493.215a22.01 22.01 0 0 0-6.417 4.36 20.628 20.628 0 0 0-.849.873c-.21.233-.419.469-.62.71l-.141.168c-.09.11-.18.22-.266.332a20.893 20.893 0 0 0-1.168 1.624 20.916 20.916 0 0 0-1.289 2.272c-.002.003-.005.005-.005.008a21.234 21.234 0 0 0-2.161 9.36c0 1.163.092 2.303.274 3.414 1.666 10.324 10.76 18.215 21.73 18.215 12.151 0 22.003-9.684 22.003-21.63 0-6.76-3.155-12.797-8.097-16.763"/>
            <path fill="#FFC526" d="M155.666 103.913c0 4.446-2.267 8.368-5.727 10.71a13.303 13.303 0 0 1-7.495 2.29c-7.303 0-13.222-5.819-13.222-13 0-7.002 5.632-12.71 12.684-12.984.18-.01.359-.013.538-.013 7.303 0 13.222 5.819 13.222 12.997"/>
            <path fill="#FFD464" d="M155.666 103.913c0 4.446-2.267 8.368-5.727 10.71.583-.795 1.097-1.643 1.49-2.606.985-2.415 1.404-5.169.63-7.697-.133-.425-.32-.847-.644-1.156-1.326-1.256-3.139.33-4.177 1.171-1.207.982-2.46 2.138-4.09 2.306-.327.034-.688.016-.93-.202-.233-.21-.293-.547-.31-.855-.13-2.326 1.256-4.427 2.28-6.526 1.026-2.098 1.666-4.777.217-6.619-.686-.873-1.56-1.254-2.499-1.51.18-.01.359-.013.538-.013 7.303 0 13.222 5.819 13.222 12.997"/>
            <path fill="#282828" d="M150.883 83.932c-.098.363-.208.725-.32 1.08l-.234.754c-.67 2.147-1.373 4.313-2.232 6.394a13.13 13.13 0 0 0-1.542-.604 13.454 13.454 0 0 0-4.111-.64c-.11 0-.221.003-.332.005-.069 0-.137.003-.206.008-.084 0-.168.005-.25.013l-.143.008a10.796 10.796 0 0 0-.912.093c-.097.01-.191.026-.284.041-.018.003-.04.008-.06.01-.206.032-.409.07-.61.115-.105.02-.207.044-.31.07a9.94 9.94 0 0 0-.617.16c-.103.029-.203.06-.303.091-.103.03-.2.065-.3.099-.1.033-.2.067-.298.105-.1.034-.195.07-.293.112a9.42 9.42 0 0 0-.577.244c-.095.039-.19.083-.282.13-.11.053-.219.105-.324.16a11.795 11.795 0 0 0-.772.427c-.177.104-.35.215-.52.327l-.002.002c-.087.057-.171.114-.256.174-.137-.922-.271-1.855-.7-2.684-.517-.997-1.624-1.816-2.74-1.588-.869.176-1.49.907-2.25 1.357-1.14.677-2.625.57-3.773-.075 4.032-4.901 10.201-8.036 17.114-8.036 2.991 0 5.84.586 8.439 1.648"/>
            <path fill="#FFD200" d="M50.7 94.393c-6.243.704-13.369-5.565-13.369-5.565a30.442 30.442 0 0 0-7.653-4.523 17.35 17.35 0 0 0-1.49-.54c-4.332-1.577-9.721-.973-9.721-.973-2.625.738-10.097.637-10.097.637-4.978.135-4.28-1.106-4.28-1.106 3.9-8.287 9.259-12.318 13.994-14.24 5.867-2.381 10.777-1.529 10.777-1.529l9.055 3.285.98.355.57 1.166L50.7 94.393z"/>
            <path fill="#FFD464" d="M45.438 88.976c.05.103.103.204.153.308-4.63-6.8-8.708-16.396-8.244-28.455.105 1.805.092 3.619.263 5.42.49 5.201 2.488 10.134 4.465 14.981 1.062 2.606 2.124 5.217 3.363 7.746M64.771 15.615c1.384-.189 2.786-.16 4.154.143.36.08.738.189 1.006.443.433.403.475 1.06.488 1.647.018.889.037 1.79.024 2.692-.132-.109-.272-.21-.409-.311a43.354 43.354 0 0 1-5.263-4.614"/>
            <path fill="#FFF" d="M57.44 92.81c.437.917.888 1.826 1.349 2.73l-1.35-2.73z"/>
            <path fill="#FDB600" d="M106.258 95.263c-.042.308-.313.534-.569.715-3.19 2.246-7.266 2.756-11.145 3.324-9.385 1.375-18.71 3.49-28.2 3.63-1.992.028-4.021-.034-5.916-.643-.933-.3-1.818-.726-2.667-1.215-.055.437-3.326-1.516-7.234-5.65a49.682 49.682 0 0 1-4.936-6.137v-.003c-.05-.104-.103-.205-.153-.308-1.239-2.529-2.301-5.14-3.363-7.746-1.977-4.847-3.974-9.78-4.465-14.982-.17-1.8-.158-3.613-.263-5.42.13-3.38.617-6.957 1.55-10.72.268-.458.547-.909.832-1.354 3.01-4.715 6.404-9.181 9.825-13.616.064-.08.127-.164.19-.244a43.722 43.722 0 0 1-.62-1.08 23.427 23.427 0 0 1-.89-1.717c-.314-.695 1.45-1.85 1.353-2.591 1.091-1.803.278-3.194 1.58-5.054 1.971-2.817 4.77-5.042 7.764-6.777 1.787-1.034 3.793-1.786 5.84-2.06a43.773 43.773 0 0 0 5.263 4.614c.137.101.277.202.409.31-.006.475-.021.949-.048 1.42-.008.016-.016.026-.018.034-3.347 6.733-7.453 13.088-11.251 19.577-3.824 6.536-8.444 13.7-9.856 21.199-.614 3.267-.13 6.588.727 9.865.005.013.008.029.01.042.61 2.398 1.429 4.777 2.18 7.093a109.402 109.402 0 0 0 2.57 7.085c.39.971.803 1.946 1.272 2.876 1.534 3.054 3.661 5.65 7.501 6.194 6.317.888 26.512 1.217 40.248-1.956.794-.181 1.745.039 2.261.658.15.178.253.409.22.637"/>
            <path fill="#FFD464" d="M37.012 55.122c.192-1.788.962-3.443 1.884-5.013-.932 3.762-1.42 7.339-1.55 10.72-.02-.36-.046-.72-.08-1.08-.143-1.54-.42-3.088-.254-4.627M45.59 89.287a49.643 49.643 0 0 0 4.937 6.136c-2.172-1.357-3.745-3.769-4.936-6.136M52.09 79.385a110.147 110.147 0 0 0 3.94 10.345 37.128 37.128 0 0 1-1.273-2.876 109.402 109.402 0 0 1-2.57-7.085c-.751-2.316-1.57-4.695-2.18-7.093.599 2.269 1.371 4.518 2.083 6.71M62.924 13.594a42.15 42.15 0 0 0 1.847 2.021c-2.048.274-4.053 1.026-5.84 2.06-2.994 1.735-5.792 3.96-7.764 6.777a98.579 98.579 0 0 0-3.59 5.494 5.595 5.595 0 0 1-.044-.557v-.051c-.01-.83.182-1.627.498-2.394.398-.966.988-1.879 1.607-2.728.815-1.124 1.703-2.205 2.599-3.28 2.306-2.759 4.678-5.474 6.088-8.722.066-.15.126-.303.187-.456.335-.84 1.041-2.288 2.003-1.806.103.052.21.127.321.228l.035.03c.899.859 1.215 2.402 2.053 3.384M70.395 21.96c.027-.472.042-.946.048-1.42.158.127.308.264.437.42.05.054-.382.808-.485 1M89.576 98.941s-.534-5.467 3.657-9.54l.96-5.038c-.014.073-.728.252-.804.279-.463.162-.928.32-1.393.477-.096.033-.322.378-.387.506-1.056 2.08-2.324 4.066-3.106 6.265-.759 2.136-1.242 4.382-1.553 6.623a35.742 35.742 0 0 0-.213 1.91c-.099 1.18.796.647 1.342.155.549-.494 1.04-1.06 1.497-1.637"/>
            <path fill="#FF4C5A" d="M42.943 20.8a10.564 10.564 0 0 0-1.023 2.527c-.63 2.46.18 5.145 2.722 6.124.928.358 1.962.51 2.955.538.677.02 1.353.007 2.03-.012a35.297 35.297 0 0 0 1.416-.069c.197-.014.393-.031.589-.053.083-.01.972-.143.975-.132-.216-.698.213-1.418.638-2.017 1.486-2.09 3.162-4.06 5.086-5.77.328-.29.694-.653.63-1.082-.07-.482-.62-.713-1.073-.91a6.474 6.474 0 0 1-3.017-2.696c-.46-.803-.766-1.736-1.492-2.32-.421-.338-.952-.525-1.489-.613-.769-.126-1.579-.054-2.29.258-.783.342-1.705.66-2.344 1.22-1.647 1.442-3.244 3.088-4.313 5.008" opacity=".8"/>
            <path fill="#767676" d="M115.577 105.928c3.41 1.74 7.37 1.464 11.066 1.86a30.94 30.94 0 0 1 6.397 1.38c2.247.742 4.24 2.144 6.58 2.632 5.67 1.184 10.083-4.51 8.522-9.697a7.409 7.409 0 0 0-2.31-3.544c-2.78-2.33-6.487-1.717-9.855-1.706-2.595.01-5.188-.275-7.728-.79-2.39-.482-4.696-1.334-7.076-1.879-.09-.02-2.383-.982-3.302-.645-2.809 1.031-4.897 4.43-5.607 7.006-.673 2.439 1.154 4.28 3.313 5.383"/>
            <path fill="#FDB600" d="M123.798 92.735c1.261.547 2.674.353 4.011.397 2.88.097 5.787.625 8.638 1.155 2.812.522 5.795 1.317 8.652.67 5.247-1.187 4.161-8.862 1.282-11.793a3.679 3.679 0 0 0-1.043-.764c-.507-.24-1.085-.278-1.647-.287-4.29-.065-8.438 1.371-12.478 2.79l-4.35 1.527c-.625.22-1.264.447-1.77.868-.704.587-1.06 1.472-1.39 2.32-.207.532-.417 1.095-.325 1.657.14.854.928 1.447 1.691 1.878l-1.271-.418zM49.239 29.946c1.298-.472 2.397 3.868 3.928 4.366l.016.007c.324.107.68.236.833.536.132.257.074.565.008.845a41.057 41.057 0 0 1-5.11 12.391c-2.124 3.424-4.76 6.557-6.515 10.178-.817 1.68-1.439 3.524-1.317 5.366.007.126.01.256.005.383-.034.762.01 1.536.14 2.337.084.528.192 1.051.32 1.572L39.636 71.9l-.035.015c-1.078.48-2.292.586-3.47.516-.841-.044-1.698-.184-2.439-.577a4.823 4.823 0 0 1-.173-.099c-1.769-1.055-2.478-3.321-4.125-4.58-.511-.389-1.114-.674-1.758-.73-.337-.032-.682.004-1.025-.042-1.386-.187-2.266-1.65-2.35-3.023-.082-1.374 1.127-7.254 1.51-8.822 1.22-4.994 5.286-8.753 9.158-12.204l14.311-12.409z"/>
            <path fill="#353535" d="M146.638 104.597c0 3.016-2.487 5.46-5.555 5.46-3.068 0-5.554-2.444-5.554-5.46s2.486-5.46 5.554-5.46 5.555 2.444 5.555 5.46"/>
            <path fill="#FFD464" d="M126.494 62.166c.005.901.002 1.851.457 2.633.616 1.056 1.952 1.542 3.19 1.498 1.237-.045 2.41-.524 3.552-.997 2.649-1.097 5.417-2.281 7.18-4.513 1.082-1.37 1.697-3.034 2.266-4.676.462-1.333.91-2.71.842-4.116-.04-.836-.29-1.702-.895-2.29-.68-.663-1.697-.87-2.654-.879-2.68-.027-5.175 1.223-7.6 2.343-1.364.63-2.768 1.23-4.244 1.554-1.014.222-2.186.02-2.543 1.157-.333 1.06.184 2.665.267 3.749.114 1.51.176 3.023.182 4.537"/>
            <path fill="#353535" d="M160.837 44.168v.35c-.137.13-.277.255-.418.38-.77.685-1.544 1.373-2.434 1.9-1.773 1.056-3.875 1.404-5.893 1.877a43.999 43.999 0 0 0-9.47 3.399c-.321.159-1.534.858-2.717 1.681-.824.278-1.646.565-2.468.857-5.002 1.78-10.13 3.666-15.428 4.601-5.53.978-11.143 1.46-16.696 2.298a110.057 110.057 0 0 0-6.686 1.198c-2.187.47-4.25 1.245-6.399 1.839-2.386.66-4.733.51-6.726-1.029l-.101-.08c-.227-.211-.42-.379-.56-.494l-.013-.01c-.756-.742-1.367-1.643-1.733-2.625-.002-.009-.007-.02-.01-.029-.762-2.54.571-4.855.571-4.855l2.825-5.478c.464-.843.936-1.505 1.392-2.026a11.55 11.55 0 0 1 2.645-1.825l.054-.026c2.429-1.181 5.175-1.058 7.808-1.044 4.946.022 9.91.159 14.85-.044a49.692 49.692 0 0 0 8.788-1.15c2.121-.475 4.191-1.146 6.3-1.678 2.144-.543 4.344-.768 6.54-1.032 3.976-.475 7.961-.87 11.94-1.311 2.198-.246 4.37-.709 6.569-.963 1.302-.152 2.647-.318 3.963-.254 1.493.074 2.42 1.203 2.941 2.56.088.221.162.447.224.676.225.8.328 1.627.342 2.337"/>
            <path fill="#101010" d="M161.077 42.786c-.003.145.27 1.731-.499 2.196-.803.486-.123 1.88-.545 2.712-.97 1.912-3.379 2.57-5.523 2.927-2.387.396-4.794.672-7.171 1.124-8.422 1.597-16.15 5.9-24.599 7.346-9.42 1.617-18.723 1.998-27.602 4.576 1.985-1.414 5.244-3.224 5.882-3.593a108.659 108.659 0 0 1 10.627-5.374 110.722 110.722 0 0 1 22.719-7.182c8.45-1.696 17.923-4.911 26.71-4.732"/>
            <path fill="#4C6971" d="M177.36 69.46c.593.702.202 1.808-.463 2.446-.664.635-1.551 1.017-2.202 1.668-.739.735-1.06 1.795-1.76 2.567-2.012 2.218-4.287 2.505-6.523 2.836-1.356.2-2.707.424-4.055.67-11.845 2.153-23.363 5.99-34.497 10.535-.747.304-1.531.62-2.34.55-.693-.062-1.324-.407-1.955-.702-3.116-1.461-6.59-1.821-10.002-1.68-3.584.148-7.108.973-10.586 1.779-1.648.38-3.296.763-4.955 1.086-.005 0-.007 0-.01.002-2.321.448-4.658.808-6.986 1.214-.443.077-.9.134-1.352.092a.668.668 0 0 1-.067-.008c-.355-.042-.701-.16-.966-.404a1.1 1.1 0 0 1-.258-.316.38.38 0 0 1-.03-.225c.016-.097.061-.19.1-.282.08-.19.161-.38.244-.568.227-.507.463-1.01.708-1.51a40.706 40.706 0 0 1 2.494-4.338c.308-.466.624-.927.947-1.382a45.98 45.98 0 0 1 4.307-5.164 50.053 50.053 0 0 1 3.704-3.47 50.754 50.754 0 0 1 2.659-2.107 50.977 50.977 0 0 1 2.786-1.931 50.1 50.1 0 0 1 1.437-.899c.01-.008.025-.015.036-.022 4.342-2.617 9.012-4.66 13.668-6.693 6.437-2.814 12.888-5.63 19.583-7.787a133.63 133.63 0 0 1 5.97-1.75c3.379-.91 6.79-1.715 10.197-2.52 1.067-.25 2.167-.503 3.247-.325 1.165.192 2.182.863 3.143 1.539a85.137 85.137 0 0 1 13.348 11.624c.463.499.947 1.064.97 1.739.022.677-.411 1.238-.867 1.794-.516.627-1.062 1.245-1.008 2.01.445-.021.89-.046 1.334-.068"/>
            <path fill="#FFD200" d="M177.902 65.724c.021.677-.412 1.238-.868 1.794-14.216.356-28.408 1.763-42.218 5.03-13.283 3.14-26.217 8.031-37.87 15.09-2.705 1.637-5.712 3.129-7.34 4.877-.354-.042-.7-.16-.965-.404a1.097 1.097 0 0 1-.258-.316.38.38 0 0 1-.03-.225c.016-.097.061-.19.1-.282.08-.19.161-.38.244-.568.227-.507.463-1.01.708-1.51a40.712 40.712 0 0 1 1.603-2.924c.29-.479.586-.949.891-1.414.308-.466.624-.927.947-1.382a45.971 45.971 0 0 1 4.306-5.164 50.075 50.075 0 0 1 3.705-3.47 55.797 55.797 0 0 1 2.658-2.108 50.822 50.822 0 0 1 2.787-1.93c.473-.307.952-.607 1.437-.899.01-.008.025-.015.036-.022 4.342-2.617 9.012-4.66 13.668-6.693 6.437-2.814 12.888-5.63 19.583-7.787a133.63 133.63 0 0 1 5.97-1.75c3.379-.91 6.79-1.715 10.198-2.52 1.066-.25 2.166-.503 3.246-.325 1.165.192 2.182.863 3.143 1.539a85.125 85.125 0 0 1 13.348 11.624c.462.499.947 1.064.97 1.739"/>
            <path fill="#2F474C" d="M177.928 65.75c.022.678-.411 1.238-.867 1.795h-.009a250.635 250.635 0 0 0-5.341.185c-1.069.046-2.138.102-3.206.163a.708.708 0 0 0-.106-.357c-.195-.313-.4-.62-.61-.918-2.73-3.847-6.648-6.53-10.905-8.682-3.215-1.63-6.626-2.953-9.861-4.242 3.379-.91 6.79-1.715 10.197-2.521 1.067-.249 2.167-.503 3.247-.324 1.165.192 2.182.863 3.143 1.538a85.358 85.358 0 0 1 13.348 11.624c.462.5.947 1.064.97 1.74"/>
            <path fill="#F4B525" d="M87.614 72.958c.86 2.448 1.748 5.002 1.408 7.57-.388 2.934-2.314 5.43-3.3 8.224-.41 1.162-.655 2.45-.246 3.612.408 1.163 1.647 2.11 2.87 1.849 2.215-6.687 5.932-12.97 11.212-17.715 4.746-4.265 10.57-7.16 16.314-10.002 2.378-1.177 4.757-2.354 7.18-3.442 1.477-.665 2.984-1.303 4.29-2.253 1.305-.95 2.413-2.26 2.764-3.82-1.996.868-4.097 1.116-5.92 1.795-1.225.456-2.638.092-3.932.083-7.604-.054-15.28.183-22.664 1.966-3.39.819-6.974 2.007-9.693 4.243-2.441 2.009-1.177 5.35-.283 7.89"/>
            <path fill="#353535" d="M155.36 78.776c-.031.17 18.49 17.782 19.043 18.108.591.35 1.287.48 1.966.604.795.144 2.657.289 3.452.434-2.07-3.968-9.719-18.776-11.426-21.578-.225-.368-1.026-.412-1.422-.592-.3-.137-.644-.132-.975-.125-2.662.055-10.608 2.98-10.639 3.15"/>
            <path fill="#FFF" d="M160.837 44.517v.024c-.052 1.896-.757 3.728-2.259 4.717-1.122.739-2.59 1.1-3.963 1.335-.036.006-.07.01-.105.017-2.387.398-4.794.673-7.171 1.126-2.528.481-4.994 1.203-7.434 2.02 1.183-.824 2.396-1.523 2.717-1.682a43.998 43.998 0 0 1 9.47-3.4c2.018-.471 4.12-.82 5.893-1.875.89-.528 1.664-1.216 2.434-1.9.141-.126.28-.252.418-.382"/>
            <path fill="#F4B525" d="M176.897 71.906c-.664.635-1.551 1.017-2.202 1.668-.739.735-1.06 1.794-1.76 2.567-2.012 2.218-4.287 2.505-6.523 2.836a141.477 141.477 0 0 0-2.943.472l-.2.036c-.303.05-.609.106-.912.16v.003c-11.845 2.152-23.363 5.99-34.497 10.534-.747.305-1.531.62-2.34.55-.693-.062-1.324-.407-1.955-.702-3.116-1.461-6.59-1.821-10.002-1.68-3.584.148-7.108.973-10.586 1.779-1.648.38-3.296.764-4.955 1.086-.005 0-.007 0-.01.002-2.321.448-4.658.808-6.986 1.214-.443.077-.9.134-1.352.093-.022-.003-.045-.005-.067-.01 1.627-1.747 4.634-3.24 7.34-4.877 11.652-7.058 24.586-11.948 37.869-15.089 11.037-2.611 22.32-4.035 33.662-4.681 2.849-.163 5.702-.276 8.556-.349-.516.627-1.062 1.245-1.008 2.01.445-.021.89-.045 1.334-.068.593.702.202 1.808-.463 2.446"/>
            <path fill="#0C303F" d="M167.763 39.629c-.243 2.264-1.576 4.677-2.87 6.524a18.485 18.485 0 0 1-5.788 5.33c-2.567 1.501-5.537 2.175-8.435 2.815-3.129.692-6.273 1.245-9.386 2.005-1.082.264-2.553 1.095-3.665.525-.88-.452 1.694-2.362 1.99-2.59a25.48 25.48 0 0 1 4.38-2.727c2.316-1.132 4.777-1.912 7.276-2.555 2.157-.555 4.344-1.07 6.357-2.037 2.95-1.417 5.204-4.025 6.666-6.871-.316.614-.755 1.148-1.18 1.69a19.34 19.34 0 0 1-1.847 2.055c-.05.049.021.03-.163.159-.013-.71-.378-1.322-.602-2.12-.08-.28-.28-.509-.078-.794.11-.155.28-.257.437-.369 1.212-.86 1.795-2.28 3.142-3.005.992-.534 2.687-1.051 3.432.13.33.523.406 1.162.334 1.835"/>
            <path fill="#565656" d="M160.495 41.831c-3.801 2.399-9.652 1.741-13.953 2.218-5.214.578-10.504 1.454-15.582 2.448-5.204 1.017-10.46 1.893-15.77 2.094-1.873.068-3.739.022-5.604-.082-3.444-.196-6.882-.593-10.324-.836a34.053 34.053 0 0 0-4.998.009c-1.055.075-2.979.326-3.619-.777-.16-.274-.22-.532-.202-.768.043-.025.086-.047.128-.066 2.43-1.181 5.175-1.058 7.81-1.044 4.945.022 9.91.159 14.848-.045a49.688 49.688 0 0 0 8.788-1.15c2.122-.474 4.192-1.145 6.3-1.677 2.144-.543 4.345-.768 6.54-1.033 3.977-.474 7.962-.87 11.94-1.31 2.198-.245 4.372-.709 6.57-.963 1.302-.152 2.647-.317 3.962-.253 1.736.083 2.706 1.595 3.166 3.235"/>
            <path fill="#E2E2E1" d="M163.269 79.485c-.303.052-.609.108-.912.163v-.002c.303-.055.609-.11.912-.161"/>
            <path fill="#2F474C" d="M176.915 71.932c-.664.636-1.551 1.018-2.202 1.669-.739.735-1.06 1.794-1.76 2.566-2.012 2.219-4.287 2.506-6.523 2.836-.723.109-1.446.221-2.166.34l-.777.133c-.065.01-.133.024-.2.035-.303.053-.609.108-.912.163v-.002c1.62-3.348 3.822-7.455 5.153-9.867.368-.669.671-1.205.876-1.563a.69.69 0 0 0 .092-.349h.009c1.069-.061 2.137-.116 3.206-.163a260.302 260.302 0 0 1 5.341-.185c-.512.62-1.05 1.233-1.008 1.988v.022l1.334-.068c.593.702.202 1.807-.463 2.445"/>
            <path fill="#FF4C5A" d="M177.928 65.75c.022.678-.411 1.238-.867 1.795h-.009c-.512.62-1.05 1.233-1.008 1.988-2.517 1.388-5.559 1.688-8.426.31a.743.743 0 0 0-.09-.038c.369-.669.671-1.205.876-1.563a.688.688 0 0 0 .092-.349h.009a.708.708 0 0 0-.106-.357c-.195-.313-.4-.62-.61-.918-2.73-3.847-6.648-6.53-10.905-8.682 2.146-.02 4.292.163 6.398.567.003.002.007.002.01.002 2.303.443 4.636 1.419 7.018.953.366-.07.992-.251 1.477-.54a85.204 85.204 0 0 1 5.17 5.093c.463.5.948 1.064.97 1.74" opacity=".744"/>
            <path fill="#FDB600" d="M54.418 38.779l4.587-6.418 1.05-1.563c1.247.146 2.508.186 3.764.106 1.394-.088 2.802-.32 4.137-.75.44-.757.878-1.516 1.316-2.273.766-1.329 1.538-2.676 1.929-4.154.235-.887.305-1.905-.234-2.655-.245-.34-.593-.592-.931-.843a43.513 43.513 0 0 1-7.111-6.634c-.84-.982-1.156-2.527-2.054-3.383a.528.528 0 0 0-.034-.032c-.108-.079-.216-.154-.321-.227-1.318-.9-2.542-1.317-3.487-.854a42.02 42.02 0 0 0-9.45 6.385c-.276.25-1.554 1.143-1.5 1.527.003.007.003.013.005.02.166.499 3.906.406 4.506.437-.735.993-1.469 1.986-2.203 2.982-.1.134-.197.333-.08.454.069.073.184.075.285.075l3.646-.042c1.868-.022 3.734-.041 5.602-.064-2.843 2.574-5.878 5.249-9.657 6.041-.05.01-.1.022-.153.03-.884.182-1.865.356-2.337 1.102a.79.79 0 0 0-.132.349c-.04.534.658.777 1.198.845l.775.097c1.92.24 4.44.053 5.933 1.37.24.211.485.431.625.716.31.63.033 1.386-.34 1.982-.373.596-.852 1.162-.973 1.852-.07.406.73 2.7 1.639 3.522"/>
            <path fill="#353535" d="M67.157 26.397c.015 1.18-.945 2.15-2.146 2.164-1.2.016-2.186-.929-2.202-2.109-.016-1.18.945-2.15 2.146-2.165 1.2-.015 2.186.93 2.202 2.11M70.89 28.713a1.487 1.487 0 0 1-1.481 1.494 1.489 1.489 0 0 1-1.52-1.456c-.01-.814.652-1.483 1.48-1.494.83-.01 1.51.641 1.52 1.456"/>
            <path fill="#353535" d="M69.37 27.257l-4.416-2.97-1.112 3.04 4.697 2.58zM60.527 19.162l-.97-.447 4.818-10.092c.066-.099 1.626-2.404 4.527-1.987l-.155 1.04c-2.083-.298-3.298 1.275-3.457 1.495l-4.763 9.991z"/>
            <path fill="#353535" d="M71.216.42a36.837 36.837 0 0 0-1.852 2.499c-.63.93-1.23 1.92-1.426 3.02-.198 1.102.08 2.348.958 3.059.527.427 1.217.623 1.898.668.682.046 1.364-.046 2.04-.14.42-.058.273-3.168.274-3.484.005-1.404 0-2.812-.06-4.215-.02-.486.058-1.258-.36-1.609-.463-.388-1.132-.22-1.472.201"/>
            <path fill="#19363A" d="M42.193 44.952l-12.977 12.58c.354-.389.716-.753 1.066-1.095 3.938-3.851 7.903-7.674 11.873-11.496l.038.01"/>
            <path fill="#FFF" d="M54.204 33.057c-.078.253-.247.443-.428.633-.04.042-.082.085-.121.129-.003.003-.005.008-.01.01l-.053.055-.372.36c-.23.22-.456.44-.683.663l-.822.798c-.318.308-.635.614-.951.922-.353.345-.71.687-1.062 1.032-.385.373-.772.746-1.157 1.121-.414.4-.825.8-1.236 1.2l-1.302 1.261-1.35 1.31c-.46.447-.922.895-1.383 1.34l-1.4 1.36c-.466.451-.932.905-1.402 1.358-.46.448-.922.899-1.386 1.347-.45.438-.904.878-1.357 1.316l-1.313 1.272c-.416.404-.832.808-1.248 1.215-.393.378-.783.76-1.176 1.137l-1.08 1.05-.973.945-.851.824-.709.69c-.187.178-.372.36-.556.538-.13.124-.256.248-.385.373l-.198.192-.023.023-1.735 1.681c-.192-.445-.066-1.217-.023-1.673.332-3.554 3.12-5.813 5.845-7.767 3.55-2.547 6.51-4.956 9.923-7.67 1.299-1.034 2.59-2.08 3.868-3.14l6.254-5.42c.374-.323.758-.692.846-1.196l.004-.02c-.007.04.033.123.04.168a1.219 1.219 0 0 1-.032.552c0 .004-.002.007-.003.01"/>
            <path fill="#FFD200" d="M126.917 90.535c-3.067.783-12.12 9.365-13.994 12.067-.772 1.111-2.764.679-3.908.687-2.09.013-4.18.057-6.267.127-7.999.27-15.982.834-23.962 1.383-7.416.51-15.71 1.966-23.099.873-6.415-.953-9.446-4.995-11.47-10.707-.255-.717-.51-1.437-.774-2.158-2.272-6.284-4.805-12.582-8.212-18.352-1.102-1.865-2.351-3.645-3.8-5.264-.891-.997-2.101-1.767-3.092-2.702-.53-.5-.996-1.044-1.32-1.7-1.32-2.668.347-5.245 2.198-7.258l12.976-12.58c-.002 0-.005 0-.007-.003a.07.07 0 0 1-.032-.007l5.51-5.308.507-.488c1.665-1.608 3.33-3.217 4.991-4.831.003 0 .422-.412.944-.925l.382-.376 1.655-1.624c.19-.186.474-.238.72-.305a9.949 9.949 0 0 1 1.987-.36h.007a.66.66 0 0 1 .604 1.01C56.944 35.705 47.2 51.083 45.685 53.64c-1.198 2.023-2.648 3.935-3.573 6.098-.135.314-.256.627-.364.938a11.67 11.67 0 0 0-.65 3.15c-.054.824-.011 1.66.128 2.529a22.04 22.04 0 0 0 .712 2.976c.838 2.7 2.108 5.31 3.22 7.863.27.61.54 1.22.82 1.826.195.427.806 1.246.806 1.702a84.037 84.037 0 0 0 4.873 8.663c.254.394.512.79.76 1.192l.015.023c.108.153.609.95.756 1.2 1.078 1.87 3.35 6.72 15.629 6.738 4.514-.23 9.029-.506 13.527-.97a385.53 385.53 0 0 0 11.717-1.411c1.95-.26 3.898-.529 5.846-.803 1.626-.228 3.289-.298 4.867-.767 3.231-.961 5.84-3.396 8.84-4.888 1.684-.837 3.497-1.697 5.36-2.052 1.057-.202 2.238-.234 3.284.033 1.829.464 2.683 3.05 4.66 2.855"/>
            <path fill="#FFF" d="M53.645 33.83c-.017.02-.035.038-.05.06 0 0-.003-.003-.003-.006a.967.967 0 0 0 .053-.055"/>
            <path fill="#FDB600" d="M43.443 92.807c-3.474-1.658-6.112-3.979-6.112-3.979a30.454 30.454 0 0 0-7.653-4.523c-3.653-5.562-7.416-11.041-11.594-16.222 4.734-1.92 8.842-1.739 10.255-1.594.99.935 2.2 1.705 3.091 2.702 1.45 1.62 2.699 3.4 3.8 5.264 3.408 5.77 5.941 12.067 8.213 18.352"/>
            <path fill="#FFF" d="M96.344 22.815c.005.01.004-.1.005-.119-.008.024-.005.147-.005.119M96.264 23.06l.003-.045-.013.109zM96.193 23.057c.004.185.027-.03.038.036l.001.042.009-.148c-.016.023-.038.121-.048.07M96.163 22.656c0 .072-.01.062.008.023l-.001-.018c-.002 0-.004 0-.007-.005M96.17 22.66c.007-.005-.004-.06 0 0M96.135 22.701l.01-.064c0-.042-.01-.052-.005-.083a.435.435 0 0 0-.005.147M96.123 22.836l.005-.027c0-.018-.001-.024-.005.027M96.14 22.752l-.012.057c.001.03 0 .09.006-.02-.002.054 0 .001.006-.037M96.146 22.78c.005.04.011.066 0 .13.02-.026.019-.156 0-.13M96.186 23.248l.007.054.007-.062c-.004.03-.013-.05-.014.008M96.076 22.604v.156l.008-.046c-.003-.027-.01-.052-.008-.11M96.077 22.76l-.013.067c.01.008.012-.024.013-.068M96.117 23.041l.02-.141-.024.143zM96.034 22.598l.009-.09-.014.137zM96.007 22.614c.006-.076-.004-.128.002-.174-.007.013-.015.078-.022.136.007-.032.013-.024.02.038M96.046 22.807c0-.024 0-.086-.006-.113l.002.111.004.002zM96.042 22.809v-.004a.034.034 0 0 1-.01-.006l.01.01M96.047 22.807h-.001c0 .01 0 .015 0 0M96.09 22.94c-.007.062-.022.128-.011.223.006-.076 0-.13.011-.223M96.05 22.946l.01.025c0-.029 0-.072.003-.102l-.014.077zM96.043 22.98l.006-.034-.004-.01zM95.992 22.764c-.006.049-.011.052-.018.06.007.022.013.034.02.034.001-.035.006-.098-.002-.094M96.016 22.796l-.001.006c0 .01 0 .012.001-.006M95.914 22.822v.02l.001-.02h-.001z"/>
            <path fill="#FFF" d="M95.994 22.878c.005.022.008-.005.012-.039-.004.01-.008.018-.013.019 0 .015 0 .026.001.02M95.957 22.712l.007.06c-.001-.034-.005-.089-.007-.06M96.014 22.771a.57.57 0 0 0 0-.005v.005M96.014 22.771l-.008.068a.23.23 0 0 0 .01-.037l-.002-.03M95.877 23.532c.004-.103.02-.198.028-.087.013-.077.014-.414.01-.603-.002.045-.003.086-.016.146.002.056.022.132.01.225-.017.052-.012-.037-.018-.091.003.127-.024.185-.026.373l.016-.066c0 .03-.007.076-.004.103M95.936 22.853l.005-.013a.974.974 0 0 1-.013-.14.878.878 0 0 0-.013.123l.023.015-.002.015zM95.962 22.84c-.006.112-.019.159-.015.28.014-.007.012-.093.021-.141-.023.027.008-.062-.006-.126.005-.019.008-.024.012-.029a.485.485 0 0 1-.01-.051v.025l-.002.042c-.006-.023 0-.029.002-.042V22.78l-.023.06c.004.016.01.013.02 0M96.062 23.403v-.026c-.002.013-.003.022 0 .026M96.054 23.335c.002-.016.004-.06.01-.048.003.033-.002.053-.002.09.004-.03.013-.08.004-.134l-.002.015a1.57 1.57 0 0 1-.015-.194l.005.271M96.006 23.116l-.02.055.008.096v-.058c.01.023.01-.048.012-.093M95.913 22.766l.006-.118-.015.167zM95.889 22.78l.003-.103-.008.062zM94.451 23.99l-.007.029a.199.199 0 0 0 .007-.029M94.491 24l.005-.05a.231.231 0 0 0-.005.05M95.298 22.772c-.004-.096-.007-.245-.01-.13l-.003.113c.006-.02.01-.008.013.017M94.857 23.423v.034l.012-.107-.012.073M94.827 23.887l-.007-.073c0 .025.003.05.007.073M94.22 24.095l-.014.113c.01 0 .01-.057.015-.113M95.64 22.814c-.005-.044-.01-.063-.014-.068.006.064.01.161.015.068M94.543 22.8a.416.416 0 0 0-.01.07.35.35 0 0 0 .01-.07M95.606 22.746l.003.026c.006-.019.011-.033.017-.026-.004-.048-.01-.078-.02 0M93.421 23.94v-.015c-.002.016-.001.017 0 .014M93.298 22.789c.002-.007.006-.007.01-.008-.001-.008-.004-.007-.01.008M95.793 22.728c.006-.007.001-.012 0 0M95.806 23.173l-.004.055.004-.055M95.53 23.443c.001.022.001.017 0 0M95.8 22.726l.004.011c.001-.018.001-.03-.004-.01M95.786 22.734c.003-.002.006.004.008.012a.087.087 0 0 1 0-.018l-.008.006M93.877 23.675v-.01c-.01.046-.006.038 0 .01M95.111 23.932l.001-.005v-.004.01zM95.088 24.015c.015-.14.018-.122.023-.092l.009-.324-.032.416zM93.89 22.832v.033c-.01.035-.006.003 0-.033M95.75 22.883a.432.432 0 0 0 .002-.052c-.002.031-.006.033-.01.024 0 .033.002.056.008.028M95.734 22.828v.006c-.007-.049-.005-.03 0-.006M94.873 23.665c-.005.04-.008.02-.01-.028.004-.01.007-.005.01.028M94.555 23.949c-.005.025-.018.106-.016.032.013-.143.012-.074.016-.032M94.83 23.833l.002-.067a.32.32 0 0 0-.002.067M94.223 24.074v-.002l-.002.023zM95.847 22.673l-.011.032c.005-.006.006.022.008.042 0-.03 0-.072.003-.074M95.924 23.449c.002-.016.004-.002.006-.017v-.058c-.006.003-.012.05-.006.075M95.847 23.088c-.002.106.006.07.014.05 0 0 0 .002-.001 0 .006-.146-.004-.098-.013-.05M95.863 23.135c.002-.005.005-.007.007-.002.003-.059-.002-.013-.007.002M95.774 22.814c.003.027.006-.135.007-.092.008-.133-.029.162-.007.092M95.844 23.435v-.13l-.007.105zM95.784 23.338l.012.036c0-.021.002-.034.004-.044-.007-.004-.015-.03-.016.008"/>
            <path fill="#FFF" d="M95.8 23.33c.004.003.008 0 .01-.021-.001.001-.006.005-.01.021M95.825 23.473l-.003-.027-.008-.01zM95.65 23.31l-.015.036c-.003.044 0 .072.006.054.004-.03.01-.048.009-.09M95.68 23.666c-.003-.027-.002-.057-.003-.1l-.005.162.008-.062zM95.639 23.702c-.003.044-.025.127-.007.118.003-.044.018-.081.007-.118M95.438 23.492l.003-.002.01-.264zM95.228 24.115c.014.064.01-.162.022-.083.007-.062-.01-.065-.003-.119-.013.066-.016.028-.02.202M93.274 22.644l-.005-.056-.002.09zM93.235 22.837l.014-.167-.021.15c.002-.007.009-.02.007.017M94.565 24.288l.003-.04c.001-.044-.001-.047-.006-.055l.003.095zM94.427 24.154l.002.004.005-.153zM94.292 24.34c.005.006.013-.027.018-.02-.013.026-.006-.17-.018.02M83.84 22.98l.006.054.008-.062c-.004.03-.014-.05-.014.008M83.715 23.134v-.026c-.002.014-.002.023 0 .026M83.716 23.109c0-.037.006-.057 0-.091-.005-.01-.008.034-.008.05l-.002-.096h.007c0 .007.003.012.003.017l.003-.015c.01.054 0 .104-.003.135M83.648 22.974V23l-.003-.026zM82.105 23.722l-.008.029a.25.25 0 0 0 .008-.029M82.145 23.731l.004-.05a.254.254 0 0 0-.004.05M82.51 23.155l.001.034.011-.107-.011.073M82.48 23.619l-.007-.073c.001.025.003.05.007.073M81.874 23.827l-.015.113c.01 0 .01-.057.015-.113M81.074 23.67v-.013c-.002.016 0 .016 0 .014M83.185 23.175h-.001c0 .021 0 .017 0 0M81.53 23.407v-.01c-.009.045-.006.038 0 .01M82.765 23.664v-.006-.004.01zM82.742 23.746c.014-.139.018-.122.023-.092l.008-.323-.031.415zM82.517 23.37c.003-.01.008-.007.01.026-.005.042-.01.021-.01-.026zM83.258 23.352l.002-.002c.008.152-.015.023-.013.207.005-.104.024-.14.037-.205.003-.132-.016-.065-.026 0zM82.483 23.565l.003-.068a.342.342 0 0 0-.003.068M81.877 23.806v-.002l-.003.023zM83.578 23.18c.002-.015.003-.001.005-.017l.001-.058c-.007.004-.013.05-.006.075M83.497 23.167v-.13l-.006.104zM83.438 23.07l.011.036c0-.022.003-.034.005-.044-.008-.005-.016-.03-.016.008M83.454 23.062c.004.003.007 0 .01-.021-.002 0-.007.005-.01.02M83.479 23.205l-.003-.027-.009-.01zM83.303 23.04l-.015.038c-.002.044 0 .071.006.054.004-.031.01-.048.01-.091M83.334 23.397c-.003-.027-.003-.056-.003-.099l-.006.161.009-.062zM83.292 23.434c-.003.044-.024.127-.006.117.002-.044.018-.08.006-.117M83.105 22.987l-.01.233-.003.003.01-.236zM82.881 23.847c.014.064.011-.163.023-.083.006-.063-.01-.065-.004-.119-.012.066-.016.028-.019.202M82.9 23.645l.007-.04-.007.04M82.218 24.02l.003-.04c.001-.044-.001-.048-.006-.055l.003.095zM82.08 23.886l.003.003.005-.152zM81.946 24.071c.005.007.013-.026.017-.02-.012.027-.006-.169-.017.02M80.17 29.816c0 .01.042-.09.05-.108-.016.02-.062.134-.05.108M80 30.012l.019-.04-.055.095zM79.935 29.982c-.07.172.036-.017.02.048l-.014.04.066-.135c-.024.016-.083.098-.072.047M80.064 29.6c-.027.068-.033.054-.001.025l.006-.017c-.002 0-.004-.001-.005-.007M80.07 29.608c.008-.002.02-.058 0 0M80.02 29.632l.036-.055c.016-.04.012-.052.027-.08a.438.438 0 0 0-.062.135M79.957 29.751l.016-.022c.006-.017.008-.024-.016.022"/>
            <path fill="#FFF" d="M80.006 29.68l-.033.049c-.011.027-.036.082.013-.017-.024.05 0 .002.02-.032M80 29.709c-.011.038-.015.065-.05.12.027-.017.078-.137.05-.12M79.854 30.156l-.016.052.032-.054c-.016.027.007-.052-.016.002M80.004 29.52l-.06.144.025-.04c.008-.025.012-.05.035-.104M79.944 29.664l-.038.057c.006.01.02-.018.038-.057M79.871 29.939l.075-.123-.08.123zM79.969 29.499l.043-.081-.067.121zM79.937 29.502c.035-.067.047-.119.071-.159-.012.01-.045.066-.075.117.02-.027.022-.017.004.042"/>
            <path fill="#FFF" d="M79.89 29.533l.043-.073a.797.797 0 0 0-.044.073M79.897 29.696c.01-.023.034-.08.039-.107l-.042.103.003.004zM79.893 29.696l.001-.004a.586.586 0 0 0-.001.003M79.898 29.696c-.005.01-.006.013 0 0M79.886 29.836c-.031.054-.071.109-.098.2.036-.067.05-.12.098-.2M79.846 29.825v.028c.012-.027.028-.067.043-.094l-.043.066zM79.826 29.855l.02-.03v-.01zM79.865 29.636c-.025.042-.031.044-.04.048-.003.023-.002.036.004.038.015-.03.044-.087.036-.086M79.874 29.674l-.003.005c-.003.01-.004.012.003-.005M79.77 29.66l-.008.018.008-.017v-.002zM79.822 29.742c-.005.021.009-.002.026-.032-.008.008-.015.014-.019.013-.007.014-.011.023-.007.019M79.853 29.574l-.017.06c.011-.034.03-.086.017-.06M79.882 29.65l.003-.004c.008-.022.003-.011-.003.005"/>
            <path fill="#FFF" d="M79.882 29.65l-.034.06a.213.213 0 0 0 .023-.03l.011-.03M79.457 30.3c.044-.093.095-.175.06-.07.042-.065.176-.376.245-.552-.019.04-.036.078-.072.129-.02.053-.03.13-.078.21-.036.043.004-.037.02-.09-.048.12-.096.162-.171.335l.04-.055c-.013.027-.037.067-.044.093M79.778 29.696l.01-.01c.002-.018.015-.057.042-.133a.823.823 0 0 0-.06.107l.015.023-.007.013z"/>
            <path fill="#FFF" d="M79.807 29.695c-.05.1-.08.139-.124.252.016-.001.048-.081.075-.122-.032.016.032-.054.043-.119a.072.072 0 0 1 .024-.022.498.498 0 0 1 .01-.05l-.002.006c-.006.014-.009.022-.007.014v.002l-.02.038c.005-.024.012-.027.02-.038l.006-.015.001-.001-.046.047c-.002.015.005.015.02.008M79.678 30.251l.01-.024c-.007.012-.011.02-.01.024M79.697 30.186c.008-.014.028-.054.028-.041-.01.032-.022.048-.037.082.015-.026.043-.069.057-.122l-.008.013c.007-.039.054-.17.062-.184l-.102.252M79.74 29.966l-.04.042-.032.093.024-.054c0 .025.028-.041.047-.081M79.79 29.608l.052-.107-.079.148zM79.763 29.61l.043-.092-.031.054zM77.961 30.182l-.018.024a.186.186 0 0 0 .018-.024M77.995 30.206l.023-.045a.252.252 0 0 0-.023.045M79.22 29.38c.035-.091.091-.23.042-.124l-.046.103c.014-.016.012-.003.005.02M78.559 29.813l-.013.031.052-.094-.04.063M78.348 30.23l.023-.07a.61.61 0 0 0-.023.07M77.708 30.191l-.058.1c.009.003.031-.05.058-.1M79.52 29.548c.013-.042.016-.061.014-.068-.02.062-.054.153-.013.068M78.513 29.12a.442.442 0 0 0-.035.059.332.332 0 0 0 .035-.06"/>
            <path fill="#FFF" d="M79.516 29.472l-.008.026c.013-.015.024-.027.026-.018.015-.046.021-.076-.018-.008M77.031 29.744l.005-.013c-.007.013-.007.015-.005.013M77.37 28.636c.005-.006.008-.004.012-.003.002-.008-.001-.009-.013.003M79.695 29.527c.008-.005.006-.011 0 0M79.532 29.942l-.025.049.025-.049M79.172 30.087c-.008.02-.006.016 0 0M79.702 29.528v.012c.008-.017.013-.028 0-.012M79.686 29.53c.004 0 .004.005.003.014l.006-.017-.009.003M77.555 29.673l.004-.01c-.026.04-.02.034-.004.01M78.593 30.379l.003-.005.001-.004-.004.009zM78.54 30.446c.068-.123.064-.105.057-.076l.135-.295-.192.371zM77.898 28.9l-.012.031c-.024.029-.007 0 .012-.03M79.594 29.654a.353.353 0 0 0 .023-.048c-.014.028-.019.029-.019.02-.013.03-.02.05-.004.028M79.602 29.597l-.003.005c.013-.047.007-.028.003-.005M78.479 30.042c-.021.036-.016.015 0-.03.008-.007.01-.001 0 .03M78.074 30.183c-.015.022-.058.091-.028.024.068-.127.04-.064.028-.024M78.373 30.181l.028-.062a.333.333 0 0 0-.028.062M77.718 30.173v-.002l-.01.02zM79.767 29.497l-.024.025c.008-.003-.002.022-.008.042.012-.027.028-.067.032-.067M79.533 30.242c.008-.014.004 0 .012-.014l.024-.053c-.009 0-.032.04-.036.067M79.603 29.88c-.043.096-.022.066-.007.052v-.001c.062-.133.035-.092.007-.051M79.6 29.93c.004-.004.007-.006.007 0 .026-.054.003-.013-.008 0M79.644 29.599c-.008.026.058-.122.042-.082.06-.12-.09.138-.042.082M79.464 30.198l.052-.12-.048.094zM79.447 30.086l-.003.038c.009-.02.015-.03.021-.039-.005-.007-.002-.034-.018.001M79.465 30.085c.003.004.007.003.018-.016-.002 0-.008.003-.018.016M79.432 30.227l.008-.026-.004-.013zM79.335 30.009l-.028.028c-.02.04-.029.066-.016.052.016-.027.027-.04.044-.08M79.223 30.35c.008-.027.02-.053.036-.093l-.068.146.032-.054zM79.17 30.367c-.02.04-.072.108-.052.106.02-.04.048-.068.052-.106M79.067 30.096h.004l.113-.24zM78.629 30.592c-.012.064.074-.146.053-.068.03-.055.017-.064.044-.11-.038.055-.026.019-.097.178M78.726 30.413l.022-.034-.022.034M77.404 28.493l.018-.053-.037.081zM77.292 28.657l.08-.15-.08.132c.006-.006.017-.017 0 .018M77.95 30.5l.018-.036c.018-.04.017-.044.016-.053l-.035.089zM77.875 30.324v.004l.065-.138zM77.678 30.444c.002.008.022-.02.024-.012-.023.02.06-.158-.024.012M94.132 32.55c.004.01.013-.1.015-.119-.01.024-.017.146-.015.118M94.033 32.787l.005-.044-.022.107zM93.962 32.778c-.012.185.028-.027.035.04l-.003.042.02-.148c-.017.022-.047.119-.052.066M93.964 32.377c-.005.072-.014.06.007.023v-.018c-.001 0-.004 0-.007-.005M93.971 32.382c.008-.005.001-.06 0 0M93.933 32.42l.016-.064c.002-.042-.005-.052 0-.083a.432.432 0 0 0-.016.146M93.91 32.553l.007-.027c.001-.018 0-.024-.007.027M93.934 32.47l-.016.056c-.002.03-.008.09.007-.02-.007.055 0 .002.009-.036M93.937 32.499c.002.04.006.066-.01.129.021-.024.031-.153.01-.13M93.939 32.968l.002.055.013-.06c-.007.03-.01-.052-.015.005M93.882 32.318l-.012.155.012-.044c-.001-.028-.006-.053 0-.111M93.87 32.473l-.018.066c.009.009.014-.023.018-.066M93.887 32.757l.032-.14-.036.141zM93.841 32.309l.016-.09-.025.136zM93.812 32.322c.013-.074.008-.128.017-.173-.009.013-.022.076-.033.134.01-.032.015-.023.016.039M93.777 32.366l.018-.083a.802.802 0 0 0-.018.083M93.836 32.518c.001-.024.006-.086.003-.113l-.008.11.005.003zM93.831 32.52v-.004l-.008-.007.008.01M93.837 32.518h-.001c-.001.01-.001.014 0 0M93.869 32.654c-.013.061-.033.126-.03.221.012-.075.01-.129.03-.22M93.827 32.656l.01.027c.002-.03.005-.072.011-.102l-.02.075z"/>
            <path fill="#FFF" d="M93.818 32.691l.01-.035-.004-.01zM93.786 32.47c-.01.049-.016.052-.023.06.004.022.01.034.016.034.005-.034.014-.096.007-.093M93.807 32.504l-.002.006c0 .01 0 .012.002-.006M93.703 32.522l-.002.02.003-.019h-.001zM93.778 32.585c.003.022.008-.005.015-.039-.005.011-.01.018-.014.018-.002.016-.003.026-.001.02M93.755 32.416l.002.061c.001-.035.002-.09-.002-.061M93.807 32.48v-.005c.002-.024 0-.012 0 .005M93.807 32.48c-.004.016-.01.042-.014.066a.197.197 0 0 0 .012-.036l.002-.03M93.607 33.227c.013-.102.036-.195.035-.085.02-.075.049-.411.06-.6-.006.044-.01.085-.028.145-.002.056.011.133-.008.224-.021.051-.01-.037-.01-.092-.008.128-.04.183-.057.37l.02-.064c-.002.029-.012.075-.012.102"/>
            <path fill="#FFF" d="M93.722 32.555l.006-.013a1.085 1.085 0 0 1-.001-.14.844.844 0 0 0-.023.121l.021.017-.003.015zM93.749 32.544c-.016.111-.032.157-.038.278.015-.006.02-.092.033-.14-.025.026.013-.06.004-.125.006-.018.01-.024.015-.028a.424.424 0 0 1-.006-.052v.008c-.001.014-.002.023-.002.015v.002a1.921 1.921 0 0 1-.006.042c-.004-.024.002-.029.005-.042l.002-.017-.028.057c.003.017.01.014.02.002M93.802 33.113l.002-.026c-.003.013-.004.022-.002.026"/>
            <path fill="#FFF" d="M93.8 33.045c.003-.016.01-.06.013-.048.002.034-.005.053-.009.09.006-.03.02-.079.015-.134l-.003.015a1.507 1.507 0 0 1 .001-.194l-.017.27M93.77 32.823l-.024.052v.097l.005-.057c.008.023.013-.048.02-.092M93.706 32.467l.016-.117-.029.164zM93.681 32.478l.012-.102-.013.061zM92.148 33.57l-.01.028a.16.16 0 0 0 .01-.028M92.188 33.583l.008-.05a.222.222 0 0 0-.008.05M93.092 32.423c.005-.096.015-.244 0-.13l-.01.112c.007-.02.01-.007.01.018M92.6 33.037l-.003.034.02-.106-.017.072M92.53 33.497v-.073a.61.61 0 0 0 0 .073M91.91 33.656l-.024.112c.01.001.015-.057.024-.112M93.431 32.492c-.002-.044-.005-.063-.009-.069 0 .065-.004.162.01.07M92.338 32.392a.46.46 0 0 0-.015.067.316.316 0 0 0 .015-.067"/>
            <path fill="#FFF" d="M93.403 32.421v.027c.007-.018.014-.032.019-.025 0-.048-.004-.078-.02-.002M91.126 33.437v-.014c-.003.015-.002.016 0 .014M91.098 32.28c.003-.006.007-.006.01-.007 0-.008-.003-.007-.01.007M93.59 32.42c.006-.008.002-.013 0 0M93.566 32.864a11.54 11.54 0 0 0-.008.054l.008-.054M93.27 33.11c-.002.022-.002.018 0 0M93.597 32.418l.003.01c.003-.017.004-.03-.003-.01M93.582 32.424c.004-.001.006.005.007.013l.001-.018c-.002.002-.004.004-.008.005M91.602 33.21v-.01c-.012.045-.009.038 0 .01M92.81 33.565l.002-.006v-.004l-.001.01zM92.781 33.645c.026-.138.028-.12.03-.09l.036-.322-.066.412zM91.684 32.37l-.002.034c-.014.034-.006.002.002-.033M93.534 32.57a.391.391 0 0 0 .007-.052c-.005.031-.009.033-.012.024-.003.032-.003.055.005.028M93.523 32.514v.006c-.004-.049-.003-.03 0-.006M92.596 33.279c-.008.04-.01.02-.008-.028.004-.01.008-.005.008.028M92.256 33.537c-.008.025-.027.104-.02.03.026-.14.019-.072.02-.03M91.914 33.635v-.001l-.004.022zM93.649 32.368l-.015.032c.006-.006.005.021.006.042.003-.03.005-.072.009-.074M93.661 33.148c.004-.015.004-.002.007-.017l.006-.057c-.007.002-.017.048-.013.074M93.614 32.782c-.011.105 0 .07.01.052h-.002c.019-.146.005-.1-.008-.052M93.626 32.83c.003-.004.005-.006.007-.001.008-.059-.001-.013-.007.001M93.564 32.503c0 .027.017-.133.015-.09.019-.133-.043.158-.015.09M93.582 33.127l.011-.129-.016.104zM93.53 33.026l.01.038a.231.231 0 0 1 .007-.044c-.007-.006-.012-.032-.016.006"/>
            <path fill="#FFF" d="M93.547 33.02c.004.003.008 0 .013-.02-.003 0-.007.004-.013.02M93.56 33.164v-.027l-.008-.01zM93.4 32.987l-.018.035c-.007.044-.007.072 0 .055.007-.03.014-.047.017-.09M93.4 33.345c0-.028.003-.057.005-.1l-.018.16.013-.06zM93.356 33.377c-.007.044-.035.125-.017.117.007-.044.025-.079.017-.117M93.173 33.151l.004-.001.03-.263zM92.912 33.756c.009.065.024-.16.03-.08.01-.062-.005-.066.006-.12-.018.065-.019.028-.036.2M92.948 33.557l.01-.04-.01.04M91.086 32.134v-.056l-.01.089zM91.031 32.323l.028-.165-.033.148c.003-.007.01-.02.005.017M92.237 33.876l.006-.04c.005-.044.003-.047-.001-.055l-.005.095zM92.11 33.731l.003.004.017-.151zM91.961 33.906c.004.007.015-.026.02-.019-.016.026.007-.17-.02.019M108.368 28.063c-.004-.006-.002-.01 0-.013-.008-.003-.01 0 0 .013M108.232 28.002l-.05-.027.075.052zM108.374 28.141l-.134-.104.116.1c-.004-.006-.013-.019.018.004M104.45 17.845c.01 0-.09-.045-.108-.054.02.017.134.066.108.054M104.644 18.017l-.04-.02.095.057zM104.612 18.08c.173.073-.016-.036.05-.019l.04.016-.135-.068c.015.023.097.084.045.07M104.228 17.942c.067.03.054.034.025.002l-.018-.006c0 .001 0 .003-.007.004M104.235 17.938c-.001-.009-.057-.022 0 0M104.258 17.986l-.055-.036c-.04-.017-.052-.013-.08-.03a.45.45 0 0 0 .135.066M104.378 18.052l-.023-.016c-.016-.007-.023-.008.023.016M104.307 18.002l.049.034c.027.012.083.037-.018-.013.05.024.003 0-.03-.021M104.336 18.008c.04.013.066.017.12.053-.015-.027-.136-.08-.12-.053M104.786 18.165l.053.017-.054-.033c.027.016-.052-.008.001.016M104.144 17.999l.144.063-.038-.026c-.026-.008-.052-.012-.106-.037M104.288 18.062l.058.039c.011-.005-.018-.02-.058-.039M104.566 18.142l-.123-.077.123.081zM104.122 18.033l-.081-.044.121.069zM104.124 18.064c-.067-.036-.12-.05-.16-.074.01.013.066.047.117.077-.027-.02-.017-.022.043-.003"/>
            <path fill="#FFF" d="M104.155 18.112l-.074-.045c.014.01.036.024.074.045M104.32 18.109c-.022-.01-.08-.035-.107-.04l.103.043.004-.003z"/>
            <path fill="#FFF" d="M104.32 18.113l-.004-.001a.05.05 0 0 1-.01.006l.014-.005zM104.32 18.108v.001c.01.004.013.005 0 0M104.462 18.124c.054.033.109.073.201.102-.067-.037-.12-.053-.201-.102M104.45 18.163h.028c-.027-.011-.067-.028-.094-.044l.066.044zM104.48 18.183l-.03-.02h-.01zM104.258 18.14c.042.025.044.031.048.04.023.004.037.003.039-.003-.031-.016-.087-.045-.087-.038M104.297 18.131l.005.004c.01.003.012.004-.005-.004M104.28 18.234l.018.008-.018-.009zM104.365 18.185c.021.005-.002-.01-.032-.027.008.008.013.015.012.019.014.007.024.012.02.008M104.195 18.15l.06.018c-.034-.013-.086-.032-.06-.018M104.273 18.123a.067.067 0 0 0-.004-.003c-.022-.009-.012-.004.004.003"/>
            <path fill="#FFF" d="M104.273 18.123l.06.035a.201.201 0 0 0-.03-.023 1.256 1.256 0 0 0-.03-.012M104.922 18.56c-.094-.047-.175-.1-.07-.062a6.327 6.327 0 0 0-.554-.257c.04.02.079.038.129.075.053.02.131.034.212.083.042.037-.039-.005-.092-.022.12.05.162.099.336.177l-.055-.04c.027.012.068.037.094.045M104.317 18.227l-.01-.01a1.094 1.094 0 0 1-.135-.046.864.864 0 0 0 .108.062l.023-.014.014.008zM104.316 18.198c.1.052.14.082.253.129 0-.016-.081-.05-.122-.078.016.032-.054-.032-.119-.045-.016-.012-.02-.019-.022-.024a.484.484 0 0 1-.052-.012l.007.003h.001c.014.006.021.009.014.007h.002l.037.02c-.023-.004-.026-.012-.037-.02l-.016-.007h-.001l.046.046c.017.003.016-.004.01-.019M104.813 18.32c-.014-.009-.054-.029-.042-.029.033.01.05.023.083.039-.025-.016-.069-.045-.123-.059l.014.008a1.53 1.53 0 0 1-.186-.066l.254.107M104.59 18.272l.042.04.093.034-.054-.025c.026 0-.04-.028-.081-.049M104.227 18.211l-.107-.053.148.082zM104.23 18.239l-.094-.046.054.033zM104.76 20.025l.024.019a.208.208 0 0 0-.023-.019M104.786 19.993l-.045-.025a.237.237 0 0 0 .045.025M103.978 18.766c-.09-.036-.23-.096-.124-.045l.103.049c-.015-.014-.002-.012.021-.004M104.401 19.428l.032.014-.095-.054.063.04M104.819 19.647l-.07-.024c.023.01.047.017.07.024M104.763 20.275l.1.06c.004-.01-.05-.033-.1-.06M104.16 18.475a.202.202 0 0 0-.07-.015c.062.021.153.058.07.015M103.695 19.455a.42.42 0 0 0 .06.036.356.356 0 0 0-.06-.036M104.081 18.478l.026.008c-.015-.013-.026-.024-.017-.026-.047-.016-.077-.023-.009.018M104.29 20.927l-.012-.005c.013.008.015.007.013.005M103.173 20.567c-.006-.005-.004-.008-.004-.012-.007-.003-.008 0 .004.012M104.142 18.303c-.004-.008-.01-.006 0 0M104.56 18.475l.05.026-.05-.026M104.697 18.833c.02.008.016.007 0 0M104.193 18.319a.273.273 0 0 0 0 0M104.143 18.296l.012.001c-.017-.009-.028-.013-.012 0M104.145 18.312c0-.003.006-.003.014-.002a.127.127 0 0 1-.017-.007.025.025 0 0 1 .003.009M104.232 20.41l-.01-.004c.04.027.034.022.01.004M104.978 19.41l-.005-.003-.004-.001.009.004z"/>
            <path fill="#FFF" d="M105.045 19.465c-.124-.07-.106-.067-.076-.059l-.297-.141.373.2zM103.456 20.054l.03.012c.029.025 0 .007-.03-.012M104.268 18.406a.353.353 0 0 0-.047-.024c.028.015.029.02.019.02.03.013.051.02.028.004M104.21 18.397l.006.003c-.048-.014-.029-.008-.005-.003M104.632 19.513c.036.021.015.016-.03-.001-.008-.008-.001-.01.03.001M104.764 19.915c.022.015.091.06.024.027-.127-.07-.064-.041-.024-.027"/>
            <path fill="#FFF" d="M104.744 20.125l.097.036c.142.092.085.075.218.13-.315-.166-.007-.061-.323-.228l.07.028c-.004 0 .015.01.01.01.16.065-.222-.13-.167-.125a.364.364 0 0 1 .112.05l-.07-.056c.008-.001.062.028.054.03l-.013-.036.009.005-.152-.097c.049.018.032.02.072.04l-.07-.053c.086.038.16.089.143.092.323.151-.074-.052.124.018l.034.033c.184.085.124.042.243.086-.06-.027-.297-.118-.368-.173.025.009.04.01-.02-.03.112.057.088.036.087.023l.149.078c-.038-.032-.114-.07-.179-.11.02-.004.138.053.237.1.033-.004-.192-.082-.21-.118.065.015.01-.026-.07-.09.056.017.09.05.135.068l-.115-.07c.004 0 .04.019.059.028-.043-.03-.15-.077-.184-.11-.163-.086.254.1.074-.01.045.018.091.048.15.076-.113-.083-.08-.063-.237-.163l.105.036a2.17 2.17 0 0 1-.347-.195l-.129-.054-.07-.06c.025.011.075.04.136.074l-.034-.022c.059.022.144.069.225.116l-.096-.04c.089.05.187.106.275.15a.236.236 0 0 1-.037-.027l.061.033c.016.007-.016-.012-.053-.034l.17.08-.066-.034.117.028c-.159-.102-.399-.242-.454-.304.12.068.2.102.345.176-.158-.07.054.054.015.053.02 0 .089.037.112.051l-.127-.096c.12.06.092.04.145.058-.238-.113-.146-.098-.213-.145.079.04.158.083.132.086.185.075-.266-.157-.109-.095 0 .004-.012 0 .027.02-.066-.042-.002-.031.065.007v.004c.039-.006.034-.061-.164-.164l.279.144-.654-.371c.17.089.586.28.674.345.027.007.059.016.003-.025a3.28 3.28 0 0 1-.266-.127c.198.082.107.042.278.108a2.343 2.343 0 0 1-.293-.157c.04.022.266.131.292.149l-.254-.151c.045.028.224.111.3.144-.052-.023.014-.014-.01-.033l-.065-.022c.051-.002-.36-.206-.336-.22.053.029.333.172.372.177-.132-.072-.64-.344-.735-.414l.08.034-.082-.058c.2.11.616.347.776.444.066.022.093.043.092.027.075.031.107.06.11.066l.061-.006c-.159-.076-.147-.1-.28-.164l.148.113c-.159-.077-.44-.24-.402-.247.066.026.28.143.334.169-.054-.03-.095-.071-.055-.054l.08.05c.065.018-.2-.122-.043-.061.013 0 .212.086.118.039-.185-.08-.745-.353-.878-.425.013.004.185.06.277.098.146.062.333.177.458.23a1.574 1.574 0 0 1-.11-.062c.039.013.132.068.118.048-.16-.08.025-.016-.133-.072-.04-.033.039.005.038-.011a3.332 3.332 0 0 1-.39-.216c.041.02.096.044.121.055.025-.015.104.01.115-.01.04.017.093.03.16.068-.027-.017-.08-.046-.081-.054.145.055.015.024.187.096-.093-.046-.122-.079-.176-.116-.146-.067-.038.007.016.044-.2-.096-.4-.213-.482-.278-.042-.04.132.055.105.039.05-.015-.335-.195-.178-.151.132.05.253.12.346.163.042.037-.091-.018-.09-.007l.065.018c.04.025.068.05.029.036.118.047.048-.042.166-.015-.04-.025-.082-.054-.134-.075l.013.016c-.105-.042-.134-.082-.187-.095-.067-.045-.175-.11-.11-.097l.146.067c-.042-.02-.09-.032-.048-.007-.062-.037.207.072.02-.026l-.105-.038c-.069-.045-.217-.131-.165-.122-.146-.062.015.01-.157-.06.213.092-.025.028.2.12-.199-.084-.09-.023-.262-.09.049.022.094.039.065.038l.042.023-.004-.001.005.002a.98.98 0 0 1 .077.03c.108.058.097.073.151.106-.026-.005-.054-.029-.107-.05l.081.05c-.106-.05-.185-.069-.24-.114l-.011.012c-.063-.021-.093-.022-.051.006-.026-.005.11.073.029.027l.056.053-.027-.013c-.024.014.155.128-.049.058.024.02.053.043.017.04l-.093-.042c.027.024-.105-.018-.012.032-.251-.11-.075.017-.127.01l.12.06c-.013.007.016.034.058.07l.106.052c.08.054-.09-.007-.089.016-.04-.02-.027-.02 0-.012-.25-.095.15.132-.034.066.036.024.02.02-.008.011l-.004-.004-.003.001a12.554 12.554 0 0 1 0 .002c0 .005.01.017.034.035l-.115-.053.003.003c-.045-.016.051.03.138.07a.829.829 0 0 0 .065.041c-.186-.086.054.045-.145-.045.093.051.058.064.256.166-.026-.013-.04-.017-.04-.02-.026-.006-.051-.011.002.023l-.145-.07.186.11a1.375 1.375 0 0 1-.251-.12c.16.105.056.048.215.15l-.092-.048c0 .008.12.08.041.045-.183-.075-.059.055-.241.008.277.13-.131-.046.08.062-.066-.03-.105-.044-.158-.078.054.05-.116-.025.056.077-.066-.03-.093-.052-.132-.07.013.01.053.035.013.017-.04-.018-.052-.03-.079-.047.001.023.2.126.386.222-.094-.036-.084-.025.035.044-.063-.028-.129-.055-.145-.077-.012.002-.11-.007.04.07-.04-.018-.016.003 0 .013-.016.01-.03.005-.024.026l.027.008c.177.098.034.033.05.055l-.019-.01c-.144-.04.056.043-.105-.007l.113.056c.24.126-.154-.05-.07.011l.067.028c.078.05-.34-.146-.374-.154-.022-.009-.033-.02-.047-.03-.153-.052.145.078.171.112-.08-.038-.199-.108-.22-.105-.066-.028.241.163.082.1.062.028.125.056.167.087.016.022-.247-.09-.06.02l-.049-.022c.045.034.068.07.169.13-.39-.194.159.15-.197-.035l.005.036-.036-.02c-.033.005.05.055.131.106-.026-.009-.058-.03-.076-.04-.085-.012-.071-.002.095.111l-.117-.058c.064.04-.2-.06-.079.035a.785.785 0 0 1-.05-.03c.12.098-.354-.104.06.127l.093.073c.045-.006.18.1.254.127.02.023-.139-.043-.154-.066l.022.01c-.216-.12-.094-.013-.242-.092-.014.05-.159.03-.192.067l.172.086-.018.01c-.041-.017-.135-.066-.122-.073-.099-.046.07.061.107.081-.08-.016-.193-.114-.2-.11l.007.015.021.009c.066.044.139.084.123.092-.038-.01-.106-.052-.114-.052-.013-.007-.019-.009-.008.002l-.025.01.138.065c.06.044-.017.014.138.087-.24-.113-.122.025-.198-.007.09.064.082.075.062.083.03.011.18.09.156.093-.307-.173-.147-.051-.374-.163.152.072.016.055.233.155-.03-.003-.116-.062-.193-.094.106.09-.107.01-.084.062.04.023.105.051.162.091l-.212-.096c.017.017.23.134.084.068.035.017.088.043.098.054-.23-.05.093.21-.31.062.083.036.087.045.087.053.02.006.099.055.154.086l-.166-.06c.15.089-.005.031.138.115l-.021-.022c.164.106.388.198.606.323-.187-.121.306.13.04-.046.047.021.068.043.12.07-.09-.058-.107-.075-.058-.062l.022.014c-.005-.044.096-.006.178-.007l-.11-.057c.018 0 .053.018.082.03-.16-.1-.02.015-.198-.093.227.112.034-.052.289.08.008-.01-.128-.066-.12-.076l.07.034-.086-.051c.019 0 .106.044.164.075-.008-.002.013.014.017.019.086.034-.011-.043.017-.032l-.049-.012c-.046-.067.066-.056-.055-.163l-.053-.026c-.082-.076.067.012.038-.038l.011.008c-.048-.033-.07-.054-.06-.058.057.04.124.052.186.097-.088-.082-.074-.057-.256-.178l.088.043c-.074-.048-.115-.07-.13-.095.068.05.136.062.226.127.202.074-.167-.142.114-.007-.23-.14-.145-.048-.191-.082-.08-.036-.172-.106-.143-.102.01-.005.311.15.319.126-.002.001.015.011.013.013.065.024-.073-.06.03-.017-.14-.083.016-.009-.166-.11l.032.044c-.042-.038-.25-.163-.136-.126.036.021.082.053.106.071.057.024-.03-.03.03-.005.181.1.025.045.158.133.081.036-.12-.094.075.018-.247-.144.044-.004-.14-.122l.109.06c-.016-.012-.065-.045-.06-.047l.138.084c-.115-.077.12.034.06-.013-.01.026-.136-.066-.222-.099-.13-.108.297.137.263.076.013.012-.076-.019-.123-.053.027.006.073.02.133.047-.01-.034-.115-.057-.177-.103.138.064-.049-.04-.086-.072l.112.06c.085.013-.23-.131-.13-.107l.149.092-.034-.033.127.07c-.088-.063-.062-.054-.019-.048-.08-.039-.202-.11-.2-.122.071.027.105.06.098.036.067.041.153.091.046.044l.104.06c.08.033.029-.011.031-.017-.005 0-.013-.001-.03-.008l-.142-.105c.044.019.076.04.108.06-.01-.011-.06-.042-.066-.054.09.05.185.1.222.132l-.089-.076c.04.02.115.047.147.067.06.016-.16-.123-.081-.101a.253.253 0 0 1-.044-.032c.028-.004.147.042.032-.042l.17.075c-.03-.033-.214-.094-.263-.15-.043-.043.143.067.191.086-.078-.052-.238-.153-.096-.1.028.022.001.013.011.024M104.77 19.621"/>
            <path fill="#FFF" d="M104.745 20.263h-.002l.02.012zM104.114 18.232l.025.024c-.004-.008.022.003.042.009-.027-.013-.067-.03-.067-.033M104.864 18.483c-.013-.008 0-.004-.013-.012l-.054-.025c0 .008.042.032.067.037M104.498 18.404c.097.045.068.023.053.008 0 0 0 .001 0 0-.134-.065-.093-.036-.053-.008M104.549 18.409c-.004-.005-.005-.008 0-.008-.053-.027-.012-.003 0 .008M104.214 18.356c.026.008-.122-.061-.082-.044-.12-.063.138.092.082.044M104.818 18.55l-.12-.055.094.05zM104.704 18.563l.038.004a.226.226 0 0 1-.039-.022c-.007.005-.034.001.001.018M104.703 18.545c.004-.003.004-.007-.015-.018 0 .002.002.008.015.018M104.846 18.581l-.026-.008-.012.004zM104.622 18.671l.028.028c.04.021.066.03.052.018-.027-.017-.04-.029-.08-.046M104.965 18.79c-.027-.008-.053-.02-.093-.037l.147.07-.054-.032zM104.981 18.843c.04.02.108.074.107.054-.04-.02-.068-.05-.107-.054M104.703 18.936v-.004l-.24-.117zM105.195 19.381c.065.014-.146-.077-.068-.054-.055-.032-.064-.018-.11-.046.054.038.019.026.178.1M105.016 19.28l-.034-.022.034.023zM103.029 20.53l-.054-.019.081.038zM103.192 20.643l-.15-.08.131.08c-.005-.006-.016-.017.019 0M105.083 20.046l-.036-.02c-.04-.018-.044-.018-.053-.017l.09.037zM104.902 20.114h.005l-.14-.068zM105.02 20.31c.007 0-.02-.022-.012-.023.02.022-.16-.064.012.024M82.053 93.154c.033.14.032.087.038.107-.056-.232-.04-.1-.038-.107M81.428 90.884l.022.038-.118-.328zM80.86 88.757c-.014.22.218.767.297 1.153l.003.066.091.158c-.126-.46-.323-1.047-.391-1.377M80.729 87.574c-.014.08-.089-.238.056.269l-.004-.05-.052-.219M80.781 87.792c.058.225-.01-.154 0 0M80.502 86.759l.105.287c.004-.067-.057-.332-.018-.239-.091-.3-.098-.23-.087-.048M80.365 86.496l.053.15c.001-.03-.006-.07-.053-.15M80.529 86.963l-.111-.317c-.004.047-.031.06.048.146-.033-.019.009.038.063.171M80.563 87.151c.024.171.069.389-.038.1.16.562.193.464.038-.1M80.757 88.67l.041.225.076.185c-.038-.092-.099-.43-.117-.41M80.085 84.9c-.027-.013-.033.115-.055.145l.081.212c-.014-.117-.055-.333-.026-.358"/>
            <path fill="#FFF" d="M80.03 85.045l-.124-.316c.073.293.105.342.124.316M80.25 86.472l.21.517-.24-.62zM79.77 83.649l.103.17-.168-.307zM79.549 82.823c.083.123.035-.212.101-.075a3.099 3.099 0 0 0-.24-.565c.07.177.113.375.139.64M79.279 81.908c.036.089.082.178.132.275a1.688 1.688 0 0 0-.132-.275M79.771 84.17c.008-.03.032-.088 0-.276l-.032.147.032.13M79.738 84.046v-.005l-.069-.278.069.283"/>
            <path fill="#FFF" d="M79.78 84.203l-.009-.033c-.003.014-.003.022.009.033M80.07 85.603c-.082-.182-.23-.57-.174-.17.078.125.048-.104.175.17M79.74 84.385l.08.35c.014-.011.022-.08.065.01l-.144-.36zM79.674 84.221l.067.164-.03-.13zM79.365 82.522c-.071-.141-.118-.304-.172-.488.038.203.085.41.137.605.03.02.094.095.035-.117M79.54 83.264l-.013-.032c0 .022.002.04.013.032M78.705 80.215l-.007.033.016.003z"/>
            <path fill="#FFF" d="M79.326 82.675a.885.885 0 0 0 .112.316 6.044 6.044 0 0 1-.107-.353c-.014-.01-.021-.01-.005.037M79.11 81.41c.004.082.013.174.026.27.003-.083 0-.248-.027-.27M79.533 83.176l.01.022c.001-.053-.004-.045-.01-.022M79.533 83.176c-.03-.073-.063-.129-.095-.185.03.09.06.171.089.241 0-.02.003-.04.006-.056M78.02 79.814c.086.005.268.374.285.733.152.315.332.03.393-.3-.036 0-.065.008-.205-.32-.01.131.114.784-.034.515-.168-.44-.078-.377-.1-.608-.042.213-.303-.535-.42-.396l.166.38c-.02.014-.097-.119-.085-.004M78.867 80.902l.047.138a2.426 2.426 0 0 1-.03-.515c-.099-.224-.14-.265-.17-.274l.177.696-.024-.045z"/>
            <path fill="#FFF" d="M79.084 81.672c-.106-.088-.233-.416-.26-.186.12.41.145.27.245.508-.2-.66.095.18.007-.314.048.127.084.244.117.354a6.76 6.76 0 0 1-.057-.354l-.001.016v.003c-.002.032-.005.043-.009.009a.063.063 0 0 1-.005-.014c-.012-.001-.024-.011-.037-.022-.036-.198.012-.036.037.022.004.001.01.005.014.005v-.003l-.221-.656c.027.145.076.321.17.632M79.664 85.115c-.001-.022.004-.023.008-.026-.02-.04-.03-.055-.008.026M79.623 84.83c.022.047.06.08.097.239.02.142-.03.007-.048.02.044.09.138.32.084.014l-.021-.045c-.055-.274-.07-.641-.048-.597a.955.955 0 0 0-.064.37M79.316 83.241l-.19-.545.017.3.034-.025c.074.32.1.239.14.27M78.729 80.14l.107.048-.21-.286zM78.525 79.42l.085.004-.098-.178zM87.322 48.523l.167-.044c-.08.017-.13.031-.167.044M86.089 48.689l-.025.04c.054-.028.075-.046.025-.04M73.555 61.74c.031-.259.12-.554.009-.498l-.096.099c.06.158.083.286.087.399M76.153 51l-.08.001c-.043.051-.081.105-.115.152.056-.05.123-.102.195-.154M76.167 50.573c.114-.026.227-.048.342-.065-.08.005-.19.022-.342.065M94.044 47.521l.188-.098c-.311.042-.169.06-.188.098M76.461 72.037a3.242 3.242 0 0 0-.078-.53c.007.265-.028.49.078.53M86.964 49.435c.102-.03.144-.053.138-.07-.105.03-.164.054-.138.07"/>
            <path fill="#FFF" d="M76.218 70.916c0 .039.004.076.005.115.06.145.116.291.16.477-.005-.196-.034-.413-.165-.592M118.478 44.261l.056-.004c.004-.004-.02-.001-.056.004M125.62 43.464c-.071.01-.185.029-.292.046l.291-.046M77.779 76.501c.047.152.016.021 0 0M77.613 77.35c-.02-.03-.04-.05-.062-.049a.106.106 0 0 1 .062.049M75.102 69.587c0-.005-.002-.008-.003-.013-.009.051-.007.042.003.013M77.798 76.744a2 2 0 0 0-.025-.204c.001.033.008.096.025.204M77.834 76.7l.028.136c.02.016.025-.004-.028-.136"/>
            <path fill="#FFF" d="M77.715 76.29c.026.086.044.169.058.25-.002-.032 0-.046.006-.039l-.064-.212M105.41 46.172h.036c.157-.044.087-.03-.035 0M71.682 57.869l.006.019a1.57 1.57 0 0 0 .003-.025l-.009.006zM71.591 57.275c.13.255.12.396.1.588l.314-.205c-.147-.122-.276-.25-.414-.383M107.172 46.303l-.107.001c.234-.052.17-.027.107-.001M77.326 75.379c.03.047.044.04.053.013-.037-.028-.071-.144-.1-.278-.019.045-.02.117.047.265M77.23 74.848c-.002-.004-.005-.008-.008-.01-.026-.262-.019-.169.009.01M75.247 51.214c.063-.071.191-.13.352-.16-.1.053-.212.117-.352.16M84.259 48.984c.113-.036.337-.128.43-.085-.116.123-.227.087-.43.085M76.161 50.624a.097.097 0 0 1 .07.033c.038-.035.031-.054-.07-.033M94.009 47.539l.018-.002a.046.046 0 0 0 .017-.016l-.035.018zM74.007 67.67a.585.585 0 0 1 .005-.222c-.033.003-.045.058-.005.223M78.252 78.075l-.115-.325c.048.159.042.222.048.308.021-.014.038-.087.067.017M78.468 81.116c.025.045.03.102.056.146l.037-.024c-.062-.205-.137-.34-.093-.122M78.005 78.475c-.076.05.012.25.092.477-.004-.014-.009-.027-.011-.04.133.035.027-.202-.08-.437M78.115 79.005c.024.07.046.143.062.214.053.014-.015-.09-.062-.214M77.568 76.018c.007.117.134.037.114.11.149.09-.34-.696-.114-.11M77.785 78.74l.079-.112-.12-.107zM77.334 76.89l.076.378c.017-.01.04.034.065.09-.062-.23-.112-.485-.141-.468M77.475 77.357c.033.12.068.232.104.293a3.08 3.08 0 0 0-.104-.293M77.607 78.243l-.01-.116-.069-.263zM76.208 72.907l-.15-.394c-.054-.03-.048.087.012.233.057.089.116.234.138.16M76.239 74.218c-.008-.115.016-.13.037-.203l-.15.029.113.174zM75.856 73.053c-.053-.028-.294-.55-.132-.043.054.03.208.423.132.043M74.27 66.922l.031.102.263-.09zM72.093 61.71c.058.51.194.076.229.54.093.097-.03-.379.056-.275-.146-.277-.14-.446-.285-.265M72.378 61.975c.023.045.05.091.08.14a.766.766 0 0 0-.08-.14M126.799 43.298l.322-.045-.209.023zM127.412 43.18l.079.005.19-.045a5.132 5.132 0 0 1-.269.04M83.326 48.855l-.02.034c.055.026.13.018.283.002l-.263-.036zM87.71 48.352l-.075.008.157.087zM91.36 47.725c-.15.016-.323.062-.474.078.324-.062.533.041.474-.078M144.702 37.542c0 .02.087-.026.113-.025l.116-.129c-.073.054-.204.161-.229.154M144.815 37.518l-.172.193c.172-.155.195-.192.172-.193M143.96 38.195l.087-.121-.163.209zM143.458 38.618c.06-.094-.154.051-.08-.038-.134.117-.23.238-.322.34.108-.098.227-.196.402-.302M142.898 39.09c.053-.05.103-.108.158-.17-.057.053-.11.108-.158.17M144.313 38.006a.56.56 0 0 0-.186.102l.11-.033.076-.069M144.241 38.074l-.004.001a40.125 40.125 0 0 0 .004-.001M144.332 37.989a.62.62 0 0 1-.02.017c.011-.003.017-.006.02-.017M145.173 37.276c-.096.119-.31.356-.06.167.059-.095-.084.013.06-.167M144.464 37.942l.208-.182c-.012-.004-.06.018-.013-.042l-.195.224zM144.375 38.045l.089-.103-.078.068zM143.303 38.836c-.074.095-.18.173-.293.268.132-.09.266-.184.382-.287.006-.026.04-.09-.089.02M143.762 38.47l-.019.019c.016-.008.027-.015.019-.02M141.852 39.982l.026-.006-.003-.01zM143.42 38.807a.767.767 0 0 0 .184-.179 5.81 5.81 0 0 1-.212.19c-.002.011 0 .016.027-.01M142.593 39.356c.057-.029.119-.064.183-.103-.06.024-.175.078-.183.103M143.704 38.504l.012-.012c-.037.017-.03.017-.012.012"/>
            <path fill="#FFF" d="M143.704 38.504c-.042.045-.07.085-.1.124.052-.05.1-.097.14-.14a.225.225 0 0 1-.04.016M141.736 40.55c-.019-.058.202-.287.455-.406.188-.194-.062-.224-.314-.168.009.024.022.04-.179.229.097-.032.535-.306.38-.13-.275.24-.252.163-.413.245.164-.035-.308.358-.18.396l.233-.223c.015.009-.062.1.018.058M142.301 39.673l.085-.075a1.623 1.623 0 0 1-.357.177c-.136.13-.155.168-.154.19.15-.108.306-.209.452-.322l-.026.03z"/>
            <path fill="#FFF" d="M142.784 39.288c-.034.096-.23.282-.062.226.257-.21.152-.18.293-.32-.412.34.1-.116-.223.097.076-.071.149-.131.218-.187-.08.053-.159.104-.234.149l.012-.004.002-.002c.022-.008.031-.01.008.003l-.008.008c.002.008-.001.019-.006.03-.129.086-.028.004.006-.03v-.01h-.002l-.402.35c.094-.063.204-.151.398-.31M144.97 37.703c-.014.009-.016.006-.019.005-.021.028-.028.04.019-.005M144.794 37.839c.024-.032.035-.066.129-.151.088-.068.014.014.028.02.046-.061.17-.207-.017-.055l-.023.03c-.165.14-.404.292-.381.262a.787.787 0 0 0 .264-.106M143.809 38.615l-.32.31.2-.117-.026-.012c.198-.159.135-.146.146-.181M141.792 39.988l.008-.084-.153.22zM141.328 40.331l-.018-.058-.102.117zM116.48 59.773l.007.132a.673.673 0 0 0-.007-.132M116.65 58.857l-.045-.031c.02.047.036.068.045.031M129.048 47.541c-.213.009-.469-.016-.398.068l.101.065a.827.827 0 0 1 .297-.133M120.893 53.045l.066-.006.038-.162-.104.168M121.077 53.49l-.25.1c.062-.015.143-.046.25-.1M115.839 64.863l.085.164c.032-.236-.036-.139-.085-.164M136.336 43.54c-.16.056-.28.112-.383.167.198-.06.375-.081.383-.167M115.372 59.218c.007.083.024.12.05.122-.006-.085-.02-.134-.05-.122M135.542 43.949c.03-.008.057-.019.086-.027.097-.074.195-.145.325-.215-.146.044-.303.11-.411.242M113.327 83.37l-.01.04c.005.006.008-.013.01-.04M112.458 88.752l.015-.223-.015.223M139.377 41.602c.1-.07.012-.017 0 0M140.04 41.505c-.017.02-.028.04-.021.055a.08.08 0 0 1 .021-.055M134.775 45.044l-.009.006c.04-.005.034-.004.01-.006M139.551 41.529a1.56 1.56 0 0 0-.144.068c.025-.01.069-.03.144-.068M139.511 41.515l.094-.053c.007-.017-.01-.016-.094.053M139.236 41.698c.058-.039.115-.072.171-.101-.023.009-.034.01-.03.005l-.141.096M114.397 73.419l-.01.025c.02.126.02.072.01-.025M126.708 49.987c.005-.004.006-.008.01-.011a.528.528 0 0 0-.018.005l.008.006zM126.36 50.269c.1-.208.2-.246.34-.288l-.279-.203-.061.49zM113.638 74.65l.031-.077c.008.183-.01.13-.031.077M138.65 42.187c.029-.032.02-.04-.002-.04-.013.032-.091.083-.185.134.037.003.092-.013.187-.094M138.276 42.376l-.006.009c-.189.078-.121.051.006-.009M121.587 52.829c-.029.072-.123.117-.245.149a.688.688 0 0 1 .245-.15M116.884 57.52c.004.087.044.27-.043.312-.117-.125-.032-.185.043-.311"/>
            <path fill="#353535" d="M121.057 53.438a.122.122 0 0 1-.073-.03c-.016.038 0 .057.073.03"/>
            <path fill="#FFF" d="M115.823 64.833l-.003.013a.047.047 0 0 0 .019.017l-.016-.03zM133.56 46.257a.456.456 0 0 1-.172.04c.01.025.054.024.171-.04M140.42 40.879l-.21.164c.105-.075.153-.087.213-.114-.015-.01-.072-.003-.004-.05M142.555 39.863c.025-.031.064-.053.088-.084l-.027-.016c-.128.106-.202.199-.061.1M140.77 40.939c.054.038.178-.075.325-.191l-.027.019c-.006-.1-.153.036-.299.172M141.13 40.721c.045-.035.093-.07.14-.1-.002-.039-.061.035-.14.1M139.07 41.867c.084-.033-.003-.102.055-.106.034-.125-.436.405-.055.106M141.015 41.015l-.1-.022-.05.11zM139.766 41.813l.261-.148c-.012-.009.016-.037.05-.068-.154.101-.332.2-.311.216M140.078 41.597c.08-.052.156-.104.192-.145-.042.03-.134.094-.192.145M140.695 41.271l-.082.039-.176.118zM137.046 43.54l-.264.194c-.011.045.076.016.172-.06.055-.059.151-.134.092-.134M138.023 43.226c-.085.032-.102.018-.16.02l.054.1.106-.12zM137.231 43.763c-.01.045-.352.334-.004.105.01-.045.273-.245.004-.105M132.93 46.197l.07-.043-.124-.186zM129.365 48.77c.371-.131.011-.176.357-.276.054-.092-.283.082-.223-.005-.18.162-.304.19-.134.28"/>
            <path fill="#FFF" d="M129.5 48.489c.028-.026.058-.055.088-.088a.51.51 0 0 0-.089.088M112.387 89.652l-.016.247.012-.159zM112.362 90.125l-.006.058-.008.148.014-.206M117.365 57.237l-.027-.034a.097.097 0 0 0-.067.027.28.28 0 0 0-.032.033l-.01.01-.004.005v.001l-.001.001-.264-.154.005.003.008.006.036.023.148.094.039.023c.014.008.03.017.024.015l-.001.003.006-.001-.091-.054-.091-.058-.045-.029-.023-.015-.01-.007-.004-.002v-.001h-.001l.281.164h.001l.041-.018.082-.035zM116.591 60.102l.013-.055-.166.082z"/>
            <path fill="#FDB600" d="M89.607 96.791c.143-1.505.59-2.957 1.34-4.356 2.406-.527 2.17-.265 8.618-1.611s10.325-2.987 17.034-2.491c-3.143 1.25-10.256 6.254-11.825 6.254-1.045 0-6.101.735-15.167 2.204z"/>
            <ellipse cx="127.249" cy="64.016" fill="#FF4C5A" stroke="#FFF" stroke-width=".992" rx="1.989" ry="1.969"/>
        </g>
        <path stroke="#7A7A7A" stroke-linecap="round" stroke-linejoin="round" d="M55 34V1H3M31 141.147L60.878 141l10.369 4 62.753-.284M55 71v23.916L20 95M169 1H85.626l.195 28H74M33 49h9M64.5 49H171M127 92v3h7"/>
    </g>
</svg>
