<svg xmlns="http://www.w3.org/2000/svg" width="40" height="40" viewBox="0 0 40 40">
    <g fill="none" fill-rule="evenodd">
        <path fill="#5E5E5E" d="M10.916 8.456l-3.35.398a.762.762 0 0 0 .162 1.514L9.7 10.18c.34-.154.676-.288.974-.381a4.1 4.1 0 0 1 .24-1.344"/>
        <path fill="#5E5E5E" d="M10.072 9.414c-.117.048-.251.712-.371.767-.806.362-1.587.794-1.654.854-.12.106-.298.55.153.615.452.063.365-.396.368-.434.681-.323 1.54-.551 2.193-.695a2.887 2.887 0 0 1-.087-.722c-.192.061-.386-.474-.602-.385z"/>
        <path fill="#A8A8A8" d="M35.76 23.546l1.248.123a.107.107 0 0 0 .102-.162l-1.378-2.246c-.04.112-.616-.743-.669-.635-1.034-.536.215 1.407 0 1.714l.696 1.206z"/>
        <path fill="#5E5E5E" d="M19.072 35.545c-.184-.62-.818-2.55-1.881-4.4-.175-.265-.647-1.005-.666-1.033-.106.437-.249.871-.403 1.285-.181.486-.773.984-1.621 1.464l-.361 1.3c.083.313.152.648.203 1.003 1.559.32 4.115.84 5.159 1.038a1.34 1.34 0 0 1-.43-.657"/>
        <path fill="#404040" d="M10.584 34.454a36.39 36.39 0 0 1-1.437.415 6.485 6.485 0 0 1-1.502.233c.539.45 1.103.87 1.689 1.26.342-.792.767-1.47 1.25-1.908M12.33 34.045l.06-.215-.297.113c.088.02.159.066.237.102M13.455 36.631c.039.505.05 1.052.029 1.634-.002.056-.008.115-.011.171.314.114.624.238.946.337.046-.412.075-.816.075-1.2 0-.865-.045-1.676-.15-2.409a9.083 9.083 0 0 0-.203-1.004l-.686 2.471z"/>
        <path fill="#404040" d="M13.455 36.631l-.453 1.633c.155.061.313.115.47.172.004-.056.01-.115.012-.17.02-.583.01-1.13-.03-1.635M12.093 33.943c-.481.18-.988.35-1.51.511-.482.44-.907 1.116-1.25 1.908.649.432 1.33.813 2.03 1.166l.967-3.483c-.078-.036-.15-.083-.237-.102"/>
        <path fill="#8A8A8A" d="M14.14 34.16l.36-1.299c-.593.335-1.314.661-2.11.968l-.06.216-.967 3.483c.533.27 1.078.515 1.638.736l.453-1.633.686-2.47z"/>
        <path fill="#727272" d="M21.762 29.46c-.399-.552-.276-1.474 0-2.642.062-.266.021-.607-.075-.972l-1.859 1.712c.336 2.892 1.066 6.659 1.856 6.88.146.038 1.15-.582 2.468-1.458a3.347 3.347 0 0 1-.65-.796 3.34 3.34 0 0 1-.425-1.855c-.749-.233-1.147-.636-1.315-.868"/>
        <path fill="#A7A7A7" d="M29.704 18.829c.068-.05.13-.097.197-.145-1.384.79-3.11 1.644-4.837 2.204-1.74.572-3.885.36-4.87.214-.092.47-.18.94-.257 1.405.102.182.237.369.426.562 0 0 .996 1.538 1.324 2.777.097.365.138.706.076.972-.277 1.168-.4 2.09 0 2.643.168.232.566.635 1.315.868a3.32 3.32 0 0 1 .425-1.5l4.749-8.226c.184-.318.422-.594.69-.832.176-.35.404-.686.762-.942M12.093 33.943l.297-.113a16.167 16.167 0 0 0 2.11-.97c.85-.48 1.44-.977 1.622-1.463.154-.413.297-.847.403-1.285-.004-.006.002-.014.002-.015-.79-1.136-.262-3.048-1.402-3.52-3.258-1.354-6.61-.272-6.793.436-.185.706-.23 1.587-.23 1.587l-.044-.108c-.962 1.568-2.26 3.709-2.623 4.429a19.535 19.535 0 0 0 2.21 2.18c.432-.01.927-.08 1.502-.232a36.39 36.39 0 0 0 1.437-.415 29.57 29.57 0 0 0 1.509-.511z"/>
        <path fill="#8A8A8A" d="M25.064 20.887c1.728-.56 3.453-1.414 4.837-2.204 2-1.444 3.596-2.858 4.137-3.833.014-.465-.33-1.123-.77-1.645 0 .307-2.857 2.858-5.039 3.657-5.717 2.003-7.123 1.81-7.439 1.48-.185.813-.4 1.773-.595 2.76.983.145 3.13.357 4.87-.215"/>
        <path fill="#5E5E5E" d="M28.23 16.862c2.181-.799 5.038-3.35 5.038-3.657-.49-.584-1.598-.664-2.673-.614a7.428 7.428 0 0 0-1.073.155l-.772.175a38.39 38.39 0 0 0-3.994 1.268c-1.688.644-2.964 1.667-3.548 2.188-.048.339-.213 1.057-.418 1.964.316.331 1.722.524 7.44-1.479"/>
        <path fill="#A7A7A7" d="M33.867 20.312c.068.094.136.19.194.291l1.002 1.736c.215-.306.403-.566.54-.745.054-.107.088-.222.129-.334.277-.762.305-1.617.235-2.336-.031.013-.902.46-2.1 1.388M30.073 12.622s.707-.8 1.23-.983c.362-.13 1.407-.11 1.905.122.46.216 1.023 1.567 1.044 2.459.005.177-.084.395-.214.63-.541.976-2.137 2.389-4.137 3.834l-.197.145c-.358.256-.586.592-.761.942a3.359 3.359 0 0 1 2.214-.845c.732 0 1.434.244 2.005.67a17.481 17.481 0 0 1 2.649-1.623 4.288 4.288 0 0 0-.115-.404c-.141-.386-.566-1.04-1.077-1.448.405-.608.77-1.294.77-1.563 0-.461-.595-2.791-1.475-3.442-.706-.522-2.305-.461-3.011-.154-.794.346-2.46 2.029-2.46 2.029l.308-.07.77-.174.552-.125zM24.152 32.98c-1.317.875-2.32 1.495-2.468 1.458-.79-.222-1.519-3.989-1.855-6.88-.04-.344-.073-.67-.102-.982-.032.165-1.74 3.18-2.468 4.667a1.031 1.031 0 0 1-.068-.099c1.063 1.85 1.697 3.781 1.881 4.401.083.28.237.495.43.657.55.46 1.431.458 2.028.08.977-.616 2.344-1.583 3.75-2.625a3.371 3.371 0 0 1-1.128-.678M8.717 27.494c.185-.707 1.659-1.352 4.917 0 1.14.473 2.103 1.467 2.893 2.602.064-.102 2.708-4.392 3.14-5.345.038-.67.137-1.439.27-2.244.078-.464.166-.935.258-1.405.196-.987.41-1.947.595-2.76.205-.908.37-1.626.419-1.966a.984.984 0 0 0 .015-.19c-.062-.492-2.52-1.998-2.766-2.09-.697.67-4.196.125-4.412-.425-.93.207-3.022.7-3.355 1.01a4.83 4.83 0 0 0-1.067 1.448c-.582 1.21-1.666 3.62-2.105 5.62-.83 3.068.303 6.154.539 6.743.026.065.045.108.045.108s.429-.399.614-1.106"/>
        <path fill="#A7A7A7" d="M19.41 12.713c.584-.215 3.32.216 3.718-.092.134-.103.312-.41.464-.799a14.824 14.824 0 0 0-.51-.122c-.143-.028-.302-1.066-.034-1.522a.628.628 0 0 1 .682-.368l.113.02a1.612 1.612 0 0 0-.223-.589c-.4-.46-1.168-.092-2.335-.922-.492-.399-.523-.676-1.506-1.137-.984-.46-4.579-1.659-7.037-.184-.676.492-.984 1.137-1.72 1.198 0 0-.048.097-.106.26a4.07 4.07 0 0 0-.242 1.343 2.935 2.935 0 0 0 .224 1.132c.215.492.939.492 1.63.891.57.294 1.79.897 1.51 1.754-.012.032-.005.063.007.095.177 2.479 3.44 2.755 4.413.425.184-.215.368-1.167.952-1.383z"/>
        <path fill="#F6F6F6" d="M17.044 11.822c1.32-.982 1.875-2.95 1.444-3.533-.43-.585-4.916-.984-6.022-.339 0 0-.553.584-.4 1.967.146 1.312.492 1.567.707 1.721.215.153 2.95 1.167 4.27.184M15.128 24.882c.075.553.979-.031 1.354-.707.376-.675.852-1.813 1.279-2.243.426-.43.752-.614 1.102-1.321.352-.707 1.204-2.796.928-3.35-.275-.553-1.253-1.444-1.454-.983 0 0-3.31 7.651-3.21 8.604"/>
        <path fill="#C7C7C7" d="M33.162 19.596c.269.2.505.44.705.716 1.198-.928 2.069-1.375 2.1-1.388l.007-.003c.03-.37-.093-.922-.155-.952a17.481 17.481 0 0 0-2.657 1.627"/>
        <path fill="#ADADAD" d="M33.62 16.727c-.492-.167-1.011.148-1.158.707-.004.013 0 .026-.003.04.138-.446.556-.697.958-.56.415.141.649.636.525 1.105-.125.47-.561.736-.975.596a.8.8 0 0 1-.437-.392.963.963 0 0 0 .555.524c.492.168 1.01-.149 1.158-.707.148-.558-.131-1.146-.623-1.313"/>
        <path fill="#5E5E5E" d="M32.967 18.615c.414.14.85-.125.975-.595.124-.47-.11-.965-.525-1.106-.402-.137-.82.115-.958.56-.004.013-.014.022-.017.035a.979.979 0 0 0 .088.715.797.797 0 0 0 .437.39"/>
        <path fill="#9B9B9B" d="M33.393 18.404c.29-.177.4-.587.243-.917-.156-.329-.518-.452-.808-.275-.29.177-.4.588-.244.917.157.33.52.452.81.275"/>
        <path fill="#C7C7C7" d="M8.143 23.989c.222 1.862 2.68 1.665 4.078 1.787 1.746.153 2.254-1.927 1.678-3.255-.553-1.274-1.782-2.341-3.268-2-1.512.252-2.662 2.004-2.488 3.468zM19.68 24.727l-.013.024c-.432.953-3.077 5.244-3.14 5.346a.07.07 0 0 1-.006.009l.004.006c.018.029.491.768.666 1.032.04.06.07.104.068.099.727-1.488 2.436-4.502 2.468-4.666l.003-.01c-.079-.65-.036-1.837-.05-1.84"/>
        <path fill="#5E5E5E" d="M23.049 10.178c.052-.088.113-.162.2-.194.066-.025.194 1.076.289 1.076.334 0 .968.282 1.584.604l1.972.305a.767.767 0 0 0 .252-1.511l-3.502-.627-.113-.021a.629.629 0 0 0-.682.368"/>
        <path fill="#5E5E5E" d="M23.966 10.727c-.096 0-.652-.768-.717-.744-.087.033-.148.107-.2.195-.27.456-.11 1.494.032 1.523.049.01.244.053.512.121.649.165 1.772.492 2.607.95 0 .038-.113.494.343.456.456-.038.305-.494.19-.608-.064-.064-.823-.544-1.611-.956-.616-.323-.476-.775-.81-.775l-.346-.162z"/>
        <path fill="#828282" d="M33.195 21.103a2.354 2.354 0 0 0-4.077 0L24.37 29.33a2.352 2.352 0 0 0 2.038 3.531h8.464a19.504 19.504 0 0 0 2.73-4.123l-4.406-7.635z"/>
        <path fill="#FFF" d="M35.76 23.546l-.696-1.206-1.002-1.736a3.208 3.208 0 0 0-.195-.291 3.356 3.356 0 0 0-2.71-1.387 3.35 3.35 0 0 0-2.213.846 3.35 3.35 0 0 0-.692.83l-4.75 8.228a3.35 3.35 0 0 0-.424 1.499 3.34 3.34 0 0 0 .425 1.855c.175.302.398.567.65.796.328.298.71.527 1.127.677.358.129.737.204 1.127.204h7.556c.318-.32.614-.66.909-1h-8.465a2.356 2.356 0 0 1-2.038-3.531l4.749-8.226a2.355 2.355 0 0 1 4.078 0l4.406 7.634c.179-.363.363-.723.52-1.1l-2.362-4.092z"/>
        <path fill="#FFF" d="M31.153 28.187h.002a.82.82 0 0 0 .82-.819l.009-4.357a.82.82 0 0 0-.819-.822h-.001a.821.821 0 0 0-.822.82l-.007 4.356a.82.82 0 0 0 .818.822M32.133 30.522a.975.975 0 1 0-1.95 0 .975.975 0 0 0 1.95 0"/>
    </g>
</svg>
