<svg xmlns="http://www.w3.org/2000/svg" xmlns:xlink="http://www.w3.org/1999/xlink" width="40" height="40" viewBox="0 0 40 40">
    <defs>
        <path id="a" d="M39.333 20c0 10.678-8.655 19.333-19.333 19.333C9.322 39.333.667 30.678.667 20 .667 9.322 9.322.667 20 .667 30.678.667 39.333 9.322 39.333 20"/>
    </defs>
    <g fill="none" fill-rule="evenodd">
        <path fill="#DCDFE2" d="M39.333 20c0 10.678-8.655 19.333-19.333 19.333C9.322 39.333.667 30.678.667 20 .667 9.322 9.322.667 20 .667 30.678.667 39.333 9.322 39.333 20"/>
        <mask id="b" fill="#fff">
            <use xlink:href="#a"/>
        </mask>
        <use fill="#141414" xlink:href="#a"/>
        <g mask="url(#b)">
            <path fill="#BBC3CD" d="M11.059 12.396c.133 2.688 3.27 4.3 7.134 4.808 3.864.507 6.645-1.135 6.982-3.807.338-2.672-4.275-5.656-8.14-6.163-3.864-.507-6.152 1.614-5.976 5.162"/>
            <path fill="#F4F4F4" d="M17.9 6.943l4.23 9.863-3.184.469-2.678-10.156zM14.551 7.53l2.564 9.294-.84-.113-2.885-8.923z"/>
            <path fill="#757A83" d="M11.666 12.36c.052 1.055.683 1.969 1.876 2.714 1.166.729 2.801 1.248 4.73 1.501 1.724.226 3.304-.001 4.45-.64.115-.065.223-.133.328-.204.302-.266 1.076-1.016 1.449-2.014a3.49 3.49 0 0 0 .073-.399c.123-.968-.714-2.199-2.238-3.291-1.558-1.118-3.568-1.927-5.378-2.164a8.507 8.507 0 0 0-.511-.052c-1.547-.108-2.797.26-3.638 1.074-.82.794-1.214 1.995-1.141 3.474m-1.002-2.145c.448-1.858 1.524-3.3 3.03-4.063 2.3-1.165 4.926-.4 6.722.447 3.425 1.597 5.27 3.483 5.485 5.604.07.687-.04 1.324-.243 1.892a4.603 4.603 0 0 1-.072.24l1.764.598c3.101 1.213 5.739 4.81 7.912 10.79h-1.284c-2.038-5.148-4.37-8.342-6.997-9.58l-1.952-.661c-.327.484-.75.913-1.259 1.27a3.607 3.607 0 0 1-.124.101l-.008-.012a5.606 5.606 0 0 1-.347.21c-1.222.683-2.757.973-4.473.853-.232-.016-.467-.04-.705-.07-4.66-.612-7.524-2.63-7.661-5.4a7.014 7.014 0 0 1 .22-2.216l-.008-.003z"/>
            <g>
                <path fill="#757A83" d="M30.342 24.3c-6.81.347-14.229-3.034-14.229-3.034s-.187-.508-.702-.702c-1.225-.46-1.956.651-1.81 1.525.184 1.092 1.784 1.291 2.142.676.065.025 5.64 2.524 13.297 3.966.056.011.49-.8 1.302-2.431z"/>
                <path fill="#505661" d="M25.665 26.533l-13.334.203s-1.649.276-1.504 3.044c.115 2.21 1.834 2.607 1.834 2.607l12.963-.16"/>
                <path fill="#757A83" d="M25.665 26.533l-.02 2.808-12.798.195s-1.187.2-1.459 1.95l-.006-.008c-.285-.389-.516-.935-.555-1.698-.145-2.768 1.504-3.044 1.504-3.044l13.334-.203z"/>
                <path fill="#505661" d="M27.7 33.623s-1.19-.057-1.61-.452c-1.328-2.089-1.048-6.508-.442-7.168.605-.66 1.58-.551 1.58-.551l.472 8.171z"/>
                <path fill="#9EA8B7" d="M72.296 24.76s1.108-2.723-7.867-3.216c-.39.274-2.1-.576-4-1.222l-.174-.12c-.762-.462-8.33-2.317-12.972-2.04-2.413.055-4.14.217-4.169.155a6.31 6.31 0 0 1-.73.527c-1.18.292-2.256.689-3.133 1.22a16.67 16.67 0 0 0-.552.395c-1.744.553-3.341.82-3.702.567-5.972.599-7.63 3.064-7.63 3.064s-1.908 6.491.731 10.721c1.34.865 5.027.963 8.73 1.283 3.721.322 5.356 4.644 6.207 7.269 1 3.364 12.467 2.24 12.52-.208.852-2.626 2.323-7.15 5.78-7.334 3.711-.198 8.541.01 10.306-1.211 1.908-3.78.655-9.85.655-9.85"/>
                <path fill="#FFCE00" d="M64.462 21.038c-4.036-.397-3.983-1.64-8.89-2.83-11.012-1.98-16.123.482-17.988 1.833-.773.56-1.679.9-2.624.994l-.022.003c-2.137.283-6.827.446-7.571 3.095 0 0 7.525-1.596 10.763-2.207 4.829-3.608 18.56-1.984 21.4-.438.395.33 12.503 2.645 12.503 2.645-.744-2.649-5.434-2.812-7.57-3.095"/>
            </g>
        </g>
    </g>
</svg>
