<svg xmlns="http://www.w3.org/2000/svg" xmlns:xlink="http://www.w3.org/1999/xlink" width="312" height="176" viewBox="0 0 312 176">
    <defs>
        <rect id="a" width="312" height="176" rx="12"/>
    </defs>
    <g fill="none" fill-rule="evenodd">
        <mask id="b" fill="#fff">
            <use xlink:href="#a"/>
        </mask>
        <use fill="#F21942" xlink:href="#a"/>
        <g mask="url(#b)">
            <g transform="translate(-4 -47)">
                <rect width="187" height="187" x="110" y="42" fill="#F21942" rx="5.2"/>
                <path fill="#1C1C2D" d="M64.204 69.352l-41.827 97.1s-10.859 46.04 29.01 49.319c37.298 3.068 161.87 10 172.814 10.288 27.992.74 43.795-10.254 56.984-45.924 1.97-6.17 20.906-93.68 22.72-104.443 1.226-7.276 2.036-30.764-18.335-39.111-20.371-8.347-155.187 3.151-155.187 3.151s-51.367-6.47-66.179 29.62"/>
                <path fill="#3B4056" d="M64.82 56.935L23.518 157.768s-13.55 39.004 26.318 42.283c37.298 3.067 154.719 1.007 165.662 1.296 27.992.739 43.133-7.123 56.322-42.792 1.97-6.171 26.184-83.852 27.565-88.755 1.338-4.75 3.262-27.223-17.108-35.57-20.37-8.347-159.604-7.38-159.604-7.38S79.632 20.846 64.82 56.936"/>
                <path fill="#07071C" d="M114.347 82.214l-33.024-1.259c-2.311-.1-3.365-.625-2.464-2.805l6.4-16.309a2.917 2.917 0 0 1 2.748-1.824l30.187-1.071c2.536.051 5.984.614 5.265 3.31l-6.296 18.132c-.474 1.153-1.596 1.88-2.816 1.826"/>
                <path fill="#7E838C" d="M110.368 78.275l-27.287-1.123c-2.738-.565-3.698-4.21-2.443-8.308l5.835-7.897a2.809 2.809 0 0 1 2.647-1.756l25.58-2.139c4.235.502 5.892 3.112 4.814 6.94l-4.66 11.448c-.78 1.854-2.889 3.016-4.486 2.835"/>
                <path fill="#07071C" d="M172.872 185.009l-44.739-2.043c-3.31-.184-4.824-1.01-3.558-4.39l7.326-20.818c.655-1.748 2.203-2.858 3.915-2.806l40.417.158c3.63.11 10.694.165 9.31 3.874l-8.66 23.217c-.666 1.786-2.263 2.905-4.011 2.808"/>
                <path fill="#F21942" d="M169.75 179.323l-38.166-1.37c-4.734.014-8.777-4.11-5.997-12.075l7.863-9.795c.637-1.656 2.136-2.71 3.792-2.664l36.623-4.789c4.15.333 8.182 6.412 5.992 12.6l-6.221 15.426c-.648 1.694-2.196 2.755-3.886 2.667"/>
                <path fill="#3B4056" d="M110.307 73.207l-26.53-.753c-3.056-.443-3.678-2.448-2.81-4.547l3.656-8.737c.45-1.085 1.821-2.596 4.673-2.528l24.555.288c2.44.05 4.102 2.01 3.121 4.921l-3.953 9.598a2.807 2.807 0 0 1-2.712 1.758"/>
                <path fill="#07071C" d="M155.812 84.563l-33.024-1.26c-2.311-.1-3.365-.624-2.464-2.805l6.556-16.322c.466-1.128 1.553-1.85 2.749-1.825l30.187-1.071c2.536.052 5.983.614 5.264 3.31l-6.452 18.147c-.474 1.152-1.596 1.879-2.816 1.826"/>
                <path fill="#7E838C" d="M151.862 80.945l-27.287-1.122c-2.738-.566-3.57-4.547-2.316-8.644l5.836-7.898a2.809 2.809 0 0 1 2.646-1.756l25.581-2.139c4.235.503 5.892 3.112 4.814 6.94l-4.787 11.784c-.782 1.854-2.89 3.017-4.487 2.835"/>
                <path fill="#3B4056" d="M151.929 75.541l-26.53-.752c-3.056-.444-3.678-2.449-2.81-4.548l3.656-8.737c.449-1.085 1.821-2.596 4.672-2.527l24.555.287c2.442.05 4.103 2.01 3.122 4.921l-3.954 9.599c-.457 1.109-1.536 1.809-2.711 1.757"/>
                <path fill="#07071C" d="M199.422 86.169L166.4 84.91c-2.312-.101-3.366-.625-2.464-2.805l6.556-16.323a2.918 2.918 0 0 1 2.749-1.824l30.187-1.072c2.536.052 5.983.615 5.264 3.31l-6.452 18.147c-.474 1.152-1.596 1.88-2.817 1.826"/>
                <path fill="#7E838C" d="M195.644 82.698l-27.287-1.122c-2.738-.566-4.018-4.245-2.487-8.79l5.836-7.899a2.809 2.809 0 0 1 2.646-1.756l25.58-2.138c4.235.502 5.893 3.111 4.815 6.939l-4.616 11.931c-.782 1.854-2.89 3.017-4.487 2.835"/>
                <path fill="#3B4056" d="M195.54 77.148l-26.53-.753c-3.056-.444-3.678-2.449-2.81-4.547l3.656-8.737c.449-1.086 1.821-2.597 4.672-2.528l24.555.287c2.441.05 4.103 2.01 3.122 4.922l-3.954 9.598c-.457 1.11-1.536 1.809-2.711 1.758"/>
                <path fill="#07071C" d="M104.1 111.34l-33.536-1.277c-2.347-.103-3.417-.635-2.502-2.849l6.498-16.562c.474-1.144 1.578-1.877 2.792-1.852l30.656-1.089c2.575.053 6.075.625 5.346 3.362l-6.394 18.414c-.481 1.17-1.62 1.908-2.86 1.854"/>
                <path fill="#7E838C" d="M100.06 107.34l-27.71-1.14c-2.781-.574-3.756-4.275-2.482-8.436l5.926-8.02a2.852 2.852 0 0 1 2.688-1.784l25.977-2.172c4.3.51 5.984 3.16 4.889 7.047l-4.732 11.626c-.794 1.884-2.935 3.064-4.556 2.88"/>
                <path fill="#3B4056" d="M99.998 102.194l-26.942-.764c-3.103-.45-3.735-2.486-2.854-4.618l3.714-8.873c.455-1.102 1.849-2.637 4.744-2.566l24.936.291c2.48.051 4.166 2.042 3.17 4.998l-4.015 9.747c-.463 1.126-1.56 1.837-2.753 1.785"/>
                <path fill="#07071C" d="M146.208 113.726l-33.536-1.278c-2.347-.103-3.417-.635-2.502-2.85l6.658-16.575c.473-1.145 1.577-1.878 2.791-1.853l30.656-1.088c2.575.053 6.076.624 5.346 3.361l-6.553 18.428c-.481 1.17-1.62 1.909-2.86 1.855"/>
                <path fill="#7E838C" d="M142.197 110.052l-27.71-1.14c-2.78-.574-3.626-4.617-2.352-8.778l5.927-8.02a2.852 2.852 0 0 1 2.687-1.783l25.977-2.172c4.3.51 5.984 3.16 4.889 7.047l-4.862 11.967c-.793 1.883-2.934 3.064-4.556 2.88"/>
                <path fill="#3B4056" d="M142.265 104.565l-26.942-.765c-3.102-.45-3.734-2.486-2.853-4.617l3.713-8.873c.456-1.102 1.85-2.637 4.745-2.567l24.935.292c2.48.05 4.167 2.041 3.17 4.997l-4.014 9.748c-.464 1.126-1.56 1.837-2.754 1.785"/>
                <path fill="#07071C" d="M190.495 115.357l-33.536-1.278c-2.346-.103-3.417-.635-2.502-2.849l6.658-16.576c.473-1.145 1.578-1.878 2.791-1.853l30.656-1.088c2.575.053 6.076.624 5.346 3.361l-6.552 18.429c-.482 1.17-1.621 1.908-2.86 1.854"/>
                <path fill="#7E838C" d="M186.659 111.833l-27.711-1.14c-2.78-.575-4.08-4.311-2.525-8.928l5.926-8.02a2.852 2.852 0 0 1 2.687-1.783l25.978-2.172c4.3.51 5.983 3.16 4.888 7.047l-4.687 12.116c-.794 1.883-2.935 3.064-4.556 2.88"/>
                <path fill="#3B4056" d="M186.552 106.196l-26.941-.764c-3.103-.451-3.735-2.487-2.854-4.618l3.713-8.873c.456-1.102 1.85-2.637 4.745-2.567l24.936.292c2.48.051 4.166 2.042 3.17 4.998l-4.015 9.747c-.464 1.126-1.56 1.837-2.754 1.785"/>
                <path fill="#07071C" d="M92.142 141.365L58.13 140.07c-2.38-.104-3.466-.644-2.538-2.89l6.59-16.796c.481-1.161 1.6-1.905 2.832-1.88l31.09-1.103c2.613.054 6.163.633 5.423 3.41l-6.484 18.675c-.489 1.187-1.644 1.935-2.9 1.88"/>
                <path fill="#7E838C" d="M88.044 137.308l-28.104-1.156c-2.82-.583-3.809-4.337-2.517-8.557l6.011-8.134a2.893 2.893 0 0 1 2.726-1.809l26.346-2.202c4.361.517 6.068 3.205 4.958 7.147l-4.799 11.791c-.805 1.91-2.976 3.107-4.62 2.92"/>
                <path fill="#3B4056" d="M87.981 132.089l-27.324-.776c-3.147-.457-3.788-2.521-2.894-4.683l3.766-8.998c.462-1.118 1.875-2.675 4.812-2.604l25.29.296c2.514.052 4.225 2.07 3.215 5.069l-4.072 9.885c-.47 1.143-1.582 1.864-2.793 1.81"/>
                <path fill="#07071C" d="M134.848 143.784l-34.012-1.297c-2.38-.104-3.466-.643-2.538-2.889l6.752-16.811c.48-1.161 1.6-1.904 2.832-1.879l31.09-1.104c2.612.054 6.162.633 5.422 3.41l-6.645 18.69c-.489 1.186-1.644 1.935-2.9 1.88"/>
                <path fill="#7E838C" d="M130.78 140.058l-28.104-1.156c-2.82-.583-3.677-4.682-2.385-8.903l6.01-8.134a2.892 2.892 0 0 1 2.726-1.808l26.347-2.203c4.361.518 6.068 3.205 4.958 7.147l-4.931 12.137c-.805 1.91-2.976 3.107-4.62 2.92"/>
                <path fill="#3B4056" d="M130.849 134.493l-27.324-.775c-3.147-.458-3.788-2.522-2.895-4.684l3.766-8.998c.463-1.118 1.876-2.675 4.813-2.604l25.29.296c2.514.052 4.225 2.07 3.215 5.069l-4.072 9.885c-.47 1.143-1.583 1.864-2.793 1.81"/>
                <path fill="#07071C" d="M78.771 171.925l-34.012-1.296c-2.38-.104-3.466-.644-2.538-2.889l6.59-16.797c.48-1.161 1.6-1.904 2.832-1.879l31.09-1.104c2.613.054 6.163.633 5.423 3.41l-6.484 18.675c-.489 1.187-1.644 1.935-2.901 1.88"/>
                <path fill="#7E838C" d="M74.673 167.868l-28.104-1.156c-2.82-.582-3.809-4.337-2.517-8.556l6.011-8.134a2.892 2.892 0 0 1 2.726-1.81l26.346-2.202c4.361.517 6.068 3.205 4.958 7.147l-4.799 11.791c-.805 1.91-2.976 3.107-4.62 2.92"/>
                <path fill="#3B4056" d="M74.61 162.649l-27.324-.775c-3.147-.458-3.788-2.522-2.894-4.684l3.766-8.998c.462-1.118 1.875-2.675 4.812-2.604l25.29.296c2.514.052 4.225 2.07 3.215 5.069l-4.072 9.886c-.47 1.142-1.583 1.863-2.793 1.81"/>
                <path fill="#07071C" d="M121.477 174.344l-34.012-1.296c-2.38-.104-3.466-.644-2.538-2.89l6.752-16.811c.48-1.161 1.6-1.904 2.832-1.879l31.09-1.104c2.612.054 6.162.634 5.422 3.41l-6.645 18.69c-.489 1.186-1.644 1.935-2.901 1.88"/>
                <path fill="#7E838C" d="M117.41 170.619l-28.105-1.157c-2.82-.582-3.677-4.682-2.385-8.902l6.01-8.135a2.893 2.893 0 0 1 2.726-1.808l26.346-2.203c4.362.518 6.069 3.205 4.959 7.147l-4.931 12.137c-.805 1.91-2.976 3.107-4.62 2.92"/>
                <path fill="#3B4056" d="M117.478 165.053l-27.324-.775c-3.147-.457-3.788-2.522-2.894-4.684l3.766-8.998c.462-1.118 1.875-2.674 4.812-2.604l25.29.296c2.514.052 4.225 2.071 3.215 5.069l-4.072 9.886c-.47 1.142-1.583 1.863-2.793 1.81"/>
                <path fill="#07071C" d="M179.764 145.438l-34.012-1.296c-2.38-.104-3.466-.644-2.538-2.89l6.753-16.81c.48-1.162 1.6-1.905 2.83-1.88l31.092-1.103c2.612.053 6.162.633 5.422 3.409l-6.646 18.69c-.489 1.186-1.644 1.935-2.9 1.88"/>
                <path fill="#7E838C" d="M175.873 141.864l-28.104-1.156c-2.82-.583-4.138-4.373-2.562-9.054l6.01-8.134a2.892 2.892 0 0 1 2.727-1.809l26.346-2.203c4.361.518 6.068 3.205 4.958 7.147l-4.754 12.289c-.805 1.91-2.976 3.107-4.621 2.92"/>
                <path fill="#3B4056" d="M175.765 136.147l-27.324-.775c-3.147-.457-3.788-2.522-2.894-4.683l3.766-9c.462-1.117 1.875-2.673 4.812-2.602l25.29.296c2.514.051 4.225 2.07 3.215 5.068l-4.072 9.886c-.47 1.142-1.583 1.863-2.793 1.81"/>
                <path fill="#06FF6B" d="M168.006 172.646l-37.191-1.136c-3.191-.167-6.148-3.994-4.921-7.188l5.927-14.842c.635-1.651 2.13-2.701 3.78-2.656l37.352 1.03c3.5.096 5.857 4.025 4.516 7.53l-5.59 14.604c-.645 1.688-2.188 2.746-3.873 2.658"/>
                <path fill="#07071C" d="M161.597 161.784l-2.976-.462 1.36-2.943 3.085.399-1.47 3.006zm8.708-1.797l1.26-3.072-3.916-.607 2.15-4.08-3.558-.504-2.215 4.022-2.622-.406 2.167-4.115-3.558-.504-2.233 4.057-3.73-.578-1.53 3.486 3.846.497-1.655 2.875-3.706-.574-1.53 3.485 3.822.495-1.55 3.173 4.002.507 1.467-3.174 2.4.311-1.641 3.36 4.002.506 1.554-3.36 3.729.483 1.26-3.072-3.785-.587 1.709-3.124 3.86.5zM280.19 96.325l-67.522-1.668c-4.454-.73-7.454-5.946-6.212-12.86l5.795-9.367c.613-1.785 2.551-4.272 6.695-4.158l66.059-6.585c4.483 1.979 7.079 8.575 5.771 11.972l-6.711 19.774c-.624 1.825-2.167 2.976-3.875 2.892M243.225 150.415l-44.024-1.313c-2.901-.49-4.84-3.902-4.008-8.406l3.81-6.089c.406-1.162 1.678-2.777 4.38-2.689l43.097-4.072c2.917 1.305 4.587 5.615 3.723 7.825l-4.442 12.872c-.412 1.187-1.422 1.933-2.536 1.872M234.27 182.824l-45.319-1.352c-2.987-.506-4.983-4.017-4.125-8.653l3.922-6.269c.417-1.196 1.727-2.858 4.508-2.768l44.364-4.192c3.003 1.343 4.723 5.78 3.834 8.056l-4.574 13.25c-.424 1.223-1.464 1.99-2.61 1.928"/>
                <path fill="#7E838C" d="M240.931 146.073l-43.098-1.23c-2.841-.473-4.736-3.778-3.916-8.144l3.736-5.905c.397-1.126 1.645-2.692 4.29-2.61l42.197-3.988c2.854 1.262 4.486 5.437 3.638 7.58l-4.362 12.48c-.405 1.151-1.394 1.875-2.485 1.817"/>
                <path fill="#3B4056" d="M239.773 140.525l-43.1-1.23c-2.84-.473-3.45-2.56-2.68-4.739l3.245-9.07c.398-1.127 1.645-2.693 4.29-2.61l41.26.739c2.264.06 3.837 2.105 2.976 5.128l-3.506 9.965c-.405 1.152-1.395 1.875-2.485 1.817"/>
                <path fill="#F21942" d="M277.34 89.621l-64.81-1.517c-4.275-.69-7.533-6.202-6.334-12.773l5.956-8.348c.59-1.697 2.453-4.061 6.43-3.958l63.414-6.322c4.302 1.875 6.787 8.141 5.528 11.37l-6.462 18.796c-.6 1.735-2.082 2.83-3.722 2.752"/>
                <path fill="#FFF" d="M275.556 81.289l-64.81-1.517c-4.275-.69-5.208-3.822-4.068-7.104l4.81-13.664c.59-1.697 2.453-4.061 6.43-3.957l62.041.792c3.406.075 5.786 3.137 4.514 7.689l-5.195 15.01c-.6 1.734-2.083 2.83-3.722 2.75"/>
                <path fill="#07071C" d="M253.322 120.26l-45.586-1.36c-3.005-.509-5.012-4.041-4.15-8.705l3.945-6.305c.42-1.204 1.738-2.876 4.535-2.785l44.627-4.216c3.02 1.35 4.75 5.814 3.856 8.103l-4.6 13.328c-.428 1.23-1.473 2.002-2.627 1.94"/>
                <path fill="#7E838C" d="M250.762 116.843l-43.492-1.241c-2.867-.478-4.779-3.812-3.952-8.218l3.77-5.959c.402-1.136 1.66-2.717 4.33-2.634l42.581-4.024c2.88 1.273 4.527 5.487 3.671 7.65l-4.4 12.592c-.41 1.162-1.408 1.893-2.508 1.834"/>
                <path fill="#3B4056" d="M249.627 111.691l-43.491-1.241c-2.867-.477-3.482-2.583-2.706-4.782l3.275-9.153c.401-1.137 1.66-2.718 4.329-2.635l41.636.746c2.285.062 3.872 2.125 3.003 5.176l-3.538 10.055c-.409 1.163-1.407 1.893-2.508 1.834"/>
                <path fill="#7E838C" d="M231.465 177.618l-44.79-1.278c-2.95-.492-4.92-3.925-4.068-8.463l3.882-6.136c.414-1.171 1.71-2.799 4.458-2.713l43.853-4.145c2.966 1.312 4.662 5.651 3.78 7.878l-4.532 12.969c-.421 1.196-1.45 1.949-2.583 1.888"/>
                <path fill="#3B4056" d="M230.262 171.853l-44.79-1.278c-2.952-.492-3.586-2.66-2.786-4.925l3.372-9.426c.414-1.171 1.71-2.799 4.458-2.713l42.879.768c2.353.064 3.987 2.188 3.092 5.33l-3.643 10.356c-.421 1.196-1.45 1.948-2.582 1.888"/>
                <path fill="#FF8585" d="M98.139 220.737s-.57-12.266.262-22.095c.412-6.976 4.194-12.157 7.365-10.275.618-.757 2.07-3.113 5.048-4.16 2.766-.974 4.693 1.577 4.693 1.577s2.541-3.518 5.632-3.167c3.658.414 4.093 3.488 4.093 3.488s4.448-10.48 8.036-19.942c3.648-9.62 8.57-4.552 7.39 3.014-1.553 9.95-5.975 25.178-5.975 25.178s4.627-1.634 5.405 4.647c.427 3.451 2.544 11.774-1.796 17.168-4.704 5.848-17.323 10.303-18.945 14.415-16.396 41.571-32.324 23.923-36.347 22.56-4.023-1.361 15.139-32.408 15.139-32.408"/>
                <path fill="#C63647" d="M134.78 193.812s-.966 12.8-2.64 12.201c-1.674-.598-.108-2.985 2.64-12.201"/>
                <path stroke="#C63647" stroke-linecap="round" stroke-linejoin="round" stroke-width="1.538" d="M134.78 193.812s-.966 12.8-2.64 12.201c-1.674-.598-.108-2.985 2.64-12.201z"/>
                <path fill="#F6F6F6" d="M134.378 168.267c.854.179 1.838.66 3.073.833.553.078 1.013-2.198.994-3.713-.031-2.533-2.163-2.225-2.665-1.254-.654 1.264-1.99 4.011-1.402 4.134"/>
                <path fill="#07071C" d="M213.848 60.999l-2.74 11.718c-.07.3.148.592.456.608l7.123.369a.493.493 0 0 0 .505-.381l.325-1.399a.495.495 0 0 0-.442-.606l-4.524-.363a.495.495 0 0 1-.44-.61l.54-2.274a.493.493 0 0 1 .518-.378l3.964.31a.493.493 0 0 0 .515-.372l.314-1.243a.495.495 0 0 0-.44-.616l-3.639-.284a.495.495 0 0 1-.442-.607l.434-1.844a.493.493 0 0 1 .502-.38l4.165.185c.213.01.408-.12.483-.32l.359-.962a.495.495 0 0 0-.443-.668l-6.594-.264a.492.492 0 0 0-.5.38M223.568 61.582l-3.017 11.613a.495.495 0 0 0 .436.619l1.75.148a.493.493 0 0 0 .522-.387l1.111-5.042c.111-.501.816-.522.956-.028l1.52 5.337c.055.191.217.331.414.356l1.426.179c.25.031.482-.13.54-.376l2.848-11.974a.496.496 0 0 0-.462-.61l-1.598-.06a.493.493 0 0 0-.5.384l-1.009 4.497c-.112.5-.815.52-.955.027l-1.319-4.617a.495.495 0 0 0-.453-.36l-1.712-.075a.493.493 0 0 0-.498.369M247.054 62.494l-.321 1.381c-.07.3.147.59.453.607l2.167.124a.495.495 0 0 1 .453.606l-2.141 9.317a.496.496 0 0 0 .465.606l1.739.056c.24.008.45-.158.498-.393l1.963-9.5a.493.493 0 0 1 .496-.393l2.082.056a.492.492 0 0 0 .493-.382l.325-1.396a.495.495 0 0 0-.452-.607l-7.711-.463a.493.493 0 0 0-.51.38M266.763 63.533l-2.17 11.81a.496.496 0 0 0 .436.583l1.578.163a.493.493 0 0 0 .534-.403l2.17-11.81a.495.495 0 0 0-.435-.583l-1.578-.162a.493.493 0 0 0-.535.402M277.23 67.335c-.132 1.676-2.398 1.41-3.39 1.211a.496.496 0 0 1-.394-.558l.31-2.13a.493.493 0 0 1 .49-.424c.947.003 3.119.193 2.984 1.901m-5.937-3.721l-1.981 12.135a.495.495 0 0 0 .458.575l1.487.09a.493.493 0 0 0 .514-.404l.868-4.705a.494.494 0 0 1 .593-.392c1.56.34 6.26.956 6.43-3.92.165-4.709-6.352-4.027-7.957-3.788a.492.492 0 0 0-.412.409M262.636 66.322c-.262 1.383-2.692 1.156-3.765.986a.495.495 0 0 1-.407-.587l.355-1.78a.492.492 0 0 1 .467-.398c.664-.02 2.015.006 2.792.5.417.22.674.536.583.996 0 .089-.006.182-.025.283m-5.694-3.335l-2.89 11.8c-.074.304.147.6.458.614l1.466.065c.232.01.44-.143.498-.368l1.163-4.449a.487.487 0 0 1 .494-.37c.513.03 1.392.307 1.89 1.747l.89 3.304c.06.229.276.382.512.365l1.695-.124a.494.494 0 0 0 .432-.648l-1.472-4.479a.49.49 0 0 1 .364-.638c.926-.184 2.658-.999 2.43-4.518-.23-3.569-6.079-2.894-7.53-2.671a.49.49 0 0 0-.4.37M238.906 67.914c-.516 3.464-2.942 3.783-4.068 3.739a.494.494 0 0 1-.458-.601l1.316-6.029a.49.49 0 0 1 .469-.389c.933-.017 3.192.249 2.74 3.28m-5.168-5.95l-2.758 12.153a.494.494 0 0 0 .378.594c1.786.377 7.956 1.213 9.577-4.77 1.99-7.346-2.425-8.727-6.76-8.362a.494.494 0 0 0-.437.385"/>
            </g>
        </g>
    </g>
</svg>
