<svg xmlns="http://www.w3.org/2000/svg" width="40" height="40" viewBox="0 0 40 40">
    <g fill="none" fill-rule="evenodd">
        <path fill="#303D51" d="M11.026 8.541l-3.384.402a.77.77 0 0 0 .164 1.53l1.993-.19c.344-.155.683-.29.984-.384a4.142 4.142 0 0 1 .243-1.358"/>
        <path fill="#303D51" d="M10.216 9.408c-.148.059-.265.807-.418.875-.813.366-1.602.802-1.67.863-.12.107-.3.556.155.621.456.065.368-.399.371-.437.689-.327 1.556-.558 2.216-.703a2.916 2.916 0 0 1-.088-.729c-.167.053-.38-.565-.566-.49z"/>
        <path fill="#64719E" d="M35.417 22.565l.703 1.218 1.262.125a.108.108 0 0 0 .103-.164l-1.392-2.269c-.041.113-.076.229-.13.338-.14.18-.328.442-.546.752"/>
        <path fill="#1E2A3A" d="M19.265 35.904c-.186-.626-.827-2.577-1.9-4.445-.177-.267-.654-1.014-.673-1.043a11.6 11.6 0 0 1-.407 1.298c-.183.491-.781.994-1.638 1.479l-.364 1.312c.084.317.153.656.205 1.014 1.575.323 4.156.848 5.211 1.049a1.353 1.353 0 0 1-.434-.664"/>
        <path fill="#303D51" d="M9.24 35.221a6.55 6.55 0 0 1-1.518.235c.544.456 1.114.88 1.706 1.274 1.384.271 1.937-.437 1.263-1.928-.476.147-.961.289-1.452.419zM12.454 34.389l.06-.217c-.1.038-.198.077-.3.114.09.02.162.067.24.103M13.59 37.001c-.208.792-.378 1.523.03 1.65.013.005-.008.117-.011.173.317.115.63.24.955.34.047-.415.076-.823.076-1.211 0-.874-.045-1.693-.151-2.434a9.175 9.175 0 0 0-.205-1.014l-.693 2.496z"/>
        <path fill="#1E2A3A" d="M12.215 34.286c-.486.18-.998.352-1.525.516-.487.444-.917 1.127-1.262 1.927.654.437 1.343.822 2.05 1.178l.976-3.518c-.079-.036-.15-.084-.24-.103l-2.786 1.636M13.59 37.001l-.457 1.65c.157.061.316.116.476.173.003-.056.009-.116.011-.172.021-.588.01-1.14-.03-1.65"/>
        <path fill="#64719E" d="M14.283 34.505l.364-1.312c-.6.339-1.327.668-2.132.978l-.061.218-.976 3.518c.539.272 1.09.52 1.655.744L13.59 37l.693-2.496z"/>
        <path fill="#515E75" d="M21.982 29.758c-.403-.558-.279-1.49 0-2.67.063-.268.021-.613-.076-.981l-1.877 1.73c.34 2.92 1.076 6.725 1.874 6.95.148.037 1.162-.59 2.493-1.474a3.38 3.38 0 0 1-.656-.804 3.374 3.374 0 0 1-.43-1.874c-.756-.235-1.158-.642-1.328-.877"/>
        <path fill="#FFC000" d="M30.004 19.019l.199-.146c-1.398.798-3.14 1.66-4.886 2.226-1.757.578-3.924.363-4.918.216-.094.475-.182.95-.26 1.42.102.183.239.372.43.567 0 0 1.006 1.553 1.337 2.805.098.369.14.713.077.982-.28 1.18-.404 2.11 0 2.67.17.234.571.64 1.328.876a3.354 3.354 0 0 1 .43-1.514l4.796-8.31c.186-.321.426-.6.698-.84.177-.354.407-.693.769-.952M12.215 34.286l.3-.114a16.33 16.33 0 0 0 2.132-.98c.858-.484 1.455-.987 1.638-1.478.155-.417.3-.856.407-1.298l-.004-.006s.006-.008.006-.01c.739-1.511-.052-2.334-1.204-2.812-3.29-1.367-7.097-1.643-7.282-.928-.187.713-.023 2.229-.023 2.229s-.02-.043-.046-.11c-.972 1.584-2.282 3.747-2.65 4.474.688.79 1.429 1.533 2.233 2.203a6.55 6.55 0 0 0 1.517-.235c.491-.13.976-.272 1.452-.42a29.87 29.87 0 0 0 1.524-.515z"/>
        <path fill="#515E75" d="M25.317 21.098c1.746-.565 3.488-1.428 4.886-2.226 2.02-1.458 3.633-2.887 4.179-3.872.014-.47-.333-1.134-.778-1.661 0 .31-2.886 2.887-5.09 3.694C22.74 19.056 21.32 18.86 21 18.527c-.187.822-.404 1.792-.6 2.789.992.146 3.16.36 4.917-.218"/>
        <path fill="#303D51" d="M28.514 17.032c2.204-.807 5.09-3.384 5.09-3.694-.496-.59-1.614-.67-2.7-.62-.294.013-.67.073-1.084.157l-.78.177c-1.345.336-2.93.86-4.034 1.28-1.705.65-2.994 1.684-3.584 2.21-.048.343-.215 1.068-.422 1.984.32.335 1.74.53 7.514-1.494"/>
        <path fill="#FFC000" d="M34.209 20.517c.069.095.137.191.196.294l1.012 1.754c.217-.31.407-.572.547-.753.053-.108.087-.224.129-.337.28-.77.308-1.633.237-2.36-.031.013-.91.464-2.121 1.402M34.589 18.223c-.149.564-.673.883-1.17.714a.976.976 0 0 1-.56-.53.989.989 0 0 1-.09-.721c.004-.014.014-.023.018-.036.003-.014-.001-.027.003-.04.148-.564.673-.883 1.17-.713.496.168.778.762.629 1.326zm-4.212-5.474s.714-.807 1.242-.993c.366-.13 1.421-.11 1.924.123.466.219 1.034 1.583 1.055 2.484.005.18-.085.4-.216.638-.547.985-2.159 2.412-4.18 3.871l-.198.147c-.362.258-.592.598-.769.951a3.393 3.393 0 0 1 2.237-.853c.739 0 1.448.246 2.025.677.8-.595 1.69-1.15 2.676-1.64a4.331 4.331 0 0 0-.117-.408c-.142-.39-.571-1.05-1.087-1.462.409-.615.777-1.308.777-1.58 0-.465-.6-2.818-1.49-3.476-.713-.527-2.328-.466-3.04-.156-.803.35-2.485 2.05-2.485 2.05l.31-.07.78-.177.556-.126zM24.396 33.312c-1.33.885-2.344 1.511-2.493 1.474-.798-.224-1.534-4.03-1.874-6.95-.04-.347-.073-.677-.103-.991-.032.166-1.758 3.21-2.493 4.714a1.041 1.041 0 0 1-.068-.1c1.073 1.868 1.714 3.819 1.9 4.445.084.283.24.5.434.664.555.464 1.446.463 2.049.08.986-.622 2.367-1.598 3.786-2.65a3.395 3.395 0 0 1-1.138-.686M17.158 14.55l-.201-.005a8.214 8.214 0 0 1-.206-.01l.206.01.201.006zm.74-.039c.111-.015.215-.035.31-.06l-.149.034zm.788-.254c.41.2 2.692 1.616 2.752 2.093a.994.994 0 0 1-.015.192c-.05.343-.216 1.068-.423 1.984-.186.823-.403 1.792-.601 2.79-.093.474-.182.95-.26 1.419-.135.813-.235 1.59-.273 2.266-.437.963-3.108 5.296-3.172 5.4-.798-1.147-1.77-2.151-2.923-2.63-3.29-1.365-4.78-.713-4.966 0-.187.715-.62 1.118-.62 1.118l-.013-.03-.033-.079c-.238-.595-1.383-3.712-.544-6.812.443-2.02 1.538-4.454 2.126-5.676a4.88 4.88 0 0 1 1.078-1.464c.336-.313 2.45-.81 3.388-1.019l-.01-.032a.113.113 0 0 1 .002-.063c.283-.866-.998-1.37-1.525-1.772-.653-.466-1.429-.403-1.646-.9a2.964 2.964 0 0 1-.226-1.143 4.111 4.111 0 0 1 .244-1.358c.06-.164.107-.262.107-.262.744-.061 1.055-.713 1.738-1.21 2.483-1.49 6.114-.28 7.108.186.993.466 1.024.745 1.521 1.148 1.179.839 1.955.466 2.359.932.117.173.182.38.225.595l-.114-.02a.635.635 0 0 0-.689.371c-.27.46-.11 1.51.033 1.538.049.01.247.054.517.123-.154.393-.334.703-.47.807-.402.311-3.165-.124-3.755.093-.59.218-.775 1.18-.961 1.397zm-1.528.293h.196a5.6 5.6 0 0 0 .19-.006l-.19.006h-.196z"/>
        <path fill="#F9F8E5" d="M17.216 11.942c1.334-.993 1.894-2.98 1.458-3.57-.433-.59-4.965-.993-6.082-.341 0 0-.559.59-.404 1.987.147 1.325.497 1.583.714 1.738.217.155 2.98 1.179 4.314.186M15.28 25.133c.076.559.99-.031 1.368-.714.38-.682.86-1.831 1.292-2.265.43-.435.76-.62 1.113-1.335.356-.714 1.216-2.824.938-3.384-.278-.558-1.266-1.458-1.47-.993 0 0-3.342 7.729-3.24 8.691"/>
        <path fill="#FF4C5A" d="M33.497 19.794c.271.202.51.445.712.723 1.21-.937 2.09-1.389 2.121-1.402l.007-.003c.03-.373-.094-.931-.156-.962a17.658 17.658 0 0 0-2.684 1.643"/>
        <path fill="#EDA420" d="M33.96 16.896c-.498-.168-1.022.15-1.17.714-.004.014 0 .027-.003.04.14-.45.561-.703.967-.565.42.143.656.643.53 1.116-.126.475-.566.744-.984.602a.807.807 0 0 1-.442-.396.973.973 0 0 0 .561.53c.497.17 1.021-.15 1.17-.714.15-.564-.133-1.158-.63-1.327"/>
        <path fill="#566782" d="M33.3 18.803c.418.142.858-.127.985-.601.125-.475-.111-.975-.53-1.118-.407-.138-.829.117-.968.566-.004.013-.014.022-.017.035a.989.989 0 0 0 .088.723c.098.18.247.329.442.395"/>
        <path fill="#15D48F" d="M33.73 18.59c.294-.178.404-.593.246-.926-.158-.332-.523-.456-.816-.278-.294.18-.404.594-.247.927.159.332.525.456.818.277"/>
        <path fill="#FF4C5A" d="M8.225 24.231c.224 1.88 2.707 1.682 4.12 1.805 1.763.155 2.276-1.946 1.694-3.288-.558-1.287-1.8-2.364-3.3-2.02-1.528.255-2.69 2.024-2.514 3.503zM19.878 24.977l-.012.024c-.436.962-3.108 5.297-3.172 5.4a.07.07 0 0 1-.006.009l.004.006c.019.03.496.776.673 1.042.04.062.07.105.069.1.734-1.503 2.46-4.547 2.493-4.713l.003-.01c-.08-.656-.037-1.855-.052-1.858"/>
        <path fill="#303D51" d="M23.281 10.28c.053-.088.115-.163.202-.195.067-.026.196 1.087.292 1.087.338 0 .978.284 1.6.61l1.992.308a.775.775 0 0 0 .255-1.526l-3.538-.634-.114-.021a.635.635 0 0 0-.689.372"/>
        <path fill="#303D51" d="M24.703 10.45c-.097 0-1.154-.39-1.22-.366-.087.033-.149.108-.201.197-.272.46-.111 1.51.032 1.538.05.01.246.054.517.123.656.166 1.79.497 2.633.96 0 .038-.114.498.347.46.46-.038.308-.5.192-.614-.065-.065-.831-.55-1.627-.966-.623-.326.337-.947 0-.947l-.673-.385z"/>
        <path fill="#FC223C" d="M33.53 21.316a2.378 2.378 0 0 0-4.118 0l-4.797 8.31a2.375 2.375 0 0 0 2.059 3.567h8.55a19.701 19.701 0 0 0 2.757-4.165l-4.45-7.712z"/>
        <path fill="#FFF" d="M36.12 23.783l-.702-1.218-1.012-1.753a3.24 3.24 0 0 0-.197-.294 3.39 3.39 0 0 0-2.737-1.401c-.835 0-1.626.316-2.236.854a3.37 3.37 0 0 0-.7.84l-4.796 8.31c-.27.468-.401.99-.43 1.514a3.374 3.374 0 0 0 .43 1.874c.177.305.402.572.656.804.33.3.718.532 1.139.684.361.13.744.206 1.138.206h7.633c.32-.323.62-.666.918-1.01h-8.55a2.38 2.38 0 0 1-2.06-3.567l4.798-8.31a2.379 2.379 0 0 1 4.119 0l4.45 7.712c.181-.367.367-.73.526-1.11l-2.386-4.135z"/>
        <path fill="#FFF" d="M31.468 28.472h.002c.456 0 .828-.37.828-.827l.01-4.401a.829.829 0 0 0-.828-.83h-.001a.83.83 0 0 0-.83.827l-.008 4.4a.828.828 0 0 0 .827.83M32.458 30.83a.985.985 0 1 0-1.97 0 .985.985 0 0 0 1.97 0"/>
    </g>
</svg>
