<svg xmlns="http://www.w3.org/2000/svg" width="40" height="24" viewBox="0 0 40 24">
    <g fill="none" fill-rule="evenodd">
        <rect width="40" height="24" fill="#FF4C5A" rx="2"/>
        <path fill="#FFF" d="M12 5.998a2 2 0 0 1 .1.002l16 .8A2 2 0 0 1 30 8.798v9.995a2 2 0 0 1-2 2l-.1-.003-16-.8a2 2 0 0 1-1.9-1.997V7.998a2 2 0 0 1 2-2zm6.606 1.897c-1.455 0-2.85.937-3.523 2.43-.44.968.986 1.532 1.489.675l.05-.097c.195-.434.467-.749.787-.954l.14-.082-.001.007-.002.01-.26 3.61-.26 3.61-.329-.036-.318-.035c-1.007-.13-1.16 1.452-.236 1.693l.112.022c2.743.353 7.094.294 8.42-2.777l.087-.219c.896-2.463-.964-3.588-2.945-3.89l-.165-.024c.505-.973.39-2.098-.72-3.048l-.165-.134a3.537 3.537 0 0 0-1.94-.754l-.221-.007zm.335 5.391c.146.195.365.32.637.303l.12-.016c.8-.157 1.604-.184 2.392-.002l.294.079c1.28.39 1.035 1.817.143 2.514l-.101.075c-.96.652-2.222.895-3.477.935l-.29.006c.094-1.299.186-2.6.282-3.894zm.212-3.54l.119.037.124.038c1.448.534.924 1.496-.102 2.08l-.108.058-.083.048-.075.057c.049-.683.099-1.367.145-2.05a.8.8 0 0 0-.007-.18l-.013-.088zm7.655-6.845a1 1 0 0 1 .005.1v.843a1 1 0 0 1-1.05.999l-12.288-.615a.5.5 0 0 1-.025-.997l12.263-1.226a1 1 0 0 1 1.095.896z"/>
    </g>
</svg>
