<svg height="24" viewBox="0 0 24 24" width="24" xmlns="http://www.w3.org/2000/svg">
    <path d="M20.494 12.367c.087 2.248-.731 4.278-2.431 6.037-1.356 1.402-3.032 2.516-5.128 3.407-.293.124-.62.189-.947.189-.319 0-.633-.06-.908-.18-2.484-1.073-4.288-2.35-5.677-4.014-1.29-1.548-1.93-3.326-1.902-5.29.03-1.913.019-3.866.008-5.753l-.006-.981c-.004-1.128.642-1.956 1.73-2.217 1.202-.286 2.465-.596 3.478-.848.82-.203 1.7-.42 2.584-.635.455-.11.96-.11 1.422.003.805.195 1.62.398 2.411.591l.466.117c1.045.257 2.125.525 3.185.779 1.088.261 1.73 1.08 1.717 2.192-.009.91-.009 1.845-.007 2.747v2.756h-.012c0 .37.004.738.017 1.1zm-5.096-4.041l-4.511 5.24-2.4-2.484a.915.915 0 0 0-1.335 0 1.081 1.081 0 0 0 0 1.482l3.107 3.216a.917.917 0 0 0 1.374-.043l5.178-6.015a1.08 1.08 0 0 0-.08-1.478.916.916 0 0 0-1.333.082z" fill="#FFFFFF"
        fill-rule="evenodd" />
</svg>

