<svg xmlns="http://www.w3.org/2000/svg" width="64" height="40" viewBox="0 0 64 40">
    <g fill="none" fill-rule="evenodd">
        <rect width="64" height="40" fill="#FF4C5A" rx="2"/>
        <path fill="#FFF" d="M20 11.785a2 2 0 0 1 .103.002l24 1.237A2 2 0 0 1 46 15.022v16.202a2 2 0 0 1-2.103 1.997l-24-1.237A2 2 0 0 1 18 29.987V13.785a2 2 0 0 1 2-2zm10.048 2.78c-2.037 0-3.99 1.353-4.932 3.507-.619 1.408 1.409 2.223 2.1.95l.055-.115c.277-.636.666-1.095 1.123-1.391l.175-.104-.002.01-.002.015-.364 5.21-.364 5.21-.461-.051-.446-.05c-1.417-.19-1.626 2.123-.306 2.449l.133.025c3.858.513 9.988.424 11.813-4.07l.097-.253c1.262-3.58-1.384-5.201-4.175-5.624l-.179-.026c.714-1.42.541-3.061-1.056-4.441l-.184-.152c-.877-.697-1.837-1.043-2.787-1.092l-.238-.006zm.47 7.782c.21.289.528.472.924.435l.135-.021c1.154-.234 2.316-.268 3.452.023l.31.088c1.8.566 1.443 2.646.178 3.646l-.121.09c-1.361.955-3.158 1.303-4.94 1.354l-.333.006c.132-1.875.26-3.753.394-5.621zm.297-5.11l.165.053.174.056c2.039.775 1.285 2.175-.168 3.015l-.126.071a.786.786 0 0 0-.152.095l-.069.056c.068-.986.139-1.973.203-2.958a1.19 1.19 0 0 0-.01-.261l-.017-.126zM41.532 6.912a1 1 0 0 1 .006.103v2.169a1 1 0 0 1-1.052.998L20 9.125a.5.5 0 0 1-.026-.997l20.461-2.11a1 1 0 0 1 1.097.893z"/>
    </g>
</svg>
