<svg xmlns="http://www.w3.org/2000/svg" width="50" height="50" viewBox="0 0 50 50">
    <g fill="none" fill-rule="evenodd">
        <path fill="#F1F1F1" stroke="#D0D0D0" stroke-linecap="round" stroke-linejoin="round" stroke-width="1.2" d="M49 25c0 13.254-10.745 24-24 24C11.746 49 1 38.254 1 25S11.746 1 25 1c13.255 0 24 10.746 24 24"/>
        <path fill="#494949" d="M16.467 15.4c-.59 0-1.067.477-1.067 1.067C15.4 26.48 23.52 34.6 33.533 34.6c.59 0 1.067-.477 1.067-1.067V29.8c0-.589-.477-1.066-1.067-1.066-1.33 0-2.61-.214-3.81-.607a1.063 1.063 0 0 0-1.083.261l-2.347 2.35a16.086 16.086 0 0 1-7.028-7.024l2.346-2.355c.294-.292.38-.713.262-1.082-.393-1.2-.607-2.48-.607-3.81 0-.59-.477-1.067-1.066-1.067h-3.733z"/>
    </g>
</svg>
