<svg xmlns="http://www.w3.org/2000/svg" width="20" height="20" viewBox="0 0 20 20">
    <path fill="#7A7A7A" fill-rule="evenodd" d="M6.261 1.667H4.007c-.658 0-1.284.277-1.728.761-.443.485-.662 1.134-.603 1.788.263 2.47 1.1 4.831 2.447 6.905 1.22 1.915 2.852 3.545 4.777 4.766 2.062 1.334 4.415 2.17 6.866 2.435.67.061 1.322-.159 1.808-.603.486-.446.762-1.075.759-1.734V13.73c.03-1.166-.837-2.187-2.015-2.353-.669-.088-1.319-.25-1.944-.482l-.152-.051c-.814-.244-1.704-.027-2.316.577l-.498.497-.07-.043c-1.289-.843-2.39-1.942-3.234-3.227l-.043-.068.494-.492c.609-.614.827-1.504.582-2.32l-.051-.152c-.233-.622-.395-1.27-.482-1.93-.166-1.17-1.168-2.03-2.343-2.02zM4.008 3.333h2.27c.339-.003.628.245.675.579.103.777.295 1.548.572 2.29.093.247.034.523-.15.71l-.955.952c-.266.266-.321.676-.135 1.002 1.148 2.015 2.819 3.683 4.838 4.829.325.185.734.13 1-.135l.957-.956c.184-.182.463-.241.71-.148.745.277 1.517.47 2.304.573.332.046.58.34.572.68v2.28c.001.192-.078.372-.218.5-.14.129-.328.192-.518.175-2.176-.236-4.281-.984-6.13-2.18-1.726-1.095-3.183-2.55-4.276-4.265-1.207-1.86-1.956-3.97-2.19-6.166-.015-.175.048-.36.175-.5.128-.14.309-.22.499-.22z"/>
</svg>
