<svg xmlns="http://www.w3.org/2000/svg" width="23" height="23" viewBox="0 0 23 23">
    <g fill="#329873">
        <path stroke="#329873" stroke-width=".4" d="M10.553 20.895C16.326 20.895 21 16.222 21 10.448 21 4.671 16.275 0 10.553 0 6.457 0 2.73 2.415 1.05 6.09l1.365.63c1.47-3.15 4.673-5.197 8.137-5.197 4.936 0 8.925 3.99 8.925 8.925 0 4.934-3.99 8.925-8.925 8.925-3.34 0-6.215-1.855-7.721-4.884l2.679.001v-1.628H0v5.458h1.627v-2.867c1.795 3.36 5.12 5.442 8.925 5.442z" transform="translate(1 1)"/>
        <path d="M12.717 15v-.076l-2.73-3.194c.784-.066 1.392-.27 1.822-.612.43-.342.687-.835.773-1.48h.885l.293-1.066h-1.184c-.058-.394-.187-.738-.387-1.031h1.278l.299-1.072h-5.52L7.93 7.664h1.576c.844 0 1.361.303 1.553.908h-2.83l-.3 1.067h3.153c-.086.297-.257.536-.513.717-.256.182-.602.273-1.04.273H8.047l.006.896L11.035 15h1.682z" transform="translate(1 1)"/>
    </g>
</svg>
