<svg xmlns="http://www.w3.org/2000/svg" width="24" height="24" viewBox="0 0 24 24">
    <defs>
        <filter id="prefix__a" width="136.4%" height="136.4%" x="-18.2%" y="-18.2%" filterUnits="objectBoundingBox">
            <feOffset in="SourceAlpha" result="shadowOffsetOuter1"/>
            <feGaussianBlur in="shadowOffsetOuter1" result="shadowBlurOuter1" stdDeviation="2"/>
            <feColorMatrix in="shadowBlurOuter1" result="shadowMatrixOuter1" values="0 0 0 0 0 0 0 0 0 0 0 0 0 0 0 0 0 0 0.152043269 0"/>
            <feMerge>
                <feMergeNode in="shadowMatrixOuter1"/>
                <feMergeNode in="SourceGraphic"/>
            </feMerge>
        </filter>
    </defs>
    <g fill="#141414" fill-rule="evenodd" filter="url(#prefix__a)" transform="translate(-10 -10)">
        <path d="M22 12c.45 0 .817.367.817.817v1.054c3.848.4 6.896 3.464 7.28 7.312h1.087c.449 0 .816.367.816.817 0 .458-.367.817-.816.817h-1.087c-.384 3.856-3.432 6.92-7.28 7.312v1.054c0 .457-.367.817-.817.817-.457 0-.816-.36-.816-.817v-1.054c-3.873-.368-6.961-3.439-7.345-7.312h-1.022c-.449 0-.817-.359-.817-.817 0-.45.368-.817.817-.817h1.022c.384-3.873 3.472-6.945 7.345-7.312v-1.054c0-.45.359-.817.816-.817zm-.032 3.464c-.262 0-.523.016-.784.049-2.966.351-5.327 2.704-5.703 5.67-.033.27-.049.539-.049.817 0 .277.016.547.049.817.376 2.966 2.737 5.318 5.703 5.67.261.033.522.049.784.049.286 0 .572-.016.849-.057 2.933-.376 5.27-2.713 5.638-5.662.032-.27.049-.54.049-.817 0-.278-.017-.547-.049-.817-.368-2.941-2.705-5.286-5.638-5.662-.277-.041-.563-.057-.849-.057zm.025 3.035c.498 0 .968.108 1.398.283.833.362 1.491 1.034 1.84 1.867.175.417.27.86.27 1.344 0 .483-.095.94-.27 1.344-.349.846-1.007 1.518-1.84 1.867-.43.188-.9.296-1.398.296-.456 0-.887-.094-1.289-.256-.874-.349-1.573-1.034-1.935-1.907-.175-.404-.269-.86-.269-1.344 0-.484.094-.927.27-1.344.361-.86 1.06-1.558 1.934-1.907.402-.148.833-.243 1.29-.243z"/>
    </g>
</svg>
