<svg xmlns="http://www.w3.org/2000/svg" width="24" height="24" viewBox="0 0 24 24">
    <path fill="#FFF" fill-rule="evenodd" d="M12 2c2.43 0 4.66.87 6.39 2.31A9.943 9.943 0 0 1 22 12c0 5.52-4.48 10-10 10H3c-.56 0-1-.45-1-1v-9c0-3.1 1.4-5.86 3.61-7.69A9.92 9.92 0 0 1 12 2zm0 2a7.96 7.96 0 0 0-5.106 1.844A7.96 7.96 0 0 0 4 12v8h8c4.412 0 8-3.588 8-8a7.957 7.957 0 0 0-2.885-6.149A8.004 8.004 0 0 0 12 4zm0 5.885a1 1 0 0 1 1 1v5.335a1 1 0 0 1-2 0v-5.335a1 1 0 0 1 1-1zm0-3.105a1 1 0 1 1 0 2.001 1 1 0 0 1 0-2z"/>
</svg>
