<svg xmlns="http://www.w3.org/2000/svg" width="28" height="22" viewBox="0 0 28 22">
    <path fill="#FFC300" fill-rule="evenodd" d="M21.92 18.945c.426 0 .771.33.771.739v1.577c0 .408-.345.739-.77.739H6.714c-.425 0-.77-.331-.77-.74v-1.576c0-.408.345-.74.77-.74zM14.404 4.807c.236 0 .46.127.605.305l3.931 5.531 5.322-4.802c.246-.222.613-.262.907-.102.294.159.446.484.375.8l-2.66 10.245c-.076.34-.39.584-.753.584H6.676c-.363 0-.676-.243-.753-.583L3.263 6.57c-.07-.317.08-.64.375-.8.293-.16.661-.117.907.105l5.32 4.806 3.932-5.567c.145-.179.369-.307.606-.307zM2.398 1.467c.914 0 1.658.743 1.658 1.657s-.744 1.657-1.658 1.657C1.484 4.781.74 4.038.74 3.124s.744-1.657 1.658-1.657zm23.945 0c.914 0 1.658.743 1.658 1.657s-.744 1.657-1.658 1.657c-.914 0-1.658-.743-1.658-1.657s.744-1.657 1.658-1.657zM14.326 0c.914 0 1.658.744 1.658 1.657 0 .914-.744 1.658-1.658 1.658-.914 0-1.658-.744-1.658-1.658 0-.913.744-1.657 1.658-1.657z"/>
</svg>
