<svg xmlns="http://www.w3.org/2000/svg" width="28" height="26" viewBox="0 0 28 26">
    <path fill="#FFF" fill-rule="evenodd" d="M14.018 7.4c2.218 0 4.035 2.09 4.015 5.075-.014 1.98-.684 3.435-1.71 4.268-.172.55-.122 1.37-.07 1.866 2.856.154 5.144 2.525 5.144 5.404 0 .736-.599 1.331-1.337 1.331H7.952c-.738 0-1.337-.595-1.337-1.33v-.263c0-2.845 2.317-5.152 5.175-5.152h.061c.08-.448.144-1.178-.095-1.83-1.074-.842-1.78-2.33-1.753-4.294.045-3.16 1.798-5.074 4.015-5.074zm-8.394 2.776c1.506 0 2.74 1.419 2.727 3.446-.01 1.345-.465 2.334-1.161 2.9-.118.374-.084.932-.048 1.268.347.018.675.1.99.208-1.537.973-2.658 2.535-3.04 4.368h-3.59c-.502 0-.908-.404-.908-.904v-.179c0-1.932 1.573-3.499 3.515-3.499h.042c.054-.305.098-.802-.065-1.245-.729-.572-1.209-1.582-1.19-2.917.03-2.146 1.22-3.446 2.728-3.446zm16.77 0c1.505 0 2.74 1.419 2.726 3.446-.008 1.345-.464 2.334-1.16 2.9-.117.374-.085.932-.049 1.268 1.94.104 3.495 1.717 3.495 3.672 0 .5-.406.904-.908.904h-3.626c-.44-1.833-1.597-3.396-3.168-4.367.369-.13.761-.215 1.175-.215h.042c.054-.305.097-.802-.065-1.245-.73-.572-1.21-1.582-1.191-2.917.03-2.146 1.222-3.446 2.728-3.446zm1.133-4.377c.198.283.13.673-.156.872l-2.225 1.547c-.11.076-.235.113-.36.113-.198 0-.393-.093-.516-.267-.198-.284-.13-.674.155-.872l2.227-1.548c.285-.196.676-.128.875.155zM4.351 5.645l2.203 1.549c.283.199.351.59.151.872-.122.173-.318.265-.514.265-.125 0-.252-.038-.362-.115L3.625 6.67c-.282-.2-.35-.59-.15-.873.2-.282.59-.348.876-.15zM19.064 1.9c.316.141.457.513.314.828L18.095 5.55c-.106.23-.335.367-.573.367-.087 0-.175-.018-.26-.055-.316-.143-.456-.514-.313-.83l1.283-2.82c.143-.315.515-.453.832-.312zm-10.3.43l1.261 2.698c.146.312.01.684-.305.83-.085.04-.176.059-.265.059-.236 0-.463-.134-.57-.362l-1.26-2.697c-.146-.313-.01-.685.305-.83.313-.149.687-.013.834.302zm4.99-1.943c.347 0 .628.28.628.626V4.27c0 .345-.281.625-.628.625s-.629-.28-.629-.625V1.013c0-.345.282-.626.629-.626z"/>
</svg>
