<svg xmlns="http://www.w3.org/2000/svg" width="14" height="18" viewBox="0 0 14 18">
    <path fill="#494949" fill-rule="nonzero" d="M13.993 3.015c-.005-.238-.165-.444-.388-.476a13.995 13.995 0 0 1-3.075-.812C9.528 1.335 8.42.789 7.223.069a.396.396 0 0 0-.446 0C5.59.789 4.49 1.334 3.48 1.727c-1.007.392-2.034.66-3.067.812-.223.032-.38.238-.405.476-.099 4.525.83 8.227 2.778 11.105a12.737 12.737 0 0 0 3.992 3.81c.124.097.318.09.463 0a13.054 13.054 0 0 0 3.976-3.81c1.95-2.876 2.872-6.58 2.777-11.105z"/>
</svg>
