<svg xmlns="http://www.w3.org/2000/svg" width="20" height="20" viewBox="0 0 20 20">
    <g fill="none" fill-rule="evenodd">
        <path d="M0 0H24V24H0z" transform="translate(-2 -2)"/>
        <path fill="#329873" d="M8.86 19.582l-.931.266c-1.622.463-3.313-.476-3.777-2.098-.156-.548-.156-1.13 0-1.679l.266-.93-.846-.47c-1.475-.82-2.006-2.68-1.187-4.154.277-.499.688-.91 1.187-1.187l.846-.47-.266-.931c-.463-1.622.476-3.313 2.098-3.777.548-.156 1.13-.156 1.679 0l.93.266.47-.846c.82-1.475 2.68-2.006 4.154-1.187.499.277.91.688 1.187 1.187l.47.846.931-.266c1.622-.463 3.313.476 3.777 2.098.156.548.156 1.13 0 1.679l-.266.93.846.47c1.475.82 2.006 2.68 1.187 4.154-.277.499-.688.91-1.187 1.187l-.846.47.266.931c.463 1.622-.476 3.313-2.098 3.777-.548.156-1.13.156-1.679 0l-.93-.266-.47.846c-.82 1.475-2.68 2.006-4.154 1.187-.499-.277-.91-.688-1.187-1.187l-.47-.846z" transform="translate(-2 -2)"/>
        <path fill="#FFF" d="M9 11c1.105 0 2-.895 2-2s-.895-2-2-2-2 .895-2 2 .895 2 2 2zm6 2c1.105 0 2 .895 2 2s-.895 2-2 2-2-.895-2-2 .895-2 2-2zm-.6-5.45c.249-.331.719-.399 1.05-.15.331.249.399.719.15 1.05l-6 8c-.249.331-.719.399-1.05.15-.331-.249-.399-.719-.15-1.05z" transform="translate(-2 -2)"/>
        <g transform="translate(-2 -2) translate(5 5)">
            <circle cx="7" cy="7" r="7" fill="#329873"/>
            <path stroke="#FFF" stroke-linecap="round" stroke-linejoin="round" stroke-width="1.5" d="M3.198 7L6.065 9.567 10.866 4.269"/>
        </g>
    </g>
</svg>
