<svg xmlns="http://www.w3.org/2000/svg" width="32" height="24" viewBox="0 0 32 24">
    <g fill="none" fill-rule="evenodd">
        <path fill="#54CDA1" d="M8.438 6.234c0 .198-.167.359-.372.359H6.933c-.205 0-.37-.161-.37-.36V5.012c0-.198.165-.36.37-.36h1.133c.205 0 .371.162.371.36v1.223zm0 3.957c0 .198-.167.359-.372.359H6.933c-.205 0-.37-.16-.37-.36V8.969c0-.199.165-.36.37-.36h1.133c.205 0 .371.161.371.36v1.223zm0 4.242c0 .197-.167.358-.372.358H6.933c-.205 0-.37-.161-.37-.358v-1.224c0-.198.165-.359.37-.359h1.133c.205 0 .371.16.371.36v1.223zM10.524 0c-.368 0-.722.133-.992.374L7.465 1.728 5.617.396C5.344.142 4.98 0 4.601 0H1.875C.844 0 0 .817 0 1.818V18.18c0 1.004.84 1.818 1.875 1.818h2.677c.403 0 .788-.16 1.065-.445l1.941-1.633 1.88 1.61c.278.298.673.468 1.087.468h17.598c1.036 0 1.875-.814 1.875-1.818V1.818C29.998.814 29.16 0 28.123 0H10.525z" transform="translate(1 2)"/>
        <path fill="#FFF" d="M26.538 5.64c-.225-.248-.538-.393-.88-.405-.335-.006-.663.11-.908.343l-7.407 7.064-3.207-3.312c-.453-.47-1.2-.508-1.708-.086-.257.214-.408.512-.426.841-.018.328.1.642.332.881l4.078 4.198c.228.24.54.376.876.383h.03c.325 0 .63-.12.862-.342l8.298-7.924c.465-.445.492-1.166.06-1.64" transform="translate(1 2)"/>
    </g>
</svg>
