<svg xmlns="http://www.w3.org/2000/svg" width="24" height="24" viewBox="0 0 24 24">
    <path fill="#7A7A7A" fill-rule="evenodd" d="M16.86 4.04l-.096.041-2.043 1.021c-.334.167-.494.547-.394.896l.038.104 1.687 3.745-.05.051-3.369 4.119c-.118.144-.247.277-.385.397l-3.743-6.24.792-.263c.355-.118.606-.43.653-.793l.007-.124c0-.384-.311-.696-.696-.696H5.78c-.512 0-.928.416-.928.928v.272c0 .42.167.824.464 1.121.285.285.706.384 1.087.257l.614-.205.772 1.287-1.554 2.136c-.513-.25-1.082-.4-1.683-.43l-.21-.004C1.942 11.66 0 13.603 0 16s1.943 4.34 4.34 4.34c2.136 0 3.911-1.542 4.273-3.573h1.451c1.37 0 2.67-.58 3.587-1.586l.168-.194 2.933-3.585.456 1.016c-1.087.745-1.817 1.971-1.884 3.372l-.005.21c0 2.397 1.943 4.34 4.34 4.34C22.058 20.34 24 18.398 24 16s-1.943-4.34-4.34-4.34c-.364 0-.717.044-1.055.129l-2.541-5.646 1.385-.692c.347-.173.505-.574.383-.931l-.04-.096c-.174-.347-.575-.505-.932-.383zm2.8 9.152c1.55 0 2.808 1.257 2.808 2.808s-1.257 2.809-2.808 2.809c-1.552 0-2.809-1.258-2.809-2.809 0-.862.389-1.634 1.001-2.15l1.11 2.464c.173.386.626.558 1.012.385.354-.16.528-.554.42-.916l-.036-.097-1.109-2.465c.134-.02.271-.03.41-.03zm-15.32 0c.341 0 .668.06.97.172L3.722 15.55c-.249.342-.173.82.169 1.07.31.226.735.184.997-.083l.073-.086 1.589-2.186c.376.478.6 1.08.6 1.735 0 1.551-1.257 2.809-2.809 2.809-1.55 0-2.808-1.258-2.808-2.809 0-1.55 1.257-2.808 2.808-2.808zm4.304-1.808l2.247 3.746c-.2.051-.406.084-.614.097l-.213.007h-1.45c-.154-.86-.56-1.633-1.141-2.238l1.171-1.612z"/>
</svg>
