<svg xmlns="http://www.w3.org/2000/svg" width="14" height="14" viewBox="0 0 14 14">
    <path fill="#FFF" fill-rule="evenodd" d="M8.211.806l.662.615.918-.125c.939-.13 1.805.485 1.972 1.395l.155.851.803.409c.409.208.713.556.856.98.146.43.112.892-.096 1.3l-.392.768.392.77c.208.407.242.868.096 1.3-.143.423-.448.772-.856.98l-.803.408-.155.85c-.167.91-1.034 1.523-1.972 1.396l-.918-.125-.662.615c-.329.306-.759.474-1.211.474-.452 0-.883-.168-1.211-.474l-.662-.615-.918.125c-.942.13-1.808-.5-1.972-1.396l-.155-.85-.804-.409C.87 9.84.566 9.492.422 9.068c-.145-.43-.111-.892.097-1.3L.91 7l-.391-.768c-.208-.408-.242-.869-.097-1.3.144-.424.448-.772.857-.98l.803-.409.155-.85c.167-.91 1.032-1.525 1.972-1.396l.918.125.662-.615c.679-.63 1.744-.63 2.422 0zM9.33 3H4.744c-.227 0-.41.184-.41.41v.08c0 .226.183.41.41.41h1.315c.953 0 1.568.4 1.702 1.16h-3.09c-.187 0-.338.15-.338.337 0 .186.151.337.338.337h3.09c-.128.77-.715 1.16-1.656 1.16H4.744c-.227 0-.41.183-.41.41v.303c0 .115.048.225.133.303l3.258 2.982c.075.07.174.108.277.108h.543c.077 0 .15-.032.202-.089.101-.111.093-.283-.018-.385L5.739 7.8h.465c1.68-.006 2.48-1.04 2.638-2.065h.487c.187 0 .338-.151.338-.337 0-.187-.151-.338-.338-.338h-.476c-.064-.608-.33-1.069-.76-1.384h1.236c.187 0 .338-.151.338-.337 0-.187-.151-.338-.338-.338z"/>
</svg>
