<svg xmlns="http://www.w3.org/2000/svg" width="48" height="48" viewBox="0 0 48 48">
    <g fill="none" fill-rule="evenodd">
        <path fill="#C25642" d="M8.897 45.083v-18.93c0-.966.131-2.046 1.092-2.046h29.156c.968 0 1.752.79 1.752 1.764V43.32c0 .974-.784 1.763-1.752 1.763H8.897z" transform="translate(1)"/>
        <path fill="#FFAC1B" d="M31.789 22.178c-2.264-1.684-5.42-1.28-7.134.943-1.715 2.223-1.303 5.321.96 7.005 2.264 1.684 5.42 1.28 7.134-.943 1.715-2.155 1.303-5.321-.96-7.005" transform="translate(1)"/>
        <path fill="#FFBF2B" d="M32.007 29.049c-1.415 1.818-3.975 2.155-5.793.74-1.82-1.414-2.156-3.974-.741-5.792 1.414-1.82 3.974-2.156 5.793-.741 1.818 1.347 2.155 3.974.74 5.793" transform="translate(1)"/>
        <path fill="#E88039" d="M35.435 47.13h-25.08c-1.344 0-2.434-1.105-2.434-2.467V27.216l-.014-.5c-.133-2.191 1.057-2.69 2.417-2.61l-.007.03c-.44 3.41 1.417 3.108 3.383 3.08h21.735c1.36 0 2.462 1.117 2.462 2.495v14.924c0 1.377-1.103 2.495-2.462 2.495" transform="translate(1)"/>
        <path fill="#FFAC1B" d="M20.854 16.365c-2.264-1.715-5.42-1.303-7.134.96-1.715 2.264-1.303 5.42.96 7.134 2.264 1.715 5.42 1.303 7.134-.96 1.715-2.195 1.303-5.42-.96-7.134" transform="translate(1)"/>
        <path fill="#FFBF2B" d="M21.102 22.987c-1.366 1.756-3.838 2.082-5.594.716-1.756-1.366-2.081-3.838-.716-5.594 1.366-1.756 3.838-2.081 5.594-.715 1.756 1.3 2.082 3.837.716 5.593" transform="translate(1)"/>
        <path fill="#FFAC1B" d="M29.602 6.888c-2.264-1.715-5.42-1.303-7.134.96-1.715 2.264-1.303 5.42.96 7.134 2.264 1.715 5.42 1.303 7.134-.96 1.715-2.195 1.303-5.42-.96-7.134" transform="translate(1)"/>
        <path fill="#FFBF2B" d="M30.052 13.71c-1.366 1.756-3.838 2.081-5.594.716-1.756-1.366-2.081-3.838-.716-5.594 1.366-1.756 3.838-2.081 5.594-.716 1.756 1.301 2.081 3.838.716 5.594" transform="translate(1)"/>
        <path fill="#E84854" d="M30.67 20.171c-.306 0-.51-.153-.51-.408v-3.317c0-.204.204-.408.51-.408.306 0 .51.153.51.408v3.317c0 .255-.204.408-.51.408M17.556 14.172c-.307 0-.51-.153-.51-.408v-3.317c0-.205.203-.409.51-.409.306 0 .51.153.51.409v3.317c0 .255-.204.408-.51.408M33.586 17.255c-.306 0-.51-.153-.51-.408V13.53c0-.204.204-.408.51-.408.306 0 .51.153.51.408v3.317c0 .255-.204.408-.51.408M27.003 4.133c-.306 0-.51-.153-.51-.408V.408c0-.204.204-.408.51-.408.307 0 .51.153.51.408v3.317c0 .255-.203.408-.51.408M13.903 14.434c-.306 0-.51-.153-.51-.357V12.75c0-.204.204-.357.51-.357.306 0 .51.153.51.357v1.327c0 .204-.204.357-.51.357M24.11 4.957c-.307 0-.511-.153-.511-.357V3.273c0-.204.204-.357.51-.357.306 0 .51.153.51.357V4.6c0 .204-.204.357-.51.357M17.752 8.143c-.306 0-.51-.204-.51-.46V7.02c0-.255.204-.459.51-.459.307 0 .51.204.51.46v.663c0 .255-.203.459-.51.459M33.273 21.753c-.306 0-.51-.204-.51-.459v-.663c0-.255.204-.46.51-.46.306 0 .51.205.51.46v.663c0 .255-.204.46-.51.46" transform="translate(1)"/>
        <path fill="#FFA13F" d="M40.115 41.062h-9.01c-.66 0-1.196-.598-1.196-1.338V35.11c0-.74.535-1.338 1.195-1.338h9.011v7.29z" transform="translate(1)"/>
        <path fill="#E88039" d="M34.942 37.254c.072.916-.612 1.718-1.528 1.79-.917.072-1.718-.611-1.79-1.528-.073-.916.61-1.717 1.527-1.79.916-.072 1.718.612 1.79 1.528" transform="translate(1)"/>
        <path fill="#FDFDFD" d="M5.84 21.719c.158.008.293-.114.301-.271.009-.159-.113-.294-.27-.302-.158-.008-.294.113-.302.272-.008.157.114.292.271.3m.076-1.445c.64.033 1.132.58 1.099 1.22-.034.64-.58 1.133-1.22 1.1-.64-.034-1.133-.582-1.1-1.221.034-.64.581-1.133 1.221-1.1M41.058 14.146c-.158 0-.286.129-.286.286 0 .159.128.287.286.287.158 0 .287-.128.287-.287 0-.157-.129-.286-.287-.286m0 1.448c-.64 0-1.161-.52-1.161-1.162 0-.64.52-1.161 1.161-1.161s1.162.521 1.162 1.161c0 .641-.52 1.162-1.162 1.162M43.321 8.4h-.692v-.692c0-.241-.195-.437-.437-.437s-.438.196-.438.437V8.4h-.69c-.242 0-.438.196-.438.437 0 .242.196.438.437.438h.691v.692c0 .242.196.438.438.438s.437-.196.437-.438v-.692h.692c.241 0 .437-.196.437-.438 0-.241-.196-.437-.437-.437M2.946 25.317c-.906.243-.53 1.652.377 1.409.906-.243.53-1.652-.377-1.409M1.577 20.547c-.906.243-.53 1.652.377 1.409.906-.243.53-1.652-.377-1.409M44.975 11.645c.938 0 .94-1.458 0-1.458-.938 0-.94 1.458 0 1.458" opacity=".593" transform="translate(1)"/>
    </g>
</svg>
