<svg xmlns="http://www.w3.org/2000/svg" width="48" height="48" viewBox="0 0 48 48">
    <path fill="#B0B0B0" fill-rule="evenodd" d="M24 0c13.255 0 24 10.745 24 24S37.255 48 24 48 0 37.255 0 24 10.745 0 24 0zm0 3C12.42 3 3 12.42 3 24s9.42 21 21 21c11.579 0 21-9.42 21-21S35.579 3 24 3zm6.832 25.752a1.5 1.5 0 0 1 .416 2.08C29.776 33.04 27.18 34.5 24 34.5c-3.18 0-5.776-1.46-7.248-3.668a1.5 1.5 0 0 1 2.496-1.664c.928 1.392 2.6 2.332 4.752 2.332 2.153 0 3.824-.94 4.752-2.332a1.5 1.5 0 0 1 2.08-.416zM16 19a3 3 0 1 1 0 6 3 3 0 0 1 0-6zm16 0a3 3 0 1 1 0 6 3 3 0 0 1 0-6z"/>
</svg>
