<svg xmlns="http://www.w3.org/2000/svg" width="48" height="48" viewBox="0 0 48 48">
    <path fill="#B0B0B0" fill-rule="evenodd" d="M24 0c13.255 0 24 10.745 24 24S37.255 48 24 48 0 37.255 0 24 10.745 0 24 0zm0 3C12.42 3 3 12.42 3 24s9.42 21 21 21c11.579 0 21-9.42 21-21S35.579 3 24 3zm0 26.5c3.18 0 5.776 1.46 7.248 3.668a1.5 1.5 0 1 1-2.496 1.664C27.824 33.44 26.152 32.5 24 32.5c-2.153 0-3.824.94-4.752 2.332a1.5 1.5 0 1 1-2.496-1.664C18.224 30.96 20.82 29.5 24 29.5zm-6-8a1.5 1.5 0 0 1 1.5 1.5 4.5 4.5 0 1 1-9 0 1.5 1.5 0 0 1 2.993-.144L13.5 23a1.5 1.5 0 0 0 2.993.144L16.5 23a1.5 1.5 0 0 1 1.5-1.5zm18 0a1.5 1.5 0 0 1 1.5 1.5 4.5 4.5 0 1 1-9 0 1.5 1.5 0 0 1 2.993-.144L31.5 23a1.5 1.5 0 0 0 2.993.144L34.5 23a1.5 1.5 0 0 1 1.5-1.5z"/>
</svg>
