<svg xmlns="http://www.w3.org/2000/svg" width="48" height="48" viewBox="0 0 48 48">
    <path fill="#B0B0B0" fill-rule="evenodd" d="M24 0c13.255 0 24 10.745 24 24S37.255 48 24 48 0 37.255 0 24 10.745 0 24 0zm0 3C12.42 3 3 12.42 3 24s9.42 21 21 21c11.579 0 21-9.42 21-21S35.579 3 24 3zm-5.149 23.043l.127.036.215.068.527.15c.3.082.627.163.971.24 1.304.29 2.608.464 3.809.464 1.505 0 3.143-.274 4.618-.662l.485-.133.462-.14A1.5 1.5 0 0 1 32 27.5C32 30.829 28.828 34 24.5 34c-4.328 0-7.5-3.171-7.5-6.5a1.5 1.5 0 0 1 1.851-1.457zM15.5 17a4.5 4.5 0 0 1 4.5 4.5 1.5 1.5 0 0 1-2.993.144L17 21.5l-.007-.144a1.5 1.5 0 0 0-2.986 0L14 21.5l-.007.144A1.5 1.5 0 0 1 11 21.5a4.5 4.5 0 0 1 4.5-4.5zm18 0a4.5 4.5 0 0 1 4.5 4.5 1.5 1.5 0 0 1-3 0l-.007-.144A1.5 1.5 0 0 0 32 21.5l-.007.144A1.5 1.5 0 0 1 29 21.5a4.5 4.5 0 0 1 4.5-4.5z"/>
</svg>
