<svg xmlns="http://www.w3.org/2000/svg" width="48" height="48" viewBox="0 0 48 48">
    <path fill="#B0B0B0" fill-rule="evenodd" d="M24 0c13.255 0 24 10.745 24 24S37.255 48 24 48 0 37.255 0 24 10.745 0 24 0zm0 3C12.42 3 3 12.42 3 24s9.42 21 21 21c11.579 0 21-9.42 21-21S35.579 3 24 3zm0 28.5c3.18 0 5.776 1.46 7.248 3.668a1.5 1.5 0 1 1-2.496 1.664C27.824 35.44 26.152 34.5 24 34.5c-2.153 0-3.824.94-4.752 2.332a1.5 1.5 0 1 1-2.496-1.664C18.224 32.96 20.82 31.5 24 31.5zM16 25a3 3 0 1 1 0 6 3 3 0 0 1 0-6zm16 0a3 3 0 1 1 0 6 3 3 0 0 1 0-6zm-19.545-5.43l.136.051 7 3a1.5 1.5 0 0 1-1.046 2.808l-.136-.05-7-3a1.5 1.5 0 0 1 1.046-2.808zm24.924.84a1.5 1.5 0 0 1-.788 1.969l-7 3a1.5 1.5 0 1 1-1.182-2.758l7-3a1.5 1.5 0 0 1 1.97.788z"/>
</svg>
