<svg xmlns="http://www.w3.org/2000/svg" width="40" height="40" viewBox="0 0 40 40">
    <g fill="none" fill-rule="evenodd">
        <path fill="#292D3F" d="M34.102 10.563c1.656 1.33 1.488 3.598 1.343 4.145-.176.664-3.28 11.173-3.534 12.007-1.705 4.832-3.734 5.925-7.517 5.889-1.307-.013-13.46-.346-19.745-.649a19.653 19.653 0 0 0 3.12 3.253c6.938.322 16.741.692 17.854.703 3.782.034 5.893-1.482 7.598-6.313.254-.834 2.625-12.654 2.847-14.107.139-.905.194-3.658-1.965-4.928"/>
        <path fill="#505772" d="M20.629 28.281c-.232-.183-.354-.546-.284-.986a.594.594 0 0 1 .017-.375l.483-1.3c.059-.16.242-.385.623-.369l5.955.164c.17.007.31.093.389.233.179.165.299.398.335.62.315.25.486.736.376 1.008l-.656 1.827c-.06.17-.206.274-.365.264l-6.293-.249c-.33-.059-.56-.386-.58-.837zm-.643-4.162l-4.721-.226c-.331-.017-.481-.093-.35-.403l.227-.543a1.42 1.42 0 0 1 .065-.783l.024-.03c.009-.036.01-.068.025-.103l.536-1.24c.066-.155.265-.368.673-.354l3.513.075c.032.001.057.016.088.021l.033-.002c.273.035.46.138.579.282.35.021.764.116.666.472l-.951 2.577a.42.42 0 0 1-.407.257zm-1.34 4.222a.419.419 0 0 1-.407.256l-4.721-.225c-.331-.018-.481-.094-.35-.403l.232-.558a1.566 1.566 0 0 1 .06-.769l.023-.03c.009-.035.01-.068.026-.102l.536-1.24c.066-.155.265-.369.673-.355l3.513.075c.032.001.056.016.087.021h.034c.273.033.459.136.579.28.35.021.764.116.666.472l-.951 2.578zm-6.798-.3l-4.723-.226c-.331-.018-.48-.094-.35-.403l.233-.558a1.572 1.572 0 0 1 .059-.768l.025-.032c.009-.034.01-.067.024-.1l.537-1.24c.066-.156.264-.37.672-.356l3.513.075c.032.001.058.016.088.022l.033-.003c.274.035.46.138.579.282.35.022.765.116.666.472l-.951 2.578a.418.418 0 0 1-.405.257zM3.1 23.211c-.331-.018-.481-.094-.35-.404l.222-.544c-.06-.212-.045-.489.048-.78l.023-.03c.01-.035.01-.068.025-.103l.538-1.24c.065-.154.263-.368.67-.354l3.514.075c.032.001.058.016.088.021l.033-.002c.274.035.46.138.579.282.35.022.765.117.666.472l-.928 2.576a.417.417 0 0 1-.406.256L3.1 23.211zm29.342-8.807l-.66 1.84c-.06.168-.206.274-.366.264l-6.33-.25c-.371-.067-.61-.47-.574-1.01a1.24 1.24 0 0 1-.028-.494.576.576 0 0 1 .024-.333l.468-1.263c.057-.157.235-.374.605-.358l5.782.16c.038.001.07.018.104.027l.08-.007a.841.841 0 0 1 .328.301l.044-.003c.417.19.65.811.523 1.126zm-1.173 4.227l-.66 1.838c-.06.17-.207.275-.367.265l-6.33-.25c-.371-.066-.611-.47-.574-1.01a1.222 1.222 0 0 1-.027-.494.575.575 0 0 1 .022-.333l.469-1.262c.057-.158.235-.375.605-.359l5.783.16c.038.001.068.018.103.027l.08-.007a.834.834 0 0 1 .327.302l.045-.004c.417.191.652.811.524 1.127zm-14.746.72l.222-.536a1.4 1.4 0 0 1 .065-.772l.023-.03c.009-.035.01-.067.025-.102l.529-1.222c.064-.152.26-.363.663-.349l3.463.074c.032.001.056.015.087.021l.033-.003c.269.035.453.136.57.28.346.02.755.113.657.464l-.938 2.542a.41.41 0 0 1-.4.252l-4.656-.222c-.326-.018-.473-.093-.343-.398zm-5.806.111c-.326-.017-.474-.093-.344-.398l.229-.549a1.543 1.543 0 0 1 .058-.758l.024-.03c.008-.034.009-.067.024-.1l.529-1.224c.066-.152.26-.363.663-.349l3.463.074c.033.001.057.015.087.021l.033-.002c.27.034.454.135.572.278.345.021.754.114.656.465l-.937 2.541a.412.412 0 0 1-.401.253l-4.656-.222zm2.614-7.376l3.41.073c.032.001.056.016.085.021l.033-.003c.266.035.447.134.563.274.34.021.742.113.646.458l-.923 2.503a.406.406 0 0 1-.394.25l-4.586-.22c-.32-.017-.466-.09-.338-.39l.225-.542a1.535 1.535 0 0 1 .058-.747l.023-.03c.009-.033.01-.065.024-.099l.52-1.204c.065-.15.258-.357.654-.344zm4.834 1.96l.024-.032c.008-.033.009-.065.024-.099l.52-1.204c.065-.149.257-.357.654-.343l3.41.073c.03.001.056.015.085.02l.032-.002c.266.034.446.134.563.274.34.02.743.112.646.458l-.923 2.503a.408.408 0 0 1-.394.25l-4.585-.22c-.321-.018-.467-.09-.338-.392l.219-.527c-.048-.21-.038-.47.063-.76zM7.553 11.706l3.41.073c.032.001.057.015.086.021l.032-.003c.266.034.446.134.563.274.339.021.743.113.646.458l-.901 2.501a.408.408 0 0 1-.395.25l-4.585-.22c-.321-.017-.467-.09-.338-.392l.214-.528c-.056-.207-.043-.475.047-.757l.024-.03c.007-.033.009-.066.023-.099l.52-1.204c.065-.15.258-.357.654-.344zm-3.025 6.97l.218-.536c-.057-.21-.045-.482.047-.769l.023-.03c.009-.035.01-.067.025-.102l.529-1.223c.065-.152.26-.362.663-.348l3.463.074c.032.001.057.015.087.02l.032-.002c.27.035.453.136.572.278.345.021.754.115.657.466l-.916 2.54a.413.413 0 0 1-.401.252l-4.656-.222c-.326-.018-.473-.093-.343-.398zm4.443 3.198l.023-.03c.009-.036.01-.069.026-.104l.536-1.24c.066-.154.264-.367.673-.354l3.51.075c.035.001.059.016.089.021l.034-.002c.273.035.459.138.58.282.35.021.764.116.666.472l-.952 2.578a.417.417 0 0 1-.406.256l-4.723-.226c-.33-.017-.48-.093-.347-.403l.23-.557a1.55 1.55 0 0 1 .06-.768zm20.814.987l-.635 1.775c-.06.165-.201.266-.356.256l-6.113-.24c-.33-.06-.553-.395-.561-.854-.141-.193-.21-.47-.158-.806a.572.572 0 0 1 .018-.36l.463-1.252c.058-.156.233-.37.6-.355l5.73.157a.44.44 0 0 1 .375.225c.144.133.243.308.294.49.292.25.449.706.343.964zm2.126 3.854c.253-.835 3.358-11.345 3.533-12.008.146-.547.314-2.816-1.341-4.146a3.879 3.879 0 0 0-1.045-.602c-2.77-1.077-21.574-.629-21.574-.629s-5.827-.71-7.75 4.181L.692 21.453C.779 22.745.99 24 1.318 25.21l.384-.888c.066-.153.265-.367.672-.353l3.513.075c.032.001.057.015.088.021l.033-.003c.273.035.46.138.579.282.35.022.766.117.666.472l-.93 2.576a.415.415 0 0 1-.404.256l-3.853-.183a19.453 19.453 0 0 0 2.583 4.491c6.285.304 18.438.637 19.746.648 3.783.036 5.81-1.056 7.516-5.887z"/>
        <path fill="#07071C" d="M11.74 12.765l-.665 1.578c-.11.255-.406.414-.628.386l-3.788-.192c-.19-.04-.316-.188-.374-.396l-.214.528c-.129.301.017.375.338.392l4.585.22c.17.008.326-.09.394-.25l.902-2.5c.096-.346-.307-.438-.647-.459.141.17.181.403.096.693"/>
        <path fill="#707787" d="M11.39 12.465l-.563 1.323a.392.392 0 0 1-.38.24l-3.684-.14c-.374-.058-.473-.284-.407-.534l-.024.03c-.09.282-.103.55-.046.757.057.208.184.355.374.396l3.788.192c.22.028.516-.13.628-.386l.664-1.578c.085-.29.045-.523-.096-.693-.116-.14-.297-.24-.563-.274l-.032.002c.286.053.469.301.34.665"/>
        <path fill="#B5BDC9" d="M6.9 12.05l-.52 1.205c-.015.034-.017.066-.025.099-.065.25.033.476.407.534l3.685.14a.392.392 0 0 0 .38-.24l.562-1.322c.128-.365-.054-.613-.34-.665-.03-.006-.054-.02-.087-.021l-3.41-.073c-.395-.013-.589.194-.652.344"/>
        <path fill="#07071C" d="M17.518 13.145l-.683 1.625c-.111.255-.406.413-.628.386l-3.788-.194c-.2-.042-.32-.216-.367-.451l-.224.54c-.128.3.017.374.337.391l4.586.22a.405.405 0 0 0 .394-.25l.924-2.503c.095-.345-.307-.437-.647-.458.14.171.18.403.096.693"/>
        <path fill="#707787" d="M17.168 12.845l-.564 1.323a.391.391 0 0 1-.379.24l-3.684-.14c-.375-.058-.473-.284-.408-.534l-.023.03a1.521 1.521 0 0 0-.058.747c.048.234.168.409.367.452l3.788.193c.222.027.517-.131.628-.387l.683-1.624c.085-.29.045-.523-.096-.693-.116-.14-.297-.24-.563-.274l-.033.002c.287.053.469.3.342.665"/>
        <path fill="#B5BDC9" d="M12.133 13.733c-.064.25.033.476.408.534l3.684.14a.39.39 0 0 0 .379-.239l.564-1.324c.127-.363-.055-.612-.342-.664-.03-.006-.053-.02-.085-.02l-3.41-.074c-.396-.013-.59.194-.653.344l-.521 1.204c-.014.034-.015.066-.024.1"/>
        <path fill="#07071C" d="M18.22 15.724l4.586.219c.17.009.326-.09.394-.25l.923-2.502c.097-.345-.305-.437-.646-.458.14.17.18.404.096.693l-.66 1.646c-.11.255-.405.413-.627.386l-3.788-.192c-.204-.044-.34-.218-.396-.46l-.22.526c-.128.3.018.375.339.392"/>
        <path fill="#707787" d="M18.498 15.265l3.788.192c.222.027.517-.13.628-.386l.658-1.645c.086-.29.045-.523-.095-.693-.117-.14-.297-.24-.563-.274l-.032.002c.287.053.469.301.341.665l-.564 1.323a.39.39 0 0 1-.379.24l-3.684-.14c-.374-.058-.473-.284-.408-.534l-.023.03c-.102.29-.111.551-.063.76.055.243.192.416.396.46"/>
        <path fill="#B5BDC9" d="M18.596 14.549l3.685.14a.387.387 0 0 0 .378-.24l.564-1.322c.128-.365-.054-.613-.341-.665-.03-.006-.054-.02-.085-.021l-3.41-.073c-.396-.013-.59.194-.653.344l-.521 1.204c-.014.034-.015.066-.024.099-.066.25.033.476.407.534"/>
        <path fill="#07071C" d="M4.871 19.075l4.656.222a.413.413 0 0 0 .401-.252l.916-2.54c.097-.35-.312-.445-.658-.466.144.173.185.41.098.704l-.675 1.603c-.113.26-.412.42-.636.392l-3.848-.195c-.192-.042-.32-.19-.379-.402l-.218.536c-.13.305.017.38.343.398"/>
        <path fill="#707787" d="M5.125 18.543l3.848.195c.224.028.523-.133.636-.392l.675-1.603c.087-.294.046-.531-.097-.703-.119-.143-.302-.244-.572-.279l-.032.003c.291.053.476.305.346.675l-.573 1.344a.394.394 0 0 1-.384.243l-3.742-.142c-.379-.059-.48-.288-.414-.543l-.023.031c-.092.287-.105.559-.047.769.058.211.187.36.379.402"/>
        <path fill="#B5BDC9" d="M5.23 17.884l3.742.142a.396.396 0 0 0 .385-.243l.572-1.344c.13-.37-.055-.621-.345-.675-.031-.005-.056-.02-.088-.021l-3.463-.074c-.403-.014-.599.197-.663.349l-.53 1.223c-.013.034-.014.067-.024.1-.066.255.035.484.415.543"/>
        <path fill="#07071C" d="M15.773 19.432l.937-2.542c.098-.35-.31-.444-.656-.465.143.173.184.41.097.704l-.692 1.65c-.114.259-.413.42-.638.392l-3.848-.195c-.2-.044-.323-.222-.372-.461l-.228.55c-.13.305.017.38.343.397l4.657.223a.412.412 0 0 0 .4-.253"/>
        <path fill="#7E838C" d="M10.974 18.976l3.848.195c.225.028.524-.133.637-.392l.693-1.65c.087-.294.046-.531-.097-.704-.118-.142-.302-.243-.571-.278l-.033.003c.29.053.475.305.346.675l-.572 1.343a.398.398 0 0 1-.386.244l-3.741-.143c-.38-.06-.48-.287-.414-.542l-.023.03c-.087.274-.103.54-.06.759.05.238.172.416.373.46"/>
        <path fill="#B5BDC9" d="M11.098 18.269l3.74.142a.397.397 0 0 0 .387-.243l.572-1.344c.129-.369-.055-.621-.346-.675-.031-.005-.055-.02-.087-.021l-3.463-.074c-.403-.014-.598.197-.663.349l-.53 1.223c-.014.034-.015.067-.024.101-.065.254.034.483.414.542"/>
        <path fill="#07071C" d="M16.866 19.748l4.656.222a.412.412 0 0 0 .4-.252l.938-2.542c.098-.351-.31-.445-.657-.465.143.173.184.409.098.704l-.669 1.67c-.114.26-.412.42-.638.392l-3.847-.195c-.207-.045-.345-.221-.402-.467l-.223.535c-.13.305.018.38.344.398"/>
        <path fill="#707787" d="M17.148 19.282l3.846.195c.226.028.524-.133.637-.392l.67-1.67c.087-.295.046-.53-.098-.704-.117-.143-.3-.244-.57-.279l-.034.003c.291.053.477.305.346.675l-.572 1.343a.395.395 0 0 1-.385.244l-3.74-.143c-.38-.058-.48-.287-.415-.542l-.023.031a1.408 1.408 0 0 0-.064.772c.056.246.195.422.402.467"/>
        <path fill="#B5BDC9" d="M17.247 18.555l3.741.143a.397.397 0 0 0 .385-.244l.572-1.343c.13-.37-.054-.622-.345-.676-.03-.005-.055-.02-.087-.021l-3.463-.074c-.403-.014-.599.197-.663.349l-.53 1.223c-.014.035-.015.067-.024.1-.065.255.034.484.414.543"/>
        <path fill="#07071C" d="M8.227 23.18l.93-2.575c.098-.356-.316-.451-.666-.472.145.175.186.415.098.714l-.684 1.625c-.115.263-.418.426-.647.397l-3.901-.197c-.196-.043-.327-.194-.386-.408l-.22.544c-.131.31.018.386.349.403l4.723.226a.416.416 0 0 0 .404-.256"/>
        <path fill="#707787" d="M3.356 22.672l3.902.197c.228.029.532-.135.647-.397l.683-1.626c.088-.298.047-.538-.098-.714-.119-.144-.306-.247-.579-.281l-.034.002c.295.054.483.31.351.685l-.58 1.363a.403.403 0 0 1-.39.246l-3.795-.144c-.385-.06-.487-.292-.42-.551l-.024.032c-.093.29-.106.567-.048.78.06.214.19.365.385.408"/>
        <path fill="#B5BDC9" d="M3.464 22.003l3.794.144a.403.403 0 0 0 .39-.247l.58-1.362c.132-.375-.055-.631-.35-.685-.03-.006-.056-.02-.088-.021l-3.513-.076c-.408-.013-.606.2-.671.354l-.538 1.24c-.014.036-.015.068-.025.102-.066.259.035.49.42.55"/>
        <path fill="#07071C" d="M9.027 23.604l4.723.226a.42.42 0 0 0 .406-.256l.951-2.579c.1-.356-.315-.45-.666-.472.145.175.187.415.1.714l-.704 1.673c-.115.263-.418.425-.647.397l-3.9-.197c-.206-.045-.33-.225-.379-.467l-.232.557c-.132.31.018.385.348.403"/>
        <path fill="#707787" d="M9.29 23.11l3.9.197c.23.03.533-.134.647-.397l.703-1.673c.088-.299.046-.539-.099-.714-.12-.144-.306-.247-.579-.282l-.034.002c.296.054.482.31.352.685l-.58 1.363a.404.404 0 0 1-.39.247l-3.796-.145c-.385-.059-.486-.292-.42-.55l-.023.032a1.549 1.549 0 0 0-.06.768c.05.242.173.422.378.466"/>
        <path fill="#B5BDC9" d="M9.414 22.394l3.795.145a.405.405 0 0 0 .391-.248l.58-1.362c.13-.375-.056-.631-.352-.685-.03-.005-.055-.02-.088-.021l-3.512-.075c-.408-.014-.606.2-.672.353l-.537 1.24c-.015.036-.016.069-.025.103-.066.258.035.49.42.55"/>
        <path fill="#07071C" d="M6.324 27.392l.93-2.576c.098-.356-.317-.45-.667-.472.145.176.186.416.1.714l-.685 1.625c-.115.264-.418.427-.647.398l-3.495-.177c.07.186.13.377.205.56l3.854.184a.415.415 0 0 0 .405-.256"/>
        <path fill="#707787" d="M6.002 26.683l.685-1.625c.086-.298.045-.538-.1-.714-.119-.144-.306-.247-.579-.282l-.033.003c.295.054.482.309.351.684l-.581 1.363a.4.4 0 0 1-.39.247l-3.747-.143c.078.233.167.459.252.688l3.496.177c.228.029.532-.134.646-.398"/>
        <path fill="#B5BDC9" d="M5.745 26.111l.581-1.362c.131-.375-.057-.63-.352-.685-.03-.006-.055-.02-.087-.02l-3.513-.077c-.407-.013-.607.201-.672.354l-.384.888c.091.34.182.675.29 1.006l3.746.143a.401.401 0 0 0 .391-.247"/>
        <path fill="#07071C" d="M12.538 24.734c.146.176.187.416.1.714l-.704 1.673c-.115.263-.418.426-.646.398l-3.902-.198c-.204-.044-.328-.225-.378-.467l-.232.558c-.132.31.018.385.35.403l4.722.226a.42.42 0 0 0 .405-.257l.951-2.578c.1-.356-.315-.45-.666-.472"/>
        <path fill="#707787" d="M7.386 27.321l3.902.198c.228.03.532-.135.646-.398l.703-1.673c.088-.298.047-.538-.1-.714-.118-.144-.304-.247-.578-.282l-.033.003c.295.054.482.31.35.684l-.58 1.363a.403.403 0 0 1-.39.247l-3.794-.145c-.386-.059-.487-.29-.42-.55l-.024.032a1.561 1.561 0 0 0-.06.768c.05.242.174.423.378.467"/>
        <path fill="#B5BDC9" d="M7.512 26.605l3.794.145a.404.404 0 0 0 .39-.248l.58-1.362c.132-.376-.055-.63-.35-.684-.03-.006-.056-.021-.088-.022l-3.513-.075c-.408-.015-.606.2-.671.353l-.538 1.241c-.014.035-.015.067-.024.102-.067.259.034.49.42.55"/>
        <path fill="#07071C" d="M18.93 25.291c.147.176.188.416.1.714l-.703 1.673c-.115.263-.418.426-.647.398l-3.901-.198c-.205-.044-.33-.225-.378-.467l-.232.558c-.132.309.018.385.349.403l4.722.226a.42.42 0 0 0 .406-.257l.95-2.577c.1-.357-.314-.452-.665-.473"/>
        <path fill="#707787" d="M13.778 27.878l3.901.198c.23.029.533-.135.647-.398l.703-1.673c.088-.298.047-.538-.099-.714-.12-.143-.305-.247-.579-.281l-.033.002c.295.054.482.309.351.684l-.58 1.364a.403.403 0 0 1-.39.246l-3.796-.145c-.385-.06-.486-.291-.42-.55l-.023.032a1.55 1.55 0 0 0-.06.768c.05.242.173.423.378.467"/>
        <path fill="#B5BDC9" d="M13.903 27.161l3.795.145a.404.404 0 0 0 .391-.247l.58-1.363c.131-.375-.056-.63-.35-.684-.032-.006-.057-.02-.089-.022l-3.513-.075c-.408-.014-.606.2-.672.354l-.537 1.241c-.014.034-.016.067-.025.101-.066.26.035.49.42.55"/>
        <path fill="#07071C" d="M21.344 21.285c.099-.355-.315-.45-.666-.472.145.175.187.415.099.714l-.68 1.694c-.113.263-.417.426-.646.398l-3.901-.198c-.21-.045-.351-.224-.408-.474l-.226.543c-.132.31.018.386.349.403l4.722.226a.42.42 0 0 0 .406-.257l.95-2.577z"/>
        <path fill="#707787" d="M15.55 23.42l3.9.199c.23.029.534-.135.648-.398l.679-1.694c.087-.298.046-.54-.1-.714-.118-.144-.305-.247-.578-.282l-.033.002c.295.055.482.31.35.686l-.58 1.362a.403.403 0 0 1-.39.247l-3.795-.144c-.385-.06-.487-.292-.42-.551l-.024.03a1.42 1.42 0 0 0-.065.784c.057.25.198.429.408.474"/>
        <path fill="#B5BDC9" d="M15.65 22.684l3.795.145a.405.405 0 0 0 .391-.248l.58-1.362c.131-.375-.056-.631-.35-.685-.03-.006-.057-.02-.089-.021l-3.513-.076c-.408-.013-.606.2-.672.354l-.537 1.24c-.014.036-.015.068-.025.102-.066.259.035.49.42.55"/>
        <path fill="#07071C" d="M29.441 21.898c.043.156.06.311.013.422l-.624 1.722c-.059.158-.197.256-.348.248l-5.985-.23c-.156-.027-.279-.129-.377-.262.008.46.231.795.56.854l6.114.241c.155.01.295-.092.355-.256l.636-1.775c.105-.258-.05-.715-.344-.964M27.867 29.104l.655-1.828c.111-.273-.06-.758-.376-1.009a.634.634 0 0 1-.015.329l-.65 1.788c-.059.165-.204.268-.36.258l-6.22-.236a.627.627 0 0 1-.272-.124c.021.45.251.777.58.837l6.293.248c.16.01.304-.095.365-.264"/>
        <path fill="#707787" d="M22.497 24.06l5.985.23c.152.008.29-.09.348-.249l.624-1.72c.046-.113.03-.267-.013-.423a1.03 1.03 0 0 0-.294-.49c.07.124.091.29.033.49l-.502 1.374c-.059.158-.198.258-.349.248l-5.984-.229c-.225-.04-.339-.155-.383-.298-.052.336.016.614.158.806.1.132.222.234.377.261"/>
        <path fill="#B5BDC9" d="M22.345 23.292l5.984.229c.152.009.29-.09.349-.249l.502-1.375c.059-.199.037-.365-.032-.489a.436.436 0 0 0-.374-.224l-5.73-.158c-.368-.015-.543.2-.6.355l-.464 1.251a.573.573 0 0 0-.018.361c.044.144.158.259.383.299"/>
        <path fill="#07071C" d="M30.745 17.504l-.045.004c.173.248.253.565.172.763l-.63 1.736c-.059.16-.198.26-.35.25l-6.04-.23c-.252-.044-.434-.257-.514-.554-.037.54.203.945.574 1.01l6.33.25c.16.01.307-.094.367-.264l.66-1.838c.127-.315-.107-.936-.524-1.127"/>
        <path fill="#707787" d="M23.852 20.027l6.04.23c.152.01.292-.09.35-.25l.63-1.736c.082-.198 0-.515-.171-.763a.834.834 0 0 0-.327-.301l-.081.007c.255.066.416.32.306.692l-.506 1.387c-.058.16-.198.26-.351.25l-6.04-.23c-.242-.043-.356-.173-.391-.332-.025.184-.012.347.027.492.08.297.263.51.514.554"/>
        <path fill="#B5BDC9" d="M23.702 19.313l6.04.23c.152.01.292-.09.351-.25l.505-1.387c.111-.37-.05-.625-.305-.692-.035-.01-.066-.026-.104-.028l-5.782-.16c-.37-.016-.548.201-.605.358l-.469 1.262a.588.588 0 0 0-.023.334c.036.16.15.29.392.332"/>
        <path fill="#07071C" d="M31.919 13.278l-.044.004c.172.248.252.565.172.762l-.631 1.737c-.06.16-.198.26-.351.25l-6.04-.23c-.251-.044-.433-.257-.513-.554-.036.54.203.945.574 1.01l6.33.25c.16.01.307-.094.367-.264l.659-1.84c.128-.314-.106-.934-.523-1.125"/>
        <path fill="#707787" d="M25.025 15.8l6.04.23c.152.01.292-.088.351-.25l.63-1.736c.081-.197 0-.514-.17-.762a.836.836 0 0 0-.329-.301l-.08.007c.254.066.415.32.305.692l-.506 1.387c-.058.16-.198.26-.35.25l-6.04-.231c-.243-.042-.357-.172-.392-.332a1.24 1.24 0 0 0 .027.493c.08.297.263.51.514.554"/>
        <path fill="#B5BDC9" d="M24.876 15.086l6.039.23c.153.01.293-.09.352-.25l.505-1.386c.111-.371-.05-.626-.305-.693-.034-.01-.066-.026-.104-.027l-5.782-.16c-.37-.015-.548.202-.605.358l-.468 1.263a.576.576 0 0 0-.024.333c.036.16.15.29.392.332"/>
        <path fill="#707787" d="M27.12 28.643c.157.01.302-.093.361-.258l.65-1.79a.634.634 0 0 0 .015-.327 1.096 1.096 0 0 0-.335-.62c.073.13.095.303.034.51l-.522 1.427c-.06.165-.204.269-.36.258l-6.22-.237c-.235-.041-.353-.161-.398-.311-.07.44.051.804.284.987.08.062.172.106.271.124l6.22.237z"/>
        <path fill="#B5BDC9" d="M20.742 27.605l6.22.238c.157.01.301-.093.361-.259l.522-1.427c.061-.206.04-.38-.034-.509a.45.45 0 0 0-.388-.232l-5.955-.165c-.38-.016-.564.208-.623.37l-.483 1.299a.58.58 0 0 0-.017.374c.044.15.163.27.397.311"/>
    </g>
</svg>
