<svg xmlns="http://www.w3.org/2000/svg" width="20" height="20" viewBox="0 0 20 20">
    <path fill="#15D48F" fill-rule="evenodd" d="M9.329 1.667c.22 0 .433.087.589.244l9.325 9.325c.163.163.163.427 0 .59L12.66 18.41c-.163.163-.427.163-.59 0L2.745 9.085c-.156-.157-.244-.369-.244-.59V2.083c0-.23.187-.416.417-.416zm3.934 5.313c-.287-.192-.675-.114-.866.173l-3.334 5-.045.08c-.13.276-.042.613.219.787.287.192.675.114.866-.173l3.334-5 .045-.08c.13-.276.042-.613-.219-.787zm.07 3.437c-.69 0-1.25.56-1.25 1.25s.56 1.25 1.25 1.25 1.25-.56 1.25-1.25-.56-1.25-1.25-1.25zM9.167 7.083c-.69 0-1.25.56-1.25 1.25s.56 1.25 1.25 1.25 1.25-.56 1.25-1.25-.56-1.25-1.25-1.25zM5.19 3.46c-.495 0-.897.402-.897.897s.402.897.897.897.897-.402.897-.897-.402-.897-.897-.897z"/>
</svg>
