<svg xmlns="http://www.w3.org/2000/svg" width="20" height="20" viewBox="0 0 20 20">
    <path fill="#15D48F" fill-rule="evenodd" d="M3.333 7.425H10V3.333H3.333v4.092zm14.759-.758L16.667 5.25l-1.492-1.492c-.325-.325-.85-.325-1.175 0-.158.159-.242.375-.242.592 0 .208.085.417.242.583l.658.659.334.333.3.3L16.667 7.6v7.425c0 .433-.367.808-.808.808H15.8c-.375 0-.717-.283-.792-.65-.008-.05-.016-.108-.016-.158V9.317c-.092-.984-.767-1.792-1.667-2.1-.25-.092-.517-.134-.792-.134h-.058c-.283 0-.558.05-.808.134V2.5c0-.467-.375-.833-.834-.833H2.5c-.458 0-.833.366-.833.833v15c0 .458.375.833.833.833h8.333c.459 0 .834-.366.834-.833V9.567c0-.442.375-.817.808-.817h.058c.384 0 .717.283.792.658.008.05.017.1.017.159v5.708c.1.975.766 1.783 1.666 2.092.25.091.517.133.792.133h.06c1.357 0 2.473-1.117 2.473-2.475V7.258c0-.225-.091-.433-.241-.591z"/>
</svg>
