<svg xmlns="http://www.w3.org/2000/svg" width="42" height="34" viewBox="0 0 42 34">
    <g fill="none" fill-rule="evenodd">
        <g transform="translate(1 1)">
            <path fill="#4A377B" d="M9.008 12.935h8.029V8.007h-8.03v4.928zm16.058-2.619L23.269 8.52a.999.999 0 0 0-1.706.713c0 .25.102.502.291.702l.794.793.4.402.362.361 1.656 1.656v8.943a.987.987 0 0 1-.973.974h-.07a.996.996 0 0 1-.975-.974v-6.875a2.979 2.979 0 0 0-2.006-2.53 2.77 2.77 0 0 0-.954-.16h-.07c-.342 0-.673.06-.974.16v-5.68a1 1 0 0 0-1.003-1.005H8.003A1 1 0 0 0 7 7.004V25.07c0 .552.452 1.004 1.003 1.004h10.038a1 1 0 0 0 1.003-1.004v-9.556c0-.531.452-.983.974-.983h.07c.461 0 .863.342.954.793.01.06.02.12.02.19v6.876a2.993 2.993 0 0 0 2.007 2.52c.301.11.622.16.954.16h.07a2.994 2.994 0 0 0 2.98-2.98v-9.355c0-.271-.11-.522-.29-.713l-1.717-1.706z"/>
            <path fill="#FFC300" d="M18.04 26.074a1 1 0 0 0 1.004-1.004V13.668H7V25.07c0 .552.452 1.004 1.003 1.004H18.04z"/>
            <path fill="#FC223C" d="M25.056 22.138a.982.982 0 0 1-.963.925h-.07a.995.995 0 0 1-.954-.784c-.008-.044-.011-.093-.015-.14h-1.992v.251a2.993 2.993 0 0 0 2.007 2.52c.301.11.622.16.954.16h.07a2.991 2.991 0 0 0 2.975-2.932h-2.012z"/>
            <path fill="#4A377C" d="M9.008 12.936h8.029V8.008h-8.03v4.928zM8.004 6A1 1 0 0 0 7 7.004V25.07c0 .552.452 1.004 1.004 1.004h10.037a1 1 0 0 0 1.003-1.004v-9.556c0-.531.452-.983.973-.983h.071c.462 0 .863.342.954.793.01.06.02.12.02.19v6.876a2.993 2.993 0 0 0 2.007 2.52c.301.11.622.16.954.16h.07a2.994 2.994 0 0 0 2.98-2.98v-9.355c0-.271-.11-.522-.29-.713l-1.717-1.706-1.797-1.797a.995.995 0 0 0-1.415 0c-.189.191-.29.452-.29.713 0 .25.101.502.29.702l.794.793.4.402.362.361 1.656 1.656v8.943a.987.987 0 0 1-.973.974h-.07a.996.996 0 0 1-.975-.974v-6.875a2.979 2.979 0 0 0-2.006-2.53 2.77 2.77 0 0 0-.954-.16h-.07c-.341 0-.672.06-.974.16v-5.68A1 1 0 0 0 18.041 6H8.004zm9.373 9.514v8.893h-8.71l.01-9.802.33-.003h8.03l.34.005v.907z"/>
            <circle cx="16" cy="16" r="16" stroke="#4A377B"/>
        </g>
        <circle cx="6.667" cy="6.667" r="7.167" fill="#FF4C5A" stroke="#FFF" transform="translate(27.333 19.333)"/>
        <path fill="#FFF" fill-rule="nonzero" d="M34.333 28a.805.805 0 0 1-.805-.779l-.162-4.888a.967.967 0 1 1 1.934 0l-.162 4.888a.805.805 0 0 1-.805.779zm-1 2.337c0-.145.024-.278.072-.4a.915.915 0 0 1 .514-.528 1.07 1.07 0 0 1 .411-.076c.153 0 .291.025.415.076a.908.908 0 0 1 .517.528c.048.122.071.255.071.4 0 .144-.023.276-.07.396a.908.908 0 0 1-.517.525c-.125.05-.263.075-.416.075a1.07 1.07 0 0 1-.412-.075.915.915 0 0 1-.513-.525 1.071 1.071 0 0 1-.072-.396z"/>
    </g>
</svg>
