<svg xmlns="http://www.w3.org/2000/svg" xmlns:xlink="http://www.w3.org/1999/xlink" width="113" height="97" viewBox="0 0 113 97">
    <defs>
        <path id="a" d="M0 0h132v132H0z"/>
        <path id="c" d="M113.438 94.875H0v-2.063L13.167 87.8l8.77-11.078 5.46-14.525L39.188 33 49.5 14.437 66 4.126 90.75 0z"/>
        <linearGradient id="d" x1="68.86%" x2="41.539%" y1="69.257%" y2="35.433%">
            <stop offset="0%" stop-color="#339972" stop-opacity="0"/>
            <stop offset="100%" stop-color="#0D8063"/>
        </linearGradient>
        <filter id="e" width="105.3%" height="106.3%" x="-2.6%" y="-3.2%" filterUnits="objectBoundingBox">
            <feGaussianBlur in="SourceGraphic" stdDeviation="1"/>
        </filter>
    </defs>
    <g fill="none" fill-rule="evenodd">
        <g transform="matrix(-1 0 0 1 113 -21)">
            <mask id="b" fill="#fff">
                <use xlink:href="#a"/>
            </mask>
            <g mask="url(#b)">
                <g transform="translate(8.25 22.688)">
                    <mask id="f" fill="#fff">
                        <use xlink:href="#c"/>
                    </mask>
                    <path fill="url(#d)" d="M113.438 94.875H0v-2.063L13.167 87.8l8.77-11.078 5.46-14.525L39.188 33 49.5 14.437 66 4.126 90.75 0z" filter="url(#e)" mask="url(#f)" style="mix-blend-mode:multiply"/>
                </g>
            </g>
            <g mask="url(#b)">
                <path fill="#FFCB1A" d="M101.94 33c-7.995 8.25-10.745 24.75 0 24.75 10.744 0 8.505-16.5 0-24.75z"/>
                <path fill="#D8D8D8" fill-rule="nonzero" d="M32.306 82.043l-8.864 20.884c-2.418 5.696-10.35 11.648-23.907 5.907v6.338c12.229 4.861 25.835.259 29.602-9.827l8.865-20.884-5.696-2.418z"/>
                <path fill="#D8D8D8" d="M99.532 22.823v4.143a1 1 0 0 1-1.042.999l-13.967-.596a12 12 0 0 0-5.007.863L52.178 39.277l3.223-7.594 22.185-8.963a12 12 0 0 1 4.479-.874l16.466-.023a1 1 0 0 1 1.001 1z"/>
                <path fill="#203851" d="M63.514 28.405l11.399 28.212a4 4 0 0 1-.027 3.062L64.226 84.79a2 2 0 0 1-2.622 1.06l-16.166-6.863a1 1 0 0 1 .53 1.311l-2.442 5.753a1 1 0 0 1-1.312.53l-13.347-5.665a1 1 0 0 1-.53-1.312l2.442-5.753a1 1 0 0 1 1.312-.53l2.877 1.22L43.44 54.58a1 1 0 0 0-.53-1.311l-4.832-2.052a2 2 0 0 1-1.06-2.622l4.213-9.924a4 4 0 0 1 2.183-2.146l20.1-8.12zm3.592 20.57L53 54.674a2 2 0 0 0-1.092 1.072l-7.734 18.222 15.245 6.472a2 2 0 0 0 2.622-1.06l8.242-19.416a4 4 0 0 0 .027-3.06l-3.204-7.93z"/>
                <path fill="#0E161D" d="M46.638 68.163l7.247 3.076a2 2 0 0 0 2.74-1.435l3.767-18.209-8.113 3.278-5.641 13.29z"/>
            </g>
        </g>
        <path fill="#FFF" d="M41.195 40.766c.562.72.91 1.582 1.007 2.49l.163 1.541 1.538.19a4.887 4.887 0 0 1 3.2 7.923l-.974 1.205.953 1.221a4.887 4.887 0 0 1-3.338 7.866l-1.541.163-.19 1.538a4.887 4.887 0 0 1-7.923 3.2l-1.205-.974-1.221.953a4.887 4.887 0 0 1-7.866-3.338l-.163-1.541-1.538-.19a4.887 4.887 0 0 1-3.2-7.923l.974-1.205-.953-1.221a4.887 4.887 0 0 1 3.338-7.866l1.541-.163.19-1.538a4.887 4.887 0 0 1 7.923-3.2l1.205.974 1.221-.953a4.887 4.887 0 0 1 6.86.848zM36.477 57.29a3.048 3.048 0 1 0-2.382 5.61 3.048 3.048 0 0 0 2.382-5.61zm2.903-8.336l-13.991 8.001a1.193 1.193 0 0 0-.434 1.646 1.23 1.23 0 0 0 1.665.445l13.991-8.001c.58-.332.774-1.068.434-1.646a1.23 1.23 0 0 0-1.665-.445zm-7.475-3.855a3.048 3.048 0 1 0-2.382 5.611 3.048 3.048 0 0 0 2.382-5.61z"/>
    </g>
</svg>
