<svg xmlns="http://www.w3.org/2000/svg" width="54" height="54" viewBox="0 0 54 54">
    <g fill="none" fill-rule="evenodd">
        <path fill="#6259AC" d="M8.568 15.065C14.409 1.535 29.41-2.048 33.378 8.98c4.049 11.254 6.71 14.309 12.406 19.015 11.016 9.103 6.324 21.64-2.92 24.338-18.242 5.323-47.432-6.846-34.296-37.268"/>
        <path fill="#8EA2EF" d="M53.523 24.519c-1.276.888-8.572 8.13-11.64 12.704-.228.34-.686.429-.966.138-3.203-3.32-7.347-7.265-7.347-7.265l2.987-2.73s4.423-7.102 10.067-10.94c.188-.127.424-.136.62-.026.991.56 5.271 3.902 6.518 7.269.115.311.02.668-.24.85"/>
        <path fill="#DEDEFF" d="M42.85 33.786c1.988-2.447 5.846-7.487 7.952-9.087.084-.026-.664-.938.614-2.024-.036-.022-2.407-2.776-3.855-4.01-.195.29-.878.897-1.648.074-1.196.65-6.696 5.627-10.215 11.286.024.087 4.244 4.048 4.75 4.644.41-1.215 1.659-1.178 2.401-.883"/>
        <path fill="#70D4DF" d="M41.947 24.685c-1.236 1.46-1.452 3.438-.48 4.413.971.977 2.76.584 3.996-.877 1.237-1.46 1.453-3.437.481-4.413-.97-.977-2.76-.584-3.997.877"/>
        <path fill="#8EA2EF" d="M50.645 19.166c-1.09 1.483-6.59 12.315-8.385 18.535-.134.463-.603.744-1.007.541-4.621-2.326-10.48-4.95-10.48-4.95l2.331-4.179s1.875-9.342 6.729-15.798c.161-.216.956-.5 1.208-.459 1.27.21 7.073 2.123 9.577 5.287.23.293.25.72.027 1.023"/>
        <path fill="#DEDEFF" d="M42.147 33.568c1.339-3.468 3.837-10.515 5.592-13.108.082-.062-1.044-.754-.017-2.452-.047-.01-3.568-2.052-5.567-2.812-.114.394-.653 1.33-1.773.744-1.084 1.193-5.394 8.832-7.313 16.416.057.086 6.004 2.697 6.76 3.142.032-1.489 1.408-1.952 2.318-1.93"/>
        <path fill="#8EA2EF" d="M38.97 28.988c1.528.727 3.464-.375 4.323-2.463.859-2.088.316-4.37-1.213-5.098-1.53-.729-3.465.374-4.324 2.462-.86 2.087-.316 4.37 1.213 5.099"/>
        <path fill="#8991F1" d="M9.312 12.943s1.728-4.844 2.459-5.65c.73-.803 7.787-4.835 7.787-4.835l.94 2.093-6.783 4.346-2.156 5.363-2.247-1.317z"/>
        <path fill="#8991F1" d="M22.253 22.328c-.22-.009-.423-.11-.576-.289-.153-.179-.236-.414-.233-.662l.08-8.63c.004-.248.09-.482.248-.658.162-.181.376-.28.605-.278l11.292.106c.463.005.839.431.833.951l-.081 8.63c-.002.248-.09.483-.247.658-.161.182-.376.28-.605.279l-11.292-.107h-.024zm16.49 19.382c-.419-.345-1.009-.531-1.713-.537l-.214-.003.001-.225.212-28.986c.006-.686-.24-1.335-.693-1.826-.453-.49-1.054-.763-1.702-.77L21.46 9.24c-.645-.006-1.254.256-1.716.738-.463.482-.721 1.126-.728 1.813l-.13 14.868c.005.115-3.194 18.847-12.424 16.922-3.247-.843-5.415-2.557-3.817-7.103.002-.004.002-.012.003-.017l.625.058c.36.122.74-.114.808-.5l.31-1.75s1.396.71 3.917.976c3.2.393 3.607-1.206 3.984-1.904.376-.697.939-7.074.939-7.074.387-2.76-.137-3.596-.164-3.57 1.468-2.991-1.445-6.088-1.445-6.088l.737-2.065c.071-.202-.018-.426-.205-.516l-3.66-1.758c-.196-.093-.428-.005-.52.198l-1.38 3.043s-1.024-.293-2.681.585c-2.564 1.734-4.27 7.36-3.85 8.225.422.863 1.194 1.624 1.194 1.624-.283.76-.856 7.701-1.014 9.66-.024.3.154.578.43.672l.209.019c-.972 5.655 1.126 8.543 4.965 9.21 11.076 1.924 13.111-13.57 13.111-13.57l-.151 9.225-.22-.002c-.698-.007-1.32.173-1.753.507-.468.362-.708.88-.715 1.539l-.02 1.147s1.389.54 5.697 1.182c8 1.282 16 0 16 0 .118.001 1.364-.504 1.449-.593.085-.088.132-.207.133-.334l.024-1.344c.006-.663-.215-1.185-.66-1.553z"/>
        <path fill="#6259AC" d="M5.507 24.884l-.822 7.442s3.667 1.576 5.352.497c.617-.395.863-.986 1.057-2.366.294-2.584.545-4.275.545-4.275l-6.132-1.298z"/>
        <path fill="#8991F1" d="M6.553 25.136l-.301 2.74 1.808 3.468c.32.614 1.112.742 1.595.257.329-.33.405-.85.186-1.268L8.39 27.56l.4-1.975-2.236-.45z"/>
        <path fill="#FB0" d="M20.358 3.002c1.837-.872 3.51-4.062 5.101-2.644 1.681 1.499-1.616 3.77-5.101 2.644M21.1 3.922s4.06.25 3.548 1.665C23.95 7.52 21.1 3.922 21.1 3.922M25.166 3.466c1.264 1.594 6.456 1.382 6.894-.762.605-2.964-6.172.187-6.894.762"/>
        <path fill="#F5AA14" d="M23.552 48.443c0 1.035-2.045 1.875-4.567 1.875-2.522 0-4.566-.84-4.566-1.875 0-.464-.314-1.965.365-2.293.838-.403 2.809 0 4.201 0h3.836c1.096 0 .73 1.73.73 2.293"/>
        <path fill="#FFDB00" d="M23.552 46.776c0 1.035-2.045 1.875-4.567 1.875-2.522 0-4.566-.84-4.566-1.875 0-1.036 2.044-1.875 4.566-1.875s4.567.84 4.567 1.875"/>
        <path fill="#F5AA14" d="M24.5 46.028c0 .989-1.95 1.79-4.358 1.79-2.407 0-4.357-.801-4.357-1.79 0-.442-.3-1.875.349-2.186.799-.386 2.68 0 4.008 0h3.66c1.047 0 .698 1.65.698 2.186"/>
        <path fill="#FFDB00" d="M24.5 44.438c0 .988-1.95 1.79-4.358 1.79-2.407 0-4.357-.802-4.357-1.79 0-.989 1.95-1.79 4.357-1.79 2.408 0 4.358.801 4.358 1.79"/>
        <path fill="#323B7E" d="M40.741 32.249H23.436c-1.124 0-2.035-.95-2.035-2.121v-1.655c0-1.172.91-2.122 2.035-2.122h17.305c1.125 0 2.035.95 2.035 2.122v1.655c0 1.17-.91 2.12-2.035 2.12"/>
        <path fill="#FAFAFF" d="M23.347 28.257c-.132 0-.209.16-.125.268.484.616 1.554 2.315 1.554 5.282v11.305c0 1.74.742 3.202 2.311 3.202l14.58-.05v-15.59c0-2.445-1.273-4.417-2.843-4.417H23.347z"/>
        <path fill="#768AC1" d="M27.087 48.314s1.301-.226 1.262-3.882c-.16-2.95 2.063-4.755 3.611-1.676 0 .132 11.283.14 11.283.14s1.128 4.701-.516 5.464c.12.21-15.64-.046-15.64-.046"/>
        <path fill="#FFFFFE" d="M43.619 50.73s1.127-9.4-1.88-9.792c-.039-.044-11.65 0-11.725.21 1.955.182 1.579 9.582 1.579 9.974l1.879-1.567 1.462 1.458 1.92-1.458 1.365 1.351 1.642-1.35 1.504 1.248 1.126-1.249 1.128 1.175z"/>
        <path fill="#A9ADD3" d="M36.775 33.462h-9.182c-.305 0-.553-.274-.553-.612 0-.339.248-.613.553-.613h9.182c.305 0 .552.274.552.613 0 .338-.247.612-.552.612M36.775 37.25h-9.182c-.305 0-.553-.274-.553-.613 0-.339.248-.612.553-.612h9.182c.305 0 .552.273.552.612 0 .339-.247.613-.552.613M36.775 40.735h-9.182c-.305 0-.553-.274-.553-.613 0-.339.248-.612.553-.612h9.182c.305 0 .552.273.552.612 0 .339-.247.613-.552.613M28.344 44.615h-.717c-.324 0-.587-.273-.587-.612 0-.338.263-.612.587-.612h.77l-.053 1.224z"/>
        <path fill="#7F87B2" d="M40.26 33.462h-1.133c-.306 0-.553-.274-.553-.612 0-.339.247-.613.553-.613h1.133c.305 0 .553.274.553.613 0 .338-.248.612-.553.612M40.435 37.25h-1.133c-.306 0-.553-.274-.553-.613 0-.339.247-.612.553-.612h1.133c.306 0 .553.273.553.612 0 .339-.247.613-.553.613M40.435 40.735h-1.133c-.306 0-.553-.274-.553-.613 0-.339.247-.612.553-.612h1.133c.306 0 .553.273.553.612 0 .339-.247.613-.553.613"/>
        <path fill="#A9ADD3" d="M39.03 46.218h-5.424c-.305 0-.553-.274-.553-.613 0-.337.248-.611.553-.611h5.424c.305 0 .552.274.552.611 0 .34-.247.613-.552.613"/>
        <path fill="#7F87B2" d="M41.66 42.897h-8.806c-.305 0-.552-.144-.552-.323 0-.178.247-.323.552-.323h8.806c.306 0 .553.145.553.323 0 .179-.247.323-.553.323M42.69 46.218h-1.133c-.306 0-.552-.274-.552-.613 0-.337.246-.611.552-.611h1.133c.306 0 .553.274.553.611 0 .34-.247.613-.553.613"/>
    </g>
</svg>
