<svg xmlns="http://www.w3.org/2000/svg" xmlns:xlink="http://www.w3.org/1999/xlink" width="80" height="80" viewBox="0 0 80 80">
    <defs>
        <path id="a" d="M0 0h70v70H0z"/>
    </defs>
    <g fill="none" fill-rule="evenodd" transform="translate(5 5)">
        <mask id="b" fill="#fff">
            <use xlink:href="#a"/>
        </mask>
        <g mask="url(#b)">
            <path fill="#FFCB1A" d="M56.781 13.75c-4.845 5-6.511 15 0 15 6.512 0 5.155-10 0-15z"/>
            <path fill="#D8D8D8" d="M55.587 7.825l.033 3.75-10.365.34a12 12 0 0 0-4.198.908l-14.076 5.83 1.914-4.619 11.304-4.872a12 12 0 0 1 4.354-.973l11.034-.364z"/>
            <path fill="#203851" d="M33.794 12.005l3.383 8.166 3.425 8.268a4 4 0 0 1 0 3.062l-5.776 13.944a2 2 0 0 1-2.613 1.082l-9.47-3.922a1 1 0 0 1 .54 1.306l-1.147 2.772a1 1 0 0 1-1.307.541l-7.39-3.061a1 1 0 0 1-.542-1.307l1.148-2.771a1 1 0 0 1 1.307-.542l1.386.573 4.879-11.778a1 1 0 0 0-.541-1.307l-1.848-.765a2 2 0 0 1-1.083-2.613l1.95-4.706a4 4 0 0 1 2.164-2.164l11.535-4.778zM36.08 24.45l-8.217 3.405a2 2 0 0 0-1.083 1.082L22.314 39.72l8.546 3.54a2 2 0 0 0 2.613-1.081l4.34-10.48a4 4 0 0 0 0-3.062l-1.733-4.186z"/>
            <path fill="#0E161D" d="M23.777 36.189l3.52 1.458a2 2 0 0 0 2.727-1.46l2-10.111-4.899 2.029-3.348 8.084z"/>
            <path fill="#D8D8D8" fill-rule="nonzero" d="M14.824 44.737L9.562 57.44c-1.435 3.465-6.334 5.494-10.954 3.58l-1.913 4.62c8.144 3.374 14.591.703 17.487-6.286l5.262-12.704-4.62-1.913z"/>
        </g>
    </g>
</svg>
