<svg xmlns="http://www.w3.org/2000/svg" xmlns:xlink="http://www.w3.org/1999/xlink" width="154" height="143" viewBox="0 0 154 143">
    <defs>
        <path id="prefix__a" d="M0.272 0.42L6.056 0.42 6.056 29.615 0.272 29.615z"/>
        <path id="prefix__c" d="M0 0.402L3.835 0.402 3.835 4.5 0 4.5z"/>
    </defs>
    <g fill="none" fill-rule="evenodd">
        <path fill="#778AA5" d="M70.44 132.44l2.749 4.412h21.017s-3.286-9.675-6.497-15.268c-3.743-6.517-5.727-9.139-5.727-9.854 0-1.328-.686-5.754-.686-5.754l-33.349.795c-3.449 8.163-.793 22.11.867 30.08H70.57l-.13-4.411z" transform="matrix(-1 0 0 1 147.077 5.923)"/>
        <path fill="#5B7089" d="M70.44 132.44l2.787 4.472h3.098s-4.334-12.625-4.514-17.68l-1.8.784.402 12.08.158 4.816-.131-4.472z" transform="matrix(-1 0 0 1 147.077 5.923)"/>
        <g transform="matrix(-1 0 0 1 147.077 5.923) translate(49.923 107.306)">
            <mask id="prefix__b" fill="#fff">
                <use xlink:href="#prefix__a"/>
            </mask>
            <path fill="#5B7089" d="M2.053.55c0 3.655-3.64 7.222 4.003 29.066H4.838C-1.602 12.036.392 2.116 1.24.42l.812.13z" mask="url(#prefix__b)"/>
        </g>
        <path fill="#5B7089" d="M58.088 117.967s7.223-.361 11.918 2.347c5.778-3.07 7.764-5.237 7.764-5.237-5.237 1.987-7.584 3.793-7.584 3.793-5.778-2.709-12.098-.903-12.098-.903" transform="matrix(-1 0 0 1 147.077 5.923)"/>
        <path fill="#99BF1C" d="M79.691 49.253c3.406-3.717 7.28-5.485 12.667-9.749 3.991-3.16 6.296-6.507 7.345-7.766-1.204-2.53-3.674-6.514-3.777-6.927-.226-.9 1.916-9.005 9.324-10.857.668.169 3.783 4.306 5.774 8.599 1.812 3.903 4.618 9.662 4.002 12.543-.63 2.938-2.939 7.556-10.299 15.884C94.646 62.386 85.2 72.084 85.2 72.084L79.69 49.253z" transform="matrix(-1 0 0 1 147.077 5.923)"/>
        <path fill="#3686C8" d="M78.376 31.404s6.014-9.473-5.8-10.78c1.252-3.594-1.093-6.903-4.4-6.096-3.306.808-3.528 3.49-6.557 2.95-3.029-.541-5.177.82-5.876 3.254-.7 2.435-.37 5.494-3.085 7.68-2.713 2.186-3.85 6.91.8 9.454-2.136 3.23 2.847 7.297 6.387 5.678.343 3.392 4.312 5.631 7.654.88 7.276-9.66 10.877-13.02 10.877-13.02" transform="matrix(-1 0 0 1 147.077 5.923)"/>
        <path fill="#FFD54B" d="M76.618 44.45l-.79 7.94s-7.73 3.455-12.506-1.184c1.184-4.344 1.031-8.572 1.031-8.572l12.265 1.817z" transform="matrix(-1 0 0 1 147.077 5.923)"/>
        <path fill="#F89D45" d="M76.63 45.108l-.272 1.998s-6.905 3.234-12.171-.847c.05-.473.084-.99.09-1.545.005-.452-.007-.878-.034-1.276l12.387 1.67z" transform="matrix(-1 0 0 1 147.077 5.923)"/>
        <path fill="#FFD54B" d="M64.193 22.413c5.506-2.708 9.795 1.857 15.53 12.214 1.556 2.81 1.409 8.06-1.33 10.013-3.23 2.304-8.434 2.706-13.29.047-1.947-1.067-2.163-1.462-4.217-4.328-6.796-9.481-3.807-14.448 3.307-17.946" transform="matrix(-1 0 0 1 147.077 5.923)"/>
        <path fill="#3686C8" d="M72.05 22.472s.849 3.278-1.13 4.072c-.813.39-1.47-3.418-1.47-3.418-.689 4.432-4.732 8.484-8.528 8.833 3.248 2.917 2.485 7.873-.152 9.878-6.218-5.443-7.562-14.31-1.15-19.433 6.412-5.122 12.43.068 12.43.068" transform="matrix(-1 0 0 1 147.077 5.923)"/>
        <path fill="#F89D45" d="M71.214 30.764c2.082 3.089 5.99 3.5 6.257 4.658.186.813-1.396 1.585-2.97.892-2.716-1.195-4.865-4.565-4.865-4.565l1.578-.985z" transform="matrix(-1 0 0 1 147.077 5.923)"/>
        <path fill="#FFD54B" d="M47.415 56.255c-4.253 4.253-.531 20.206 2.66 27.65 3.19 7.445.265 13.029-2.128 22.866 11.167 8.242 26.702 7.448 33.348-.795 2.394-12.23 9.24-28.275 11.359-39.13 2.127-10.9.226-20.695-6.155-19.897-6.38.797-8.508 3.988-20.206 3.456-5.372-.244-14.623 1.595-18.878 5.85z" transform="matrix(-1 0 0 1 147.077 5.923)"/>
        <path fill="#99BF1C" d="M77.991 48.78c-.38.203-.426.532-.411.62.22-.062.402-.092.491-.115.431 2.31 2.002 9.117-3.141 14.382C64.199 60.885 61.164 52.66 60.59 50.77c.19-.035.247-.042.401-.063-.035-.124-.162-.401-.534-.362-4.753.754-10.126 2.995-13.04 5.91-4.255 4.254-.532 20.207 2.658 27.651 3.081 7.191.458 12.646-1.882 21.875-.045.18-.366.336-.411.518-.037.149.026.353.078.497 10.52 9.307 29.074 7.138 35.722-1.105.298-1.155.164-2.1.515-3.298 4.343-14.793 10.46-31.716 10.25-42.738-.213-11.105-1.466-13.503-7.848-12.705-3.255.407-5.63.99-8.508 1.832z" transform="matrix(-1 0 0 1 147.077 5.923)"/>
        <path fill="#99BF1C" d="M31.464 94.009c-3.4-6.142 8.207-31.696 15.952-37.755 3.861-3.02 9.838 4.52 11.167 9.572 1.33 5.051-7.18 14.092-11.167 21.004 0 0 2.71 1.165 4.613 2.18 0 0 1.775 5.58-6.342 12.558-11.418-1.903-14.223-7.56-14.223-7.56" transform="matrix(-1 0 0 1 147.077 5.923)"/>
        <path fill="#FFD54B" d="M50.253 89.517c-3.149 1.232-6.13 6.694-5.275 10.935 8.542 1.06 14.408 1.326 17.874 1.86 2.4 0 3.89-4.074 2.652-6.682-7.683-1.213-11.496-4.88-15.251-6.113" transform="matrix(-1 0 0 1 147.077 5.923)"/>
        <path fill="#FFD54B" d="M73.728 94.678l.027-.019s.344-1.389-.989-1.912c-.522-.206-2.366-1.288-3.568-.856-1.841.66-3.219 2.799-5.583 3.446-.34.415-1.255 1.646-1.378 3.489-.12 1.786.578 3.095.854 3.56 3.56 1.14 7.115 2.215 8.785 1.406 1.67-.81 1.994-1.638 2.279-2.706 1.298.673 1.979-1.093 1.494-2.92 0 0 1.157.872 1.3-.623.21-1.87-1.823-2.733-3.221-2.865" transform="matrix(-1 0 0 1 147.077 5.923)"/>
        <path fill="#F89D45" d="M73.761 94.683c-1.135-.233-3.041.145-3.736-.466.906.178 1.38-.004 2.042-.169.66-.165 1.108-.105 1.698.142.02.26-.004.493-.004.493" transform="matrix(-1 0 0 1 147.077 5.923)"/>
        <path fill="#FFD54B" d="M89.794 1.965c3.728 2.37 8.45 5.56 15.708 14.162-2.151 7.93-7.057 7.425-7.057 7.425-3.522-6.117-7.608-14.383-11.292-17.541-.175-3.86 2.64-4.046 2.64-4.046" transform="matrix(-1 0 0 1 147.077 5.923)"/>
        <path fill="#FFD54B" d="M91.198 4.235c.017 1.661.13 4.267-2.245 3.3-.417 1.447-3.398 1.952-3.796 1.166-.314.865-2.597 1.852-3.318.2-.581 1.446-3.155.755-3.038-.63-1.97 1.265-2.854-.792-2.065-3.105.509-1.492 1.31-3.24 2.451-4.507.956-1.061 4.589-.902 9.725.931 1.492.51 2.269 1.1 2.286 2.645" transform="matrix(-1 0 0 1 147.077 5.923)"/>
        <path fill="#FFD54B" d="M78.728 7.541c-.547.82-.433 2.601 1.278 3.091 1.71.49 1.82 1.243 2.392.986.571-.257 1.646-1.26-.22-3.797-1.774-2.41-3.45-.28-3.45-.28" transform="matrix(-1 0 0 1 147.077 5.923)"/>
        <path fill="#F89D45" d="M78.707 8.098c.147-1.207.793-4.438 2.356-5.815-1.173.193-3.45 4.174-2.356 5.815M81.02 8.57c.147-1.208.792-4.44 2.356-5.816-1.174.192-3.451 4.173-2.356 5.815M83.557 8.814c.147-1.208.793-4.44 2.356-5.816-1.173.192-3.451 4.173-2.356 5.816" transform="matrix(-1 0 0 1 147.077 5.923)"/>
        <path fill="#7E0471" d="M132.891 73.327L133.233 69.046 129.721 70.894z" transform="matrix(-1 0 0 1 147.077 5.923)"/>
        <path fill="#CA5F00" d="M127.19 44.312c.11-.43-.15-.868-.58-.977-.43-.11-.867.15-.976.58-.11.43.15.868.58.977.43.11.867-.15.977-.58" transform="matrix(-1 0 0 1 147.077 5.923)"/>
        <path fill="#99BF1C" d="M124.517 20.512L122.984 21.936 125.518 26.404 127.737 25.066zM105.585 84.754L103.922 83.483 99.947 86.736 101.641 88.697z" transform="matrix(-1 0 0 1 147.077 5.923)"/>
        <path fill="#FA6775" d="M113.146 53.71L111.547 55.06 113.869 59.641 116.149 58.409z" transform="matrix(-1 0 0 1 147.077 5.923)"/>
        <path fill="#FFAB2A" d="M126.428 98.139c-.12.47-.597.753-1.066.634-.469-.12-.752-.597-.634-1.066.12-.47.597-.753 1.066-.634.47.12.754.596.634 1.066" transform="matrix(-1 0 0 1 147.077 5.923)"/>
        <path fill="#FA6775" d="M141.034 48.66c-.12.47-.597.754-1.066.634-.469-.119-.752-.596-.634-1.066.12-.469.597-.753 1.066-.634.47.12.753.597.634 1.067" transform="matrix(-1 0 0 1 147.077 5.923)"/>
        <path fill="#FFAB2A" d="M113.962 77.171L115.45 77.909 116.393 76.696 116.29 78.326 118.475 79.41 116.198 79.797 116.088 81.533 115.315 79.947 113.646 80.23 114.757 78.802z" transform="matrix(-1 0 0 1 147.077 5.923)"/>
        <path fill="#FA6775" d="M108.813 102.195L110.229 102.898 111.126 101.744 111.028 103.294 113.107 104.327 110.94 104.695 110.835 106.346 110.1 104.837 108.513 105.107 109.57 103.747z" transform="matrix(-1 0 0 1 147.077 5.923)"/>
        <path fill="#7E0471" d="M11.857 34.358c0-.783-.634-1.417-1.417-1.417s-1.417.634-1.417 1.417.634 1.417 1.417 1.417 1.417-.634 1.417-1.417" transform="matrix(-1 0 0 1 147.077 5.923)"/>
        <g transform="matrix(-1 0 0 1 147.077 5.923) translate(0 62.46)">
            <mask id="prefix__d" fill="#fff">
                <use xlink:href="#prefix__c"/>
            </mask>
            <path fill="#CA5F00" d="M1.281 0.402L-0.001 4.5 3.835 3.475z" mask="url(#prefix__d)"/>
        </g>
        <path fill="#3686C8" d="M119.3 5.38L117.312 3.632 119.891 4.095 120.948 1.795 121.498 4.33 125.013 4.845 121.922 6.277 122.642 9.588 120.525 6.924 118.067 8.063z" transform="matrix(-1 0 0 1 147.077 5.923)"/>
        <path fill="#F89D45" d="M31.764 44.573L30.548 46.275 33.927 50.143 35.833 48.387z" transform="matrix(-1 0 0 1 147.077 5.923)"/>
        <path fill="#FA6775" d="M40.411 2.834L39.195 4.536 42.575 8.404 44.48 6.648z" transform="matrix(-1 0 0 1 147.077 5.923)"/>
        <path fill="#99BF1C" d="M23.733 16.815L21.7 16.318 19.364 20.892 21.703 22.009zM25.248 72.053L23.216 71.557 20.879 76.131 23.218 77.248z" transform="matrix(-1 0 0 1 147.077 5.923)"/>
        <path fill="#FA6775" d="M25.248 34.59c0 .429-.347.777-.775.777-.428 0-.775-.348-.775-.776 0-.428.347-.775.775-.775.428 0 .775.347.775.775M44.604 23.832L43.164 24.181 42.619 22.773 42.351 24.378 40.237 24.891 42.11 25.826 41.825 27.536 42.835 26.189 44.206 26.876 43.564 25.217z" transform="matrix(-1 0 0 1 147.077 5.923)"/>
        <path fill="#F89D45" d="M15.939 90.686L14.499 91.035 13.954 89.627 13.686 91.232 11.572 91.745 13.445 92.68 13.16 94.39 14.17 93.043 15.541 93.73 14.899 92.071z" transform="matrix(-1 0 0 1 147.077 5.923)"/>
        <path fill="#99BF1C" d="M20.159 54.463c0 .67-.545 1.216-1.216 1.216-.671 0-1.216-.545-1.216-1.216 0-.671.545-1.216 1.216-1.216.67 0 1.216.545 1.216 1.216" transform="matrix(-1 0 0 1 147.077 5.923)"/>
    </g>
</svg>
