<svg xmlns="http://www.w3.org/2000/svg" width="40" height="41" viewBox="0 0 40 41">
    <g fill="none" fill-rule="evenodd" stroke="none">
        <path fill="#120149" d="M30.864 19.354c1.195-1.179 2.03-1.96 2.474-2.512.42-.528.464-.845.12-1.133-.786-.656-4.166 2.88-4.45 3.183.247.545.176 1.256.175 1.495.005.044.162.14.165.178.502-.363 1.129-.85 1.516-1.21zM7.53 29.031c1.088-.185 2.423-.49 3.903-.893.006-.09.02-.233.037-.412.02-.498.068-.958.09-1.345.012-.234.001-.447-.008-.66-3.63.785-7.345 1.13-10.619.555.315 1 .722 1.957 1.181 2.884 1.677.17 3.542.188 5.415-.129M11.804 22.34c.496-.193.985-.38 1.464-.551l.11-.04-.045-.047c-.33-.356-2.73-2.835-6.778-3.34l-.125.095c-.647.495-3.714 2.974-2.588 4.53 1.866 1.39 4.343.71 6.78-.198.396-.147.79-.298 1.182-.45"/>
        <path fill="#FF2751" d="M13.109 27.508a12.677 12.677 0 0 0-.12-2.06c-.252-1.742-.842-2.687-1.186-3.108-.391.151-.785.303-1.18.45.329.47.862 1.465.929 2.93.009.214.02.427.007.662-.022.386-.068.846-.09 1.344-.005.132-.008.268-.01.404l.035-.008a67.092 67.092 0 0 0 1.618-.463c-.001-.05-.004-.104-.003-.151"/>
        <path fill="#FF2751" d="M16.823 24.363a6.346 6.346 0 0 0-.187-.691c-1.55-4.687-8.72-6.749-9.352-6.573-.512.142-1.031.745-.826 1.224 0 0-.014.055-.027.133.073-.057.124-.094.124-.094 4.048.505 6.447 2.984 6.778 3.34.016-.003.03-.003.047-.005.022.013.054.04.096.077.337.313 1.26 1.472 1.73 3.073.174.593.284 1.245.277 1.94 0 .04.003.078.002.117.453-.155.9-.306 1.377-.48l.103-.03c.03-.65.007-1.329-.142-2.031M29.176 18.651c-.008-.029-.018-.059-.025-.088l-.007-.024-.081-.274a10.682 10.682 0 0 0-1.196-2.576c-.034-.053-.064-.107-.099-.16-.791-.234-2.15 2.594-1.775 5.115.084.571.26 1.125.548 1.626 1.903-1.098 2.954-1.88 2.954-1.88v-.069a10.393 10.393 0 0 0-.319-1.67"/>
        <path fill="#FFE473" d="M36.257 32.43c-7.905 3.371-15.227 5.646-21.673 7.165a20.16 20.16 0 0 0 5.618.81c6.555 0 12.364-3.138 16.055-7.976"/>
        <path fill="#FFEDC5" d="M37.864 27.075c-1.717-1.294-4.41-1.235-5.76-1.104a.355.355 0 0 0-.188.628c.875.717 2.495 2.075 3.866 3.394l.008-.004.213.216c.389.38.753.753 1.065 1.103a20.131 20.131 0 0 0 2.046-4.057c-.336.114-.753.115-1.25-.176"/>
        <path fill="#FF787F" d="M37.063 31.316a42.723 42.723 0 0 0-1.06-1.111l-.213-.216-.007.003c-.099.049-10.122 4.947-25.518 7.787a20.057 20.057 0 0 0 4.32 1.817c6.444-1.52 13.768-3.794 21.672-7.167.278-.364.554-.73.806-1.113"/>
        <path fill="#5F5F72" d="M0 20.202c0 1.302.135 2.572.37 3.806.597-1.013 1.24-2.12 1.938-3.333C6.978 12.307 17.315 4.806 22.192.1c-.656-.064-1.319-.1-1.99-.1C9.044 0 0 9.044 0 20.202"/>
        <path fill="#294F75" d="M26.197 26.557a2.446 2.446 0 0 0 .75 4.833 2.445 2.445 0 1 0-.749-4.833"/>
        <path fill="#26F97B" d="M26.324 27.537a1.762 1.762 0 1 0 .541 3.483 1.762 1.762 0 0 0-.541-3.483"/>
        <path fill="#82E2B0" d="M15.206 24.846c-.47-1.6-1.393-2.76-1.731-3.071l-.207.014c-.479.17-.969.359-1.464.551.344.42.932 1.366 1.185 3.108.086.59.134 1.273.12 2.06l.003.151a81.18 81.18 0 0 0 2.207-.697l.136-.047c.01-.042.018-.085.029-.127a6.715 6.715 0 0 0-.278-1.942"/>
        <path fill="#FFC300" d="M13.056 11.64c-2.276 1.345-4.834 3.548-5.771 5.46.63-.177 7.8 1.885 9.352 6.57.076.234.137.465.186.693.148.702.173 1.38.141 2.032l.106-.03c3.186-1.125 6.467-2.486 9.18-3.931.097-.054.2-.111.292-.164a4.572 4.572 0 0 1-.55-1.625c-.373-2.52.982-5.343 1.772-5.116-2.963-4.963-9.387-7.03-14.708-3.888M27.768 15.529h-.003c.033.055.071.106.103.16-.035-.052-.065-.106-.1-.16"/>
        <path fill="#000" fill-opacity=".37" d="M29.151 18.563c-.907.747-1.988 1.441-3.158 2.081-2.909 1.594-6.375 2.85-9.17 3.718a79.94 79.94 0 0 1-3.833 1.086 10.99 10.99 0 0 1-1.425.272s-.064 1.215-.133 1.94c-.006.13.001.342 0 .479l.063-.017a78.104 78.104 0 0 0 1.617-.463c.716-.213 1.456-.45 2.207-.697l.136-.047c.01-.042.031-.05.03-.011.454-.156.9-.306 1.377-.48l.103-.03c.035-.008.07-.02.104-.029 3.188-1.125 6.469-2.486 9.182-3.932.097-.053.198-.11.29-.163 1.903-1.098 2.965-1.831 2.954-1.79v-.159a10.405 10.405 0 0 0-.319-1.67c-.008-.029-.018-.059-.025-.088z"/>
        <path fill="#FFE473" d="M26.946 31.39a2.445 2.445 0 1 1-.748-4.832 2.445 2.445 0 0 1 .748 4.832m8.962-14.953c.205-.63.514-1.24.45-1.632-.066-.398-.518-.574-1.857-.324-2.903.54-5.464 3.691-5.464 3.691l.026.092.08.275.009.024c.003-.003.031.117.052.166.285-.303 3.467-3.676 4.253-3.02.345.289.3.605-.119 1.133-.43.543-1.256 1.312-2.475 2.512-.386.36-.855.722-1.357 1.085a27.754 27.754 0 0 1-2.964 1.833c-.098.054-.19.109-.291.161-2.713 1.446-5.994 2.807-9.181 3.932a87.862 87.862 0 0 1-3.959 1.294 72.152 72.152 0 0 1-1.634.468l-.017.004-.014.003c-.02.149-.022.126-.014.005-1.478.402-2.814.707-3.903.893-1.873.317-3.738.298-5.415.127a20.27 20.27 0 0 0 8.15 8.62c15.398-2.84 25.42-7.738 25.518-7.787-1.371-1.319-2.99-2.676-3.866-3.394a.354.354 0 0 1 .188-.627c1.35-.13 4.043-.19 5.76 1.104.498.292.914.29 1.25.177.154-.413.308-.825.435-1.25-3.537-3.056-6.146-4.383-6.146-4.383s2.093-3.912 2.505-5.182z"/>
    </g>
</svg>
