<svg xmlns="http://www.w3.org/2000/svg" width="74" height="63" viewBox="0 0 74 63">
    <g fill="none" fill-rule="evenodd">
        <g transform="translate(1 1)">
            <g fill="#4A377B">
                <path d="M26.233 12.17c4.522-.421 8.011.801 10.37 2.119-2.383 1.925-5.37 5.036-5.981 8.859-.428 2.673.362 5.233 2.35 7.607 3.425 4.091 4.885 7.902 4.232 11.03-.058.196-.095.402-.162.591-.743 2.097-2.119 3.59-3.875 4.202-1.033.36-2.12.596-3.234.7-7.902.737-16.251-5.109-18.236-12.77-1.388-5.361-.684-10.836 1.934-15.018 2.295-3.667 5.899-6.086 10.42-6.998a21.178 21.178 0 0 1 2.182-.322zm.835 26.05a2.586 2.586 0 1 0 4.405 2.715 2.586 2.586 0 0 0-.845-3.56 2.585 2.585 0 0 0-3.56.844z"/>
                <path d="M40.052 15.786c-2.905 1.84-5.729 4.583-6.253 7.871-.21 1.298-.13 2.236.499 3.343.054.097.104.175.16.269l7.877-5.003 2.194-1.397s.701-.51 1.04-.764c.9-.645 2.201-1.866 2.021-3.039-.305-1.99-7.538-1.28-7.538-1.28M36.398 29.854c3.175 4.33 4.739 8.965 3.946 12.65-.011.044-.026.086-.037.13 2.424-.483 5.16-2.114 6.002-5.985.779-3.576-1.726-8.297-3.084-11.137l-6.827 4.342z"/>
            </g>
            <circle cx="29.538" cy="29.538" r="29.538" stroke="#4A377B" stroke-width="2"/>
        </g>
        <path fill="#FF4C5A" stroke="#FFF" stroke-width="2.6" d="M59.22 32.781l12.44 22.392a4.3 4.3 0 0 1-3.759 6.389h-24.88a4.3 4.3 0 0 1-3.758-6.389l12.44-22.392a4.3 4.3 0 0 1 7.517 0z"/>
        <path fill="#FFF" fill-rule="nonzero" d="M55.154 50.846c-.802 0-1.46-.636-1.486-1.438l-.3-9.024a1.786 1.786 0 1 1 3.57 0l-.298 9.024a1.487 1.487 0 0 1-1.486 1.438zm-1.846 4.314c0-.266.044-.513.131-.739a1.689 1.689 0 0 1 .949-.975c.225-.092.478-.138.76-.138.282 0 .537.046.766.139a1.677 1.677 0 0 1 .955.974c.087.226.131.473.131.739s-.044.51-.131.732a1.677 1.677 0 0 1-.955.968 2.02 2.02 0 0 1-.766.14c-.282 0-.535-.046-.76-.14a1.689 1.689 0 0 1-.949-.968 1.977 1.977 0 0 1-.131-.732z"/>
    </g>
</svg>
