<svg xmlns="http://www.w3.org/2000/svg" xmlns:xlink="http://www.w3.org/1999/xlink" width="70" height="73" viewBox="0 0 70 73">
    <defs>
        <path id="prefix__a" d="M0.386 0.435L29.885 0.435 29.885 34.246 0.386 34.246z"/>
    </defs>
    <g fill="none" fill-rule="evenodd">
        <g transform="translate(0 .222)">
            <circle cx="35" cy="35" r="35" fill="#000"/>
            <g>
                <path fill="#E9A23A" d="M14.286 19.856s-3.375 6.577-3.848 8.222c-.473 1.645 1.306 9.81 8.053 8.516 6.747-1.294 4.744-17.83 4.744-17.83l-8.949 1.092z" transform="translate(14 14.778)"/>
                <path fill="#F6CF62" d="M41.376 17.19c1.504 11.306-5.85 19.479-16.97 22.025-5.572 1.276-9.9-8.165-4.405-15.04 1.937-2.423.5-5.275-.881-7.63C17.15 13.19 7.61 9.018 9.85 6.16c2.343-2.987 5.628-5.15 10.043-5.876 11.255-1.854 19.978 5.6 21.483 16.907" transform="translate(14 14.778)"/>
                <path fill="#EB5A5F" d="M41.53 19.13s-6.806.51-8.26 7.06c-.853 3.842 2.05 5.736 3.676 6.092 3.115-3.45 4.833-7.918 4.603-13.132l-.019-.02" transform="translate(14 14.778)"/>
                <path fill="#335B9F" d="M14.763 20.65s-.734 2.831-2.509 5.545c-1.809 2.766-1.783 8.642 4.53 9.95.235.046 1.503.722.488 1.164-.519.146-5.293-.239-7.452-4.685-2.126-4.379.875-7.124 1.932-9.566 1.055-2.442 1.292-3.676 1.292-3.676l1.72 1.267z" transform="translate(14 14.778)"/>
                <g transform="translate(14 14.778) translate(0 5.724)">
                    <mask id="prefix__b" fill="#fff">
                        <use xlink:href="#prefix__a"/>
                    </mask>
                    <path fill="#335B9F" d="M7.955 2.129S-.635.873.488 5.345c1.123 4.472 8.09 8.597 18.416 10.708.46.468-.66 3.895-2.283 7.74-2.218 5.258.815 10.693 6.825 10.445 4.558-.475 6.72-2.083 6.41-2.438-.311-.355-7.207 1.864-9.928-1.98-2.706-3.825 2.501-7.885 2.186-14.3C21.696 6.986 10.957.415 9.85.435c-.898.017-2.014.8-1.895 1.694" mask="url(#prefix__b)"/>
                </g>
                <path fill="#284C80" d="M8.023 7.905s11.864 9.65 10.902 13.883c.103.178 2.167-2.683-3.13-8.462-6.042-6.592-7.772-5.421-7.772-5.421" transform="translate(14 14.778)"/>
                <path fill="#133056" d="M8.096 7.96S-1.947 5.89.338 12.119c1.901 4.562 8.989 7.713 18.66 9.726.045.112.122-6.95-10.902-13.883" transform="translate(14 14.778)"/>
            </g>
        </g>
        <g>
            <path d="M0 0H24V24H0z" transform="translate(46 50)"/>
            <g>
                <path fill="#FF4C5A" stroke="#FFF" stroke-width="2" d="M19.405 13.02L12.847 1.654C12.256.631 11.164 0 9.982 0 8.8 0 7.708.63 7.117 1.654L.443 13.214c-.59 1.024-.59 2.285 0 3.309.591 1.023 1.683 1.654 2.865 1.654h13.355c1.827 0 3.308-1.482 3.308-3.309 0-.684-.209-1.322-.566-1.848" transform="translate(46 50) translate(2 3)"/>
                <path fill="#FFF" d="M9.98 11.609h-.003c-.636-.001-1.152-.519-1.15-1.156l.011-6.122c.002-.636.518-1.15 1.153-1.15h.003c.637 0 1.152.518 1.15 1.155l-.011 6.122c-.001.636-.517 1.15-1.153 1.15M9.986 16.26c-.757 0-1.37-.613-1.37-1.37 0-.756.613-1.37 1.37-1.37.756 0 1.369.614 1.369 1.37 0 .757-.613 1.37-1.37 1.37" transform="translate(46 50) translate(2 3)"/>
            </g>
        </g>
    </g>
</svg>
