<svg xmlns="http://www.w3.org/2000/svg" width="20" height="20" viewBox="0 0 20 20">
    <path fill="#7A7A7A" fill-rule="evenodd" d="M10.75 1.667c2.982 0 5.723 1.449 7.415 3.835.513.725.327 1.73-.412 2.224l-3.126 2.083c-.103.069-.11.43.193 1.706l.243.994c.195.834.266 1.31.266 1.9 0 1.21-.446 2.236-1.453 2.907-1.728 1.153-4.49 1.288-8.39.596-.287-.05-.554-.18-.772-.374-1.924-1.712-3.047-4.161-3.047-6.788 0-5.017 4.066-9.083 9.083-9.083zm0 1.576c-3.05 0-5.675 1.819-6.85 4.43.642.406 1.1 1.481 1.1 2.744 0 1.404-.567 2.577-1.323 2.854.428 1.2 1.152 2.259 2.085 3.089 2.692.478 4.734.522 6.127.134.112-.774.015-1.802-.24-3.189l-.239-1.257c-.214-1.154-.285-1.724-.285-2.389 0-1.405 1.438-2.952 3.425-4.064.316-.177.64-.346 1.012-.53l.058-.028c-1.311-1.119-3.012-1.794-4.87-1.794zM16.2 5.59l-.024.011c-.484.235-.88.437-1.26.65-1.765.988-3.04 2.37-3.04 3.41 0 .571.06 1.087.24 2.076l.226 1.19c.255 1.338.385 2.405.34 3.266.113-.058.22-.12.32-.187 2.252-1.502-1.501-6.006.75-7.507l3.126-2.084c-.206-.291-.432-.567-.677-.825zM9.55 13.884c.435 0 .788.353.788.788 0 .435-.353.788-.788.788-.436 0-.788-.353-.788-.788 0-.435.352-.788.788-.788z"/>
</svg>
