<svg xmlns="http://www.w3.org/2000/svg" width="32" height="32" viewBox="0 0 32 32">
    <g fill="none" fill-rule="evenodd">
        <g fill="#FF9E00">
            <rect width="32" height="32" rx="4.571"/>
            <path d="M0 32c8.819-2.819 15.819-6.819 21-12 5.181-5.181 8.848-11.848 11-20v32H0z" opacity=".2" style="mix-blend-mode:multiply"/>
        </g>
        <path fill="#FFF" d="M4.5 7.924l.849.849-.849.848-.849-.848.849-.849zM3.227 6.651l.849.849-.849.849L2.38 7.5l.848-.849zm2.546 0l.848.849-.848.849-.849-.849.849-.849zM4.5 5.38l.849.848-.849.849-.849-.849.849-.848zm23-.455l.849.849-.849.848-.849-.848.849-.849zm-6.9-.173l.849.849-.849.849-.849-.849.849-.849zm5.627-1.1l.849.849-.849.849-.848-.849.848-.849zm2.546 0l.848.849-.848.849-.849-.849.849-.849zM27.5 2.38l.849.848-.849.849-.849-.849.849-.848zM11.6 1.75l.849.849-.849.849-.849-.849.849-.849z"/>
    </g>
</svg>
