<svg xmlns="http://www.w3.org/2000/svg" xmlns:xlink="http://www.w3.org/1999/xlink" width="34" height="38" viewBox="0 0 34 38">
    <defs>
        <radialGradient id="prefix__a" cx="55.492%" cy="-15.586%" r="97.661%" fx="55.492%" fy="-15.586%" gradientTransform="matrix(-.05623 .99217 -.26168 -.07312 .545 -.718)">
            <stop offset="0%" stop-color="#022E6D"/>
            <stop offset="100%" stop-color="#457AC5" stop-opacity="0"/>
        </radialGradient>
        <path id="prefix__b" d="M0.036 0.002L9.028 0.002 9.028 19.197 0.036 19.197z"/>
    </defs>
    <g fill="none" fill-rule="evenodd">
        <path fill="url(#prefix__a)" fill-opacity=".9" d="M0 46.734L16.467 16.907 67.116 16.507 53.008 37.981z" transform="translate(-20)"/>
        <g>
            <path fill="#0E2562" d="M6.936 18.264l4.002-1.266c.449 1.225-.633 1.613-.43 3.124.083.571.511.408.756 1.04l.062 1.552 1.286 1.021c.184.49-.429 1.062-.429 1.062s-1.347 1.531-2.307 1.368c-1.348-.204-2.94-7.901-2.94-7.901" transform="translate(-20) rotate(-3 49.202 -456.955)"/>
            <path fill="#141333" d="M10.509 20.122c-.184-1.45.755-1.858.47-2.94l-2.491.592-1.552.49s.04.224.143.612l3.512 1.47c-.041-.061-.062-.122-.082-.224" transform="translate(-20) rotate(-3 49.202 -456.955)"/>
            <path fill="#0E2562" d="M1.546 11.444l2.164-.775c.02.918.388 2.49 1.02 4.226.634 1.715 1.39 3.144 2.002 3.859l-2.164.775c-1.47.531-3.328-.857-4.166-3.083-.837-2.245-.326-4.47 1.144-5.002" transform="translate(-20) rotate(-3 49.202 -456.955)"/>
            <path fill="#7AB7F6" d="M16.144 10.75C14.409 6.075 13.837 1.87 14.714.725c-.122.123-.265.286-.428.531-1.45 2.144-3.88 6.758-12.21 9.74v.02c-.51.183-.224 2.225.634 4.532.857 2.328 1.96 4.063 2.47 3.88 8.33-2.981 13.23-.92 15.762-.205.796.225 1.245-.06 1.245-.06-1.327.51-4.103-3.227-6.043-8.413" transform="translate(-20) rotate(-3 49.202 -456.955)"/>
            <path fill="#B0DDFF" d="M14.327 2.706c.204-1.246.265-1.49.347-1.878l.02-.062c-.102.123-.245.266-.388.49-1.47 2.144-3.9 6.758-12.23 9.74-.353.147-.288.79-.247 1.34l.73-.265c7.676-2.716 10.22-6.112 11.73-8.378" transform="translate(-20) rotate(-3 49.202 -456.955)"/>
            <g transform="translate(-20) rotate(-3 49.202 -456.955) translate(14.256 .05)">
                <mask id="prefix__c" fill="#fff">
                    <use xlink:href="#prefix__b"/>
                </mask>
                <path fill="#0E2562" d="M1.112.063C-.5.655-.276 5.413 1.622 10.68c1.879 5.268 4.717 9.065 6.33 8.453 1.613-.593 1.388-5.35-.51-10.617C5.541 3.248 2.704-.53 1.111.063" mask="url(#prefix__c)"/>
            </g>
            <path fill="#141333" d="M17.9 12.771c-1.879-5.267-2.103-10.024-.51-10.616.347-.123.734-.062 1.163.183C17.37.685 16.205-.193 15.368.113c-1.613.592-1.388 5.35.51 10.617 1.491 4.165 3.574 7.39 5.166 8.269-1.102-1.511-2.225-3.696-3.144-6.228" transform="translate(-20) rotate(-3 49.202 -456.955)"/>
            <path fill="#DDF3FF" d="M15.409 8.586c-.082.02-.143.061-.204.082.184.673.408 1.347.653 2.062.368 1.02.776 2 1.205 2.899.061-.02.122-.04.163-.061 1.368-.51 2.083-2.022 1.593-3.41-.51-1.368-2.022-2.082-3.41-1.572" transform="translate(-20) rotate(-3 49.202 -456.955)"/>
            <path fill="#B9DCFF" d="M17.9 12.771c-.551-1.51-.94-2.98-1.205-4.328-.408-.061-.857-.02-1.286.143-.082.02-.143.061-.204.082.184.673.408 1.347.653 2.062.368 1.02.776 2 1.205 2.899.061-.02.122-.04.163-.061.306-.102.572-.266.796-.47-.04-.102-.081-.204-.122-.327" transform="translate(-20) rotate(-3 49.202 -456.955)"/>
        </g>
        <path stroke="#98CBF7" stroke-linecap="round" stroke-linejoin="round" stroke-width="1.35" d="M46.368 3.012L47.69.9M49.229 8.498L51.782 7.495M50.497 14.58L52.9 14.89" transform="translate(-20)"/>
    </g>
</svg>
