<svg xmlns="http://www.w3.org/2000/svg" width="24" height="24" viewBox="0 0 24 24">
    <path fill="#7A7A7A" fill-rule="evenodd" d="M20.25 2l.457.366c.498.398.777 1.01.749 1.648l-.017.386c-.026.603-.536 1.07-1.138 1.044-.056-.002-.112-.01-.167-.02-.421-.084-.83.189-.915.61-.024.12-.019.246.015.365l.15.525c.153.537-.158 1.096-.695 1.25-.181.052-.374.052-.555 0l-.138-.04c-.391-.111-.8.115-.912.507-.05.178-.033.368.05.533l.165.33c.355.71.256 1.564-.252 2.175l-.578.694c.552 1.39.685 2.935.345 4.436l-.066.27c-.693 2.61-2.731 4.649-5.341 5.342-2.61.693-5.39-.065-7.295-1.995-2.851-2.953-2.81-7.646.092-10.549 2.097-2.097 5.13-2.7 7.764-1.797l5.904-5.944C18.514 1.49 19.54 1.43 20.25 2zm-7.077 9.05C11 9.134 7.688 9.22 5.618 11.29c-2.13 2.132-2.16 5.577-.075 7.738 1.393 1.41 3.434 1.968 5.35 1.459 1.916-.509 3.413-2.005 3.922-3.922.509-1.916-.048-3.958-1.46-5.35l.021.02zm-3.673.182c.38 0 .693.282.743.648l.007.102v4c0 .38-.282.693-.648.743l-.102.007H7c-.414 0-.75-.336-.75-.75 0-.38.282-.694.648-.743L7 15.232h1.75v-3.25c0-.38.282-.694.648-.743l.102-.007z"/>
</svg>
