<svg xmlns="http://www.w3.org/2000/svg" width="205" height="183" viewBox="0 0 205 183">
    <g fill="none" fill-rule="nonzero">
        <path fill="#5C83FF" d="M206 8.9s-16.762-11.486-39.628-6.922c-19.813 3.955-35.598 18.787-36.656 39.553-7.926-10.878-36.655-10.878-45.572 11.865-12.458 30.607 12.8 63.061 6.43 83.052l-.755.01S90.089 173.043-7 183.92c1.723 1.338 212.031.99 212.031.99l.292-46.5.063-.01L206 8.899V8.9z"/>
        <path fill="#3A69DD" d="M205.497 115.005l.315-66.553H190.51v68.228l-5.809 2.967.968-87.016h-36.792l.968 87.016h-5.808V71.194l-25.174.99 1.937 58.34-4.38-1.8-1.428-65.44-27.11 1.978 4.84 69.217 112.623.628z"/>
        <path fill="#315CC9" d="M121.768 80.59v-5.44h4.357l-4.357 5.44zm15.49-.496V75.15h4.358l-4.357 4.944zm-7.744 0V75.15h4.355l-4.355 4.944zm-7.746 8.405v-5.438h4.357l-4.357 5.438zm16.458-.494h-.967v-4.944h4.357l-3.39 4.944zm-7.744 0h-.968v-4.944h4.356l-3.388 4.944zm-7.745 8.405h-.97v-5.438h4.358l-3.388 5.438zm15.49-.495h-.968v-4.943h4.357v.987h-3.389v3.956zm-7.745 0h-.968v-4.943h4.356v.987h-3.388v3.956zm-7.745 7.416h-.97v-5.438h4.358v.989h-3.388v4.45zm15.49-.494h-.968v-4.944h4.357v.989h-3.389v3.955zm-7.745 0h-.968v-4.944h4.356v.989h-3.388v3.955zM90.79 74.7l-.44-4.94 20.81-2.024-.04 5.437-20.33 1.527zm63.898-25.734l-.415-10.888 27.03-.503-.476 10.876-26.14.515zm0 29.664l-.415-10.888 27.03-.503-.476 10.877-26.14.514zm-62.931 5.95l-.432-5.928 20.812-1.688-.05 5.107-20.33 2.51zm.97 7.924l-.49-4.95 19.898-1.69-.047 5.108-19.362 1.532zm.966 8.89l-.48-5.938 19.898-1.352-.056 5.766-19.362 1.524zm.97 8.9l-.482-5.939 19.898-1.351-.055 5.765-19.362 1.525zm.967 9.885l-.523-6.933 18.979-1.015-.063 6.428-18.393 1.52zm60.995-63.322h-.97v-5.439h5.615l-4.645 5.439zm20.525-.495h-.969v-4.944h5.615l-4.646 4.944zm-10.264 0h-.969v-4.944h5.617l-4.648 4.944zm-10.261 8.406h-.97v-5.439h5.615l-4.645 5.439zm20.525-.495h-.969V59.33h5.615l-4.646 4.944zm-10.264 0h-.969V59.33h5.617l-4.648 4.944zm-10.261 22.249h-.97v-5.439h5.615l-4.645 5.439zm20.525-.495h-.969v-4.944h5.615l-4.646 4.944zm-10.264 0h-.969v-4.944h5.617l-4.648 4.944zm-10.261 8.405h-.97v-5.438h5.615l-4.645 5.438zM200.19 58.34l-4.841.493v-5.438h5.615l-.774 4.945zm0 7.91l-4.841.494v-5.438h5.615l-.774 4.944zm0 7.91l-4.841.495v-5.44h5.615l-.774 4.946zm0 7.91l-4.841.495v-5.438h5.615l-.774 4.944zm0 8.9l-4.841.494v-5.438h5.615l-.774 4.945zm0 7.91l-4.841.495v-5.438h5.615l-.774 4.944zm0 7.912l-4.841.494v-5.44h5.615l-.774 4.946zm-23.042-12.855h-.969v-4.944h5.615v.988h-4.646v3.956zm-10.264 0h-.969v-4.944h5.617l-4.648 4.944z"/>
        <path fill="#00A888" d="M205.324 138.409l.061-.01.105-21.879c-.14-.143-.29-.242-.453-.264-1.798-.257-2.607 3.537-2.967 6.596-.207-2.055-1.194-4.194-4.435-4.194-6.231 0-6.231 13.843-6.231 13.843s0-7.91-6.232-7.91-11.426 8.9-11.426 8.9-2.076-5.934-8.308-6.922c-6.232-.989-8.308 7.91-8.308 7.91s2.076-8.9 0-9.888c-2.078-.99-4.155 4.944-4.155 3.955 1.039-8.9-3.116-15.82-9.347-14.832-6.232.988-21.812 10.876-21.812 10.876s-4.154-7.91-8.31-4.943c-3.468 2.478-1.15 8.387-.287 10.273-.489-.865-1.65-2.362-3.867-2.362-3.116 0-5.192 4.943-5.192 4.943s2.076-4.944 0-7.91c-5.194-6.922-9.349 2.967-9.349 2.967s-1.038-10.878-7.27-6.923c-6.23 3.955 0 13.844 0 13.844-1.038-1.978-6.362-3.459-7.27 0-1.038 3.955 7.27 3.955 7.27 3.955h117.783v-.025z"/>
        <path fill="#374451" d="M141.605 34.608c-.752 0-1.398.423-1.735 1.04-.08-.022-.16-.05-.247-.05H113.98c-5.063 0-9.182 4.11-9.182 9.165v92.412a.99.99 0 0 0 1.982 0V44.763c0-3.963 3.229-7.188 7.2-7.188h4.62v6.874a.99.99 0 0 0 1.982 0v-6.874h11.888v6.874a.99.99 0 0 0 1.982 0v-6.874h5.173c.087 0 .166-.029.248-.05a1.974 1.974 0 0 0 1.734 1.039 1.98 1.98 0 0 0 1.981-1.978 1.98 1.98 0 0 0-1.981-1.978"/>
        <path fill="#FFC300" d="M133.212 67.682c8.349-.244 9.614-10.76 6.156-16.96-3.316-5.948-9.72-10.489-16.566-7.968-7.019 2.1-11.503 11.37-9.874 18.464 2.072 9.025 13.601 6.659 20.284 6.464"/>
        <path fill="#FFE631" d="M136.297 46.569c-3.519-3.64-8.383-5.698-13.496-3.816-7.018 2.101-11.502 11.371-9.873 18.464.612 2.67 2.054 4.337 3.95 5.364l.045-.024 19.368-19.97.006-.017v-.001z"/>
        <path fill="#303D51" d="M126.342 49.603c-.059.517-.266 4.232-.24 4.226 3.13-.016 3.619-4.359.24-4.226m3.735 5.958c-1.582-.24-3.282.254-3.925.422 0 0-.404 5.117-.452 5.111 8.21 1.006 7.758-5.021 4.377-5.533m.12-2.352c3.052.395 5.343 3.287 4.106 6.631-1.799 4.862-8.121 4.007-12.205 3.562-1.569-.17-1.375-2.736.189-2.534.312.036.638.072.972.107l.796-10.666c0-.015.007-.021.007-.029-.571.295-1.056.795-1.39 1.529-.677 1.467-2.986.622-2.304-.86 1.524-3.313 5.983-5.077 9.011-2.763 1.888 1.445 1.61 3.514.818 5.023"/>
        <path fill="#455A6B" d="M126.103 53.83c-.026.006.18-3.71.239-4.227 3.379-.132 2.89 4.21-.24 4.226m3.277-5.643c-3.028-2.315-7.488-.551-9.011 2.764-.683 1.482 1.627 2.326 2.304.86.334-.734.818-1.234 1.39-1.53 0 .009-.007.015-.007.028l-.719 9.638 2.723-2.808.092-1.155c.279-.073.757-.204 1.33-.312l2.997-3.09c.543-1.419.538-3.14-1.099-4.395"/>
        <path fill="#315CC9" d="M186.65 164.551c-4.962.381-34.387 2.275-23.778-3.956 16.843-9.887-8.226-24.134 13.87-25.71 27.74-1.977 6.935 19.777 16.843 22.744 13.217 3.957 5.943 5.933-6.936 6.921"/>
        <path fill="#315CC9" d="M144.05 164.551c-4.962.381-34.387 2.275-23.778-3.956 16.843-9.887-8.226-24.134 13.87-25.71 27.74-1.977 6.935 19.777 16.843 22.744 13.217 3.957 5.943 5.933-6.936 6.921"/>
        <path fill="#FFC300" d="M191.494 123.537l-23.701 4.883-4.122-19.944c-.452-2.18.588-4.62 2.604-5.565 0 0 4.641-2.993 7.823-3.677 3.181-.685 8.708.524 8.708.524a4.818 4.818 0 0 1 4.566 3.836l4.122 19.944v-.001z"/>
        <path fill="#303D51" d="M191.744 124.661l-23.701 4.881-4.123-19.943c-.45-2.179.638-4.62 2.654-5.565 0 0 4.608-2.993 7.79-3.677 3.182-.684 8.693.525 8.693.525a4.819 4.819 0 0 1 4.566 3.836l4.121 19.943z"/>
        <path fill="#515E75" d="M181.097 118.854l-6.169 1.276-3.56-17.133 6.167-1.277z"/>
        <path fill="#1E2A3A" d="M195.67 139.403a66.782 66.782 0 0 1-.15 1.64c-.103 1.036-.209 2.072-.314 3.105-.087.871-.29 1.904-1.1 2.238-.7.29-1.53-.149-1.943-.784-.413-.636-.514-1.416-.625-2.165a46.391 46.391 0 0 0-.535-2.97c-.137-.64-.297-1.295-.692-1.817-.52-.679-1.06-.508-1.737-.756l-.036-.014c-.585-.235-1.264-.975-1.493-1.533-.144-.35-.176-.738-.205-1.116-.068-.925-.106-1.9.304-2.734.377-.77 1.111-1.333 1.926-1.601.814-.27 1.703-.264 2.543-.093.976.198 1.928.63 2.592 1.37.376.419.647.923.86 1.444.739 1.817.754 3.81.605 5.786"/>
        <path fill="#303D51" d="M188.363 161.298c-1.22 1.462-3.644 1.392-4.725 1.277a1.043 1.043 0 0 1-.805-.537c-2.001-3.674-3.205-9.778-3.577-11.864a1.039 1.039 0 0 1 .522-1.09c1.305-.72 4.256-2.216 5.672-1.908.129.028.245.071.346.132 1.348.793 2.506 10.56 2.791 13.143.055.302-.027.612-.225.847"/>
        <path fill="#1E2A3A" d="M188.485 161.146c-.503.28-1.282-3.388-1.372-3.781-.468-2.053-.903-4.116-1.241-6.195a33.331 33.331 0 0 1-.373-2.956c-.024-.333-.052-.686-.049-1.038.129.027.245.07.346.13 1.348.795 2.506 10.564 2.791 13.145l.003.02c.011.135.034.598-.105.674"/>
        <path fill="#515E75" d="M198.417 145.82c-.385.967-.92 1.87-1.536 2.705-.486.66-1.169 1.787-2.034 1.966-.454.093-.93-.08-1.292-.368a3.462 3.462 0 0 1-1.005-1.362c-.564-1.369-.203-2.924.165-4.358l.787-3.067c.16-.62.32-1.242.575-1.829.322-.743.935-1.595 1.86-1.516 2.233.192 3.04 2.548 3.101 4.472.038 1.175-.2 2.3-.62 3.357"/>
        <path fill="#515E75" d="M198.425 145.823c-.11.273-.23.54-.362.803-.434.168-.915.235-1.284-.02-.227-.158-.367-.41-.503-.65a16.13 16.13 0 0 0-1.663-2.407c-.533-.628-.385-1.207-.009-1.906.533-.99.935-2.043 1.197-3.135.04-.168.083-.346.137-.517.726.063 1.416.446 1.912.988.554.602.886 1.383 1.06 2.182.336 1.551.103 3.19-.485 4.661"/>
        <path fill="#1E2A3A" d="M186.278 143.952c.461-2.268.47-4.613.98-6.87.104-.459.272-.965.695-1.17.535-.259 1.15.107 1.632.456.972.705 1.7 1.657 2.218 2.735.88 1.836 1.528 4.186.607 6.126-.09.19-.23.392-.42.494-.548.292-.669-.531-1.12-.584-.314-.036-.512.401-.66.612-1.253 1.764-3.076 3.508-5.254 3.992-1.41.314-.398-1.426-.047-1.922.765-1.086 1.107-2.576 1.37-3.87m-21.392-9.249c-.202.069-.385.162-.511.303-.165.183-.19.46-.126.698.066.238.207.446.35.647 1.205 1.711 2.568 3.305 3.93 4.895.147.172.31.355.531.408.17.04.344 0 .512-.043 1.49-.37 2.966-.81 4.446-1.226.408-.114.712-.252.72-.729.005-.224-.06-.443-.122-.66-.286-1.016-.36-2.064-.652-3.075-.246-.842-.74-1.559-1.481-2.04-.919-.596-1.91-1.041-3.025-.817-.756.151-1.493.487-2.212.761-.783.301-1.563.609-2.36.878"/>
        <path fill="#303D51" d="M172.657 150.05c.094.897.108 1.806.036 2.708a.546.546 0 0 0 0 .113c.005.049-.415-.113-.446-.126-1.896-.805-2.532-3.152-2.559-5.026-.009-.709.038-1.455.333-2.11.072-.158.688-1.228.936-.863.172.252.373.498.462.686.679 1.436 1.074 3.042 1.238 4.617"/>
        <path fill="#F1718A" d="M173.465 143.694l.138.312a12.37 12.37 0 0 0-.204-.28l.054-.027a.028.028 0 0 1 .012-.005"/>
        <path fill="#1E2A3A" d="M180.124 151.714c-.15.117-.342.162-.525.202-.47.102-.94.197-1.411.283a4.72 4.72 0 0 0 .12-2.729c.603.287 1.24.48 1.9.548l.097.351c.123.464.197 1.047-.181 1.345m-14.39 10.483c-1.117.2-2.924.65-2.134.951.93.353 3.038 0 3.138-.137.106-.146.19-.432.27-.711 1.156-4.007 4.458-14.534 4.341-15.165-.021-.11-.522-.337-.522-.337-1.42 3.567-4.936 15.37-5.093 15.4m6.28-15.68c-.335-.345-2.082-3.898-1.899-5.337.046-.365.148-.721.21-1.083.724-.276 1.537-.757 2.26-1.03.316-.12.649-.243.989-.213.717.061 1.195.76 1.474 1.423a8.08 8.08 0 0 1 .59 3.93c-.099.978-.446 2.03-1.288 2.541-.785.477-2.378-.121-2.337-.232m15.976 3.153c.664.732 1.16 1.554 1.592 2.288.252-.284.656-.53 1.043-.66-.536-.93-1.075-1.866-1.796-2.661-.27-.3-.57-.58-.93-.76-.36-.182-.787-.257-1.17-.135-.384.124-.707.468-.733.871-.032.47.295.77.701.737.39-.03.88-.139 1.294.32"/>
        <path fill="#1E2A3A" d="M190.236 151.278c.125-.099.257-.174.402-.169.834.035 1.284 1.347.826 1.972-.39.531-1.346.282-1.744-.107-.232-.225-.428-.672-.287-.995.072-.159.242-.24.379-.332.156-.104.279-.251.425-.368m-.96-2.022c-.012.102-.028.204-.002.303.052.21.26.33.425.469.159.135.29.305.379.492.06-.236.103-.476.13-.719.142-1.496.07-3.084-.892-4.24.031.04-.171.415-.196.468-.077.162-.175.314-.255.475-.14.282.094.513.198.78.244.623.291 1.311.212 1.972"/>
        <path fill="#515E75" d="M178.188 152.2c-.94.175-1.883.32-2.831.436-.715.088-1.432.161-2.15.215a4.88 4.88 0 0 1-.514.021.555.555 0 0 1 0-.114c.072-.903.058-1.81-.036-2.709-.164-1.575-.56-3.181-1.238-4.617-.09-.189-.29-.433-.462-.686.55-.147 1.177-.14 1.668-.41.293-.162.481-.448.774-.609.07.092.14.185.206.28.25.557.52 1.105.813 1.644l.135.238c.144.246 1.51-.113 1.68.125.844 1.191.777 2.843 2.074 3.457.23.902.19 1.851-.12 2.73"/>
        <path fill="#515E75" d="M176.24 129.71c2.152-.76 4.481-1.143 6.727-.743.994.176 1.995.53 2.788 1.168.726.584 1.031-.695 1.27.22.262 1.007 1.082 8.128.96 9.307-.23 2.258-.063 3.701-.955 5.801a9.427 9.427 0 0 1-1.67 2.64 5.868 5.868 0 0 1-1.549 1.228 5.12 5.12 0 0 1-1.512.533c-.512.094-1.569.21-2.092.154a5.834 5.834 0 0 1-1.9-.548c-2.843-1.345-3.588-4.497-4.704-7.326-.632-1.608-1.806-7.844-1.662-9.714.49-.89.42-1.018 1.271-1.56 1.924-1.225 4.225-1.755 6.505-1.872"/>
        <path fill="#C9D6E2" d="M188.884 146.015l-13.893 2.38a1.132 1.132 0 0 1-1.307-.924l-1.324-7.7a1.13 1.13 0 0 1 .925-1.306l13.893-2.378c.616-.105 1.2.308 1.307.923l1.323 7.701a1.128 1.128 0 0 1-.924 1.305"/>
        <path fill="#FF4C5A" d="M181.548 135.877l-3.559.61a.994.994 0 1 1-.336-1.955l3.559-.61a.993.993 0 0 1 .336 1.955"/>
        <path fill="#303D51" d="M195.67 139.403a66.782 66.782 0 0 1-.15 1.64c-.103 1.036-.209 2.072-.314 3.105-.087.871-.29 1.904-1.1 2.238-.7.29-1.53-.149-1.943-.784-.413-.636-.514-1.416-.625-2.165a46.391 46.391 0 0 0-.535-2.97c-.137-.64-.297-1.295-.692-1.817-.52-.679-.885-.452-1.561-.7-.013-.005 1.47-1.297 3.852-.734 1.239.293 2.235 1.216 3.068 2.187"/>
        <path fill="#FFC300" d="M195.246 127.427c-.232 1.665-1.69 2.957-3.18 3.619-.86.38-1.81.429-2.7.72-2.223.73-14.1 2.587-18.674 2.557-1.72-.014-3.385-.13-4.754-1.313-2.207-2.272-2.723-7.099-1.06-10.32l.017-.034c1.376-2.631 4.31-4.372 7.01-5.373 4.416-1.638 9.164-1.67 13.809-1.398 1.806.107 3.82.038 5.345 1.11.296.209.576.443.84.7 1.058 1.028 1.849 2.403 2.334 3.805.64 1.852 1.264 4.124 1.013 5.927"/>
        <path fill="#515E75" d="M182.806 110.62c-2.611-.046-8.16.167-12.383 2.004-6.051 2.633-3.713 7.705-3.713 7.705 4.123-2.261 17.423-4.327 22.238-4.174 0 0 .506-5.423-6.142-5.536"/>
        <path fill="#EDA420" d="M195.246 127.427c-.232 1.665-1.69 2.957-3.18 3.619-.86.38-1.772.592-2.7.72-.408-.565-.667-1.326-.7-2.34-.02-.586-.028-1.614-.06-2.2-.192-3.584.853-7.001 3.293-9.531 1.058 1.028 1.849 2.403 2.334 3.805.64 1.852 1.264 4.124 1.013 5.927m-24.554 6.896c-1.716.11-3.386-.13-4.754-1.312-2.206-2.274-2.722-7.1-1.06-10.321.251.454 3.711 3.247 4.543 5.048a17.949 17.949 0 0 1 1.267 3.85c.185.885.26 1.89.004 2.734"/>
        <path fill="#FF4C5A" d="M185.803 129.944l-2.543.799-6.95 1.157s-5.05-5.968-4.777-5.888c.532.155 1.909.21 2.458.284 1.126.148 2.269.14 3.4.047a21.314 21.314 0 0 0 3.668-.647c1.389-.368 2.764-.862 3.984-1.612.36-.22.792 5.852.76 5.86"/>
        <path fill="#ECD9B1" d="M188.666 129.427c.039.88-4.662 1.547-4.662 1.547a.561.561 0 0 1-.677-.536v-.005a11.945 11.945 0 0 1 1.646-6.232c.047-.077.126-.123.187-.189.904-.961 3.022-2.466 4.516-3.005 0 0-.393.83-.836 2.802 0 0-.3 2.658-.174 5.618m-17.865 2.985c1.123.359 4.71-.045 4.71-.045.896-.058 1.351-.435 1.24-.767l-.004-.006a11.956 11.956 0 0 0-3.646-5.319c-.07-.057-.16-.073-.238-.116-1.034-.546-4.054-1.655-5.814-1.334.472.372 2.016 2.117 2.148 2.49 0 0 1.26 2.227 1.604 5.097"/>
        <path fill="#1E2A3A" d="M169.333 140.801c-.018.066-.089.099-.152.121-.936.337-4.869 1.109-5.77.7-.212-.098-.993-1.328-.95-1.39l.004-.001a63.664 63.664 0 0 0 2.527-.666l.226-.063.13-.036c.412-.114.825-.23 1.237-.338.448-.118.913-.249 1.353-.036.612.3 1.048.984 1.359 1.563.025.044.05.096.036.146"/>
        <path fill="#FFC300" d="M166.71 120.329c2.146-2.633 2.533-5.083 2.533-5.083.67-2.297 2.036-3.754 4.492-4.197l4.753-.94c4.202-.735 8.309 6.347 11.572 6.489-1.152.963-3.263.53-3.996.203-2.504-.326-4.388-5.366-7.964-4.88l-4.083.896c-1.903.433-2.189 1.415-2.771 3.23 0 0-1.144 3.358-1.909 3.573-1.296 1.619-.97 1.313-2.627.709"/>
        <path fill="#FF4C5A" d="M183.902 145.916c2.762-.567 2.59-4.001 1.09-5.781-1.44-1.707-3.825-2.784-5.959-1.577-2.215 1.081-3.183 4.307-2.24 6.478 1.199 2.764 4.898 1.333 7.109.88"/>
        <path fill="#FFF" d="M180.418 140.417c.89.145.64.745.081 1.155a.5.5 0 0 0-.079.072c-.036-.369-.07-.737-.109-1.103a.52.52 0 0 0-.035-.14c.046.004.094.009.142.016m2.029 1.744c.78.085.746.923.263 1.37-.513.474-1.267.73-2.022.866-.066-.699-.136-1.4-.203-2.095a.427.427 0 0 0 .452.078c.487-.181.991-.277 1.51-.22m-3.48-.899c.08-.287.228-.497.422-.641v.01c.126 1.296.252 2.59.38 3.886l-.37.026c-.598.03-.508.95.09.922 1.605-.08 4.11-.555 4.482-2.42.281-1.435-.935-1.834-2.103-1.776.202-.593.008-1.208-.79-1.604-1.279-.632-2.667.148-3.026 1.439-.162.578.755.73.915.158"/>
        <path fill="#303D51" d="M171.56 104.209s.662 1.346 3.422.841c2.756-.504 2.716-2.406 2.716-2.406l-.053-1.987-6.615 1.803.53 1.749z"/>
        <path fill="#515E75" d="M183.529 107.672l-3.824-.844c-.656-.147-1.085-.726-.957-1.294l.852-2.369c.23-.716.827-1.114 1.483-.967l3.948 1.248c.657.146.863.81.737 1.377l-.063.144-.151.356-.198.465c-.105.248-.204.5-.308.75-.113.267-.223.56-.466.763a1.479 1.479 0 0 1-1.337.309c-.018-.004.303.065.284.063"/>
        <path fill="#DBB127" d="M181.625 103.438l-.682-.188a.16.16 0 0 1-.08-.257l.197-.237a.16.16 0 0 1 .166-.053l.683.188a.162.162 0 0 1 .08.258l-.196.237a.16.16 0 0 1-.168.052m1.718.47l-.683-.19a.162.162 0 0 1-.081-.257l.198-.237a.16.16 0 0 1 .167-.052l.682.19a.16.16 0 0 1 .08.255l-.198.238a.16.16 0 0 1-.166.053m1.51.575l-.68-.19a.16.16 0 0 1-.08-.257l.195-.238a.16.16 0 0 1 .169-.053l.68.19a.16.16 0 0 1 .082.257l-.197.237a.162.162 0 0 1-.167.054m-3.727-.115l-.682-.19a.162.162 0 0 1-.08-.257l.196-.237a.16.16 0 0 1 .167-.053l.682.188a.162.162 0 0 1 .08.258l-.197.237a.16.16 0 0 1-.166.054m1.717.468l-.681-.19a.16.16 0 0 1-.081-.256l.196-.239a.16.16 0 0 1 .168-.052l.68.19a.16.16 0 0 1 .081.257l-.197.238a.16.16 0 0 1-.166.052m1.51.574l-.68-.189a.162.162 0 0 1-.081-.258l.197-.237a.16.16 0 0 1 .167-.052l.682.19a.16.16 0 0 1 .08.256l-.196.237a.162.162 0 0 1-.168.053m-3.726-.114l-.682-.19a.162.162 0 0 1-.081-.258l.197-.237a.16.16 0 0 1 .168-.052l.68.19c.111.031.154.167.082.256l-.198.238a.16.16 0 0 1-.166.053m1.716.468l-.68-.19a.16.16 0 0 1-.08-.256l.195-.238a.162.162 0 0 1 .167-.053l.681.19a.16.16 0 0 1 .081.256l-.197.238a.16.16 0 0 1-.167.053m1.512.575l-.681-.19a.16.16 0 0 1-.081-.256l.196-.24a.16.16 0 0 1 .168-.051l.681.19a.16.16 0 0 1 .081.256l-.198.238a.158.158 0 0 1-.166.052m-3.727-.115l-.681-.19a.16.16 0 0 1-.081-.255l.196-.238a.16.16 0 0 1 .168-.053l.681.19a.16.16 0 0 1 .08.256l-.196.238a.16.16 0 0 1-.167.052m1.717.469l-.682-.19a.16.16 0 0 1-.08-.256l.197-.237a.162.162 0 0 1 .166-.054l.683.19a.162.162 0 0 1 .08.257l-.197.238a.16.16 0 0 1-.167.052m1.512.575l-.682-.19a.16.16 0 0 1-.08-.257l.197-.237a.162.162 0 0 1 .166-.054l.681.19a.162.162 0 0 1 .081.258l-.198.237a.158.158 0 0 1-.165.053"/>
        <path fill="#FFC300" d="M178.927 85.245s-2.105 1.026-2.851 1.11c-.746.085-3.264-.188-5.02.79-1.64.914-6.966 4.405-7.752 7.182-.786 2.776-.485 3.317-1.011 4.593-.525 1.277-2.034 2.737-1.748 3.566.284.826 1.221 1.914 1.221 1.914s18.65-19.108 18.626-19.32c0 0-.404-.328-1.465.165"/>
        <path fill="#49586D" d="M181.159 88.403l7.553-4.655a1.096 1.096 0 0 0 .358-1.512 1.101 1.101 0 0 0-1.515-.357l-7.552 4.655 1.157 1.868-.001.001z"/>
        <path fill="#303D51" d="M182.1 88.865s.119-.096.732-.407c.69-.35-1.264-3.462-1.773-3.18l-.733.408 1.773 3.179z"/>
        <path fill="#515E75" d="M161.533 103.614s2.441-4.43 2.526-4.942c.087-.512-.791-2.56.99-5.198 1.783-2.637 4.937-5.213 6.7-6.129 1.762-.916 4.046-.386 5.243-.593 1.197-.206 3.4-1.672 3.4-1.672s1.491 1.121 1.755 2.811c.262 1.69.287 2.475.287 2.475s-2.801 1.32-3.358 2.098c-.557.78-1.87 3.889-1.426 8.424-.055.15.346 1.952-2.057 3.288-1.283.715-3.74.4-4.22-.55-.574-1.136-.541-1.232-1.298-1.577-.283.031-2.338 4.375-2.863 5.438-.102.37-3.284.156-3.907-.275-.623-.431-2.246-2.727-1.772-3.598"/>
        <path fill="#303D51" d="M174.256 87.722c-2.43.016-5.043 2.584-5.043 2.584s-3.55 2.914-3.773 5.345c-.021.818.655 3.246 2.124 3.473.784.12 3.651-.007 6.984-3.116 3.367-3.073 3.154-5.753 3.06-6.48-.154-1.188-2.542-1.757-3.352-1.806"/>
        <path fill="#8C99AC" d="M173.81 89.057c-.618-.103-.935.153-1.311.454-.435.349-2.469 2.217-2.469 2.217s-1.978 1.823-2.356 2.233c-.327.354-.603.651-.55 1.279.056.627.416 3.123 1.8 2.932 3.754-.52 7.38-4.607 7.657-7.092.155-1.395-2.155-1.922-2.772-2.023"/>
        <path fill="#49586D" d="M165.108 107.113l-4.763 8.789c-.274.51-.91.703-1.422.43l-.565-.301a1.05 1.05 0 0 1-.433-1.419l4.763-8.79 2.42 1.291z"/>
        <path fill="#303D51" d="M166.019 107.497c-.187.347-.112.153-.455.93-.123.276-.6.245-1.189.055.162-.4.109-1.146-.758-1.587-1.15-.586-1.648.271-1.648.271-.34-.287-.535-.55-.455-.713.316-.646.107-.233.455-.93.584-.915 4.337.58 4.05 1.974"/>
        <path fill="#FFC300" d="M149.539 123.537l-23.702 4.883-4.122-19.944c-.45-2.18.589-4.62 2.604-5.565 0 0 4.642-2.993 7.823-3.677 3.182-.685 8.71.524 8.71.524a4.818 4.818 0 0 1 4.565 3.836l4.122 19.944v-.001z"/>
        <path fill="#303D51" d="M149.79 124.661l-23.702 4.881-4.122-19.943c-.452-2.179.637-4.62 2.654-5.565 0 0 4.607-2.993 7.789-3.677 3.181-.684 8.693.525 8.693.525a4.818 4.818 0 0 1 4.565 3.836l4.123 19.943z"/>
        <path fill="#515E75" d="M139.142 118.854l-6.169 1.276-3.56-17.133 6.168-1.277z"/>
        <path fill="#303D51" d="M146.409 161.298c-1.22 1.462-3.645 1.392-4.726 1.277a1.04 1.04 0 0 1-.804-.537c-2.002-3.674-3.207-9.778-3.577-11.864a1.04 1.04 0 0 1 .52-1.09c1.307-.72 4.257-2.216 5.673-1.908.127.028.245.071.345.132 1.348.793 2.507 10.56 2.792 13.143l.003.02.007.1c.018.262-.065.524-.233.727"/>
        <path fill="#1E2A3A" d="M146.53 161.146c-.503.28-1.282-3.388-1.372-3.781-.469-2.053-.904-4.116-1.242-6.195a33.329 33.329 0 0 1-.372-2.956c-.025-.333-.052-.686-.048-1.038.127.027.244.07.345.13 1.348.795 2.507 10.564 2.791 13.145l.002.02c.012.135.035.598-.104.674"/>
        <path fill="#515E75" d="M156.462 145.82c-.385.967-.919 1.87-1.535 2.705-.487.66-1.169 1.787-2.035 1.966-.454.093-.93-.08-1.292-.368a3.471 3.471 0 0 1-1.005-1.362c-.565-1.369-.202-2.924.165-4.358l.787-3.067c.159-.62.32-1.242.576-1.829.322-.743.934-1.595 1.86-1.516 2.232.192 3.039 2.548 3.1 4.472.038 1.175-.2 2.3-.62 3.357"/>
        <path fill="#515E75" d="M156.47 145.823c-.11.273-.23.54-.362.803-.434.168-.914.235-1.284-.02-.227-.158-.366-.41-.503-.65a16.13 16.13 0 0 0-1.664-2.407c-.532-.628-.384-1.207-.008-1.906.534-.99.936-2.043 1.197-3.135.04-.168.082-.346.137-.517.727.063 1.416.446 1.912.988.554.602.886 1.383 1.06 2.182.337 1.551.103 3.19-.485 4.661"/>
        <path fill="#1E2A3A" d="M122.933 134.702c-.203.069-.386.162-.512.303-.164.183-.19.46-.126.698.066.238.208.446.351.647 1.204 1.711 2.567 3.305 3.927 4.895.149.172.312.355.533.408.168.04.344 0 .512-.043 1.49-.37 2.967-.81 4.447-1.226.407-.114.71-.252.719-.729.005-.224-.06-.443-.122-.66-.286-1.016-.36-2.064-.653-3.075-.243-.842-.74-1.559-1.481-2.04-.919-.596-1.909-1.041-3.023-.817-.757.151-1.494.487-2.213.761-.783.301-1.564.609-2.36.878"/>
        <path fill="#303D51" d="M130.702 150.05c.094.897.107 1.806.036 2.708a.546.546 0 0 0 0 .113c.006.049-.416-.113-.446-.126-1.894-.805-2.531-3.152-2.557-5.026-.01-.709.036-1.455.332-2.11.071-.158.686-1.228.936-.863.17.252.37.498.46.686.68 1.436 1.076 3.042 1.24 4.617"/>
        <path fill="#F1718A" d="M131.51 143.694l.139.312a12.372 12.372 0 0 0-.204-.28l.054-.027a.104.104 0 0 1 .01-.005"/>
        <path fill="#1E2A3A" d="M138.168 151.714c-.148.117-.34.162-.525.202-.468.102-.939.197-1.41.283a4.72 4.72 0 0 0 .12-2.729c.597.29 1.24.475 1.9.548l.097.351c.124.464.197 1.047-.182 1.345m-14.39 10.483c-1.116.2-2.922.65-2.132.951.93.353 3.037 0 3.136-.137.108-.146.192-.432.272-.711 1.155-4.007 4.457-14.534 4.34-15.165-.021-.11-.52-.337-.52-.337-1.423 3.567-4.938 15.37-5.096 15.4m6.28-15.68c-.333-.345-2.082-3.898-1.898-5.337.046-.365.147-.721.21-1.083.724-.276 1.536-.757 2.26-1.03.318-.12.65-.243.988-.213.717.061 1.195.76 1.476 1.423a8.08 8.08 0 0 1 .588 3.93c-.098.978-.445 2.03-1.287 2.541-.786.477-2.378-.121-2.337-.232m17.268 2.668a8.289 8.289 0 0 0-.453-.548 3.864 3.864 0 0 0-.686-.597c.308-.264.602-.545.88-.841.014.03.03.056.042.085.236.602.285 1.263.217 1.902m5.783-15.57c-.212-.521-.483-1.024-.859-1.442-.665-.74-1.617-1.173-2.592-1.37-.84-.172-1.729-.178-2.543.092-.814.269-1.55.831-1.927 1.6-.409.834-.371 1.81-.303 2.735.029.378.061.765.205 1.116.063.152.162.317.281.483a4.139 4.139 0 0 0-.067.251c-.512 2.258-.52 4.603-.98 6.87-.262 1.294-.604 2.785-1.371 3.87-.35.496-1.36 2.236.048 1.921.47-.109.927-.273 1.36-.487.114.07.247.103.38.094.39-.03.878-.138 1.295.32.636.705 1.118 1.489 1.537 2.2-.034.036-.074.065-.094.11-.142.324.054.77.286.996.398.39 1.354.638 1.743.106.459-.624.01-1.937-.825-1.972-.038 0-.073.016-.11.025a45.41 45.41 0 0 0-.429-.727c.045-.194.09-.397.11-.605.114-1.196.082-2.445-.423-3.49.147-.186.29-.373.423-.563.15-.209.347-.646.661-.61.45.052.573.876 1.12.584.062-.034.111-.09.163-.141l.01.02c.413.635 1.242 1.073 1.943.783.811-.334 1.013-1.366 1.1-2.237.106-1.034.209-2.069.315-3.103.054-.544.108-1.093.15-1.642.148-1.976.131-3.969-.607-5.787"/>
        <path fill="#515E75" d="M136.233 152.2c-.939.175-1.883.32-2.83.436-.715.088-1.434.161-2.15.215a5.242 5.242 0 0 1-.516.021.555.555 0 0 1 0-.114c.072-.903.059-1.81-.036-2.709-.162-1.575-.558-3.181-1.237-4.617-.09-.189-.29-.433-.461-.686.548-.147 1.175-.14 1.666-.41.295-.162.483-.448.776-.609.07.092.138.186.205.28.251.557.52 1.105.813 1.644l.135.238c.144.246 1.51-.113 1.68.125.844 1.191.776 2.843 2.074 3.457.23.902.19 1.851-.119 2.73"/>
        <path fill="#515E75" d="M134.285 129.71c2.151-.76 4.482-1.143 6.728-.743.993.176 1.994.53 2.787 1.168.727.584 1.03-.695 1.27.22.262 1.007 1.082 8.128.961 9.307-.232 2.258-.065 3.701-.956 5.801a9.427 9.427 0 0 1-1.67 2.64 5.868 5.868 0 0 1-1.549 1.228 5.12 5.12 0 0 1-1.512.533c-.51.094-1.568.21-2.091.154a5.834 5.834 0 0 1-1.901-.548c-2.842-1.345-3.588-4.497-4.704-7.326-.633-1.608-1.807-7.844-1.663-9.714.49-.89.42-1.018 1.272-1.56 1.923-1.225 4.225-1.755 6.505-1.872"/>
        <path fill="#C9D6E2" d="M146.747 146.047l-13.53 2.316a1.317 1.317 0 0 1-1.519-1.072l-1.262-7.34a1.312 1.312 0 0 1 1.075-1.516l13.53-2.316a1.316 1.316 0 0 1 1.52 1.072l1.26 7.34a1.312 1.312 0 0 1-1.074 1.516"/>
        <path fill="#FF4C5A" d="M139.593 135.877l-3.56.61a.994.994 0 1 1-.336-1.955l3.56-.61a.993.993 0 0 1 .336 1.955"/>
        <path fill="#303D51" d="M153.714 139.403a66.783 66.783 0 0 1-.149 1.64l-.314 3.105c-.087.871-.289 1.904-1.1 2.238-.7.29-1.53-.149-1.944-.784-.413-.636-.514-1.416-.623-2.165a47.087 47.087 0 0 0-.536-2.97c-.137-.64-.296-1.295-.693-1.817-.52-.679-.885-.452-1.56-.7-.013-.005 1.469-1.297 3.852-.734 1.24.293 2.234 1.216 3.067 2.187"/>
        <path fill="#FFC300" d="M153.291 127.427c-.232 1.665-1.69 2.957-3.18 3.619-.86.38-1.81.429-2.7.72-2.223.73-14.1 2.587-18.673 2.557-1.721-.014-3.387-.13-4.755-1.313-2.207-2.272-2.723-7.099-1.06-10.32l.018-.034c1.375-2.631 4.31-4.372 7.01-5.373 4.414-1.638 9.163-1.67 13.807-1.398 1.807.107 3.82.038 5.345 1.11.297.209.577.443.841.7 1.057 1.028 1.848 2.403 2.333 3.805.641 1.852 1.266 4.124 1.014 5.927"/>
        <path fill="#515E75" d="M140.852 110.62c-2.613-.046-8.162.167-12.385 2.004-6.05 2.633-3.712 7.705-3.712 7.705 4.123-2.261 17.423-4.327 22.238-4.174 0 0 .507-5.423-6.141-5.536"/>
        <path fill="#EDA420" d="M153.291 127.427c-.232 1.665-1.69 2.957-3.18 3.619-.86.38-1.773.592-2.7.72-.408-.565-.666-1.326-.7-2.34-.02-.586-.027-1.614-.06-2.2-.192-3.584.852-7.001 3.293-9.531 1.057 1.028 1.848 2.403 2.333 3.805.641 1.852 1.266 4.124 1.014 5.927m-24.553 6.896c-1.717.11-3.387-.13-4.755-1.312-2.207-2.274-2.723-7.1-1.06-10.321.251.454 3.712 3.247 4.542 5.048a17.898 17.898 0 0 1 1.269 3.85c.183.885.258 1.89.004 2.734"/>
        <path fill="#FF4C5A" d="M143.847 129.944l-2.541.799-6.95 1.157s-5.051-5.968-4.779-5.888c.532.155 1.91.21 2.459.284 1.126.148 2.27.14 3.399.047a21.314 21.314 0 0 0 3.669-.647c1.39-.368 2.764-.862 3.985-1.612.36-.22.79 5.852.758 5.86"/>
        <path fill="#ECD9B1" d="M146.71 129.427c.04.88-4.66 1.547-4.66 1.547a.56.56 0 0 1-.678-.536v-.005a11.945 11.945 0 0 1 1.647-6.232c.045-.077.125-.123.186-.189.905-.961 3.022-2.466 4.517-3.005 0 0-.394.83-.836 2.802 0 0-.303 2.658-.175 5.618m-17.866 2.985c1.125.359 4.71-.045 4.71-.045.897-.058 1.352-.435 1.24-.767a11.966 11.966 0 0 0-3.649-5.326c-.069-.056-.16-.072-.239-.115-1.033-.546-4.053-1.655-5.813-1.334.471.372 2.016 2.117 2.148 2.49 0 0 1.261 2.227 1.603 5.097"/>
        <path fill="#1E2A3A" d="M127.379 140.801c-.018.066-.09.099-.154.121-.935.337-4.868 1.109-5.77.7-.212-.098-.993-1.328-.949-1.39l.004-.001a61.34 61.34 0 0 0 2.17-.568c.119-.034.237-.066.356-.098.076-.02.152-.042.227-.063l.13-.036c.412-.114.824-.23 1.237-.338.447-.118.913-.249 1.353-.036.611.3 1.048.984 1.359 1.563.025.044.05.096.036.146"/>
        <path fill="#FFC300" d="M124.754 120.329c2.147-2.633 2.533-5.083 2.533-5.083.67-2.297 2.037-3.754 4.492-4.197l4.754-.94c4.2-.735 8.31 6.347 11.572 6.489-1.152.963-3.262.53-3.995.203-2.506-.326-4.389-5.366-7.966-4.88l-4.083.896c-1.902.433-2.188 1.415-2.77 3.23 0 0-1.145 3.358-1.91 3.573-1.296 1.619-.97 1.313-2.626.709"/>
        <path fill="#FF4C5A" d="M141.947 145.916c2.762-.567 2.589-4.001 1.09-5.781-1.44-1.707-3.826-2.784-5.96-1.577-2.214 1.081-3.182 4.307-2.24 6.478 1.2 2.764 4.9 1.333 7.11.88"/>
        <path fill="#FFF" d="M138.464 140.417c.89.145.64.745.08 1.155a.5.5 0 0 0-.078.072c-.036-.369-.07-.737-.11-1.103a.52.52 0 0 0-.034-.14c.045.004.093.009.142.016m2.027 1.744c.78.085.746.923.264 1.37-.513.474-1.268.73-2.02.866l-.206-2.095a.427.427 0 0 0 .452.078c.488-.181.993-.277 1.51-.22m-3.478-.899a1.15 1.15 0 0 1 .423-.641c0 .002-.003.005-.002.01l.379 3.886-.37.026c-.596.03-.507.95.091.922 1.605-.08 4.11-.555 4.482-2.42.283-1.435-.935-1.834-2.103-1.776.202-.593.008-1.208-.789-1.604-1.28-.632-2.668.148-3.028 1.439-.161.578.757.73.917.158"/>
        <path fill="#303D51" d="M129.605 104.209s.662 1.346 3.421.841c2.758-.504 2.717-2.406 2.717-2.406l-.053-1.987-6.615 1.803.53 1.749z"/>
        <path fill="#515E75" d="M141.574 107.672l-3.824-.844c-.656-.147-1.086-.726-.958-1.294l.854-2.369c.228-.716.825-1.114 1.481-.967l3.949 1.248c.656.146.863.81.735 1.377l-.06.144-.153.356-.198.465c-.105.248-.203.5-.308.75-.112.267-.222.56-.464.763a1.482 1.482 0 0 1-1.34.309c-.018-.004.304.065.286.063"/>
        <path fill="#DBB127" d="M139.67 103.438l-.68-.188a.16.16 0 0 1-.081-.257l.196-.237a.16.16 0 0 1 .167-.053l.68.188a.16.16 0 0 1 .082.258l-.197.237a.16.16 0 0 1-.167.052m1.717.47l-.682-.19a.162.162 0 0 1-.08-.257l.197-.237a.16.16 0 0 1 .167-.052l.681.19a.16.16 0 0 1 .081.255l-.197.238a.162.162 0 0 1-.167.053m1.512.575l-.682-.19a.162.162 0 0 1-.081-.257l.198-.238a.16.16 0 0 1 .167-.053l.68.19a.162.162 0 0 1 .081.257l-.197.237a.16.16 0 0 1-.166.054m-3.727-.115l-.682-.19a.16.16 0 0 1-.081-.257l.198-.237a.16.16 0 0 1 .167-.053l.681.188a.162.162 0 0 1 .08.258l-.197.237a.162.162 0 0 1-.166.054m1.717.468l-.682-.19a.16.16 0 0 1-.08-.256l.196-.239a.16.16 0 0 1 .167-.052l.683.19c.11.032.152.168.08.257l-.198.238a.16.16 0 0 1-.166.052m1.511.574l-.68-.189a.16.16 0 0 1-.081-.258l.195-.237a.16.16 0 0 1 .168-.052l.681.19a.16.16 0 0 1 .081.256l-.197.237a.162.162 0 0 1-.167.053m-3.727-.114l-.681-.19a.162.162 0 0 1-.081-.258l.197-.237a.16.16 0 0 1 .167-.052l.681.19a.16.16 0 0 1 .081.256l-.198.238a.16.16 0 0 1-.166.053m1.718.468l-.682-.19a.16.16 0 0 1-.08-.256l.196-.238a.162.162 0 0 1 .167-.053l.68.19a.16.16 0 0 1 .082.256l-.197.238a.158.158 0 0 1-.166.053m1.511.575l-.682-.19a.16.16 0 0 1-.08-.256l.196-.24a.16.16 0 0 1 .167-.051l.682.19a.16.16 0 0 1 .08.256l-.196.238a.16.16 0 0 1-.168.052m-3.726-.115l-.682-.19a.16.16 0 0 1-.08-.255l.197-.238a.16.16 0 0 1 .167-.053l.681.19a.161.161 0 0 1 .081.256l-.198.238a.158.158 0 0 1-.166.052m1.717.469l-.68-.19a.16.16 0 0 1-.081-.256l.196-.237c.04-.05.105-.07.167-.054l.68.19a.16.16 0 0 1 .082.257l-.197.238a.16.16 0 0 1-.167.052m1.511.575l-.68-.19a.16.16 0 0 1-.082-.257l.197-.237c.04-.049.106-.07.167-.054l.682.19a.162.162 0 0 1 .08.258l-.197.237a.158.158 0 0 1-.167.053"/>
        <path fill="#FFC300" d="M136.973 85.245s-2.107 1.026-2.853 1.11c-.745.085-3.264-.188-5.02.79-1.64.914-6.964 4.405-7.75 7.182-.786 2.776-.486 3.317-1.012 4.593-.525 1.277-2.035 2.737-1.749 3.566.284.826 1.222 1.914 1.222 1.914s18.65-19.108 18.627-19.32c0 0-.405-.328-1.465.165"/>
        <path fill="#49586D" d="M139.204 88.403l7.552-4.655a1.096 1.096 0 0 0 .358-1.512 1.101 1.101 0 0 0-1.513-.357l-7.552 4.655 1.155 1.868v.001z"/>
        <path fill="#303D51" d="M140.143 88.865s.12-.096.734-.407c.69-.35-1.264-3.462-1.773-3.18l-.734.408 1.773 3.179z"/>
        <path fill="#515E75" d="M119.578 103.614s2.442-4.43 2.526-4.942c.086-.512-.792-2.56.991-5.198 1.783-2.637 4.936-5.213 6.699-6.129 1.761-.916 4.048-.386 5.244-.593 1.197-.206 3.399-1.672 3.399-1.672s1.492 1.121 1.755 2.811c.262 1.69.288 2.475.288 2.475s-2.802 1.32-3.36 2.098c-.557.78-1.867 3.889-1.425 8.424-.056.15.347 1.952-2.057 3.288-1.284.715-3.74.4-4.22-.55-.573-1.136-.541-1.232-1.298-1.577-.284.031-2.337 4.375-2.863 5.438-.103.37-3.284.156-3.908-.275-.623-.431-2.246-2.727-1.77-3.598"/>
        <path fill="#303D51" d="M132.3 87.722c-2.43.016-5.042 2.584-5.042 2.584s-3.55 2.914-3.773 5.345c-.021.818.655 3.246 2.123 3.473.785.12 3.652-.007 6.985-3.116 3.367-3.073 3.155-5.753 3.06-6.48-.154-1.188-2.542-1.757-3.352-1.806"/>
        <path fill="#8C99AC" d="M131.854 89.057c-.618-.103-.932.153-1.31.454-.435.349-2.468 2.217-2.468 2.217s-1.98 1.823-2.357 2.233c-.326.354-.602.651-.548 1.279.053.627.415 3.123 1.797 2.932 3.754-.52 7.382-4.607 7.658-7.092.155-1.395-2.155-1.922-2.772-2.023"/>
        <path fill="#49586D" d="M123.153 107.113l-4.763 8.789c-.275.51-.911.703-1.423.43l-.565-.301a1.049 1.049 0 0 1-.43-1.419l4.762-8.79 2.419 1.291z"/>
        <path fill="#303D51" d="M124.063 107.497c-.186.347-.11.153-.454.93-.123.276-.6.245-1.19.055.163-.4.11-1.146-.757-1.587-1.15-.586-1.647.271-1.647.271-.342-.287-.535-.55-.455-.713.314-.646.108-.233.455-.93.584-.915 4.336.58 4.048 1.974"/>
        <path fill="#5C83FF" d="M124.763 18.787c1.981-8.9-2.928-17.474-8.917-16.81-8.915.99-10.978 11.343-10.978 11.343s-14.78-1.35-14.78 6.457c0 5.19 10.899 6.921 17.833 2.965 5.944 3.956 15.839.555 16.842-3.955M100.827 3.252c0 1.796-2.625 3.253-5.865 3.253-3.238 0-5.864-1.457-5.864-3.253S91.724 0 94.962 0c3.24 0 5.865 1.457 5.865 3.252"/>
    </g>
</svg>
