<svg xmlns="http://www.w3.org/2000/svg" width="81" height="76" viewBox="0 0 81 76">
    <g fill="none" fill-rule="evenodd" transform="matrix(-1 0 0 1 81.111 -1.968)">
        <path fill="#00B56A" d="M80.697 6.659c1.87-3.65-25.957-8.321-37.483-6.07-9.987 1.951-17.943 9.267-18.477 19.509-3.995-5.365-18.476-5.365-22.97 5.852-6.493 15.607 7.336 32.189 2.86 41.943 7.793-1.772 76.07-.385 76.07-.385V6.658z"/>
        <path fill="#00955F" d="M6.012 65.618l-.82-35.443 12.07-1.01.721 33.506 2.213.922-.978-29.871 12.717-.507v24.809h2.935l-.49-44.554h18.588l-.49 44.554 2.936-1.52V21.572h7.825l-.246 33.055 4.777.312-.357-25.848 15.32-1.063V66.87l-15.939.061z"/>
        <path fill="#57B94C" d="M4.367 67.643s-4.197 0-3.672-2.025c.458-1.771 3.148-1.013 3.672 0 0 0-3.148-5.063 0-7.088 3.149-2.025 3.673 3.544 3.673 3.544s2.099-5.063 4.723-1.519c1.05 1.519 0 4.05 0 4.05s1.05-2.531 2.623-2.531c1.574 0 2.099 1.519 2.099 1.519s-2.099-4.05 0-5.57c2.099-1.518 4.198 2.532 4.198 2.532s7.87-5.063 11.019-5.57c3.148-.505 5.247 3.039 4.722 7.595 0 .506 1.05-2.531 2.099-2.025 1.049.506 0 5.063 0 5.063s1.049-4.557 4.198-4.05c3.148.506 4.197 3.544 4.197 3.544s2.624-4.557 5.772-4.557 3.148 4.05 3.148 4.05 0-7.088 3.148-7.088c3.149 0 2.1 4.05 2.1 4.05s.132-5.497 1.64-5.28c1.508.218.983 11.356.983 11.356H4.367z"/>
        <path fill="#57B94C" d="M68.607 67.643s-4.197 0-3.672-2.025c.458-1.771 3.148-1.013 3.672 0 0 0-3.148-5.063 0-7.088 3.15-2.025 3.674 3.544 3.674 3.544s2.098-5.063 4.722-1.519c1.05 1.519 0 4.05 0 4.05s1.05-2.531 2.624-2.531 2.098 1.519 2.098 1.519-2.098-4.05 0-5.57c2.1-1.518 2.507 4.915 1.982 9.472 0 .337-5.033.387-15.1.148z"/>
        <path fill="#374451" stroke="#374451" stroke-width=".669" d="M4.606 72.205V16.323c0-2.721 2.188-4.935 4.878-4.935h13.705c.277 0 .5.227.5.507 0 .279-.223.506-.5.506H9.484c-2.138 0-3.877 1.76-3.877 3.922v55.882c0 .28-1.001.28-1.001 0z"/>
        <rect width="5.191" height="1.64" x="2.596" y="71.829" fill="#374451" rx=".669"/>
        <path fill="#374451" d="M12.496 17.497c-.268 0-.486-.264-.486-.59v-4.724c0-.326.218-.59.486-.59.269 0 .487.264.487.59v4.724c0 .326-.218.59-.487.59M19.895 16.66a.503.503 0 0 1-.5-.507V12.1c0-.28.223-.506.5-.506.276 0 .5.227.5.506v4.054c0 .28-.224.507-.5.507"/>
        <path fill="#FFC300" d="M12.994 29.065c-4.462-.132-5.139-5.828-3.29-9.186 1.773-3.221 5.195-5.681 8.853-4.316 3.751 1.138 6.147 6.159 5.277 10-1.107 4.89-7.27 3.608-10.84 3.502"/>
        <path fill="#FFE631" d="M11.34 17.63c1.879-1.972 4.479-3.087 7.211-2.067 3.751 1.138 6.147 6.159 5.277 10-.327 1.446-1.099 2.349-2.112 2.905l-.023-.012L11.342 17.64l-.003-.01z"/>
        <path fill="#303D51" d="M17.12 19.739c.032.28.142 2.292.129 2.289-1.672-.009-1.934-2.361-.128-2.29m-1.996 3.228c.845-.13 1.754.138 2.097.228 0 0 .216 2.772.242 2.769-4.388.544-4.146-2.72-2.34-2.997m-.063-1.273c-1.631.213-2.857 1.779-2.195 3.59.962 2.633 4.34 2.171 6.523 1.93.838-.093.735-1.482-.1-1.373l-.52.059-.426-5.778c0-.008-.004-.012-.004-.015.306.16.565.43.743.828.362.795 1.596.337 1.231-.466-.814-1.795-3.197-2.75-4.815-1.496-1.01.782-.86 1.903-.437 2.72"/>
        <path fill="#455A6B" d="M17.248 22.028c.014.004-.097-2.009-.128-2.29-1.805-.07-1.544 2.28.128 2.29m-1.75-3.056c1.617-1.255 4-.3 4.815 1.497.365.802-.87 1.26-1.231.465-.18-.397-.438-.668-.743-.828 0 .004.004.008.004.015l.384 5.22-1.456-1.521-.05-.625c-.147-.04-.402-.11-.71-.17l-1.601-1.673c-.29-.77-.288-1.702.587-2.38"/>
        <path fill="#374451" d="M24.658 11.894c0 .592-.474 1.072-1.06 1.072-.584 0-1.058-.48-1.058-1.072 0-.591.474-1.07 1.059-1.07s1.059.479 1.059 1.07"/>
        <path fill="#008253" d="M51.78 82.95c3.105.24 21.522 1.434 14.881-2.492-10.541-6.23 5.15-15.205-8.68-16.198-17.363-1.246-4.342 12.46-10.542 14.33-8.273 2.493-3.72 3.738 4.34 4.36"/>
        <path fill="#FFC300" d="M48.343 57.11l14.835 3.075 2.58-12.565c.282-1.373-.368-2.91-1.63-3.506 0 0-2.905-1.886-4.896-2.317-1.992-.431-5.451.331-5.451.331a3.02 3.02 0 0 0-2.858 2.417l-2.58 12.565z"/>
        <path fill="#303D51" d="M48.187 57.818l14.834 3.075 2.58-12.565c.283-1.373-.399-2.911-1.66-3.507 0 0-2.884-1.885-4.876-2.316-1.991-.431-5.441.33-5.441.33a3.021 3.021 0 0 0-2.857 2.417l-2.58 12.566z"/>
        <path fill="#515E75" d="M54.85 54.158l3.862.805 2.228-10.794-3.86-.806z"/>
        <path fill="#F1718A" d="M64.68 42.037a.25.25 0 0 0-.073-.043l.072.043"/>
        <path fill="#1E2A3A" d="M45.73 67.106c.026.347.06.692.093 1.034l.196 1.956c.055.549.182 1.199.689 1.41.439.183.958-.095 1.216-.494.26-.4.323-.893.392-1.364a28.93 28.93 0 0 1 .335-1.872c.085-.403.185-.816.433-1.144.325-.428.663-.32 1.086-.477l.024-.01c.365-.147.79-.613.934-.965.09-.22.11-.464.128-.703.043-.583.067-1.197-.19-1.722-.236-.485-.696-.84-1.205-1.009-.51-.17-1.066-.166-1.592-.058-.61.124-1.207.397-1.623.863-.235.264-.405.58-.537.91-.463 1.145-.473 2.4-.38 3.645"/>
        <path fill="#303D51" d="M50.303 80.901c.764.922 2.281.878 2.957.805a.652.652 0 0 0 .504-.338c1.252-2.315 2.007-6.161 2.239-7.475a.654.654 0 0 0-.327-.687c-.817-.453-2.663-1.396-3.55-1.202a.753.753 0 0 0-.216.082c-.844.5-1.569 6.655-1.747 8.28l-.002.014-.005.063a.649.649 0 0 0 .147.458"/>
        <path fill="#1E2A3A" d="M50.226 80.805c.316.177.803-2.134.86-2.382.293-1.294.565-2.594.777-3.903.099-.617.188-1.239.233-1.863.014-.21.033-.432.03-.653a.734.734 0 0 0-.216.082c-.844.5-1.569 6.655-1.747 8.281l-.001.013c-.008.086-.022.377.064.425"/>
        <path fill="#515E75" d="M44.01 71.15c.241.608.576 1.177.962 1.705.304.416.73 1.125 1.273 1.237.284.06.582-.051.808-.232a2.18 2.18 0 0 0 .63-.858c.353-.863.126-1.841-.104-2.745l-.493-1.933c-.1-.39-.2-.782-.36-1.152-.201-.468-.584-1.005-1.164-.955-1.397.12-1.902 1.604-1.94 2.817-.024.741.124 1.449.388 2.115"/>
        <path fill="#515E75" d="M44.005 71.151c.07.172.144.34.227.506.272.107.572.148.804-.013.142-.1.23-.258.315-.41.303-.533.646-1.046 1.04-1.515.334-.396.242-.761.005-1.202a8.188 8.188 0 0 1-.748-1.975c-.026-.107-.052-.218-.086-.325-.455.039-.887.281-1.197.622-.347.38-.555.871-.663 1.376-.211.975-.065 2.008.303 2.936"/>
        <path fill="#1E2A3A" d="M51.608 69.972c-.288-1.428-.293-2.906-.614-4.328-.065-.289-.17-.608-.434-.737-.336-.163-.72.066-1.022.287-.608.444-1.064 1.044-1.388 1.723-.55 1.157-.956 2.638-.38 3.86.056.12.144.247.263.311.343.184.419-.335.7-.368.197-.022.321.253.414.386.785 1.11 1.925 2.21 3.289 2.515.882.197.249-.9.03-1.211-.48-.685-.694-1.624-.858-2.438M64.996 64.145a.742.742 0 0 1 .32.19c.103.116.12.29.078.44-.04.15-.129.28-.218.408-.754 1.078-1.607 2.082-2.459 3.083-.093.11-.195.225-.333.258-.105.025-.215-.001-.32-.027-.932-.233-1.858-.51-2.784-.773-.254-.071-.444-.158-.45-.458-.003-.142.038-.28.077-.418.179-.64.225-1.3.408-1.936.153-.531.463-.982.927-1.286.575-.375 1.195-.655 1.893-.515.474.095.934.307 1.384.48.49.19.98.384 1.477.554"/>
        <path fill="#303D51" d="M60.133 73.814a9.383 9.383 0 0 0-.022 1.707.346.346 0 0 1 0 .071c-.004.03.26-.071.278-.079 1.187-.508 1.586-1.987 1.602-3.168.006-.445-.024-.917-.208-1.329-.045-.1-.43-.774-.586-.544-.108.16-.232.314-.289.432-.425.905-.672 1.918-.775 2.91"/>
        <path fill="#F1718A" d="M59.628 69.81c-.03.065-.058.13-.087.196.041-.06.084-.118.128-.176a.642.642 0 0 0-.034-.017l-.007-.004"/>
        <path fill="#1E2A3A" d="M55.46 74.863c.093.074.214.102.329.127.294.064.587.124.883.18a2.99 2.99 0 0 1-.075-1.72c-.378.18-.777.302-1.19.345l-.06.22c-.077.293-.123.66.113.848M64.467 81.468c.699.126 1.83.41 1.334.599-.582.223-1.9 0-1.963-.086-.066-.093-.119-.273-.17-.449-.722-2.525-2.79-9.157-2.716-9.554.013-.07.327-.213.327-.213.89 2.248 3.09 9.685 3.188 9.703M60.537 71.588c.208-.216 1.302-2.456 1.187-3.361-.028-.23-.092-.455-.132-.684-.452-.172-.96-.476-1.413-.648-.199-.076-.407-.153-.619-.134-.449.039-.748.48-.923.897a5.113 5.113 0 0 0-.369 2.476c.062.617.279 1.278.806 1.6.492.3 1.488-.076 1.463-.146M50.537 73.575c-.416.462-.726.979-.996 1.442a1.617 1.617 0 0 0-.653-.417c.335-.585.673-1.175 1.124-1.676.17-.188.357-.365.582-.479.225-.115.493-.162.733-.085.24.078.441.296.458.549.02.296-.184.484-.439.464-.244-.02-.55-.088-.81.202"/>
        <path fill="#1E2A3A" d="M49.13 74.589c-.077-.063-.16-.11-.252-.106-.521.022-.802.848-.516 1.241.244.335.842.178 1.092-.067.145-.142.268-.423.179-.627-.044-.1-.151-.151-.237-.21-.098-.065-.174-.157-.266-.231M49.732 73.315c.007.063.016.129 0 .19-.032.132-.162.209-.265.297a.928.928 0 0 0-.237.31 3.247 3.247 0 0 1-.082-.454c-.09-.942-.044-1.943.559-2.671-.02.024.106.26.122.294.048.103.11.198.16.3.087.177-.06.324-.125.492a2.595 2.595 0 0 0-.132 1.242"/>
        <path fill="#515E75" d="M56.672 75.169a29.423 29.423 0 0 0 3.117.41c.106.009.214.016.322.013.003-.023.001-.048 0-.071a9.389 9.389 0 0 1 .023-1.707c.102-.992.35-2.004.774-2.91.056-.118.181-.272.29-.432-.344-.092-.737-.087-1.044-.257-.184-.103-.302-.283-.485-.385a5.472 5.472 0 0 0-.128.177 15.18 15.18 0 0 1-.595 1.185c-.09.156-.945-.07-1.05.08-.53.75-.487 1.79-1.3 2.178a2.99 2.99 0 0 0 .076 1.719"/>
        <path fill="#515E75" d="M57.891 61c-1.347-.479-2.805-.722-4.211-.47-.622.112-1.248.335-1.744.736-.455.369-.646-.437-.795.14-.164.634-.678 5.121-.602 5.864.145 1.421.04 2.33.598 3.654a5.918 5.918 0 0 0 1.046 1.664c.281.31.604.576.97.773.288.158.604.273.946.336.32.06.98.132 1.308.098a3.643 3.643 0 0 0 1.19-.345c1.78-.849 2.246-2.835 2.944-4.618.396-1.012 1.13-4.941 1.04-6.12-.307-.561-.262-.64-.795-.982-1.204-.772-2.645-1.106-4.07-1.18"/>
        <path fill="#C9D6E2" d="M52.062 71.632l4.526.78a2.824 2.824 0 0 0 3.26-2.317l.114-.664a2.836 2.836 0 0 0-2.306-3.275l-4.527-.78a2.824 2.824 0 0 0-3.26 2.317l-.113.664a2.836 2.836 0 0 0 2.306 3.275"/>
        <path fill="#FF4C5A" d="M54.504 64.873l2.357.407a.557.557 0 0 0 .643-.456l.022-.13a.558.558 0 0 0-.454-.646l-2.358-.406a.556.556 0 0 0-.642.456l-.022.13a.558.558 0 0 0 .454.645"/>
        <path fill="#303D51" d="M45.73 67.106c.026.347.06.692.093 1.034l.196 1.956c.055.549.182 1.199.689 1.41.439.183.958-.095 1.216-.494.26-.4.323-.893.392-1.364a28.93 28.93 0 0 1 .335-1.872c.085-.403.185-.816.433-1.144.325-.428.554-.285.977-.442.008-.002-.92-.816-2.41-.462-.776.184-1.4.766-1.921 1.378"/>
        <path fill="#FFC300" d="M45.995 59.56c.145 1.05 1.057 1.864 1.99 2.28.539.24 1.133.27 1.69.454 1.391.46 8.825 1.631 11.688 1.61 1.077-.007 2.12-.08 2.976-.826 1.381-1.432 1.704-4.472.663-6.501a.208.208 0 0 0-.01-.022c-.861-1.658-2.698-2.755-4.388-3.386-2.764-1.032-5.736-1.051-8.643-.881-1.13.067-2.39.025-3.345.7a4.293 4.293 0 0 0-.526.44c-.662.648-1.157 1.515-1.46 2.398-.402 1.167-.792 2.598-.635 3.735"/>
        <path fill="#515E75" d="M53.781 48.97c1.635-.028 5.108.106 7.75 1.264 3.788 1.658 2.324 4.854 2.324 4.854-2.58-1.424-10.905-2.725-13.918-2.63 0 0-.317-3.416 3.844-3.488"/>
        <path fill="#EDA420" d="M45.995 59.56c.145 1.05 1.057 1.864 1.99 2.28.539.24 1.11.374 1.69.454.256-.355.418-.835.438-1.473.013-.37.017-1.018.038-1.388.12-2.257-.533-4.41-2.06-6.004-.663.647-1.158 1.514-1.461 2.397-.402 1.167-.792 2.598-.635 3.735M61.363 63.904c1.075.07 2.12-.08 2.976-.826 1.38-1.432 1.704-4.473.664-6.501-.158.285-2.324 2.045-2.844 3.18a11.29 11.29 0 0 0-.793 2.425c-.116.558-.163 1.191-.003 1.722"/>
        <path fill="#FF4C5A" d="M51.906 61.147l1.59.503 4.35.728s3.162-3.76 2.991-3.709c-.332.098-1.195.132-1.539.178a9.92 9.92 0 0 1-2.127.031 13.21 13.21 0 0 1-2.297-.408c-.869-.233-1.73-.543-2.494-1.016-.225-.139-.495 3.688-.474 3.693"/>
        <path fill="#ECD9B1" d="M50.113 60.82c-.023.554 2.918.975 2.918.975a.351.351 0 0 0 .424-.337v-.004a7.564 7.564 0 0 0-1.031-3.926c-.028-.049-.078-.078-.116-.12-.566-.605-1.891-1.552-2.827-1.892 0 0 .247.523.523 1.765 0 0 .19 1.674.11 3.54M61.295 62.701c-.704.226-2.947-.028-2.947-.028-.562-.036-.846-.274-.776-.483l.001-.004a7.532 7.532 0 0 1 2.282-3.35c.043-.037.1-.047.15-.074.647-.344 2.537-1.043 3.638-.841-.295.234-1.261 1.335-1.344 1.568 0 0-.79 1.404-1.004 3.212"/>
        <path fill="#1E2A3A" d="M64.702 65.342l.088 1.826.142.04c.077-.819-.23-1.866-.23-1.866"/>
        <path fill="#1E2A3A" d="M64.708 67.146l.081.022.143.04.223.062a4.34 4.34 0 0 0-.042-1.078 7.216 7.216 0 0 0-.193-.914l-.218.064-.219.064c.094.322.271 1.121.225 1.74"/>
        <path fill="#1E2A3A" d="M62.214 67.987c.01.042.056.062.096.077.585.212 3.047.698 3.611.44.133-.061.622-.836.594-.876h-.002a38.651 38.651 0 0 1-1.358-.358l-.223-.062-.143-.04-.08-.022a66.747 66.747 0 0 0-.775-.213c-.28-.075-.572-.157-.847-.023-.383.189-.656.62-.85.984-.016.029-.032.061-.023.093"/>
        <path fill="#FFC300" d="M63.855 55.088c-1.343-1.659-1.585-3.203-1.585-3.203-.419-1.446-1.274-2.364-2.811-2.643l-2.975-.593c-2.63-.464-5.2 3.999-7.243 4.089.72.607 2.042.333 2.501.128 1.568-.206 2.746-3.382 4.985-3.075l2.556.564c1.19.272 1.37.892 1.733 2.034 0 0 .717 2.117 1.195 2.254.812 1.018.607.826 1.644.445"/>
        <path fill="#FF4C5A" d="M56.143 66.573c1.386.682 1.992 2.714 1.402 4.082-.75 1.742-3.066.84-4.45.555-1.729-.357-1.62-2.522-.682-3.642.634-.757 1.562-1.319 2.523-1.319.403 0 .812.1 1.207.324z"/>
        <path fill="#FFF" d="M56.757 68.177c.101.364-.473.46-.573.1a.729.729 0 0 0-.264-.404v.006l-.238 2.449.232.016c.374.019.318.599-.056.581-1.005-.05-2.573-.35-2.806-1.524-.176-.904.586-1.156 1.316-1.119-.126-.375-.004-.762.495-1.011.194-.097.392-.141.584-.141.6 0 1.14.431 1.31 1.047z"/>
        <path fill="#FF4C5A" d="M55.342 67.823a.34.34 0 0 1 .022-.088l-.088.01c-.558.093-.401.469-.05.727.018.014.033.03.048.046l.068-.695zM54.951 68.982a2.043 2.043 0 0 0-.945-.14c-.488.055-.466.583-.164.865.32.299.792.46 1.264.546.043-.44.086-.881.127-1.32a.267.267 0 0 1-.178.069.276.276 0 0 1-.104-.02z"/>
        <path fill="#303D51" d="M60.82 44.932s-.414.848-2.141.53c-1.726-.318-1.701-1.516-1.701-1.516l.033-1.252 4.14 1.136-.33 1.102z"/>
        <path fill="#515E75" d="M53.328 47.114l2.394-.532c.411-.092.68-.458.6-.816l-.534-1.492c-.144-.451-.517-.702-.928-.61l-2.471.786c-.411.093-.54.51-.46.869l.037.09.095.225.124.292c.067.156.128.316.193.473.07.168.14.353.291.48a.918.918 0 0 0 .838.195l-.179.04"/>
        <path fill="#DBB127" d="M54.52 44.447l.427-.12a.101.101 0 0 0 .05-.161l-.122-.15a.1.1 0 0 0-.105-.034l-.426.12a.101.101 0 0 0-.051.162l.123.15a.1.1 0 0 0 .104.033M53.446 44.742l.426-.12a.101.101 0 0 0 .05-.162l-.122-.149a.1.1 0 0 0-.105-.033l-.427.12a.101.101 0 0 0-.05.16l.123.15c.025.031.066.045.105.034M52.5 45.104l.426-.12a.101.101 0 0 0 .05-.161l-.122-.15a.1.1 0 0 0-.105-.033l-.426.12a.101.101 0 0 0-.051.161l.123.15a.098.098 0 0 0 .105.033M54.832 45.031l.427-.12a.1.1 0 0 0 .05-.16l-.122-.15a.1.1 0 0 0-.105-.033l-.427.12a.101.101 0 0 0-.05.16l.123.15a.1.1 0 0 0 .104.033M53.757 45.327l.427-.12a.101.101 0 0 0 .05-.161l-.122-.15a.101.101 0 0 0-.105-.034l-.426.12a.102.102 0 0 0-.051.162l.123.15a.098.098 0 0 0 .104.033M52.812 45.688l.426-.12a.101.101 0 0 0 .05-.16l-.122-.15a.1.1 0 0 0-.105-.033l-.426.12a.101.101 0 0 0-.051.16l.123.15a.1.1 0 0 0 .105.033M55.144 45.616l.427-.12a.101.101 0 0 0 .05-.161l-.123-.15a.1.1 0 0 0-.104-.033l-.427.12a.101.101 0 0 0-.05.161l.123.15c.025.03.066.044.104.033M54.07 45.911l.426-.12a.101.101 0 0 0 .05-.16l-.122-.15a.1.1 0 0 0-.105-.033l-.426.12a.101.101 0 0 0-.051.16l.123.15a.1.1 0 0 0 .104.033M53.123 46.274l.427-.12a.101.101 0 0 0 .05-.162l-.122-.15a.1.1 0 0 0-.105-.033l-.426.12a.101.101 0 0 0-.051.161l.123.15a.1.1 0 0 0 .104.034M55.456 46.201l.427-.12a.101.101 0 0 0 .05-.162l-.123-.149a.1.1 0 0 0-.104-.033l-.427.12a.101.101 0 0 0-.05.161l.122.15c.026.03.067.044.105.033M54.382 46.496l.426-.12a.1.1 0 0 0 .05-.161l-.122-.15a.1.1 0 0 0-.105-.033l-.427.12a.101.101 0 0 0-.05.161l.123.15a.1.1 0 0 0 .105.033M53.435 46.858l.427-.12a.101.101 0 0 0 .05-.161l-.122-.15a.1.1 0 0 0-.105-.033l-.426.12a.101.101 0 0 0-.051.162l.123.149a.098.098 0 0 0 .104.033"/>
        <path fill="#FFC300" d="M56.209 32.983s1.318.647 1.785.7c.466.053 2.043-.119 3.142.497 1.026.576 4.36 2.776 4.852 4.525.491 1.75.303 2.09.632 2.895.329.804 1.274 1.724 1.095 2.245-.179.521-.765 1.207-.765 1.207S55.277 33.013 55.292 32.88c0 0 .253-.207.917.104"/>
        <path fill="#49586D" d="M54.812 34.973L50.022 32a.62.62 0 0 1-.2-.85l.077-.126a.614.614 0 0 1 .847-.2l4.79 2.97-.724 1.178z"/>
        <path fill="#303D51" d="M54.224 35.264s-.075-.06-.46-.257c-.432-.22.792-2.181 1.11-2.003l.46.256-1.11 2.004z"/>
        <path fill="#515E75" d="M67.096 44.557s-1.528-2.792-1.582-3.113c-.053-.323.496-1.614-.62-3.276-1.115-1.661-3.089-3.285-4.192-3.862-1.103-.576-2.533-.242-3.283-.373-.748-.13-2.127-1.054-2.127-1.054s-.933.707-1.098 1.771c-.164 1.065-.18 1.56-.18 1.56s1.753.83 2.102 1.322c.349.491 1.17 2.45.893 5.307.034.095-.218 1.23 1.287 2.072.803.45 2.34.252 2.64-.346.36-.716.34-.777.813-.994.178.02 1.464 2.757 1.792 3.426.064.233 2.056.099 2.446-.174.39-.271 1.406-1.718 1.109-2.266"/>
        <path fill="#303D51" d="M59.133 34.545c1.52.009 3.156 1.627 3.156 1.627s2.223 1.836 2.361 3.368c.014.514-.41 2.045-1.329 2.187-.49.077-2.285-.003-4.372-1.962-2.107-1.936-1.974-3.626-1.915-4.083.097-.749 1.591-1.107 2.099-1.137"/>
        <path fill="#8C99AC" d="M59.413 35.385c.386-.064.583.096.82.286.272.22 1.545 1.396 1.545 1.396s1.237 1.15 1.474 1.407c.205.224.378.411.344.806-.034.395-.26 1.968-1.126 1.848-2.349-.327-4.62-2.903-4.793-4.468-.097-.88 1.35-1.211 1.736-1.275"/>
        <path fill="#49586D" d="M64.858 46.761l2.981 5.537c.171.322.57.444.89.272l.354-.19a.663.663 0 0 0 .27-.894l-2.98-5.538-1.515.813z"/>
        <path fill="#303D51" d="M64.288 47.003c.117.22.07.097.285.586.077.173.376.155.744.035-.102-.252-.068-.722.475-1 .719-.368 1.03.171 1.03.171.214-.18.336-.346.285-.45-.198-.406-.067-.146-.284-.585-.366-.577-2.714.365-2.535 1.243"/>
        <path fill="#008253" d="M25.175 82.95c3.106.24 21.523 1.434 14.881-2.492-10.541-6.23 5.15-15.205-8.68-16.198-17.363-1.246-4.341 12.46-10.542 14.33-8.272 2.493-3.72 3.738 4.34 4.36"/>
        <path fill="#FFC300" d="M21.739 57.11l14.835 3.075 2.58-12.565c.282-1.373-.369-2.91-1.63-3.506 0 0-2.906-1.886-4.897-2.317-1.992-.431-5.45.331-5.45.331a3.02 3.02 0 0 0-2.858 2.417l-2.58 12.565z"/>
        <path fill="#303D51" d="M21.582 57.818l14.835 3.075 2.58-12.565c.282-1.373-.4-2.911-1.661-3.507 0 0-2.884-1.885-4.875-2.316-1.992-.431-5.442.33-5.442.33a3.021 3.021 0 0 0-2.857 2.417l-2.58 12.566z"/>
        <path fill="#515E75" d="M28.246 54.158l3.861.805 2.229-10.794-3.861-.806z"/>
        <path fill="#F1718A" d="M38.075 42.037a.25.25 0 0 0-.073-.043c.023.014.047.029.073.043"/>
        <path fill="#1E2A3A" d="M19.125 67.106c.026.347.06.692.094 1.034l.196 1.956c.055.549.182 1.199.688 1.41.44.183.959-.095 1.217-.494.259-.4.322-.893.391-1.364a28.93 28.93 0 0 1 .336-1.872c.085-.403.185-.816.433-1.144.325-.428.663-.32 1.086-.477l.023-.01c.366-.147.791-.613.935-.965.09-.22.11-.464.128-.703.042-.583.066-1.197-.19-1.722-.236-.485-.696-.84-1.206-1.009-.51-.17-1.065-.166-1.592-.058-.61.124-1.207.397-1.622.863-.236.264-.405.58-.538.91-.462 1.145-.472 2.4-.379 3.645"/>
        <path fill="#303D51" d="M23.698 80.901c.764.922 2.282.878 2.958.805a.652.652 0 0 0 .504-.338c1.252-2.315 2.007-6.161 2.238-7.475a.654.654 0 0 0-.327-.687c-.817-.453-2.663-1.396-3.55-1.202a.753.753 0 0 0-.215.082c-.845.5-1.57 6.655-1.747 8.28l-.002.014-.006.063a.649.649 0 0 0 .147.458"/>
        <path fill="#1E2A3A" d="M23.622 80.805c.315.177.802-2.134.859-2.382.293-1.294.565-2.594.777-3.903.1-.617.189-1.239.233-1.863.015-.21.033-.432.03-.653a.734.734 0 0 0-.215.082c-.844.5-1.57 6.655-1.748 8.281l-.001.013c-.007.086-.022.377.065.425"/>
        <path fill="#515E75" d="M17.405 71.15c.242.608.576 1.177.962 1.705.304.416.731 1.125 1.274 1.237.283.06.581-.051.807-.232a2.18 2.18 0 0 0 .63-.858c.353-.863.126-1.841-.104-2.745l-.492-1.933c-.1-.39-.2-.782-.36-1.152-.202-.468-.585-1.005-1.165-.955-1.396.12-1.902 1.604-1.94 2.817-.023.741.125 1.449.388 2.115"/>
        <path fill="#515E75" d="M17.4 71.151c.07.172.145.34.228.506.271.107.572.148.803-.013.142-.1.23-.258.315-.41.303-.533.647-1.046 1.04-1.515.334-.396.242-.761.006-1.202a8.188 8.188 0 0 1-.749-1.975c-.025-.107-.051-.218-.085-.325-.455.039-.887.281-1.197.622-.347.38-.555.871-.664 1.376-.21.975-.065 2.008.304 2.936"/>
        <path fill="#1E2A3A" d="M25.003 69.972c-.288-1.428-.293-2.906-.613-4.328-.065-.289-.17-.608-.435-.737-.335-.163-.72.066-1.021.287-.609.444-1.065 1.044-1.388 1.723-.55 1.157-.956 2.638-.381 3.86.057.12.145.247.263.311.343.184.42-.335.7-.368.198-.022.322.253.415.386.784 1.11 1.925 2.21 3.288 2.515.882.197.25-.9.03-1.211-.48-.685-.694-1.624-.858-2.438M38.392 64.145a.742.742 0 0 1 .32.19c.103.116.119.29.078.44-.04.15-.13.28-.219.408-.753 1.078-1.607 2.082-2.458 3.083-.093.11-.195.225-.334.258-.105.025-.214-.001-.32-.027-.932-.233-1.857-.51-2.783-.773-.255-.071-.445-.158-.45-.458-.003-.142.038-.28.076-.418.18-.64.226-1.3.409-1.936.153-.531.462-.982.926-1.286.575-.375 1.195-.655 1.893-.515.474.095.935.307 1.385.48.49.19.98.384 1.477.554"/>
        <path fill="#303D51" d="M33.529 73.814a9.383 9.383 0 0 0-.022 1.707.346.346 0 0 1 0 .071c-.004.03.26-.071.278-.079 1.187-.508 1.585-1.987 1.602-3.168.005-.445-.024-.917-.209-1.329-.044-.1-.43-.774-.586-.544-.107.16-.232.314-.288.432-.425.905-.673 1.918-.775 2.91"/>
        <path fill="#F1718A" d="M33.023 69.81l-.087.196c.042-.06.084-.118.128-.176a.642.642 0 0 0-.034-.017l-.007-.004"/>
        <path fill="#1E2A3A" d="M28.856 74.863c.092.074.213.102.328.127.294.064.588.124.883.18a2.99 2.99 0 0 1-.074-1.72c-.378.18-.778.302-1.19.345-.021.073-.04.147-.06.22-.078.293-.124.66.113.848M37.862 81.468c.7.126 1.83.41 1.335.599-.582.223-1.9 0-1.963-.086-.067-.093-.12-.273-.17-.449-.723-2.525-2.79-9.157-2.716-9.554.012-.07.326-.213.326-.213.89 2.248 3.09 9.685 3.188 9.703M33.932 71.588c.208-.216 1.303-2.456 1.188-3.361-.029-.23-.092-.455-.132-.684-.453-.172-.961-.476-1.413-.648-.2-.076-.407-.153-.62-.134-.449.039-.748.48-.923.897a5.113 5.113 0 0 0-.369 2.476c.063.617.28 1.278.806 1.6.492.3 1.488-.076 1.463-.146M23.932 73.575c-.416.462-.725.979-.996 1.442a1.617 1.617 0 0 0-.652-.417c.334-.585.673-1.175 1.124-1.676.169-.188.356-.365.582-.479.224-.115.492-.162.732-.085.24.078.442.296.459.549.02.296-.185.484-.44.464-.244-.02-.549-.088-.809.202"/>
        <path fill="#1E2A3A" d="M22.526 74.589c-.078-.063-.161-.11-.252-.106-.522.022-.803.848-.516 1.241.244.335.842.178 1.091-.067.145-.142.268-.423.18-.627-.045-.1-.152-.151-.237-.21-.098-.065-.174-.157-.266-.231M23.127 73.315c.007.063.017.129.001.19-.033.132-.163.209-.266.297a.928.928 0 0 0-.237.31 3.247 3.247 0 0 1-.081-.454c-.09-.942-.045-1.943.558-2.671-.02.024.107.26.122.294.049.103.11.198.16.3.088.177-.06.324-.124.492a2.595 2.595 0 0 0-.133 1.242"/>
        <path fill="#515E75" d="M30.067 75.169a29.423 29.423 0 0 0 3.118.41c.105.009.214.016.322.013.003-.023 0-.048 0-.071a9.389 9.389 0 0 1 .022-1.707c.103-.992.35-2.004.775-2.91.056-.118.18-.272.289-.432-.344-.092-.737-.087-1.044-.257-.184-.103-.302-.283-.484-.385a5.472 5.472 0 0 0-.129.177 15.18 15.18 0 0 1-.594 1.185c-.09.156-.945-.07-1.051.08-.53.75-.486 1.79-1.299 2.178a2.99 2.99 0 0 0 .075 1.719"/>
        <path fill="#515E75" d="M31.287 61c-1.347-.479-2.806-.722-4.212-.47-.622.112-1.247.335-1.744.736-.455.369-.645-.437-.794.14-.165.634-.678 5.121-.603 5.864.145 1.421.041 2.33.599 3.654a5.918 5.918 0 0 0 1.046 1.664c.28.31.604.576.969.773.289.158.605.273.946.336.32.06.981.132 1.309.098a3.643 3.643 0 0 0 1.19-.345c1.779-.849 2.245-2.835 2.944-4.618.396-1.012 1.13-4.941 1.04-6.12-.307-.561-.263-.64-.796-.982-1.204-.772-2.644-1.106-4.07-1.18"/>
        <path fill="#C9D6E2" d="M25.457 71.632l4.527.78a2.824 2.824 0 0 0 3.26-2.317l.113-.664a2.836 2.836 0 0 0-2.306-3.275l-4.526-.78a2.824 2.824 0 0 0-3.26 2.317l-.114.664a2.836 2.836 0 0 0 2.306 3.275"/>
        <path fill="#FF4C5A" d="M27.899 64.873l2.358.407a.557.557 0 0 0 .642-.456l.022-.13a.558.558 0 0 0-.454-.646l-2.358-.406a.556.556 0 0 0-.642.456l-.022.13a.558.558 0 0 0 .454.645"/>
        <path fill="#303D51" d="M19.125 67.106c.026.347.06.692.094 1.034l.196 1.956c.055.549.182 1.199.688 1.41.44.183.959-.095 1.217-.494.259-.4.322-.893.391-1.364a28.93 28.93 0 0 1 .336-1.872c.085-.403.185-.816.433-1.144.325-.428.553-.285.977-.442.007-.002-.92-.816-2.411-.462-.776.184-1.4.766-1.921 1.378"/>
        <path fill="#FFC300" d="M19.39 59.56c.146 1.05 1.057 1.864 1.99 2.28.539.24 1.134.27 1.69.454 1.391.46 8.826 1.631 11.689 1.61 1.076-.007 2.119-.08 2.975-.826 1.382-1.432 1.704-4.472.664-6.501a.208.208 0 0 0-.011-.022c-.86-1.658-2.698-2.755-4.388-3.386-2.763-1.032-5.735-1.051-8.642-.881-1.131.067-2.391.025-3.345.7a4.293 4.293 0 0 0-.526.44c-.663.648-1.157 1.515-1.46 2.398-.402 1.167-.793 2.598-.636 3.735"/>
        <path fill="#515E75" d="M27.176 48.97c1.636-.028 5.109.106 7.75 1.264 3.788 1.658 2.325 4.854 2.325 4.854-2.58-1.424-10.905-2.725-13.918-2.63 0 0-.317-3.416 3.843-3.488"/>
        <path fill="#EDA420" d="M19.39 59.56c.146 1.05 1.057 1.864 1.99 2.28.539.24 1.11.374 1.69.454.256-.355.418-.835.439-1.473.012-.37.017-1.018.037-1.388.12-2.257-.533-4.41-2.06-6.004-.663.647-1.157 1.514-1.46 2.397-.402 1.167-.793 2.598-.636 3.735M34.758 63.904c1.075.07 2.12-.08 2.976-.826 1.381-1.432 1.704-4.473.664-6.501-.158.285-2.323 2.045-2.843 3.18a11.29 11.29 0 0 0-.794 2.425c-.115.558-.162 1.191-.003 1.722"/>
        <path fill="#FF4C5A" d="M25.301 61.147l1.59.503 4.35.728s3.163-3.76 2.992-3.709c-.333.098-1.195.132-1.54.178a9.92 9.92 0 0 1-2.127.031 13.21 13.21 0 0 1-2.296-.408c-.87-.233-1.73-.543-2.494-1.016-.225-.139-.495 3.688-.475 3.693"/>
        <path fill="#ECD9B1" d="M23.509 60.82c-.024.554 2.917.975 2.917.975a.351.351 0 0 0 .424-.337v-.004a7.564 7.564 0 0 0-1.03-3.926c-.029-.049-.078-.078-.117-.12-.566-.605-1.891-1.552-2.827-1.892 0 0 .247.523.524 1.765 0 0 .19 1.674.109 3.54M34.69 62.701c-.703.226-2.947-.028-2.947-.028-.561-.036-.846-.274-.776-.483l.002-.004a7.532 7.532 0 0 1 2.282-3.35c.043-.037.1-.047.15-.074.646-.344 2.536-1.043 3.637-.841-.294.234-1.261 1.335-1.344 1.568 0 0-.789 1.404-1.003 3.212"/>
        <path fill="#1E2A3A" d="M38.097 65.342l.088 1.826.142.04c.078-.819-.23-1.866-.23-1.866"/>
        <path fill="#1E2A3A" d="M38.104 67.146l.08.022.143.04.223.062a4.34 4.34 0 0 0-.042-1.078 7.216 7.216 0 0 0-.192-.914l-.219.064-.218.064c.093.322.27 1.121.225 1.74"/>
        <path fill="#1E2A3A" d="M35.61 67.987c.01.042.055.062.095.077.585.212 3.047.698 3.612.44.132-.061.621-.836.593-.876h-.002a38.651 38.651 0 0 1-1.358-.358l-.223-.062-.142-.04-.081-.022a66.745 66.745 0 0 0-.774-.213c-.28-.075-.572-.157-.847-.023-.384.189-.657.62-.851.984-.016.029-.031.061-.023.093"/>
        <path fill="#FFC300" d="M37.25 55.088c-1.342-1.659-1.584-3.203-1.584-3.203-.42-1.446-1.275-2.364-2.812-2.643l-2.974-.593c-2.63-.464-5.201 3.999-7.243 4.089.72.607 2.042.333 2.5.128 1.568-.206 2.747-3.382 4.985-3.075l2.556.564c1.19.272 1.37.892 1.734 2.034 0 0 .716 2.117 1.195 2.254.811 1.018.607.826 1.644.445"/>
        <path fill="#FF4C5A" d="M29.538 66.573c1.387.682 1.992 2.714 1.403 4.082-.75 1.742-3.066.84-4.45.555-1.73-.357-1.62-2.522-.682-3.642.634-.757 1.562-1.319 2.522-1.319.403 0 .812.1 1.207.324z"/>
        <path fill="#FFF" d="M30.153 68.177c.1.364-.474.46-.574.1a.729.729 0 0 0-.264-.404v.006l-.238 2.449.233.016c.374.019.317.599-.057.581-1.005-.05-2.573-.35-2.805-1.524-.177-.904.585-1.156 1.315-1.119-.125-.375-.004-.762.495-1.011.194-.097.392-.141.584-.141.6 0 1.14.431 1.31 1.047z"/>
        <path fill="#FF4C5A" d="M28.738 67.823a.34.34 0 0 1 .022-.088l-.089.01c-.558.093-.4.469-.05.727.018.014.033.03.049.046.022-.232.044-.464.068-.695zM28.347 68.982a2.043 2.043 0 0 0-.945-.14c-.489.055-.467.583-.165.865.321.299.793.46 1.265.546l.127-1.32a.267.267 0 0 1-.179.069.276.276 0 0 1-.103-.02z"/>
        <path fill="#303D51" d="M34.216 44.932s-.415.848-2.142.53c-1.726-.318-1.7-1.516-1.7-1.516l.033-1.252 4.14 1.136-.331 1.102z"/>
        <path fill="#515E75" d="M26.724 47.114l2.393-.532c.411-.092.68-.458.6-.816l-.534-1.492c-.143-.451-.517-.702-.928-.61l-2.47.786c-.412.093-.54.51-.461.869l.038.09.095.225.123.292c.067.156.129.316.194.473.07.168.139.353.29.48a.918.918 0 0 0 .838.195l-.178.04"/>
        <path fill="#DBB127" d="M27.916 44.447l.427-.12a.101.101 0 0 0 .05-.161l-.123-.15a.1.1 0 0 0-.105-.034l-.426.12a.101.101 0 0 0-.051.162l.123.15a.1.1 0 0 0 .105.033M26.841 44.742l.427-.12a.101.101 0 0 0 .05-.162l-.123-.149a.1.1 0 0 0-.104-.033l-.427.12a.101.101 0 0 0-.05.16l.122.15c.026.031.067.045.105.034M25.895 45.104l.427-.12a.101.101 0 0 0 .05-.161l-.123-.15a.1.1 0 0 0-.105-.033l-.426.12a.101.101 0 0 0-.05.161l.123.15a.098.098 0 0 0 .104.033M28.228 45.031l.427-.12a.1.1 0 0 0 .05-.16l-.123-.15a.1.1 0 0 0-.105-.033l-.427.12a.101.101 0 0 0-.05.16l.123.15a.1.1 0 0 0 .105.033M27.153 45.327l.427-.12a.101.101 0 0 0 .05-.161l-.123-.15a.101.101 0 0 0-.105-.034l-.426.12a.102.102 0 0 0-.05.162l.123.15a.098.098 0 0 0 .104.033M26.207 45.688l.427-.12a.101.101 0 0 0 .05-.16l-.123-.15a.1.1 0 0 0-.105-.033l-.426.12a.101.101 0 0 0-.05.16l.122.15a.1.1 0 0 0 .105.033M28.54 45.616l.426-.12a.101.101 0 0 0 .05-.161l-.122-.15a.1.1 0 0 0-.105-.033l-.426.12a.101.101 0 0 0-.051.161l.123.15c.025.03.066.044.105.033M27.465 45.911l.427-.12a.101.101 0 0 0 .05-.16l-.123-.15a.1.1 0 0 0-.105-.033l-.426.12a.101.101 0 0 0-.05.16l.122.15a.1.1 0 0 0 .105.033M26.519 46.274l.427-.12a.101.101 0 0 0 .05-.162l-.123-.15a.1.1 0 0 0-.105-.033l-.426.12a.101.101 0 0 0-.051.161l.124.15a.1.1 0 0 0 .104.034M28.852 46.201l.426-.12a.101.101 0 0 0 .05-.162l-.122-.149a.1.1 0 0 0-.105-.033l-.427.12a.101.101 0 0 0-.05.161l.123.15c.025.03.066.044.105.033M27.777 46.496l.426-.12a.1.1 0 0 0 .05-.161l-.122-.15a.1.1 0 0 0-.105-.033l-.426.12a.101.101 0 0 0-.05.161l.122.15a.1.1 0 0 0 .105.033M26.83 46.858l.428-.12a.101.101 0 0 0 .05-.161l-.123-.15a.1.1 0 0 0-.105-.033l-.426.12a.101.101 0 0 0-.051.162l.124.149a.098.098 0 0 0 .104.033"/>
        <path fill="#FFC300" d="M29.604 32.983s1.319.647 1.785.7c.467.053 2.044-.119 3.142.497 1.027.576 4.36 2.776 4.852 4.525.492 1.75.303 2.09.633 2.895.328.804 1.273 1.724 1.094 2.245-.178.521-.765 1.207-.765 1.207S28.673 33.013 28.688 32.88c0 0 .252-.207.916.104"/>
        <path fill="#49586D" d="M28.207 34.973L23.418 32a.62.62 0 0 1-.2-.85l.077-.126a.614.614 0 0 1 .847-.2l4.789 2.97-.724 1.178z"/>
        <path fill="#303D51" d="M27.62 35.264s-.076-.06-.46-.257c-.432-.22.792-2.181 1.11-2.003l.459.256-1.11 2.004z"/>
        <path fill="#515E75" d="M40.491 44.557s-1.527-2.792-1.581-3.113c-.054-.323.496-1.614-.62-3.276-1.116-1.661-3.09-3.285-4.192-3.862-1.103-.576-2.534-.242-3.283-.373-.749-.13-2.127-1.054-2.127-1.054s-.933.707-1.098 1.771c-.165 1.065-.181 1.56-.181 1.56s1.754.83 2.102 1.322c.35.491 1.17 2.45.893 5.307.034.095-.217 1.23 1.287 2.072.804.45 2.34.252 2.641-.346.36-.716.34-.777.813-.994.177.02 1.463 2.757 1.792 3.426.063.233 2.055.099 2.446-.174.39-.271 1.406-1.718 1.108-2.266"/>
        <path fill="#303D51" d="M32.528 34.545c1.52.009 3.157 1.627 3.157 1.627s2.222 1.836 2.36 3.368c.014.514-.41 2.045-1.328 2.187-.491.077-2.285-.003-4.372-1.962-2.107-1.936-1.974-3.626-1.915-4.083.097-.749 1.59-1.107 2.098-1.137"/>
        <path fill="#8C99AC" d="M32.808 35.385c.386-.064.584.096.82.286.272.22 1.545 1.396 1.545 1.396s1.238 1.15 1.474 1.407c.206.224.378.411.344.806-.034.395-.26 1.968-1.125 1.848-2.35-.327-4.62-2.903-4.793-4.468-.097-.88 1.349-1.211 1.735-1.275"/>
        <path fill="#49586D" d="M38.254 46.761l2.98 5.537c.172.322.57.444.891.272l.354-.19a.663.663 0 0 0 .27-.894l-2.981-5.538-1.514.813z"/>
        <path fill="#303D51" d="M37.684 47.003c.116.22.07.097.285.586.076.173.376.155.744.035-.102-.252-.069-.722.474-1 .72-.368 1.03.171 1.03.171.215-.18.336-.346.286-.45-.198-.406-.067-.146-.285-.585-.366-.577-2.714.365-2.534 1.243"/>
    </g>
</svg>
