<svg xmlns="http://www.w3.org/2000/svg" width="58" height="65" viewBox="0 0 58 65">
    <g fill="none" fill-rule="evenodd" transform="translate(-9 -6)">
        <g fill="#FF4C5A" transform="translate(9.714 6.071)">
            <path d="M16.914 48.242C7.106 45.121 0 35.938 0 25.095 0 11.683 10.873.81 24.286.81 37.698.81 48.57 11.683 48.57 25.095c0 10.843-7.105 20.026-16.914 23.147l-6.619 7.565a1 1 0 0 1-1.505 0l-6.619-7.565z"/>
            <circle cx="24.286" cy="25.095" r="21.857"/>
        </g>
        <path fill="#FFF" d="M34.738 27.932c.517 0 .937.418.937.934s-.42.934-.937.934h-1.575a2.353 2.353 0 0 1-2.076 1.256c-.904 0-1.68-.513-2.077-1.256h-1.705a.935.935 0 1 1 0-1.868h1.56a2.354 2.354 0 0 1 2.222-1.587c1.033 0 1.901.666 2.222 1.587h1.43zm-3.189 4.115a3.882 3.882 0 0 1 3.888 3.876v5.212c0 .869-.706 1.57-1.574 1.57V41.55a2.813 2.813 0 0 0-2.817-2.81 2.814 2.814 0 0 0-2.818 2.81v1.156c-.823 0-1.49-.665-1.49-1.488v-5.295a3.882 3.882 0 0 1 3.886-3.876h.925zm-.282 7.932c.746 0 1.353.604 1.353 1.35v3.416c0 .744-.607 1.35-1.353 1.35h-.526a1.351 1.351 0 0 1-1.353-1.35V41.33c0-.746.606-1.35 1.353-1.35h.526zM46.22 27.932c.516 0 .936.418.936.934s-.42.934-.936.934h-1.575a2.353 2.353 0 0 1-2.076 1.256c-.904 0-1.68-.513-2.077-1.256h-1.705a.935.935 0 1 1 0-1.868h1.56a2.354 2.354 0 0 1 2.222-1.587c1.032 0 1.9.666 2.221 1.587h1.43zm-3.19 4.115a3.882 3.882 0 0 1 3.888 3.876v5.212c0 .869-.705 1.57-1.574 1.57V41.55a2.813 2.813 0 0 0-2.816-2.81 2.814 2.814 0 0 0-2.819 2.81v1.156c-.823 0-1.49-.665-1.49-1.488v-5.295a3.882 3.882 0 0 1 3.887-3.876h.925zm-.281 7.932c.746 0 1.353.604 1.353 1.35v3.416c0 .744-.607 1.35-1.353 1.35h-.526a1.351 1.351 0 0 1-1.353-1.35V41.33c0-.746.605-1.35 1.353-1.35h.526zm5.682-20.55c.66 0 1.196.534 1.196 1.192 0 .658-.536 1.193-1.196 1.193H23.715v22.66c0 .658-.535 1.192-1.196 1.192-.66 0-1.195-.534-1.195-1.193v-22.66H19.41c-.66 0-1.196-.534-1.196-1.192 0-.658.536-1.192 1.196-1.192h29.02z"/>
        <g stroke="#FFF" transform="translate(44.333 8.333)">
            <circle cx="11.2" cy="11.2" r="10.2" fill="#E1B010" stroke-width="2"/>
            <path fill="#FFF" stroke-width=".2" d="M14.28 9.03H13.11a3.14 3.14 0 0 0-.579-1.224h1.75a.645.645 0 0 0 .653-.636.645.645 0 0 0-.653-.637H8.121a.646.646 0 0 0-.654.637c0 .351.293.636.654.636h1.763c.85 0 1.589.504 1.868 1.223H8.121a.646.646 0 0 0-.654.637c0 .351.293.637.654.637h3.634c-.277.733-1.018 1.248-1.87 1.25H8.116a.66.66 0 0 0-.467.201.62.62 0 0 0-.18.444c0 .17.074.338.209.466l4.403 3.968a.656.656 0 0 0 .443.168.662.662 0 0 0 .472-.195.632.632 0 0 0-.028-.912l-3.18-2.866h.092c1.588 0 2.922-1.064 3.23-2.524h1.17a.646.646 0 0 0 .652-.637.645.645 0 0 0-.653-.637"/>
        </g>
        <ellipse cx="34" cy="67.5" fill="#2C2CBB" rx="14" ry="3.5"/>
    </g>
</svg>
