<svg xmlns="http://www.w3.org/2000/svg" width="78" height="79" viewBox="0 0 78 79">
    <path
        d="M-0.602,6.438C-2.399,2.986 24.36,-1.435 35.444,0.695c9.604,1.846 17.255,8.769 17.768,18.46 3.841,-5.077 17.768,-5.077 22.09,5.537 6.242,14.768 -7.056,30.458 -2.75,39.687 -7.495,-1.676 -73.154,-0.364 -73.154,-0.364L-0.602,6.438z"
        fill="#00B56A" />
    <path
        d="M71.22,62.226L73.57,28.693l-13.17,-0.959 -0.694,31.704 -2.127,0.872 0.94,-28.264 -12.229,-0.48l-0,23.475l-2.822,0l0.47,-42.157l-17.874,0l0.47,42.157 -2.822,-1.438L23.712,20.549l-7.525,0l0.237,31.277 -4.594,0.295 0.343,-24.458L-2.56,26.658l-0,36.754l15.328,0.058z"
        fill="#00955F" />
    <path
        d="M72.8,64.143s4.037,0 3.532,-1.917c-0.44,-1.675 -3.027,-0.958 -3.532,0 -0,0 3.028,-4.79 -0,-6.706 -3.028,-1.917 -3.532,3.353 -3.532,3.353s-2.018,-4.79 -4.541,-1.437c-1.01,1.437 -0,3.832 -0,3.832s-1.01,-2.395 -2.523,-2.395c-1.514,0 -2.018,1.437 -2.018,1.437s2.018,-3.832 -0,-5.27c-2.019,-1.437 -4.037,2.396 -4.037,2.396s-7.569,-4.79 -10.596,-5.27c-3.028,-0.479 -5.046,2.875 -4.541,7.186 -0,0.48 -1.01,-2.395 -2.019,-1.916 -1.009,0.479 -0,4.79 -0,4.79s-1.009,-4.311 -4.037,-3.832c-3.027,0.48 -4.036,3.353 -4.036,3.353s-2.523,-4.311 -5.55,-4.311c-3.028,0 -3.028,3.832 -3.028,3.832s-0,-6.706 -3.027,-6.706c-3.028,0 -2.019,3.832 -2.019,3.832s-0.128,-5.202 -1.578,-4.997c-1.45,0.206 -0.945,10.746 -0.945,10.746L72.8,64.143z"
        fill="#57B94C" />
    <path
        d="M11.024,64.143s4.037,0 3.532,-1.917c-0.44,-1.675 -3.027,-0.958 -3.532,0 -0,0 3.028,-4.79 -0,-6.706 -3.028,-1.917 -3.532,3.353 -3.532,3.353s-2.018,-4.79 -4.541,-1.437c-1.01,1.437 -0,3.832 -0,3.832s-1.01,-2.395 -2.523,-2.395c-1.514,0 -2.018,1.437 -2.018,1.437s2.018,-3.832 -0,-5.27c-2.019,-1.437 -2.41,4.65 -1.906,8.962 -0,0.32 4.84,0.366 14.52,0.14z"
        fill="#57B94C" />
    <path
        d="M73.195,68.459L73.195,15.583c-0,-2.575 -2.104,-4.67 -4.691,-4.67l-13.18,0a0.48,0.48 0,1 0,-0 0.959L68.505,11.872c2.056,0 3.728,1.665 3.728,3.711l-0,52.876c-0,0.265 0.963,0.265 0.963,0z"
        stroke-width="2" fill="#374451" stroke="#374451" />
    <path
        d="M74.352,68.104L70.912,68.104A0.776,0.776 0,0 0,70.136 68.88L70.136,68.88A0.776,0.776 0,0 0,70.912 69.656L74.352,69.656A0.776,0.776 0,0 0,75.128 68.88L75.128,68.88A0.776,0.776 0,0 0,74.352 68.104z"
        fill="#374451" />
    <path
        d="M65.607,16.694c0.258,0 0.468,-0.25 0.468,-0.558l-0,-4.47c-0,-0.309 -0.21,-0.558 -0.468,-0.558s-0.468,0.25 -0.468,0.558l-0,4.47c-0,0.308 0.21,0.558 0.468,0.558M58.493,15.902a0.48,0.48 0,0 0,0.48 -0.48L58.973,11.588a0.48,0.48 0,0 0,-0.48 -0.48,0.48 0.48,0 0,0 -0.482,0.48l-0,3.835a0.48,0.48 0,0 0,0.482 0.48"
        fill="#374451" />
    <path
        d="M65.128,27.639c4.292,-0.125 4.942,-5.513 3.164,-8.691 -1.704,-3.048 -4.995,-5.376 -8.513,-4.084 -3.607,1.076 -5.912,5.827 -5.075,9.463 1.065,4.626 6.99,3.413 10.424,3.312"
        fill="#FFC300" />
    <path
        d="M66.72,16.819c-1.808,-1.865 -4.308,-2.92 -6.936,-1.955 -3.607,1.077 -5.911,5.827 -5.074,9.463 0.315,1.367 1.056,2.222 2.031,2.748a2.107,2.107 0,0 1,0.022 -0.012l9.954,-10.234 0.003,-0.01z"
        fill="#FFE631" />
    <path
        d="M61.16,18.815c-0.03,0.265 -0.136,2.17 -0.123,2.166 1.608,-0.008 1.86,-2.234 0.123,-2.166m1.92,3.054c-0.813,-0.123 -1.688,0.13 -2.018,0.216 -0,0 -0.207,2.622 -0.232,2.62 4.22,0.515 3.987,-2.574 2.25,-2.836m0.061,-1.205c1.569,0.202 2.747,1.683 2.11,3.397 -0.924,2.491 -4.173,2.054 -6.272,1.826 -0.807,-0.088 -0.707,-1.402 0.096,-1.299l0.5,0.056 0.41,-5.467c-0,-0.007 0.003,-0.011 0.003,-0.015 -0.294,0.152 -0.542,0.408 -0.714,0.784 -0.348,0.752 -1.535,0.319 -1.184,-0.44 0.783,-1.7 3.075,-2.603 4.63,-1.417 0.971,0.74 0.828,1.801 0.421,2.575"
        fill="#303D51" />
    <path
        d="M61.037,20.981c-0.013,0.004 0.094,-1.9 0.123,-2.166 1.737,-0.068 1.485,2.158 -0.123,2.166m1.684,-2.891c-1.556,-1.187 -3.848,-0.283 -4.63,1.416 -0.352,0.759 0.836,1.192 1.183,0.44 0.172,-0.376 0.42,-0.632 0.715,-0.784 -0,0.004 -0.004,0.008 -0.004,0.015l-0.37,4.94 1.4,-1.44 0.048,-0.592c0.142,-0.037 0.388,-0.104 0.683,-0.16l1.54,-1.583c0.28,-0.728 0.277,-1.61 -0.565,-2.252"
        fill="#455A6B" />
    <path
        d="M53.288,11.393c-0,0.56 0.456,1.013 1.018,1.013a1.016,1.016 0,0 0,1.018 -1.013c-0,-0.56 -0.455,-1.014 -1.018,-1.014 -0.562,0 -1.018,0.454 -1.018,1.014"
        fill="#374451" />
    <path
        d="M27.207,78.628c-2.987,0.226 -20.697,1.355 -14.31,-2.36 10.136,-5.894 -4.952,-14.387 8.347,-15.327 16.696,-1.178 4.174,11.79 10.137,13.56 7.955,2.359 3.578,3.536 -4.174,4.126"
        fill="#008253" />
    <path
        d="M30.511,54.176l-14.266,2.91 -2.48,-11.89c-0.272,-1.298 0.354,-2.754 1.567,-3.317 -0,0 2.794,-1.784 4.708,-2.192 1.916,-0.408 5.242,0.313 5.242,0.313a2.892,2.892 0,0 1,2.748 2.287l2.481,11.89z"
        fill="#FFC300" />
    <path
        d="M30.662,54.846l-14.266,2.91 -2.481,-11.89c-0.271,-1.299 0.384,-2.754 1.597,-3.318 -0,0 2.774,-1.784 4.689,-2.191 1.915,-0.408 5.232,0.313 5.232,0.313a2.892,2.892 0,0 1,2.748 2.287l2.48,11.89z"
        fill="#303D51" />
    <path d="M24.253,51.383l-3.713,0.762 -2.143,-10.214 3.713,-0.762z" fill="#515E75" />
    <path d="M14.802,39.914a0.242,0.242 0,0 1,0.07 -0.04l-0.07,0.04" fill="#F1718A" />
    <path
        d="M33.025,63.635c-0.025,0.328 -0.058,0.655 -0.09,0.978l-0.19,1.85c-0.052,0.52 -0.174,1.135 -0.661,1.335 -0.422,0.173 -0.922,-0.09 -1.17,-0.468 -0.249,-0.378 -0.31,-0.844 -0.376,-1.29 -0.088,-0.594 -0.195,-1.185 -0.323,-1.771 -0.082,-0.382 -0.178,-0.773 -0.417,-1.083 -0.312,-0.405 -0.637,-0.303 -1.044,-0.451a0.387,0.387 0,0 1,-0.022 -0.009c-0.352,-0.14 -0.76,-0.58 -0.899,-0.914 -0.086,-0.209 -0.106,-0.44 -0.123,-0.665 -0.041,-0.552 -0.064,-1.133 0.183,-1.63 0.226,-0.458 0.669,-0.794 1.159,-0.954 0.49,-0.161 1.025,-0.157 1.531,-0.055 0.587,0.117 1.16,0.376 1.56,0.817a2.9,2.9 0,0 1,0.517 0.86c0.445,1.084 0.454,2.272 0.365,3.45"
        fill="#1E2A3A" />
    <path
        d="M28.627,76.688c-0.735,0.872 -2.194,0.83 -2.844,0.762a0.627,0.627 0,0 1,-0.485 -0.32c-1.204,-2.191 -1.93,-5.83 -2.153,-7.073a0.616,0.616 0,0 1,0.315 -0.65c0.786,-0.43 2.561,-1.321 3.413,-1.138a0.731,0.731 0,0 1,0.208 0.078c0.812,0.473 1.51,6.297 1.68,7.835l0.002,0.013 0.005,0.06c0.01,0.156 -0.04,0.312 -0.141,0.433"
        fill="#303D51" />
    <path
        d="M28.7,76.598c-0.303,0.166 -0.772,-2.02 -0.826,-2.255 -0.282,-1.224 -0.544,-2.454 -0.747,-3.693 -0.096,-0.584 -0.181,-1.172 -0.225,-1.763 -0.013,-0.198 -0.031,-0.408 -0.028,-0.618a0.712,0.712 0,0 1,0.207 0.078c0.812,0.473 1.509,6.297 1.68,7.835l0.002,0.013c0.007,0.08 0.02,0.356 -0.063,0.402"
        fill="#1E2A3A" />
    <path
        d="M34.678,67.461c-0.232,0.575 -0.554,1.113 -0.924,1.613 -0.293,0.394 -0.704,1.065 -1.225,1.17 -0.273,0.057 -0.56,-0.048 -0.777,-0.218 -0.262,-0.205 -0.48,-0.508 -0.606,-0.813 -0.339,-0.816 -0.12,-1.742 0.1,-2.597l0.474,-1.829c0.096,-0.369 0.193,-0.74 0.346,-1.09 0.194,-0.443 0.562,-0.951 1.12,-0.904 1.343,0.114 1.83,1.519 1.866,2.666 0.022,0.701 -0.12,1.37 -0.374,2.002"
        fill="#515E75" />
    <path
        d="M34.683,67.462c-0.066,0.163 -0.139,0.322 -0.218,0.479 -0.261,0.1 -0.55,0.14 -0.773,-0.013 -0.137,-0.094 -0.22,-0.244 -0.303,-0.387a9.63,9.63 0,0 0,-1 -1.434c-0.321,-0.375 -0.233,-0.72 -0.006,-1.137a7.671,7.671 45,0 0,0.72 -1.87c0.025,-0.1 0.05,-0.205 0.082,-0.307 0.438,0.037 0.853,0.266 1.152,0.589 0.333,0.359 0.533,0.824 0.638,1.301 0.202,0.924 0.062,1.901 -0.292,2.779"
        fill="#515E75" />
    <path
        d="M27.372,66.346c0.277,-1.351 0.282,-2.75 0.59,-4.095 0.062,-0.273 0.163,-0.575 0.418,-0.697 0.322,-0.154 0.692,0.063 0.982,0.271 0.585,0.42 1.023,0.988 1.335,1.631 0.529,1.094 0.92,2.496 0.366,3.652 -0.054,0.113 -0.14,0.234 -0.253,0.294 -0.33,0.174 -0.403,-0.316 -0.674,-0.347 -0.19,-0.022 -0.309,0.239 -0.398,0.364 -0.754,1.052 -1.851,2.092 -3.162,2.38 -0.848,0.187 -0.24,-0.85 -0.03,-1.146 0.462,-0.648 0.668,-1.536 0.826,-2.307M14.497,60.833c-0.122,0.04 -0.232,0.096 -0.308,0.18 -0.099,0.11 -0.114,0.274 -0.075,0.416a1.26,1.26 0,0 0,0.21 0.386c0.725,1.02 1.546,1.97 2.365,2.918 0.09,0.103 0.187,0.212 0.32,0.243 0.101,0.024 0.207,0 0.307,-0.025 0.897,-0.221 1.787,-0.484 2.678,-0.731 0.244,-0.068 0.427,-0.15 0.432,-0.434 0.003,-0.135 -0.036,-0.265 -0.073,-0.395 -0.172,-0.606 -0.217,-1.23 -0.393,-1.832 -0.147,-0.503 -0.445,-0.93 -0.891,-1.217 -0.553,-0.355 -1.15,-0.62 -1.82,-0.487 -0.456,0.09 -0.899,0.29 -1.332,0.454 -0.471,0.179 -0.942,0.363 -1.42,0.524"
        fill="#1E2A3A" />
    <path
        d="M19.173,69.982a8.737,8.737 0,0 1,0.022 1.615,0.322 0.322,0 0,0 -0,0.067c0.003,0.029 -0.25,-0.067 -0.268,-0.074 -1.141,-0.48 -1.524,-1.88 -1.54,-2.998 -0.006,-0.422 0.023,-0.867 0.2,-1.257 0.043,-0.095 0.413,-0.733 0.564,-0.515 0.103,0.15 0.223,0.296 0.277,0.409 0.41,0.856 0.647,1.814 0.745,2.753"
        fill="#303D51" />
    <path
        d="M19.66,66.193l0.083,0.186a6.13,6.13 135,0 0,-0.123 -0.167,0.622 0.622,0 0,1 0.033,-0.016c0.002,-0.002 0.004,-0.002 0.007,-0.003"
        fill="#F1718A" />
    <path
        d="M23.667,70.974c-0.089,0.07 -0.205,0.097 -0.316,0.12 -0.282,0.061 -0.565,0.118 -0.849,0.17a2.785,2.785 0,0 0,0.072 -1.627c0.363,0.171 0.747,0.286 1.144,0.326 0.02,0.07 0.04,0.14 0.058,0.21 0.075,0.276 0.119,0.624 -0.109,0.801M15.006,77.224c-0.672,0.12 -1.76,0.388 -1.283,0.567 0.56,0.211 1.827,0 1.888,-0.082 0.064,-0.087 0.114,-0.258 0.163,-0.424 0.695,-2.39 2.683,-8.665 2.612,-9.04 -0.012,-0.067 -0.314,-0.202 -0.314,-0.202 -0.855,2.127 -2.97,9.164 -3.066,9.18M18.786,67.876c-0.2,-0.205 -1.253,-2.324 -1.143,-3.18 0.028,-0.219 0.089,-0.431 0.127,-0.648 0.436,-0.163 0.924,-0.45 1.36,-0.613 0.19,-0.072 0.39,-0.145 0.595,-0.127 0.431,0.037 0.72,0.453 0.888,0.849a4.768,4.768 0,0 1,0.354 2.342c-0.06,0.584 -0.268,1.21 -0.775,1.515 -0.473,0.284 -1.43,-0.072 -1.406,-0.138M28.402,69.756c0.4,0.437 0.698,0.926 0.958,1.364a1.558,1.558 0,0 1,0.627 -0.394c-0.322,-0.554 -0.647,-1.113 -1.08,-1.586 -0.163,-0.178 -0.344,-0.346 -0.56,-0.454 -0.216,-0.108 -0.474,-0.153 -0.705,-0.08 -0.23,0.074 -0.424,0.28 -0.44,0.52 -0.02,0.28 0.177,0.458 0.421,0.439 0.235,-0.019 0.529,-0.083 0.779,0.19"
        fill="#1E2A3A" />
    <path
        d="M29.755,70.715c0.074,-0.06 0.154,-0.104 0.241,-0.1 0.502,0.02 0.772,0.802 0.497,1.174 -0.235,0.317 -0.81,0.168 -1.05,-0.063 -0.14,-0.135 -0.257,-0.401 -0.172,-0.593 0.042,-0.096 0.146,-0.144 0.228,-0.198 0.094,-0.063 0.167,-0.15 0.256,-0.22M29.176,69.51c-0.007,0.06 -0.016,0.121 -0.001,0.18 0.032,0.124 0.157,0.197 0.256,0.28a0.88,0.88 0,0 1,0.228 0.294,3.028 3.028,0 0,0 0.078,-0.43c0.087,-0.891 0.043,-1.838 -0.537,-2.528 0.02,0.024 -0.102,0.248 -0.117,0.28 -0.047,0.096 -0.106,0.187 -0.154,0.283 -0.085,0.167 0.057,0.306 0.12,0.465a2.419,2.419 0,0 1,0.127 1.176"
        fill="#1E2A3A" />
    <path
        d="M22.502,71.264a28.72,28.72 45,0 1,-2.998 0.388c-0.101,0.008 -0.206,0.015 -0.31,0.012 -0.002,-0.021 -0,-0.046 -0,-0.067a8.742,8.742 0,0 0,-0.02 -1.615c-0.1,-0.94 -0.337,-1.897 -0.746,-2.753 -0.054,-0.113 -0.174,-0.258 -0.278,-0.41 0.33,-0.086 0.709,-0.082 1.003,-0.243 0.177,-0.097 0.29,-0.267 0.467,-0.364 0.042,0.055 0.084,0.11 0.123,0.167a14.27,14.27 135,0 0,0.572 1.122c0.086,0.148 0.909,-0.067 1.01,0.075 0.51,0.71 0.468,1.695 1.25,2.061a2.785,2.785 0,0 1,-0.073 1.627"
        fill="#515E75" />
    <path
        d="M21.33,57.856c1.295,-0.452 2.697,-0.682 4.05,-0.443 0.597,0.105 1.2,0.316 1.677,0.696 0.437,0.348 0.62,-0.414 0.763,0.132 0.159,0.6 0.652,4.846 0.58,5.55 -0.14,1.344 -0.04,2.204 -0.576,3.456a5.588,5.588 0,0 1,-1.006 1.574,3.5 3.5,0 0,1 -0.931,0.732 3.1,3.1 0,0 1,-0.91 0.318c-0.308,0.056 -0.944,0.125 -1.259,0.093 -0.397,-0.041 -0.78,-0.156 -1.144,-0.327 -1.71,-0.803 -2.16,-2.682 -2.831,-4.369 -0.381,-0.958 -1.087,-4.676 -1,-5.79 0.295,-0.532 0.252,-0.607 0.765,-0.93 1.157,-0.73 2.543,-1.046 3.914,-1.117"
        fill="#515E75" />
    <path
        d="M26.935,67.917l-4.353,0.738c-1.477,0.25 -2.881,-0.73 -3.134,-2.192l-0.11,-0.628c-0.253,-1.461 0.74,-2.848 2.218,-3.099l4.353,-0.738c1.477,-0.25 2.88,0.73 3.134,2.192l0.11,0.628c0.253,1.461 -0.74,2.848 -2.218,3.099"
        fill="#C9D6E2" />
    <path
        d="M24.587,61.522l-2.267,0.385a0.534,0.534 0,0 1,-0.618 -0.432l-0.021,-0.124a0.529,0.529 0,0 1,0.436 -0.61l2.268,-0.384a0.534,0.534 0,0 1,0.617 0.431l0.022,0.124a0.528,0.528 0,0 1,-0.437 0.61"
        fill="#FF4C5A" />
    <path
        d="M33.025,63.635c-0.025,0.328 -0.058,0.655 -0.09,0.978l-0.19,1.85c-0.052,0.52 -0.174,1.135 -0.661,1.335 -0.422,0.173 -0.922,-0.09 -1.17,-0.468 -0.249,-0.378 -0.31,-0.844 -0.376,-1.29 -0.088,-0.594 -0.195,-1.185 -0.323,-1.771 -0.082,-0.382 -0.178,-0.773 -0.417,-1.083 -0.312,-0.405 -0.532,-0.27 -0.939,-0.418 -0.007,-0.002 0.884,-0.772 2.319,-0.438 0.745,0.175 1.345,0.725 1.847,1.305"
        fill="#303D51" />
    <path
        d="M32.77,56.495c-0.14,0.993 -1.017,1.763 -1.915,2.157 -0.517,0.227 -1.09,0.256 -1.624,0.43 -1.338,0.435 -8.487,1.543 -11.24,1.523 -1.036,-0.007 -2.038,-0.076 -2.862,-0.782 -1.328,-1.355 -1.638,-4.232 -0.638,-6.151a0.196,0.196 0,0 1,0.01 -0.021c0.828,-1.569 2.595,-2.607 4.22,-3.204 2.658,-0.977 5.516,-0.994 8.311,-0.834 1.087,0.064 2.299,0.024 3.217,0.663a4.113,4.113 0,0 1,0.506 0.417c0.637,0.613 1.112,1.433 1.404,2.268 0.386,1.105 0.762,2.459 0.61,3.534"
        fill="#FFC300" />
    <path
        d="M25.282,46.475c-1.572,-0.027 -4.912,0.1 -7.453,1.195 -3.642,1.57 -2.235,4.593 -2.235,4.593 2.481,-1.347 10.487,-2.579 13.384,-2.488 -0,0 0.305,-3.233 -3.696,-3.3"
        fill="#515E75" />
    <path
        d="M32.77,56.495c-0.14,0.993 -1.017,1.763 -1.915,2.157 -0.517,0.227 -1.066,0.353 -1.624,0.43 -0.247,-0.336 -0.402,-0.791 -0.422,-1.394 -0.012,-0.35 -0.016,-0.963 -0.036,-1.314 -0.116,-2.136 0.513,-4.173 1.982,-5.681 0.637,0.613 1.112,1.433 1.404,2.268 0.386,1.105 0.762,2.459 0.61,3.534M17.991,60.605c-1.033,0.067 -2.038,-0.076 -2.862,-0.781 -1.328,-1.356 -1.639,-4.233 -0.638,-6.152 0.152,0.27 2.234,1.935 2.734,3.009a10.562,10.562 0,0 1,0.763 2.295c0.111,0.528 0.157,1.126 0.003,1.63"
        fill="#EDA420" />
    <path
        d="M27.085,57.996l-1.53,0.476 -4.182,0.69s-3.041,-3.558 -2.876,-3.51c0.32,0.092 1.149,0.125 1.48,0.168a9.694,9.694 135,0 0,2.045 0.03c0.736,-0.06 1.49,-0.198 2.209,-0.387 0.835,-0.22 1.664,-0.514 2.398,-0.96 0.217,-0.133 0.476,3.488 0.456,3.493"
        fill="#FF4C5A" />
    <path
        d="M28.809,57.688c0.022,0.523 -2.806,0.922 -2.806,0.922a0.337,0.337 0,0 1,-0.407 -0.32l-0,-0.003a7.068,7.068 0,0 1,0.99 -3.715c0.028,-0.046 0.076,-0.074 0.113,-0.113 0.544,-0.573 1.818,-1.47 2.718,-1.791 -0,0 -0.237,0.495 -0.503,1.67 -0,0 -0.182,1.584 -0.105,3.35M18.056,59.467c0.677,0.213 2.835,-0.027 2.835,-0.027 0.54,-0.034 0.813,-0.26 0.746,-0.457l-0.002,-0.004a7.124,7.124 135,0 0,-2.194 -3.17c-0.042,-0.035 -0.097,-0.044 -0.144,-0.07 -0.622,-0.325 -2.44,-0.987 -3.499,-0.795 0.284,0.221 1.213,1.263 1.293,1.484 -0,0 0.759,1.328 0.965,3.039"
        fill="#ECD9B1" />
    <path d="M14.78,61.966l-0.084,1.728 -0.137,0.038c-0.075,-0.776 0.221,-1.766 0.221,-1.766"
        fill="#1E2A3A" />
    <path
        d="M14.774,63.673l-0.078,0.02 -0.137,0.038 -0.214,0.06a4.042,4.042 45,0 1,0.04 -1.022c0.07,-0.474 0.18,-0.849 0.185,-0.864l0.21,0.06 0.21,0.061c-0.09,0.305 -0.26,1.061 -0.216,1.647"
        fill="#1E2A3A" />
    <path
        d="M17.173,64.468c-0.01,0.04 -0.054,0.059 -0.092,0.073 -0.563,0.2 -2.93,0.66 -3.473,0.416 -0.128,-0.058 -0.598,-0.79 -0.571,-0.828l0.002,-0.001c0.437,-0.103 0.872,-0.22 1.306,-0.338l0.214,-0.058 0.137,-0.038 0.078,-0.021a65.016,65.016 45,0 1,0.744 -0.202c0.27,-0.07 0.55,-0.149 0.815,-0.021 0.369,0.178 0.63,0.586 0.818,0.93 0.015,0.028 0.03,0.058 0.022,0.088"
        fill="#1E2A3A" />
    <path
        d="M15.594,52.263c1.292,-1.57 1.524,-3.03 1.524,-3.03 0.403,-1.37 1.226,-2.238 2.704,-2.502l2.86,-0.56c2.53,-0.44 5.002,3.783 6.966,3.868 -0.693,0.574 -1.964,0.316 -2.405,0.121 -1.508,-0.194 -2.641,-3.2 -4.794,-2.91l-2.458,0.535c-1.145,0.257 -1.317,0.843 -1.667,1.925 -0,0 -0.689,2.002 -1.149,2.132 -0.78,0.963 -0.584,0.782 -1.58,0.421"
        fill="#FFC300" />
    <path
        d="M23.01,63.131c-1.332,0.645 -1.915,2.567 -1.348,3.862 0.722,1.648 2.949,0.795 4.28,0.525 1.662,-0.338 1.558,-2.386 0.655,-3.446 -0.61,-0.717 -1.502,-1.248 -2.425,-1.248 -0.388,0 -0.781,0.094 -1.161,0.307z"
        fill="#FF4C5A" />
    <path
        d="M22.42,64.648c-0.097,0.344 0.455,0.435 0.551,0.094a0.689,0.689 0,0 1,0.254 -0.381l-0,0.005l0.23,2.317 -0.224,0.015c-0.36,0.018 -0.306,0.567 0.054,0.55 0.966,-0.048 2.474,-0.331 2.698,-1.442 0.17,-0.855 -0.563,-1.094 -1.265,-1.059 0.12,-0.354 0.004,-0.721 -0.476,-0.957 -0.187,-0.091 -0.377,-0.133 -0.562,-0.133 -0.577,0 -1.096,0.408 -1.26,0.991z"
        fill="#FFF" />
    <path
        d="M23.78,64.313a0.317,0.317 0,0 0,-0.02 -0.084l0.085,0.01c0.536,0.088 0.385,0.444 0.048,0.689 -0.018,0.013 -0.032,0.027 -0.047,0.042l-0.065,-0.657zM24.157,65.41a1.994,1.994 0,0 1,0.908 -0.132c0.47,0.052 0.45,0.551 0.159,0.818 -0.309,0.282 -0.762,0.435 -1.217,0.517l-0.122,-1.25a0.259,0.259 0,0 0,0.172 0.066,0.269 0.269,0 0,0 0.1,-0.02z"
        fill="#FF4C5A" />
    <path
        d="M18.513,42.653s0.399,0.803 2.06,0.501c1.66,-0.3 1.635,-1.434 1.635,-1.434l-0.032,-1.184 -3.982,1.074 0.319,1.043z"
        fill="#303D51" />
    <path
        d="M25.717,44.718l-2.301,-0.504c-0.396,-0.087 -0.654,-0.433 -0.577,-0.771l0.513,-1.413c0.138,-0.427 0.498,-0.664 0.893,-0.576l2.376,0.743c0.395,0.088 0.52,0.484 0.443,0.822l-0.037,0.085 -0.091,0.214 -0.12,0.276c-0.063,0.148 -0.122,0.299 -0.185,0.447 -0.067,0.16 -0.134,0.334 -0.28,0.455 -0.11,0.092 -0.401,0.29 -0.805,0.184l0.171,0.038"
        fill="#515E75" />
    <path
        d="M24.571,42.194l-0.41,-0.113a0.095,0.095 0,0 1,-0.049 -0.153l0.118,-0.142a0.098,0.098 0,0 1,0.101 -0.031l0.41,0.113a0.095,0.095 0,0 1,0.05 0.153l-0.12,0.142c-0.024,0.03 -0.063,0.041 -0.1,0.031M25.605,42.474l-0.41,-0.114a0.095,0.095 0,0 1,-0.049 -0.153l0.118,-0.141a0.097,0.097 0,0 1,0.1 -0.032l0.411,0.113a0.095,0.095 0,0 1,0.049 0.153l-0.119,0.142a0.099,0.099 0,0 1,-0.1 0.032M26.514,42.816l-0.41,-0.113a0.095,0.095 0,0 1,-0.049 -0.153l0.119,-0.142a0.097,0.097 0,0 1,0.1 -0.031l0.41,0.113a0.095,0.095 0,0 1,0.05 0.153l-0.12,0.141c-0.023,0.03 -0.063,0.042 -0.1,0.032M24.271,42.748l-0.41,-0.114a0.095,0.095 0,0 1,-0.048 -0.153l0.117,-0.141a0.097,0.097 0,0 1,0.101 -0.032l0.41,0.114a0.095,0.095 0,0 1,0.049 0.153l-0.118,0.14c-0.025,0.03 -0.064,0.043 -0.101,0.032M25.305,43.027l-0.41,-0.113a0.095,0.095 0,0 1,-0.05 -0.153l0.12,-0.142a0.098,0.098 0,0 1,0.1 -0.032l0.41,0.114a0.096,0.096 0,0 1,0.049 0.153l-0.12,0.141c-0.023,0.03 -0.063,0.042 -0.1,0.032M26.214,43.369l-0.41,-0.113a0.095,0.095 0,0 1,-0.049 -0.153l0.119,-0.141a0.097,0.097 0,0 1,0.1 -0.032l0.41,0.113a0.095,0.095 0,0 1,0.05 0.153l-0.119,0.142a0.097,0.097 0,0 1,-0.1 0.031M23.971,43.301l-0.41,-0.114a0.095,0.095 0,0 1,-0.049 -0.153l0.119,-0.14a0.097,0.097 0,0 1,0.1 -0.032l0.41,0.113a0.095,0.095 0,0 1,0.05 0.153l-0.12,0.141a0.096,0.096 0,0 1,-0.1 0.032M25.005,43.58l-0.41,-0.113a0.095,0.095 0,0 1,-0.05 -0.153l0.119,-0.141a0.097,0.097 0,0 1,0.1 -0.032l0.41,0.113a0.095,0.095 0,0 1,0.05 0.153l-0.119,0.141c-0.024,0.03 -0.064,0.043 -0.1,0.032M25.914,43.923l-0.41,-0.114a0.095,0.095 0,0 1,-0.048 -0.152l0.118,-0.142a0.097,0.097 0,0 1,0.1 -0.032l0.41,0.113a0.095,0.095 0,0 1,0.05 0.153l-0.12,0.142c-0.023,0.03 -0.063,0.042 -0.1,0.032M23.671,43.854l-0.41,-0.113a0.095,0.095 0,0 1,-0.048 -0.153l0.117,-0.142a0.097,0.097 0,0 1,0.101 -0.031l0.41,0.113a0.095,0.095 0,0 1,0.05 0.153l-0.12,0.142a0.099,0.099 0,0 1,-0.1 0.031M24.705,44.133l-0.41,-0.113a0.095,0.095 0,0 1,-0.049 -0.153l0.118,-0.141a0.097,0.097 0,0 1,0.1 -0.032l0.411,0.114a0.095,0.095 0,0 1,0.049 0.152l-0.119,0.142a0.097,0.097 0,0 1,-0.1 0.031M25.614,44.476l-0.41,-0.113a0.095,0.095 0,0 1,-0.049 -0.153l0.119,-0.142a0.097,0.097 0,0 1,0.1 -0.031l0.41,0.113a0.095,0.095 0,0 1,0.05 0.153l-0.12,0.141c-0.023,0.03 -0.063,0.042 -0.1,0.032"
        fill="#DBB127" />
    <path
        d="M22.947,31.348s-1.268,0.61 -1.716,0.661c-0.449,0.05 -1.965,-0.112 -3.022,0.47 -0.987,0.546 -4.192,2.627 -4.665,4.282 -0.473,1.656 -0.292,1.978 -0.609,2.74 -0.316,0.76 -1.224,1.63 -1.052,2.124 0.171,0.493 0.735,1.142 0.735,1.142s11.225,-11.391 11.21,-11.518c-0,0 -0.242,-0.196 -0.88,0.098"
        fill="#FFC300" />
    <path
        d="M24.291,33.23l4.605,-2.812a0.58,0.58 0,0 0,0.193 -0.805l-0.074,-0.118a0.596,0.596 0,0 0,-0.814 -0.19l-4.606,2.81 0.696,1.115z"
        fill="#49586D" />
    <path
        d="M24.856,33.505s0.072,-0.057 0.442,-0.243c0.415,-0.208 -0.762,-2.064 -1.067,-1.895l-0.442,0.242 1.067,1.896z"
        fill="#303D51" />
    <path
        d="M12.478,42.298s1.469,-2.64 1.52,-2.945c0.052,-0.306 -0.476,-1.528 0.597,-3.1s2.97,-3.108 4.031,-3.654c1.06,-0.545 2.437,-0.23 3.157,-0.353 0.72,-0.123 2.046,-0.997 2.046,-0.997s0.897,0.668 1.056,1.675c0.158,1.008 0.173,1.476 0.173,1.476s-1.686,0.787 -2.021,1.251c-0.336,0.465 -1.125,2.318 -0.859,5.022 -0.032,0.09 0.21,1.164 -1.237,1.96 -0.773,0.427 -2.251,0.238 -2.54,-0.327 -0.346,-0.678 -0.326,-0.735 -0.782,-0.94 -0.17,0.019 -1.407,2.608 -1.723,3.241 -0.061,0.22 -1.977,0.093 -2.352,-0.164 -0.375,-0.257 -1.352,-1.626 -1.066,-2.144"
        fill="#515E75" />
    <path
        d="M20.136,32.825c-1.463,0.008 -3.036,1.54 -3.036,1.54s-2.137,1.737 -2.27,3.186c-0.013,0.487 0.394,1.935 1.278,2.07 0.472,0.073 2.197,-0.003 4.204,-1.857 2.026,-1.832 1.898,-3.43 1.841,-3.863 -0.093,-0.709 -1.53,-1.048 -2.017,-1.076"
        fill="#303D51" />
    <path
        d="M19.866,33.62c-0.371,-0.061 -0.56,0.09 -0.788,0.27 -0.262,0.208 -1.486,1.321 -1.486,1.321s-1.19,1.088 -1.418,1.332c-0.197,0.211 -0.363,0.389 -0.33,0.763 0.032,0.373 0.25,1.862 1.082,1.748 2.26,-0.31 4.443,-2.747 4.61,-4.228 0.093,-0.832 -1.298,-1.146 -1.67,-1.206"
        fill="#8C99AC" />
    <path
        d="M14.63,44.384l-2.867,5.24c-0.165,0.304 -0.548,0.42 -0.856,0.257l-0.34,-0.18a0.622,0.622 0,0 1,-0.26 -0.847l2.866,-5.24 1.457,0.77z"
        fill="#49586D" />
    <path
        d="M15.178,44.613c-0.112,0.207 -0.067,0.092 -0.274,0.555 -0.074,0.163 -0.362,0.146 -0.716,0.032 0.099,-0.238 0.066,-0.683 -0.456,-0.946 -0.692,-0.348 -0.991,0.162 -0.991,0.162 -0.206,-0.171 -0.323,-0.328 -0.274,-0.425 0.19,-0.385 0.064,-0.14 0.273,-0.554 0.353,-0.546 2.61,0.345 2.438,1.176"
        fill="#303D51" />
    <path
        d="M52.791,78.628c-2.987,0.226 -20.697,1.355 -14.31,-2.36 10.136,-5.894 -4.952,-14.387 8.347,-15.327 16.696,-1.178 4.174,11.79 10.137,13.56 7.955,2.359 3.578,3.536 -4.174,4.126"
        fill="#008253" />
    <path
        d="M56.095,54.176l-14.266,2.91 -2.48,-11.89c-0.272,-1.298 0.354,-2.754 1.567,-3.317 -0,0 2.794,-1.784 4.708,-2.192 1.916,-0.408 5.242,0.313 5.242,0.313a2.892,2.892 0,0 1,2.748 2.287l2.481,11.89z"
        fill="#FFC300" />
    <path
        d="M56.246,54.846l-14.266,2.91 -2.481,-11.89c-0.271,-1.299 0.384,-2.754 1.597,-3.318 -0,0 2.774,-1.784 4.689,-2.191 1.915,-0.408 5.232,0.313 5.232,0.313a2.892,2.892 0,0 1,2.748 2.287l2.48,11.89z"
        fill="#303D51" />
    <path d="M49.837,51.383l-3.713,0.762 -2.143,-10.214 3.713,-0.762z" fill="#515E75" />
    <path d="M40.386,39.914a0.242,0.242 0,0 1,0.07 -0.04l-0.07,0.04" fill="#F1718A" />
    <path
        d="M58.609,63.635c-0.025,0.328 -0.058,0.655 -0.09,0.978l-0.19,1.85c-0.052,0.52 -0.174,1.135 -0.661,1.335 -0.422,0.173 -0.922,-0.09 -1.17,-0.468 -0.249,-0.378 -0.31,-0.844 -0.376,-1.29 -0.088,-0.594 -0.195,-1.185 -0.323,-1.771 -0.082,-0.382 -0.178,-0.773 -0.417,-1.083 -0.312,-0.405 -0.637,-0.303 -1.044,-0.451l-0.022,-0.009c-0.352,-0.14 -0.76,-0.58 -0.899,-0.914 -0.086,-0.209 -0.106,-0.44 -0.123,-0.665 -0.041,-0.552 -0.064,-1.133 0.183,-1.63 0.226,-0.458 0.669,-0.794 1.159,-0.954 0.49,-0.161 1.025,-0.157 1.531,-0.055 0.587,0.117 1.16,0.376 1.56,0.817a2.9,2.9 45,0 1,0.517 0.86c0.445,1.084 0.454,2.272 0.365,3.45"
        fill="#1E2A3A" />
    <path
        d="M54.21,76.688c-0.734,0.872 -2.193,0.83 -2.843,0.762a0.627,0.627 0,0 1,-0.485 -0.32c-1.204,-2.191 -1.93,-5.83 -2.153,-7.073a0.616,0.616 0,0 1,0.315 -0.65c0.786,-0.43 2.561,-1.321 3.413,-1.138a0.731,0.731 0,0 1,0.208 0.078c0.812,0.473 1.51,6.297 1.68,7.835l0.002,0.013 0.005,0.06c0.01,0.156 -0.04,0.312 -0.141,0.433"
        fill="#303D51" />
    <path
        d="M54.284,76.598c-0.303,0.166 -0.772,-2.02 -0.826,-2.255 -0.282,-1.224 -0.544,-2.454 -0.747,-3.693 -0.096,-0.584 -0.181,-1.172 -0.225,-1.763 -0.013,-0.198 -0.031,-0.408 -0.028,-0.618a0.712,0.712 0,0 1,0.207 0.078c0.812,0.473 1.509,6.297 1.68,7.835l0.002,0.013c0.007,0.08 0.02,0.356 -0.063,0.402"
        fill="#1E2A3A" />
    <path
        d="M60.262,67.461c-0.232,0.575 -0.554,1.113 -0.924,1.613 -0.293,0.394 -0.704,1.065 -1.225,1.17 -0.273,0.057 -0.56,-0.048 -0.777,-0.218 -0.262,-0.205 -0.48,-0.508 -0.606,-0.813 -0.339,-0.816 -0.12,-1.742 0.1,-2.597l0.474,-1.829c0.096,-0.369 0.193,-0.74 0.346,-1.09 0.194,-0.443 0.562,-0.951 1.12,-0.904 1.343,0.114 1.83,1.519 1.866,2.666 0.022,0.701 -0.12,1.37 -0.374,2.002"
        fill="#515E75" />
    <path
        d="M60.267,67.462c-0.066,0.163 -0.139,0.322 -0.218,0.479 -0.261,0.1 -0.55,0.14 -0.773,-0.013 -0.137,-0.094 -0.22,-0.244 -0.303,-0.387a9.63,9.63 0,0 0,-1 -1.434c-0.321,-0.375 -0.233,-0.72 -0.006,-1.137a7.671,7.671 0,0 0,0.72 -1.87c0.025,-0.1 0.05,-0.205 0.082,-0.307 0.438,0.037 0.853,0.266 1.152,0.589 0.333,0.359 0.533,0.824 0.638,1.301 0.202,0.924 0.062,1.901 -0.292,2.779"
        fill="#515E75" />
    <path
        d="M52.956,66.346c0.277,-1.351 0.282,-2.75 0.59,-4.095 0.062,-0.273 0.163,-0.575 0.418,-0.697 0.322,-0.154 0.692,0.063 0.982,0.271 0.585,0.42 1.023,0.988 1.335,1.631 0.529,1.094 0.92,2.496 0.366,3.652 -0.054,0.113 -0.14,0.234 -0.253,0.294 -0.33,0.174 -0.403,-0.316 -0.674,-0.347 -0.19,-0.022 -0.309,0.239 -0.398,0.364 -0.754,1.052 -1.851,2.092 -3.162,2.38 -0.848,0.187 -0.24,-0.85 -0.03,-1.146 0.462,-0.648 0.668,-1.536 0.826,-2.307M40.08,60.833c-0.12,0.04 -0.231,0.096 -0.307,0.18 -0.099,0.11 -0.114,0.274 -0.075,0.416a1.26,1.26 0,0 0,0.21 0.386c0.725,1.02 1.546,1.97 2.365,2.918 0.09,0.103 0.187,0.212 0.32,0.243 0.101,0.024 0.207,0 0.307,-0.025 0.897,-0.221 1.787,-0.484 2.678,-0.731 0.244,-0.068 0.427,-0.15 0.432,-0.434 0.003,-0.135 -0.036,-0.265 -0.073,-0.395 -0.172,-0.606 -0.217,-1.23 -0.393,-1.832 -0.147,-0.503 -0.445,-0.93 -0.891,-1.217 -0.553,-0.355 -1.15,-0.62 -1.82,-0.487 -0.456,0.09 -0.899,0.29 -1.332,0.454 -0.471,0.179 -0.942,0.363 -1.42,0.524"
        fill="#1E2A3A" />
    <path
        d="M44.757,69.982a8.737,8.737 0,0 1,0.022 1.615,0.322 0.322,0 0,0 -0,0.067c0.003,0.029 -0.25,-0.067 -0.268,-0.074 -1.141,-0.48 -1.524,-1.88 -1.54,-2.998 -0.006,-0.422 0.023,-0.867 0.2,-1.257 0.043,-0.095 0.413,-0.733 0.564,-0.515 0.103,0.15 0.223,0.296 0.277,0.409 0.41,0.856 0.647,1.814 0.745,2.753"
        fill="#303D51" />
    <path
        d="M45.244,66.193l0.083,0.186a6.13,6.13 0,0 0,-0.123 -0.167,0.622 0.622,0 0,1 0.033,-0.016c0.002,-0.002 0.004,-0.002 0.007,-0.003"
        fill="#F1718A" />
    <path
        d="M49.251,70.974c-0.089,0.07 -0.205,0.097 -0.316,0.12 -0.282,0.061 -0.565,0.118 -0.849,0.17a2.785,2.785 0,0 0,0.072 -1.627c0.363,0.171 0.747,0.286 1.144,0.326 0.02,0.07 0.04,0.14 0.058,0.21 0.075,0.276 0.119,0.624 -0.109,0.801M40.59,77.224c-0.672,0.12 -1.76,0.388 -1.283,0.567 0.56,0.211 1.827,0 1.888,-0.082 0.064,-0.087 0.114,-0.258 0.163,-0.424 0.695,-2.39 2.683,-8.665 2.612,-9.04 -0.012,-0.067 -0.314,-0.202 -0.314,-0.202 -0.855,2.127 -2.97,9.164 -3.066,9.18M44.37,67.876c-0.2,-0.205 -1.253,-2.324 -1.143,-3.18 0.028,-0.219 0.089,-0.431 0.127,-0.648 0.436,-0.163 0.924,-0.45 1.36,-0.613 0.19,-0.072 0.39,-0.145 0.595,-0.127 0.431,0.037 0.72,0.453 0.888,0.849a4.768,4.768 0,0 1,0.354 2.342c-0.06,0.584 -0.268,1.21 -0.775,1.515 -0.473,0.284 -1.43,-0.072 -1.406,-0.138M53.986,69.756c0.4,0.437 0.698,0.926 0.958,1.364a1.558,1.558 0,0 1,0.627 -0.394c-0.322,-0.554 -0.647,-1.113 -1.08,-1.586 -0.163,-0.178 -0.344,-0.346 -0.56,-0.454 -0.216,-0.108 -0.474,-0.153 -0.705,-0.08 -0.23,0.074 -0.424,0.28 -0.44,0.52 -0.02,0.28 0.177,0.458 0.421,0.439 0.235,-0.019 0.529,-0.083 0.779,0.19"
        fill="#1E2A3A" />
    <path
        d="M55.339,70.715c0.074,-0.06 0.154,-0.104 0.241,-0.1 0.502,0.02 0.772,0.802 0.497,1.174 -0.235,0.317 -0.81,0.168 -1.05,-0.063 -0.14,-0.135 -0.257,-0.401 -0.172,-0.593 0.042,-0.096 0.146,-0.144 0.228,-0.198 0.094,-0.063 0.167,-0.15 0.256,-0.22M54.76,69.51c-0.007,0.06 -0.016,0.121 -0.001,0.18 0.032,0.124 0.157,0.197 0.256,0.28a0.88,0.88 0,0 1,0.228 0.294,3.028 3.028,0 0,0 0.078,-0.43c0.087,-0.891 0.043,-1.838 -0.537,-2.528 0.02,0.024 -0.102,0.248 -0.117,0.28 -0.047,0.096 -0.106,0.187 -0.154,0.283 -0.085,0.167 0.057,0.306 0.12,0.465a2.419,2.419 0,0 1,0.127 1.176"
        fill="#1E2A3A" />
    <path
        d="M48.086,71.264a28.72,28.72 0,0 1,-2.998 0.388c-0.101,0.008 -0.206,0.015 -0.31,0.012 -0.002,-0.021 -0,-0.046 -0,-0.067a8.742,8.742 0,0 0,-0.02 -1.615c-0.1,-0.94 -0.337,-1.897 -0.746,-2.753 -0.054,-0.113 -0.174,-0.258 -0.278,-0.41 0.33,-0.086 0.709,-0.082 1.003,-0.243 0.177,-0.097 0.29,-0.267 0.467,-0.364 0.042,0.055 0.084,0.11 0.123,0.167a14.27,14.27 45,0 0,0.572 1.122c0.086,0.148 0.909,-0.067 1.01,0.075 0.51,0.71 0.468,1.695 1.25,2.061a2.785,2.785 0,0 1,-0.073 1.627"
        fill="#515E75" />
    <path
        d="M46.914,57.856c1.295,-0.452 2.697,-0.682 4.05,-0.443 0.597,0.105 1.2,0.316 1.677,0.696 0.437,0.348 0.62,-0.414 0.763,0.132 0.159,0.6 0.652,4.846 0.58,5.55 -0.14,1.344 -0.04,2.204 -0.576,3.456a5.588,5.588 0,0 1,-1.006 1.574,3.5 3.5,0 0,1 -0.931,0.732 3.1,3.1 0,0 1,-0.91 0.318c-0.308,0.056 -0.944,0.125 -1.259,0.093 -0.397,-0.041 -0.78,-0.156 -1.144,-0.327 -1.71,-0.803 -2.16,-2.682 -2.831,-4.369 -0.381,-0.958 -1.087,-4.676 -1,-5.79 0.295,-0.532 0.252,-0.607 0.765,-0.93 1.157,-0.73 2.543,-1.046 3.914,-1.117"
        fill="#515E75" />
    <path
        d="M52.52,67.917l-4.354,0.738c-1.477,0.25 -2.881,-0.73 -3.134,-2.192l-0.11,-0.628c-0.253,-1.461 0.74,-2.848 2.218,-3.099l4.353,-0.738c1.477,-0.25 2.88,0.73 3.134,2.192l0.11,0.628c0.253,1.461 -0.74,2.848 -2.218,3.099"
        fill="#C9D6E2" />
    <path
        d="M50.171,61.522l-2.267,0.385a0.534,0.534 0,0 1,-0.618 -0.432l-0.021,-0.124a0.529,0.529 0,0 1,0.436 -0.61l2.268,-0.384a0.534,0.534 0,0 1,0.617 0.431l0.022,0.124a0.528,0.528 0,0 1,-0.437 0.61"
        fill="#FF4C5A" />
    <path
        d="M58.609,63.635c-0.025,0.328 -0.058,0.655 -0.09,0.978l-0.19,1.85c-0.052,0.52 -0.174,1.135 -0.661,1.335 -0.422,0.173 -0.922,-0.09 -1.17,-0.468 -0.249,-0.378 -0.31,-0.844 -0.376,-1.29 -0.088,-0.594 -0.195,-1.185 -0.323,-1.771 -0.082,-0.382 -0.178,-0.773 -0.417,-1.083 -0.312,-0.405 -0.532,-0.27 -0.939,-0.418 -0.007,-0.002 0.884,-0.772 2.319,-0.438 0.745,0.175 1.345,0.725 1.847,1.305"
        fill="#303D51" />
    <path
        d="M58.353,56.495c-0.14,0.993 -1.016,1.763 -1.914,2.157 -0.517,0.227 -1.09,0.256 -1.624,0.43 -1.338,0.435 -8.487,1.543 -11.24,1.523 -1.036,-0.007 -2.038,-0.076 -2.862,-0.782 -1.328,-1.355 -1.638,-4.232 -0.638,-6.151a0.196,0.196 0,0 1,0.01 -0.021c0.828,-1.569 2.595,-2.607 4.22,-3.204 2.658,-0.977 5.516,-0.994 8.311,-0.834 1.087,0.064 2.299,0.024 3.217,0.663a4.113,4.113 0,0 1,0.506 0.417c0.637,0.613 1.112,1.433 1.404,2.268 0.386,1.105 0.762,2.459 0.61,3.534"
        fill="#FFC300" />
    <path
        d="M50.866,46.475c-1.572,-0.027 -4.912,0.1 -7.453,1.195 -3.642,1.57 -2.235,4.593 -2.235,4.593 2.481,-1.347 10.487,-2.579 13.384,-2.488 -0,0 0.305,-3.233 -3.696,-3.3"
        fill="#515E75" />
    <path
        d="M58.353,56.495c-0.14,0.993 -1.016,1.763 -1.914,2.157 -0.517,0.227 -1.066,0.353 -1.624,0.43 -0.247,-0.336 -0.402,-0.791 -0.422,-1.394 -0.012,-0.35 -0.016,-0.963 -0.036,-1.314 -0.116,-2.136 0.513,-4.173 1.982,-5.681 0.637,0.613 1.112,1.433 1.404,2.268 0.386,1.105 0.762,2.459 0.61,3.534M43.575,60.605c-1.033,0.067 -2.038,-0.076 -2.862,-0.781 -1.328,-1.356 -1.639,-4.233 -0.638,-6.152 0.152,0.27 2.234,1.935 2.734,3.009a10.562,10.562 0,0 1,0.763 2.295c0.111,0.528 0.157,1.126 0.003,1.63"
        fill="#EDA420" />
    <path
        d="M52.67,57.996l-1.53,0.476 -4.183,0.69s-3.041,-3.558 -2.876,-3.51c0.32,0.092 1.149,0.125 1.48,0.168a9.694,9.694 0,0 0,2.045 0.03c0.736,-0.06 1.49,-0.198 2.209,-0.387 0.835,-0.22 1.664,-0.514 2.398,-0.96 0.217,-0.133 0.476,3.488 0.456,3.493"
        fill="#FF4C5A" />
    <path
        d="M54.393,57.688c0.022,0.523 -2.806,0.922 -2.806,0.922a0.337,0.337 0,0 1,-0.407 -0.32l-0,-0.003a7.068,7.068 0,0 1,0.99 -3.715c0.028,-0.046 0.076,-0.074 0.113,-0.113 0.544,-0.573 1.818,-1.47 2.718,-1.791 -0,0 -0.237,0.495 -0.503,1.67 -0,0 -0.182,1.584 -0.105,3.35M43.64,59.467c0.677,0.213 2.835,-0.027 2.835,-0.027 0.54,-0.034 0.813,-0.26 0.746,-0.457l-0.002,-0.004a7.124,7.124 135,0 0,-2.194 -3.17c-0.042,-0.035 -0.097,-0.044 -0.144,-0.07 -0.622,-0.325 -2.44,-0.987 -3.499,-0.795 0.284,0.221 1.213,1.263 1.293,1.484 -0,0 0.759,1.328 0.965,3.039"
        fill="#ECD9B1" />
    <path d="M40.364,61.966l-0.084,1.728 -0.137,0.038c-0.075,-0.776 0.221,-1.766 0.221,-1.766"
        fill="#1E2A3A" />
    <path
        d="M40.358,63.673l-0.078,0.02 -0.137,0.038 -0.214,0.06a4.042,4.042 45,0 1,0.04 -1.022c0.07,-0.474 0.18,-0.849 0.185,-0.864l0.21,0.06 0.21,0.061c-0.09,0.305 -0.26,1.061 -0.216,1.647"
        fill="#1E2A3A" />
    <path
        d="M42.757,64.468c-0.01,0.04 -0.054,0.059 -0.092,0.073 -0.563,0.2 -2.93,0.66 -3.473,0.416 -0.128,-0.058 -0.598,-0.79 -0.571,-0.828l0.002,-0.001c0.437,-0.103 0.872,-0.22 1.306,-0.338l0.214,-0.058 0.137,-0.038 0.078,-0.021a65.013,65.013 0,0 1,0.744 -0.202c0.27,-0.07 0.55,-0.149 0.815,-0.021 0.369,0.178 0.63,0.586 0.818,0.93 0.015,0.028 0.03,0.058 0.022,0.088"
        fill="#1E2A3A" />
    <path
        d="M41.178,52.263c1.292,-1.57 1.524,-3.03 1.524,-3.03 0.403,-1.37 1.226,-2.238 2.704,-2.502l2.86,-0.56c2.53,-0.44 5.002,3.783 6.966,3.868 -0.693,0.574 -1.964,0.316 -2.405,0.121 -1.508,-0.194 -2.641,-3.2 -4.794,-2.91l-2.458,0.535c-1.145,0.257 -1.317,0.843 -1.667,1.925 -0,0 -0.689,2.002 -1.149,2.132 -0.78,0.963 -0.584,0.782 -1.58,0.421"
        fill="#FFC300" />
    <path
        d="M48.595,63.131c-1.333,0.645 -1.916,2.567 -1.349,3.862 0.722,1.648 2.949,0.795 4.28,0.525 1.662,-0.338 1.558,-2.386 0.655,-3.446 -0.61,-0.717 -1.502,-1.248 -2.425,-1.248 -0.388,0 -0.781,0.094 -1.161,0.307z"
        fill="#FF4C5A" />
    <path
        d="M48.004,64.648c-0.097,0.344 0.455,0.435 0.551,0.094a0.689,0.689 0,0 1,0.254 -0.381l-0,0.005l0.23,2.317 -0.224,0.015c-0.36,0.018 -0.306,0.567 0.054,0.55 0.966,-0.048 2.474,-0.331 2.698,-1.442 0.17,-0.855 -0.563,-1.094 -1.265,-1.059 0.12,-0.354 0.004,-0.721 -0.476,-0.957 -0.187,-0.091 -0.377,-0.133 -0.562,-0.133 -0.577,0 -1.096,0.408 -1.26,0.991z"
        fill="#FFF" />
    <path
        d="M49.365,64.313a0.317,0.317 0,0 0,-0.021 -0.084l0.085,0.01c0.536,0.088 0.385,0.444 0.048,0.689 -0.018,0.013 -0.032,0.027 -0.047,0.042l-0.065,-0.657zM49.74,65.41a1.994,1.994 0,0 1,0.91 -0.132c0.469,0.052 0.448,0.551 0.158,0.818 -0.309,0.282 -0.762,0.435 -1.217,0.517l-0.122,-1.25a0.259,0.259 0,0 0,0.172 0.066,0.269 0.269,0 0,0 0.1,-0.02z"
        fill="#FF4C5A" />
    <path
        d="M44.097,42.653s0.399,0.803 2.06,0.501c1.66,-0.3 1.635,-1.434 1.635,-1.434l-0.032,-1.184 -3.982,1.074 0.319,1.043z"
        fill="#303D51" />
    <path
        d="M51.301,44.718L49,44.214c-0.396,-0.087 -0.654,-0.433 -0.577,-0.771l0.513,-1.413c0.138,-0.427 0.498,-0.664 0.893,-0.576l2.376,0.743c0.395,0.088 0.52,0.484 0.443,0.822l-0.037,0.085 -0.091,0.214 -0.12,0.276c-0.063,0.148 -0.122,0.299 -0.185,0.447 -0.067,0.16 -0.134,0.334 -0.28,0.455 -0.11,0.092 -0.401,0.29 -0.805,0.184l0.171,0.038"
        fill="#515E75" />
    <path
        d="M50.155,42.194l-0.41,-0.113a0.095,0.095 0,0 1,-0.049 -0.153l0.118,-0.142a0.098,0.098 0,0 1,0.101 -0.031l0.41,0.113a0.095,0.095 0,0 1,0.05 0.153l-0.12,0.142c-0.024,0.03 -0.063,0.041 -0.1,0.031M51.189,42.474l-0.41,-0.114a0.095,0.095 0,0 1,-0.049 -0.153l0.118,-0.141a0.097,0.097 0,0 1,0.1 -0.032l0.411,0.113a0.095,0.095 0,0 1,0.049 0.153l-0.119,0.142a0.099,0.099 0,0 1,-0.1 0.032M52.098,42.816l-0.41,-0.113a0.095,0.095 0,0 1,-0.049 -0.153l0.119,-0.142a0.097,0.097 0,0 1,0.1 -0.031l0.41,0.113a0.095,0.095 0,0 1,0.05 0.153l-0.12,0.141c-0.023,0.03 -0.063,0.042 -0.1,0.032M49.855,42.748l-0.41,-0.114a0.095,0.095 0,0 1,-0.048 -0.153l0.117,-0.141a0.097,0.097 0,0 1,0.101 -0.032l0.41,0.114a0.095,0.095 0,0 1,0.049 0.153l-0.118,0.14c-0.025,0.03 -0.064,0.043 -0.101,0.032M50.889,43.027l-0.41,-0.113a0.095,0.095 0,0 1,-0.05 -0.153l0.12,-0.142a0.098,0.098 0,0 1,0.1 -0.032l0.41,0.114a0.096,0.096 0,0 1,0.049 0.153l-0.12,0.141c-0.023,0.03 -0.063,0.042 -0.1,0.032M51.798,43.369l-0.41,-0.113a0.095,0.095 0,0 1,-0.049 -0.153l0.119,-0.141a0.097,0.097 0,0 1,0.1 -0.032l0.41,0.113a0.095,0.095 0,0 1,0.05 0.153l-0.119,0.142a0.097,0.097 0,0 1,-0.1 0.031M49.555,43.301l-0.41,-0.114a0.095,0.095 0,0 1,-0.049 -0.153l0.119,-0.14a0.097,0.097 0,0 1,0.1 -0.032l0.41,0.113a0.095,0.095 0,0 1,0.05 0.153l-0.12,0.141a0.096,0.096 0,0 1,-0.1 0.032M50.589,43.58l-0.41,-0.113a0.095,0.095 0,0 1,-0.05 -0.153l0.119,-0.141a0.097,0.097 0,0 1,0.1 -0.032l0.41,0.113a0.095,0.095 0,0 1,0.05 0.153l-0.119,0.141c-0.024,0.03 -0.064,0.043 -0.1,0.032M51.498,43.923l-0.41,-0.114a0.095,0.095 0,0 1,-0.048 -0.152l0.118,-0.142a0.097,0.097 0,0 1,0.1 -0.032l0.41,0.113a0.095,0.095 0,0 1,0.05 0.153l-0.12,0.142c-0.023,0.03 -0.063,0.042 -0.1,0.032M49.255,43.854l-0.41,-0.113a0.095,0.095 0,0 1,-0.048 -0.153l0.117,-0.142a0.097,0.097 0,0 1,0.101 -0.031l0.41,0.113a0.095,0.095 0,0 1,0.05 0.153l-0.12,0.142a0.099,0.099 0,0 1,-0.1 0.031M50.289,44.133l-0.41,-0.113a0.095,0.095 0,0 1,-0.049 -0.153l0.118,-0.141a0.097,0.097 0,0 1,0.1 -0.032l0.411,0.114a0.095,0.095 0,0 1,0.049 0.152l-0.119,0.142a0.097,0.097 0,0 1,-0.1 0.031M51.198,44.476l-0.41,-0.113a0.095,0.095 0,0 1,-0.049 -0.153l0.119,-0.142a0.097,0.097 0,0 1,0.1 -0.031l0.41,0.113a0.095,0.095 0,0 1,0.05 0.153l-0.12,0.141c-0.023,0.03 -0.063,0.042 -0.1,0.032"
        fill="#DBB127" />
    <path
        d="M48.531,31.348s-1.268,0.61 -1.716,0.661c-0.449,0.05 -1.965,-0.112 -3.022,0.47 -0.987,0.546 -4.192,2.627 -4.665,4.282 -0.473,1.656 -0.292,1.978 -0.609,2.74 -0.316,0.76 -1.224,1.63 -1.052,2.124 0.171,0.493 0.735,1.142 0.735,1.142s11.225,-11.391 11.21,-11.518c-0,0 -0.242,-0.196 -0.88,0.098"
        fill="#FFC300" />
    <path
        d="M49.875,33.23L54.48,30.418a0.58,0.58 0,0 0,0.193 -0.805l-0.074,-0.118a0.596,0.596 0,0 0,-0.814 -0.19l-4.606,2.81 0.696,1.115z"
        fill="#49586D" />
    <path
        d="M50.44,33.505s0.072,-0.057 0.442,-0.243c0.415,-0.208 -0.762,-2.064 -1.067,-1.895l-0.442,0.242 1.067,1.896z"
        fill="#303D51" />
    <path
        d="M38.062,42.298s1.469,-2.64 1.52,-2.945c0.052,-0.306 -0.476,-1.528 0.597,-3.1s2.97,-3.108 4.031,-3.654c1.06,-0.545 2.437,-0.23 3.157,-0.353 0.72,-0.123 2.046,-0.997 2.046,-0.997s0.897,0.668 1.056,1.675c0.158,1.008 0.173,1.476 0.173,1.476s-1.686,0.787 -2.021,1.251c-0.336,0.465 -1.125,2.318 -0.859,5.022 -0.032,0.09 0.21,1.164 -1.237,1.96 -0.773,0.427 -2.251,0.238 -2.54,-0.327 -0.346,-0.678 -0.326,-0.735 -0.782,-0.94 -0.17,0.019 -1.407,2.608 -1.723,3.241 -0.061,0.22 -1.977,0.093 -2.352,-0.164 -0.375,-0.257 -1.352,-1.626 -1.066,-2.144"
        fill="#515E75" />
    <path
        d="M45.72,32.825c-1.463,0.008 -3.036,1.54 -3.036,1.54s-2.137,1.737 -2.27,3.186c-0.013,0.487 0.394,1.935 1.278,2.07 0.472,0.073 2.197,-0.003 4.204,-1.857 2.026,-1.832 1.898,-3.43 1.841,-3.863 -0.093,-0.709 -1.53,-1.048 -2.017,-1.076"
        fill="#303D51" />
    <path
        d="M45.45,33.62c-0.371,-0.061 -0.56,0.09 -0.788,0.27 -0.262,0.208 -1.486,1.321 -1.486,1.321s-1.19,1.088 -1.418,1.332c-0.197,0.211 -0.363,0.389 -0.33,0.763 0.032,0.373 0.25,1.862 1.082,1.748 2.26,-0.31 4.443,-2.747 4.61,-4.228 0.093,-0.832 -1.298,-1.146 -1.67,-1.206"
        fill="#8C99AC" />
    <path
        d="M40.214,44.384l-2.867,5.24c-0.165,0.304 -0.548,0.42 -0.856,0.257l-0.34,-0.18a0.622,0.622 0,0 1,-0.26 -0.847l2.866,-5.24 1.457,0.77z"
        fill="#49586D" />
    <path
        d="M40.762,44.613c-0.112,0.207 -0.067,0.092 -0.274,0.555 -0.074,0.163 -0.362,0.146 -0.716,0.032 0.099,-0.238 0.066,-0.683 -0.456,-0.946 -0.692,-0.348 -0.991,0.162 -0.991,0.162 -0.206,-0.171 -0.323,-0.328 -0.274,-0.425 0.19,-0.385 0.064,-0.14 0.273,-0.554 0.353,-0.546 2.61,0.345 2.438,1.176"
        fill="#303D51" />
</svg>
