<svg xmlns="http://www.w3.org/2000/svg" xmlns:xlink="http://www.w3.org/1999/xlink" width="104" height="98" viewBox="0 0 104 98">
    <defs>
        <rect id="a" width="104" height="98" rx="4"/>
    </defs>
    <g fill="none" fill-rule="evenodd">
        <mask id="b" fill="#fff">
            <use xlink:href="#a"/>
        </mask>
        <use fill="#D8D8D8" xlink:href="#a"/>
        <g mask="url(#b)">
            <path fill="#E8F8FF" d="M0-1h104v79.167H0z"/>
            <path fill="#ADBEC5" d="M0 99h104V78.167H0z"/>
            <g transform="matrix(-1 0 0 1 104 -1)">
                <path fill="#D4F1FF" d="M103.89 8.521C106.17 4.192 72.258-1.35 58.21 1.32 46.04 3.635 36.344 12.315 35.694 24.467 30.825 18.1 13.176 18.1 7.7 31.41c-7.911 18.517 8.941 38.192 3.485 49.765 9.498-2.102 92.707-.456 92.707-.456V8.52z"/>
                <path fill="#BAD9EF" d="M12.788 78.456L9.842 36.082l16.498-1.21.87 40.06 2.666 1.103-1.18-35.716 15.32-.605v29.662h3.536l-.59-53.27h22.39l-.588 53.27 3.535-1.816V25.79h9.428l-.298 39.523 5.755.372-.43-30.904H104v45.037l-17.991.208z"/>
                <path fill="#72C1B8" d="M10.808 80.877s-5.057 0-4.425-2.421c.553-2.117 3.793-1.21 4.425 0 0 0-3.793-6.053 0-8.475 3.793-2.421 4.424 4.238 4.424 4.238s2.528-6.054 5.689-1.816c1.264 1.816 0 4.842 0 4.842s1.264-3.026 3.16-3.026c1.897 0 2.528 1.816 2.528 1.816s-2.528-4.843 0-6.66c2.53-1.815 5.057 3.028 5.057 3.028s9.482-6.054 13.274-6.66c3.792-.605 6.321 3.633 5.688 9.081 0 .605 1.265-3.027 2.53-2.421 1.263.605 0 6.053 0 6.053s1.263-5.448 5.056-4.843c3.792.606 5.056 4.238 5.056 4.238s3.161-5.448 6.953-5.448c3.793 0 3.793 4.842 3.793 4.842s0-8.474 3.792-8.474 2.529 4.842 2.529 4.842.16-6.573 1.976-6.313c1.816.26 1.184 13.577 1.184 13.577h-72.69z"/>
                <path fill="#72C1B8" d="M84.59 80.732c-1.695-.146-1.927.145-1.339-2.276.514-2.117 3.53-1.21 4.117 0 0 0-3.529-6.053 0-8.475 3.53-2.421 4.118 4.238 4.118 4.238s1.166-5.982 4.107-1.745c1.176 1.816 1.187 4.771 1.187 4.771s.788-3.026 2.243-3.026c1.454 0 2.244 1.943 2.244 1.943s-1.2-4.56.806-5.352c2.008-.791 1.927 4.407 1.927 9.922 0 .403-6.47.403-19.41 0zM0 80.7v-9.948c.931-.172 1.854.378 2.768 1.65 1.29 1.796 0 4.843 0 4.843s1.264-3.026 3.16-3.026c1.897 0 2.528 1.816 2.528 1.816s-2.528-4.843 0-6.66c2.53-1.815 3.02 5.877 2.388 11.325 0 .403-3.615.403-10.844 0z"/>
                <path fill="#374451" stroke="#374451" stroke-width=".56" d="M10.313 86.332V19.517c0-3.254 2.636-5.9 5.877-5.9h16.509c.333 0 .603.27.603.605 0 .334-.27.605-.603.605h-16.51c-2.575 0-4.67 2.104-4.67 4.69v66.815c0 .335-1.206.335-1.206 0z"/>
                <rect width="6.253" height="1.961" x="7.892" y="85.882" fill="#374451" rx=".28"/>
                <path fill="#374451" d="M19.818 20.92c-.323 0-.586-.315-.586-.705v-5.648c0-.39.263-.706.586-.706.324 0 .587.316.587.706v5.648c0 .39-.263.705-.587.705M28.73 19.92a.604.604 0 0 1-.602-.606v-4.847a.604.604 0 1 1 1.206 0v4.847c0 .334-.27.605-.603.605"/>
                <path fill="#FF4C5A" d="M20.418 34.751c-5.376-.158-6.19-6.967-3.963-10.982 2.135-3.852 6.257-6.794 10.665-5.162 4.518 1.361 7.405 7.364 6.356 11.958-1.334 5.846-8.757 4.313-13.058 4.186"/>
                <path fill="#FF6873" d="M18.424 21.079c2.265-2.358 5.396-3.69 8.688-2.471 4.519 1.36 7.405 7.363 6.357 11.957-.394 1.728-1.323 2.808-2.544 3.473l-.028-.015-12.47-12.932-.003-.012z"/>
                <path fill="#EFEFEF" d="M25.39 23.6c.037.336.17 2.742.154 2.737-2.015-.01-2.33-2.822-.155-2.736m-2.404 3.858c1.018-.155 2.113.165 2.527.273 0 0 .26 3.314.29 3.31-5.286.652-4.994-3.251-2.817-3.583m-.077-1.522c-1.965.255-3.441 2.127-2.644 4.293 1.158 3.148 5.228 2.595 7.858 2.307 1.01-.111.885-1.771-.122-1.641l-.626.07c-.17-2.305-.342-4.604-.513-6.908 0-.01-.004-.014-.004-.018.368.19.68.515.894.99.436.95 1.923.402 1.484-.557-.98-2.147-3.852-3.289-5.801-1.79-1.216.936-1.036 2.276-.526 3.254"/>
                <path fill="#FFF" d="M25.543 26.337c.016.005-.117-2.401-.154-2.737-2.176-.085-1.86 2.727.154 2.737m-2.11-3.653c1.95-1.5 4.82-.358 5.802 1.79.44.959-1.048 1.506-1.484.556-.215-.475-.526-.799-.895-.99 0 .004.005.009.005.017l.464 6.242-1.754-1.819-.06-.747c-.178-.047-.486-.132-.856-.202l-1.93-2.001c-.35-.92-.346-2.035.708-2.846"/>
                <path fill="#374451" d="M35.25 14.221c0 .708-.57 1.281-1.276 1.281a1.278 1.278 0 0 1-1.275-1.28c0-.708.571-1.28 1.275-1.28.705 0 1.276.572 1.276 1.28"/>
                <path fill="#80959F" d="M67.921 99.18c3.742.287 25.928 1.713 17.927-2.98-12.698-7.45 6.203-18.18-10.457-19.368-20.915-1.49-5.229 14.899-12.698 17.134-9.965 2.98-4.482 4.47 5.228 5.214"/>
                <path fill="#FFC300" d="M63.783 68.284l17.87 3.677 3.108-15.025c.34-1.64-.444-3.48-1.964-4.191 0 0-3.5-2.255-5.898-2.77-2.4-.516-6.567.395-6.567.395a3.631 3.631 0 0 0-3.441 2.89l-3.108 15.024z"/>
                <path fill="#303D51" d="M63.594 69.13l17.87 3.677 3.108-15.024c.34-1.641-.48-3.48-2-4.193 0 0-3.475-2.254-5.874-2.77-2.399-.514-6.554.396-6.554.396a3.632 3.632 0 0 0-3.442 2.89L63.594 69.13z"/>
                <path fill="#515E75" d="M71.622 64.754l4.65.962 2.685-12.906-4.65-.963z"/>
                <path fill="#F1718A" d="M83.461 50.262a.302.302 0 0 0-.087-.052l.087.052"/>
                <path fill="#1E2A3A" d="M60.634 80.236c.031.414.072.827.113 1.235l.236 2.34c.066.656.219 1.433.83 1.685.528.219 1.154-.113 1.465-.59.312-.48.388-1.068.471-1.632.11-.75.245-1.496.404-2.237.103-.482.223-.976.522-1.368.392-.512.799-.384 1.308-.571l.028-.01c.44-.177.953-.734 1.126-1.155.108-.265.133-.556.154-.841.052-.697.08-1.431-.229-2.059-.284-.58-.838-1.003-1.451-1.206-.615-.204-1.284-.199-1.919-.07-.735.149-1.453.475-1.954 1.032-.284.316-.488.694-.648 1.088-.556 1.37-.568 2.87-.456 4.359"/>
                <path fill="#303D51" d="M66.143 96.73c.92 1.101 2.748 1.049 3.563.962a.785.785 0 0 0 .606-.405c1.509-2.768 2.418-7.366 2.697-8.937a.78.78 0 0 0-.394-.821c-.984-.542-3.208-1.669-4.276-1.438a.911.911 0 0 0-.26.099c-1.017.598-1.89 7.957-2.104 9.9l-.002.017c-.003.026-.006.052-.007.075a.772.772 0 0 0 .177.547"/>
                <path fill="#1E2A3A" d="M66.05 96.615c.38.211.968-2.552 1.036-2.849.353-1.546.68-3.1.936-4.666.12-.738.227-1.481.281-2.227.017-.251.04-.517.036-.782a.888.888 0 0 0-.26.099c-1.017.598-1.89 7.957-2.105 9.9l-.001.017c-.009.102-.026.45.078.508"/>
                <path fill="#515E75" d="M58.562 85.07c.29.728.694 1.407 1.159 2.039.366.497.88 1.345 1.534 1.48.341.07.7-.062.973-.278.328-.259.6-.641.759-1.027.425-1.03.152-2.2-.125-3.282l-.594-2.31c-.12-.466-.241-.936-.433-1.378-.243-.559-.705-1.202-1.403-1.142-1.683.144-2.292 1.919-2.338 3.369-.028.886.15 1.732.468 2.529"/>
                <path fill="#515E75" d="M58.557 85.072c.083.206.173.407.273.604.327.128.689.177.968-.015.17-.12.276-.308.38-.49.364-.637.778-1.25 1.253-1.812.401-.473.29-.91.006-1.436a9.745 9.745 0 0 1-.902-2.362c-.03-.128-.062-.26-.103-.389-.548.047-1.068.337-1.442.744-.418.454-.668 1.041-.8 1.645-.253 1.166-.077 2.401.367 3.51"/>
                <path fill="#1E2A3A" d="M67.715 83.662c-.347-1.708-.353-3.475-.74-5.175-.077-.345-.204-.726-.523-.88-.404-.196-.867.078-1.23.342-.733.531-1.282 1.249-1.672 2.06-.663 1.383-1.152 3.154-.459 4.615.068.143.174.297.317.372.414.22.505-.4.844-.44.237-.026.387.303.499.462.945 1.328 2.319 2.642 3.961 3.007 1.063.236.3-1.075.036-1.448-.578-.819-.836-1.941-1.033-2.915M83.843 76.695c.152.051.29.122.386.227.124.139.143.347.094.526-.05.179-.156.336-.263.488-.909 1.289-1.937 2.49-2.962 3.687-.112.13-.235.268-.402.307-.126.03-.259 0-.385-.032-1.124-.279-2.238-.61-3.354-.923-.306-.086-.535-.19-.542-.549-.003-.17.046-.335.092-.499.216-.765.272-1.554.492-2.315.185-.635.558-1.174 1.117-1.537.692-.449 1.44-.784 2.28-.616.57.114 1.126.367 1.668.575.59.225 1.18.458 1.78.66"/>
                <path fill="#303D51" d="M77.985 88.256c-.07.677-.08 1.361-.027 2.04a.41.41 0 0 1 0 .086c-.004.036.313-.086.335-.094 1.43-.608 1.91-2.376 1.93-3.789.007-.532-.029-1.095-.251-1.588-.053-.12-.517-.926-.706-.65-.13.19-.28.374-.348.516-.512 1.082-.81 2.292-.933 3.479"/>
                <path fill="#F1718A" d="M77.376 83.468l-.105.235c.05-.07.102-.14.154-.21a.776.776 0 0 0-.04-.021l-.009-.004"/>
                <path fill="#1E2A3A" d="M72.356 89.51c.111.088.257.122.396.152.354.077.707.148 1.063.214a3.549 3.549 0 0 1-.09-2.056c-.455.216-.936.361-1.433.413-.025.088-.05.176-.073.264-.093.35-.148.789.137 1.013M83.205 97.407c.842.151 2.204.49 1.608.716-.701.267-2.29 0-2.365-.103-.08-.11-.144-.325-.204-.536-.871-3.019-3.361-10.948-3.273-11.423.016-.084.394-.255.394-.255 1.071 2.688 3.721 11.58 3.84 11.6M78.47 85.595c.252-.26 1.57-2.937 1.432-4.02-.035-.275-.111-.543-.16-.817-.545-.206-1.157-.569-1.702-.775-.24-.09-.49-.183-.746-.16-.54.046-.901.573-1.112 1.072a6.073 6.073 0 0 0-.444 2.96c.075.738.336 1.529.97 1.914.593.36 1.793-.09 1.763-.174M66.425 87.97c-.501.553-.874 1.17-1.2 1.724a1.95 1.95 0 0 0-.786-.498c.403-.7.81-1.406 1.354-2.004.204-.225.43-.437.7-.573.271-.137.595-.194.884-.101.289.093.531.353.552.656.024.354-.223.579-.529.555-.294-.023-.662-.105-.975.241"/>
                <path fill="#1E2A3A" d="M64.73 89.182c-.093-.075-.193-.131-.303-.127-.628.026-.967 1.015-.622 1.485.294.4 1.015.212 1.315-.08.175-.17.323-.507.216-.75-.053-.12-.182-.181-.285-.25-.118-.08-.21-.19-.32-.278M65.455 87.66c.009.075.02.153.001.227-.04.157-.196.249-.32.354a1.11 1.11 0 0 0-.286.37 3.856 3.856 0 0 1-.098-.542c-.108-1.126-.054-2.323.673-3.194-.025.03.128.312.147.352.059.123.133.237.193.359.105.211-.072.387-.15.588-.184.469-.22.988-.16 1.486"/>
                <path fill="#515E75" d="M73.815 89.876a35.69 35.69 0 0 0 3.756.49c.126.01.257.02.388.016.003-.027 0-.058 0-.085-.055-.68-.045-1.364.026-2.041.124-1.187.422-2.397.934-3.479.067-.142.217-.326.348-.517-.414-.11-.888-.104-1.257-.308-.222-.122-.364-.338-.584-.46-.053.07-.105.14-.155.211a18.094 18.094 0 0 1-.716 1.418c-.108.186-1.138-.085-1.266.095-.637.898-.585 2.142-1.564 2.604-.174.674-.142 1.4.09 2.056"/>
                <path fill="#515E75" d="M75.284 72.934c-1.623-.572-3.38-.863-5.073-.561-.75.133-1.503.4-2.101.88-.548.44-.777-.523-.957.167-.198.758-.817 6.124-.726 7.012.175 1.7.05 2.786.721 4.368.309.725.73 1.405 1.26 1.99.339.372.728.688 1.167.924.349.189.73.326 1.14.402.386.071 1.182.158 1.577.117a4.413 4.413 0 0 0 1.434-.413c2.142-1.014 2.704-3.39 3.546-5.52.477-1.211 1.362-5.91 1.253-7.318-.37-.671-.317-.767-.959-1.175-1.45-.922-3.185-1.321-4.903-1.41"/>
                <path fill="#C9D6E2" d="M68.262 85.647l5.453.932a3.4 3.4 0 0 0 3.926-2.77l.137-.793a3.393 3.393 0 0 0-2.777-3.916l-5.453-.932a3.4 3.4 0 0 0-3.927 2.77l-.137.793a3.393 3.393 0 0 0 2.778 3.916"/>
                <path fill="#FF4C5A" d="M71.203 77.566l2.84.486a.67.67 0 0 0 .774-.545l.027-.157a.668.668 0 0 0-.547-.77l-2.84-.487a.67.67 0 0 0-.774.546l-.027.156a.667.667 0 0 0 .547.771"/>
                <path fill="#303D51" d="M60.634 80.236c.031.414.072.827.113 1.235l.236 2.34c.066.656.219 1.433.83 1.685.528.219 1.154-.113 1.465-.59.312-.48.388-1.068.471-1.632.11-.75.245-1.496.404-2.237.103-.482.223-.976.522-1.368.392-.512.667-.34 1.177-.528.01-.003-1.108-.977-2.905-.554-.934.22-1.685.916-2.313 1.649"/>
                <path fill="#FFC300" d="M60.954 71.214c.175 1.254 1.273 2.228 2.397 2.726.649.286 1.365.323 2.035.542 1.676.55 10.632 1.95 14.08 1.925 1.298-.009 2.554-.096 3.585-.988 1.664-1.712 2.053-5.347.8-7.773a.248.248 0 0 0-.014-.026c-1.036-1.983-3.25-3.294-5.285-4.049-3.33-1.234-6.91-1.256-10.411-1.053-1.363.08-2.88.03-4.03.837a5.162 5.162 0 0 0-.634.527c-.797.774-1.393 1.81-1.759 2.867-.483 1.395-.954 3.106-.764 4.465"/>
                <path fill="#515E75" d="M70.333 58.552c1.97-.034 6.153.125 9.336 1.51 4.563 1.983 2.8 5.804 2.8 5.804-3.109-1.703-13.137-3.259-16.767-3.144 0 0-.381-4.085 4.63-4.17"/>
                <path fill="#EDA420" d="M60.954 71.214c.175 1.254 1.273 2.228 2.397 2.726.649.286 1.336.446 2.035.542.309-.424.504-.999.528-1.761.016-.443.021-1.217.046-1.66.145-2.699-.642-5.273-2.483-7.179-.797.774-1.393 1.81-1.759 2.867-.483 1.395-.954 3.106-.764 4.465M79.466 76.407c1.295.084 2.553-.096 3.585-.987 1.664-1.713 2.053-5.348.8-7.774-.19.34-2.8 2.445-3.425 3.803-.428.925-.75 1.9-.957 2.9-.138.667-.195 1.423-.003 2.058"/>
                <path fill="#FF4C5A" d="M68.074 73.11l1.916.602 5.24.87s3.81-4.494 3.603-4.434c-.4.117-1.44.158-1.854.213-.849.112-1.71.107-2.563.037a16.022 16.022 0 0 1-2.766-.489c-1.047-.278-2.085-.649-3.005-1.214-.27-.166-.596 4.41-.571 4.415"/>
                <path fill="#ECD9B1" d="M65.915 72.72c-.028.662 3.514 1.166 3.514 1.166.26.054.506-.14.511-.403v-.006a8.992 8.992 0 0 0-1.242-4.693c-.034-.059-.093-.094-.14-.143-.682-.724-2.278-1.857-3.405-2.263 0 0 .297.625.63 2.11 0 0 .228 2.002.132 4.232M79.385 74.969c-.848.27-3.551-.034-3.551-.034-.677-.043-1.019-.328-.935-.578l.002-.005a9.003 9.003 0 0 1 2.749-4.005c.052-.044.12-.056.18-.088.78-.412 3.056-1.247 4.383-1.006-.355.28-1.52 1.596-1.62 1.875 0 0-.95 1.679-1.208 3.841"/>
                <path fill="#1E2A3A" d="M83.488 78.127l.106 2.183.171.048c.094-.98-.277-2.231-.277-2.231"/>
                <path fill="#1E2A3A" d="M83.496 80.283l.098.027.171.047.269.075c.04-.362.023-.793-.05-1.29a8.572 8.572 0 0 0-.233-1.093l-.263.078-.263.076c.113.385.327 1.34.271 2.08"/>
                <path fill="#1E2A3A" d="M80.491 81.289c.013.05.068.074.116.092.705.253 3.67.835 4.35.526.16-.074.749-1 .715-1.047l-.002-.001a46.842 46.842 0 0 1-1.636-.427l-.269-.074-.171-.048-.098-.027a80.879 80.879 0 0 0-.932-.255c-.338-.089-.69-.188-1.02-.026-.463.225-.791.74-1.026 1.175-.018.035-.037.074-.027.112"/>
                <path fill="#FFC300" d="M82.469 65.866c-1.618-1.983-1.91-3.83-1.91-3.83-.505-1.729-1.535-2.826-3.386-3.16l-3.584-.709c-3.168-.554-6.265 4.781-8.725 4.889.868.725 2.46.399 3.013.153 1.888-.246 3.308-4.043 6.005-3.676l3.078.674c1.435.326 1.65 1.066 2.089 2.433 0 0 .862 2.53 1.44 2.694.977 1.217.73.988 1.98.532"/>
                <path fill="#FF4C5A" d="M73.178 79.599c1.67.815 2.4 3.244 1.69 4.88-.905 2.082-3.694 1.004-5.36.663-2.084-.427-1.953-3.015-.823-4.354.764-.906 1.882-1.577 3.039-1.577.485 0 .978.119 1.454.388z"/>
                <path fill="#FFF" d="M73.918 81.516c.121.435-.57.55-.69.119a.87.87 0 0 0-.319-.482v.007l-.286 2.928.28.018c.45.023.382.717-.069.696-1.21-.061-3.1-.42-3.379-1.822-.213-1.082.705-1.383 1.585-1.339-.151-.448-.005-.911.596-1.209.233-.116.472-.168.703-.168.724 0 1.374.516 1.579 1.252z"/>
                <path fill="#FF4C5A" d="M72.213 81.093a.404.404 0 0 1 .027-.106c-.034.004-.07.007-.107.013-.672.11-.483.56-.06.87.022.016.04.034.059.053.027-.277.053-.554.081-.83zM71.743 82.478a2.478 2.478 0 0 0-1.139-.166c-.588.065-.562.696-.198 1.033.386.357.955.55 1.524.654l.152-1.58a.323.323 0 0 1-.215.083.334.334 0 0 1-.124-.024z"/>
                <path fill="#303D51" d="M78.812 53.723s-.499 1.014-2.58.633c-2.079-.38-2.048-1.812-2.048-1.812l.04-1.496 4.988 1.357-.4 1.318z"/>
                <path fill="#515E75" d="M69.788 56.332l2.883-.636c.495-.11.818-.548.722-.976l-.643-1.784c-.173-.54-.623-.84-1.118-.729l-2.976.94c-.495.111-.651.61-.555 1.039l.046.107.114.27.15.348c.08.187.153.378.232.566.084.201.168.422.35.574.139.117.504.366 1.01.233.013-.003-.229.05-.215.048"/>
                <path fill="#DBB127" d="M71.223 53.143l.515-.143a.12.12 0 0 0 .06-.193l-.148-.18a.122.122 0 0 0-.126-.04l-.514.144a.12.12 0 0 0-.061.193l.148.179c.031.037.08.053.126.04M69.929 53.496l.514-.143a.12.12 0 0 0 .06-.194l-.148-.178a.12.12 0 0 0-.126-.04l-.514.143a.12.12 0 0 0-.06.193l.148.179c.03.037.08.053.126.04M68.79 53.928l.513-.143a.12.12 0 0 0 .061-.193l-.148-.179a.121.121 0 0 0-.126-.04l-.514.144a.12.12 0 0 0-.061.193l.149.178c.03.038.079.054.125.04M71.6 53.842l.513-.143a.12.12 0 0 0 .06-.193l-.147-.18a.121.121 0 0 0-.126-.039l-.514.143a.12.12 0 0 0-.061.194l.148.178a.12.12 0 0 0 .126.04M70.304 54.195l.515-.143a.12.12 0 0 0 .06-.193l-.148-.18a.122.122 0 0 0-.126-.04l-.514.144a.121.121 0 0 0-.061.194l.149.178c.03.037.08.053.125.04M69.165 54.627l.514-.143a.12.12 0 0 0 .06-.193l-.147-.178a.12.12 0 0 0-.127-.04l-.513.143a.12.12 0 0 0-.061.193l.148.18c.03.036.08.052.126.038M71.975 54.54l.514-.142a.12.12 0 0 0 .06-.193l-.147-.179a.12.12 0 0 0-.127-.04l-.513.143a.12.12 0 0 0-.061.194l.148.179a.12.12 0 0 0 .126.039M70.68 54.894l.514-.143a.12.12 0 0 0 .061-.193l-.148-.179a.12.12 0 0 0-.126-.04l-.514.144a.12.12 0 0 0-.061.193l.148.178a.12.12 0 0 0 .126.04M69.54 55.327l.515-.143a.12.12 0 0 0 .06-.193l-.148-.18a.121.121 0 0 0-.126-.04l-.513.144a.12.12 0 0 0-.062.193l.149.18a.12.12 0 0 0 .126.039M72.35 55.24l.515-.143a.12.12 0 0 0 .06-.193l-.148-.179a.12.12 0 0 0-.126-.04l-.514.143a.12.12 0 0 0-.06.194l.148.179c.03.036.08.052.126.04M71.056 55.593l.514-.143a.12.12 0 0 0 .06-.193l-.147-.179a.12.12 0 0 0-.126-.04l-.514.144a.12.12 0 0 0-.061.193l.148.179a.12.12 0 0 0 .126.039M69.916 56.026l.515-.143a.12.12 0 0 0 .06-.193l-.148-.18a.121.121 0 0 0-.126-.039l-.514.144a.12.12 0 0 0-.06.193l.148.178c.03.037.08.053.125.04"/>
                <path fill="#FFC300" d="M73.257 39.436s1.589.773 2.15.837c.563.064 2.462-.142 3.785.594 1.237.69 5.252 3.319 5.845 5.41.593 2.093.366 2.5.762 3.462.396.962 1.534 2.06 1.319 2.685-.215.622-.922 1.443-.922 1.443s-14.06-14.395-14.043-14.555c0 0 .305-.248 1.104.124"/>
                <path fill="#49586D" d="M71.574 41.815l-5.768-3.553a.737.737 0 0 1-.242-1.017l.093-.15a.742.742 0 0 1 1.02-.24l5.77 3.552-.873 1.408z"/>
                <path fill="#303D51" d="M70.866 42.163s-.09-.072-.553-.306c-.52-.264.954-2.609 1.337-2.396l.553.307-1.337 2.395z"/>
                <path fill="#515E75" d="M86.372 53.275s-1.84-3.338-1.905-3.723c-.065-.385.598-1.93-.746-3.916-1.344-1.987-3.722-3.928-5.05-4.617-1.33-.69-3.053-.29-3.955-.447-.902-.155-2.563-1.26-2.563-1.26s-1.124.845-1.322 2.117c-.199 1.274-.218 1.865-.218 1.865s2.112.994 2.532 1.581c.421.587 1.41 2.93 1.076 6.346.04.113-.262 1.47 1.55 2.477.968.538 2.82.3 3.182-.414.432-.856.408-.929.979-1.188.213.024 1.762 3.296 2.158 4.096.077.279 2.477.118 2.947-.208.47-.324 1.694-2.054 1.335-2.71"/>
                <path fill="#303D51" d="M76.78 41.303c1.831.012 3.802 1.946 3.802 1.946s2.678 2.196 2.844 4.027c.017.615-.494 2.445-1.6 2.615-.592.092-2.753-.004-5.267-2.346-2.539-2.315-2.379-4.335-2.307-4.882.117-.895 1.916-1.323 2.528-1.36"/>
                <path fill="#8C99AC" d="M77.117 42.308c.465-.077.703.115.987.342.328.262 1.862 1.67 1.862 1.67s1.49 1.374 1.776 1.682c.247.267.455.491.414.963-.041.473-.313 2.354-1.356 2.21-2.83-.392-5.565-3.47-5.774-5.342-.117-1.052 1.625-1.449 2.09-1.525"/>
                <path fill="#49586D" d="M83.677 55.91l3.59 6.62a.794.794 0 0 0 1.074.326l.426-.227a.79.79 0 0 0 .325-1.07l-3.591-6.62-1.824.971z"/>
                <path fill="#303D51" d="M82.99 56.199c.14.262.084.117.343.701.093.207.453.185.897.041-.123-.301-.083-.863.571-1.195.867-.44 1.242.205 1.242.205.258-.217.404-.415.343-.538-.238-.486-.08-.175-.342-.7-.442-.69-3.27.437-3.054 1.486"/>
                <path fill="#80959F" d="M35.873 99.18c3.741.287 25.927 1.713 17.927-2.98-12.699-7.45 6.203-18.18-10.457-19.368-20.915-1.49-5.23 14.899-12.699 17.134-9.965 2.98-4.481 4.47 5.229 5.214"/>
                <path fill="#FFC300" d="M31.734 68.284l17.87 3.677 3.108-15.025c.34-1.64-.444-3.48-1.964-4.191 0 0-3.5-2.255-5.898-2.77-2.4-.516-6.566.395-6.566.395a3.631 3.631 0 0 0-3.442 2.89l-3.108 15.024z"/>
                <path fill="#303D51" d="M31.545 69.13l17.87 3.677 3.109-15.024c.34-1.641-.481-3.48-2.001-4.193 0 0-3.474-2.254-5.873-2.77-2.4-.514-6.555.396-6.555.396a3.632 3.632 0 0 0-3.442 2.89L31.545 69.13z"/>
                <path fill="#515E75" d="M39.573 64.754l4.651.962 2.685-12.906-4.651-.963z"/>
                <path fill="#F1718A" d="M51.412 50.262a.302.302 0 0 0-.087-.052l.087.052"/>
                <path fill="#1E2A3A" d="M28.585 80.236c.032.414.072.827.113 1.235l.236 2.34c.066.656.22 1.433.83 1.685.528.219 1.154-.113 1.465-.59.312-.48.389-1.068.472-1.632.11-.75.244-1.496.404-2.237.102-.482.223-.976.522-1.368.39-.512.798-.384 1.308-.571a.482.482 0 0 0 .028-.01c.44-.177.952-.734 1.125-1.155.109-.265.133-.556.155-.841.051-.697.08-1.431-.23-2.059-.283-.58-.837-1.003-1.45-1.206-.616-.204-1.285-.199-1.92-.07-.734.149-1.453.475-1.953 1.032-.284.316-.489.694-.648 1.088-.557 1.37-.569 2.87-.457 4.359"/>
                <path fill="#303D51" d="M34.094 96.73c.92 1.101 2.748 1.049 3.563.962a.785.785 0 0 0 .607-.405c1.508-2.768 2.418-7.366 2.697-8.937a.78.78 0 0 0-.394-.821c-.984-.542-3.208-1.669-4.276-1.438a.911.911 0 0 0-.26.099c-1.017.598-1.89 7.957-2.105 9.9l-.002.017a.772.772 0 0 0 .17.623"/>
                <path fill="#1E2A3A" d="M34.002 96.615c.38.211.967-2.552 1.035-2.849.353-1.546.681-3.1.936-4.666.12-.738.227-1.481.281-2.227.018-.251.04-.517.036-.782a.888.888 0 0 0-.26.099c-1.016.598-1.89 7.957-2.105 9.9v.017c-.01.102-.027.45.077.508"/>
                <path fill="#515E75" d="M26.514 85.07c.29.728.693 1.407 1.158 2.039.367.497.88 1.345 1.534 1.48.342.07.7-.062.973-.278.329-.259.6-.641.76-1.027.424-1.03.151-2.2-.126-3.282l-.594-2.31c-.12-.466-.24-.936-.433-1.378-.243-.559-.704-1.202-1.403-1.142-1.682.144-2.291 1.919-2.337 3.369-.028.886.15 1.732.468 2.529"/>
                <path fill="#515E75" d="M26.508 85.072c.083.206.174.407.273.604.327.128.69.177.968-.015.171-.12.277-.308.38-.49.365-.637.779-1.25 1.254-1.812.4-.473.29-.91.006-1.436a9.745 9.745 0 0 1-.902-2.362c-.031-.128-.063-.26-.103-.389-.548.047-1.069.337-1.442.744-.418.454-.669 1.041-.8 1.645-.253 1.166-.078 2.401.366 3.51"/>
                <path fill="#1E2A3A" d="M35.666 83.662c-.347-1.708-.353-3.475-.739-5.175-.078-.345-.204-.726-.523-.88-.404-.196-.868.078-1.23.342-.734.531-1.283 1.249-1.673 2.06-.663 1.383-1.151 3.154-.458 4.615.068.143.174.297.317.372.413.22.505-.4.844-.44.237-.026.386.303.498.462.945 1.328 2.32 2.642 3.962 3.007 1.062.236.3-1.075.036-1.448-.578-.819-.836-1.941-1.034-2.915M51.795 76.695c.152.051.29.122.386.227.123.139.142.347.093.526-.049.179-.156.336-.263.488-.908 1.289-1.936 2.49-2.962 3.687-.112.13-.235.268-.402.307-.126.03-.258 0-.384-.032-1.124-.279-2.238-.61-3.354-.923-.307-.086-.536-.19-.542-.549-.004-.17.046-.335.092-.499.215-.765.272-1.554.492-2.315.184-.635.557-1.174 1.116-1.537.693-.449 1.44-.784 2.28-.616.571.114 1.126.367 1.668.575.591.225 1.18.458 1.78.66"/>
                <path fill="#303D51" d="M45.936 88.256c-.07.677-.08 1.361-.026 2.04a.41.41 0 0 1 0 .086c-.005.036.313-.086.335-.094 1.43-.608 1.91-2.376 1.93-3.789.006-.532-.03-1.095-.252-1.588-.053-.12-.517-.926-.705-.65-.13.19-.28.374-.348.516-.512 1.082-.81 2.292-.934 3.479"/>
                <path fill="#F1718A" d="M45.327 83.468l-.104.235c.05-.07.101-.14.154-.21a.776.776 0 0 0-.04-.021l-.01-.004"/>
                <path fill="#1E2A3A" d="M40.307 89.51c.112.088.257.122.396.152.354.077.708.148 1.064.214a3.549 3.549 0 0 1-.09-2.056c-.456.216-.937.361-1.433.413-.026.088-.05.176-.074.264-.093.35-.148.789.137 1.013M51.157 97.407c.842.151 2.204.49 1.607.716-.7.267-2.29 0-2.365-.103-.08-.11-.143-.325-.204-.536-.87-3.019-3.361-10.948-3.272-11.423.015-.084.393-.255.393-.255 1.072 2.688 3.722 11.58 3.84 11.6M46.422 85.595c.251-.26 1.57-2.937 1.431-4.02-.035-.275-.11-.543-.159-.817-.545-.206-1.158-.569-1.702-.775-.24-.09-.49-.183-.746-.16-.541.046-.902.573-1.113 1.072a6.073 6.073 0 0 0-.444 2.96c.075.738.336 1.529.971 1.914.592.36 1.792-.09 1.762-.174M34.376 87.97c-.5.553-.874 1.17-1.2 1.724a1.95 1.95 0 0 0-.786-.498c.404-.7.81-1.406 1.354-2.004.204-.225.43-.437.701-.573.27-.137.594-.194.883-.101.29.093.531.353.552.656.024.354-.222.579-.529.555-.294-.023-.662-.105-.975.241"/>
                <path fill="#1E2A3A" d="M32.682 89.182c-.094-.075-.194-.131-.304-.127-.628.026-.966 1.015-.621 1.485.294.4 1.014.212 1.315-.08.174-.17.322-.507.215-.75-.053-.12-.182-.181-.285-.25-.118-.08-.21-.19-.32-.278M33.406 87.66c.009.075.02.153.002.227-.04.157-.197.249-.32.354a1.11 1.11 0 0 0-.287.37 3.856 3.856 0 0 1-.098-.542c-.108-1.126-.053-2.323.673-3.194-.024.03.128.312.147.352.059.123.133.237.193.359.106.211-.072.387-.15.588-.184.469-.22.988-.16 1.486"/>
                <path fill="#515E75" d="M41.766 89.876a35.69 35.69 0 0 0 3.756.49c.127.01.258.02.388.016.003-.027.001-.058 0-.085-.054-.68-.044-1.364.027-2.041.123-1.187.42-2.397.933-3.479.067-.142.218-.326.348-.517-.414-.11-.887-.104-1.257-.308-.221-.122-.364-.338-.584-.46-.053.07-.105.14-.154.211a18.094 18.094 0 0 1-.717 1.418c-.108.186-1.138-.085-1.265.095-.638.898-.586 2.142-1.565 2.604-.174.674-.141 1.4.09 2.056"/>
                <path fill="#515E75" d="M43.235 72.934c-1.622-.572-3.379-.863-5.073-.561-.749.133-1.503.4-2.1.88-.549.44-.778-.523-.958.167-.198.758-.816 6.124-.725 7.012.175 1.7.049 2.786.72 4.368.31.725.73 1.405 1.26 1.99.34.372.728.688 1.168.924.348.189.729.326 1.14.402.385.071 1.182.158 1.576.117a4.413 4.413 0 0 0 1.434-.413c2.143-1.014 2.705-3.39 3.546-5.52.477-1.211 1.362-5.91 1.253-7.318-.37-.671-.316-.767-.959-1.175-1.45-.922-3.185-1.321-4.903-1.41"/>
                <path fill="#C9D6E2" d="M36.213 85.647l5.453.932a3.4 3.4 0 0 0 3.927-2.77l.136-.793a3.393 3.393 0 0 0-2.777-3.916l-5.453-.932a3.4 3.4 0 0 0-3.927 2.77l-.137.793a3.393 3.393 0 0 0 2.778 3.916"/>
                <path fill="#FF4C5A" d="M39.155 77.566l2.84.486a.67.67 0 0 0 .774-.545l.026-.157a.668.668 0 0 0-.546-.77l-2.841-.487a.67.67 0 0 0-.773.546l-.027.156a.667.667 0 0 0 .547.771"/>
                <path fill="#303D51" d="M28.585 80.236c.032.414.072.827.113 1.235l.236 2.34c.066.656.22 1.433.83 1.685.528.219 1.154-.113 1.465-.59.312-.48.389-1.068.472-1.632.11-.75.244-1.496.404-2.237.102-.482.223-.976.522-1.368.39-.512.666-.34 1.176-.528.01-.003-1.108-.977-2.904-.554-.934.22-1.686.916-2.314 1.649"/>
                <path fill="#FFC300" d="M28.905 71.214c.175 1.254 1.273 2.228 2.398 2.726.648.286 1.364.323 2.035.542 1.676.55 10.631 1.95 14.08 1.925 1.297-.009 2.553-.096 3.585-.988 1.663-1.712 2.052-5.347.799-7.773a.248.248 0 0 0-.014-.026c-1.036-1.983-3.25-3.294-5.285-4.049-3.329-1.234-6.91-1.256-10.411-1.053-1.362.08-2.88.03-4.03.837a5.162 5.162 0 0 0-.633.527c-.798.774-1.394 1.81-1.76 2.867-.483 1.395-.954 3.106-.764 4.465"/>
                <path fill="#515E75" d="M38.284 58.552c1.97-.034 6.154.125 9.336 1.51 4.563 1.983 2.8 5.804 2.8 5.804-3.108-1.703-13.137-3.259-16.766-3.144 0 0-.382-4.085 4.63-4.17"/>
                <path fill="#EDA420" d="M28.905 71.214c.175 1.254 1.273 2.228 2.398 2.726.648.286 1.336.446 2.035.542.308-.424.503-.999.528-1.761.015-.443.02-1.217.045-1.66.145-2.699-.642-5.273-2.482-7.179-.798.774-1.394 1.81-1.76 2.867-.483 1.395-.954 3.106-.764 4.465M47.417 76.407c1.295.084 2.554-.096 3.585-.987 1.664-1.713 2.053-5.348.8-7.774-.19.34-2.799 2.445-3.425 3.803-.427.925-.75 1.9-.956 2.9-.14.667-.196 1.423-.004 2.058"/>
                <path fill="#FF4C5A" d="M36.025 73.11l1.916.602 5.24.87s3.81-4.494 3.603-4.434c-.4.117-1.44.158-1.853.213-.85.112-1.71.107-2.564.037a16.022 16.022 0 0 1-2.766-.489c-1.047-.278-2.084-.649-3.004-1.214-.271-.166-.596 4.41-.572 4.415"/>
                <path fill="#ECD9B1" d="M33.866 72.72c-.028.662 3.515 1.166 3.515 1.166.259.054.506-.14.51-.403v-.006a8.992 8.992 0 0 0-1.241-4.693c-.034-.059-.094-.094-.14-.143-.682-.724-2.279-1.857-3.406-2.263 0 0 .297.625.63 2.11 0 0 .229 2.002.132 4.232M47.336 74.969c-.848.27-3.55-.034-3.55-.034-.677-.043-1.02-.328-.936-.578l.002-.005a9.003 9.003 0 0 1 2.75-4.005c.051-.044.12-.056.18-.088.779-.412 3.056-1.247 4.382-1.006-.355.28-1.52 1.596-1.619 1.875 0 0-.95 1.679-1.209 3.841"/>
                <path fill="#1E2A3A" d="M51.44 78.127l.106 2.183.17.048c.094-.98-.276-2.231-.276-2.231"/>
                <path fill="#1E2A3A" d="M51.448 80.283l.097.027.172.047.268.075c.04-.362.024-.793-.05-1.29a8.572 8.572 0 0 0-.232-1.093l-.263.078-.263.076c.112.385.326 1.34.27 2.08"/>
                <path fill="#1E2A3A" d="M48.443 81.289c.013.05.067.074.115.092.705.253 3.67.835 4.35.526.16-.074.75-1 .716-1.047l-.003-.001a46.842 46.842 0 0 1-1.636-.427l-.268-.074-.172-.048-.097-.027a80.883 80.883 0 0 0-.933-.255c-.338-.089-.69-.188-1.02-.026-.462.225-.79.74-1.025 1.175-.019.035-.038.074-.027.112"/>
                <path fill="#FFC300" d="M50.42 65.866c-1.618-1.983-1.91-3.83-1.91-3.83-.504-1.729-1.534-2.826-3.386-3.16l-3.583-.709c-3.168-.554-6.266 4.781-8.726 4.889.868.725 2.46.399 3.013.153 1.889-.246 3.308-4.043 6.005-3.676l3.079.674c1.434.326 1.65 1.066 2.088 2.433 0 0 .863 2.53 1.44 2.694.977 1.217.73.988 1.98.532"/>
                <path fill="#FF4C5A" d="M41.13 79.599c1.67.815 2.4 3.244 1.689 4.88-.904 2.082-3.694 1.004-5.36.663-2.084-.427-1.953-3.015-.822-4.354.763-.906 1.881-1.577 3.038-1.577.486 0 .978.119 1.454.388z"/>
                <path fill="#FFF" d="M41.87 81.516c.12.435-.57.55-.691.119a.87.87 0 0 0-.319-.482c0 .001.002.003.001.007l-.287 2.928.28.018c.45.023.382.717-.068.696-1.21-.061-3.1-.42-3.38-1.822-.212-1.082.706-1.383 1.585-1.339-.151-.448-.005-.911.596-1.209.234-.116.473-.168.704-.168.723 0 1.373.516 1.578 1.252z"/>
                <path fill="#FF4C5A" d="M40.165 81.093a.404.404 0 0 1 .026-.106c-.034.004-.07.007-.106.013-.672.11-.483.56-.061.87.023.016.04.034.06.053l.08-.83zM39.694 82.478a2.478 2.478 0 0 0-1.138-.166c-.589.065-.563.696-.199 1.033.387.357.955.55 1.524.654.05-.528.103-1.055.153-1.58a.323.323 0 0 1-.215.083.334.334 0 0 1-.125-.024z"/>
                <path fill="#303D51" d="M46.764 53.723s-.5 1.014-2.58.633c-2.08-.38-2.049-1.812-2.049-1.812l.04-1.496 4.988 1.357-.4 1.318z"/>
                <path fill="#515E75" d="M37.74 56.332l2.882-.636c.496-.11.819-.548.723-.976l-.643-1.784c-.173-.54-.623-.84-1.118-.729l-2.977.94c-.495.111-.65.61-.554 1.039l.045.107.115.27.149.348c.08.187.154.378.233.566.084.201.167.422.35.574.138.117.503.366 1.01.233.012-.003-.23.05-.216.048"/>
                <path fill="#DBB127" d="M39.175 53.143l.514-.143a.12.12 0 0 0 .06-.193l-.147-.18a.122.122 0 0 0-.127-.04l-.513.144a.12.12 0 0 0-.062.193l.149.179c.03.037.08.053.126.04M37.88 53.496l.514-.143a.12.12 0 0 0 .06-.194l-.147-.178a.12.12 0 0 0-.126-.04l-.514.143a.12.12 0 0 0-.061.193l.148.179c.03.037.08.053.126.04M36.74 53.928l.515-.143a.12.12 0 0 0 .06-.193l-.148-.179a.121.121 0 0 0-.126-.04l-.513.144a.12.12 0 0 0-.062.193l.149.178c.03.038.08.054.125.04M39.55 53.842l.515-.143a.12.12 0 0 0 .06-.193l-.148-.18a.121.121 0 0 0-.126-.039l-.514.143a.12.12 0 0 0-.06.194l.148.178a.12.12 0 0 0 .126.04M38.256 54.195l.514-.143a.12.12 0 0 0 .06-.193l-.148-.18a.122.122 0 0 0-.126-.04l-.513.144a.121.121 0 0 0-.062.194l.15.178c.03.037.079.053.125.04M37.116 54.627l.515-.143a.12.12 0 0 0 .06-.193l-.148-.178a.12.12 0 0 0-.126-.04l-.514.143a.12.12 0 0 0-.061.193l.148.18c.03.036.08.052.126.038M39.926 54.54l.514-.142a.12.12 0 0 0 .061-.193l-.148-.179a.12.12 0 0 0-.126-.04l-.514.143a.12.12 0 0 0-.061.194l.149.179a.12.12 0 0 0 .125.039M38.632 54.894l.514-.143a.12.12 0 0 0 .06-.193l-.148-.179a.12.12 0 0 0-.126-.04l-.513.144a.12.12 0 0 0-.062.193l.149.178a.12.12 0 0 0 .126.04M37.492 55.327l.514-.143a.12.12 0 0 0 .06-.193l-.147-.18a.121.121 0 0 0-.127-.04l-.513.144a.12.12 0 0 0-.061.193l.148.18a.12.12 0 0 0 .126.039M40.302 55.24l.514-.143a.12.12 0 0 0 .06-.193l-.147-.179a.12.12 0 0 0-.126-.04l-.514.143a.12.12 0 0 0-.061.194l.148.179c.03.036.08.052.126.04M39.008 55.593l.513-.143a.12.12 0 0 0 .06-.193l-.147-.179a.12.12 0 0 0-.126-.04l-.514.144a.12.12 0 0 0-.06.193l.147.179a.12.12 0 0 0 .127.039M37.868 56.026l.514-.143a.12.12 0 0 0 .06-.193l-.147-.18a.121.121 0 0 0-.127-.039l-.513.144a.12.12 0 0 0-.062.193l.15.178c.03.037.079.053.125.04"/>
                <path fill="#FFC300" d="M41.209 39.436s1.588.773 2.15.837c.562.064 2.462-.142 3.785.594 1.236.69 5.252 3.319 5.845 5.41.592 2.093.365 2.5.762 3.462.395.962 1.534 2.06 1.318 2.685-.215.622-.921 1.443-.921 1.443S40.087 39.472 40.105 39.312c0 0 .304-.248 1.104.124"/>
                <path fill="#49586D" d="M39.526 41.815l-5.77-3.553a.737.737 0 0 1-.24-1.017l.092-.15a.742.742 0 0 1 1.02-.24l5.77 3.552-.872 1.408z"/>
                <path fill="#303D51" d="M38.818 42.163s-.09-.072-.553-.306c-.521-.264.953-2.609 1.336-2.396l.553.307-1.336 2.395z"/>
                <path fill="#515E75" d="M54.323 53.275s-1.84-3.338-1.904-3.723c-.065-.385.597-1.93-.747-3.916-1.344-1.987-3.722-3.928-5.05-4.617-1.329-.69-3.052-.29-3.955-.447-.902-.155-2.562-1.26-2.562-1.26s-1.124.845-1.323 2.117c-.198 1.274-.218 1.865-.218 1.865s2.113.994 2.533 1.581c.42.587 1.409 2.93 1.075 6.346.041.113-.261 1.47 1.55 2.477.969.538 2.82.3 3.182-.414.433-.856.409-.929.98-1.188.213.024 1.762 3.296 2.158 4.096.076.279 2.476.118 2.946-.208.47-.324 1.694-2.054 1.335-2.71"/>
                <path fill="#303D51" d="M44.731 41.303c1.832.012 3.803 1.946 3.803 1.946s2.677 2.196 2.844 4.027c.016.615-.494 2.445-1.601 2.615-.592.092-2.753-.004-5.267-2.346-2.538-2.315-2.378-4.335-2.307-4.882.117-.895 1.917-1.323 2.528-1.36"/>
                <path fill="#8C99AC" d="M45.068 42.308c.466-.077.703.115.988.342.328.262 1.861 1.67 1.861 1.67s1.491 1.374 1.776 1.682c.247.267.456.491.414.963-.04.473-.313 2.354-1.355 2.21-2.83-.392-5.566-3.47-5.774-5.342-.117-1.052 1.625-1.449 2.09-1.525"/>
                <path fill="#49586D" d="M51.628 55.91l3.591 6.62a.794.794 0 0 0 1.073.326l.426-.227a.79.79 0 0 0 .325-1.07l-3.59-6.62-1.825.971z"/>
                <path fill="#303D51" d="M50.942 56.199c.14.262.084.117.343.701.092.207.453.185.896.041-.123-.301-.082-.863.571-1.195.867-.44 1.242.205 1.242.205.258-.217.404-.415.344-.538-.239-.486-.081-.175-.343-.7-.441-.69-3.27.437-3.053 1.486"/>
            </g>
        </g>
    </g>
</svg>
