<svg xmlns="http://www.w3.org/2000/svg" xmlns:xlink="http://www.w3.org/1999/xlink" width="104" height="98" viewBox="0 0 104 98">
    <defs>
        <rect id="a" width="104" height="98" rx="4"/>
    </defs>
    <g fill="none" fill-rule="evenodd">
        <mask id="b" fill="#fff">
            <use xlink:href="#a"/>
        </mask>
        <use fill="#D8D8D8" xlink:href="#a"/>
        <g mask="url(#b)">
            <path fill="#E8F8FF" d="M0-1h104v79.167H0z"/>
            <path fill="#ADBEC5" d="M0 99h104V78.167H0z"/>
            <path fill="#D4F1FF" d="M.11 7.521C-2.17 3.192 31.742-2.35 45.79.32c12.17 2.315 21.867 10.995 22.517 23.147C73.175 17.1 90.824 17.1 96.3 30.41c7.911 18.517-3.304 37.042 2.152 48.616C88.955 76.924.11 79.72.11 79.72V7.52z"/>
            <path fill="#BAD9EF" d="M92.907 76.89l1.428-42.511-16.675-.508-.87 40.062-2.666 1.102 1.18-35.716-15.32-.605v29.662h-3.536l.59-53.27h-22.39l.588 53.27-3.535-1.816V24.79h-9.428l.298 39.523-5.755.372.43-30.904H0v45.037l17.991.208z"/>
            <path fill="#72C1B8" d="M93.192 79.877s5.057 0 4.425-2.421c-.553-2.117-3.793-1.21-4.425 0 0 0 3.793-6.053 0-8.475-3.793-2.421-4.424 4.238-4.424 4.238s-2.528-6.054-5.689-1.816c-1.264 1.816 0 4.842 0 4.842s-1.264-3.026-3.16-3.026c-1.897 0-2.528 1.816-2.528 1.816s2.528-4.843 0-6.66c-2.53-1.815-5.057 3.028-5.057 3.028s.19-4.392-2.922-5.64c-3.113-1.248-7.541 1.1-6.909 6.548 0 .606-1.41-3.76-5.274-2.461-3.862 1.297-3.34 7-3.34 7s-1.654-5.153-5.447-4.548c-3.792.606-5.012 4.549-5.012 4.549s1.777-6.993-3.146-7.87c-4.924-.877-6.05 6.054-6.05 6.054s.815-7.48-3.384-8.333c-4.198-.853-3.864 5.61-3.864 5.61s-2.477-2.525-5.21-.91c-2.732 1.616-1.273 8.475-1.273 8.475h72.69z"/>
            <path fill="#72C1B8" d="M19.41 79.732c1.695-.146 1.927.145 1.339-2.276-.514-2.117-3.53-1.21-4.117 0 0 0 3.529-6.053 0-8.475-3.53-2.421-4.118 4.238-4.118 4.238s-1.166-5.982-4.107-1.745C7.231 73.29 7.22 76.245 7.22 76.245s-.788-3.026-2.243-3.026c-1.454 0-2.244 1.943-2.244 1.943s1.2-4.56-.806-5.352C-.081 69.019 0 74.217 0 79.732c0 .403 6.47.403 19.41 0zM104 79.7v-9.948c-.931-.172-1.854.378-2.768 1.65-1.29 1.796 0 4.843 0 4.843s-1.264-3.026-3.16-3.026c-1.897 0-2.528 1.816-2.528 1.816s2.528-4.843 0-6.66c-2.53-1.815-3.02 5.877-2.388 11.325 0 .403 3.615.403 10.844 0z"/>
            <g transform="matrix(-1 0 0 1 85.015 10.552)">
                <path fill="#374451" stroke="#374451" stroke-width=".56" d="M2.421 73.39V6.576c0-3.253 2.636-5.9 5.877-5.9h16.51c.333 0 .602.27.602.606 0 .334-.27.605-.603.605H8.298c-2.576 0-4.67 2.103-4.67 4.69V73.39c0 .335-1.207.335-1.207 0z"/>
                <rect width="6.253" height="1.961" y="72.941" fill="#374451" rx=".28"/>
                <path fill="#374451" d="M11.927 7.98c-.324 0-.587-.316-.587-.706V1.626c0-.39.263-.706.587-.706.323 0 .586.316.586.706v5.648c0 .39-.263.705-.586.705M20.839 6.978a.604.604 0 0 1-.603-.605V1.526a.604.604 0 1 1 1.206 0v4.847c0 .334-.27.605-.603.605"/>
                <path fill="#FF4C5A" d="M12.526 21.81c-5.375-.158-6.19-6.967-3.963-10.983 2.135-3.851 6.258-6.793 10.665-5.16 4.518 1.36 7.405 7.363 6.356 11.957-1.333 5.845-8.756 4.313-13.058 4.186"/>
                <path fill="#FF6873" d="M10.533 8.137c2.264-2.357 5.396-3.69 8.688-2.47 4.518 1.36 7.405 7.363 6.356 11.957-.394 1.728-1.323 2.808-2.544 3.473a2.628 2.628 0 0 0-.028-.015L10.535 8.15l-.002-.013z"/>
                <path fill="#EFEFEF" d="M17.498 10.66c.037.335.17 2.74.154 2.736-2.014-.01-2.33-2.822-.154-2.736m-2.405 3.858c1.018-.155 2.113.165 2.527.273 0 0 .26 3.314.291 3.31-5.286.651-4.994-3.251-2.818-3.583m-.077-1.522c-1.965.255-3.44 2.127-2.644 4.293 1.158 3.147 5.228 2.595 7.858 2.307 1.01-.111.885-1.772-.121-1.642-.202.024-.412.047-.627.07-.17-2.304-.342-4.603-.513-6.907 0-.01-.004-.014-.004-.019.368.192.68.516.895.99.436.951 1.922.403 1.483-.556-.98-2.147-3.851-3.289-5.8-1.79-1.216.936-1.037 2.276-.527 3.254"/>
                <path fill="#FFF" d="M17.651 13.396c.017.005-.117-2.401-.154-2.737-2.175-.085-1.86 2.727.154 2.737m-2.11-3.653c1.95-1.5 4.821-.358 5.802 1.79.44.959-1.048 1.506-1.483.556-.216-.475-.527-.799-.896-.99 0 .004.005.009.005.017l.464 6.242-1.754-1.819-.06-.748c-.178-.046-.486-.132-.856-.201l-1.93-2.001c-.349-.92-.345-2.035.709-2.846"/>
                <path fill="#374451" d="M27.359 1.28c0 .708-.571 1.281-1.276 1.281a1.278 1.278 0 0 1-1.275-1.28c0-.708.57-1.281 1.275-1.281s1.276.573 1.276 1.28"/>
            </g>
            <path fill="#F1718A" d="M20.539 49.262a.302.302 0 0 1 .087-.052l-.087.052M26.624 82.468l.105.235a7.743 7.743 0 0 0-.154-.21.776.776 0 0 1 .04-.021l.009-.004"/>
        </g>
    </g>
</svg>
