<svg xmlns="http://www.w3.org/2000/svg" width="265" height="154" viewBox="0 0 265 154">
    <g fill="none" fill-rule="evenodd">
        <path fill="#EBF3FB" d="M161.598 123.022V26.264h-20.406v22.694h-5.102V20.256h-18.854V93.68h-3.327V56.746h-13.752l.51 67.085zM97.35 118.968v-16.892h-6.633V43.72H74.642v54.771h-4.337V23.758H46.832v73.71h-6.379V50.12H17.502l.095 71.972z"/>
        <path fill="#EBF3FB" d="M261.318 122.187V57.221H236.38v49.78h-5.237V27.204h-22.942V52.72h-5.736v-32.27h-21.197v82.55h-3.74V61.474h-15.462l-2.786 61.716z"/>
        <path fill="#D9E5EF" d="M76.5 51.466c9.951-29.088 25.709-15.11 24.505-4.8-1.205 10.311 3.079 11.222 8.464 15.266 7.285 5.47 4.127 23.87-9.016 28.218-17.808 5.893-33.27-11.453-23.954-38.684M100.438 108.885c-2.408.189-6.516-1.424-5.743-6.034.567-2.346 4.626-9.822 9.76-9.328 5.09.49 4.84 14.67-4.017 15.362"/>
        <path fill="#C9D5E0" d="M88.359 71.845c-.206-.038-3.997-4.69-5.37-9.73l-.489.327s2.517 7.956 6.167 11.125l.83 50.621 2.783-.07s.153-4.652 0-7.342c-.02-.362 5.501-3.175 7.731-10.502.047-.154 4.257-3.811 3.227-4.648-.15-.122-2.878 2.967-2.983 2.81.023-1.227.057-3.067-.783-2.878-.169 9-7.538 13.494-7.568 12.96-.672-12.059-1.578-33.682-1.63-40.448.052-5.82.544-16.137.544-16.137s6.416-5.692 7.2-8.67c-.333-.478-5.747 6.647-7.302 6.985.36-.766.015-8.948.015-8.948s-2.461 20.573-2.372 24.545z"/>
        <path fill="#F7FAFB" d="M226.645 22.443a4.418 4.418 0 0 0-4.411-4.425 4.418 4.418 0 0 0-4.412 4.425h8.823zM108.9 16.254c0-2.345-1.917-4.245-4.281-4.245a4.281 4.281 0 0 0-3.156 1.384c-.381-2.483-1.685-5.594-5.793-5.869-5.412-.361-6.188 4.18-6.278 4.917.101-1.073.615-10.241-11.517-10.241-9.664.456-9.971 9.584-9.971 9.584-2.039-3.35-10.585-2.586-9.511 4.716h43.16s.01-.09.022-.246h7.325z"/>
        <path fill="#F7FAFB" d="M260.776 22.138a3.875 3.875 0 0 0-3.869-3.88 3.85 3.85 0 0 0-2.852 1.265c-.345-2.27-1.523-5.114-5.235-5.365-4.891-.33-5.593 3.82-5.674 4.495.092-.982.914-8.753-10.049-8.753-8.734.417-9.02 9.726-8.569 12.463h29.608s.01-.082.02-.225h6.62z"/>
        <path fill="#D9E5EF" d="M166.636 100.537s14.966-12.43 4.807-28.44c-11.342-17.877-15.662 2.98-23.223 4.605-13.368 2.873 1.18 35.225 18.416 23.835"/>
        <path fill="#C9D5E0" d="M153.291 83.522s1.276 5.887 5.103 8.958c.51 0-.535 27.833-.535 27.833l1.997 1.057.58-30.937s4.081-7.679 3.826-12.797c0-.256-5.358 12.797-5.358 12.797s-3.062-2.304-5.613-6.91"/>
        <path fill="#C0E2E5" d="M91.836 107.8c6.272 0 6.575 8.543 6.495 11.465l-.002.028.011-.094c.258-2.283 1.607-7.652 8.562-8.857l.347-.056c4.858 0 7.731 2.984 9.2 6.408.656-.6 1.495-1.08 2.543-1.378 6.192-.841 6.755 3.363 6.755 3.363s4.784-11.211 15.76-4.765c4.503 3.083 4.785 7.848 4.785 7.848s2.814-10.931 7.598-10.37c4.701.55 5.055 9.217 5.066 9.521v.007c.114-.217 2.913-5.5 8.444-5.885 12.101-.84 14.072 7.288 14.072 7.288l.015-.08c.241-1.185 3.25-15.092 10.878-10.851 2.342 1.301 3.262 4.99 3.536 8.407 1.83-2.76 5.168-5.278 10.118-5.278 4.44 0 9.579 7.241 9.579 7.241v-.123c.012-1.17.368-10.334 8.521-11.516 8.712-1.264 11.475 9.726 11.757 8.556.281-1.17 2.366-6.12 8.316-6.12 9.084 0 6.586 9.764 6.586 9.764s5.347-5.326 12.102-.841c2.67 1.772 1.315 5.347 1.315 5.347l-69.42-.329H36.656l-23.62.604-.004-.014-11.617.51-.01-.035c-.157-.585-2.067-8.298 6.05-8.747 2.91-.161 4.608.785 5.584 2.087.79-3.47 3.29-7.181 10.276-7.576 7.315-.414 10.62 3.605 12.112 7.31a10.684 10.684 0 0 1 1.762-2.065c6.29-5.392 13.114 1.056 13.44 1.37l.011.012s-.56-3.04 3.924-5.802c4.484-2.763 9.528 6.354 9.528 6.354s1.12-7.459 11.21-8.564c8.751-.959 10.333 5.567 10.598 7.313l.005.036-.007-.074c-.213-2.154-.717-11.145 5.644-11.413l.294-.006zm6.493 11.5c-.052.51-.05.84-.048.916v.016s.028-.31.046-.832l.002-.1zm-12.422.011c.025.237.044.368.044.368s-.008-.128-.04-.352l-.004-.016z"/>
        <g transform="matrix(-1 0 0 1 206.8 20.9)">
            <path fill="#374451" stroke="#374451" stroke-width="1.17" d="M3.65 110.439V9.895c0-4.896 3.972-8.879 8.857-8.879H37.39c.502 0 .908.407.908.911a.91.91 0 0 1-.908.91H12.507c-3.882 0-7.04 3.166-7.04 7.058v100.544c0 .503-1.817.503-1.817 0z"/>
            <rect width="9.425" height="2.951" y="109.762" fill="#374451" rx=".585"/>
            <path fill="#374451" d="M17.976 12.007c-.488 0-.884-.475-.884-1.062V2.446c0-.587.396-1.061.884-1.061s.884.474.884 1.061v8.5c0 .586-.396 1.06-.884 1.06M31.409 10.5a.91.91 0 0 1-.91-.91V2.295a.91.91 0 1 1 1.818 0v7.293a.91.91 0 0 1-.908.911"/>
            <path fill="#FF4C5A" d="M18.88 32.82c-8.102-.238-9.33-10.485-5.974-16.527 3.219-5.796 9.432-10.222 16.074-7.766 6.81 2.047 11.161 11.08 9.581 17.994-2.01 8.796-13.198 6.49-19.681 6.299"/>
            <path fill="#FF6873" d="M15.875 12.245c3.413-3.547 8.133-5.553 13.095-3.718 6.81 2.047 11.16 11.081 9.58 17.994-.594 2.6-1.994 4.225-3.834 5.226l-.042-.023-18.794-19.46-.005-.019z"/>
            <path fill="#EFEFEF" d="M26.372 16.04c.057.505.258 4.125.233 4.119-3.036-.016-3.511-4.248-.233-4.119m-3.624 5.807c1.534-.234 3.186.247 3.809.41 0 0 .392 4.988.439 4.981-7.968.98-7.528-4.892-4.248-5.391m-.116-2.291c-2.961.384-5.186 3.2-3.985 6.46 1.746 4.737 7.88 3.906 11.844 3.472 1.522-.167 1.334-2.666-.183-2.47l-.944.106-.773-10.396c0-.013-.007-.02-.007-.027.556.288 1.025.775 1.349 1.49.657 1.43 2.898.606 2.235-.838-1.477-3.23-5.805-4.949-8.743-2.693-1.832 1.408-1.56 3.425-.793 4.896"/>
            <path fill="#FFF" d="M26.604 20.158c.025.008-.176-3.613-.232-4.118-3.28-.128-2.804 4.103.232 4.118m-3.18-5.497c2.939-2.257 7.266-.538 8.744 2.693.663 1.443-1.579 2.267-2.235.837-.325-.714-.794-1.202-1.35-1.49 0 .007.008.014.008.027.232 3.133.465 6.26.699 9.392l-2.644-2.737-.09-1.125c-.268-.07-.732-.199-1.29-.303l-2.908-3.012c-.527-1.384-.522-3.061 1.067-4.282"/>
            <path fill="#374451" d="M41.235 1.927c0 1.064-.86 1.927-1.923 1.927a1.925 1.925 0 0 1-1.922-1.927C37.39.863 38.25 0 39.312 0c1.063 0 1.923.863 1.923 1.927"/>
        </g>
    </g>
</svg>
