<svg xmlns="http://www.w3.org/2000/svg" width="145" height="190" viewBox="0 0 145 190">
    <g fill="none" fill-rule="evenodd">
        <path fill="#007349" d="M132.848 164.955c3.253 0 16.27 1.07 10.846 5.35-3.053 2.41-9.187 6.042-13.015 8.56-3.254 2.141-42.465 1.07-42.465 1.07s8.678 1.071 5.424 3.211c-2.552 1.679-21.694 3.21-26.964-1.728-.305.246-9.915-1.482-9.915-1.482s9.307 2.588 7.593 4.28c-3.254 3.21-29.286 2.14-31.127-3.627-.658-.236.337-4.31.337-4.31s.42-11.324 10.181-15.604c9.762-4.28 9.762-2.14 9.762-2.14s78.096 6.42 81.35 6.42h-2.007z"/>
        <path fill="#E7F5FD" d="M14.742 166.953c-1.547.753-1.494 1.11-3.24 2.022-1.626 1.032-3.038-.234-6.029 1.746-1.918 1.269-5.05-.357-4.773 2.34 0 2.698 16.938.556 16.938.556s3.876-9.964-2.896-6.664"/>
        <path fill="#0D2E4E" d="M5.382 141.85s-5.83 22.531 6.128 26.022c3.888.793 2.84.476 2.84.476l-.135 6.1s36.676-.306 40.563-3.479c3.886-3.174-2.008-13.887-14.715-27.373-.598-.317-30.347-4.6-34.681-1.746M34.253 95.308s-10.275-6.065-5.002-14.893c5.079-8.505 18.933-3.387 20.396-1.617.735.89-12.508 17.202-15.394 16.51"/>
        <path fill="#FFCF48" d="M48.761 118.513s3.026-9.719-.535-14.645c-2.293-3.172-8.18-8.704-22.63-3.497-7.644 2.495-19.342 19.363-21.635 42.547-.077-.08 6.116 2.685 23.547-.406 4.171-.74 16.207-24.244 16.207-24.244l5.046.244z"/>
        <path fill="#E3F6FC" d="M47.106 79.953s4.772 9.698 2.771 18.472c-.616 1.077-6.312.462-6.312.462s-.243 8.839-.599 11.923c-.308.155-8.214-1.09-12.662-10.52 0-.345 4.382-5.906 4.757-6.31-1.443-.202-4.82-2.828-1.876-5.57 2.078-1.703 4.704.317 4.59 3.26 0 .03 1.413-.75 1.558-.788-.078-.924-1.309-6.773-1-7.543.307-.77 8.312-1.693 8.773-3.386"/>
        <path fill="#FCB614" d="M47.812 107.882s.318 2.577-4.665 10.387c-.163 0 1.668.06 1.668.06s5.22-8.735 2.997-10.447"/>
        <path fill="#A4DEF8" d="M36.331 96.27c.154.23 3.474 4.017 7.168 4.787.015-.361.067-2.17.067-2.17s-5.849-1.54-7.235-2.617M33.282 90.423c1.375-.253 2.415.382 2.97 1.46 1.06-2.232-1.825-3.618-2.97-1.46M42.415 119.55l3.925-.162.387-.977-3.58-.142zM44.883 123.096s-1.654-.42-3.376 1.545c.027-1.357 2.074-2.834 3.674-2.291-.013.04-.298.746-.298.746"/>
        <path fill="#37516C" d="M46.376 78.337s-5.253-3.348-11.43-1.386c-3.06 1.328-2.508 2.397.288 3.695 3.233 1.5 6.64-2.251 11.142-2.31"/>
        <path fill="#FFF" d="M43.889 92.436c.929.613 2.48.917 4.79.53.396-.067.718.264.54.814-.4 1.243-1.565 2.518-3.364 2.28-1.688-.224-2.527-1.59-2.712-3.061-.06-.47.383-.802.746-.563"/>
        <path fill="#5D48A8" d="M130.744 168.565H40.556v-57.573c0-2.202 1.659-3.988 3.706-3.988h86.482c1.553 0 2.812 1.355 2.812 3.026v55.511c0 1.67-1.259 3.024-2.812 3.024"/>
        <path fill="#00E0CE" d="M58.976 127.27L52.73 84.175a4.139 4.139 0 0 1 3.444-4.68l34.158-5.26a4.14 4.14 0 0 1 4.754 3.517l3.537 17.238-39.647 32.28z"/>
        <path fill="#8FFFE8" d="M63.232 123.761L58.915 98.35s10.98-8.195 4.462-15.878l22.38-3.846s-.767 11.015 8.41 10.767c.8 2.734 1.22 8.296 1.22 8.296l-32.155 26.073z"/>
        <path fill="#00E0CE" d="M61.421 117.508l26.9-45.065a4.99 4.99 0 0 1 6.778-1.764l32.536 21.034a4.989 4.989 0 0 1 1.776 6.902l-9.788 18.816-58.202.077z"/>
        <path fill="#8FFFE8" d="M68.253 116.994l17.464-28.678s12.585 2.288 14.874-9.154l19.427 13.182s-9.086 9.724-.31 16.463c-1.33 3.167-5.163 8.688-5.163 8.688l-46.292-.501z"/>
        <path fill="#4ECBE9" d="M89.799 114.509c-.124.062-.242.129-.356.19.107.078.214.155.306.267.679.787 1.352 1.578 2.025 2.37.015-.098.032-.195.068-.293.636-1.855.252-3.64-2.043-2.534"/>
        <path fill="#00E0CE" d="M95.755 127.662c-1.34 1.033-3.026-.946-1.692-1.984l.816-.658-7.121-8.353c-.01-.01-.01-.021-.015-.026-.22.648-.225 1.378.05 2.165.55 1.578-1.817 2.713-2.371 1.12-1.244-3.562.718-7.613 4.695-8.224 2.48-.38 3.917.725 4.409 2.42 2.605-2.023 6.066-3.072 7.72.695 2.134 4.904-2.904 10.059-6.491 12.845m-3.373-21.644c-9.687 1.615-17.758 13.966-17.758 22.6 0 8.634 6.407 14.41 15.04 14.41 8.634 0 14.56-12.301 15.632-20.867 1.614-12.914-4.795-17.496-12.914-16.143"/>
        <path fill="#4ECBE9" d="M97.293 115.244c-1.29.709-2.305 1.747-3.141 2.955a1.215 1.215 0 0 1-1.171.55c1.275 1.5 2.559 3.002 3.838 4.508 1.528-1.536 2.862-3.351 3.287-5.274.398-1.814-.868-3.803-2.813-2.74"/>
        <path fill="#FBB514" d="M91.704 111.587c-3.416 1.322-8.458.952-11.514-3.188-1.64-2.221-2.045-4.324-1.51-7.32.461-2.585 2.92-6.56 7-8.433 3.53-1.621 7.77-.661 10.691 2.205 2.241 2.199 3.361 6.228 1.873 10.086-.558 1.448-3.435 5.272-6.54 6.65"/>
        <path fill="#FFDB6E" d="M93.14 110.745c-4.002 2.92-9.741 1.948-12.817-2.17-3.077-4.12-2.325-9.825 1.679-12.745 4.003-2.92 9.743-1.948 12.819 2.17 3.076 4.119 2.324 9.825-1.68 12.745"/>
        <path fill="#FBB514" d="M89.082 107.608c-3.055-.246-5.547-2.693-5.842-5.744a6.61 6.61 0 0 1-.01-1.159c.054-.669-.91-.844-1.094-.199a6.856 6.856 0 0 0-.255 2.18c.143 3.387 2.812 6.2 6.189 6.508a6.816 6.816 0 0 0 4.065-.889c.596-.345.188-1.235-.465-1.013a6.44 6.44 0 0 1-2.588.316"/>
        <path fill="#00C07B" d="M122.32 71.78a.896.896 0 0 1-.896-.896v-8.157a.895.895 0 0 1 1.791 0v8.157a.896.896 0 0 1-.896.896M122.32 59.882a.895.895 0 0 1-.896-.895v-2.003a.895.895 0 1 1 1.791 0v2.003a.896.896 0 0 1-.896.895M111.895 48.793a.895.895 0 0 1-.895-.895v-2.003a.895.895 0 1 1 1.791 0v2.003a.896.896 0 0 1-.896.895M85.026 72.974c-.495 0-.896-.34-.896-.76v-8.306c0-.42.401-.76.896-.76.494 0 .895.34.895.76v8.306c0 .42-.4.76-.895.76M62.068 76.919a.896.896 0 0 1-.895-.896v-6.48a.895.895 0 0 1 1.79 0v6.48a.896.896 0 0 1-.895.896M62.047 65.326a.896.896 0 0 1-.896-.895V63.24a.895.895 0 1 1 1.791 0v1.19a.895.895 0 0 1-.895.895M76.447 73.013c-.494 0-.895-.34-.895-.76V58.29c0-.42.401-.759.895-.759.495 0 .896.339.896.759v13.963c0 .42-.4.76-.896.76M76.427 54.71c-.494 0-.895-.34-.895-.76v-2.13c0-.418.4-.758.895-.758.494 0 .896.34.896.759v2.129c0 .42-.402.76-.896.76M102.896 48.994A.896.896 0 0 1 102 48.1v-5.24a.896.896 0 0 1 1.792 0v5.24a.896.896 0 0 1-.896.895M66.896 28.994A.896.896 0 0 1 66 28.1v-5.24a.896.896 0 0 1 1.792 0v5.24a.896.896 0 0 1-.896.895M102.896 39.337a.896.896 0 0 1-.896-.895v-2.547a.896.896 0 0 1 1.792 0v2.547a.896.896 0 0 1-.896.895M66.896 19.337a.896.896 0 0 1-.896-.895v-2.547a.896.896 0 0 1 1.792 0v2.547a.896.896 0 0 1-.896.895"/>
        <path fill="#FBB514" d="M115.057 64.121c-1.096 3.093-4.29 6.301-8.885 5.961-2.467-.183-4.131-1.135-5.854-3.247-1.487-1.82-2.75-5.81-1.643-9.675.959-3.344 4.086-5.664 7.737-5.976 2.802-.238 6.193 1.352 7.945 4.614.657 1.224 1.576 5.41.7 8.323M74.803 44.96c-1.096 3.093-4.29 6.301-8.885 5.961-2.467-.183-4.131-1.135-5.854-3.247-1.487-1.82-2.75-5.81-1.643-9.675.959-3.344 4.086-5.664 7.737-5.976 2.802-.238 6.193 1.352 7.945 4.614.657 1.224 1.576 5.41.7 8.323"/>
        <path fill="#FFDB6E" d="M115.323 62.655c-.354 4.423-4.362 7.754-8.955 7.44-4.593-.314-8.029-4.155-7.677-8.578.354-4.424 4.362-7.755 8.955-7.44 4.593.314 8.03 4.155 7.677 8.578M75.07 43.493c-.355 4.423-4.363 7.754-8.956 7.44-4.593-.314-8.029-4.155-7.677-8.578.354-4.424 4.362-7.755 8.955-7.44 4.593.314 8.03 4.155 7.677 8.578"/>
        <path fill="#FBB514" d="M110.823 63.58c-1.95 1.932-5.066 2.197-7.31.617a6.01 6.01 0 0 1-.794-.67c-.422-.427-1.104.125-.773.628a6.173 6.173 0 0 0 1.331 1.445c2.385 1.879 5.854 1.708 8.033-.406a6.112 6.112 0 0 0 1.77-3.28c.112-.606-.73-.85-.96-.276a5.734 5.734 0 0 1-1.297 1.943M70.57 44.42c-1.95 1.93-5.067 2.196-7.312.616a6.01 6.01 0 0 1-.793-.67c-.422-.427-1.104.125-.773.628a6.173 6.173 0 0 0 1.331 1.445c2.385 1.879 5.854 1.708 8.033-.406a6.112 6.112 0 0 0 1.77-3.28c.112-.606-.73-.85-.96-.276a5.734 5.734 0 0 1-1.297 1.943M120.097 92.819c-3.498 1.042-8.476.274-11.182-4.08-1.452-2.336-1.687-4.456-.92-7.39.664-2.53 3.422-6.28 7.622-7.818 3.634-1.33 7.769-.04 10.443 3.038 2.052 2.362 2.844 6.452 1.059 10.165-.668 1.393-3.83 4.963-7.022 6.085"/>
        <path fill="#FFDB6E" d="M121.59 92.097c-4.207 2.583-9.83 1.162-12.557-3.172-2.728-4.334-1.53-9.941 2.679-12.523 4.207-2.583 9.83-1.163 12.558 3.171 2.727 4.335 1.528 9.942-2.68 12.524"/>
        <path fill="#FBB514" d="M117.809 88.66c-3.015-.488-5.295-3.116-5.346-6.169a6.508 6.508 0 0 1 .082-1.15c.107-.66-.837-.912-1.071-.286a6.887 6.887 0 0 0-.427 2.145c-.125 3.375 2.302 6.38 5.63 6.954a6.806 6.806 0 0 0 4.109-.559c.62-.297.284-1.213-.382-1.045a6.38 6.38 0 0 1-2.595.11"/>
        <path fill="#956BFF" d="M120.075 177.23h-73.97c-3.028 0-5.482-2.677-5.482-5.978v-54.764l-.067-3.53c0-5.978 2.192-5.978 6.877-5.953l-.02.092c-1.246 10.4 4.015 9.478 9.585 9.391h63.077c3.028 0 5.48 2.676 5.48 5.977v48.787c0 3.301-2.452 5.977-5.48 5.977"/>
        <path fill="#5D48A8" d="M115.855 151.984c-2.478.218-4.645-1.837-4.84-4.59-.197-2.753 1.653-5.16 4.13-5.378 2.478-.218 4.645 1.837 4.84 4.59.196 2.753-1.654 5.16-4.13 5.378zM108.847 137c-1.02 0-1.847.877-1.847 1.96v15.08c0 1.083.827 1.96 1.847 1.96H132v-19h-23.153z"/>
        <path fill="#E3F6FC" d="M15.763 120.766S10.889 137 17.39 140.29c6.63 3.357 20.054 4.17 31.01 4.712-.163-.162 5.153.652 8.786.57 3.265-.073 1.709-1.545-1.14-1.545.896.081 4.679.474 5.696-.8.936-1.804-5.478-.679-5.478-.679s6.25-.447 6.86-1.68c1.195-2.225-6.4-.53-6.4-.53s5.139.01 5.913-1.926c.759-1.897-6.427.49-7.241-.65.163 0 2.4-1.369 2.157-2.265-.49-1.3-1.672-.218-3.295.164-1.79.42-2.441.488-3.417.555-1.171.081-6.746-.596-10.814-2.712-4.068-2.115-9.498-4.175-11.206-3.525.325-.325 3.09-9.6 3.09-9.6l-16.148.387z"/>
        <path fill="#FCB614" d="M33.81 108.882s.62 4.677-1.887 11.486c-.007-.007-.298.965-.284.972.054.005 1.705-.338 1.705-.338s3.73-9.057.466-12.12M18.826 109.38s-2.539 4.363-4.826 11.387c.001-.002 1.757.008 1.757.008l-.739 3.017-3.755.66s3.596-13.406 7.563-15.072"/>
        <path fill="#A4DEF8" d="M14.95 123.776s16.555-2.42 16.677-2.42c.094-.225.303-.943.284-.976-.065-.118-16.149.386-16.149.386l-.813 3.01zM28.83 129.973s-3.806 1.362-5.65 4.616c-.271-.705 1.41-5.424 6.186-6.017 0 0-.38 1.15-.536 1.401M60.774 139.738s-3.06.465-4.7.437c.04.083 2.776.992 6.247-.397-.29-.105-1.547-.04-1.547-.04M59.08 142.176s-1.772.034-3.182.048c.097.139 2.053 1.065 4.97.047-.669-.106-1.788-.095-1.788-.095M57.227 144.112s-1.831-.14-2.332-.329c0 0 .497 1.06 3.552.683-.498-.255-1.22-.354-1.22-.354"/>
        <path fill="#FBB514" d="M58.458 179.76c0 2.77-5.7 5.014-12.73 5.014-7.031 0-12.73-2.244-12.73-5.014 0-1.24-.875-5.255 1.018-6.13 2.335-1.08 7.83 0 11.712 0h10.693c3.056 0 2.037 4.623 2.037 6.13"/>
        <path fill="#FFDB6E" d="M58.458 175.302c0 2.77-5.7 5.014-12.73 5.014-7.031 0-12.73-2.245-12.73-5.014 0-2.77 5.699-5.016 12.73-5.016 7.03 0 12.73 2.245 12.73 5.016"/>
        <path fill="#FBB514" d="M59.32 173.302c0 2.644-5.437 4.786-12.147 4.786s-12.147-2.142-12.147-4.786c0-1.184-.836-5.014.97-5.85 2.229-1.03 7.473 0 11.177 0h10.204c2.916 0 1.944 4.412 1.944 5.85"/>
        <path fill="#FFDB6E" d="M59.32 169.048c0 2.644-5.437 4.786-12.147 4.786s-12.147-2.142-12.147-4.786c0-2.643 5.438-4.785 12.147-4.785 6.71 0 12.148 2.142 12.148 4.785"/>
        <path fill="#FFF" d="M88.65 106.348c-1.079-.288-2.073-1.088-2.905-1.99.883-.688 1.765-1.379 2.646-2.063a.69.69 0 0 0 .283.676c.663.503 1.226 1.104 1.596 1.852.554 1.128-.603 1.795-1.62 1.525m1.963-5.79a.833.833 0 0 0 .16-.167c.031.066.066.135.098.207.57 1.326-.45 1.5-1.485 1.094a.884.884 0 0 0-.165-.047c.465-.36.93-.722 1.392-1.087m-.224 7.08c2.174-.844 1.666-2.83.583-4.355.973-.236 1.634-1.022 1.481-2.436-.249-2.268-2.493-3.478-4.54-2.86-.917.273-.332 1.641.575 1.37.452-.138.865-.117 1.226.024-.003.003-.009.002-.015.008l-4.905 3.826c-.122-.164-.24-.325-.352-.479-.556-.78-1.718.126-1.165.91 1.488 2.1 4.283 5.08 7.112 3.992M117.827 86.897c-1.078-.288-2.073-1.088-2.905-1.991.884-.687 1.765-1.378 2.647-2.062a.69.69 0 0 0 .282.677c.663.502 1.226 1.103 1.596 1.85.555 1.129-.603 1.796-1.62 1.526m1.964-5.79a.801.801 0 0 0 .158-.167c.032.066.067.135.1.207.568 1.327-.45 1.5-1.486 1.094-.054-.023-.109-.034-.164-.046.465-.361.93-.723 1.392-1.088m-.225 7.08c2.175-.844 1.666-2.83.584-4.354.973-.237 1.634-1.023 1.48-2.437-.248-2.267-2.493-3.478-4.54-2.861-.917.274-.332 1.643.575 1.37.452-.137.865-.116 1.226.025-.002.003-.008.003-.014.008l-4.905 3.826a35.71 35.71 0 0 1-.353-.48c-.555-.78-1.717.127-1.165.91 1.488 2.1 4.283 5.08 7.112 3.993M108.942 62.831c-.854.493-1.976.613-3.06.57l.368-2.944a.61.61 0 0 0 .6.247c.73-.1 1.455-.076 2.154.161 1.05.36.744 1.5-.062 1.966m-2.392-5.05c.062.02.126.041.191.066 1.184.474.655 1.22-.245 1.612a.68.68 0 0 0-.132.074c.065-.517.13-1.033.191-1.55a.72.72 0 0 0-.005-.203m1.932 1.683c.461-.755.383-1.66-.596-2.447-1.57-1.264-3.73-.619-4.627 1.045-.402.744.82 1.234 1.216.498.197-.368.47-.613.782-.75 0 .003-.003.006-.003.014-.227 1.82-.454 3.636-.679 5.456l-.52-.079c-.835-.142-.995 1.151-.16 1.296 2.241.383 5.851.502 6.942-1.945.833-1.885-.726-2.81-2.355-3.088M68.689 43.67c-.854.493-1.976.613-3.06.57l.368-2.944a.61.61 0 0 0 .599.247c.73-.1 1.456-.076 2.155.161 1.05.36.744 1.5-.062 1.966m-2.392-5.05c.062.02.126.041.19.066 1.185.474.656 1.22-.244 1.612a.68.68 0 0 0-.132.074c.065-.517.13-1.033.19-1.55a.72.72 0 0 0-.004-.203m1.932 1.683c.46-.755.383-1.66-.596-2.447-1.571-1.264-3.731-.619-4.627 1.045-.402.744.819 1.234 1.216.498.197-.368.469-.613.782-.75 0 .003-.003.006-.003.014l-.68 5.456-.52-.079c-.834-.142-.994 1.151-.16 1.296 2.242.383 5.852.502 6.943-1.945.833-1.885-.726-2.81-2.355-3.088"/>
        <path fill="#FBB514" d="M55.106 170.111c.08.173.123.351.133.531.017.321.984.19 1.096-.148a1.66 1.66 0 0 0 .021-1.062c-.5-1.529-3.903-4.09-11.467-3.009-2.14.306-1.465.958-.804.877 7.288-.877 10.408 1.47 11.021 2.811M87.977 180.31c0 2.354-4.843 4.261-10.817 4.261s-10.817-1.907-10.817-4.26c0-1.056-.744-4.466.865-5.21 1.984-.917 6.653 0 9.952 0h9.086c2.596 0 1.73 3.93 1.73 5.21"/>
        <path fill="#FFDB6E" d="M87.977 176.522c0 2.354-4.843 4.261-10.817 4.261s-10.817-1.907-10.817-4.26c0-2.355 4.843-4.263 10.817-4.263s10.817 1.908 10.817 4.262"/>
        <path fill="#FBB514" d="M84.224 177.469c.07.154.109.311.118.474.016.284.876.168.977-.133.106-.32.117-.64.017-.946-.446-1.362-3.474-3.642-10.21-2.679-1.905.272-1.304.851-.716.781 6.49-.78 9.268 1.308 9.814 2.502"/>
        <path fill="#FFF" d="M76.965 177.41c.189-.063.305-.165.248-.292-.148-.35-.158-.7.074-1.04.354-.511 1.657-.38 2.226.003.599.404.793.942.797 1.465l-3.345-.136m-2.812-.112c-.082-.004-.155 0-.23.006.02-.031.042-.062.067-.093.477-.577 1.345-.333 1.834.095.025.023.057.042.09.062-.587-.023-1.174-.048-1.761-.07m4.948-2.125c-2.173-.375-3.14.388-3.371 1.176-.877-.21-1.896-.161-2.737.322-1.35.774-.511 1.805 1.414 2.213.862.183 1.355-.412.502-.592-.426-.09-.716-.217-.887-.366.004 0 .007.002.015.002l6.2.25c-.02.086-.041.169-.062.25-.118.404 1.352.463 1.474.059.32-1.085.272-2.824-2.548-3.314M46.707 169.845c.189-.063.305-.165.249-.291-.149-.35-.159-.7.073-1.04.353-.512 1.658-.38 2.225.002.601.405.794.942.798 1.466-1.116-.047-2.233-.09-3.345-.137m-2.812-.112c-.082-.004-.155.001-.229.006.02-.03.041-.061.066-.093.477-.576 1.345-.332 1.834.096.025.023.058.042.09.062-.587-.024-1.174-.048-1.761-.07m4.948-2.126c-2.173-.375-3.139.388-3.371 1.177-.877-.21-1.896-.161-2.737.322-1.349.774-.511 1.804 1.415 2.213.861.183 1.354-.412.501-.593-.426-.09-.716-.216-.887-.365l.016.001 6.201.25c-.021.087-.043.17-.064.251-.118.404 1.352.463 1.474.059.32-1.085.273-2.825-2.548-3.315"/>
    </g>
</svg>
