<svg xmlns="http://www.w3.org/2000/svg" width="44" height="44" viewBox="0 0 44 44">
    <path fill="#FFC300" fill-rule="evenodd" d="M20.708 3.818a5.62 5.62 0 0 1 2.606.004c1.476.359 2.972.73 4.421 1.085l.853.214c1.917.47 3.896.961 5.84 1.428 1.995.478 3.171 1.98 3.148 4.017-.016 1.671-.016 3.383-.012 5.037v5.054h-.023c0 .676.007 1.353.03 2.017l.011.397c.051 3.963-1.45 7.549-4.467 10.67-2.485 2.57-5.559 4.612-9.4 6.246a4.502 4.502 0 0 1-1.738.346c-.584 0-1.16-.111-1.663-.33-4.554-1.967-7.861-4.306-10.41-7.359-2.364-2.838-3.536-6.097-3.486-9.698.055-3.506.035-7.087.016-10.548l-.012-1.799C6.414 8.533 7.6 7.015 9.593 6.536a650.935 650.935 0 0 0 6.377-1.555c1.504-.371 3.117-.771 4.738-1.163zm7.522 11.446l-8.27 9.607-4.4-4.553a1.678 1.678 0 0 0-2.449 0 1.982 1.982 0 0 0 0 2.716l5.696 5.895c.712.737 1.848.703 2.52-.078l9.493-11.027c.678-.787.61-2.014-.146-2.71-.719-.664-1.799-.6-2.444.15z"/>
</svg>
