<svg xmlns="http://www.w3.org/2000/svg" width="48" height="48" viewBox="0 0 48 48">
    <g fill="none" fill-rule="evenodd">
        <path fill="#F8D35A" d="M47.832 23.916c0 13.208-10.707 23.916-23.916 23.916C10.708 47.832 0 37.124 0 23.916S10.708 0 23.916 0c13.21 0 23.916 10.708 23.916 23.916"/>
        <path fill="#FFF" d="M26.434 30.957c.038 1.533-.85 2.9-2.481 2.907-1.628.007-2.535-1.255-2.555-2.843l5.036-.064zM31.15 26.924c-1.032-.528-.84-2.28-.815-4.783-.092-3.685-1.887-6.174-4.46-6.954.042-.147.071-.3.071-.46a1.683 1.683 0 1 0-3.366 0c0 .133.02.26.048.384-2.688.703-4.41 3.375-4.533 6.831-.09 2.171-.059 4.607-1.138 4.9l-.005.002a1.15 1.15 0 0 0 .193 2.285h13.541a1.152 1.152 0 0 0 .464-2.205"/>
    </g>
</svg>
