<svg xmlns="http://www.w3.org/2000/svg" width="40" height="40" viewBox="0 0 40 40">
    <g fill="none" fill-rule="evenodd">
        <path fill="#F2F5F3" d="M40 20c0 4.317-1.367 8.315-3.694 11.583a20.045 20.045 0 0 1-2.82 3.188c-.08.069-.157.14-.236.21a19.54 19.54 0 0 1-3.002 2.196 19.593 19.593 0 0 1-3.518 1.662 19.788 19.788 0 0 1-5.594 1.129h-.002a20.072 20.072 0 0 1-3.362-.092h-.005c-.012 0-.024-.005-.032-.005a19.466 19.466 0 0 1-3.766-.801h-.005a15.325 15.325 0 0 1-1.017-.353 19.753 19.753 0 0 1-3.835-1.942 7.516 7.516 0 0 1-.414-.273 15.462 15.462 0 0 1-.955-.702 18.932 18.932 0 0 1-1.814-1.593 7.92 7.92 0 0 1-.345-.347 20.873 20.873 0 0 1-1.34-1.54l-.057-.075a15.085 15.085 0 0 1-.476-.645 14.666 14.666 0 0 1-.429-.625c-.055-.075-.1-.149-.149-.223-.106-.174-.218-.343-.317-.521a16.69 16.69 0 0 1-.682-1.243 1.54 1.54 0 0 1-.092-.184 19.788 19.788 0 0 1-1.714-5.192c-.087-.471-.16-.95-.211-1.434A20.993 20.993 0 0 1 0 20c0-.144 0-.29.007-.434 0-.13.005-.253.01-.38.038-.94.14-1.86.305-2.758.067-.4.154-.797.249-1.191a19.868 19.868 0 0 1 3.25-6.996 20.165 20.165 0 0 1 2.704-3.019A19.918 19.918 0 0 1 20 0a19.92 19.92 0 0 1 7.142 1.317 20.03 20.03 0 0 1 12.345 14.148C39.82 16.921 40 18.44 40 20"/>
        <path fill="#C6DDE3" d="M38.682 20.001c0 1.856-.272 3.653-.778 5.347-.044.146-.088.292-.134.436l-.123.36c-.188.54-.402 1.07-.634 1.585a7.78 7.78 0 0 1-.153.32c-.11.232-.223.462-.341.687-.107.2-.216.397-.33.59-.067.115-.134.231-.204.345l-.18.295c-.184.29-.375.575-.574.854-.302.427-.622.84-.961 1.237a18.585 18.585 0 0 1-3.13 2.942 17.92 17.92 0 0 1-1.57 1.047 18.47 18.47 0 0 1-8.51 2.606h-.001a18.705 18.705 0 0 1-3.14-.086h-.005c-.011 0-.023-.004-.03-.004a17.828 17.828 0 0 1-2.01-.337h-.002c-.501-.114-.991-.246-1.471-.399h-.003l-.032-.012h-.005c-.325-.1-.636-.208-.949-.33a16.343 16.343 0 0 1-1.084-.45 17.945 17.945 0 0 1-2.5-1.364 8.547 8.547 0 0 1-.387-.253 15.182 15.182 0 0 1-.89-.657 9.408 9.408 0 0 1-.467-.374c-.107-.085-.21-.173-.311-.261l-.035-.03c-.046-.042-.093-.08-.137-.121a7.034 7.034 0 0 1-1.067-1.026 20.369 20.369 0 0 1-1.196-1.37l-.055-.069-.054-.07a13.845 13.845 0 0 1-.545-.744 9.105 9.105 0 0 1-.3-.441c-.05-.07-.092-.14-.139-.21a11.956 11.956 0 0 0-.144-.229 5.882 5.882 0 0 1-.153-.258l-.097-.16a2.618 2.618 0 0 1-.06-.106c-.035-.06-.07-.119-.102-.179a12.59 12.59 0 0 1-.378-.715 1.474 1.474 0 0 1-.087-.172c-.005-.009-.01-.014-.011-.023V28.2a9.204 9.204 0 0 1-.25-.532c-.003-.004-.005-.007-.005-.011l-.026-.054c-.005-.011-.01-.02-.014-.032-.007-.019-.016-.035-.023-.053a15.032 15.032 0 0 1-.297-.717l-.007-.014c-.098-.251-.19-.504-.276-.76-.04-.115-.08-.23-.114-.345-.023-.067-.044-.135-.065-.202l-.012-.04-.002-.004a18.302 18.302 0 0 1-.499-2.06 19.166 19.166 0 0 1-.179-1.177c-.006-.054-.011-.11-.018-.163a20.12 20.12 0 0 1-.105-1.88c-.002-.05-.002-.104-.002-.155 0-.134 0-.27.007-.404 0-.12.005-.237.01-.355.004-.102.009-.2.015-.302V18.922a16.968 16.968 0 0 1 .251-2.165c.005-.03.012-.06.016-.09a16.643 16.643 0 0 1 .395-1.72 17.693 17.693 0 0 1 .464-1.436 18.59 18.59 0 0 1 2.409-4.494 18.945 18.945 0 0 1 2.527-2.82 18.62 18.62 0 0 1 12.32-4.875c.089-.002.18-.002.267-.002.379 0 .752.011 1.123.034.142.007.284.017.423.028l.12.01c.073.007.144.014.216.023a18.388 18.388 0 0 1 4.787 1.137 18.712 18.712 0 0 1 11.532 13.214c.314 1.36.48 2.778.48 4.235"/>
        <path fill="#FFC500" d="M27.241 20.083a6.506 6.506 0 0 1-.77 3.353c-.49.9-1.637 1.76-3.406 2.561-.588.265-1.236.517-1.925.75l-.347.121c-.189.066-.384.135-.58.195a4.348 4.348 0 0 1-.686.162 2.687 2.687 0 0 1-.82 0 1.815 1.815 0 0 1-.221-.05c-.714-.195-1.32-.755-1.709-1.579-.337-.726-.347-1.585-.355-2.277-.003-.193.003-.386.007-.58.01-.483.021-.984-.086-1.456-.133-.586-.534-1.26-1.26-1.394-.271-.053-.546-.003-.835.049-.365.067-.74.135-1.116-.013a1.911 1.911 0 0 1-.227-.107c-.611-.319-.894-.856-.817-1.555.077-.68.466-1.33.692-1.655l.016-.022a8.179 8.179 0 0 1 5.904-3.49 8.257 8.257 0 0 1 2.363.096 8.293 8.293 0 0 1 3.4 1.499c.494.373.94.816 1.323 1.318.369.484.673 1.015.906 1.576a7.07 7.07 0 0 1 .55 2.498"/>
        <path fill="#D91D42" d="M27.226 19.798c-.088-.013-.172-.014-.249-.065a.61.61 0 0 1-.17-.182 1.487 1.487 0 0 1-.095-.17l-.6-1.224a5.336 5.336 0 0 1-.34-.8c-.157-.513-.09-.982.07-1.273a7.256 7.256 0 0 1 1.384 3.714"/>
        <path fill="#FFF" d="M17.955 22.522c-.334 1.061.165 1.897.611 2.83.105.225.202.465.165.709-.038.243-.206.446-.371.63a11.941 11.941 0 0 1-1.818 1.63c-.116.087-.244.173-.39.18-.461.034-.855-.43-1.162-.716-.383-.356-.75-.727-1.091-1.12l-.03-.034c-.686-.799-1.274-1.69-1.668-2.673-.045-.109-.083-.217-.124-.326a8.452 8.452 0 0 1-.45-1.93 7.534 7.534 0 0 1 .319-3.258c.206-.63.431.588.858.772a.677.677 0 0 0 .08.03c.156.049.318.056.479.041.109-.015.214-.037.319-.067.262-.075.517-.188.757-.266.352-.117.854-.24 1.394-.315 1.421-.203 3.089-.057 2.947 1.567-.075.836-.582 1.536-.825 2.316" opacity=".585"/>
        <path fill="#FEFEFE" d="M18.479 20.213a.99.99 0 1 1-1.979-.103.99.99 0 0 1 1.979.103"/>
        <path fill="#D9E3F0" d="M35.7 19.069c-.069.23-.225.418-.343.618-.113.194-.232.381-.357.568a2.572 2.572 0 0 1-.187.27 8.578 8.578 0 0 1-.275.386l-.012.013c-.094.131-.194.256-.294.38-.056.076-.119.145-.175.213-.081.107-.162.2-.256.3-.344.387-.706.762-1.093 1.106a14.498 14.498 0 0 1-.88.743c-.313.25-.638.481-.969.7-.119.081-.244.156-.369.231-.212-.412-.424-.83-.63-1.243.03.019.074 0 .106-.019a.404.404 0 0 0 .087-.05c.113-.062.219-.125.319-.2.043-.031.087-.062.13-.1.026-.025.057-.043.082-.068.231-.175.45-.382.662-.594.013-.006.019-.019.025-.019.169-.168.337-.33.5-.5.356-.355.7-.724 1.05-1.08.1-.106.2-.206.3-.306.605-.612 1.199-1.387 2.054-1.65.025-.005.05-.012.069-.018a.796.796 0 0 1 .131-.031c.038-.006.069-.013.106-.013.032 0 .07.007.1.02a.206.206 0 0 1 .075.03c.07.05.094.144.044.313"/>
        <path fill="#F1F4FA" d="M36.118 18.625c-.218.55-.58 1.043-.924 1.524a4.993 4.993 0 0 1-.656.762c.094-.125.188-.256.275-.387.069-.087.131-.175.187-.269.125-.187.244-.374.357-.568.118-.2.274-.387.343-.618.05-.17.025-.263-.044-.313a.206.206 0 0 0-.075-.03.282.282 0 0 0-.1-.02c-.037 0-.068.007-.106.013a.796.796 0 0 0-.131.031l-.069.019c-.855.262-1.449 1.037-2.055 1.649-.1.1-.2.2-.3.306-.35.356-.693.725-1.049 1.08-.163.17-.331.332-.5.5-.006 0-.012.013-.025.02a9.94 9.94 0 0 1-.662.593c-.025.025-.056.043-.081.068-.044.038-.088.069-.131.1-.1.075-.206.138-.319.2a.744.744 0 0 1-.2.063l-.218-.038s1.418-.962 2.842-2.524l.187-.187 1.58-1.568s.338-.287.731-.512a2.23 2.23 0 0 1 .3-.15l.131-.056c.115-.05.242-.079.364-.097.149-.022.32.005.374.166a.362.362 0 0 1-.026.243"/>
        <path fill="#4D6971" d="M16.696 31.7c.002.346 0 .71.242 1.01.327.407 1.037.593 1.694.576.658-.017 1.281-.201 1.887-.383 1.408-.421 2.878-.876 3.814-1.733.575-.526.902-1.165 1.204-1.795.246-.512.484-1.04.448-1.58a1.134 1.134 0 0 0-.476-.88c-.361-.255-.901-.334-1.41-.338-1.423-.01-2.749.47-4.037.9-.725.241-1.47.472-2.254.596-.54.086-1.162.008-1.351.445-.177.407.098 1.023.141 1.44.061.579.094 1.16.098 1.742"/>
        <path fill="#4D6971" d="M37.77 25.784l-.123.36c-.188.54-.402 1.07-.634 1.585-.049.107-.1.216-.153.32-.11.232-.223.462-.341.687-.107.2-.216.397-.33.59-.067.115-.134.231-.204.345l-.18.295c-.184.29-.375.575-.574.854A18.585 18.585 0 0 1 31.14 35a17.92 17.92 0 0 1-1.57 1.046 18.47 18.47 0 0 1-8.51 2.606h-.001a18.705 18.705 0 0 1-3.14-.086h-.005c-.012 0-.023-.004-.03-.004a17.828 17.828 0 0 1-2.01-.337h-.002a17.817 17.817 0 0 1-1.471-.399h-.003l-.032-.012h-.005c-.325-.1-.636-.208-.949-.33a16.343 16.343 0 0 1-1.084-.45A17.932 17.932 0 0 1 9.83 35.67a8.679 8.679 0 0 1-.388-.253c-.304-.209-.6-.425-.89-.657a9.408 9.408 0 0 1-.467-.374c-.107-.085-.21-.173-.311-.261l-.035-.03c1.474-.774 2.987-1.465 4.509-2.143.332-.155.664-.301.996-.45.543-.237 1.076-.48 1.62-.72.139-.057.278-.122.422-.178.004-.005.011-.005.016-.005.01-.004.016-.009.023-.011.358-.167.717-.32 1.08-.471.057-.04.127-.065.197-.09 0 0 .002 0 .002-.003h.002c.047-.021.086-.04.135-.056l.028-.014a.199.199 0 0 1 .048-.018c2.46-1.07 4.946-2.075 7.5-2.913.156-.05.321-.1.479-.15.134-.045.262-.084.394-.123h.005c.297-.096.592-.19.9-.274h.003c.269-.084.536-.165.81-.24.239-.07.475-.13.714-.199h.005c.002-.002.007-.002.012-.005l.011-.002.026-.01.014-.002c1.91-.526 3.843-.988 5.767-1.45.605-.144 1.223-.285 1.835-.186a.471.471 0 0 1 .112.026h.004a.285.285 0 0 1 .09.032.388.388 0 0 0 .089.028c.02.007.044.012.067.019.023.005.044.014.067.02.49.17.936.47 1.365.773.227.168.457.335.685.504"/>
        <path fill="#F1F4FA" d="M37.77 25.784l-.123.36c-.188.54-.402 1.07-.634 1.585-.049.107-.1.216-.153.32-.11.232-.223.462-.341.687-.107.2-.216.397-.33.59-.067.115-.134.231-.204.345l-.18.295c-.184.29-.375.575-.574.854A18.585 18.585 0 0 1 31.14 35c-.119.013-.235.03-.353.046-.17.02-.341.044-.51.07-.265.027-.525.067-.787.104-.358.048-.708.107-1.059.162a94.991 94.991 0 0 0-4.471.803c-.567.11-1.133.232-1.695.358-.485.109-.977.218-1.464.338a70.512 70.512 0 0 0-2.042.518c-.339.088-.678.183-1.017.278a58.23 58.23 0 0 0-1.868.548h-.002a17.817 17.817 0 0 1-1.471-.399h-.003l-.032-.012h-.005c-.325-.1-.636-.208-.949-.33a16.343 16.343 0 0 1-1.084-.45A17.932 17.932 0 0 1 9.83 35.67a8.679 8.679 0 0 1-.388-.253c-.304-.209-.6-.425-.89-.657a9.408 9.408 0 0 1-.467-.374c-.107-.085-.21-.173-.311-.261l-.035-.03c1.474-.774 2.987-1.465 4.509-2.143.332-.155.664-.301.996-.45.543-.237 1.076-.48 1.62-.72.139-.057.278-.122.422-.178.004-.005.011-.005.016-.005.01-.004.016-.009.023-.011.358-.167.717-.32 1.08-.471.057-.04.127-.065.197-.09 0 0 .002 0 .002-.003h.002c.047-.021.086-.04.135-.056l.028-.014a.199.199 0 0 1 .048-.018c2.46-1.07 4.946-2.075 7.5-2.913.156-.05.321-.1.479-.15.134-.045.262-.084.394-.123h.005c.297-.096.592-.19.9-.274h.003c.269-.084.536-.165.81-.24.239-.07.475-.13.714-.199h.005c.002-.002.007-.002.012-.005l.011-.002.026-.01.014-.002c1.91-.526 3.843-.988 5.767-1.45.605-.144 1.223-.285 1.835-.186a.471.471 0 0 1 .112.026h.004a.285.285 0 0 1 .09.032.388.388 0 0 0 .089.028c.02.007.044.012.067.019.023.005.044.014.067.02.49.17.936.47 1.365.773.227.168.457.335.685.504"/>
        <path fill="#D9E3F0" d="M37.77 25.784l-.123.36c-.188.54-.402 1.07-.634 1.585-.049.107-.1.216-.153.32-.11.232-.223.462-.341.687-.107.2-.216.397-.33.59-.067.115-.134.231-.204.345l-.18.295a22.77 22.77 0 0 0-2.524-1.49c-1.431-.74-2.921-1.364-4.383-1.963h-.007c-.402-.16-.796-.32-1.188-.478 1.912-.522 3.838-.984 5.769-1.45.603-.145 1.225-.289 1.833-.184l.088.016h.003c.032.002.067.014.097.02a1.344 1.344 0 0 1 .16.049c.023.006.044.015.067.022.49.17.936.469 1.365.772.227.168.457.335.685.504M18.14 27.924a.538.538 0 0 1-.026.086v.011c-.037.16-.095.309-.16.46 0 .004-.003.004-.003.007-.246.561-.659 1.046-1.135 1.448l-.02.016c-.06.049-.124.097-.181.142h-.005s0 .002-.002.002c-.012.007-.02.02-.03.026l-.13.094a4.572 4.572 0 0 0-.151.107l-.005.005-.005.002a.041.041 0 0 0-.016.005c-.394.255-.808.473-1.24.682-.294.135-.59.267-.886.406-.55.249-1.095.513-1.64.77-.806.4-1.613.801-2.419 1.21-.659.33-1.32.664-1.98 1.002a11.115 11.115 0 0 1-.334-.28c-.01-.01-.022-.021-.034-.03-.046-.042-.093-.08-.137-.121a7.146 7.146 0 0 1-1.067-1.026 20.322 20.322 0 0 1-1.196-1.37l-.055-.069-.054-.07a13.9 13.9 0 0 1-.545-.744 9.145 9.145 0 0 1-.3-.441c-.05-.07-.092-.14-.139-.21-.046-.076-.095-.152-.144-.23a5.87 5.87 0 0 1-.153-.256l-.097-.16a5.29 5.29 0 0 1 .186-.024h.009c2.03-.243 4.066-.339 6.115-.364.805-.01 1.608-.01 2.406-.005.557.005 1.154.13 1.71.07.175-.017.351-.049.511-.114.313-.12.638-.22.975-.304l.722-.195h.011c.42-.109.833-.227 1.258-.38.002-.003.002-.003.005-.003h.016l.002-.002c.126-.046.235-.098.362-.153"/>
        <path fill="#FEFEFE" d="M31.14 35a17.92 17.92 0 0 1-1.57 1.046 18.25 18.25 0 0 1-3.283 1.553c-1.645.591-3.4.951-5.226 1.053h-.002a18.652 18.652 0 0 1-3.14-.086h-.005c-.012 0-.023-.004-.03-.004a17.878 17.878 0 0 1-2.01-.337 59.18 59.18 0 0 1 1.868-.548c.34-.095.678-.19 1.017-.278a68.319 68.319 0 0 1 2.042-.518c.487-.12.98-.23 1.464-.339a59.845 59.845 0 0 1 1.695-.357 94.991 94.991 0 0 1 4.472-.803c.35-.055.7-.113 1.058-.162.262-.037.522-.077.786-.105.17-.025.341-.048.51-.07.12-.015.235-.032.354-.046M36.519 28.736c-.107.2-.216.397-.33.59-.067.115-.134.232-.204.345-.06.1-.12.198-.181.295-.8-.55-1.648-1.042-2.522-1.49 1.083-.012 2.17.074 3.237.26"/>
        <path fill="#444141" d="M26.127 26.568s-.005.007-.012.007c-.127.09-.267.18-.417.267-.003.003-.005.003-.005.005 0 0-.002 0-.002.002-.047.028-.098.06-.151.088h-.003c-.378.226-.81.441-1.274.66l-.004.002h-.002c-2.273 1.051-5.366 2.003-7.631 2.634h-.002c-.112.032-.22.062-.327.09l-.005.005-.005.002a.045.045 0 0 0-.016.005c-.343.093-.66.179-.947.253-1.023.271-1.682.425-1.682.425-3.446 1.387-8.21.584-8.21.584-.03-.007-.061-.011-.093-.018l-.056-.07-.054-.07a13.667 13.667 0 0 1-.545-.744 9.369 9.369 0 0 1-.3-.441c-.05-.07-.092-.14-.139-.21-.046-.076-.095-.152-.143-.229a5.882 5.882 0 0 1-.154-.258l-.097-.16a2.509 2.509 0 0 1-.06-.106l.246.083 3.081 1.038 8.079-.933 1.216-.439.004-.002 1.536-.557 5.036-1.817h.003l.004-.003.005-.002.01-.002h.004l2.796-1.01.284.829h.002l.03.092z"/>
        <path fill="#444141" d="M18.726 27.307c.687-.786 1.609-1.226 2.553-1.623 1.249-.527 2.551-.908 3.847-1.296 1.045-.313 2.068-.7 3.116-.998.465-.132 1.332-.386 2.003-.478l-9.117 3.657-2.402.738z"/>
        <path fill="#566782" d="M32.028 24.025c-.083.1-.197.17-.31.234-.618.348-1.324.518-1.975.792a2.757 2.757 0 0 0-.191.076c-.02.012-.04.021-.058.03a.17.17 0 0 0-.03.012s0 .005-.007.005c-.613.25-1.218.508-1.83.763l-.72.3c-.253.113-.518.222-.78.332 0 0-.005.006-.012.006-.225.093-.457.193-.687.288h-.004c-.246.105-.485.204-.72.304-.963.4-1.917.79-2.886 1.16-.086.042-.182.07-.277.112-.93.34-1.868.67-2.817.958-.436.133-.875.27-1.316.381-.204.056-.408.116-.612.174l-.028.002-.028.014c-.044.01-.086.023-.137.035H16.6a8.208 8.208 0 0 1-.219.065c-.554.153-1.116.313-1.68.453a26.44 26.44 0 0 1-1.408.345c-.59.126-1.177.219-1.769.277h-.009c-2.279.225-4.572-.017-6.832-.448a9.262 9.262 0 0 1-.3-.441c-.05-.07-.092-.14-.139-.21a13.152 13.152 0 0 0-.144-.229 5.882 5.882 0 0 1-.153-.257l-.097-.16a2.737 2.737 0 0 1-.06-.108c-.035-.06-.07-.118-.102-.178a12.59 12.59 0 0 1-.378-.715 1.474 1.474 0 0 1-.087-.172c-.004-.009-.01-.014-.011-.023V28.2a9.204 9.204 0 0 1-.25-.531c-.003-.005-.005-.008-.005-.012l-.026-.054c-.005-.011-.01-.02-.014-.032-.007-.019-.016-.035-.023-.053a15.032 15.032 0 0 1-.253-.608c.631.264 1.304.51 1.99.73h.015c1.766.565 3.671.966 5.407 1.121.425.03.838.054 1.232.063.636.012 1.738-.167 2.954-.432.367-.078.745-.164 1.126-.25h.002l.295-.074a76.27 76.27 0 0 0 1.743-.441h.002a70.17 70.17 0 0 0 1.381-.39h.005c.002 0 .002-.003.002-.003h.002c.55-.153.989-.297 1.272-.396a159.87 159.87 0 0 0 4.848-1.852h.002c.047-.019.093-.035.14-.056a271.996 271.996 0 0 1 4.798-1.866c.01-.002.02-.007.03-.01l.005-.001c.019-.007.035-.017.051-.021l.054-.019c.002 0 .007-.002.009-.007l.035-.011c.012-.003.023-.007.035-.012l.002-.002h.002c.003-.003.003-.003.005-.003h.002l.007-.002c.003-.005.007-.007.01-.007l.004-.002.014-.007c.002-.002.007-.002.014-.005.01-.002.016-.007.028-.011.014-.007.028-.012.042-.017l.04-.014c.199-.074.391-.15.59-.22l.005-.005.005.003c0 .002.002.002.002.002h.003l.004-.002c.003 0 .003-.003.005-.003l.3-.113c.364-.126.7.292.867.577a1.186 1.186 0 0 1 .114.26v.005c.056.206.035.436-.114.608"/>
        <path fill="#4D6971" d="M35.538 17.794a1.093 1.093 0 0 0-.132.043l.025-.012c.038-.013.075-.025.107-.031"/>
        <path fill="#FEFEFE" d="M38.074 18.881s-.244 1.087-2.174 4.692c0 0-.081.668-1.006 1.224l-10.938 3.13c.007-.013.02-.025.025-.038.063-.087.132-.162.213-.231.262-.244.574-.413.9-.556.15-.069.3-.131.449-.194.063-.025.131-.056.2-.081.587-.244 1.174-.481 1.755-.73.5-.22 1-.438 1.487-.682.512-.25 1.018-.518 1.505-.818.125-.075.25-.15.369-.231.331-.219.656-.45.968-.7.2-.156.4-.318.594-.487.1-.081.193-.169.287-.256.387-.344.75-.718 1.093-1.106.094-.1.175-.194.256-.3.056-.068.119-.137.175-.212.1-.125.2-.25.294-.381l.012-.013c.25-.23.469-.5.656-.762.343-.48.706-.974.925-1.524a.336.336 0 0 0 .008-.235c-.037-.112-.111-.165-.218-.172-.019-.006-.045-.004-.057-.004.012 0 .054-.014.06-.014.325-.068 1.081-.2 1.706-.187 0 0 .756.094.456.868"/>
        <path fill="#4D6971" d="M35.862 17.731a1.702 1.702 0 0 1-.112.025c-.05 0-.1.006-.15.019a.887.887 0 0 1 .262-.044"/>
        <path fill="#D9E3F0" d="M25.979 31.956a2.218 2.218 0 1 1-4.436 0 2.218 2.218 0 0 1 4.436 0"/>
        <path fill="#F1F4FA" d="M25.278 32.121a1.868 1.868 0 1 1-3.735 0 1.868 1.868 0 0 1 3.735 0"/>
        <path fill="#6EC5AA" d="M24.73 32.247a1.319 1.319 0 1 1-2.638 0 1.319 1.319 0 0 1 2.638 0"/>
        <path fill="#ADDCCF" d="M24.354 32.247a.943.943 0 1 1-1.886 0 .943.943 0 0 1 1.886 0"/>
        <path fill="#2AB78D" d="M24.473 32.247a.943.943 0 1 1-1.886 0 .943.943 0 0 1 1.886 0"/>
        <path fill="#D9E3F0" d="M21.546 1.382c-.123.52-.26 1.042-.485 1.527-.466 1.017-1.297 1.813-2.056 2.636a23.069 23.069 0 0 0-3.187 4.405c-.097.17-.42.847-.693 1.578-.147.19-.288.383-.427.573-.156.205-.309.411-.458.62-.2.276-.396.55-.596.824-1.443 1.98-2.931 3.978-4.676 5.716-.014.01-.023.023-.035.032-.014.01-.025.026-.037.04l-.097.092c-2.108 2.052-4.391 3.913-6.554 5.902l-.123.109a18.294 18.294 0 0 1-.499-2.06 18.655 18.655 0 0 1-.179-1.177c-.007-.054-.011-.11-.018-.163-.063-.617-.1-1.244-.105-1.88-.002-.05-.002-.104-.002-.155 0-.134 0-.27.007-.404 0-.12.005-.237.01-.355.004-.102.009-.2.015-.302V18.922a17.042 17.042 0 0 1 .251-2.165c.005-.03.012-.06.016-.09a16.506 16.506 0 0 1 .395-1.72c.07-.249.144-.497.223-.74a25.612 25.612 0 0 0 1.838-1.778c.598-.643 1.16-1.326 1.724-1.998.142-.17.286-.337.43-.504.048-.053.097-.109.148-.162a11.631 11.631 0 0 1 .612-.65c.636-.636 1.316-1.212 1.992-1.796.482-.42.963-.836 1.45-1.247.44-.378.882-.752 1.32-1.123.314-.262.622-.524.931-.787.41-.35.824-.698 1.235-1.05.438-.374.858-.769 1.276-1.166a18.726 18.726 0 0 1 3.328-.566 16.31 16.31 0 0 1 1.213-.058c.089-.002.18-.002.267-.002.379 0 .752.011 1.124.034.141.007.283.017.422.028"/>
        <path fill="#B6C4D6" d="M20.68 5.692c-.942.902-1.937 1.752-2.856 2.678-.984.981-1.862 2.051-2.7 3.158-.146.19-.287.383-.426.573-.156.205-.309.411-.457.62-.2.276-.397.55-.597.824-1.416 1.965-2.824 3.931-4.558 5.602-.04.04-.081.076-.118.114-.014.009-.023.023-.035.032-.014.01-.025.026-.037.04l-.097.092c-2.163 2.056-4.426 3.927-6.554 5.902l-.123.109a18.2 18.2 0 0 1-.499-2.06 18.657 18.657 0 0 1-.12-.727 58.925 58.925 0 0 1 9.218-12.281c3.113-3.182 6.618-6.482 10.403-9.014.141.007.283.017.422.028l.12.01c.073.007.144.014.216.023.221.376.413.773.472 1.202.153 1.16-.824 2.265-1.674 3.075"/>
        <path fill="#FFF" d="M19.733 1.322c-1.278 1.485-3.262 2.625-4.632 3.797-2.149 1.833-4.249 3.833-6.21 5.817-2.016 2.038-4.093 4.027-6.407 5.72-.32.235-.645.46-.975.676.028-.192.058-.385.093-.575.005-.03.012-.06.016-.09a16.665 16.665 0 0 1 .395-1.72c.07-.249.144-.497.223-.74a25.612 25.612 0 0 0 1.838-1.778c.598-.643 1.16-1.326 1.724-1.998.141-.17.285-.337.43-.504l.14-.162c.15-.17.305-.334.465-.492.051-.054.102-.107.155-.158.636-.636 1.316-1.212 1.991-1.796.483-.42.964-.836 1.451-1.247.44-.378.882-.752 1.32-1.123.314-.262.622-.524.931-.787.41-.35.824-.698 1.234-1.05.44-.374.86-.769 1.277-1.166a18.726 18.726 0 0 1 3.328-.566c.401-.035.805-.053 1.213-.058"/>
        <path fill="#F4FAFD" d="M15.833 18.639c-.075.15-.131.266-.146.303a31.088 31.088 0 0 0-.596 1.665c-.63 1.941-1.14 3.996-1.192 6.057-.011-.01-.019-.022-.03-.033-.686-.799-1.274-1.69-1.668-2.673-.045-.109-.082-.217-.124-.326a19.6 19.6 0 0 1 1.605-4.412c.262-.075.517-.188.757-.266.352-.117.854-.24 1.394-.315M13.363 19.287a11.794 11.794 0 0 0-1.507 3.636 8.481 8.481 0 0 1-.229-1.222c.023-.067.05-.135.075-.198.311-.795.69-1.563 1.181-2.257.158.049.319.056.48.041"/>
    </g>
</svg>
