<svg xmlns="http://www.w3.org/2000/svg" width="16" height="16" viewBox="0 0 16 16">
    <path fill="#7A7A7A" fill-rule="evenodd" d="M7.86.8c1.806 0 3.612.689 4.99 2.068 2.758 2.756 2.758 7.226 0 9.982-1.378 1.378-3.184 2.068-4.99 2.068-1.808 0-3.614-.69-4.992-2.068-2.757-2.756-2.757-7.226 0-9.982C4.246 1.488 6.052.8 7.859.8zm3.534 3.805c-.316-.315-.826-.315-1.141 0L7.999 6.858 5.747 4.606c-.316-.316-.826-.315-1.141 0-.315.315-.315.825 0 1.14L6.859 8l-2.254 2.254c-.314.315-.315.825 0 1.14.316.316.827.316 1.141 0L8 9.14l2.253 2.254c.316.315.826.315 1.141 0 .315-.315.316-.825 0-1.141L9.141 7.999l2.253-2.253c.315-.315.315-.825 0-1.14z"/>
</svg>
