<svg xmlns="http://www.w3.org/2000/svg" width="32" height="33" viewBox="0 0 32 33">
    <g fill="none" fill-rule="evenodd">
        <ellipse cx="12.5" cy="31.5" fill="#131DF5" rx="5.5" ry="1.5"/>
        <g fill="#131DF5">
            <circle cx="12.586" cy="12.972" r="10.428"/>
            <path d="M11.071.307C5.665.905 1.344 4.81.36 10.11c-.554 2.985.276 6.301 1.264 7.973C4.666 23.588 12.5 28.274 12.5 28.274c0 0 8.323-6.244 11.413-11.774.014-.025 1.087-1.705 1.087-3.875C25 5.789 19.393.227 12.5.227c-.473 0-.953.027-1.429.08z"/>
        </g>
        <g fill="#FFF">
            <path d="M11.12 16.904c.324 0 .586.261.586.584v1.479a.585.585 0 0 1-.585.584h-.228a.585.585 0 0 1-.586-.584v-1.48c0-.322.262-.583.586-.583zm4.972 0c.323 0 .585.261.585.584v1.479a.585.585 0 0 1-.585.584h-.228a.585.585 0 0 1-.586-.584v-1.48c0-.322.262-.583.586-.583zm-4.85-3.435c.93 0 1.684.751 1.684 1.678v2.257a.68.68 0 0 1-.682.68v-.5c0-.672-.546-1.217-1.22-1.217-.673 0-1.22.545-1.22 1.216v.501a.645.645 0 0 1-.645-.644v-2.293a1.68 1.68 0 0 1 1.683-1.678zm4.972 0c.93 0 1.683.751 1.683 1.678v2.257a.68.68 0 0 1-.682.68v-.5c0-.672-.546-1.217-1.22-1.217-.673 0-1.22.545-1.22 1.216v.501a.645.645 0 0 1-.645-.644v-2.293a1.68 1.68 0 0 1 1.683-1.678zM11.043 11c.447 0 .823.288.962.687h.618a.405.405 0 1 1 0 .809h-.681a1.019 1.019 0 0 1-.9.544 1.02 1.02 0 0 1-.899-.544h-.738a.405.405 0 1 1 0-.809h.675a1.02 1.02 0 0 1 .963-.687zm4.97 0c.448 0 .824.288.963.687h.618a.405.405 0 1 1 0 .809h-.681a1.019 1.019 0 0 1-.9.544 1.02 1.02 0 0 1-.899-.544h-.738a.405.405 0 1 1 0-.809h.675a1.02 1.02 0 0 1 .963-.687z"/>
            <path d="M4.846 7.781c0 .403.326.73.73.73h.643V18.72a.73.73 0 0 0 1.46 0V8.51h11.062a.73.73 0 0 0 0-1.458H5.575a.73.73 0 0 0-.73.729z"/>
        </g>
        <g fill="#131DF5" stroke="#FFF" stroke-width="1.8">
            <path d="M24.752 16.548a7.893 7.893 0 1 1 0 15.787 7.893 7.893 0 0 1 0-15.787zm0 4.695v2.999-.45l.002-2.495-.002-.054zm-.45 3.449h-.45l-2.044-.002-.056.002h-.001v-.013.013h2.55zm-2.55-.013l-.001-.033v.033zm-.001-.033v-.01.01zm3 .496v2.5h.002-.001-.012.012v-2.5zm-.011 2.5l-.034.001.034-.001zm-.034.001h-.01.01zm.496-2.951h.45l2.044.001.056-.001v-.002.002h.001v.012l-.001-.012h-2.55zm2.55.012l.001.033v-.033zm.001.033v.01-.01z"/>
        </g>
    </g>
</svg>
