<svg xmlns="http://www.w3.org/2000/svg" width="40" height="41" viewBox="0 0 40 41">
    <g fill="none" fill-rule="evenodd">
        <path fill="#F2F5F3" d="M41 22.5c0 3.307-.765 6.434-2.125 9.2-.007.018-.016.034-.024.05a18.86 18.86 0 0 1-.673 1.25 19.59 19.59 0 0 1-1.108 1.699 20.03 20.03 0 0 1-2.04 2.399c-.26.266-.527.527-.804.775a19.116 19.116 0 0 1-2.136 1.685 19.195 19.195 0 0 1-5.75 2.694l-.01.011c-.85.235-1.71.42-2.6.543-.7.102-1.4.165-2.119.174-.2.02-.411.02-.611.02-.28 0-.56-.01-.83-.02-.17 0-.33-.01-.489-.03-.281-.01-.56-.042-.841-.063a19.526 19.526 0 0 1-6.317-1.81C5.714 37.802 1 30.71 1 22.5 1 11.175 9.95 2 21 2c11.04 0 20 9.175 20 20.5"/>
        <path fill="#FAFAFA" d="M39.682 22.501c0 1.903-.272 3.744-.778 5.48-.044.15-.088.3-.134.448a20.098 20.098 0 0 1-.756 1.993c-.05.11-.1.221-.154.328a17.97 17.97 0 0 1-.341.704 16.93 16.93 0 0 1-.33.605c-.067.118-.134.237-.204.354l-.18.302c-.184.297-.375.59-.574.875-.302.438-.622.861-.961 1.268-.49.595-1.016 1.161-1.578 1.694-.033.03-.065.062-.097.093-.072.066-.144.133-.219.2-.397.36-.81.706-1.237 1.03-.503.385-1.025.742-1.568 1.072a18.068 18.068 0 0 1-3.284 1.592c-1.645.606-3.4.975-5.226 1.08h-.002a18.254 18.254 0 0 1-3.14-.088h-.005c-.011 0-.023-.005-.03-.005a17.43 17.43 0 0 1-2.01-.345h-.002a17.52 17.52 0 0 1-1.471-.41h-.003l-.032-.011h-.005a13.936 13.936 0 0 1-.949-.338c-.367-.14-.729-.295-1.084-.461a17.814 17.814 0 0 1-2.5-1.4 8.528 8.528 0 0 1-.387-.258 15.21 15.21 0 0 1-.89-.674 9.462 9.462 0 0 1-.467-.383c-.107-.088-.21-.178-.311-.268-.012-.01-.023-.022-.035-.031-.046-.043-.093-.081-.137-.124a7.127 7.127 0 0 1-1.067-1.051c-.418-.45-.817-.916-1.196-1.404l-.055-.071-.054-.072a14.177 14.177 0 0 1-.545-.763 9.348 9.348 0 0 1-.3-.452c-.05-.071-.092-.143-.139-.214a12.306 12.306 0 0 0-.144-.236 6.064 6.064 0 0 1-.153-.264l-.097-.164a2.702 2.702 0 0 1-.06-.11c-.035-.061-.07-.12-.102-.182a13.015 13.015 0 0 1-.378-.733 1.527 1.527 0 0 1-.087-.176c-.005-.01-.01-.014-.011-.024v-.002a9.543 9.543 0 0 1-.25-.545c-.003-.005-.005-.007-.005-.012l-.026-.054-.014-.034c-.007-.019-.016-.035-.023-.054l-.033-.079a15.626 15.626 0 0 1-.264-.657l-.007-.014c-.098-.257-.19-.516-.276-.778-.04-.118-.08-.235-.114-.354-.023-.069-.044-.138-.065-.207l-.012-.04c0-.003 0-.003-.002-.005a19.15 19.15 0 0 1-.499-2.112 20.098 20.098 0 0 1-.179-1.206c-.006-.055-.011-.112-.018-.167-.063-.633-.1-1.275-.105-1.926-.002-.053-.002-.108-.002-.16 0-.138 0-.276.007-.414 0-.124.005-.243.01-.364.004-.104.009-.204.015-.31V21.396a17.814 17.814 0 0 1 .251-2.22c.005-.03.012-.061.016-.092a17.433 17.433 0 0 1 .395-1.763 18.444 18.444 0 0 1 .464-1.472 19.215 19.215 0 0 1 2.409-4.605 19.267 19.267 0 0 1 2.527-2.89 18.492 18.492 0 0 1 7.779-4.358 18.286 18.286 0 0 1 3.328-.58c.401-.036.805-.055 1.214-.06.088-.002.178-.002.266-.002.379 0 .752.012 1.123.035.142.007.284.017.423.029.042.002.081.007.12.01.073.007.144.014.216.023.098.01.195.022.293.034a18.016 18.016 0 0 1 4.495 1.132c3.511 1.372 6.512 3.8 8.637 6.907a19.35 19.35 0 0 1 3.374 10.978"/>
        <path fill="#D7322C" d="M19.031 32.066c-2.298.733-4.216 3.649-5.472 6.381"/>
        <path fill="#FEFEFE" fill-rule="nonzero" d="M18.957 31.82l.149.49c-1.945.62-3.817 2.976-5.321 6.246l-.452-.218c1.558-3.39 3.507-5.842 5.624-6.517z"/>
        <path fill="#8CD3D7" d="M36.965 32.09c.424.286.829.59 1.213.91-.34.586-.71 1.153-1.108 1.699a20.03 20.03 0 0 1-2.04 2.399c-.26.266-.527.527-.804.775a19.076 19.076 0 0 1-2.136 1.685 19.195 19.195 0 0 1-5.75 2.694l-.01.011c-.85.235-1.71.42-2.6.543-.7.102-1.4.165-2.119.174-.2.02-.41.02-.611.02-.28 0-.56-.009-.83-.02-.17 0-.33-.01-.489-.03-.281-.01-.56-.042-.842-.063a19.528 19.528 0 0 1-6.316-1.81c.262-.794.611-1.702 1.035-2.63 1.258-2.732 3.174-5.647 5.473-6.382.066-.054.136-.106.204-.16 3.108-2.41 6.963-3.154 10.701-2.581a16.14 16.14 0 0 1 1.965.423 17.523 17.523 0 0 1 5.064 2.343"/>
        <path fill="#D3ECFA" d="M31.556 30.88c-.637.894-2.05.721-2.603 1.83-.446.893-1.215 1.564-1.96 2.21-1.565 1.36-3.287 2.785-5.335 2.918-1.129.075-2.244-.261-3.327-.59-.603-.184-1.333-.539-1.306-1.183.014-.366.289-.66.519-.94a5.509 5.509 0 0 0 1.062-2.078 6.428 6.428 0 0 0-.35-4.342 5.426 5.426 0 0 0-1.097-1.584c-.243-.24 4.46-5.537 5.129-6.022a.088.088 0 0 1 .03-.018c.239.525.455 1.04.675 1.539.242.548.487 1.08.772 1.598.27.492.578.972.948 1.439.06.072.121.149.185.221.005.005.007.01.009.012a11.451 11.451 0 0 0 4.025 2.962c.56.245 3.4.94 2.624 2.029"/>
        <path fill="#4CC1C2" d="M38.85 31.75a18.86 18.86 0 0 1-.672 1.25 19.54 19.54 0 0 1-1.108 1.699 20.03 20.03 0 0 1-2.04 2.399c-.26.266-.527.527-.804.775l-6.503-3.319c.484-1.599 1.125-3.286 2.501-4.185a4.34 4.34 0 0 1 1.677-.622c.945-.142 1.952-.027 2.888.203 1.448.353 2.818.973 4.062 1.8"/>
        <path fill="#4CC1C2" d="M34.79 29.95c1.447.354 2.816.973 4.06 1.8-.208.426-.432.842-.672 1.25-.34.586-.71 1.153-1.108 1.699-1.727-2.253-3.925-4.022-6.531-4.513a4.341 4.341 0 0 1 1.362-.439c.945-.142 1.952-.027 2.888.203"/>
        <path fill="#A5DEF8" d="M24.907 25.89a11.902 11.902 0 0 1-1.827 3.568 11.772 11.772 0 0 1-4.474 3.59 6.428 6.428 0 0 0-.35-4.343h.016c2.544.128 4.043-2.535 5.493-4.487.27.492.578.972.948 1.439.06.072.121.149.185.221l.009.012"/>
        <path fill="#FEFEFE" d="M18.95 33.008c.076.277.132.55.106.794-.032.296-.22.537-.303.816-.213.709-.245 1.495-.226 2.23.04 1.493.328 2.984.178 4.479a67.02 67.02 0 0 1-2.41-4.366c-.162-.32-.323-.644-.411-.992-.21-.822 0-1.71.399-2.454.398-.745.971-1.373 1.539-1.993.81-.884.986.98 1.127 1.486M29.436 27.812a4.229 4.229 0 0 0-.333-.244c-.477-.313-.945-.09-1.391.2-1.76 1.146-3.588 2.22-5.157 3.639-1.118 1.01-2.653 2.348-2.862 3.959-.125.965.568 1.799.946 2.63.527 1.16.952 2.372 1.205 3.626-.047-.25 1.26-1.104 1.475-1.305 2.856-2.68 5.027-5.945 7.43-9.031.242-.312.61-.594.71-.996.14-.558-.59-1.113-.927-1.444-.345-.34-.707-.721-1.096-1.034"/>
        <path fill="#CEF" d="M28.825 11.88c-.356.25-.633.576-.716 1.055-.599 3.548-1.002 4.96-2.532 8.341-.206.452-.395.898-.588 1.345-.302.7-.6 1.393-.942 2.08-.094.19-.19.378-.292.567-.488.903-1.052 1.908-1.736 2.705l-.13.145a3.231 3.231 0 0 1-1.403.9h-.003c-.08.025-.157.05-.24.069l-.075.016a4.158 4.158 0 0 1-1.741.014 4.214 4.214 0 0 1-.334-.077c-1.052-.284-1.984-.972-2.724-1.793a17.96 17.96 0 0 1-2.049-2.814 34.557 34.557 0 0 1-1.522-2.855 38.963 38.963 0 0 1-1.55-3.74 34.297 34.297 0 0 1-.723-2.294 72.516 72.516 0 0 1-.484-1.843c-.192-.774-.088-1.522.113-2.228a5.44 5.44 0 0 1 1.25-.882c1.156-.618 2.708-.777 4.08-.985.3-.047.593-.107.89-.184.903-.235 1.77-.594 2.64-.955 1.073-.449 2.146-.898 3.284-1.114 1.856-.35 3.996.15 5.513 1.35.2.155.392.328.569.509.707.728 1.156 1.661 1.445 2.669"/>
        <path fill="#0D2E4E" d="M20.693 16.525l.232.455-9.127 4.89c.524 1.211.703 1.875.406 2.018-.34.164-.793-.598-1.513-2.152l-.1-.217c-.778-1.7-1.103-2.614-.747-2.785.355-.17.834.67 1.612 2.37l.136.299 9.101-4.878z"/>
        <path fill="#0D2E4E" d="M29.049 20.077c0 .003-.003.006-.003.006-.04.161-.09.323-.147.482-.366 1.037-1.239 1.962-2.248 2.239a2.217 2.217 0 0 1-1.662-.183 2.911 2.911 0 0 1-.35-.225c-.04-.03-.077-.06-.12-.098-.673-.337-1.49-1.476-.996-2.09.126-.153.334-.205.502-.309.574-.358.577-1.212.412-1.88-.102-.4-.238-.8-.487-1.128-.248-.329-.62-.578-1.025-.594-.617-.025-1.186.59-1.127 1.223-.938-.613-1.063-2.121-2.068-2.614-.56-.274-1.236-.129-1.808.134-.956.435-1.76 1.172-2.66 1.722-.964.591-2.078 1.032-3.192 1.18a4.527 4.527 0 0 1-.486.041 4.017 4.017 0 0 1-1.335-.145 2.393 2.393 0 0 1-1.007-.559c-.879-.84-1.05-2.206-1.09-3.375-.037-1.076.406-1.856 1.002-2.431a5.435 5.435 0 0 1 1.25-.882c1.156-.618 2.708-.777 4.08-.985.3-.047.594-.107.89-.184.903-.235 1.77-.594 2.639-.955 1.074-.45 2.147-.898 3.285-1.114 1.857-.35 3.996.15 5.513 1.35.2.155.393.328.569.509.707.728 1.156 1.661 1.445 2.669.339 1.177.454 2.453.504 3.602.067 1.506.123 3.121-.28 4.594"/>
        <path fill="#FEFEFE" fill-rule="nonzero" d="M27.823 34.473l-.477-.152c.669-2.213 1.368-3.518 2.605-4.325a4.442 4.442 0 0 1 1.49-.609c.977-.204 2.082-.135 3.267.154 1.516.37 2.97 1.03 4.306 1.946l-.278.426a12.644 12.644 0 0 0-4.143-1.874c-1.12-.273-2.155-.337-3.05-.15a3.956 3.956 0 0 0-1.321.538c-1.11.724-1.762 1.94-2.399 4.046z"/>
        <path fill="#0D2E4E" d="M21.104 26.728a6.06 6.06 0 0 1-.052.452c-.084.57-.292 1.3-.578 1.857-.694.168-1.413.211-2.112.069a3.307 3.307 0 0 1-.27-.066c.236-.592.37-1.392.464-2.005.07-.422.116-.843.171-1.255.015-.097.03-.2.087-.274.067-.087.176-.125.275-.153.577-.17 1.782-.48 1.978.249.077.285.07.734.037 1.126"/>
        <path fill="#FED364" d="M32.103 17.745c-.182 1.92-.849 3.73-1.926 5.237-.961 1.343-2.95 2.48-5.903 3.385-.98.298-2.054.563-3.188.789-.19.038-.38.077-.57.118-.311.065-.633.133-.955.187a6.795 6.795 0 0 1-1.113.112 4.19 4.19 0 0 1-1.29-.18 2.9 2.9 0 0 1-.337-.128c-1.081-.47-1.914-1.505-2.35-2.92-.376-1.243-.21-2.63-.074-3.748.037-.31.087-.621.135-.932.119-.778.243-1.582.176-2.367-.085-.973-.572-2.147-1.686-2.522-.415-.145-.857-.124-1.323-.104-.589.028-1.194.056-1.752-.264a3.024 3.024 0 0 1-.335-.222c-.894-.648-1.223-1.576-.954-2.686.267-1.078 1.017-2.04 1.441-2.517l.03-.031a.542.542 0 0 1 .067-.072 13.059 13.059 0 0 1 2.754-2.314 12.734 12.734 0 0 1 7.208-1.95c1.261.042 2.507.268 3.696.671a13.11 13.11 0 0 1 5.027 3.159c.7.708 1.306 1.52 1.802 2.413.476.862.841 1.784 1.088 2.738.357 1.37.468 2.766.332 4.148"/>
        <path fill="#D91D42" d="M32.14 17.281c-.137-.04-.267-.06-.378-.157a.996.996 0 0 1-.23-.331 2.492 2.492 0 0 1-.111-.295l-.684-2.105c-.146-.447-.291-.897-.365-1.364-.137-.861.068-1.603.384-2.036a12.048 12.048 0 0 1 1.383 6.288"/>
        <path fill="#D7D7D7" d="M16.978 19.648c-.75 1.637-.145 3.094.358 4.696.117.385.22.793.108 1.178-.11.385-.42.674-.718.934a18.898 18.898 0 0 1-3.206 2.232c-.201.113-.42.225-.652.205-.732-.047-1.252-.882-1.675-1.408a23.835 23.835 0 0 1-1.477-2.045c-.015-.021-.024-.04-.04-.062-.908-1.436-1.644-3.003-2.054-4.672-.047-.185-.083-.369-.125-.553a14.033 14.033 0 0 1-.296-3.21c.032-1.78.415-3.543 1.196-5.182.458-.97.552 1.043 1.185 1.432.04.024.078.048.118.066.237.113.489.16.746.17.174 0 .344-.013.515-.038.429-.064.854-.19 1.248-.264.579-.11 1.395-.2 2.26-.203 2.277-.016 4.87.585 4.3 3.17-.296 1.33-1.242 2.35-1.79 3.554" opacity=".585"/>
        <path fill="#FEFEFE" d="M18.294 16.04c-.161.875-.984 1.45-1.837 1.285-.853-.165-1.414-1.008-1.253-1.882.161-.875.983-1.45 1.837-1.285.853.165 1.414 1.008 1.253 1.882"/>
        <path fill="#FCFCFC" d="M14.469 12.924c-.15.226-.263.4-.295.458a51.827 51.827 0 0 0-1.292 2.553c-1.404 2.992-2.644 6.192-3.166 9.504-.015-.02-.024-.04-.04-.06-.908-1.437-1.644-3.004-2.054-4.673-.047-.185-.083-.369-.125-.553a32.204 32.204 0 0 1 3.464-6.762c.429-.064.854-.19 1.248-.264.579-.11 1.395-.2 2.26-.203" opacity=".646"/>
        <path fill="#F2F5F3" fill-rule="nonzero" d="M21 41.975c10.493 0 19-8.72 19-19.475 0-10.756-8.507-19.475-19-19.475S2 11.745 2 22.5c0 10.756 8.507 19.475 19 19.475zm0 1.035C9.949 43.01.99 33.827.99 22.5.99 11.173 9.949 1.99 21 1.99c11.051 0 20.01 9.183 20.01 20.51 0 11.327-8.959 20.51-20.01 20.51z"/>
    </g>
</svg>
