<svg xmlns="http://www.w3.org/2000/svg" width="32" height="33" viewBox="0 0 32 33">
    <g fill="#131DF5" fill-rule="evenodd">
        <path d="M18.13 27.505c0 1.01-.727 1.83-1.621 1.83s-1.622-.82-1.622-1.83v-3.017c0-1.009.728-1.83 1.622-1.83.894 0 1.621.821 1.621 1.83v3.017zm2.785-4.358c-.456 2.087-.932 2.444-1.246 2.53-.237.064-.445-.138-.445-.372l-.03-1.33c0-.21-.02-.414-.055-.612-.01-.052-.02-.105-.032-.155l-.002-.008a3.575 3.575 0 0 0-.211-.593l-.023.04c-.412-.958-1.22-1.664-2.201-1.775-.081-.009-.165 0-.247-.002-.083.002-.167-.007-.248.002l.004-.003h-.033c-1.17.125-2.098 1.094-2.406 2.33l-.002.009c-.012.05-.021.103-.032.155a3.539 3.539 0 0 0-.055.612l-.03 1.33c0 .234-.208.436-.444.371-.315-.085-.791-.442-1.247-2.53-.456-2.086-.882-4.46-.811-5.768a3.947 3.947 0 0 1 .442-1.743L1.337 9.88a16.818 16.818 0 0 0-1.334 6.9c.164 9.081 7.462 16.33 16.268 16.161 5.428-.105 10.18-3.005 12.99-7.341l-7.938-4.469a61.193 61.193 0 0 1-.408 2.016zM16.422 11.998c1.041.024 1.763-.726 1.856-1.68.136-1.388-.827-1.754-1.833-1.755-.956 0-1.882.503-1.82 1.719.055 1.085.873 1.74 1.797 1.716"/>
        <path d="M31.942 16.165C31.778 7.084 24.48-.167 15.674.003 10.093.11 5.226 3.173 2.451 7.715l10.652 5.996a12.262 12.262 0 0 1 1.449-1.096c-.717-.641-1.068-1.224-1.103-1.92l-1.984-.005a.83.83 0 0 1-.815-.858.829.829 0 0 1 .826-.826l1.942.022-1.616-2.405a1.303 1.303 0 0 1-.982.174c-.692-.139-1.184-.734-1.099-1.33.086-.596.717-.966 1.41-.826.433.087.788.353.972.686l1.893 2.698c.43-.45 1.17-.86 2.357-.869.004 0 .011-.003.011-.003l.036.002.035-.002c.11.002.214.007.316.015l.027.002c1.039.08 1.676.47 2.05.882l1.952-2.78c.192-.307.526-.55.935-.631.692-.14 1.323.23 1.409.826.085.596-.406 1.191-1.099 1.33-.365.074-.71.003-.97-.165l-1.608 2.395 1.876-.021a.829.829 0 0 1 .826.826.83.83 0 0 1-.815.858l-1.983.005c-.036.696-.387 1.279-1.104 1.92 1.143.748 3.456 2.326 3.48 4.675v.088c.017.33.003.726-.034 1.168l8.738 4.92a16.804 16.804 0 0 0 1.511-7.301"/>
    </g>
</svg>
