<svg xmlns="http://www.w3.org/2000/svg" width="32" height="32" viewBox="0 0 32 32">
    <g fill="#131DF5" fill-rule="evenodd">
        <path d="M21.247 17.008c.73 0 1.41.39 1.775 1.017l5.775 9.926c.01.018.022.035.032.051.23.336.35.728.35 1.134 0 1.121-.919 2.033-2.055 2.033H15.37c-.73 0-1.41-.389-1.775-1.016a2.022 2.022 0 0 1 0-2.032l5.877-10.096a2.06 2.06 0 0 1 1.775-1.017zm.003 10.952c-.665 0-1.206.536-1.206 1.196 0 .66.54 1.196 1.206 1.196.625 0 1.138-.47 1.2-1.074l.006-.122a1.2 1.2 0 0 0-1.206-1.196zm.007-9.03h-.002c-.56 0-1.015.45-1.016 1.005l-.01 5.347a1.012 1.012 0 0 0 1.013 1.008h.003c.56 0 1.015-.45 1.016-1.005l.01-5.347a1.01 1.01 0 0 0-1.014-1.009zM7.187 2.364C9.193.743 11.694.078 14.421.442c.44.059.874.14 1.293.242 2.631.64 4.36 2.007 5.435 3.208-1.717.623-4.006 1.797-5.092 3.833-.76 1.425-.812 3.021-.152 4.746 1.137 2.971 1.22 5.404.245 7.04-.07.1-.132.208-.206.302-.826 1.038-1.892 1.612-3.001 1.617a8.177 8.177 0 0 1-1.96-.233c-4.597-1.119-8.17-6.036-7.802-10.74C3.44 7.164 4.9 4.214 7.187 2.364zm3.94 13.17a1.542 1.542 0 1 0 1.955 2.385 1.542 1.542 0 0 0-1.955-2.386z"/>
        <path d="M22.803 5.405c-1.995.474-4.12 1.472-5.054 3.224-.37.692-.507 1.236-.368 1.982l.039.183 5.412-1.292 1.508-.361s.495-.152.735-.23c.633-.188 1.603-.624 1.73-1.32.214-1.182-4.002-2.186-4.002-2.186"/>
    </g>
</svg>
