<svg xmlns="http://www.w3.org/2000/svg" width="32" height="24" viewBox="0 0 32 24">
    <g fill="none" fill-rule="evenodd">
        <path fill="#96A2CE" d="M9.438 8.234c0 .198-.167.359-.372.359H7.933a.365.365 0 0 1-.37-.36V7.012c0-.198.165-.36.37-.36h1.133c.205 0 .371.162.371.36v1.223zm0 3.957c0 .198-.167.359-.372.359H7.933a.365.365 0 0 1-.37-.36v-1.222c0-.199.165-.36.37-.36h1.133c.205 0 .371.161.371.36v1.223zm0 4.242a.366.366 0 0 1-.372.358H7.933a.365.365 0 0 1-.37-.358v-1.224c0-.198.165-.359.37-.359h1.133c.205 0 .371.16.371.36v1.223zM11.524 2a1.49 1.49 0 0 0-.992.374L8.465 3.728 6.617 2.396A1.494 1.494 0 0 0 5.601 2H2.875C1.844 2 1 2.817 1 3.818V20.18c0 1.004.84 1.818 1.875 1.818h2.677c.403 0 .788-.16 1.065-.445l1.941-1.633 1.88 1.61a1.49 1.49 0 0 0 1.087.468h17.598c1.036 0 1.875-.814 1.875-1.818V3.818C30.998 2.814 30.16 2 29.123 2H11.525z"/>
        <path fill="#FFF" d="M14.632 8.642c0-1.388 1.165-2.518 2.597-2.518s2.598 1.13 2.598 2.518c0 1.389-1.166 2.518-2.598 2.518s-2.597-1.129-2.597-2.518z"/>
        <path fill="#FFF" stroke="#FFF" stroke-width=".2" d="M16.531 17.092l-.004-.003a.944.944 0 0 1-.098-1.331l7.428-8.651a1.015 1.015 0 0 1 1.442-.088.941.941 0 0 1 .086 1.321l-7.422 8.655a1.015 1.015 0 0 1-1.432.097z"/>
        <path fill="#FFF" d="M24.734 17.875c-1.432 0-2.597-1.13-2.597-2.518 0-1.387 1.165-2.518 2.597-2.518s2.597 1.131 2.597 2.518c0 1.388-1.165 2.518-2.597 2.518z"/>
        <path fill="#96A2CE" d="M24.734 14.518a.853.853 0 0 0-.866.84c0 .464.387.839.866.839a.851.851 0 0 0 .865-.84.852.852 0 0 0-.865-.84M17.23 7.803a.852.852 0 0 0-.866.839c0 .464.386.84.865.84a.853.853 0 0 0 .866-.84.853.853 0 0 0-.866-.84"/>
    </g>
</svg>
