<svg xmlns="http://www.w3.org/2000/svg" width="30" height="30" viewBox="0 0 30 30">
    <g fill="#131DF5" fill-rule="evenodd">
        <path d="M19.89.709v4.493h4.744a2.153 2.153 0 0 0-.304-.358L19.89.709z"/>
        <path d="M14.931 10.118h-8.93a.963.963 0 0 1-.963-.96c0-.532.431-.962.964-.962h8.93c.532 0 .963.43.963.961 0 .53-.431.961-.964.961m-4.96 4.943H6a.962.962 0 0 1-.963-.96c0-.532.431-.96.964-.96H9.97c.533 0 .966.428.966.96a.963.963 0 0 1-.966.96m0 10.876H6.002a.962.962 0 0 1-.964-.96c0-.531.431-.96.964-.96H9.97c.533 0 .966.429.966.96 0 .531-.433.96-.966.96M6.002 3.252h6.944c.533 0 .965.43.965.96 0 .532-.432.962-.965.962H6.002a.963.963 0 0 1-.964-.961c0-.53.431-.961.964-.961m18.85 3.658H19.89a1.711 1.711 0 0 1-1.715-1.708V.259c0-.056.02-.106.025-.158H4.018a2.14 2.14 0 0 0-2.143 2.135v24.719a2.14 2.14 0 0 0 2.143 2.136h13.281a8.617 8.617 0 0 1-1.94-3.067c-.783-2.118-.739-4.388-.708-6.057a12.264 12.264 0 0 0 .014-.434 3.17 3.17 0 0 1 2.99-3.103c1.177-.066 1.999-.406 2.75-1.135l.047-.045a2.605 2.605 0 0 1 3.514 0l.048.045c.31.302.64.522.996.7V6.887c-.055.005-.104.023-.159.023"/>
        <path d="M25.62 22.738l-2.928 2.905a.963.963 0 0 1-1.261.087l-1.867-1.403a.96.96 0 0 1-.19-1.346.968.968 0 0 1 1.352-.19l1.199.902 2.334-2.316a.966.966 0 0 1 1.364.003.957.957 0 0 1-.003 1.358m2.432-2.742v-.012c-.006-.13-.01-.27-.012-.426a1.456 1.456 0 0 0-1.373-1.423c-1.583-.088-2.806-.601-3.85-1.617l-.01-.008a.88.88 0 0 0-1.196 0l-.01.008c-1.045 1.016-2.268 1.53-3.85 1.618a1.455 1.455 0 0 0-1.372 1.423 12.21 12.21 0 0 1-.013.425v.026c-.03 1.607-.07 3.607.602 5.423a6.9 6.9 0 0 0 1.662 2.58c.836.812 1.929 1.457 3.252 1.917a1.064 1.064 0 0 0 .327.056.999.999 0 0 0 .328-.057c1.32-.46 2.414-1.105 3.247-1.917a6.912 6.912 0 0 0 1.663-2.581c.674-1.821.635-3.826.605-5.435"/>
    </g>
</svg>
