<svg xmlns="http://www.w3.org/2000/svg" width="32" height="32" viewBox="0 0 32 32">
    <g fill="#131DF5" fill-rule="evenodd">
        <path d="M11.267 23.706c-1.219 0-2.21 1.086-2.21 2.42v3.226c0 1.334.991 2.42 2.21 2.42 1.219 0 2.21-1.086 2.21-2.42v-3.226c0-1.334-.991-2.42-2.21-2.42"/>
        <path d="M11.148 9.765c-1.26.032-2.375-.833-2.45-2.268-.084-1.608 1.178-2.273 2.482-2.273 1.372.001 2.684.486 2.499 2.322-.128 1.26-1.11 2.251-2.53 2.219m3.339 14.08l3.839-6.65a6.907 6.907 0 0 0-.01-.316c-.032-3.105-3.122-5.308-4.68-6.297.977-.849 1.456-1.619 1.504-2.54l2.704-.005a1.113 1.113 0 1 0-.014-2.227l-2.786.03c.044-.536-.687-2.254-3.41-2.457l-.038-.003a7.172 7.172 0 0 0-.431-.02c-.017 0-.032.003-.048.003l-.048-.002-.015.004c-2.95.022-3.93 1.79-3.865 2.475l-2.785-.03a1.114 1.114 0 1 0-.015 2.227l2.705.006c.048.92.527 1.69 1.503 2.539-1.557.989-4.647 3.192-4.68 6.297-.096 1.73.484 4.867 1.106 7.626.621 2.758 1.271 3.23 1.7 3.344.323.085.606-.182.606-.491l.04-1.758c0-.277.029-.547.076-.81.014-.068.026-.138.043-.205l.003-.01c.42-1.636 1.684-2.917 3.28-3.081.243-.025.481-.02.714.003 1.339.147 2.44 1.081 3.002 2.348M24.375 26.604a1.188 1.188 0 1 1-2.377 0 1.188 1.188 0 0 1 2.377 0zm-2.184-9.163a1 1 0 0 1 1-.999h.003a1 1 0 0 1 .998 1.003l-.01 5.313a1 1 0 0 1-1 .999h-.003c-.552-.002-1-.45-.999-1.003l.01-5.313zm8.33 8.108a.827.827 0 0 1-.038-.061l-5.692-9.864a1.863 1.863 0 0 0-1.608-.928 1.86 1.86 0 0 0-1.607.928l-5.792 10.033a1.86 1.86 0 0 0 0 1.857c.33.572.947.928 1.608.928h11.583a1.86 1.86 0 0 0 1.547-2.893z"/>
        <path d="M13.938 5.228L17.226.685l.973.926-3.428 4.952z"/>
        <path d="M20.285 1.131c.117.788-.553 1.575-1.497 1.76-.944.183-1.805-.306-1.921-1.093-.117-.788.553-1.575 1.497-1.76.944-.183 1.804.306 1.921 1.093M8.358 5.228L5.07.685l-.975.885 3.263 4.708z"/>
        <path d="M2.013 1.131c-.117.788.554 1.575 1.498 1.76.944.183 1.804-.306 1.921-1.093.117-.788-.554-1.575-1.498-1.76-.944-.183-1.804.306-1.92 1.093"/>
    </g>
</svg>
