<svg xmlns="http://www.w3.org/2000/svg" width="30" height="20" viewBox="0 0 30 20">
    <g fill="none" fill-rule="evenodd">
        <path d="M-1-2h32v24H-1z"/>
        <path fill="#FFF" d="M4.601 0c.378 0 .743.142 1.016.396l1.848 1.332L9.533.374c.27-.241.624-.374.992-.374h17.598c1.036 0 1.875.814 1.875 1.818V18.18c0 1.004-.839 1.818-1.875 1.818H10.525c-.414 0-.81-.17-1.088-.468l-1.879-1.61-1.94 1.633a1.488 1.488 0 0 1-1.066.445H1.875C.84 19.998 0 19.184 0 18.18V1.818C0 .818.844 0 1.875 0zm19.133 10.839c-1.432 0-2.597 1.131-2.597 2.518 0 1.388 1.165 2.518 2.597 2.518s2.597-1.13 2.597-2.518c0-1.387-1.165-2.518-2.597-2.518zm.565-5.82a1.015 1.015 0 0 0-1.442.088l-7.428 8.651a.944.944 0 0 0 .098 1.331 1.017 1.017 0 0 0 1.436-.094l7.422-8.655a.941.941 0 0 0-.086-1.321zM8.066 12.85H6.933c-.205 0-.37.16-.37.36v1.223c0 .197.165.358.37.358h1.133c.205 0 .371-.161.371-.358v-1.224a.366.366 0 0 0-.37-.359zm0-4.242H6.933c-.205 0-.37.161-.37.36v1.223c0 .198.165.359.37.359h1.133c.205 0 .371-.16.371-.36V8.969c0-.199-.166-.36-.37-.36zm8.163-4.484c-1.432 0-2.597 1.13-2.597 2.518 0 1.389 1.165 2.518 2.597 2.518s2.598-1.129 2.598-2.518c0-1.388-1.166-2.518-2.598-2.518zm-8.163.528H6.933c-.205 0-.37.16-.37.359v1.223c0 .198.165.359.37.359h1.133c.205 0 .371-.161.371-.36V5.012a.366.366 0 0 0-.37-.36z"/>
        <path fill="#FFF" d="M23.734 12.518a.853.853 0 0 0-.866.84c0 .464.387.839.866.839a.851.851 0 0 0 .865-.84.852.852 0 0 0-.865-.84M16.23 5.803a.852.852 0 0 0-.866.839c0 .464.386.84.865.84a.853.853 0 0 0 .866-.84.853.853 0 0 0-.866-.84"/>
    </g>
</svg>
