<svg xmlns="http://www.w3.org/2000/svg" width="32" height="32" viewBox="0 0 32 32">
    <g fill="#131DF5" fill-rule="evenodd">
        <path d="M1.69 3.6V2a2 2 0 0 1 2-2h14.62a2 2 0 0 1 2 2v1.6H1.69zM16.057 24.717c-1.056-.562-1.337-3.236 1.126-3.448 0 0 2.674-.281 3.448-.352.914-.083-.345-2.5.395-4.513.312-.852.988-1.404 1.619-1.404.56 0 1.087.436 1.293 1.485.578 2.937 2.046 4.51 2.915 5.212.425.343.674.852.674 1.398v6.422c0 .784-.512 1.485-1.262 1.716a17.81 17.81 0 0 1-5.141.767c-.328 0-.64-.01-.927-.027-4.773-.29-5.125-3.175-4.14-3.948-1.618-.915-.914-3.167 0-3.308"/>
        <path d="M11 18.586a5.793 5.793 0 1 0-.001-11.587A5.793 5.793 0 0 0 11 18.586zM20.311 5.4v8.84c-.414.418-.754.94-.976 1.544-.46 1.253-.378 2.53-.269 3.48-.976.099-2.035.21-2.037.212-1.806.155-3.135 1.264-3.47 2.895a3.953 3.953 0 0 0 .172 2.155 3.958 3.958 0 0 0-.367 1.074H1.689V5.4h18.622z"/>
        <path d="M17.183 21.269s2.117-.223 3.128-.321V25.6h-5.086c.17-.472.485-.83.832-.883-1.056-.562-1.337-3.236 1.126-3.448M15.411 27.4h4.9V30c0 .827-.503 1.536-1.219 1.84-3.707-.635-3.937-3.108-3.035-3.816a1.838 1.838 0 0 1-.646-.624M13.453 27.4c.1.348.234.683.43.983a3.582 3.582 0 0 0 .097 1.773c.14.445.465 1.163 1.192 1.844H3.69a2 2 0 0 1-2-2v-2.6h11.764zM12.93 10.24a1.08 1.08 0 1 1 0 2.155 1.08 1.08 0 0 1 0-2.155M9.07 10.24a1.08 1.08 0 1 1-.003 2.159 1.08 1.08 0 0 1 .002-2.159M8.487 13.432a.748.748 0 0 1 .582-.277h3.861a.751.751 0 0 1 .73.929c-.325 1.314-1.402 2.187-2.688 2.187l-.05-.001c-1.275-.023-2.315-.911-2.587-2.212a.748.748 0 0 1 .152-.626M30.5 31.105a1.5 1.5 0 0 0 1.5-1.5v-6.5a1.5 1.5 0 1 0-3 0v6.5a1.5 1.5 0 0 0 1.5 1.5"/>
    </g>
</svg>
