<svg width="19" height="11" viewBox="0 0 19 11" fill="none" xmlns="http://www.w3.org/2000/svg">
    <path d="M17.6866 3.28662C17.7936 3.28662 17.8968 3.29809 18 3.31338V0.573248C18 0.256051 17.744 0 17.4268 0H0.573249C0.256051 0 0 0.256051 0 0.573248V3.29427C0.0535032 3.29045 0.103185 3.28662 0.156688 3.28662C1.28026 3.28662 2.18981 4.19618 2.18981 5.31975C2.18981 6.44331 1.28026 7.35287 0.156688 7.35287C0.103185 7.35287 0.0535032 7.34904 0 7.34522V10.0662C0 10.3834 0.256051 10.6395 0.573249 10.6395H17.4306C17.7478 10.6395 18.0038 10.3834 18.0038 10.0662V7.32612C17.9006 7.3414 17.7975 7.35287 17.6905 7.35287C16.5669 7.35287 15.6573 6.44331 15.6573 5.31975C15.6573 4.19618 16.5631 3.28662 17.6866 3.28662ZM12.2981 9.87898C11.7554 9.87898 11.3159 9.43949 11.3159 8.89682C11.3159 8.35414 11.7554 7.91465 12.2981 7.91465C12.8408 7.91465 13.2803 8.35414 13.2803 8.89682C13.2803 9.43949 12.8408 9.87898 12.2981 9.87898ZM12.2981 6.30573C11.7554 6.30573 11.3159 5.86624 11.3159 5.32357C11.3159 4.78089 11.7554 4.3414 12.2981 4.3414C12.8408 4.3414 13.2803 4.78089 13.2803 5.32357C13.2803 5.86624 12.8408 6.30573 12.2981 6.30573ZM12.2981 2.73248C11.7554 2.73248 11.3159 2.29299 11.3159 1.75032C11.3159 1.20764 11.7516 0.764331 12.2981 0.764331C12.8446 0.764331 13.2803 1.20382 13.2803 1.7465C13.2803 2.28917 12.8408 2.73248 12.2981 2.73248Z" fill="white"/>
</svg>
