<svg xmlns="http://www.w3.org/2000/svg" width="32" height="24" viewBox="0 0 32 24">
    <g fill="none" fill-rule="evenodd">
        <path fill="#54CDA1" d="M9.438 8.234c0 .198-.167.359-.372.359H7.933a.365.365 0 0 1-.37-.36V7.012c0-.198.165-.36.37-.36h1.133c.205 0 .371.162.371.36v1.223zm0 3.957c0 .198-.167.359-.372.359H7.933a.365.365 0 0 1-.37-.36v-1.222c0-.199.165-.36.37-.36h1.133c.205 0 .371.161.371.36v1.223zm0 4.242a.366.366 0 0 1-.372.358H7.933a.365.365 0 0 1-.37-.358v-1.224c0-.198.165-.359.37-.359h1.133c.205 0 .371.16.371.36v1.223zM11.524 2a1.49 1.49 0 0 0-.992.374L8.465 3.728 6.617 2.396A1.494 1.494 0 0 0 5.601 2H2.875C1.844 2 1 2.817 1 3.818V20.18c0 1.004.84 1.818 1.875 1.818h2.677c.403 0 .788-.16 1.065-.445l1.941-1.633 1.88 1.61a1.49 1.49 0 0 0 1.087.468h17.598c1.036 0 1.875-.814 1.875-1.818V3.818C30.998 2.814 30.16 2 29.123 2H11.525z"/>
        <path fill="#FFF" d="M27.538 7.64a1.233 1.233 0 0 0-.88-.405 1.28 1.28 0 0 0-.908.343l-7.407 7.064-3.207-3.312a1.259 1.259 0 0 0-1.708-.086 1.17 1.17 0 0 0-.094 1.722l4.078 4.198c.228.24.54.376.876.383h.03c.325 0 .63-.12.862-.342l8.298-7.924a1.17 1.17 0 0 0 .06-1.64"/>
    </g>
</svg>
