<svg xmlns="http://www.w3.org/2000/svg" width="20" height="20" viewBox="0 0 20 20">
    <path fill="#F1F1F1" fill-rule="evenodd" d="M9.16 13.81l.066-.002c.257-.019.496-.137.664-.33l4.828-5.543c.352-.403.31-1.015-.093-1.367-.402-.349-1.015-.309-1.368.095l-4.192 4.811-2.605-2.27c-.402-.35-1.015-.31-1.367.094-.352.403-.31 1.015.093 1.366l3.337 2.907c.177.154.404.239.637.239M10 1.667c4.602 0 8.333 3.731 8.333 8.333 0 4.603-3.731 8.333-8.333 8.333-4.603 0-8.333-3.73-8.333-8.333 0-4.602 3.73-8.333 8.333-8.333"/>
</svg>
