<svg xmlns="http://www.w3.org/2000/svg" width="24" height="24" viewBox="0 0 24 24">
    <path fill="#141414" fill-rule="evenodd" d="M13.817 2.71l.993.921 1.377-.187c1.408-.195 2.707.728 2.957 2.093l.233 1.276 1.205.613c.613.312 1.069.835 1.284 1.471.219.645.167 1.338-.144 1.95l-.588 1.152.588 1.153c.311.612.363 1.304.144 1.95-.215.636-.672 1.16-1.284 1.471l-1.205.613-.233 1.274c-.25 1.366-1.551 2.285-2.958 2.094l-1.376-.187-.993.922c-.494.46-1.139.711-1.817.711-.678 0-1.324-.252-1.817-.71l-.993-.923-1.377.187c-1.412.194-2.711-.749-2.957-2.093l-.233-1.275-1.206-.614c-.612-.312-1.068-.834-1.284-1.47-.218-.646-.167-1.338.145-1.95L2.865 12l-.587-1.152c-.312-.612-.363-1.304-.145-1.95.216-.636.672-1.159 1.285-1.47l1.205-.614.233-1.275c.25-1.365 1.547-2.288 2.957-2.094l1.377.187.993-.922c1.019-.945 2.616-.946 3.634 0zM15.494 6H8.615C8.275 6 8 6.276 8 6.615v.12c0 .34.276.615.615.615h1.973c1.43 0 2.353.6 2.554 1.739H8.506c-.28 0-.506.226-.506.506s.227.506.506.506h4.636c-.192 1.156-1.072 1.739-2.484 1.739H8.615c-.34 0-.615.275-.615.615v.455c0 .173.073.338.2.454l4.887 4.475c.114.103.262.161.416.161h.815c.115 0 .225-.048.302-.133.152-.167.14-.426-.026-.578l-4.485-4.09h.697c2.519-.01 3.721-1.562 3.957-3.098h.73c.28 0 .507-.226.507-.506s-.227-.506-.506-.506h-.714c-.096-.912-.497-1.604-1.142-2.076h1.856c.28 0 .506-.227.506-.507S15.773 6 15.494 6z"/>
</svg>
