<svg xmlns="http://www.w3.org/2000/svg" width="95" height="75" viewBox="0 0 95 75">
    <g fill="none" fill-rule="evenodd">
        <path fill="#007F48" d="M61.353 22.887c-11.216 2.96-10.059-1.528-22.983-15.292C30.818-.448 7.418-7.225 4.53 15.453c-7.153 56.155 60.3 65.553 77.501 49.542 20.14-18.744 8.013-49.684-20.677-42.108"/>
        <path fill="#FFF" d="M21.509 53.576h5.232v3.057h-5.232v5.962H18.26v-5.962H13v-3.057h5.26V48h3.249z"/>
        <path fill="#123629" d="M52.097 7.504c-3.48 0-6.313 2.785-6.266 6.267v54.704c0 3.434 3.785 6.266 7.266 6.266H74.54c3.436 0 7.267-2.785 7.267-6.266V13.77c0-3.435-2.785-6.267-6.267-6.267H52.097z"/>
        <path fill="#8AAEA1" d="M73.535 9.457h-3.409c0 .93-.752 1.948-1.682 1.948h-8.853c-.93 0-1.683-1.017-1.683-1.947h-3.895c-3.409 0-6.065 1.593-6.065 5.045l-.133 51.662c0 3.453 2.79 5.622 6.198 5.622h19.522c3.41 0 6.198-2.169 6.198-5.622V14.503c0-3.452-2.789-5.046-6.198-5.046"/>
        <path fill="#141414" d="M51.268 16.054c0-.044-.044-.09-.088-.09h-.664c-.045 0-.089.046-.089.09s.044.088.09.088h.663c.044.044.088 0 .088-.088M50.516 15.035H51.71c.044 0 .089-.044.089-.133 0-.044-.045-.088-.133-.088h-1.151c-.044 0-.09.044-.09.088-.043.09 0 .133.09.133M52.242 15.39h-1.727a.095.095 0 0 0-.088.088c0 .045.044.089.088.089h1.727c.044 0 .088-.044.088-.09a.095.095 0 0 0-.088-.087"/>
        <path fill="#AACEC0" d="M77.987 67.726h-28.36a.947.947 0 0 1-.945-.945V32.003c0-.52.425-.945.945-.945h28.36c.52 0 .945.425.945.945V66.78c0 .52-.426.945-.946.945"/>
        <path fill="#D0D0D0" d="M61.491 37.217c0-.147-.01-.271-.03-.371a.706.706 0 0 0-.092-.243.345.345 0 0 0-.146-.134.464.464 0 0 0-.198-.041.465.465 0 0 0-.199.04.345.345 0 0 0-.146.135.706.706 0 0 0-.09.243c-.02.1-.032.224-.032.37v.613c0 .146.011.27.032.372a.742.742 0 0 0 .092.249.357.357 0 0 0 .147.14.443.443 0 0 0 .2.044.435.435 0 0 0 .2-.044.357.357 0 0 0 .143-.14.743.743 0 0 0 .09-.25c.02-.1.03-.225.03-.371v-.612zm.484.542c0 .23-.023.425-.067.585-.046.16-.11.29-.192.39a.726.726 0 0 1-.298.219 1.07 1.07 0 0 1-.389.068c-.142 0-.272-.023-.389-.068a.742.742 0 0 1-.3-.218 1.061 1.061 0 0 1-.195-.391 2.142 2.142 0 0 1-.069-.585v-.468c0-.23.022-.425.068-.584.045-.16.11-.288.192-.387a.707.707 0 0 1 .3-.215c.117-.044.246-.065.39-.065a1.1 1.1 0 0 1 .39.065.707.707 0 0 1 .3.215c.082.099.146.228.192.387.044.159.067.354.067.584v.468zM63.81 37.217c0-.147-.01-.271-.03-.371a.686.686 0 0 0-.091-.243.345.345 0 0 0-.146-.134.464.464 0 0 0-.198-.041.465.465 0 0 0-.2.04.35.35 0 0 0-.145.135.706.706 0 0 0-.091.243c-.02.1-.031.224-.031.37v.613c0 .146.01.27.032.372a.764.764 0 0 0 .092.249c.04.065.089.11.147.14a.446.446 0 0 0 .2.044.435.435 0 0 0 .199-.044.357.357 0 0 0 .144-.14.743.743 0 0 0 .089-.25c.02-.1.03-.225.03-.371v-.612zm.485.542c0 .23-.023.425-.067.585-.046.16-.11.29-.192.39a.726.726 0 0 1-.298.219 1.07 1.07 0 0 1-.39.068c-.141 0-.271-.023-.388-.068a.742.742 0 0 1-.301-.218 1.077 1.077 0 0 1-.194-.391 2.142 2.142 0 0 1-.07-.585v-.468c0-.23.024-.425.069-.584.045-.16.109-.288.192-.387a.707.707 0 0 1 .3-.215c.117-.044.247-.065.389-.065a1.1 1.1 0 0 1 .39.065.707.707 0 0 1 .3.215c.083.099.147.228.193.387.044.159.067.354.067.584v.468zM64.765 38.74c0-.078.024-.142.074-.193a.274.274 0 0 1 .207-.077c.09 0 .16.026.21.077a.266.266 0 0 1 .073.192.255.255 0 0 1-.074.188.28.28 0 0 1-.209.076.32.32 0 0 1-.119-.02.23.23 0 0 1-.088-.057.223.223 0 0 1-.055-.083.275.275 0 0 1-.019-.104m0-1.69c0-.079.024-.143.074-.194a.274.274 0 0 1 .207-.077c.09 0 .16.026.21.077a.267.267 0 0 1 .073.193.259.259 0 0 1-.074.188c-.049.05-.119.074-.209.074a.367.367 0 0 1-.119-.019.255.255 0 0 1-.088-.056.236.236 0 0 1-.055-.084.27.27 0 0 1-.019-.103"/>
        <path fill="#7F7F7F" d="M67.117 38.98h-.482v-2.328l-.712.242v-.409l1.132-.416h.062zM69.031 37.645a.5.5 0 0 0 .391-.188.662.662 0 0 0 .08-.125v-.19c0-.116-.013-.218-.038-.308a.725.725 0 0 0-.103-.222.448.448 0 0 0-.15-.136.386.386 0 0 0-.182-.045.39.39 0 0 0-.338.178.601.601 0 0 0-.089.193.901.901 0 0 0-.003.465.604.604 0 0 0 .084.193.442.442 0 0 0 .144.135.396.396 0 0 0 .204.05zm-.48.946c.173 0 .318-.02.436-.062a.748.748 0 0 0 .285-.174.674.674 0 0 0 .162-.261c.034-.1.055-.21.063-.328a.858.858 0 0 1-.254.187.703.703 0 0 1-.314.071.766.766 0 0 1-.63-.294.906.906 0 0 1-.156-.312 1.35 1.35 0 0 1-.05-.367c0-.139.021-.27.063-.393a.943.943 0 0 1 .182-.322.844.844 0 0 1 .294-.217.935.935 0 0 1 .4-.08c.16 0 .298.031.416.094a.87.87 0 0 1 .298.257c.078.107.138.233.178.375.04.143.06.294.06.453v.158c0 .14-.01.276-.028.411a1.87 1.87 0 0 1-.094.38 1.39 1.39 0 0 1-.173.331c-.072.101-.16.188-.266.261-.106.073-.23.13-.374.171a1.808 1.808 0 0 1-.496.062h-.04v-.4h.038zM70.487 38.74c0-.078.024-.142.074-.193a.274.274 0 0 1 .206-.077c.09 0 .16.026.21.077a.266.266 0 0 1 .074.192.255.255 0 0 1-.074.188.28.28 0 0 1-.21.076.32.32 0 0 1-.118-.02.23.23 0 0 1-.088-.057.223.223 0 0 1-.055-.083.275.275 0 0 1-.02-.104m0-1.69c0-.079.025-.143.075-.194a.274.274 0 0 1 .206-.077c.09 0 .16.026.21.077a.267.267 0 0 1 .074.193.259.259 0 0 1-.074.188c-.05.05-.12.074-.21.074a.367.367 0 0 1-.118-.019.255.255 0 0 1-.088-.056.236.236 0 0 1-.055-.084.27.27 0 0 1-.02-.103M73.477 38.98h-1.95v-.332l.944-1.03c.08-.088.146-.166.198-.235.053-.068.095-.13.126-.187a.584.584 0 0 0 .056-.49.389.389 0 0 0-.219-.244.554.554 0 0 0-.401.005.427.427 0 0 0-.245.281.698.698 0 0 0-.03.215h-.485c0-.127.021-.247.064-.359a.849.849 0 0 1 .5-.491c.122-.05.261-.073.418-.073.145 0 .274.019.386.057a.786.786 0 0 1 .286.16.676.676 0 0 1 .178.252.874.874 0 0 1 .017.597c-.03.09-.07.177-.122.264a2.313 2.313 0 0 1-.185.264c-.072.088-.15.177-.235.266l-.648.693h1.347v.387zM75.253 37.217c0-.147-.01-.271-.03-.371a.706.706 0 0 0-.092-.243.345.345 0 0 0-.146-.134.464.464 0 0 0-.198-.041.465.465 0 0 0-.199.04.345.345 0 0 0-.146.135.706.706 0 0 0-.09.243c-.02.1-.032.224-.032.37v.613c0 .146.011.27.032.372a.742.742 0 0 0 .092.249.357.357 0 0 0 .147.14.443.443 0 0 0 .2.044.435.435 0 0 0 .2-.044.357.357 0 0 0 .143-.14.743.743 0 0 0 .09-.25c.02-.1.03-.225.03-.371v-.612zm.484.542c0 .23-.023.425-.067.585-.046.16-.109.29-.192.39a.726.726 0 0 1-.298.219 1.07 1.07 0 0 1-.389.068c-.142 0-.272-.023-.389-.068a.742.742 0 0 1-.3-.218 1.061 1.061 0 0 1-.195-.391 2.142 2.142 0 0 1-.069-.585v-.468c0-.23.022-.425.068-.584.045-.16.11-.288.192-.387a.707.707 0 0 1 .3-.215c.117-.044.247-.065.39-.065a1.1 1.1 0 0 1 .39.065.707.707 0 0 1 .3.215c.082.099.146.228.192.387.044.159.067.354.067.584v.468z"/>
        <path fill="#64719E" d="M52.438 37.363l-.302.603c-.01.015.006.034.023.031l.489-.09a.02.02 0 0 0 .014-.01l.33-.47-.554-.064z"/>
        <path fill="#515E75" d="M52.711 37.63s-.116.284 0 .394c.116.108.518.15.518.15l-.518-.544z"/>
        <path fill="#EDA420" d="M52.622 36.81c.04.11.15.166.247.123.096-.042.143-.166.103-.276-.04-.111-.15-.166-.246-.123-.097.042-.144.166-.104.276"/>
        <path fill="#566782" d="M52.682 36.8c.033.094.126.14.208.104.081-.036.12-.14.087-.233s-.127-.14-.208-.103c-.08.035-.12.139-.087.232"/>
        <path fill="#15D48F" d="M52.735 36.688a.148.148 0 0 0 .065.181c.062.03.133 0 .159-.07.026-.07-.003-.15-.065-.181s-.133 0-.159.07"/>
        <path fill="#303D51" d="M54.688 35.281l-.723.176a.156.156 0 0 1-.077-.302l.72-.193a.13.13 0 0 1 .16.097l.016.07a.13.13 0 0 1-.096.152"/>
        <path fill="#303D51" d="M54.773 35.334a2.77 2.77 0 0 0-.613.27c0 .008.03.099-.062.099-.093 0-.07-.096-.05-.12.022-.025.468-.358.62-.371.02-.003.028-.228.042-.224.112.033.097.336.063.346"/>
        <path fill="#D0D0D0" d="M50.605 59.246c-.39 0-.706.347-.706.772v5.52c0 .426.317.773.706.773H77.31c.389 0 .706-.347.706-.773v-5.52c0-.425-.317-.772-.706-.772H50.605zm26.705 7.096H50.605c-.406 0-.737-.36-.737-.804v-5.52c0-.443.33-.803.737-.803H77.31c.406 0 .736.36.736.803v5.52c0 .443-.33.804-.736.804z"/>
        <path fill="#FF4C5A" d="M63.824 29.878a.093.093 0 0 1-.083-.134l.354-.713-.34-2.05v-.012l-.076-2.152-.273-2.053a.094.094 0 0 1 .005-.044l.35-.927a.094.094 0 0 1 .067-.06l1.17-.238.843-1.16a.09.09 0 0 1 .047-.034l.595-.181a.086.086 0 0 1 .028-.004h2.855l3.383-.63.727-1.486-.047-.424-2.053-.198a.092.092 0 0 1-.084-.101.094.094 0 0 1 .101-.083l2.13.205a.092.092 0 0 1 .082.082l.057.526a.1.1 0 0 1-.008.05l-.759 1.553a.093.093 0 0 1-.067.05l-3.437.639a.088.088 0 0 1-.016.002h-2.85l-.553.168-.847 1.163a.09.09 0 0 1-.056.037l-1.154.236-.322.858.271 2.034v.01l.075 2.15.343 2.073a.098.098 0 0 1-.008.056l-.367.74a.092.092 0 0 1-.083.052"/>
        <path fill="#FFF" d="M72.953 19.505a.497.497 0 1 0-.276-.646.496.496 0 0 0 .276.646m-.053.132a.639.639 0 1 1 .476-1.186.639.639 0 0 1-.476 1.186"/>
        <path fill="#4D1B9B" d="M72.953 19.505a.497.497 0 1 0-.276-.646.496.496 0 0 0 .276.646M73.62 17.977l.182.335c.028.053-.027.101-.087.078l-.542-.218c-.061-.024-.067-.097-.01-.115l.362-.118a.085.085 0 0 1 .096.038"/>
        <path fill="#FF4C5A" d="M70.53 16.586h.73c.134 0 .243.11.243.243v.731a.243.243 0 0 1-.244.243h-.73a.243.243 0 0 1-.244-.243v-.73c0-.135.11-.244.244-.244M64.072 28.811a.585.585 0 1 1 0 1.17.585.585 0 0 1 0-1.17"/>
        <path fill="#FFF" d="M64.072 29.153a.244.244 0 1 1 0 .487.244.244 0 0 1 0-.487"/>
        <path fill="#D0D0D0" d="M50.627 59.274c-.389 0-.706.347-.706.773v5.52c0 .426.317.772.706.772h26.705c.39 0 .706-.346.706-.773v-5.519c0-.426-.317-.773-.706-.773H50.627zm26.705 7.097H50.627c-.406 0-.737-.362-.737-.805v-5.519c0-.443.331-.803.737-.803h26.705c.406 0 .737.36.737.803v5.52c0 .442-.33.804-.737.804z"/>
        <path fill="#141414" d="M51.76 61.459h.266a.265.265 0 0 0 .181-.056c.043-.037.064-.091.064-.162a.209.209 0 0 0-.064-.16.25.25 0 0 0-.173-.062h-.274v.44zm0 .121v.439h-.148v-1.122h.414c.123 0 .218.032.288.094a.32.32 0 0 1 .104.249c0 .11-.033.193-.1.252a.436.436 0 0 1-.294.088h-.264zM52.988 61.314a.384.384 0 0 0-.07-.005c-.094 0-.157.039-.19.119v.59h-.143v-.832h.139l.002.096a.224.224 0 0 1 .262-.101v.133zM53.432 61.287a.192.192 0 0 0-.145.062.306.306 0 0 0-.072.177h.417v-.01a.277.277 0 0 0-.058-.169.183.183 0 0 0-.142-.06m.018.747a.365.365 0 0 1-.276-.11.412.412 0 0 1-.106-.299V61.6c0-.083.015-.157.047-.22a.366.366 0 0 1 .132-.154.334.334 0 0 1 .185-.055c.108 0 .192.036.252.107.06.072.09.174.09.307v.06h-.564a.295.295 0 0 0 .072.198.23.23 0 0 0 .175.076.253.253 0 0 0 .128-.03.322.322 0 0 0 .092-.082l.087.067a.351.351 0 0 1-.314.161M54.424 61.798a.106.106 0 0 0-.043-.09.44.44 0 0 0-.152-.055.741.741 0 0 1-.172-.055.243.243 0 0 1-.093-.077.182.182 0 0 1-.03-.107c0-.068.028-.126.086-.173a.337.337 0 0 1 .221-.071c.094 0 .171.024.23.073a.236.236 0 0 1 .088.188h-.143a.13.13 0 0 0-.05-.101.188.188 0 0 0-.125-.043.2.2 0 0 0-.122.034.108.108 0 0 0-.044.089c0 .034.014.06.041.077a.466.466 0 0 0 .148.05.791.791 0 0 1 .173.058.257.257 0 0 1 .098.079.199.199 0 0 1 .032.114c0 .074-.03.134-.09.179a.372.372 0 0 1-.232.067.41.41 0 0 1-.176-.035.277.277 0 0 1-.12-.1.238.238 0 0 1-.045-.136h.143a.146.146 0 0 0 .057.113.223.223 0 0 0 .141.042.23.23 0 0 0 .13-.033.1.1 0 0 0 .05-.087M55.238 61.798a.107.107 0 0 0-.044-.09.441.441 0 0 0-.151-.055.71.71 0 0 1-.172-.055.24.24 0 0 1-.094-.077.19.19 0 0 1-.031-.107c0-.068.03-.126.087-.173a.34.34 0 0 1 .22-.071c.096 0 .173.024.23.073a.234.234 0 0 1 .09.188h-.144a.13.13 0 0 0-.05-.101.189.189 0 0 0-.125-.043.198.198 0 0 0-.121.034.108.108 0 0 0-.044.089c0 .034.014.06.04.077a.458.458 0 0 0 .148.05.773.773 0 0 1 .173.058.25.25 0 0 1 .098.079.199.199 0 0 1 .032.114c0 .074-.03.134-.09.179a.376.376 0 0 1-.231.067.411.411 0 0 1-.177-.035.288.288 0 0 1-.121-.1.244.244 0 0 1-.043-.136h.143a.143.143 0 0 0 .057.113.221.221 0 0 0 .14.042.23.23 0 0 0 .13-.033.102.102 0 0 0 .05-.087M56.254 61.598h.203l.053-.273h-.203l-.053.273zm.183.106h-.203l-.062.315h-.11l.062-.315h-.184v-.106h.204l.053-.273h-.198v-.107h.219l.063-.32h.11l-.063.32h.203l.063-.32h.111l-.063.32h.157v.107h-.178l-.053.273h.173v.106h-.193l-.062.315h-.11l.061-.315zM57.097 61.459h.266a.265.265 0 0 0 .181-.056c.042-.037.063-.091.063-.162a.212.212 0 0 0-.063-.16.25.25 0 0 0-.173-.062h-.274v.44zm0 .121v.439h-.148v-1.122h.414a.42.42 0 0 1 .288.094.32.32 0 0 1 .104.249c0 .11-.034.193-.102.252-.068.059-.165.088-.292.088h-.264zM58.191 61.91a.263.263 0 0 0 .127-.034.217.217 0 0 0 .088-.09v-.172h-.112c-.174 0-.262.052-.262.153 0 .045.015.081.045.105.03.025.068.038.115.038zm.236.108a.301.301 0 0 1-.02-.087.316.316 0 0 1-.236.103.296.296 0 0 1-.203-.069.226.226 0 0 1-.079-.177c0-.087.033-.154.1-.202a.467.467 0 0 1 .278-.072h.138v-.066c0-.05-.014-.09-.044-.119-.03-.029-.073-.044-.131-.044a.211.211 0 0 0-.128.038c-.035.026-.052.057-.052.094h-.143c0-.042.014-.082.044-.12a.31.31 0 0 1 .12-.093.399.399 0 0 1 .167-.034c.096 0 .17.024.225.072a.257.257 0 0 1 .085.198v.384c0 .076.01.137.03.183v.011h-.15zM59.285 61.937c-.055.065-.137.098-.244.098-.089 0-.156-.026-.203-.077-.046-.052-.07-.128-.07-.23v-.542h.142v.538c0 .127.052.19.154.19.11 0 .181-.04.217-.123v-.605h.143v.833h-.136l-.003-.082zM60.126 61.798a.11.11 0 0 0-.043-.09.448.448 0 0 0-.152-.055.71.71 0 0 1-.172-.055.255.255 0 0 1-.094-.077.19.19 0 0 1-.03-.107c0-.068.029-.126.086-.173a.34.34 0 0 1 .22-.071c.096 0 .173.024.23.073a.234.234 0 0 1 .09.188h-.144a.13.13 0 0 0-.05-.101.189.189 0 0 0-.125-.043.198.198 0 0 0-.121.034.108.108 0 0 0-.044.089c0 .034.014.06.04.077a.458.458 0 0 0 .148.05.756.756 0 0 1 .173.058.25.25 0 0 1 .098.079.192.192 0 0 1 .033.114c0 .074-.03.134-.09.179a.374.374 0 0 1-.232.067.411.411 0 0 1-.177-.035.288.288 0 0 1-.121-.1.244.244 0 0 1-.043-.136h.143a.146.146 0 0 0 .057.113.223.223 0 0 0 .14.042.23.23 0 0 0 .13-.033.102.102 0 0 0 .05-.087M60.781 61.287a.195.195 0 0 0-.145.062.306.306 0 0 0-.072.177h.417v-.01a.271.271 0 0 0-.058-.169.182.182 0 0 0-.142-.06m.018.747a.365.365 0 0 1-.276-.11.412.412 0 0 1-.106-.299V61.6c0-.083.016-.157.047-.22a.368.368 0 0 1 .133-.154.33.33 0 0 1 .184-.055c.108 0 .193.036.253.107.06.072.09.174.09.307v.06h-.565a.295.295 0 0 0 .073.198c.045.05.104.076.174.076a.25.25 0 0 0 .128-.03.322.322 0 0 0 .092-.082l.087.067a.35.35 0 0 1-.314.161M61.873 60.984v.201h.155v.111h-.155v.517c0 .033.007.06.02.075.015.017.038.025.07.025a.353.353 0 0 0 .069-.009v.114a.384.384 0 0 1-.11.016c-.063 0-.111-.02-.143-.058a.25.25 0 0 1-.05-.164v-.516h-.15v-.11h.15v-.202h.144zM62.284 61.611c0 .093.021.167.064.223a.21.21 0 0 0 .173.084c.072 0 .13-.029.172-.085a.39.39 0 0 0 .064-.239.357.357 0 0 0-.065-.222.206.206 0 0 0-.173-.085.204.204 0 0 0-.17.084.385.385 0 0 0-.065.24zm-.143-.017a.49.49 0 0 1 .048-.22.359.359 0 0 1 .134-.15.369.369 0 0 1 .196-.054c.114 0 .205.04.275.118a.446.446 0 0 1 .105.313v.01a.502.502 0 0 1-.046.22.36.36 0 0 1-.332.203.35.35 0 0 1-.275-.118.45.45 0 0 1-.105-.312v-.01zM63.954 61.798a.11.11 0 0 0-.043-.09.44.44 0 0 0-.152-.055.741.741 0 0 1-.172-.055.255.255 0 0 1-.094-.077.19.19 0 0 1-.03-.107c0-.068.029-.126.087-.173a.337.337 0 0 1 .22-.071c.095 0 .172.024.23.073a.236.236 0 0 1 .089.188h-.143a.13.13 0 0 0-.05-.101.188.188 0 0 0-.125-.043.2.2 0 0 0-.122.034.108.108 0 0 0-.044.089c0 .034.014.06.04.077a.467.467 0 0 0 .148.05.756.756 0 0 1 .173.058.242.242 0 0 1 .098.079.192.192 0 0 1 .033.114c0 .074-.03.134-.09.179a.372.372 0 0 1-.232.067.41.41 0 0 1-.176-.035.277.277 0 0 1-.121-.1.238.238 0 0 1-.044-.136h.143a.146.146 0 0 0 .057.113.223.223 0 0 0 .14.042.23.23 0 0 0 .13-.033.1.1 0 0 0 .05-.087M64.475 60.984v.201h.155v.111h-.155v.517c0 .033.007.06.021.075.014.017.037.025.07.025a.353.353 0 0 0 .068-.009v.114a.384.384 0 0 1-.109.016c-.064 0-.112-.02-.144-.058a.25.25 0 0 1-.049-.164v-.516h-.15v-.11h.15v-.202h.143zM64.887 61.611c0 .093.02.167.064.223a.21.21 0 0 0 .173.084.206.206 0 0 0 .172-.085.39.39 0 0 0 .064-.239.357.357 0 0 0-.065-.222.206.206 0 0 0-.173-.085.204.204 0 0 0-.17.084.385.385 0 0 0-.065.24zm-.143-.017a.49.49 0 0 1 .048-.22.359.359 0 0 1 .134-.15.369.369 0 0 1 .196-.054c.114 0 .205.04.275.118a.446.446 0 0 1 .105.313v.01a.502.502 0 0 1-.046.22.36.36 0 0 1-.332.203.35.35 0 0 1-.275-.118.45.45 0 0 1-.105-.312v-.01zM66.242 61.596a.367.367 0 0 0-.06-.223.195.195 0 0 0-.165-.082.208.208 0 0 0-.194.116v.397a.21.21 0 0 0 .195.114.192.192 0 0 0 .163-.081.404.404 0 0 0 .061-.241zm.142.016a.496.496 0 0 1-.087.306.279.279 0 0 1-.235.116.307.307 0 0 1-.239-.096v.4h-.143v-1.152h.131l.007.093a.29.29 0 0 1 .241-.11c.1 0 .18.039.238.115.058.076.087.18.087.315v.013zM51.66 63.892v-.724h-.13v-.11h.13v-.085c0-.09.024-.158.072-.207.048-.05.115-.073.202-.073.033 0 .066.005.098.013l-.008.115a.38.38 0 0 0-.077-.007.14.14 0 0 0-.107.04c-.025.027-.037.066-.037.117v.088h.177v.109h-.177v.724h-.143zM52.243 63.484a.36.36 0 0 0 .064.223.21.21 0 0 0 .172.084c.073 0 .13-.029.173-.086a.388.388 0 0 0 .064-.239.356.356 0 0 0-.065-.22.207.207 0 0 0-.173-.086.205.205 0 0 0-.17.084.385.385 0 0 0-.065.24zm-.143-.018a.49.49 0 0 1 .048-.219.355.355 0 0 1 .134-.152.368.368 0 0 1 .196-.052.35.35 0 0 1 .275.118.45.45 0 0 1 .105.313v.01a.484.484 0 0 1-.047.218.345.345 0 0 1-.132.15.373.373 0 0 1-.2.055.353.353 0 0 1-.274-.118.451.451 0 0 1-.105-.312v-.01zM53.44 63.187a.38.38 0 0 0-.07-.006c-.093 0-.157.04-.19.119v.592h-.142v-.834h.138l.002.096a.225.225 0 0 1 .262-.1v.133zM54.239 63.783a.25.25 0 0 0 .127-.035.209.209 0 0 0 .087-.09v-.17h-.111c-.175 0-.262.05-.262.152 0 .045.014.08.044.105.03.025.069.038.115.038zm.236.108a.389.389 0 0 1-.02-.087.32.32 0 0 1-.237.103.292.292 0 0 1-.202-.07.228.228 0 0 1-.08-.177c0-.087.034-.154.1-.202a.468.468 0 0 1 .279-.07h.138v-.067c0-.05-.015-.09-.045-.119-.03-.029-.073-.045-.131-.045a.212.212 0 0 0-.128.04.112.112 0 0 0-.052.092h-.143c0-.04.015-.08.045-.12a.288.288 0 0 1 .12-.092.394.394 0 0 1 .166-.034.33.33 0 0 1 .226.072.26.26 0 0 1 .084.198v.383c0 .077.01.138.03.183v.012h-.15zM55.694 63.67a.108.108 0 0 0-.043-.09.445.445 0 0 0-.152-.055.673.673 0 0 1-.172-.054.267.267 0 0 1-.093-.077.191.191 0 0 1-.03-.107c0-.068.029-.126.086-.173a.34.34 0 0 1 .22-.071c.096 0 .173.024.23.073a.234.234 0 0 1 .09.187h-.144a.131.131 0 0 0-.05-.101.188.188 0 0 0-.125-.042.191.191 0 0 0-.121.034.108.108 0 0 0-.044.088c0 .035.014.06.04.078a.458.458 0 0 0 .148.05.777.777 0 0 1 .173.057.25.25 0 0 1 .098.08.19.19 0 0 1 .032.113c0 .075-.03.135-.09.18a.374.374 0 0 1-.231.067.397.397 0 0 1-.177-.036.294.294 0 0 1-.121-.098.245.245 0 0 1-.043-.138h.143a.145.145 0 0 0 .057.114.23.23 0 0 0 .14.042.238.238 0 0 0 .13-.033.102.102 0 0 0 .05-.087M56.165 63.16a.305.305 0 0 1 .247-.117c.175 0 .264.1.266.298v.55h-.142v-.55c-.001-.06-.015-.106-.042-.134-.027-.029-.07-.043-.126-.043a.202.202 0 0 0-.121.037.25.25 0 0 0-.082.097v.593h-.143V62.71h.143v.45zM56.996 63.484a.36.36 0 0 0 .064.223.21.21 0 0 0 .172.084c.073 0 .13-.029.173-.086a.388.388 0 0 0 .064-.239.356.356 0 0 0-.065-.22.207.207 0 0 0-.173-.086.202.202 0 0 0-.17.084c-.044.055-.065.136-.065.24zm-.143-.018a.49.49 0 0 1 .048-.219.362.362 0 0 1 .134-.152.368.368 0 0 1 .196-.052.35.35 0 0 1 .275.118.45.45 0 0 1 .105.313v.01a.498.498 0 0 1-.046.218.353.353 0 0 1-.333.205.353.353 0 0 1-.274-.118.451.451 0 0 1-.105-.312v-.01zM58.193 63.187a.38.38 0 0 0-.07-.006c-.094 0-.157.04-.19.119v.592h-.143v-.834h.139l.002.096a.224.224 0 0 1 .262-.1v.133zM58.555 62.856v.202h.156v.11h-.156v.517c0 .033.007.06.021.075.014.017.038.026.071.026a.307.307 0 0 0 .068-.01v.115a.437.437 0 0 1-.11.016c-.063 0-.112-.02-.144-.059a.248.248 0 0 1-.048-.163v-.517h-.152v-.11h.152v-.202h.142zM59.83 63.468a.39.39 0 0 0-.055-.225.188.188 0 0 0-.162-.08.207.207 0 0 0-.202.132v.36a.214.214 0 0 0 .204.13.184.184 0 0 0 .159-.078.411.411 0 0 0 .057-.24zm.144.017c0 .127-.03.229-.088.306a.283.283 0 0 1-.236.116.289.289 0 0 1-.244-.112l-.007.097h-.131v-1.183h.143v.442a.285.285 0 0 1 .237-.108c.1 0 .18.038.239.114a.521.521 0 0 1 .087.315v.013zM60.555 63.187a.38.38 0 0 0-.07-.006c-.094 0-.157.04-.19.119v.592h-.143v-.834h.14l.001.096a.224.224 0 0 1 .262-.1v.133zM61 63.16a.192.192 0 0 0-.145.062.305.305 0 0 0-.072.176h.417v-.01a.274.274 0 0 0-.058-.168.18.18 0 0 0-.142-.06m.018.747a.365.365 0 0 1-.276-.11.413.413 0 0 1-.106-.299v-.026c0-.083.015-.157.047-.222a.37.37 0 0 1 .132-.152.334.334 0 0 1 .185-.055c.108 0 .192.036.252.107.06.072.09.173.09.306v.06h-.564a.3.3 0 0 0 .072.2.23.23 0 0 0 .175.075.253.253 0 0 0 .128-.03.34.34 0 0 0 .092-.083l.087.068a.351.351 0 0 1-.314.161M61.785 63.783a.253.253 0 0 0 .127-.035.209.209 0 0 0 .087-.09v-.17h-.111c-.175 0-.262.05-.262.152 0 .045.014.08.044.105.03.025.068.038.115.038zm.236.108a.34.34 0 0 1-.02-.087.32.32 0 0 1-.237.103.292.292 0 0 1-.202-.07.228.228 0 0 1-.08-.177c0-.087.034-.154.1-.202a.468.468 0 0 1 .279-.07h.138v-.067c0-.05-.015-.09-.045-.119-.03-.029-.073-.045-.131-.045a.212.212 0 0 0-.128.04.112.112 0 0 0-.052.092H61.5a.2.2 0 0 1 .044-.12c.03-.039.07-.07.12-.092a.402.402 0 0 1 .167-.034c.096 0 .17.024.226.072a.26.26 0 0 1 .084.198v.383c0 .077.01.138.03.183v.012h-.15zM62.597 63.506l-.089.093v.293h-.143v-1.183h.143v.715l.076-.092.26-.273h.172l-.324.347.362.486h-.167z"/>
        <path fill="#343434" d="M69.451 60.248h7.687c.218 0 .395.176.395.394v4.731a.394.394 0 0 1-.395.394h-7.687a.394.394 0 0 1-.394-.394v-4.731c0-.218.177-.394.394-.394"/>
        <path fill="#FFF" d="M70.281 63.531h.26l.067-.36h-.26l-.067.36zm.226.183h-.26l-.088.473h-.193l.087-.473h-.266v-.183h.301l.068-.36h-.28v-.185h.314l.09-.48h.193l-.09.48h.258l.091-.48h.194l-.09.48h.24v.184h-.275l-.067.361h.255v.183h-.29l-.087.473h-.193l.088-.473zM72.047 64.188h-.279v-1.352l-.413.142v-.236l.656-.241h.036zM73.763 64.188h-1.131v-.194l.548-.596a2.29 2.29 0 0 0 .114-.137.827.827 0 0 0 .073-.108.372.372 0 0 0 .039-.092.353.353 0 0 0-.006-.191.244.244 0 0 0-.05-.085.213.213 0 0 0-.077-.057.254.254 0 0 0-.106-.02.264.264 0 0 0-.216.086.29.29 0 0 0-.053.098.45.45 0 0 0-.018.127h-.28c0-.074.012-.143.038-.21a.477.477 0 0 1 .289-.284.65.65 0 0 1 .242-.042.7.7 0 0 1 .224.033.469.469 0 0 1 .166.093c.045.04.079.089.103.145a.517.517 0 0 1 .01.347.753.753 0 0 1-.071.153c-.03.05-.066.102-.107.154a2.665 2.665 0 0 1-.137.154l-.375.4h.78v.225zM74.3 63.218h.167a.363.363 0 0 0 .126-.02.244.244 0 0 0 .089-.051.2.2 0 0 0 .053-.081.297.297 0 0 0 .018-.105.259.259 0 0 0-.063-.186c-.042-.045-.106-.067-.193-.067a.29.29 0 0 0-.103.017.233.233 0 0 0-.136.12.232.232 0 0 0-.02.099h-.28c0-.067.013-.128.04-.184a.417.417 0 0 1 .11-.146.497.497 0 0 1 .17-.097.642.642 0 0 1 .216-.034.72.72 0 0 1 .219.03c.067.02.123.05.17.09.048.04.085.09.11.15.027.06.04.129.04.208a.345.345 0 0 1-.065.202.38.38 0 0 1-.081.09.437.437 0 0 1-.112.07c.05.019.095.04.13.069a.368.368 0 0 1 .137.203.505.505 0 0 1-.027.331.435.435 0 0 1-.12.155.546.546 0 0 1-.177.097.772.772 0 0 1-.434.002.55.55 0 0 1-.176-.09.436.436 0 0 1-.166-.353h.28c0 .037.007.07.02.1a.231.231 0 0 0 .142.13.315.315 0 0 0 .113.02.294.294 0 0 0 .206-.07c.05-.046.075-.113.075-.201a.304.304 0 0 0-.022-.123.25.25 0 0 0-.062-.087.275.275 0 0 0-.098-.05.506.506 0 0 0-.13-.016h-.165v-.222zM75.55 63.588h.44v-.702l-.022.037-.419.665zm.72 0h.21v.225h-.21v.375h-.28v-.375h-.728l-.007-.171.725-1.136h.29v1.082zM72.678 61.078c0-.1-.02-.176-.06-.229a.2.2 0 0 0-.168-.08.2.2 0 0 0-.166.08.375.375 0 0 0-.062.222v.062c0 .096.021.173.061.227a.196.196 0 0 0 .168.083.195.195 0 0 0 .166-.078.37.37 0 0 0 .061-.225v-.062zm.11.055a.52.52 0 0 1-.04.216.315.315 0 0 1-.119.14.327.327 0 0 1-.178.048.325.325 0 0 1-.176-.048.322.322 0 0 1-.119-.14.502.502 0 0 1-.044-.209v-.06c0-.08.014-.152.043-.215a.315.315 0 0 1 .12-.142.317.317 0 0 1 .175-.049.314.314 0 0 1 .297.19.52.52 0 0 1 .041.216v.053zM73.52 60.776h-.27v.75h-.11v-.75h-.27v-.09h.65zM73.756 61.106h.199c.06 0 .105-.015.136-.042.032-.028.048-.068.048-.12a.154.154 0 0 0-.048-.12.183.183 0 0 0-.129-.048h-.206v.33zm0 .091v.33h-.111v-.842h.31c.093 0 .164.024.217.07a.24.24 0 0 1 .078.187.236.236 0 0 1-.077.188.326.326 0 0 1-.219.067h-.198z"/>
        <g transform="translate(35.323 43.504)">
            <path fill="#FC3049" stroke="#FFF" stroke-width="1.1" d="M6.76-.55h44.48c4.065 0 7.31 3.396 7.31 7.55 0 4.189-3.28 7.55-7.31 7.55H6.76C2.698 14.55-.55 11.153-.55 7c0-4.188 3.281-7.55 7.31-7.55z"/>
            <path fill="#FFF" fill-rule="nonzero" d="M19.57 6.42h-2.514V8.41h2.938v.896h-4.002V2.844h3.972v.905h-2.908v1.784h2.513v.888zm6.145 2.885H24.65l-2.728-4.584v4.584H20.86V2.844h1.063l2.737 4.602V2.844h1.055v6.461zm1.256 0V2.844h1.808c.409 0 .782.072 1.12.217.338.145.628.352.87.62.242.267.43.59.565.969.135.379.202.802.202 1.27v.319c0 .467-.067.89-.2 1.267a2.76 2.76 0 0 1-.567.965c-.245.266-.54.472-.887.617-.346.145-.73.217-1.154.217h-1.757zm1.064-5.556v4.66h.693c.289 0 .542-.05.761-.149.219-.099.4-.242.544-.428.145-.187.253-.414.326-.684.073-.269.11-.572.11-.91V5.91c0-.7-.145-1.236-.434-1.606-.288-.37-.707-.555-1.256-.555h-.744zm8.953 3.067h-1.186v2.49H34.74V2.843h2.152c.35 0 .663.042.937.126.275.085.507.209.696.373.189.164.333.368.43.61.099.243.148.524.148.843 0 .432-.099.794-.296 1.085a1.903 1.903 0 0 1-.826.673l1.374 2.694v.057h-1.139l-1.227-2.49zm-1.186-.901h1.093c.19 0 .357-.027.5-.08a.91.91 0 0 0 .572-.56c.048-.13.071-.273.071-.43a1.42 1.42 0 0 0-.067-.45.903.903 0 0 0-.206-.346.909.909 0 0 0-.355-.222 1.542 1.542 0 0 0-.52-.078h-1.088v2.166zm5.43 3.39h-1.058V2.844h1.059v6.461zm1.308 0V2.844h1.807c.41 0 .783.072 1.12.217.338.145.628.352.87.62.243.267.432.59.566.969.135.379.202.802.202 1.27v.319c0 .467-.067.89-.2 1.267a2.76 2.76 0 0 1-.567.965c-.245.266-.541.472-.887.617-.346.145-.73.217-1.154.217H42.54zm1.064-5.556v4.66h.693c.289 0 .542-.05.76-.149.22-.099.4-.242.545-.428.144-.187.253-.414.326-.684.073-.269.11-.572.11-.91V5.91c0-.7-.145-1.236-.434-1.606-.288-.37-.707-.555-1.257-.555h-.743zm8.137 2.672h-2.514v1.988h2.939v.896h-4.002V2.844h3.972v.905h-2.909v1.784h2.514v.888z"/>
            <ellipse cx="7.771" cy="6.613" fill="#FFF" rx="4.933" ry="4.846"/>
            <path stroke="#FC3049" stroke-linecap="round" stroke-width="1.1" d="M5.547 6.292h3.32M7.831 4.037l2.193 2.435L7.83 8.404"/>
        </g>
        <g>
            <path fill="#151B23" d="M.092 13.4a9.668 9.668 0 0 1 .73-2.444c.961-2.185 2.49-3.774 4.582-4.767 1.634-.766 6.97-.935 16.01-.508 2.836.136 5.863.322 9.08.558l3.99.31c.421-.079.965-.134 1.632-.164a19.572 19.572 0 0 1 3.805.141c1.705.254 3.182.726 4.431 1.416 1.553.873 2.703 2.079 3.45 3.619l8.49 15.73.911 2.804c.212 1.14.391 2.147.258 3.146-.43 3.192-2.412 5.335-6.16 5.928-3.147.485-9.378 1.217-18.694 2.192-7.979.834-12.927 1.324-14.84 1.466-1.54.111-2.81.123-3.814.039-1.244-.108-2.332-.381-3.264-.819-1.032-.474-1.959-1.181-2.782-2.121-.864-1.007-1.653-2.32-2.367-3.941-.205-.525-1.117-3.904-2.736-10.135C1.25 19.846.334 16.246.06 15.048c-.09-.394-.079-.944.032-1.648"/>
            <path fill="#9196B2" d="M2.344 10.038c.356-1.81 1.374-3.095 3.053-3.854 1.644-.739 7.257-1.32 16.839-1.743 2.997-.134 6.208-.243 9.633-.327l4.249-.082a39.185 39.185 0 0 1 2.15-.029c1.585.024 2.776.123 3.574.298 1.388.311 2.576.811 3.564 1.5 1.188.836 2.135 1.981 2.839 3.437l8.046 18.053s3.428 6.697-5.744 7.828c-2.99.38-30.941 2.91-31.297 2.936-1.472.104-2.688.09-3.648-.04-1.098-.147-2.055-.47-2.871-.97-.857-.518-1.653-1.28-2.387-2.29-.736-1.002-1.471-2.337-2.207-4.004-.172-.448-1.132-3.4-2.878-8.855-1.81-5.63-2.736-8.52-2.785-8.667-.11-.316-.185-.724-.23-1.224a7.237 7.237 0 0 1 .1-1.967"/>
            <path fill="#07081B" d="M28.98 9.406c.12-.006.23.023.331.087a.57.57 0 0 1 .227.264l1.391 3.282c.093.208.097.357.012.447-.073.077-.233.127-.478.149l-6.52.54a.553.553 0 0 1-.338-.077.602.602 0 0 1-.233-.27L21.99 10.17c-.074-.242.012-.426.26-.554.177-.09.43-.146.755-.17l5.975-.04z"/>
            <path fill="#9196B2" d="M29.073 9.33c.098.06.17.146.218.255l1.214 1.565c.142.419.174.792.096 1.119-.075.333-.246.534-.512.603l-5.387.464a.757.757 0 0 1-.508-.111.945.945 0 0 1-.401-.43l-1.012-2.303c-.123-.39-.108-.712.044-.968.157-.258.442-.423.856-.493l5.073.217a.53.53 0 0 1 .319.083"/>
            <path fill="#FFF" d="M29.345 8.87a.762.762 0 0 1 .297.334l.792 1.757c.1.227.11.425.033.593-.085.187-.27.307-.554.36l-5.24.386a.518.518 0 0 1-.326-.078.575.575 0 0 1-.224-.26l-.855-1.93c-.105-.284-.096-.525.027-.725.116-.19.3-.292.554-.308l4.85-.272c.253-.016.469.032.646.143"/>
            <path fill="#07081B" d="M14.035 10.456c.18-.092.431-.148.756-.17l5.98-.043a.546.546 0 0 1 .327.087c.102.063.178.15.228.264l1.425 3.284c.093.207.096.356.01.447-.073.076-.23.126-.476.149l-6.52.544a.534.534 0 0 1-.338-.082.594.594 0 0 1-.234-.27l-1.416-3.66c-.072-.243.014-.426.258-.55"/>
            <path fill="#9196B2" d="M14.571 11.329c-.123-.39-.108-.712.044-.968.157-.26.441-.424.853-.494l5.076.217a.558.558 0 0 1 .534.337l1.217 1.566c.144.423.18.808.11 1.154-.073.355-.24.567-.502.637l-5.387.463a.761.761 0 0 1-.508-.111.929.929 0 0 1-.398-.428l-1.039-2.373z"/>
            <path fill="#FFF" d="M16.137 13.059a.575.575 0 0 1-.224-.26l-.855-1.93c-.105-.284-.096-.526.027-.725.116-.19.3-.292.551-.31l4.853-.27c.253-.016.47.032.646.143a.756.756 0 0 1 .297.334l.79 1.757c.101.227.113.425.035.593-.085.187-.269.307-.554.36l-5.24.386a.525.525 0 0 1-.326-.078"/>
            <path fill="#07081B" d="M5.168 11.713c-.072-.244.014-.428.258-.554.177-.09.429-.146.756-.169l5.979-.041a.526.526 0 0 1 .328.084.586.586 0 0 1 .227.267l1.423 3.284c.092.208.096.357.01.447-.07.077-.23.125-.474.146l-6.52.543a.555.555 0 0 1-.338-.077.602.602 0 0 1-.233-.27l-1.416-3.66z"/>
            <path fill="#9196B2" d="M5.962 12.035c-.123-.392-.108-.715.044-.97.157-.26.44-.424.852-.492l5.077.217a.508.508 0 0 1 .316.08c.097.061.17.145.218.254l1.217 1.568c.165.45.203.85.114 1.2-.085.343-.264.55-.54.621l-5.385.463a.763.763 0 0 1-.51-.11.956.956 0 0 1-.4-.43l-1.003-2.4z"/>
            <path fill="#FFF" d="M6.45 11.576c-.106-.285-.097-.527.025-.73.117-.188.3-.29.551-.304l4.854-.271c.253-.02.468.029.645.142a.76.76 0 0 1 .298.335l.79 1.757c.101.226.112.423.035.59-.086.186-.27.307-.557.363l-5.238.382a.526.526 0 0 1-.325-.075.577.577 0 0 1-.225-.26l-.854-1.93z"/>
            <path fill="#07081B" d="M31.31 15.207c.12-.008.23.02.333.084a.6.6 0 0 1 .232.27l1.414 3.333c.092.212.096.363.012.453-.073.079-.235.129-.485.152l-6.62.55a.555.555 0 0 1-.343-.08.597.597 0 0 1-.236-.274L24.21 15.98c-.074-.248.014-.435.265-.563.18-.091.436-.148.765-.17l6.07-.041z"/>
            <path fill="#9196B2" d="M31.078 15.045a.512.512 0 0 1 .322.08c.1.063.175.149.225.26l1.234 1.59c.143.427.175.806.095 1.139-.078.337-.252.54-.522.612l-5.47.472a.772.772 0 0 1-.515-.114.937.937 0 0 1-.407-.436l-1.024-2.341c-.125-.396-.11-.724.044-.983.16-.263.447-.43.865-.5l5.153.22z"/>
            <path fill="#FFF" d="M31.679 14.661c.14.087.24.2.304.338l.802 1.785c.102.23.114.43.036.603-.085.188-.273.311-.563.366l-5.321.39a.53.53 0 0 1-.332-.078.567.567 0 0 1-.227-.263l-.868-1.96c-.107-.29-.1-.535.026-.736.119-.193.305-.298.56-.314l4.928-.277c.258-.018.476.031.655.146"/>
            <path fill="#07081B" d="M15.87 16.833c-.074-.248.014-.436.265-.562.18-.092.437-.15.769-.172l6.068-.043a.55.55 0 0 1 .334.084.602.602 0 0 1 .233.27l1.444 3.338c.095.21.099.36.012.453-.074.078-.235.128-.484.149l-6.622.55a.54.54 0 0 1-.341-.081.586.586 0 0 1-.24-.273l-1.438-3.713z"/>
            <path fill="#9196B2" d="M16.724 16.175c.156-.263.445-.43.865-.502l5.153.22a.56.56 0 0 1 .544.341l1.233 1.59c.146.431.183.821.113 1.173-.072.362-.24.577-.509.646l-5.47.472a.777.777 0 0 1-.518-.114.92.92 0 0 1-.404-.436l-1.055-2.407c-.124-.398-.108-.726.048-.983"/>
            <path fill="#FFF" d="M17.197 15.955c.12-.193.308-.298.563-.314l4.928-.277c.257-.016.475.033.655.146a.773.773 0 0 1 .3.341l.803 1.782c.102.23.113.43.035.602-.085.19-.272.311-.563.367l-5.321.39a.528.528 0 0 1-.328-.078.574.574 0 0 1-.228-.263l-.871-1.96c-.107-.29-.098-.534.027-.736"/>
            <path fill="#07081B" d="M7.127 17.548c-.074-.246.014-.433.265-.562.181-.092.436-.15.765-.173l6.071-.042c.12-.008.231.02.335.084a.634.634 0 0 1 .23.273l1.444 3.335c.095.21.098.36.012.453-.074.078-.234.129-.482.152l-6.622.551a.55.55 0 0 1-.34-.082.612.612 0 0 1-.24-.273l-1.438-3.716z"/>
            <path fill="#9196B2" d="M7.934 17.874c-.125-.396-.108-.724.048-.983.157-.263.445-.431.865-.502l5.153.22a.535.535 0 0 1 .322.084c.1.062.174.149.22.26l1.235 1.59c.169.456.208.863.116 1.219-.086.347-.268.557-.544.63l-5.47.47a.776.776 0 0 1-.518-.113.937.937 0 0 1-.407-.436l-1.02-2.44z"/>
            <path fill="#FFF" d="M8.428 17.405c-.107-.289-.098-.533.026-.735.119-.193.306-.298.56-.314l4.928-.274c.258-.018.477.03.658.143.14.09.24.203.3.342l.804 1.781c.1.231.113.432.035.602-.085.19-.273.312-.563.37l-5.321.387a.52.52 0 0 1-.33-.078.588.588 0 0 1-.23-.264l-.867-1.96z"/>
            <path fill="#07081B" d="M33.978 21.178a.56.56 0 0 1 .34.087.603.603 0 0 1 .234.274l1.433 3.38c.096.214.1.368.01.462-.073.079-.236.129-.49.15l-6.712.56a.58.58 0 0 1-.35-.081.634.634 0 0 1-.24-.277l-1.425-3.767c-.074-.25.015-.44.268-.57.183-.093.442-.151.778-.174l6.154-.044z"/>
            <path fill="#9196B2" d="M29.57 25.227a.796.796 0 0 1-.523-.115.977.977 0 0 1-.412-.445l-1.04-2.369c-.125-.403-.11-.735.046-.999.16-.267.454-.436.878-.508l5.227.225a.515.515 0 0 1 .325.083.574.574 0 0 1 .228.261l1.25 1.613c.146.432.179.816.099 1.153-.081.343-.257.55-.53.621l-5.547.48z"/>
            <path fill="#FFF" d="M29.543 24.157a.53.53 0 0 1-.334-.078.599.599 0 0 1-.234-.27l-.88-1.985c-.106-.293-.096-.542.029-.748.12-.195.309-.3.566-.32l4.999-.276c.26-.018.482.03.664.143a.777.777 0 0 1 .306.348l.817 1.807c.104.233.115.436.035.608-.088.193-.278.318-.572.375l-5.396.396z"/>
            <path fill="#07081B" d="M18.588 22.258c.183-.094.442-.152.778-.174l6.154-.045a.554.554 0 0 1 .341.088.613.613 0 0 1 .236.273l1.464 3.384c.094.214.097.368.011.46-.074.078-.237.13-.49.151l-6.716.56a.56.56 0 0 1-.347-.083.577.577 0 0 1-.239-.276l-1.46-3.769c-.074-.25.016-.44.268-.569"/>
            <path fill="#9196B2" d="M19.184 22.161c.161-.267.454-.437.878-.508l5.226.224a.517.517 0 0 1 .326.084.573.573 0 0 1 .227.261l1.252 1.612c.147.438.185.834.114 1.188-.073.368-.245.587-.516.656l-5.55.48a.802.802 0 0 1-.524-.115.944.944 0 0 1-.409-.442l-1.069-2.44c-.126-.404-.111-.737.045-1"/>
            <path fill="#FFF" d="M19.667 21.939c.12-.195.31-.302.57-.32l4.995-.277c.262-.018.484.03.667.144a.794.794 0 0 1 .307.348l.814 1.807c.1.235.112.438.034.61-.087.19-.278.315-.572.373l-5.396.396a.562.562 0 0 1-.565-.345l-.881-1.99c-.107-.292-.098-.541.027-.746"/>
            <path fill="#07081B" d="M38.864 31.363c.094.215.098.367.012.46-.074.078-.238.13-.491.151l-6.715.56a.584.584 0 0 1-.586-.358l-1.427-3.769c-.076-.25.013-.44.266-.568.183-.094.442-.152.778-.175l6.157-.044a.594.594 0 0 1 .573.36l1.433 3.383z"/>
            <path fill="#9196B2" d="M38.527 30.569c-.08.343-.257.55-.529.62l-5.548.48a.802.802 0 0 1-.527-.114.949.949 0 0 1-.409-.442l-1.042-2.372c-.126-.402-.11-.735.046-1 .16-.266.454-.435.881-.507l5.226.225a.52.52 0 0 1 .325.083.569.569 0 0 1 .227.264l1.252 1.613c.145.43.178.813.098 1.15"/>
            <path fill="#FFF" d="M38.39 29.832c-.086.19-.277.314-.571.372l-5.396.396a.544.544 0 0 1-.335-.079.582.582 0 0 1-.233-.266l-.882-1.989c-.106-.293-.098-.542.027-.747.12-.195.31-.3.57-.317l4.999-.28c.26-.018.483.031.664.147a.778.778 0 0 1 .306.344l.814 1.811c.103.233.116.435.038.608"/>
            <path fill="#07081B" d="M28.4 28.485a.571.571 0 0 1 .341.084.627.627 0 0 1 .233.273l1.466 3.385c.094.215.098.367.012.46-.074.078-.238.129-.49.151l-6.716.559a.55.55 0 0 1-.347-.079.596.596 0 0 1-.242-.28L21.2 29.27c-.076-.25.012-.44.265-.57.185-.093.445-.151.781-.174l6.154-.041z"/>
            <path fill="#9196B2" d="M28.168 28.32a.52.52 0 0 1 .325.084c.102.062.177.15.228.264l1.251 1.612c.147.436.185.833.114 1.188-.073.367-.246.584-.518.656l-5.547.476a.782.782 0 0 1-.524-.114.958.958 0 0 1-.413-.442l-1.069-2.442c-.126-.402-.11-.735.05-.998.16-.267.452-.437.876-.508l5.227.224z"/>
            <path fill="#FFF" d="M28.111 27.784c.262-.018.483.031.664.146a.777.777 0 0 1 .307.345l.813 1.81c.104.233.116.435.038.608-.087.194-.278.32-.572.376l-5.396.392a.534.534 0 0 1-.334-.078.579.579 0 0 1-.233-.267l-.879-1.989c-.107-.292-.098-.54.027-.747.12-.195.31-.3.566-.317l5-.279z"/>
            <path fill="#07081B" d="M18.695 26.51c.094.213.098.366.01.458-.074.081-.238.132-.49.155l-6.714.56a.57.57 0 0 1-.348-.083.602.602 0 0 1-.241-.279l-1.458-3.767c-.075-.25.013-.44.265-.57.186-.095.446-.153.782-.176l6.154-.04a.59.59 0 0 1 .573.361l1.467 3.38z"/>
            <path fill="#9196B2" d="M18.227 24.562c.17.462.209.875.118 1.237-.087.351-.272.564-.555.638l-5.547.481a.812.812 0 0 1-.527-.115.96.96 0 0 1-.41-.445l-1.036-2.474c-.126-.402-.11-.735.049-.998.158-.267.45-.437.877-.509l5.227.225a.54.54 0 0 1 .325.084.59.59 0 0 1 .228.263l1.25 1.613z"/>
            <path fill="#FFF" d="M18.15 24.368c.104.233.116.436.038.608-.087.193-.278.318-.573.376l-5.395.395a.525.525 0 0 1-.335-.081.59.59 0 0 1-.233-.267l-.882-1.99c-.107-.291-.098-.541.027-.746.12-.195.31-.301.57-.317l4.999-.28c.26-.017.483.03.664.147a.783.783 0 0 1 .306.344l.814 1.81z"/>
            <path fill="#07081B" d="M39.194 28.552c-.1-.23-.086-.517.042-.864.143-.366.353-.621.628-.763l10.704.35a.96.96 0 0 1 .622.152.812.812 0 0 1 .288.36l1.262 1.162c.103.44.08.83-.067 1.168-.14.32-.36.513-.659.58l-11.28.793a.477.477 0 0 1-.31-.086.524.524 0 0 1-.214-.276l-1.016-2.576z"/>
            <path fill="#9196B2" d="M41.04 30.455a.473.473 0 0 1-.31-.086.473.473 0 0 1-.213-.266l-1.01-2.524c-.1-.222-.082-.507.053-.853.142-.353.347-.598.617-.734l10.802.324a.904.904 0 0 1 .613.142.77.77 0 0 1 .279.35l.818 1.181c.103.433.082.812-.065 1.138-.141.32-.36.51-.658.57l-10.925.758z"/>
            <path fill="#FFF" d="M41.252 29.345a.479.479 0 0 1-.31-.086.473.473 0 0 1-.214-.266l-.807-2.015c-.097-.297-.088-.548.027-.753a.626.626 0 0 1 .528-.33l10.536-.677a.98.98 0 0 1 .614.142.846.846 0 0 1 .278.35l.746 1.84c.094.234.104.44.03.612-.082.193-.259.32-.53.381l-10.898.802z"/>
            <path fill="#07081B" d="M36.537 21.63c-.1-.229-.086-.517.042-.864.143-.366.352-.621.628-.764l10.703.35a.97.97 0 0 1 .623.153.803.803 0 0 1 .287.36l1.262 1.162c.103.44.081.829-.066 1.168-.14.319-.36.513-.659.58l-11.28.793a.473.473 0 0 1-.31-.087.518.518 0 0 1-.214-.275l-1.016-2.576z"/>
            <path fill="#9196B2" d="M38.383 23.533a.477.477 0 0 1-.31-.086.473.473 0 0 1-.214-.266l-1.009-2.524c-.1-.223-.084-.507.052-.853.142-.354.347-.598.616-.734l10.803.324a.906.906 0 0 1 .613.142c.127.088.22.205.278.35l.82 1.181c.102.433.08.812-.067 1.137-.14.32-.359.51-.658.57l-10.924.76z"/>
            <path fill="#FFF" d="M38.595 22.423a.479.479 0 0 1-.311-.086.473.473 0 0 1-.213-.266l-.807-2.015c-.097-.297-.088-.548.027-.753.108-.198.284-.308.528-.33l10.536-.677a.986.986 0 0 1 .614.142.843.843 0 0 1 .278.35l.747 1.839c.093.236.103.44.029.613-.082.193-.26.32-.531.381l-10.897.802z"/>
            <path fill="#07081B" d="M18.802 29.396a.564.564 0 0 1 .34.084.627.627 0 0 1 .234.273l1.467 3.385c.094.214.097.367.01.46-.073.078-.237.13-.49.151l-6.715.56a.55.55 0 0 1-.347-.08.6.6 0 0 1-.242-.28l-1.457-3.769c-.076-.25.012-.439.265-.569.185-.093.446-.152.78-.174l6.155-.04z"/>
            <path fill="#9196B2" d="M18.57 29.23a.577.577 0 0 1 .553.347l1.25 1.614c.148.436.186.832.115 1.188-.073.366-.246.584-.518.655l-5.547.477a.788.788 0 0 1-.524-.114.955.955 0 0 1-.412-.442l-1.07-2.442c-.126-.402-.11-.735.049-.998.16-.267.453-.437.877-.51l5.227.226z"/>
            <path fill="#FFF" d="M18.513 28.695c.262-.018.483.031.664.146a.782.782 0 0 1 .307.345l.813 1.81c.104.233.116.436.038.609-.087.192-.278.317-.572.375l-5.396.392a.571.571 0 0 1-.567-.344l-.88-1.989c-.106-.293-.097-.542.028-.747.12-.196.309-.301.566-.318l4.999-.279z"/>
            <path fill="#07081B" d="M33.466 15.484c-.101-.23-.086-.52.042-.868.144-.369.354-.625.632-.768l10.756.352a.972.972 0 0 1 .626.153c.133.095.23.216.289.362l1.268 1.168c.104.442.08.833-.067 1.174-.141.321-.361.515-.662.582l-11.337.797a.477.477 0 0 1-.312-.087.521.521 0 0 1-.214-.277l-1.021-2.588z"/>
            <path fill="#9196B2" d="M35.307 17.544a.475.475 0 0 1-.312-.087.473.473 0 0 1-.215-.266l-1.014-2.538c-.1-.223-.084-.508.052-.857.143-.355.35-.6.62-.737l10.856.326a.91.91 0 0 1 .617.142.758.758 0 0 1 .28.352l.822 1.186c.104.436.082.817-.066 1.144-.14.321-.36.511-.66.572l-10.98.763z"/>
            <path fill="#FFF" d="M35.52 16.428a.474.474 0 0 1-.312-.087.473.473 0 0 1-.215-.266l-.811-2.026c-.098-.298-.089-.55.027-.756.109-.199.286-.31.531-.332l10.589-.68a.987.987 0 0 1 .616.142.845.845 0 0 1 .28.352l.75 1.848c.094.237.104.442.029.616-.082.194-.259.322-.533.383l-10.951.806z"/>
            <path fill="#07081B" d="M31.47 10.106c-.1-.227-.084-.513.043-.857.14-.364.349-.616.623-.758l10.616.347a.956.956 0 0 1 .617.152.79.79 0 0 1 .286.358l1.252 1.152c.102.436.08.822-.066 1.159-.14.317-.357.508-.654.574l-11.19.787a.464.464 0 0 1-.307-.086.51.51 0 0 1-.211-.273l-1.008-2.555z"/>
            <path fill="#9196B2" d="M33.28 12.212a.47.47 0 0 1-.307-.086.465.465 0 0 1-.212-.263L31.76 9.36c-.1-.22-.083-.502.052-.846.14-.35.344-.593.612-.728l10.714.322a.893.893 0 0 1 .609.14.755.755 0 0 1 .276.347l.812 1.172c.102.43.08.805-.065 1.128-.14.317-.357.505-.653.565l-10.836.753z"/>
            <path fill="#FFF" d="M33.49 11.111a.47.47 0 0 1-.307-.086.465.465 0 0 1-.212-.263l-.8-1.999c-.097-.295-.088-.544.026-.747.107-.197.282-.306.524-.328l10.452-.671a.984.984 0 0 1 .608.141.833.833 0 0 1 .275.347l.742 1.824c.092.234.102.436.028.608-.081.192-.256.318-.526.379l-10.81.795z"/>
        </g>
    </g>
</svg>
