<svg xmlns="http://www.w3.org/2000/svg" xmlns:xlink="http://www.w3.org/1999/xlink" width="184" height="116" viewBox="0 0 184 116">
    <defs>
        <path id="a" d="M.518 1.197h72.521v74.945H.518z"/>
        <path id="c" d="M.518 1.197h55.898V76.14H.518z"/>
        <path id="f" d="M80.003 64.089C80.003 88.34 65.034 108 46.569 108c-18.464 0-33.434-19.66-33.434-43.911s14.97-43.913 33.434-43.913c18.465 0 33.434 19.662 33.434 43.913"/>
        <filter id="e" width="129.9%" height="122.8%" x="-15%" y="-9.1%" filterUnits="objectBoundingBox">
            <feOffset dy="2" in="SourceAlpha" result="shadowOffsetOuter1"/>
            <feGaussianBlur in="shadowOffsetOuter1" result="shadowBlurOuter1" stdDeviation="3"/>
            <feColorMatrix in="shadowBlurOuter1" values="0 0 0 0 0 0 0 0 0 0 0 0 0 0 0 0 0 0 0.3339434 0"/>
        </filter>
        <path id="g" d="M0 .977h93.032V96.58H0z"/>
    </defs>
    <g fill="none" fill-rule="evenodd">
        <path fill="#F1F1F1" d="M62.425 62.004c0 19.218-11.595 34.8-25.9 34.8-14.303 0-25.9-15.582-25.9-34.8 0-19.218 11.597-34.798 25.9-34.798 14.305 0 25.9 15.58 25.9 34.798"/>
        <path fill="#FDD900" d="M36.583 62.628c-.098.541-.21 1.082-.321 1.623.126-.54.237-1.082.335-1.609.07-.36.126-.707.182-1.04-.07.333-.126.68-.196 1.026M36.479 48.008a.561.561 0 0 1 .07.125h.013v-.014c-.028-.042-.041-.07-.083-.11M39.406 41.92a1.792 1.792 0 0 0-.28-.153c-.125-.07-.278-.125-.418-.195l.419.209c.181.097.363.18.53.29a2.432 2.432 0 0 1-.25-.152"/>
        <path fill="#EC2224" d="M36.51 54.375c.014.167.014.32.014.486.014-.125 0-.236 0-.347 0-.042 0-.097-.014-.139"/>
        <path fill="#221F1D" d="M36.527 54.126v.014l-.014-.014z"/>
        <path fill="#EC2224" d="M36.527 55.323v.042c-.014-.014-.014-.028-.014-.028l.014-.014z"/>
        <path fill="#221F1D" d="M56.403 74.735a.793.793 0 0 1-.098-.277l.028.028c.014.083.042.166.07.25"/>
        <path fill="#D2D2D2" d="M27.59 64.699c-2.694 0-4.886-2.178-4.886-4.855 0-.766.625-1.387 1.396-1.387.77 0 1.396.621 1.396 1.387 0 1.147.94 2.08 2.095 2.08a2.09 2.09 0 0 0 2.094-2.08c0-.766.626-1.387 1.396-1.387.771 0 1.396.621 1.396 1.387 0 2.677-2.192 4.855-4.886 4.855M45.742 64.699c-2.695 0-4.887-2.178-4.887-4.855 0-.766.625-1.387 1.396-1.387.77 0 1.396.621 1.396 1.387 0 1.147.94 2.08 2.095 2.08a2.09 2.09 0 0 0 2.094-2.08c0-.766.625-1.387 1.396-1.387.77 0 1.396.621 1.396 1.387 0 2.677-2.192 4.855-4.886 4.855M46.18 84.035c-.408 0-.796-.238-.965-.635a9.034 9.034 0 0 0-1.963-2.89 9.115 9.115 0 0 0-2.91-1.95 9.29 9.29 0 0 0-7.126 0 9.106 9.106 0 0 0-2.911 1.95 9.048 9.048 0 0 0-1.963 2.89c-.226.53-.836.78-1.373.552a1.035 1.035 0 0 1-.555-1.362 11.17 11.17 0 0 1 2.41-3.554 11.263 11.263 0 0 1 3.575-2.394 11.41 11.41 0 0 1 8.759.002 11.201 11.201 0 0 1 3.576 2.394 11.105 11.105 0 0 1 2.41 3.552 1.038 1.038 0 0 1-.964 1.445"/>
        <g transform="translate(0 12)">
            <mask id="b" fill="#fff">
                <use xlink:href="#a"/>
            </mask>
            <path fill="#DBDADA" d="M56.416 5.636c-2.067-1.152-4.398-2.123-6.995-2.844-1.369-.402-2.807-.707-4.329-.957-2.54-.416-5.291-.638-8.307-.638s-5.767.222-8.322.638c-1.508.25-2.946.555-4.314.957C-.522 9.686-.257 37.386.929 50.203c0 0 .098 1.068.336 2.968 1.452 10.431 5.543 17.81 7.079 20.294v.014s1.242 2.122 2.513 2.552c.112.041.21.055.321.07.154.027.335.027.517.027.642.07 1.954-.167 2.527-.291.167-.028.28-.056.28-.056a4.88 4.88 0 0 1-.168-.277c-1.9-3.33-4.622-11.93-5.125-13.51-.014-.056-.028-.098-.042-.14l-.041-.124c-1.55-5.604-3.728-13.497-3.812-18.643-.028-1.331.084-2.483.377-3.37.251-.75.558-1.443.921-2.123v-.014c1.313-2.4 3.351-4.23 6.297-5.714 4.175-2.095 10.165-3.357 17.858-3.773 1.899-.097 3.91-.153 6.018-.153 10.64 0 18.653 1.318 23.875 3.926 2.946 1.484 4.985 3.315 6.283 5.714v.014c.377.68.684 1.374.922 2.123.307.887.419 2.039.39 3.37-.083 5.146-2.275 13.039-3.81 18.643l-.043.125a1.738 1.738 0 0 0-.042.138c-.516 1.623-3.393 10.695-5.291 13.788 0 0 1.968.444 2.806.347.168 0 .35 0 .517-.028.111-.014.21-.028.32-.07 1.257-.43 2.5-2.551 2.5-2.551v-.014c1.55-2.483 5.627-9.863 7.093-20.294.237-1.9.321-2.968.321-2.968 1.061-11.471 1.396-34.844-16.21-44.567" mask="url(#b)"/>
        </g>
        <g transform="translate(0 12)">
            <mask id="d" fill="#fff">
                <use xlink:href="#c"/>
            </mask>
            <path fill="#E9E9E9" d="M56.416 5.636c-1.16 2.746-2.765 5.382-4.705 7.795-5.404 6.714-13.027 11.347-20.944 14.662a92.834 92.834 0 0 1-6.646 2.524c-4.356 1.484-8.894 3.135-11.924 6.589-2.946 3.384-4.007 8.073-3.825 12.54.195 4.48 1.508 8.821 2.806 13.107.656 2.137 4.077 9.557 3.156 12.65a1.17 1.17 0 0 1-.112.334c-.573.124-1.885.36-2.527.29-.182 0-.363 0-.517-.027a1.332 1.332 0 0 1-.321-.07c-1.27-.43-2.513-2.551-2.513-2.551v-.014c-1.536-2.483-5.627-9.863-7.08-20.294-.237-1.9-.334-2.968-.334-2.968C-.257 37.386-.522 9.686 24.149 2.793c1.368-.403 2.806-.708 4.314-.958 2.555-.416 5.306-.638 8.322-.638 3.016 0 5.766.222 8.307.638 1.522.25 2.96.555 4.329.957 2.597.721 4.928 1.692 6.995 2.844" mask="url(#d)"/>
        </g>
        <path fill="#D7D7D7" d="M50.009 14.995c-11.044 9.738-21.558 3.538-26.082-.124a36.913 36.913 0 0 1 4.384-.971c2.583-.417 5.376-.638 8.434-.638 3.043 0 5.85.221 8.419.638 1.717.277 3.323.652 4.845 1.095"/>
        <path fill="#A7A6A6" d="M36.83 39.117c10.793 0 18.933 1.345 24.211 3.98 2.943 1.474 5.44 3.75 6.58 6.865 1.115 3.055 1.131 6.424.657 9.603-1.299 8.71-4.175 17.411-7.865 25.395-.391.846-.782 1.873-1.438 2.58-1.732-.5-3.31-1.429-3.742-2.746-.168-.513-.224-1.263-.196-2.178.084-2.51 1.215-6.2 2.276-9.793a1.15 1.15 0 0 1 .056-.208c.112-.374.223-.735.321-1.11.14-.43.265-.86.377-1.276a37.654 37.654 0 0 0 1.243-5.909c.76-5.86.635-12.4-4.091-16.714-3.281-2.996-10.04-5.077-18.389-5.077h-.094c-8.35 0-15.109 2.08-18.39 5.077-4.673 4.291-4.855 10.868-4.09 16.714.236 1.817.613 3.8 1.243 5.91.11.415.237.845.377 1.275.098.375.21.736.321 1.11.028.07.04.139.056.208 1.06 3.593 2.192 7.282 2.276 9.793.028.915-.028 1.665-.197 2.178-.433 1.317-2.01 2.247-3.742 2.746-.655-.707-1.047-1.734-1.437-2.58-3.69-7.984-6.566-16.685-7.866-25.395-.475-3.179-.457-6.548.659-9.603 1.138-3.115 3.636-5.391 6.578-6.864 5.279-2.636 13.419-3.981 24.212-3.981h.094z"/>
        <g>
            <path fill="#F1F1F1" d="M173.5 61.752c0 19.533-11.66 35.37-26.042 35.37-14.381 0-26.041-15.837-26.041-35.37 0-19.534 11.66-35.369 26.04-35.369 14.383 0 26.042 15.835 26.042 35.369"/>
            <path fill="#D2D2D2" d="M154.842 81.18h-14.767a1.056 1.056 0 0 1-1.053-1.057c0-.583.472-1.057 1.053-1.057h14.767c.581 0 1.053.474 1.053 1.057 0 .584-.472 1.058-1.053 1.058"/>
            <path fill="#FDD900" d="M147.783 62.386c-.099.552-.211 1.1-.323 1.651.126-.551.238-1.1.337-1.635.07-.368.126-.72.182-1.058-.07.337-.126.69-.196 1.042M147.677 47.527c.029.042.057.085.07.127h.015v-.014c-.028-.042-.042-.07-.085-.113M150.62 41.338a1.796 1.796 0 0 0-.28-.155c-.126-.07-.28-.127-.421-.198l.421.212c.183.099.365.183.534.296a2.44 2.44 0 0 1-.253-.155"/>
            <path fill="#EC2224" d="M147.71 53.998c.013.17.013.324.013.494.014-.127 0-.24 0-.353 0-.042 0-.099-.014-.14"/>
            <path fill="#221F1D" d="M147.726 53.746v.014l-.014-.014z"/>
            <path fill="#EC2224" d="M147.726 54.962v.042c-.014-.014-.014-.028-.014-.028l.014-.014z"/>
            <path fill="#D2D2D2" d="M161.188 62.61h-5.285a.718.718 0 0 1 0-1.436h5.285a.718.718 0 0 1 0 1.435"/>
            <path fill="#D2D2D2" d="M155.902 61.88l5.286.025c.006 0 .013-.009.013-.013l-5.299-.012zm5.286 1.435h-5.286c-.78 0-1.416-.639-1.416-1.423a1.42 1.42 0 0 1 1.416-1.422h5.286a1.422 1.422 0 1 1 0 2.845zM140.056 62.61h-5.286a.718.718 0 0 1 0-1.436h5.286a.718.718 0 0 1 0 1.435"/>
            <path fill="#D2D2D2" d="M134.77 61.88l5.286.025c.005 0 .012-.009.012-.013l-5.298-.012zm5.286 1.435h-5.286c-.78 0-1.416-.639-1.416-1.423a1.42 1.42 0 0 1 1.416-1.422h5.286a1.422 1.422 0 1 1 0 2.845z"/>
            <path fill="#DBDADA" d="M167.203 16.511c-2.078-1.17-4.422-2.157-7.033-2.89-1.376-.409-2.822-.719-4.352-.972-2.555-.423-5.32-.649-8.353-.649-3.032 0-5.798.226-8.367.649-1.516.253-2.962.563-4.338.972-24.806 7.007-24.539 35.162-23.346 48.189 0 0 .099 1.085.337 3.018 1.46 10.6 5.574 18.1 7.118 20.624v.015s1.25 2.157 2.527 2.594c.112.042.21.056.323.07.154.028.336.028.519.028.646.07 1.965-.169 2.54-.296.17-.028.282-.056.282-.056-.056-.085-.113-.183-.169-.282-1.909-3.384-4.646-12.123-5.152-13.732-.014-.056-.028-.097-.042-.14l-.042-.128c-1.558-5.695-3.748-13.717-3.833-18.948-.028-1.353.085-2.524.38-3.426.252-.761.561-1.466.926-2.157v-.014c1.32-2.439 3.37-4.3 6.331-5.809 4.198-2.128 10.22-3.411 17.956-3.834 1.909-.099 3.93-.155 6.05-.155 10.697 0 18.755 1.339 24.006 3.99 2.962 1.508 5.012 3.369 6.317 5.808v.014c.38.69.688 1.396.927 2.157.309.902.42 2.073.393 3.426-.084 5.23-2.288 13.253-3.833 18.948l-.042.127c-.014.044-.028.085-.042.141-.52 1.65-3.411 10.87-5.32 14.014 0 0 1.979.451 2.821.352.169 0 .351 0 .52-.028.112-.014.21-.028.323-.07 1.263-.437 2.512-2.594 2.512-2.594v-.015c1.559-2.523 5.658-10.023 7.132-20.624.239-1.933.323-3.018.323-3.018 1.067-11.66 1.404-35.416-16.299-45.299"/>
            <path fill="#E9E9E9" d="M167.203 16.511c-1.165 2.792-2.78 5.47-4.73 7.924-5.434 6.823-13.099 11.532-21.058 14.902a92.72 92.72 0 0 1-6.683 2.566c-4.38 1.508-8.942 3.186-11.989 6.696-2.962 3.44-4.029 8.206-3.846 12.745.196 4.554 1.516 8.967 2.822 13.323.66 2.171 4.099 9.714 3.172 12.858-.028.127-.056.24-.112.338-.576.127-1.895.367-2.541.296-.183 0-.365 0-.52-.028a1.327 1.327 0 0 1-.322-.07c-1.278-.437-2.527-2.594-2.527-2.594v-.015c-1.544-2.523-5.658-10.023-7.118-20.624-.238-1.933-.337-3.018-.337-3.018-1.193-13.027-1.46-41.182 23.346-48.189 1.376-.409 2.822-.719 4.338-.972 2.57-.423 5.335-.649 8.367-.649 3.032 0 5.798.226 8.353.649 1.53.253 2.976.563 4.352.972 2.611.733 4.955 1.72 7.033 2.89"/>
            <path fill="#D7D7D7" d="M160.76 13.829c-11.104 9.897-21.675 3.595-26.223-.127a36.772 36.772 0 0 1 4.408-.987c2.597-.423 5.405-.648 8.479-.648 3.06 0 5.882.225 8.465.648 1.727.282 3.341.663 4.872 1.114"/>
            <path fill="#A7A6A6" d="M147.51 38.345c10.852 0 19.036 1.368 24.343 4.047 2.96 1.495 5.47 3.809 6.615 6.977 1.122 3.103 1.138 6.527.661 9.762-1.305 8.85-4.197 17.694-7.908 25.81-.393.86-.786 1.903-1.446 2.622-1.74-.508-3.327-1.454-3.762-2.792-.168-.521-.225-1.283-.197-2.213.085-2.552 1.222-6.302 2.289-9.954.014-.07.028-.14.056-.211.112-.382.224-.747.323-1.128.14-.437.266-.874.379-1.297a38.616 38.616 0 0 0 1.25-6.007c.763-5.956.638-12.601-4.114-16.987-3.3-3.046-10.094-5.16-18.489-5.16h-.095c-8.395 0-15.191 2.114-18.489 5.16-4.7 4.362-4.882 11.046-4.113 16.987a38.293 38.293 0 0 0 1.25 6.007c.112.423.238.86.378 1.297.099.38.211.746.323 1.128.028.07.041.14.056.211 1.066 3.652 2.204 7.402 2.289 9.954.028.93-.028 1.692-.198 2.213-.435 1.338-2.02 2.284-3.761 2.792-.66-.72-1.053-1.763-1.446-2.623-3.71-8.115-6.602-16.959-7.91-25.81-.477-3.234-.458-6.658.663-9.761 1.144-3.168 3.656-5.482 6.614-6.977 5.308-2.68 13.492-4.047 24.344-4.047h.095z"/>
        </g>
        <g>
            <g transform="translate(45)">
                <use fill="#000" filter="url(#e)" xlink:href="#f"/>
                <use fill="#FFF" xlink:href="#f"/>
            </g>
            <path fill="#221F1D" d="M116.728 80.229c-.12-.12-.167-.202-.167-.238l.047.024a.96.96 0 0 0 .12.214"/>
            <path fill="#FDD900" d="M91.676 64.28c-.167.728-.358 1.455-.549 2.182.215-.727.406-1.454.573-2.163.12-.484.215-.95.31-1.398-.119.447-.214.914-.334 1.38M91.497 45.639c.048.036.096.071.12.107h.023v-.012c-.047-.036-.071-.06-.143-.095M95.533 38.655a4.605 4.605 0 0 0-.478-.131c-.214-.06-.477-.107-.716-.166l.716.178c.311.083.621.154.908.25-.143-.037-.287-.084-.43-.131"/>
            <path fill="#EC2224" d="M91.552 53.792c.023.143.023.273.023.416.024-.107 0-.202 0-.297 0-.036 0-.083-.023-.119"/>
            <path fill="#221F1D" d="M91.58 53.994v.012l-.023-.012z"/>
            <path fill="#EC2224" d="M91.58 55.169v.036c-.023-.012-.023-.024-.023-.024l.024-.012z"/>
            <path fill="#FDD900" d="M104.692 32.697h.024v-.119c-.024.071-.024.119-.024.119"/>
            <path fill="#EB1D24" d="M104.811 32.643h-.024c-.024 0-.095 0-.19-.012.07 0 .142 0 .214.012"/>
            <g transform="translate(45)">
                <mask id="h" fill="#fff">
                    <use xlink:href="#g"/>
                </mask>
                <path fill="#FDD900" d="M71.707 6.64c-2.65-1.47-5.642-2.708-8.973-3.628-1.755-.513-3.6-.902-5.553-1.22-3.26-.532-6.788-.815-10.657-.815-3.868 0-7.397.283-10.675.814-1.934.319-3.779.708-5.534 1.221C-1.334 11.806-.994 47.142.529 63.492c0 0 .125 1.362.43 3.786 1.862 13.306 7.11 22.72 9.08 25.887v.017s1.595 2.708 3.225 3.256c.143.053.268.07.411.089.197.035.43.035.663.035.824.088 2.508-.212 3.242-.372.215-.035.358-.07.358-.07a6.218 6.218 0 0 1-.215-.354c-2.436-4.247-5.928-15.217-6.573-17.235-.018-.07-.036-.123-.054-.177l-.053-.159c-1.989-7.148-4.783-17.216-4.89-23.78-.036-1.7.107-3.168.483-4.3.323-.956.717-1.84 1.183-2.708v-.018c1.683-3.06 4.298-5.396 8.077-7.29 5.356-2.671 13.04-4.282 22.909-4.812a152.13 152.13 0 0 1 7.72-.195c13.648 0 23.929 1.68 30.627 5.007 3.78 1.894 6.395 4.23 8.06 7.29v.018c.484.867.878 1.752 1.182 2.707.394 1.133.538 2.601.502 4.3-.108 6.565-2.92 16.633-4.89 23.781l-.053.16a2.207 2.207 0 0 0-.054.176c-.663 2.07-4.353 13.643-6.789 17.589 0 0 2.526.566 3.6.442.216 0 .448 0 .663-.035.144-.018.269-.036.412-.089 1.612-.548 3.206-3.256 3.206-3.256v-.017c1.988-3.168 7.219-12.581 9.1-25.887.304-2.424.411-3.787.411-3.787 1.361-14.633 1.791-44.448-20.795-56.852" mask="url(#h)"/>
            </g>
            <path fill="#FACC0A" d="M116.644 6.81c-1.485 3.48-3.543 6.818-6.03 9.876-6.926 8.505-16.697 14.375-26.843 18.575a119.853 119.853 0 0 1-8.519 3.198c-5.583 1.88-11.399 3.972-15.282 8.347-3.776 4.288-5.136 10.228-4.904 15.886.25 5.676 1.933 11.177 3.597 16.607.841 2.706 5.226 12.107 4.045 16.026a1.47 1.47 0 0 1-.143.422c-.734.158-2.416.457-3.24.369-.232 0-.465 0-.662-.035a1.724 1.724 0 0 1-.411-.088c-1.629-.545-3.221-3.233-3.221-3.233v-.018c-1.969-3.146-7.212-12.494-9.073-25.71-.305-2.407-.43-3.76-.43-3.76-1.52-16.237-1.861-51.33 29.76-60.064 1.754-.51 3.597-.897 5.53-1.213 3.275-.527 6.8-.808 10.665-.808 3.866 0 7.391.281 10.648.808 1.95.316 3.794.703 5.548 1.213 3.328.913 6.317 2.144 8.965 3.602"/>
            <path fill="#EF4F5C" d="M108.286 3.259c-14.158 11.637-27.635 4.227-33.434-.15a50.283 50.283 0 0 1 5.62-1.16c3.311-.497 6.89-.762 10.81-.762 3.902 0 7.5.265 10.793.762 2.202.332 4.26.78 6.21 1.31"/>
            <path fill="#0B0A52" d="M91.63 34.418c13.783 0 24.179 1.714 30.919 5.073 3.757 1.876 6.947 4.779 8.4 8.75 1.426 3.892 1.448 8.184.841 12.238-1.658 11.1-5.333 22.19-10.044 32.365-.499 1.078-.998 2.386-1.836 3.288-2.211-.637-4.226-1.821-4.779-3.5-.214-.654-.285-1.61-.25-2.776.107-3.2 1.552-7.902 2.907-12.48.018-.089.036-.177.071-.266.143-.477.286-.937.41-1.414.179-.548.34-1.096.482-1.626a47.903 47.903 0 0 0 1.587-7.531c.97-7.47.811-15.803-5.225-21.302-4.19-3.819-12.82-6.47-23.483-6.47h-.123c-10.663 0-19.293 2.651-23.483 6.47-5.97 5.47-6.2 13.85-5.225 21.302a47.903 47.903 0 0 0 1.587 7.53c.143.53.303 1.079.482 1.627.125.477.267.937.41 1.414.036.089.053.177.071.265 1.355 4.579 2.8 9.281 2.907 12.481.035 1.167-.036 2.122-.25 2.776-.553 1.679-2.568 2.863-4.779 3.5-.838-.902-1.337-2.21-1.836-3.288-4.711-10.176-8.386-21.265-10.044-32.365-.607-4.054-.583-8.346.841-12.239 1.453-3.97 4.643-6.873 8.4-8.749 6.74-3.359 17.136-5.073 30.919-5.073h.123z"/>
            <path fill="#EF4F5C" d="M82.309 84.882c.494 4.8 4.457 8.55 9.259 8.55 4.802 0 8.767-3.75 9.261-8.55-3.392-.399-15.128-.399-18.52 0m9.259 11.25c-6.584 0-11.94-5.5-11.94-12.263 0-1.4 0-1.979 11.94-1.979 11.942 0 11.942.58 11.942 1.98 0 6.761-5.358 12.262-11.942 12.262M80.924 75.956c15.35-23.987 1.545-27.517-2.838-25.704-4.39 1.814-4.628 7.673-4.628 7.673s-4.312-3.978-8.698-2.164c-4.378 1.81-11.658 14.06 16.164 20.195M117.185 55.762c-4.387-1.814-8.7 2.163-8.7 2.163s-.237-5.858-4.627-7.674c-4.382-1.81-18.19 1.719-2.84 25.705 27.825-6.135 20.542-18.385 16.167-20.194"/>
        </g>
    </g>
</svg>
