<svg xmlns="http://www.w3.org/2000/svg" width="37" height="30" viewBox="0 0 37 30">
    <g fill="none" fill-rule="evenodd">
        <path fill="#25883F" d="M9.637 0h22.42a4 4 0 0 1 3.912 4.835l-4.694 22A4 4 0 0 1 27.363 30H4.943a4 4 0 0 1-3.912-4.835l4.694-22A4 4 0 0 1 9.637 0z"/>
        <path fill="#FFF" fill-rule="nonzero" d="M13.563 18.196H10.5a.5.5 0 0 1-.481-.635l.388-1.383a.5.5 0 0 1 .482-.365h3.186l.697-3.195H11.65a.5.5 0 0 1-.487-.615l.329-1.394a.5.5 0 0 1 .486-.385h3.317l.832-3.83A.5.5 0 0 1 16.616 6h1.58a.5.5 0 0 1 .488.606l-.786 3.618h2.568l.81-3.828a.5.5 0 0 1 .49-.396h1.668a.5.5 0 0 1 .489.607l-.796 3.617h2.694a.5.5 0 0 1 .49.596l-.27 1.393a.5.5 0 0 1-.49.405h-2.947l-.697 3.195h2.807a.5.5 0 0 1 .487.612l-.316 1.383a.5.5 0 0 1-.488.388h-3.013l-.833 3.83a.5.5 0 0 1-.488.394H18.49a.5.5 0 0 1-.489-.603l.767-3.621h-2.58l-.832 3.83a.5.5 0 0 1-.489.394h-1.602a.5.5 0 0 1-.489-.606l.786-3.618zm3.82-5.578l-.695 3.195h2.536l.702-3.195h-2.544z"/>
    </g>
</svg>
