<svg xmlns="http://www.w3.org/2000/svg" width="312" height="164" viewBox="0 0 312 164">
    <g fill="none" fill-rule="evenodd">
        <path fill="#E5EFF9" d="M101.937 135.67s-55.786-14.275-49.423-56.438c3.155-20.903 9.465-31.356 23.134-50.169C96.299.643 132.432-9.609 163.979 14.431c31.28 23.836 67.36 10.77 83.072 22.993 48.371 37.627-16.825 79.434-39.959 91.975-31.441 17.047-105.155 6.272-105.155 6.272"/>
        <path fill="#E3F2FF" d="M80.639 130.702c-10.635-2.643-20.39-17.76-25.257-14.534-3.99 2.642 9.305 11.891 9.305 11.891-11.964-3.963-24.991-24.894-29.246-19.82-6.647 7.929 14.623 17.178 14.623 17.178s-14.623-3.964-15.952 1.321c-1.961 7.797 22.599 5.285 22.599 5.285s-18.611 2.642-11.964 6.607c6.848 4.084 22.599-6.607 22.599-3.965 0 3.314-11.964 6.608-5.318 9.25 5.089 2.023 15.168-3.121 19.94-3.964 11.666-2.06 22.169-3.251 22.169-3.251s-12.863-3.356-23.498-5.998"/>
        <path fill="#C0E1F9" d="M117.713 148.222s-7.47-22.3-25.234-23.67c-17.764-1.369-16.397 10.705-7.418 14.376 8.979 3.672 17.602-1.129 32.652 9.294"/>
        <path fill="#E3F2FF" d="M109.626 144.304s-5.547-2.477-10.63-1.638c-3.571.59-8.91 2.573-7.595 5.594 1.314 3.021 6.26 1.94 10.316-.708 3.412-2.227 7.909-3.248 7.909-3.248"/>
        <path fill="#E5F4F9" d="M117.632 148.642c-7.97-11.712-18.096-15.802-25.187-17.172-7.701-1.488-13.594-.182-13.653-.168l-.184-.799c.238-.054 24.129-5.213 39.707 17.68l-.683.459z"/>
        <path fill="#E3F2FF" d="M229.635 146.237c7.48-1.899 23.725 2.15 29.51-5.068 7.704-9.613-7.579-16.537 10.552-27.325 18.131-10.787.826-16.46-11.518.68-18.147 25.195-5.396-6.982-14.939-4.802-6.494 1.483-14.296 9.096-17.31 19.563-31.384 6.107-8.384 20.022 3.705 16.952"/>
        <path fill="#F5FDFF" d="M224.135 132.458l-.81-.007c.104-14.786 20.388-24.181 27.053-27.27 7.43-3.44 11.531-11.409 11.572-11.49l.723.362c-.17.336-4.265 8.295-11.954 11.857-6.55 3.035-26.484 12.27-26.584 26.548"/>
        <path fill="#C0E1F9" d="M238.64 111.632s-.29-4.667 2.767-9.025c3.056-4.358 3.43-7.495 3.43-7.495s2.173 5.85-.365 10.488c-2.538 4.639-5.833 6.032-5.833 6.032M241.267 110.634s2.404-2.65 8.47-2.28c6.065.37 7.557 1.317 9.824-.028 0 0-4.49 4.807-10.557 4.436-6.065-.37-7.737-2.128-7.737-2.128M250.55 105.546s2.446-2.017 8.004-2.35c3.435-.207 4.804-1.412 5.086-1.928-.046 1.312-2.015 5.02-7.578 5.254-3.439.145-5.513-.976-5.513-.976M253.796 103.294s-1.092-6.6 5.968-12.134c0 0-1.174 3.373-1.219 4.684-.046 1.31-.464 5.76-4.749 7.45M258.409 99.777s2.82-5.155 10.262-6.475c0 0-2.26 2.866-3.858 4.594-3.293 3.562-6.404 1.88-6.404 1.88M253.596 93.836s-5.222 5.86-6.395 9.232c-1.173 3.373-1.219 4.684-1.219 4.684s4.003-1.175 6.304-6.61c2.302-5.434 1.31-7.306 1.31-7.306M229.18 120.04s4.94-5.344 10.498-5.679c5.558-.335 9.188 1.628 9.188 1.628s-5.886 2.161-9.652 4.132c-2.153 1.127-9.279.995-10.034-.081"/>
        <path fill="#C0E1F9" d="M261.748 94.903s-.665-3.699 2.865-6.465c2.165-1.502 3.292-3.563 3.575-4.078.282-.516-.319 9.178-6.44 10.543M228.294 133.239c1.22-5.546 7.331-11.864 16.818-13.008 14.94-1.802 14.41 8.131 7.044 11.713-6.255 3.042-12.629.922-21.825 6.092-1.634.92-2.835-1.166-2.037-4.797M223.447 129.729c-1.622-8.28-3.86-20.837.534-29.717 7.165-14.484 14.45-2.71 13.18 5.994-1.098 7.515-5.302 12.766-9.206 25.79-.618 2.06-4.245-.726-4.508-2.067M226.293 143.018s1.473-3.255 5.893-4.558c3.54-1.045 8.84-.491 9.004 2.437.165 2.929-2.619 1.79-7.039.98-3.716-.684-7.858 1.14-7.858 1.14"/>
        <path fill="#E5F4F9" d="M229.713 135.842l-.604-.534c12.041-13.455 28.724-11.596 28.89-11.58l-.099.799c-.16-.02-16.434-1.82-28.187 11.315M226.003 130.56h-.81c0-25.532 6.456-37.588 6.521-37.708l.71.385c-.065.117-6.42 12.023-6.42 37.323"/>
        <path fill="#B2CFEA" d="M214.45 49.324l33.653-4.583c3.155 1.044 4.205 5.493 4.205 6.615V83.47c0 1.121-1.101 2.03-2.461 2.03l-45.647.002c-1.887 0-5.52-3.35-5.52-5.225l2.103-30.311 13.667-.642z"/>
        <path fill="#88C4EA" d="M80.527 116.04c3.067 2.14 20.48 19.411 27.722 30.232.539.806 1.652 1.037 2.35.378 8-7.552 18.333-16.5 18.333-16.5l-7.143-6.524s-10.412-16.783-23.981-26.034a1.487 1.487 0 0 0-1.514-.096c-2.45 1.246-13.078 8.786-16.306 16.554-.298.718-.086 1.554.539 1.99"/>
        <path fill="#D0E4F4" d="M106.078 138.218c-4.72-5.81-13.865-17.76-18.922-21.603-.202-.066 1.675-2.147-1.388-4.748.09-.048 6.028-6.325 9.63-9.116.46.687 2.094 2.136 4.02.263 2.886 1.584 16.04 13.478 24.322 26.85-.064.202-10.58 9.185-11.85 10.543-.93-2.852-3.983-2.834-5.812-2.19"/>
        <path fill="#70D4DF" d="M108.776 117.08c2.939 3.471 3.356 8.084.933 10.302-2.424 2.22-6.771 1.204-9.71-2.267-2.94-3.472-3.357-8.085-.933-10.302 2.424-2.22 6.77-1.204 9.71 2.267"/>
        <path fill="#88C4EA" d="M87.844 103.742c2.582 3.514 15.417 29.04 19.459 43.623.3 1.083 1.433 1.765 2.429 1.315 11.408-5.154 25.855-10.93 25.855-10.93l-5.465-9.862s-4.067-21.854-15.566-37.16c-.383-.509-2.308-1.217-2.925-1.134-3.113.415-17.382 4.545-23.666 11.77-.581.668-.647 1.661-.121 2.378"/>
        <path fill="#D0E4F4" d="M107.804 137.75c-3.08-8.15-8.793-24.696-12.938-30.832-.197-.148 2.589-1.696.177-5.709.114-.018 8.822-4.574 13.74-6.23.258.923 1.524 3.132 4.289 1.832 2.582 2.836 12.688 20.865 16.959 38.627-.143.195-14.803 5.941-16.67 6.933 0-3.467-3.334-4.622-5.557-4.622"/>
        <path fill="#88C4EA" d="M114.717 122.09l-1.029.386-.395-1.04c-.775-2.046-1.938-2.864-3.134-2.567l1.637 4.317-.83.31-1.616-4.26c-.862.626-.963 1.81-.338 3.457l.51 1.344-1.079.404-3.022-7.97.83-.311 1.184 3.124c.174-.693.571-1.295 1.291-1.694l-.782-2.063.83-.312.775 2.045c1.765-.446 3.425.684 4.41 3.082.785-1.98 1.867-4.224 2.974-6.454l.69 1.817c-1 2.061-1.92 3.984-2.906 6.386m4.333-6.628c-1.983-4.909-6.649-7.585-10.42-5.976-3.773 1.608-5.224 6.892-3.24 11.8 1.983 4.91 6.65 7.585 10.421 5.977 3.772-1.608 5.222-6.892 3.24-11.8"/>
        <path fill="#79A9CC" d="M220.891 145.569c-3.947 0-7.146-3.29-7.146-7.346a7.403 7.403 0 0 1 2.714-5.755c.298.83.49 1.342.518 1.368.221.516.896.673 1.655.577l.03.086c-1.327.672-2.245 2.028-2.245 3.61 0 2.245 1.832 4.065 4.092 4.065s4.091-1.82 4.091-4.066c0-2.145-1.677-3.883-3.796-4.036l-.167-.478c.597-.468.943-1.09.676-1.765-.049-.145-.16-.48-.318-.944 3.9.058 7.042 3.318 7.042 7.338 0 4.057-3.2 7.346-7.146 7.346m0-19.567c-.507 0-1.002.043-1.49.106-1.739-5.206-4.016-12.031-4.016-12.031l-4.813 1.41s2.37 6.914 4.227 12.254c-3.47 2.135-5.8 6.025-5.8 10.482 0 6.75 5.324 12.222 11.892 12.222 6.567 0 11.892-5.472 11.892-12.222 0-6.75-5.325-12.221-11.892-12.221"/>
        <path fill="#FFFFF5" d="M209.779 90.576c.802 1.545.772 3.235.297 3.918-.723 1.037-2.24 1.06-3.356 1.092a20.6 20.6 0 0 1-1.24-.008c-.157-.005-.314-.012-.472-.019a16.836 16.836 0 0 1-.391-.024c-.12-.01-.24-.02-.36-.034-.05-.006-.593-.092-.595-.085.132-.445.34-.336-.092-.478-3.19-1.062-6.221-4.391-6.183-4.665.044-.307 5.658-3.12 6.1-3.492.259-.217.582-.336.91-.393.47-.08.964-.034 1.4.165.476.219 1.04.42 1.43.778.997.913 1.91 2.01 2.552 3.245"/>
        <path fill="#79A9CC" d="M212.78 110.655c-.135-1.304-.791-2.486-1.47-3.597-1.625-2.666-3.46-5.189-5.307-7.695-.223-.302-.47-.62-.822-.73-.582-.179-1.148.277-1.628.662-.141.115-6.241-10.44-7.051-9.688-.504.466-1.028.911-1.57 1.332-.182.142-.371.284-.503.477-.291.422-.253.998-.126 1.499.21.836.628 1.597 1.042 2.347l.71 1.285c.954 1.72 7.818 15.238 8.466 17.39 1.122 3.722-1.595 9.59-3.581 13.815-.025.054-.046.11-.07.165-.328.75-1.826 3.796-4.43 3.652-4.59-.253-6.245-.634-10.815-1.139a947.306 947.306 0 0 1-7.867-.906c-3.847-.46-6.845-2.97-10.64-2.174-.82.17-2.675 2.545-2.926 3.365-.227.747.23 1.527.75 2.098 1.787 1.965 4.457 2.855 7.066 3.076 2.608.22 5.224-.15 7.836-.314 8.002-.5 16.073.942 24.026-.09.68-.088.766-.711.533-1.568 1.81-.51 2.996-2.366 3.823-4.134.669-1.43 1.244-2.904 1.819-4.376 1.067-2.74 2.146-5.528 2.412-8.466.11-1.22.078-2.452.186-3.671.077-.871.226-1.746.137-2.615"/>
        <path fill="#FFCF48" d="M230.36 122.628l-.007-.01c-1.12-1.725-20.413-22.866-22.395-24.712l-.145-.043c-.424-.268-1.495-.713-3.46-.299a8.46 8.46 0 0 0-.266-.519l.001-.347c0-.088.003-.183.056-.254.064-.088.181-.107.287-.122.875-.114 3.003-.33 4.776-1.124-3.649.102-8.785-1.89-8.905-5.466-.047-1.388 7.156-1.49 7.64-1.61.063-.238-.742-.825-.913-.987a20.257 20.257 0 0 0-1.076-.953c-6.954-5.63-13.055 4.303-13.205 4.52-.329.48-.287 1.13-.142 1.695.238.944.71 1.804 1.177 2.651.268.484.534.969.803 1.452.772.26 1.583.403 2.39.467.1.03.198.061.285.096 2.9 1.145 5.127 3.583 6.997 6.132.14.194.273.392.412.587.198.351.397.7.596 1.05l2.825 4.985c.648 1.142 1.432 2.224 1.932 3.445.073.178.138.355.197.531.196.589.316 1.176.351 1.78.03.464.006.939-.07 1.429-.087.566-.22 1.129-.385 1.681-.452 1.526-1.137 3.001-1.74 4.442-.144.346-.29.691-.442 1.033-.106.24-.436.704-.436.962a48.411 48.411 0 0 1-2.633 4.894c-.137.223-.277.447-.412.674a20.52 20.52 0 0 0-.416.69c-.582 1.056-1.81 3.798-8.446 3.808-2.44-.132-4.88-.286-7.31-.548-3.133-.339-12.403-1.613-19.21-4.041-.52-.186-.549-.929-.048-1.161.816-.38 1.657-.738 2.477-.703 1.937.084 12.935 2.356 12.946 2.354.08-.01 1.506.04 1.671-.412.238-.65.09-1.384-.133-2.04-.533-1.58-1.103-1.967-1.313-3.625-.184-1.45.296-2.894.762-4.277.482-1.435 2.832-5.612 1.512-6.747-1.469-1.264-3.406-1.935-5.238-2.397-3.99-1.008-9.805 1.147-13.914 1.176-.7.006-1.463.211-2.125-.046-.986-.383-2.12-.524-3.2-1.014.17.783.661 1.454 1.263 1.97-2.353-1.043-4.728-2.033-7.165-2.854a70.833 70.833 0 0 0-3.175-.974 28.17 28.17 0 0 1-1.289-.608 16.968 16.968 0 0 1-1.79-1.032 12.223 12.223 0 0 1-.926-.687 13.341 13.341 0 0 1-.842-.73c-.37-.337-.716-.705-1.044-1.086a3.942 3.942 0 0 1-.245-.294c-.054-.067-.114-.135-.168-.208-.095-.124-.19-.246-.28-.375l-.012-.012a4.741 4.741 0 0 1-.626-.75c-.329-.47-.675-.956-.884-1.495a.366.366 0 0 1-.024-.24c.035-.11.12-.16.22-.166.02-.005.037-.005.048-.005-.01 0-.024-.007-.04-.007h-.008c-.31-.067-1.032-.197-1.629-.184 0 0-.723.093-.436.853 0 0 .233 1.068 2.078 4.607 0 0 .048.392.475.82-.586.131-1.103.487-1.593.846a46.707 46.707 0 0 0-7.213 6.568c-.25.282-.513.601-.525.983-.012.382.222.7.47 1.014l.011.015h-.022c.277.35.568.696.545 1.123-.09.005-.225.138-.342.327-.203.32-.356.8-.129 1.028.36.36.838.576 1.19.944.4.414.573 1.013.952 1.45 1.087 1.253 2.316 1.415 3.524 1.603.391.06.782.124 1.171.192l.42.074.108.02c.164.03.33.06.493.092a.152.152 0 0 1-.008-.02l.018.005c6.08 1.156 12 3.17 17.734 5.569.134.056.502.387.897.748.477.438.988.916 1.175 1.013 2.42 2.095 6.057 5.274 6.91 5.64.716.309 29.43 3.588 32.767 1.467 2.811-1.662 9.811-19.71 18.901-16.504 6.507 2.294 7.176 1.64 7.176.936a1.29 1.29 0 0 0-.24-.753z"/>
        <path fill="#79A9CC" d="M197.359 92.386c-.29-1.217-1.368-1.994-2.411-1.735-.643.158-1.12.673-1.326 1.328.302-.135.583-.262.82-.376 1.534-.737 2.99 1.7 1.26 2.716-.248.14-.614.326-1.026.531.4.232.862.316 1.316.204 1.043-.258 1.655-1.452 1.367-2.668"/>
        <path fill="#79A9CC" d="M194.442 91.603a30.03 30.03 0 0 1-.82.375c-1.36.602-3.176 1.33-3.631 1.511.638-.226 1.412.119 1.809.844.39.714.285 1.552-.214 1.996l.002.003s1.78-.83 3.088-1.481c.412-.205.778-.393 1.026-.532 1.73-1.017.274-3.453-1.26-2.716"/>
        <path fill="#79A9CC" d="M191.8 94.333c-.397-.725-1.17-1.07-1.81-.844l-.093.037-.014.007c-.028.014-.057.027-.085.043-.667.381-.852 1.34-.414 2.142.438.799 1.334 1.139 2.001.756.073-.042.14-.09.2-.145.5-.444.606-1.282.215-1.996"/>
        <path fill="#EF4F5C" d="M225.416 116.891s-14.462-7.866-16.665-5.897c0 0-1.43-2.535-1.84-3.284 5.317-.877 12.913 2.978 14.977 5.255 1.302 1.447 3.528 3.926 3.528 3.926"/>
        <path fill="#113456" d="M176.242 149.238H135.3c-6.911 0-12.514-5.57-12.514-12.44V37.32c0-6.869 5.603-12.437 12.514-12.437h40.94c6.912 0 12.515 5.568 12.515 12.437V136.8c0 6.869-5.603 12.439-12.514 12.439"/>
        <path fill="#1872B5" d="M174.522 146.559H137.02c-8.171-.131-11.887-4.152-11.887-10.776l.23-98.67c0-6.625 5.092-9.634 11.657-9.634h7.506c0 1.797 1.45 3.734 3.232 3.723h17.002c1.766-.01 3.19-1.941 3.19-3.723h6.57c6.566 0 11.888 3.01 11.888 9.633v98.671c-.258 7.194-3.731 10.645-11.887 10.776"/>
        <path fill="#B2CFEA" d="M198.638 56.633l-9.888-5.202-.018-4.986 12.051 3.521z"/>
        <path fill="#EFF8F9" d="M144.065 43.53h-8.77c-.552 0-1-.445-1-.994v-5.383c0-.55.448-.994 1-.994h8.77c.553 0 1 .444 1 .994v5.383c0 .55-.447.994-1 .994"/>
        <path fill="#113456" d="M177.45 39.22h-27.077c-.552 0-1-.444-1-.994v-1.073c0-.55.448-.994 1-.994h27.078c.553 0 1 .444 1 .994v1.073c0 .55-.447.994-1 .994"/>
        <path fill="#EFF8F9" d="M144.065 59.747h-8.77c-.552 0-1-.445-1-.994V53.37a.997.997 0 0 1 1-.994h8.77c.553 0 1 .445 1 .994v5.384a.997.997 0 0 1-1 .994"/>
        <path fill="#113456" d="M177.45 55.551h-27.077c-.552 0-1-.445-1-.994V53.37a.997.997 0 0 1 1-.993h27.078c.553 0 1 .445 1 .993v1.188a.997.997 0 0 1-1 .994"/>
        <path fill="#EFF8F9" d="M144.065 75.964h-8.77c-.552 0-1-.444-1-.994v-5.383c0-.55.448-.994 1-.994h8.77c.553 0 1 .444 1 .994v5.383c0 .55-.447.994-1 .994"/>
        <path fill="#113456" d="M177.45 71.881h-27.077c-.552 0-1-.445-1-.994v-1.3a.997.997 0 0 1 1-.995h27.078c.553 0 1 .446 1 .994v1.301a.997.997 0 0 1-1 .994"/>
        <path fill="#B2CFEA" d="M126.123 39.515l-16.178-2.547V12.632c0-1.218-.955-2.207-2.133-2.207L54.617 7.114c-3.199 0-5.371 4.212-5.257 7.523l.004 28.92c0 1.22.955 2.207 2.133 2.207h47.147l26.338-.022c1.141-2.046 1.141-4.02 1.141-6.227"/>
        <path fill="#DCE9F4" d="M94.055 9.321L72.066 8.245 54.617 7.114s-5.257 0-5.257 7.523l.004 28.92c0 1.22.955 2.207 2.133 2.207h12.234S95.233 9.321 94.055 9.321"/>
        <path fill="#113456" d="M131.38 39.515l-8.574.997-.1 5.274 2.276-.044c5.347-2.046 6.399-5.124 6.399-6.227M188.763 45.731l-.02 5.817s-4.785-1.582-5.298-6.309c-.119-1.1 5.318.492 5.318.492M121.755 55.144l-.1 5.274 2.365 2.09c4.296-2.045 7.36-8.36 5.257-8.36-.533 0-7.522.996-7.522.996M189.115 36.082l.102 3.955-2.397 1.568c-4.352-1.534-7.46-6.271-5.327-6.271.54 0 7.622.748 7.622.748"/>
        <path fill="#F0F4F7" d="M130.759 38.78l-17.36-6.529V9.205c0-1.155-.942-2.09-2.103-2.09H54.73a2.097 2.097 0 0 0-2.103 2.09V38.49c0 1.154.942 2.09 2.103 2.09h47.527l28.203.171c1.037.007 1.28-1.603.299-1.973"/>
        <path fill="#B2CFEA" d="M98.825 58.87l-27.592-4.703c-3.346 1.073-5.049 5.635-5.049 6.787v32.941c0 1.151.951 2.084 2.122 2.084l54.235-1.072V55.24l-23.716 3.63z"/>
        <path fill="#F0F4F7" d="M129.179 53.372l-24.914.141h-32.08c-1.232 0-2.23.96-2.23 2.145v33.89c0 1.183.998 2.143 2.23 2.143h48.208c1.233 0 2.23-.96 2.23-2.144v-32.16l6.82-2.39c.868-.305.653-1.63-.264-1.625"/>
        <path fill="#B2CFEA" d="M253.36 4.963l-57.702 4.115c-1.161 0-2.104.86-2.104 1.921l-.131 22.785-4.703.637-.023 7.184 18.76-.126h48.007c1.162 0 2.103-.86 2.103-1.92V11c0-3.154-2.103-6.997-4.206-6.036"/>
        <path fill="#DCE9F4" d="M253.36 4.963L224.97 22.791l26.394 18.688h4.1c1.163 0 2.104-.86 2.104-1.92V11c0-3.154-2.103-6.997-4.206-6.036"/>
        <path fill="#F0F4F7" d="M252.31 4.275h-59.807c-1.162 0-2.103.86-2.103 1.921V31.33l-9.095 3.751c-.793.327-.596 1.753.241 1.747l22.756-.152h48.007c1.161 0 2.104-.86 2.104-1.92V6.195c0-1.061-.943-1.921-2.104-1.921"/>
        <path fill="#113456" d="M178.297 89.992h-45.11a.753.753 0 0 1-.755-.75v-4.298c0-.415.338-.751.755-.751h45.11c.417 0 .756.336.756.751v4.298c0 .415-.339.75-.756.75"/>
        <path fill="#EFF8F9" d="M134.513 87.022s4.24 3.887 4.24 12.559v25.583c0 3.942 1.76 7.249 5.483 7.249l34.597-.113V97.016c0-5.532-3.019-9.994-6.743-9.994h-37.577z"/>
        <path fill="#88C4EA" d="M144.236 132.413s3.087-.512 2.993-8.784c-.377-6.678 4.898-10.765 8.571-3.795 0 .3 26.774.318 26.774.318s2.676 10.636-1.224 12.363c.282.476-37.114-.102-37.114-.102"/>
        <path fill="#FFFFFE" d="M183.467 137.88s2.675-21.273-4.46-22.16c-.094-.1-27.646 0-27.823.478 4.637.409 3.744 21.682 3.744 22.569l4.46-3.547 3.47 3.301 4.555-3.3 3.24 3.057 3.895-3.058 3.57 2.826 2.673-2.826 2.676 2.66z"/>
        <path fill="#ABC6D8" d="M167.226 98.801h-21.79c-.724 0-1.311-.62-1.311-1.386 0-.766.587-1.385 1.311-1.385h21.79c.725 0 1.312.62 1.312 1.385 0 .766-.587 1.386-1.312 1.386M167.226 107.372h-21.79c-.724 0-1.311-.62-1.311-1.386 0-.765.587-1.385 1.311-1.385h21.79c.725 0 1.312.62 1.312 1.385 0 .767-.587 1.386-1.312 1.386M167.226 115.258h-21.79c-.724 0-1.311-.619-1.311-1.385s.587-1.386 1.311-1.386h21.79c.725 0 1.312.62 1.312 1.386 0 .766-.587 1.385-1.312 1.385M147.22 124.043h-1.7a1.39 1.39 0 0 1-1.395-1.387 1.39 1.39 0 0 1 1.394-1.385h1.825l-.125 2.772z"/>
        <path fill="#7E98B7" d="M175.497 98.801h-2.69c-.724 0-1.311-.62-1.311-1.386 0-.766.587-1.385 1.312-1.385h2.689c.725 0 1.312.62 1.312 1.385 0 .766-.587 1.386-1.312 1.386M175.913 107.372h-2.69c-.724 0-1.311-.62-1.311-1.386 0-.765.587-1.385 1.312-1.385h2.689c.725 0 1.312.62 1.312 1.385 0 .767-.587 1.386-1.312 1.386M175.913 115.258h-2.69c-.724 0-1.311-.619-1.311-1.385s.587-1.386 1.312-1.386h2.689c.725 0 1.312.62 1.312 1.386 0 .766-.587 1.385-1.312 1.385"/>
        <path fill="#ABC6D8" d="M172.577 127.668h-12.871c-.725 0-1.312-.62-1.312-1.386 0-.765.587-1.385 1.312-1.385h12.87c.726 0 1.313.62 1.313 1.385 0 .767-.587 1.386-1.312 1.386"/>
        <path fill="#7E98B7" d="M178.82 120.152h-20.897c-.725 0-1.312-.327-1.312-.73 0-.404.587-.73 1.312-.73h20.897c.725 0 1.312.326 1.312.73 0 .403-.587.73-1.312.73M181.263 127.668h-2.689c-.725 0-1.31-.62-1.31-1.386 0-.765.585-1.385 1.31-1.385h2.69c.725 0 1.311.62 1.311 1.385 0 .767-.586 1.386-1.312 1.386"/>
        <path fill="#F0F4F7" d="M184.171 43.966l31.9.138h30.244c1.161 0 2.103.935 2.103 2.089V79.23c0 1.155-.942 2.09-2.103 2.09h-45.449a2.096 2.096 0 0 1-2.102-2.09l-.084-27.174-14.758-6.508c-.818-.296-.614-1.588.25-1.583"/>
        <path fill="#FFF" d="M242.851 79.232h-37.868c-1.738 0-3.149-1.402-3.149-3.129V49.96a3.14 3.14 0 0 1 3.149-3.13h37.868a3.139 3.139 0 0 1 3.148 3.13v26.143a3.139 3.139 0 0 1-3.148 3.129"/>
        <path fill="#BACDDD" d="M236.377 58.24l-22.655.336a3.05 3.05 0 0 0-.97.185c.004-.05.005-.093.011-.146-1.202.05-1.48 1.37-1.48 1.37l-.36 16.355.005.362h.036a2.132 2.132 0 0 0 2.13 1.732l22.03-.325a2.155 2.155 0 0 0 2.104-1.854 3.073 3.073 0 0 0 2.462-3.047l-.928-12.211c-.026-1.696-.679-2.781-2.385-2.756"/>
        <path fill="#EF4F5C" d="M236.502 74.413h-25.698V59.367a2.993 2.993 0 0 1 3.002-2.983h22.696a3.016 3.016 0 0 1 3.025 3.007v12.015a3.015 3.015 0 0 1-3.025 3.007"/>
        <path fill="#5EC9D1" d="M215.288 58.994l5.945-10.583a1.296 1.296 0 0 1 1.755-.455l9.309 5.412a1.28 1.28 0 0 1 .46 1.776l-1.518 3.83-15.95.02z"/>
        <path fill="#ADE5EA" d="M217.495 59.221l3.656-6.952s1.597.348 2.67-1.327l6.01 3.318s-1.374 1.255.09 2.755c-.344.815-.662 2.038-.662 2.038l-11.764.168z"/>
        <path fill="#FFCF48" d="M234.904 76.171h-21.968a2.126 2.126 0 0 1-2.132-2.12V59.056l-.012-.43c.026-1.396.912-2.184 2.11-2.216-.384 2.93 1.242 2.67 2.964 2.646h19.038a2.15 2.15 0 0 1 2.157 2.144v12.827a2.152 2.152 0 0 1-2.157 2.144"/>
        <path fill="#EF4F5C" d="M232.543 69.486a1.838 1.838 0 0 1-1.98-1.68 1.833 1.833 0 0 1 1.69-1.97c1.014-.08 1.9.673 1.981 1.68a1.834 1.834 0 0 1-1.69 1.97zm-1.76-5.178a2.056 2.056 0 0 0-2.063 2.05v2.758c0 1.132.924 2.05 2.062 2.05h8.745v-6.858h-8.745z"/>
        <path fill="#FFF" d="M107.201 38.018H58.817a3.139 3.139 0 0 1-3.148-3.129V13.38a3.139 3.139 0 0 1 3.148-3.13h48.384a3.139 3.139 0 0 1 3.148 3.13v21.51a3.139 3.139 0 0 1-3.148 3.13M117.406 89.09H75.65c-1.74 0-3.15-1.402-3.15-3.13V59.368a3.14 3.14 0 0 1 3.15-3.13h41.755a3.139 3.139 0 0 1 3.148 3.13v26.594a3.139 3.139 0 0 1-3.148 3.129M249.16 34.29h-52.59a3.139 3.139 0 0 1-3.147-3.13V9.846a3.138 3.138 0 0 1 3.148-3.129h52.59c1.739 0 3.148 1.4 3.148 3.13V31.16a3.139 3.139 0 0 1-3.148 3.13"/>
        <path fill="#0E60AA" d="M73.044 24.884h-1.928l-3.294-5.836v5.836h-1.834v-8.502h2.392l2.83 4.87v-4.87h1.834zM80.637 24.884h-5.612v-8.502h5.612v1.644h-3.622v1.468h3.362v1.644h-3.362v2.102h3.622zM88.387 18.026h-2.423v6.857h-2.001v-6.857h-2.424v-1.644h6.848zM69.161 30.93c0-.202-.036-.358-.107-.468-.072-.11-.194-.191-.365-.247a1.769 1.769 0 0 0-.484-.059 44.54 44.54 0 0 0-.643-.004h-.328v1.588h.11c.421 0 .722-.002.904-.003.182-.003.35-.04.503-.113a.631.631 0 0 0 .322-.284.924.924 0 0 0 .088-.41m-.364-2.594a.753.753 0 0 0-.072-.317.471.471 0 0 0-.256-.236 1.136 1.136 0 0 0-.408-.075 24.433 24.433 0 0 0-.687-.007h-.14v1.35h.235c.236 0 .44-.005.605-.013a.972.972 0 0 0 .395-.086c.136-.066.224-.15.266-.255a.963.963 0 0 0 .062-.361m1.924 2.622c0 .308-.058.582-.17.825a1.662 1.662 0 0 1-.468.604 2.11 2.11 0 0 1-.756.403c-.275.08-.624.12-1.045.12h-2.54v-6.377H68c.47 0 .812.016 1.03.051.217.034.433.11.647.226.221.124.386.29.494.496.108.208.162.443.162.708 0 .309-.074.58-.222.817-.149.234-.359.419-.63.55v.034c.381.082.682.253.905.514.223.26.335.603.335 1.029M74.418 31.652v-.999c-.19.017-.396.04-.618.07-.221.03-.39.065-.504.105a.69.69 0 0 0-.322.21.567.567 0 0 0-.112.366c0 .1.008.182.024.243a.355.355 0 0 0 .117.18.58.58 0 0 0 .215.126c.083.027.214.04.39.04.142 0 .284-.031.429-.094.144-.062.272-.145.38-.247zm0 .748c-.076.062-.17.14-.282.227a2.017 2.017 0 0 1-.316.21c-.138.068-.281.119-.43.152-.15.034-.311.05-.49.05-.416 0-.765-.143-1.046-.425-.282-.282-.422-.644-.422-1.083 0-.352.07-.638.215-.861.143-.223.346-.399.61-.528.26-.127.583-.219.969-.274.385-.053.786-.095 1.2-.12v-.024c0-.266-.1-.45-.298-.55-.197-.102-.49-.153-.875-.153-.231 0-.48.044-.743.134-.263.09-.452.16-.566.209h-.13v-1.161c.149-.043.39-.093.726-.152.335-.06.67-.089 1.006-.089.8 0 1.378.137 1.734.406.355.27.533.694.533 1.27v3.272h-1.395v-.51zM81.516 32.91h-1.411v-2.386c0-.194-.01-.387-.027-.58a1.348 1.348 0 0 0-.094-.426.479.479 0 0 0-.23-.232.995.995 0 0 0-.42-.073c-.126 0-.256.023-.388.07a2.004 2.004 0 0 0-.428.218v3.409h-1.411V28.1h1.41v.532c.25-.216.49-.38.72-.493.232-.114.487-.172.768-.172.474 0 .844.152 1.11.454.268.303.4.756.4 1.358v3.13zM87.468 32.91H85.83l-1.23-2.091-.38.512v1.579h-1.41v-6.664h1.41v3.974l1.511-2.12h1.624l-1.577 2.073zM88.179 32.91h1.411V28.1h-1.411v4.81zm-.038-5.495h1.489v-1.17h-1.489v1.17zM95.324 32.91h-1.41v-2.386c0-.194-.01-.387-.028-.58a1.348 1.348 0 0 0-.094-.426.479.479 0 0 0-.229-.232.995.995 0 0 0-.42-.073c-.127 0-.257.023-.389.07a2.004 2.004 0 0 0-.428.218v3.409h-1.41V28.1h1.41v.532c.25-.216.49-.38.72-.493.231-.114.486-.172.767-.172.474 0 .844.152 1.111.454.267.303.4.756.4 1.358v3.13zM99.475 31.393v-2.179a1.752 1.752 0 0 0-.612-.12c-.369 0-.646.117-.83.349-.185.232-.278.557-.278.976 0 .46.078.784.236.966.157.183.39.274.7.274.14 0 .278-.025.413-.072a1.51 1.51 0 0 0 .371-.194zm1.411.964c0 .451-.058.83-.176 1.14-.117.308-.28.55-.493.724a1.935 1.935 0 0 1-.763.382 3.94 3.94 0 0 1-1.01.118c-.306 0-.606-.02-.902-.06a6.484 6.484 0 0 1-.768-.145v-1.203h.172c.172.075.381.14.63.203.245.061.466.092.662.092.26 0 .471-.027.633-.08a.809.809 0 0 0 .374-.224.84.84 0 0 0 .175-.352c.036-.142.055-.314.055-.513v-.09c-.169.151-.356.27-.562.359a1.726 1.726 0 0 1-.688.134c-.614 0-1.087-.204-1.42-.608-.333-.407-.5-1.024-.5-1.852 0-.396.051-.739.152-1.027.102-.289.245-.54.43-.754.171-.2.383-.356.634-.466.251-.112.508-.167.771-.167.237 0 .452.03.646.091.194.063.37.147.53.255l.05-.214h1.368v4.257zM233.78 26.806h-2.31l3.209-11.52h2.31zM232.58 15.648c-.157-.22-.405-.33-.742-.33h-12.69l-.625 2.26h11.542l-.672 2.41h-9.234v-.005h-2.31l-1.914 6.876h2.309l1.284-4.612h10.38c.326 0 .63-.11.915-.33.284-.219.474-.491.564-.815l1.282-4.612c.1-.346.069-.622-.089-.842M214.587 26.085a1.063 1.063 0 0 1-1.02.774H201.66c-.326 0-.568-.11-.725-.33-.159-.22-.196-.491-.1-.815l2.903-10.396h2.31l-2.594 9.287h9.238l2.594-9.287h2.31l-3.009 10.767z"/>
        <path fill="#098041" d="M240.977 15.307l2.92 5.774-6.14 5.773z"/>
        <path fill="#E97626" d="M238.925 15.307l2.92 5.774-6.146 5.773z"/>
        <path fill="#BACDDD" d="M110.584 86.548H79.158a2.99 2.99 0 0 1-3-2.982V65.142a2.99 2.99 0 0 1 3-2.982h31.426c1.657 0 3 1.335 3 2.982v18.424a2.99 2.99 0 0 1-3 2.982"/>
        <path fill="#FFCF48" d="M112.607 84.537H81.181c-1.657 0-3-1.335-3-2.981V63.13a2.991 2.991 0 0 1 3-2.982h31.426c1.657 0 3 1.336 3 2.982v18.425a2.991 2.991 0 0 1-3 2.981"/>
        <path fill="#1B5FAA" d="M78.181 69.22h37.426V64.6H78.181z"/>
        <path fill="#FFF" d="M83.319 77.796H95.06v-3.648H83.319zM106.801 75.972a3.293 3.293 0 0 1-3.302 3.283 3.292 3.292 0 0 1-3.302-3.283c0-1.812 1.478-3.282 3.302-3.282 1.823 0 3.302 1.47 3.302 3.282"/>
        <path fill="#EF4F5C" d="M111.205 75.972a3.293 3.293 0 0 1-3.302 3.283 3.292 3.292 0 0 1-3.302-3.283c0-1.812 1.478-3.282 3.302-3.282 1.823 0 3.302 1.47 3.302 3.282"/>
        <path fill="#EDAA24" d="M128.427 149.257c0 2.3-4.76 4.163-10.632 4.163s-10.633-1.864-10.633-4.163c0-1.03-.73-4.362.851-5.088 1.95-.896 6.54 0 9.782 0h8.931c2.551 0 1.701 3.838 1.701 5.088"/>
        <path fill="#FFCF48" d="M128.427 145.556c0 2.299-4.76 4.164-10.632 4.164s-10.633-1.865-10.633-4.164c0-2.299 4.761-4.163 10.633-4.163 5.872 0 10.632 1.864 10.632 4.163"/>
        <path fill="#EDAA24" d="M129.148 143.896c0 2.195-4.542 3.973-10.146 3.973-5.604 0-10.146-1.778-10.146-3.973 0-.982-.697-4.161.812-4.855 1.86-.855 6.24 0 9.334 0h8.522c2.436 0 1.624 3.662 1.624 4.855"/>
        <path fill="#FFCF48" d="M129.148 140.365c0 2.194-4.542 3.973-10.146 3.973-5.604 0-10.146-1.78-10.146-3.973 0-2.195 4.542-3.973 10.146-3.973 5.604 0 10.146 1.778 10.146 3.973"/>
        <path fill="#EDAA24" d="M201.256 159.249c0 2.193-4.543 3.973-10.146 3.973-5.603 0-10.146-1.78-10.146-3.973 0-.982-.697-4.162.812-4.857 1.861-.854 6.24 0 9.334 0h8.523c2.435 0 1.623 3.664 1.623 4.857"/>
        <path fill="#FFCF48" d="M201.256 155.718c0 2.193-4.543 3.972-10.146 3.972-5.603 0-10.146-1.779-10.146-3.972 0-2.195 4.543-3.973 10.146-3.973 5.603 0 10.146 1.778 10.146 3.973"/>
        <path fill="#76B3DD" d="M117.449 95.16l-2.278-3.49-12.886.025-6.945 3.825z"/>
    </g>
</svg>
