<svg xmlns="http://www.w3.org/2000/svg" width="24" height="24" viewBox="0 0 24 24">
    <g fill="none" fill-rule="evenodd">
        <rect width="24" height="24" fill="#F1F1F1" rx="12"/>
        <path fill="#141414" d="M12 7c1.933 0 3.5 1.622 3.5 3.622 0 1.578-2.176 4.851-3.096 6.164A.491.491 0 0 1 12 17a.491.491 0 0 1-.404-.213C10.676 15.473 8.5 12.2 8.5 10.623 8.5 8.621 10.067 7 12 7zm0 1c-1.378 0-2.5 1.176-2.5 2.622 0 .798.968 2.718 2.5 4.986 1.532-2.268 2.5-4.188 2.5-4.986C14.5 9.176 13.378 8 12 8zm0 .97a1.5 1.5 0 1 1 0 3 1.5 1.5 0 0 1 0-3z"/>
    </g>
</svg>
