<svg xmlns="http://www.w3.org/2000/svg" width="46" height="42" viewBox="0 0 46 42">
    <g fill="#FFF" fill-rule="evenodd">
        <path fill-rule="nonzero" d="M17.315 3C13.88 3 12.05 5.194 12.05 8.262c0 2.622 2.382 4.21 5.264 4.21h7.708l-.383-1.342C23.123 5.82 20.707 3 17.315 3zm.228 2.113c1.813.12 3.331 1.68 4.511 4.866l.138.388h-4.877c-1.857 0-3.159-.868-3.159-2.105 0-1.982.98-3.157 3.159-3.157l.228.008z"/>
        <path fill-rule="nonzero" d="M29.943 3c-3.391 0-5.808 2.82-7.326 8.13l-.383 1.342h7.71c2.88 0 5.261-1.588 5.261-4.21C35.205 5.193 33.378 3 29.943 3zm0 2.105c2.179 0 3.157 1.175 3.157 3.157l-.01.192c-.128 1.134-1.39 1.913-3.147 1.913h-4.88l.14-.388c1.23-3.32 2.826-4.874 4.74-4.874z"/>
        <path d="M22.548 22.995h-9.444V33.52c0 1.162.943 2.105 2.105 2.105h7.34V22.995zM22.548 14.577h-9.444A2.105 2.105 0 0 0 11 16.68v4.21h11.548v-6.314zM34.152 14.577h-8.808v6.314h10.913v-4.21a2.105 2.105 0 0 0-2.105-2.104M25.344 35.624h6.704c1.161 0 2.103-.942 2.103-2.105V22.996h-8.807v12.628z"/>
        <path fill-rule="nonzero" d="M38.583 34.09l.24 1.925c.106.842.677 1.495 1.414 1.616l1.684.274c.105.018.105.172 0 .19l-1.684.274c-.737.12-1.308.774-1.414 1.616l-.24 1.925c-.015.12-.15.12-.166 0l-.24-1.925c-.106-.842-.677-1.495-1.414-1.616l-1.684-.274c-.105-.018-.105-.172 0-.19l1.684-.274c.737-.12 1.308-.774 1.414-1.616l.24-1.925c.015-.12.15-.12.166 0zm-28.536 1.955l.138.963c.06.42.386.747.807.807l.963.138c.06.008.06.086 0 .094l-.963.138a.948.948 0 0 0-.807.807l-.138.963c-.008.06-.086.06-.094 0l-.138-.963a.948.948 0 0 0-.807-.807l-.963-.138c-.06-.008-.06-.086 0-.094l.963-.138a.948.948 0 0 0 .807-.807l.138-.963c.008-.06.086-.06.094 0zm33.512-7.989l.172 1.203c.075.527.483.935 1.01 1.01l1.203.172c.075.01.075.107 0 .118l-1.203.172a1.185 1.185 0 0 0-1.01 1.01l-.172 1.203c-.01.075-.107.075-.118 0l-.172-1.203a1.185 1.185 0 0 0-1.01-1.01l-1.203-.172c-.075-.01-.075-.107 0-.118l1.203-.172a1.185 1.185 0 0 0 1.01-1.01l.172-1.203c.01-.075.107-.075.118 0zM3.583 5.09l.24 1.925c.106.842.677 1.495 1.414 1.616l1.684.274c.105.018.105.172 0 .19l-1.684.274c-.737.12-1.308.774-1.414 1.616l-.24 1.925c-.015.12-.15.12-.166 0l-.24-1.925C3.07 10.143 2.5 9.49 1.763 9.369L.08 9.095c-.105-.018-.105-.172 0-.19l1.684-.274c.737-.12 1.308-.774 1.414-1.616l.24-1.925c.015-.12.15-.12.166 0zM9.047.045l.138.963c.06.42.386.747.807.807l.963.138c.06.008.06.086 0 .094l-.963.138a.948.948 0 0 0-.807.807l-.138.963c-.008.06-.086.06-.094 0l-.138-.963a.948.948 0 0 0-.807-.807l-.963-.138c-.06-.008-.06-.086 0-.094l.963-.138a.948.948 0 0 0 .807-.807l.138-.963c.008-.06.086-.06.094 0z" opacity=".692"/>
    </g>
</svg>
