<svg xmlns="http://www.w3.org/2000/svg" width="20" height="20" viewBox="0 0 20 20">
    <path fill="#FFF" fill-rule="evenodd" d="M14.118 14.097c.242 0 .438.188.438.42v.896c0 .232-.196.42-.438.42h-8.64c-.242 0-.438-.188-.438-.42v-.896c0-.232.196-.42.438-.42zM9.846 6.065c.135 0 .261.072.344.173l2.234 3.143 3.024-2.729c.14-.126.348-.149.515-.058.167.09.253.275.213.455l-1.511 5.82c-.044.194-.222.332-.428.332h-8.78c-.207 0-.385-.138-.429-.33l-1.51-5.805c-.041-.18.045-.364.212-.454.167-.09.376-.066.515.06l3.024 2.73 2.233-3.163c.083-.102.21-.174.344-.174zm-6.82-1.898c.519 0 .941.422.941.941 0 .52-.422.942-.942.942s-.942-.422-.942-.942c0-.519.423-.941.942-.941zm13.605 0c.519 0 .942.422.942.941 0 .52-.423.942-.942.942-.52 0-.942-.422-.942-.942 0-.519.422-.941.942-.941zm-6.828-.834c.52 0 .942.423.942.942 0 .52-.423.942-.942.942-.52 0-.942-.423-.942-.942 0-.52.422-.942.942-.942z"/>
</svg>
