<svg width="70" height="51" viewBox="0 0 70 51" fill="none" xmlns="http://www.w3.org/2000/svg">
    <path d="M51.763 33.5726H10.8837C9.75881 33.5726 8.83864 32.6525 8.83864 31.5276V9.04507C8.83864 7.92017 9.75881 7 10.8837 7H51.7652C52.8901 7 53.8103 7.92017 53.8103 9.04507V31.5298C53.8081 32.6525 52.8879 33.5726 51.763 33.5726Z" fill="#378E3F"/>
    <path d="M54.6245 36.4345H13.7451C12.6202 36.4345 11.7001 35.5143 11.7001 34.3894V11.9069C11.7001 10.782 12.6202 9.86182 13.7451 9.86182H54.6267C55.7516 9.86182 56.6717 10.782 56.6717 11.9069V34.3916C56.6695 35.5143 55.7494 36.4345 54.6245 36.4345Z" fill="#76BF5C"/>
    <path d="M57.7068 39.7365H16.8275C15.7026 39.7365 14.7824 38.8163 14.7824 37.6914V15.2089C14.7824 14.084 15.7026 13.1638 16.8275 13.1638H57.709C58.8339 13.1638 59.7541 14.084 59.7541 15.2089V37.6936C59.7519 38.8163 58.8317 39.7365 57.7068 39.7365Z" fill="#378E3F"/>
    <path d="M53.6188 37.6912H20.9154C20.9154 35.4437 19.075 33.6033 16.8274 33.6033V19.2945C19.075 19.2945 20.9154 17.4541 20.9154 15.2065H53.6188C53.6188 17.4541 55.4591 19.2945 57.7067 19.2945V33.6033C55.4591 33.6033 53.6188 35.4437 53.6188 37.6912Z" fill="#76BF5C"/>
    <path d="M56.1257 31.7483C53.7746 31.7483 50.5707 34.0143 50.5707 36.0934C49.5492 35.5827 48.4243 35.1733 47.0969 35.1733C44.2351 35.1733 41.7828 36.8089 40.6579 39.2612L57.3178 38.7629C57.3178 36.5154 57.4114 33.6173 59.6611 33.516C59.6611 32.1902 58.0673 31.7483 56.1257 31.7483Z" fill="#378E3F"/>
    <path d="M37.2669 35.5912C42.271 35.5912 46.3277 31.5503 46.3277 26.5656C46.3277 21.5809 42.271 17.54 37.2669 17.54C32.2627 17.54 28.206 21.5809 28.206 26.5656C28.206 31.5503 32.2627 35.5912 37.2669 35.5912Z" fill="#378E3F"/>
    <path d="M22.8023 28.4939C23.9317 28.4939 24.8473 27.5783 24.8473 26.4489C24.8473 25.3194 23.9317 24.4038 22.8023 24.4038C21.6728 24.4038 20.7572 25.3194 20.7572 26.4489C20.7572 27.5783 21.6728 28.4939 22.8023 28.4939Z" fill="#378E3F"/>
    <path d="M51.7323 28.4939C52.8617 28.4939 53.7773 27.5783 53.7773 26.4489C53.7773 25.3194 52.8617 24.4038 51.7323 24.4038C50.6028 24.4038 49.6872 25.3194 49.6872 26.4489C49.6872 27.5783 50.6028 28.4939 51.7323 28.4939Z" fill="#378E3F"/>
    <path d="M41.4471 21.9449L39.4086 21.8767C39.7608 22.3543 39.9766 22.9333 40.0514 23.6091L41.7883 23.6664L41.3458 25.0092L40.0338 24.9652C39.8951 25.9844 39.4636 26.7395 38.7394 27.2326C38.0129 27.7257 37.0201 27.9524 35.7587 27.9106L39.8511 33.0177L39.8467 33.1234L37.8853 33.0574L33.4847 27.5518L33.5111 26.4797L35.6619 26.5501C36.3817 26.5678 36.9717 26.4313 37.4318 26.1385C37.8919 25.8457 38.1891 25.4363 38.3277 24.9101L33.3262 24.7428L33.7687 23.4L38.3542 23.5519C38.1142 22.449 37.2865 21.8502 35.871 21.7578L33.4429 21.6763L33.8942 20.3335L41.883 20.5999L41.4471 21.9449Z" fill="#76BF5C"/>
    <path d="M57.2471 45.8947C60.8227 45.8947 63.7213 42.9961 63.7213 39.4205C63.7213 35.8449 60.8227 32.9463 57.2471 32.9463C53.6715 32.9463 50.7729 35.8449 50.7729 39.4205C50.7729 42.9961 53.6715 45.8947 57.2471 45.8947Z" fill="#F6B545"/>
    <path d="M57.2471 32.9463C53.639 32.9463 50.7729 35.8147 50.7729 39.4205C50.7729 43.0263 53.6412 45.8947 57.2471 45.8947C60.8529 45.8947 63.7213 43.0263 63.7213 39.4205C63.7213 35.8147 60.8551 32.9463 57.2471 32.9463ZM57.2471 44.0456C54.6561 44.0456 52.622 42.0115 52.622 39.4205C52.622 36.8295 54.6561 34.7954 57.2471 34.7954C59.8381 34.7954 61.8721 36.8295 61.8721 39.4205C61.8721 42.0115 59.8359 44.0456 57.2471 44.0456Z" fill="#FFCB5B"/>
    <path d="M57.2467 45.8043C60.8547 45.8968 63.7209 42.936 63.7209 39.4226H63.6285C63.1662 39.4226 62.7963 39.7924 62.7039 40.2547C62.519 41.5491 61.8718 42.7533 60.9472 43.5854C60.2075 44.325 59.1905 44.7873 58.0788 44.9722C57.6165 44.97 57.2467 45.3398 57.2467 45.8043Z" fill="#F6B545"/>
    <path d="M57.2469 33.038C53.6389 32.9455 50.7728 35.9064 50.7728 39.4197H50.8652C51.3275 39.4197 51.6973 39.0499 51.7898 38.5876C51.9747 37.2932 52.6219 36.0891 53.5465 35.257C54.2861 34.5173 55.3031 34.055 56.4148 33.8701C56.8771 33.8701 57.2469 33.5003 57.2469 33.038Z" fill="#FFE27A"/>
    <path d="M53.2686 40.0677C53.2686 37.4767 55.3026 35.4426 57.8936 35.4426C59.0031 35.4426 60.0201 35.8124 60.8545 36.5521C59.9299 35.4426 58.7279 34.7954 57.2464 34.7954C54.6554 34.7954 52.6214 36.8295 52.6214 39.4205C52.6214 40.8998 53.2686 42.104 54.2856 42.9361C53.6384 42.1964 53.2686 41.1794 53.2686 40.0677Z" fill="#F19920"/>
    <path d="M60.0447 42.2889C59.9522 42.2889 59.8598 42.2889 59.7673 42.1964C59.5824 42.0115 59.5824 41.7342 59.7673 41.5492C60.3221 40.9945 60.5994 40.1624 60.5994 39.4227C60.5994 39.1454 60.7843 38.9604 61.0617 38.9604C61.3391 38.9604 61.524 39.1454 61.524 39.4227C61.524 40.4398 61.1542 41.4568 60.507 42.1986C60.3221 42.2889 60.1371 42.2889 60.0447 42.2889Z" fill="#FFCB5B"/>
    <path d="M57.2467 42.1964C56.692 42.1964 56.3222 41.8265 56.3222 41.2718V37.5713C56.3222 37.0166 56.692 36.6467 57.2467 36.6467C57.8015 36.6467 58.1713 37.0166 58.1713 37.5713V41.2718C58.1713 41.8265 57.8015 42.1964 57.2467 42.1964Z" fill="#F19920"/>
    <path d="M47.1322 49.9999C50.7078 49.9999 53.6064 47.1013 53.6064 43.5257C53.6064 39.9501 50.7078 37.0515 47.1322 37.0515C43.5566 37.0515 40.658 39.9501 40.658 43.5257C40.658 47.1013 43.5566 49.9999 47.1322 49.9999Z" fill="#F6B545"/>
    <path d="M47.1322 37.0515C43.5242 37.0515 40.658 39.9199 40.658 43.5257C40.658 47.1316 43.5264 49.9999 47.1322 49.9999C50.738 49.9999 53.6064 47.1316 53.6064 43.5257C53.6064 39.9199 50.7402 37.0515 47.1322 37.0515ZM47.1322 48.1508C44.5412 48.1508 42.5071 46.1167 42.5071 43.5257C42.5071 40.9347 44.5412 38.9007 47.1322 38.9007C49.7232 38.9007 51.7573 40.9347 51.7573 43.5257C51.7573 46.1167 49.721 48.1508 47.1322 48.1508Z" fill="#FFCB5B"/>
    <path d="M47.132 49.9096C50.74 50.002 53.6062 47.0412 53.6062 43.5278H53.5137C53.0514 43.5278 52.6816 43.8977 52.5892 44.3599C52.4042 45.6543 51.757 46.8585 50.8325 47.6906C50.0928 48.4303 49.0758 48.8925 47.9641 49.0775C47.5018 49.0753 47.132 49.4451 47.132 49.9096Z" fill="#F6B545"/>
    <path d="M47.1322 37.1435C43.5242 37.051 40.658 40.0118 40.658 43.5252H40.7505C41.2127 43.5252 41.5826 43.1554 41.675 42.6931C41.8599 41.3987 42.5071 40.1946 43.4317 39.3624C44.1714 38.6228 45.1884 38.1605 46.3001 37.9756C46.7624 37.9756 47.1322 37.6058 47.1322 37.1435Z" fill="#FFE27A"/>
    <path d="M43.1543 44.1729C43.1543 41.5819 45.1884 39.5478 47.7794 39.5478C48.8888 39.5478 49.9059 39.9177 50.7402 40.6573C49.8156 39.5478 48.6137 38.9006 47.1322 38.9006C44.5412 38.9006 42.5071 40.9347 42.5071 43.5257C42.5071 45.005 43.1543 46.2092 44.1713 47.0413C43.5241 46.3016 43.1543 45.2846 43.1543 44.1729Z" fill="#F19920"/>
    <path d="M49.906 46.3941C49.8136 46.3941 49.7211 46.3941 49.6287 46.3017C49.4437 46.1168 49.4437 45.8394 49.6287 45.6545C50.1834 45.0997 50.4608 44.2676 50.4608 43.528C50.4608 43.2506 50.6457 43.0657 50.9231 43.0657C51.2005 43.0657 51.3854 43.2506 51.3854 43.528C51.3854 44.545 51.0155 45.562 50.3683 46.3039C50.1834 46.3941 49.9985 46.3941 49.906 46.3941Z" fill="#FFCB5B"/>
    <path d="M47.132 46.3016C46.5773 46.3016 46.2074 45.9318 46.2074 45.377V41.6765C46.2074 41.1218 46.5773 40.752 47.132 40.752C47.6867 40.752 48.0566 41.1218 48.0566 41.6765V45.377C48.0566 45.9318 47.6867 46.3016 47.132 46.3016Z" fill="#F19920"/>
    <path d="M6.47421 29.6711C10.0498 29.6711 12.9484 26.7725 12.9484 23.1969C12.9484 19.6213 10.0498 16.7227 6.47421 16.7227C2.8986 16.7227 0 19.6213 0 23.1969C0 26.7725 2.8986 29.6711 6.47421 29.6711Z" fill="#F6B545"/>
    <path d="M6.47421 16.7227C2.86617 16.7227 0 19.591 0 23.1969C0 26.8027 2.86838 29.6711 6.47421 29.6711C10.08 29.6711 12.9484 26.8027 12.9484 23.1969C12.9484 19.591 10.0822 16.7227 6.47421 16.7227ZM6.47421 27.8219C3.8832 27.8219 1.84915 25.7879 1.84915 23.1969C1.84915 20.6059 3.8832 18.5718 6.47421 18.5718C9.06521 18.5718 11.0993 20.6059 11.0993 23.1969C11.0993 25.7879 9.06301 27.8219 6.47421 27.8219Z" fill="#FFCB5B"/>
    <path d="M6.47395 29.5807C10.082 29.6732 12.9482 26.7123 12.9482 23.199H12.8557C12.3934 23.199 12.0236 23.5688 11.9311 24.0311C11.7462 25.3255 11.099 26.5296 10.1744 27.3617C9.43479 28.1014 8.41776 28.5637 7.30607 28.7486C6.84378 28.7464 6.47395 29.1162 6.47395 29.5807Z" fill="#F6B545"/>
    <path d="M6.47419 16.8146C2.86616 16.7222 0 19.683 0 23.1964H0.0924565C0.554741 23.1964 0.92457 22.8265 1.01703 22.3642C1.20194 21.0698 1.84914 19.8657 2.77371 19.0336C3.51336 18.2939 4.53039 17.8316 5.64207 17.6467C6.10436 17.6467 6.47419 17.2769 6.47419 16.8146Z" fill="#FFE27A"/>
    <path d="M2.49652 23.844C2.49652 21.253 4.53058 19.219 7.12158 19.219C8.23107 19.219 9.2481 19.5888 10.0824 20.3285C9.15785 19.219 7.9559 18.5718 6.47438 18.5718C3.88338 18.5718 1.84932 20.6058 1.84932 23.1968C1.84932 24.6762 2.49652 25.8803 3.51355 26.7124C2.86635 25.9728 2.49652 24.9557 2.49652 23.844Z" fill="#F19920"/>
    <path d="M9.24826 26.0653C9.15581 26.0653 9.06335 26.0653 8.97089 25.9728C8.78597 25.7879 8.78597 25.5105 8.97089 25.3256C9.52564 24.7709 9.80302 23.9388 9.80302 23.1991C9.80302 22.9217 9.98793 22.7368 10.2653 22.7368C10.5427 22.7368 10.7276 22.9217 10.7276 23.1991C10.7276 24.2161 10.3578 25.2332 9.71056 25.975C9.52564 26.0653 9.34072 26.0653 9.24826 26.0653Z" fill="#FFCB5B"/>
    <path d="M6.47375 25.9727C5.91901 25.9727 5.54918 25.6029 5.54918 25.0482V21.3477C5.54918 20.7929 5.91901 20.4231 6.47375 20.4231C7.02849 20.4231 7.39832 20.7929 7.39832 21.3477V25.0482C7.39832 25.6029 7.02849 25.9727 6.47375 25.9727Z" fill="#F19920"/>
    <path d="M7.71658 46.0014C7.56312 45.9016 7.51708 45.6944 7.61683 45.5333L8.46088 44.2212C8.56063 44.0677 8.7678 44.0217 8.92894 44.1214C9.0824 44.2212 9.12844 44.4284 9.02869 44.5895L8.18464 45.9016C8.08489 46.0627 7.87772 46.1011 7.71658 46.0014Z" fill="#6C98DA"/>
    <path d="M7.30993 50.0453C7.21018 49.9992 7.13345 49.8995 7.12577 49.7767L6.97998 48.1347C6.96464 47.9505 7.09508 47.7894 7.28691 47.7664C7.47106 47.751 7.6322 47.8815 7.65522 48.0733L7.80101 49.7153C7.81636 49.8995 7.68591 50.0606 7.49408 50.0836C7.41735 50.0836 7.36364 50.0683 7.30993 50.0453Z" fill="#6C98DA"/>
    <path d="M8.30744 47.4824C8.20769 47.4211 8.14631 47.2983 8.15398 47.1755C8.16933 46.9914 8.33046 46.8533 8.51462 46.8686L10.2871 47.0297C10.4713 47.0451 10.6094 47.2062 10.594 47.3904C10.5787 47.5745 10.4176 47.7126 10.2334 47.6973L8.4609 47.5362C8.40719 47.5362 8.35348 47.5131 8.30744 47.4824Z" fill="#6C98DA"/>
    <path d="M6.27416 46.1166C6.22812 46.0935 6.18976 46.0552 6.15906 46.0015L5.22294 44.5129C5.12319 44.3594 5.16923 44.1446 5.33037 44.0525C5.4915 43.9527 5.691 43.9988 5.79075 44.1599L6.72688 45.6485C6.82663 45.802 6.78059 46.0168 6.61945 46.1089C6.51203 46.1779 6.38159 46.1779 6.27416 46.1166Z" fill="#6C98DA"/>
    <path d="M4.15629 48.0348C4.0949 47.9964 4.04119 47.935 4.01817 47.8583C3.95679 47.6818 4.05654 47.49 4.23302 47.4363L5.8367 46.9068C6.01318 46.8455 6.20501 46.9452 6.25872 47.1217C6.32011 47.2982 6.22036 47.49 6.04387 47.5437L4.44019 48.0732C4.34044 48.1038 4.24069 48.0885 4.15629 48.0348Z" fill="#6C98DA"/>
    <path d="M55 3C55.5523 3 56 2.55228 56 2C56 1.44772 55.5523 1 55 1C54.4477 1 54 1.44772 54 2C54 2.55228 54.4477 3 55 3Z" stroke="#6C98DA" stroke-width="0.5" stroke-miterlimit="10"/>
    <path d="M24 47C24.5523 47 25 46.5523 25 46C25 45.4477 24.5523 45 24 45C23.4477 45 23 45.4477 23 46C23 46.5523 23.4477 47 24 47Z" stroke="#6C98DA" stroke-width="0.5" stroke-miterlimit="10"/>
    <path d="M67.7837 10.7316C67.7055 10.5539 67.7908 10.3477 67.9685 10.2695L69.4614 9.62969C69.6391 9.55149 69.8453 9.6368 69.9235 9.81452C70.0017 9.99225 69.9164 10.1984 69.7386 10.2766L68.2458 10.9164C68.068 10.9875 67.8619 10.9093 67.7837 10.7316Z" fill="#6C98DA"/>
    <path d="M68.0041 14.0088C67.8904 13.9875 67.7837 13.9093 67.7411 13.7885L67.1368 12.189C67.0657 12.0112 67.1581 11.8051 67.3359 11.7411C67.5136 11.67 67.7197 11.7624 67.7837 11.9401L68.388 13.5397C68.4591 13.7174 68.3667 13.9235 68.1889 13.9875C68.125 14.016 68.061 14.016 68.0041 14.0088Z" fill="#6C98DA"/>
    <path d="M66.4116 10.3406C66.369 10.305 66.3406 10.2553 66.3192 10.1984L65.7505 8.45672C65.6936 8.27189 65.7932 8.07284 65.978 8.01597C66.1628 7.9591 66.3548 8.05862 66.4188 8.24345L66.9875 9.98514C67.0443 10.17 66.9448 10.369 66.76 10.4259C66.632 10.4614 66.5041 10.4259 66.4116 10.3406Z" fill="#6C98DA"/>
    <path d="M64.1582 12.2671C64.0942 12.2244 64.0445 12.1605 64.016 12.0823C63.9591 11.8974 64.0587 11.6984 64.2364 11.6415L65.907 11.1012C66.0918 11.0373 66.2909 11.1439 66.3477 11.3216C66.4046 11.5064 66.3051 11.7055 66.1274 11.7624L64.4568 12.3026C64.3501 12.3382 64.2435 12.324 64.1582 12.2671Z" fill="#6C98DA"/>
    <path d="M4 39C4.55228 39 5 38.5523 5 38C5 37.4477 4.55228 37 4 37C3.44772 37 3 37.4477 3 38C3 38.5523 3.44772 39 4 39Z" fill="#6C98DA"/>
    <path d="M65 21C65.5523 21 66 20.5523 66 20C66 19.4477 65.5523 19 65 19C64.4477 19 64 19.4477 64 20C64 20.5523 64.4477 21 65 21Z" fill="#6C98DA"/>
</svg>
