<svg xmlns="http://www.w3.org/2000/svg" width="41" height="33" viewBox="0 0 41 33">
    <g fill="none" fill-rule="evenodd">
        <path fill="#FFC300" d="M38.855 40.417c.64 0 1.16.496 1.16 1.109v2.365c0 .613-.52 1.109-1.16 1.109h-22.87c-.64 0-1.158-.496-1.158-1.109v-2.365c0-.613.518-1.109 1.159-1.109zM27.55 19.211c.355 0 .69.19.91.457l5.912 8.297 8.005-7.203c.37-.333.922-.393 1.364-.154.442.239.67.727.563 1.202l-4 15.365c-.114.511-.586.877-1.132.877H15.928c-.546 0-1.018-.365-1.133-.875l-4-15.323c-.107-.474.121-.96.563-1.2.442-.238.995-.174 1.364.159l8.003 7.208 5.912-8.35c.22-.268.555-.46.912-.46zM9.493 14.2c1.375 0 2.494 1.115 2.494 2.486 0 1.37-1.119 2.486-2.494 2.486C8.118 19.172 7 18.057 7 16.686c0-1.37 1.118-2.486 2.493-2.486zm36.014 0C46.88 14.2 48 15.315 48 16.686c0 1.37-1.119 2.486-2.493 2.486-1.375 0-2.494-1.115-2.494-2.486 0-1.37 1.119-2.486 2.494-2.486zM27.433 12c1.375 0 2.494 1.115 2.494 2.486 0 1.37-1.119 2.486-2.494 2.486-1.374 0-2.493-1.115-2.493-2.486 0-1.37 1.119-2.486 2.493-2.486z" transform="translate(-7 -12)"/>
        <path d="M0 0H56V56H0z" transform="translate(-7 -12)"/>
    </g>
</svg>
