<svg xmlns="http://www.w3.org/2000/svg" xmlns:xlink="http://www.w3.org/1999/xlink" width="184" height="116" viewBox="0 0 184 116">
    <defs>
        <path id="b" d="M62.425 49.004c0 19.218-11.595 34.8-25.9 34.8-14.303 0-25.9-15.582-25.9-34.8 0-19.218 11.597-34.798 25.9-34.798 14.305 0 25.9 15.58 25.9 34.798"/>
        <filter id="a" width="138.6%" height="128.7%" x="-19.3%" y="-11.5%" filterUnits="objectBoundingBox">
            <feOffset dy="2" in="SourceAlpha" result="shadowOffsetOuter1"/>
            <feGaussianBlur in="shadowOffsetOuter1" result="shadowBlurOuter1" stdDeviation="3"/>
            <feColorMatrix in="shadowBlurOuter1" values="0 0 0 0 0 0 0 0 0 0 0 0 0 0 0 0 0 0 0.3339434 0"/>
        </filter>
        <path id="d" d="M51.545 34.943c0 19.218-11.499 34.8-25.684 34.8-14.184 0-25.685-15.582-25.685-34.8 0-19.218 11.5-34.8 25.685-34.8 14.185 0 25.684 15.582 25.684 34.8"/>
        <filter id="c" width="138.9%" height="128.7%" x="-19.5%" y="-11.5%" filterUnits="objectBoundingBox">
            <feOffset dy="2" in="SourceAlpha" result="shadowOffsetOuter1"/>
            <feGaussianBlur in="shadowOffsetOuter1" result="shadowBlurOuter1" stdDeviation="3"/>
            <feColorMatrix in="shadowBlurOuter1" values="0 0 0 0 0 0 0 0 0 0 0 0 0 0 0 0 0 0 0.3339434 0"/>
        </filter>
        <path id="f" d="M78.766 63.057c0 24.758-14.693 44.83-32.819 44.83-18.124 0-32.82-20.072-32.82-44.83 0-24.757 14.696-44.827 32.82-44.827 18.126 0 32.82 20.07 32.82 44.827"/>
        <filter id="e" width="130.5%" height="122.3%" x="-15.2%" y="-8.9%" filterUnits="objectBoundingBox">
            <feOffset dy="2" in="SourceAlpha" result="shadowOffsetOuter1"/>
            <feGaussianBlur in="shadowOffsetOuter1" result="shadowBlurOuter1" stdDeviation="3"/>
            <feColorMatrix in="shadowBlurOuter1" values="0 0 0 0 0 0 0 0 0 0 0 0 0 0 0 0 0 0 0.3339434 0"/>
        </filter>
    </defs>
    <g fill="none" fill-rule="evenodd" opacity=".4">
        <g transform="translate(0 14)">
            <use fill="#000" filter="url(#a)" xlink:href="#b"/>
            <use fill="#FFF" xlink:href="#b"/>
        </g>
        <path fill="#FDD900" d="M36.583 63.628c-.098.541-.21 1.082-.321 1.623.126-.54.237-1.082.335-1.609.07-.36.126-.707.182-1.04-.07.333-.126.68-.196 1.026M36.479 49.008a.561.561 0 0 1 .07.125h.013v-.014c-.028-.042-.041-.07-.083-.11M39.406 42.92a1.792 1.792 0 0 0-.28-.153c-.125-.07-.278-.125-.418-.195l.419.209c.181.097.363.18.53.29a2.432 2.432 0 0 1-.25-.152"/>
        <path fill="#EC2224" d="M36.51 55.375c.014.167.014.32.014.486.014-.125 0-.236 0-.347 0-.042 0-.097-.014-.139"/>
        <path fill="#221F1D" d="M36.527 55.126v.014l-.014-.014z"/>
        <path fill="#EC2224" d="M36.527 56.323v.042c-.014-.014-.014-.028-.014-.028l.014-.014z"/>
        <path fill="#221F1D" d="M56.403 75.735a.793.793 0 0 1-.098-.277l.028.028c.014.083.042.166.07.25"/>
        <path fill="#0B0A52" d="M27.59 65.699c-2.694 0-4.886-2.178-4.886-4.855 0-.766.625-1.387 1.396-1.387.77 0 1.396.621 1.396 1.387 0 1.147.94 2.08 2.095 2.08a2.09 2.09 0 0 0 2.094-2.08c0-.766.626-1.387 1.396-1.387.771 0 1.396.621 1.396 1.387 0 2.677-2.192 4.855-4.886 4.855M45.742 65.699c-2.695 0-4.887-2.178-4.887-4.855 0-.766.625-1.387 1.396-1.387.77 0 1.396.621 1.396 1.387 0 1.147.94 2.08 2.095 2.08a2.09 2.09 0 0 0 2.094-2.08c0-.766.625-1.387 1.396-1.387.77 0 1.396.621 1.396 1.387 0 2.677-2.192 4.855-4.886 4.855M46.18 85.035c-.408 0-.796-.238-.965-.635a9.034 9.034 0 0 0-1.963-2.89 9.115 9.115 0 0 0-2.91-1.95 9.29 9.29 0 0 0-7.126 0 9.106 9.106 0 0 0-2.911 1.95 9.048 9.048 0 0 0-1.963 2.89c-.226.53-.836.78-1.373.552a1.035 1.035 0 0 1-.555-1.362 11.17 11.17 0 0 1 2.41-3.554 11.263 11.263 0 0 1 3.575-2.394 11.41 11.41 0 0 1 8.759.002 11.201 11.201 0 0 1 3.576 2.394 11.105 11.105 0 0 1 2.41 3.552 1.038 1.038 0 0 1-.964 1.445"/>
        <path fill="#EF4F5C" d="M56.416 18.636c-2.067-1.152-4.398-2.123-6.995-2.844-1.369-.402-2.807-.707-4.329-.957-2.54-.416-5.291-.638-8.307-.638s-5.767.222-8.322.638c-1.508.25-2.946.555-4.314.957C-.522 22.686-.257 50.386.929 63.203c0 0 .098 1.068.336 2.968 1.452 10.431 5.543 17.81 7.079 20.294v.014s1.242 2.122 2.513 2.552c.112.041.21.055.321.07.154.027.335.027.517.027.642.07 1.954-.167 2.527-.291.167-.028.28-.056.28-.056a4.88 4.88 0 0 1-.168-.277c-1.9-3.33-4.622-11.93-5.125-13.51-.014-.056-.028-.098-.042-.14l-.041-.124c-1.55-5.604-3.728-13.497-3.812-18.643-.028-1.331.084-2.483.377-3.37.251-.75.558-1.443.921-2.123v-.014c1.313-2.4 3.351-4.23 6.297-5.714 4.175-2.095 10.165-3.357 17.858-3.773 1.899-.097 3.91-.153 6.018-.153 10.64 0 18.653 1.318 23.875 3.926 2.946 1.484 4.985 3.315 6.283 5.714v.014c.377.68.684 1.374.922 2.123.307.887.419 2.039.39 3.37-.083 5.146-2.275 13.039-3.81 18.643l-.043.125a1.738 1.738 0 0 0-.042.138c-.516 1.623-3.393 10.695-5.291 13.788 0 0 1.968.444 2.806.347.168 0 .35 0 .517-.028.111-.014.21-.028.32-.07 1.257-.43 2.5-2.551 2.5-2.551v-.014c1.55-2.483 5.627-9.863 7.093-20.294.237-1.9.321-2.968.321-2.968 1.061-11.471 1.396-34.844-16.21-44.567"/>
        <path fill="#FF6773" d="M56.416 18.636c-1.16 2.746-2.765 5.382-4.705 7.795-5.404 6.714-13.027 11.347-20.944 14.662a92.834 92.834 0 0 1-6.646 2.524c-4.356 1.484-8.894 3.135-11.924 6.589-2.946 3.384-4.007 8.073-3.825 12.54.195 4.48 1.508 8.821 2.806 13.107.656 2.137 4.077 9.557 3.156 12.65a1.17 1.17 0 0 1-.112.334c-.573.124-1.885.36-2.527.29-.182 0-.363 0-.517-.027a1.332 1.332 0 0 1-.321-.07c-1.27-.43-2.513-2.551-2.513-2.551v-.014c-1.536-2.483-5.627-9.863-7.08-20.294-.237-1.9-.334-2.968-.334-2.968-1.187-12.817-1.452-40.517 23.219-47.41 1.368-.403 2.806-.708 4.314-.958 2.555-.416 5.306-.638 8.322-.638 3.016 0 5.766.222 8.307.638 1.522.25 2.96.555 4.329.957 2.597.721 4.928 1.692 6.995 2.844"/>
        <path fill="#0B0A52" d="M50.009 15.995c-11.044 9.738-21.558 3.538-26.082-.124a36.913 36.913 0 0 1 4.384-.971c2.583-.417 5.376-.638 8.434-.638 3.043 0 5.85.221 8.419.638 1.717.277 3.323.652 4.845 1.095M36.83 40.117c10.793 0 18.933 1.345 24.211 3.98 2.943 1.474 5.44 3.75 6.58 6.865 1.115 3.055 1.131 6.424.657 9.603-1.299 8.71-4.175 17.411-7.865 25.395-.391.846-.782 1.873-1.438 2.58-1.732-.5-3.31-1.429-3.742-2.746-.168-.513-.224-1.263-.196-2.178.084-2.51 1.215-6.2 2.276-9.793a1.15 1.15 0 0 1 .056-.208c.112-.374.223-.735.321-1.11.14-.43.265-.86.377-1.276a37.654 37.654 0 0 0 1.243-5.909c.76-5.86.635-12.4-4.091-16.714-3.281-2.996-10.04-5.077-18.389-5.077h-.094c-8.35 0-15.109 2.08-18.39 5.077-4.673 4.291-4.855 10.868-4.09 16.714.236 1.817.613 3.8 1.243 5.91.11.415.237.845.377 1.275.098.375.21.736.321 1.11.028.07.04.139.056.208 1.06 3.593 2.192 7.282 2.276 9.793.028.915-.028 1.665-.197 2.178-.433 1.317-2.01 2.247-3.742 2.746-.655-.707-1.047-1.734-1.437-2.58-3.69-7.984-6.566-16.685-7.866-25.395-.475-3.179-.457-6.548.659-9.603 1.138-3.115 3.636-5.391 6.578-6.864 5.279-2.636 13.419-3.981 24.212-3.981h.094z"/>
        <g>
            <g transform="translate(121.308 28.492)">
                <use fill="#000" filter="url(#c)" xlink:href="#d"/>
                <use fill="#FFF" xlink:href="#d"/>
            </g>
            <path fill="#221F1D" d="M166.828 75.926a.797.797 0 0 1-.097-.277l.028.027c.014.083.042.167.07.25"/>
            <path fill="#FDD900" d="M147.173 63.819c-.097.54-.207 1.082-.318 1.623.124-.541.235-1.082.332-1.61.07-.36.125-.707.18-1.04-.07.333-.125.68-.194 1.027M147.07 49.199a.595.595 0 0 1 .069.124h.014v-.013c-.028-.042-.042-.07-.083-.111M149.973 43.11a1.773 1.773 0 0 0-.277-.153c-.125-.07-.277-.125-.415-.194.138.07.277.139.415.207.18.098.36.18.526.29-.083-.04-.166-.095-.25-.15"/>
            <path fill="#EC2224" d="M147.101 55.565a5.7 5.7 0 0 1 .014.487c.014-.125 0-.236 0-.347 0-.043 0-.098-.014-.14"/>
            <path fill="#221F1D" d="M147.118 55.317v.014l-.014-.014z"/>
            <path fill="#EC2224" d="M147.118 56.513v.042c-.014-.013-.014-.028-.014-.028l.014-.014z"/>
            <path fill="#FDD900" d="M157.142 39.115h.013v-.14c-.013.085-.013.14-.013.14"/>
            <path fill="#EB1D24" d="M157.155 39.115h-.014c-.014 0-.055 0-.11-.015a.35.35 0 0 1 .124.015"/>
            <path fill="#FF6773" d="M167.433 18.826c-2.049-1.151-4.361-2.122-6.936-2.843-1.357-.403-2.784-.71-4.293-.958-2.52-.416-5.247-.638-8.238-.638-2.991 0-5.719.222-8.253.638-1.495.249-2.921.555-4.278.958-24.466 6.893-24.203 34.594-23.026 47.41 0 0 .097 1.067.332 2.969 1.44 10.43 5.497 17.809 7.02 20.292v.015s1.232 2.12 2.492 2.552c.111.04.208.056.319.07.152.026.332.026.512.026.637.07 1.939-.165 2.506-.291.167-.027.277-.056.277-.056-.055-.082-.11-.18-.166-.276-1.883-3.329-4.583-11.929-5.081-13.51-.014-.056-.028-.097-.042-.14-.028-.082-.041-.125-.041-.125-1.537-5.604-3.697-13.495-3.78-18.641-.028-1.332.083-2.483.373-3.372.25-.75.554-1.443.914-2.121v-.015c1.302-2.399 3.323-4.231 6.245-5.714 4.14-2.096 10.08-3.357 17.71-3.774 1.882-.096 3.876-.151 5.967-.151 10.55 0 18.498 1.316 23.677 3.925 2.921 1.483 4.943 3.315 6.23 5.714v.015c.374.678.679 1.372.914 2.12.305.89.416 2.041.388 3.373-.083 5.146-2.257 13.037-3.78 18.64l-.042.126c-.013.043-.027.084-.041.14-.512 1.623-3.365 10.694-5.248 13.786 0 0 1.953.445 2.783.347.166 0 .346 0 .513-.026.11-.014.207-.03.318-.07 1.246-.431 2.479-2.552 2.479-2.552v-.015c1.536-2.483 5.58-9.861 7.033-20.292.236-1.902.319-2.968.319-2.968 1.052-11.473 1.384-34.844-16.076-44.568"/>
            <path fill="#EF4F5C" d="M167.433 18.826c-1.149 2.745-2.741 5.382-4.666 7.796-5.358 6.713-12.918 11.346-20.769 14.66a90.958 90.958 0 0 1-6.59 2.526c-4.32 1.484-8.82 3.135-11.825 6.588-2.922 3.385-3.974 8.073-3.794 12.54.194 4.479 1.495 8.822 2.783 13.108.65 2.136 4.043 9.557 3.13 12.65a1.152 1.152 0 0 1-.112.332c-.567.126-1.869.362-2.506.291-.18 0-.36 0-.512-.026a1.38 1.38 0 0 1-.319-.07c-1.26-.431-2.492-2.552-2.492-2.552v-.015c-1.523-2.483-5.58-9.861-7.02-20.292-.235-1.902-.332-2.968-.332-2.968-1.177-12.817-1.44-40.518 23.026-47.411 1.357-.403 2.783-.71 4.278-.958 2.534-.416 5.262-.638 8.253-.638 2.99 0 5.718.222 8.238.638 1.51.249 2.936.555 4.293.958 2.575.72 4.887 1.692 6.936 2.843"/>
            <path fill="#0B0A52" d="M161.079 16.186c-10.952 9.737-21.379 3.537-25.865-.125a36.345 36.345 0 0 1 4.348-.97c2.562-.417 5.33-.639 8.363-.639 3.019 0 5.802.222 8.35.638a39.43 39.43 0 0 1 4.804 1.096M148.01 40.307c10.704 0 18.776 1.346 24.01 3.981 2.918 1.473 5.395 3.748 6.523 6.863 1.106 3.056 1.124 6.424.654 9.605-1.29 8.71-4.142 17.41-7.8 25.395-.388.846-.775 1.872-1.426 2.58-1.717-.5-3.282-1.43-3.71-2.747-.167-.513-.222-1.262-.195-2.178.083-2.51 1.205-6.2 2.257-9.792.014-.07.028-.14.056-.209.11-.374.221-.735.318-1.11.139-.43.263-.86.374-1.275a37.962 37.962 0 0 0 1.232-5.91c.753-5.86.63-12.399-4.057-16.714-3.254-2.996-9.955-5.077-18.235-5.077h-.096c-8.28 0-14.981 2.081-18.235 5.077-4.636 4.293-4.814 10.868-4.057 16.715.235 1.815.61 3.8 1.232 5.909.111.414.236.846.374 1.276.097.374.208.735.319 1.11.027.069.041.138.055.208 1.052 3.592 2.174 7.282 2.257 9.792.028.916-.028 1.665-.194 2.178-.43 1.318-1.994 2.247-3.71 2.747-.651-.708-1.04-1.734-1.427-2.58-3.658-7.984-6.512-16.686-7.8-25.395-.47-3.181-.452-6.549.654-9.605 1.129-3.115 3.606-5.39 6.523-6.863 5.234-2.635 13.306-3.98 24.01-3.98h.095z"/>
            <path fill="#0B0A52" d="M139.85 80.177c.391 3.7 3.524 6.591 7.318 6.591 3.795 0 6.929-2.892 7.32-6.591-2.683-.31-11.955-.31-14.637 0m7.317 8.672c-5.203 0-9.436-4.242-9.436-9.453 0-1.08 0-1.526 9.436-1.526 9.438 0 9.438.447 9.438 1.526 0 5.211-4.234 9.453-9.438 9.453M139.47 73.03c12.036-18.856 1.21-21.63-2.227-20.205-3.44 1.426-3.628 6.03-3.628 6.03s-3.381-3.125-6.82-1.698c-3.433 1.422-9.142 11.05 12.674 15.873M167.544 57.157c-3.44-1.426-6.822 1.699-6.822 1.699s-.186-4.605-3.628-6.031c-3.437-1.425-14.263 1.35-2.226 20.204 21.817-4.821 16.107-14.45 12.676-15.872"/>
        </g>
        <g>
            <g transform="translate(46)">
                <use fill="#000" filter="url(#e)" xlink:href="#f"/>
                <use fill="#FFF" xlink:href="#f"/>
            </g>
            <path fill="#EF4F5C" d="M101.253 87.683h-18.61c-.733 0-1.327-.6-1.327-1.34 0-.74.594-1.34 1.327-1.34h18.61c.733 0 1.327.6 1.327 1.34 0 .74-.594 1.34-1.327 1.34"/>
            <path fill="#FDD900" d="M92.356 63.862c-.124.698-.265 1.393-.407 2.092.16-.699.3-1.394.425-2.073.088-.466.159-.913.23-1.34-.089.427-.16.874-.248 1.32M92.224 45.029c.035.053.07.107.088.16h.018v-.017c-.036-.054-.053-.09-.106-.143M95.933 37.184a2.26 2.26 0 0 0-.354-.197c-.159-.089-.353-.16-.53-.25l.53.268c.23.125.46.233.673.376-.106-.054-.213-.126-.319-.197"/>
            <path fill="#EC2224" d="M92.264 53.23c.017.215.017.411.017.626.018-.161 0-.304 0-.447 0-.054 0-.125-.017-.179"/>
            <path fill="#221F1D" d="M92.285 52.91v.018l-.018-.018z"/>
            <path fill="#EC2224" d="M92.285 54.452v.053c-.018-.018-.018-.035-.018-.035l.018-.018z"/>
            <path fill="#D2D2D2" d="M109.251 64.144h-6.661c-.496 0-.9-.409-.9-.91 0-.5.404-.909.9-.909h6.661c.495 0 .9.41.9.91s-.405.91-.9.91"/>
            <path fill="#EF4F5C" d="M102.59 63.22l6.66.032c.008 0 .017-.011.017-.016l-6.678-.017zm6.66 1.819h-6.66c-.984 0-1.786-.81-1.786-1.803 0-.996.802-1.803 1.785-1.803h6.662c.983 0 1.785.807 1.785 1.803 0 .993-.802 1.803-1.785 1.803z"/>
            <path fill="#D2D2D2" d="M82.618 64.144h-6.661c-.495 0-.9-.409-.9-.91 0-.5.405-.909.9-.909h6.661c.496 0 .9.41.9.91s-.404.91-.9.91"/>
            <path fill="#EF4F5C" d="M75.957 63.22l6.661.032c.007 0 .016-.011.016-.016l-6.677-.017zm6.661 1.819h-6.661c-.984 0-1.785-.81-1.785-1.803 0-.996.801-1.803 1.785-1.803h6.661c.984 0 1.785.807 1.785 1.803 0 .993-.801 1.803-1.785 1.803z"/>
            <path fill="#FDD900" d="M116.831 5.718c-2.618-1.483-5.573-2.734-8.863-3.663-1.734-.518-3.557-.911-5.485-1.233C99.263.286 95.778 0 91.956 0c-3.822 0-7.307.286-10.545.822-1.91.322-3.733.715-5.467 1.233-31.262 8.88-30.926 44.565-29.422 61.076 0 0 .124 1.376.425 3.825 1.84 13.436 7.024 22.942 8.97 26.14v.019s1.574 2.734 3.184 3.287c.142.054.266.072.407.09.195.036.425.036.655.036.814.089 2.477-.215 3.202-.376.213-.035.354-.071.354-.071a6.308 6.308 0 0 1-.212-.358C61.1 91.435 57.65 80.358 57.014 78.32c-.018-.071-.036-.123-.053-.179l-.053-.16c-1.964-7.22-4.724-17.387-4.83-24.016-.036-1.715.106-3.199.477-4.342.319-.965.708-1.859 1.168-2.734v-.018c1.663-3.091 4.246-5.45 7.98-7.362 5.29-2.698 12.88-4.324 22.628-4.86 2.406-.125 4.953-.197 7.625-.197 13.482 0 23.637 1.698 30.254 5.057 3.733 1.912 6.316 4.27 7.961 7.362v.018a14.93 14.93 0 0 1 1.168 2.734c.39 1.143.53 2.627.495 4.342-.106 6.63-2.883 16.797-4.83 24.016l-.053.16c-.017.056-.035.108-.053.18-.654 2.09-4.299 13.776-6.705 17.76 0 0 2.495.573 3.556.448.212 0 .442 0 .655-.036.141-.018.265-.036.407-.09 1.592-.553 3.167-3.287 3.167-3.287v-.018c1.963-3.199 7.13-12.705 8.987-26.14.301-2.45.407-3.826.407-3.826 1.345-14.778 1.77-44.887-20.54-57.413"/>
            <path fill="#FACC0A" d="M116.831 5.718c-1.468 3.538-3.503 6.933-5.962 10.042-6.847 8.649-16.507 14.617-26.538 18.888a116.447 116.447 0 0 1-8.422 3.252c-5.52 1.912-11.27 4.038-15.11 8.488-3.732 4.36-5.077 10.4-4.847 16.153.248 5.772 1.91 11.365 3.556 16.886.832 2.752 5.166 12.312 3.999 16.296-.036.161-.071.304-.142.43-.725.16-2.388.464-3.202.375-.23 0-.46 0-.655-.036a1.664 1.664 0 0 1-.407-.09c-1.61-.553-3.184-3.287-3.184-3.287v-.018c-1.946-3.199-7.13-12.705-8.97-26.14-.301-2.45-.425-3.826-.425-3.826-1.504-16.511-1.84-52.195 29.422-61.076 1.734-.518 3.557-.911 5.467-1.233C84.65.286 88.134 0 91.956 0s7.307.286 10.527.822c1.928.322 3.75.715 5.485 1.233 3.29.93 6.245 2.18 8.863 3.663"/>
            <path fill="#EF4F5C" d="M108.712 2.318c-13.995 12.544-27.317 4.557-33.05-.16A46.12 46.12 0 0 1 81.219.905C84.491.37 88.03.084 91.904.084c3.857 0 7.413.286 10.669.822 2.176.358 4.21.84 6.139 1.412"/>
            <path fill="#0B0A52" d="M92.013 33.391c13.676 0 23.99 1.733 30.678 5.129 3.73 1.895 6.893 4.828 8.337 8.843 1.414 3.933 1.435 8.273.833 12.372-1.645 11.218-5.29 22.427-9.966 32.713-.495 1.09-.99 2.412-1.822 3.323-2.194-.643-4.193-1.842-4.742-3.538-.212-.66-.283-1.626-.247-2.805.106-3.234 1.539-7.987 2.884-12.616a1.5 1.5 0 0 1 .07-.268c.142-.484.283-.947.407-1.43.177-.553.336-1.107.478-1.643a49.187 49.187 0 0 0 1.575-7.614c.962-7.548.805-15.971-5.184-21.53-4.158-3.86-12.721-6.54-23.301-6.54h-.12c-10.58 0-19.145 2.68-23.301 6.54-5.923 5.529-6.153 14-5.184 21.53a48.775 48.775 0 0 0 1.575 7.614c.141.536.3 1.09.477 1.644.124.482.266.945.407 1.43.036.089.052.178.071.267 1.343 4.629 2.778 9.382 2.884 12.616.035 1.18-.035 2.144-.25 2.805-.548 1.696-2.545 2.895-4.74 3.538-.83-.911-1.326-2.233-1.822-3.323-4.676-10.286-8.32-21.495-9.967-32.713-.602-4.099-.579-8.44.835-12.372 1.442-4.015 4.607-6.948 8.334-8.843 6.69-3.396 17.005-5.129 30.68-5.129h.121z"/>
        </g>
    </g>
</svg>
