<svg xmlns="http://www.w3.org/2000/svg" width="76" height="34" viewBox="0 0 76 34">
    <g fill="none" fill-rule="evenodd">
        <path fill="#FDDF00" d="M56.645 34H1.082A1.073 1.073 0 0 1 0 32.937V1.064C0 .475.485 0 1.082 0h72.916c.818 0 1.342.855.955 1.563L57.6 33.438a1.085 1.085 0 0 1-.955.562"/>
        <path fill="#FEC200" d="M22.622 0H1.072C.48 0 0 .475 0 1.063v31.875C0 33.525.48 34 1.072 34h41.105L22.622 0z"/>
        <path fill="#FFF" d="M5.671 8.604H5.67a.978.978 0 0 0-.894.56c-.506 1.038.752 2.402 3.74 4.054a.755.755 0 0 0 .93-.157.74.74 0 0 0 .042-.933C7.754 9.79 6.47 8.604 5.671 8.604M8.493 17.845a.743.743 0 0 0-.145.013c-4.464.865-4.778 1.725-4.882 2.006a.954.954 0 0 0 .168.952c.16.198.463.433.998.433 1.33 0 3.813-1.713 4.298-2.055a.743.743 0 0 0-.437-1.35M54.387 18.816a.752.752 0 0 0-.871.356c-.17.307-.1.688.167.918 1.142.984 3.214 2.633 4.255 2.633.496 0 .89-.302 1-.77.262-1.122-1.267-2.178-4.55-3.137M54.29 14.316a.762.762 0 0 0 .303-.064c4.162-1.818 4.279-2.723 4.318-3.02a.958.958 0 0 0-.376-.893 1.166 1.166 0 0 0-.731-.245c-1.257.001-3.268 2.086-4.074 2.983a.739.739 0 0 0-.046.933.752.752 0 0 0 .607.306"/>
        <path fill="#000" fill-rule="nonzero" d="M23.264 25.61c-.387 0-.73-.143-1.051-.42-.31-.279-.465-.671-.465-1.17v-.133c.1-.968.2-2.242.288-3.822.066-1.216.1-2.327.1-3.333 0-3.237-.355-4.856-1.074-4.856-.531 0-1.063.737-1.605 2.203-.432 1.159-.83 2.634-1.195 4.425-.332 1.6-.576 2.998-.72 4.195a18.81 18.81 0 0 1-.343 2.05c-.144.498-.786.804-1.45.804-.763 0-1.516-.47-1.538-1.609l.033-3.946c0-1.063-.01-2.126-.044-3.19a30.198 30.198 0 0 0-.587-4.97l-.01-.163c0-.25.099-.47.298-.661.255-.22.553-.335.908-.335.708 0 1.527.354 1.793 1.57.298 1.542.487 3.094.564 4.646.72-3.286 1.749-5.421 3.088-6.389a2.575 2.575 0 0 1 1.538-.479c1.251 0 2.081.824 2.58 2.127.254.651.442 1.388.564 2.222.254 1.647.232 2.93.232 3.591 0 1.906-.144 4.148-.443 6.705-.077.603-.708.939-1.46.939zm6.619-7.481c.94-.387 1.649-.94 2.125-1.682.575-.908.863-1.705.863-2.402 0-.664-.2-.996-.598-.996-.53 0-1.062.52-1.593 1.55-.487.94-.753 2.113-.797 3.53zm1.708 7.482c-1.406 0-2.546-.59-3.395-1.778-.849-1.19-1.28-2.945-1.28-5.266 0-1.246.216-2.457.66-3.635.519-1.404 1.33-2.412 2.419-3.012.583-.317 1.267-.476 2.065-.476.874 0 1.609.283 2.204.838.595.555.887 1.37.887 2.446 0 2.525-1.634 4.405-4.915 5.617.063.917.24 1.687.506 2.333.355.872.862 1.302 1.533 1.302.418 0 .785-.272 1.115-.815.342-.555.507-1.235.507-2.061v-.238c0-.374.304-.714.76-.714.392 0 .734.25.747.646l.013.385c0 1.064-.266 2.004-.798 2.831-.697 1.064-1.698 1.597-3.028 1.597zm8.49 0c-1.196 0-2.065-.953-2.593-2.87-.44-1.546-.655-3.4-.655-5.565 0-2.14.126-3.71.365-4.712.202-.829.78-1.163 1.423-1.163.503 0 .931.198 1.283.582.353.383.529.828.529 1.348 0 .148-.013.296-.05.457-.038.26-.088.73-.126 1.422-.038.693-.076 1.336-.088 1.93-.013.593-.013 1.039-.013 1.323 0 3.104.227 4.663.667 4.663.189 0 .403-.384.617-1.163.214-.779.428-1.657.617-2.659.188-1.002.352-1.892.49-2.671l.227-1.15c.139-.693.705-1.101 1.31-1.101.44 0 .83.185 1.157.556.327.36.49.965.49 1.806 0 1.57.026 2.709.064 3.426.1 1.769.327 2.659.692 2.659.315 0 .592-.322.818-.977.24-.656.416-1.46.529-2.412.113-.964.176-1.954.176-2.956 0-2.585-.302-4.316-.894-5.206a.756.756 0 0 1-.138-.409c0-.26.113-.457.327-.618a.7.7 0 0 1 .403-.124c.604 0 1.095.792 1.473 2.375.201.878.314 1.682.352 2.387.038.705.05 1.224.05 1.558 0 1.967-.239 3.698-.717 5.207-.642 2.04-1.624 3.055-2.92 3.055-1.485 0-2.48-.89-2.97-2.672-.58 2.016-1.498 3.674-2.895 3.674z"/>
    </g>
</svg>
