<svg xmlns="http://www.w3.org/2000/svg" width="40" height="40" viewBox="0 0 40 40">
    <g fill="none" fill-rule="evenodd">
        <circle cx="20" cy="20" r="20" fill="#EBEBEB"/>
        <path fill="#120149" d="M30.555 19.16c1.183-1.167 2.01-1.94 2.45-2.487.415-.522.46-.836.118-1.12-.778-.65-4.124 2.85-4.406 3.15.245.54.175 1.243.174 1.48.005.043.16.138.164.176.496-.359 1.117-.842 1.5-1.198zM7.454 28.741c1.078-.184 2.4-.486 3.865-.884.006-.09.02-.23.036-.408.021-.494.067-.949.089-1.332.012-.231.002-.443-.007-.654-3.593.778-7.272 1.12-10.513.55.311.99.715 1.937 1.169 2.855 1.66.168 3.507.187 5.36-.127M11.686 22.116c.491-.19.975-.376 1.449-.545l.109-.04c.003.005-.016-.016-.044-.046-.328-.352-2.703-2.807-6.71-3.306l-.124.093c-.641.49-3.677 2.945-2.562 4.484 1.847 1.377 4.3.704 6.713-.194.391-.146.781-.296 1.169-.446"/>
        <path fill="#FF2751" d="M12.978 27.233a12.55 12.55 0 0 0-.118-2.04c-.25-1.724-.834-2.66-1.175-3.076-.387.15-.777.3-1.168.445.325.465.854 1.45.92 2.9.008.213.02.424.006.656-.021.382-.067.838-.088 1.331-.006.13-.01.265-.01.4l.034-.008c.517-.14 1.053-.295 1.602-.459-.001-.049-.004-.102-.003-.15"/>
        <path fill="#FF2751" d="M16.655 24.12a6.282 6.282 0 0 0-.185-.685c-1.535-4.64-8.634-6.681-9.258-6.507-.508.14-1.022.738-.819 1.212 0 0-.013.054-.027.132.073-.057.124-.093.124-.093 4.007.5 6.382 2.953 6.71 3.305l.046-.004a.678.678 0 0 1 .095.076c.334.31 1.248 1.457 1.713 3.042.172.588.28 1.233.275 1.921 0 .04.003.077.002.116.448-.154.89-.303 1.363-.476l.101-.029a7.796 7.796 0 0 0-.14-2.01M28.884 18.465l-.024-.088a.159.159 0 0 0-.008-.023l-.08-.272a10.575 10.575 0 0 0-1.183-2.55c-.034-.052-.064-.105-.099-.159-.783-.23-2.128 2.568-1.757 5.065.084.565.258 1.114.543 1.61 1.883-1.088 2.924-1.862 2.924-1.862v-.068a10.289 10.289 0 0 0-.316-1.653"/>
        <path fill="#FFE473" d="M35.894 32.105c-7.825 3.338-15.074 5.59-21.456 7.094 1.768.512 3.63.801 5.562.801 6.49 0 12.24-3.105 15.894-7.895"/>
        <path fill="#FFEDC5" d="M37.485 26.804c-1.7-1.28-4.365-1.222-5.702-1.093a.351.351 0 0 0-.186.622c.866.71 2.47 2.054 3.828 3.36l.007-.003.211.213c.385.375.746.746 1.054 1.092a19.93 19.93 0 0 0 2.026-4.016c-.332.113-.746.114-1.238-.175"/>
        <path fill="#FF787F" d="M36.693 31.003a42.296 42.296 0 0 0-1.26-1.314l-.008.003c-.097.049-10.02 4.898-25.263 7.709a19.857 19.857 0 0 0 4.276 1.799c6.38-1.505 13.631-3.756 21.457-7.095.275-.36.547-.722.798-1.102"/>
        <path fill="#5F5F72" d="M0 20c0 1.29.133 2.547.366 3.768.59-1.003 1.228-2.098 1.92-3.3C6.907 12.185 17.141 4.759 21.97.1 21.321.036 20.665 0 20 0 8.954 0 0 8.954 0 20"/>
        <path fill="#294F75" d="M25.935 26.291a2.422 2.422 0 0 0 .742 4.785 2.42 2.42 0 1 0-.742-4.785"/>
        <path fill="#26F97B" d="M26.06 27.262a1.745 1.745 0 1 0 .536 3.447 1.745 1.745 0 0 0-.535-3.447"/>
        <path fill="#82E2B0" d="M15.054 24.598c-.465-1.584-1.38-2.732-1.714-3.041l-.205.014c-.474.168-.959.355-1.45.546.341.416.924 1.352 1.174 3.077.085.584.132 1.26.12 2.039-.002.047.001.1.002.15a80.368 80.368 0 0 0 2.185-.69l.134-.047.029-.126a6.648 6.648 0 0 0-.275-1.922"/>
        <path fill="#FFC300" d="M12.926 11.524c-2.254 1.33-4.786 3.512-5.714 5.405.624-.175 7.723 1.866 9.258 6.505.076.23.137.46.185.685.147.696.171 1.367.14 2.012l.104-.03c3.155-1.113 6.403-2.46 9.09-3.891.095-.054.196-.11.287-.163a4.526 4.526 0 0 1-.543-1.609c-.37-2.494.971-5.289 1.754-5.064-2.934-4.913-9.294-6.96-14.561-3.85M27.49 15.374h-.003c.033.054.07.104.102.159-.034-.053-.064-.106-.1-.16"/>
        <path fill="#000" fill-opacity=".37" d="M28.86 18.377c-.899.74-1.969 1.427-3.127 2.06-2.88 1.578-6.311 2.821-9.079 3.682a79.142 79.142 0 0 1-3.795 1.075c-.818.208-1.41.27-1.41.27s-.063 1.202-.131 1.918c-.006.13 0 .34 0 .475l.062-.016a77.322 77.322 0 0 0 1.6-.459 80.415 80.415 0 0 0 2.186-.69l.135-.046c.009-.042.03-.05.03-.011.449-.154.89-.303 1.362-.476.034-.008.07-.02.102-.029.035-.008.07-.02.104-.029 3.155-1.113 6.404-2.461 9.09-3.892l.287-.162c1.883-1.087 2.935-1.813 2.924-1.771v-.158a10.3 10.3 0 0 0-.316-1.653l-.024-.088z"/>
        <path fill="#FFE473" d="M26.677 31.076a2.42 2.42 0 1 1-.74-4.784 2.42 2.42 0 0 1 .74 4.784m8.872-14.803c.203-.625.51-1.227.445-1.616-.065-.394-.512-.568-1.838-.32-2.874.535-5.41 3.654-5.41 3.654l.026.09.08.273.008.023c.003-.003.032.117.052.165.282-.3 3.432-3.64 4.21-2.99.342.286.297.599-.117 1.122-.427.537-1.244 1.298-2.45 2.487a14.35 14.35 0 0 1-1.344 1.074 27.476 27.476 0 0 1-2.934 1.814c-.098.053-.189.108-.288.16-2.687 1.43-5.935 2.778-9.09 3.892a86.983 86.983 0 0 1-3.919 1.281 71.43 71.43 0 0 1-1.6.459l-.018.005-.017.004-.014.003c-.02.147-.021.124-.013.004-1.464.398-2.786.7-3.864.884-1.854.314-3.701.296-5.36.126a20.067 20.067 0 0 0 8.068 8.534c15.243-2.811 25.166-7.66 25.262-7.709-1.358-1.306-2.96-2.65-3.827-3.36a.35.35 0 0 1 .186-.62c1.337-.13 4.002-.19 5.702 1.092.493.29.906.288 1.238.175.153-.408.304-.816.43-1.237-3.5-3.025-6.084-4.34-6.084-4.34s2.072-3.872 2.48-5.13z"/>
    </g>
</svg>
