<svg xmlns="http://www.w3.org/2000/svg" width="24" height="24" viewBox="0 0 24 24">
    <path fill="#FFC300" fill-rule="evenodd" d="M4.924 4.922c3.9-3.896 10.253-3.896 14.152 0 3.9 3.897 3.9 10.247 0 14.143A9.975 9.975 0 0 1 12.013 22c-2.557 0-5.114-.987-7.089-2.935-3.899-3.896-3.899-10.246 0-14.143zm7.09-1.138c-2.102 0-4.229.81-5.824 2.403a8.227 8.227 0 0 0 0 11.639 8.24 8.24 0 0 0 11.646 0 8.227 8.227 0 0 0 0-11.639 8.293 8.293 0 0 0-5.823-2.403zm.506 2.784c.48 0 .886.404.886.885v5.06c0 .48-.405.885-.886.885H8.469a.897.897 0 0 1-.886-.885c0-.481.405-.886.886-.886h3.165V7.453c0-.48.405-.885.886-.885z"/>
</svg>
