<svg xmlns="http://www.w3.org/2000/svg" xmlns:xlink="http://www.w3.org/1999/xlink" width="62" height="62" viewBox="0 0 62 62">
    <defs>
        <path id="a" d="M61.933 31c0 17.084-13.849 30.933-30.933 30.933S.067 48.084.067 31 13.916.067 31 .067 61.933 13.916 61.933 31"/>
    </defs>
    <g fill="none" fill-rule="evenodd">
        <path fill="#DCDFE2" d="M61.933 31c0 17.084-13.849 30.933-30.933 30.933S.067 48.084.067 31 13.916.067 31 .067 61.933 13.916 61.933 31"/>
        <mask id="b" fill="#fff">
            <use xlink:href="#a"/>
        </mask>
        <use fill="#DCDFE2" xlink:href="#a"/>
        <path fill="#1E2735" d="M29.53 46.69l6.6-3.38s-.318-1.848 1.636-3.221c1.081-.723 3.326-.58 4.593.475.423-.264 1.584-4.33.37-6.283-.416.116-10.243 2.904-13.622-6.283-.156-.176-3.135 1.856-5.28 4.382.58.423 3.59 1.954 3.59 1.954s3.832 4.846 3.854 5.755c-.343.343-4.488 4.33-4.488 4.33l2.746 2.27z" mask="url(#b)"/>
        <path fill="#1E2735" d="M23.188 36.933c0-5.161 4.359-9.346 9.736-9.346 5.378 0 9.737 4.185 9.737 9.346 0 5.162-3.734 9.017-9.278 9.017-5.377 0-10.195-3.855-10.195-9.017m9.72-16.38c8.946 0 15.669 7.117 15.669 16.062 0 4.76-.898 7.303-1.994 8.701-.425.544 2.62 1.515 2.165 2.957-.317 1.003-11.07.835-15.601.873-4.087.034-19.368-.46-19.616-1.454-.423-1.69 5.823-3.316 5.596-4.17-.34-1.287-.829-1.968-1.05-3.866-.359-1.685-.589-3.58-.428-5.375.101-1.13-3.56-.98-2.798-1.742.264-.264 3.277-.689 3.432-1.162.114-.349-.27-1.874-.053-2.27.167-.306 1.526-.206 1.742-.528.135-.2.177-.683.106-1.162-.057-.383-.786-4.999-.58-5.122.527-.316 1.388 2.738 2.217 2.64.385-.045.732-.236 1.035-.461l.179-.172c2.957-2.64 6.094-3.749 9.98-3.749z" mask="url(#b)"/>
        <path fill="#1E2735" d="M34.472 31.861a5.152 5.152 0 1 1-.624 10.286 5.152 5.152 0 0 1 .624-10.286" mask="url(#b)"/>
        <path fill="#515E75" d="M47.4 3.794c.034.755.05 1.512.083 2.268l-3.964-1.13s-7.582 22.118-8.203 23.902c-.37.908.109 1.746.935 2.376a901.968 901.968 0 0 0-1.68 4.689c-1.085 2.66 1.703 3.642 2.59 1.623.069-.06.826-2.202 1.865-5.21 1.05.13 1.985-.081 2.29-.776.167-.15 4.559-12.523 7.096-19.7.656 2.374 1.58 4.69 2.498 6.981.794 1.983 1.59 3.968 2.515 5.893 1.145 2.38 2.784 4.882 5.288 5.568-.322 1.152-.202 1.99.74 2.109 1.058.133 2.116.235 3.176.312a30.8 30.8 0 0 0 .102-2.49C62.73 18.9 56.559 9.034 47.4 3.794" mask="url(#b)"/>
        <path fill="#FFC300" d="M52.15 15.746c-.833-1.94-1.781-3.927-2.408-5.98A16.849 16.849 0 0 1 49.21 7.5a8.702 8.702 0 0 1-.098-1.907A30.247 30.247 0 0 0 35.314.067C28.642 7.226 22.463 13.98 21.74 15.064l-.01.013a1.705 1.705 0 0 0-.33 1.012c-.001.948.925 1.83 9.928-1.26 12.579-4.316 24.965 19.794 28.857 22.032.179.111 1.475.948 1.747 1.038.507-2.167 1.051-4.613 1.067-6.932-2.29-1.186-4.384-3.294-4.846-4.11-.109-.189-5.804-10.646-6.004-11.111z" mask="url(#b)"/>
        <path fill="#FFF" d="M16.921 23.067l-3.627-8.043c-.13-.278-.55-.137-.555.186l-.055 8.947c-.003.191-.171.351-.35.333l-6.757-.696c-.271-.028-.46.325-.282.525l4.104 4.588c.128.144.07.394-.116.491l-4.268 2.379c-.266.139-.239.536.039.573l6.997.558c.324.043.502-.434.217-.58l-2.75-1.136c-.217-.11-.176-.455.067-.558l2.435-.795c.205-.086.277-.358.135-.508l-2.436-2.519c-.199-.21.027-.59.31-.524l4.612.816c.21.049.417-.161.38-.383l-.24-4.419c-.05-.286.293-.51.494-.322l1.175 1.482c.23.214.608-.103.471-.395" mask="url(#b)"/>
    </g>
</svg>
