<svg xmlns="http://www.w3.org/2000/svg" width="40" height="24" viewBox="0 0 40 24">
    <g fill="none" fill-rule="evenodd">
        <rect width="40" height="24" fill="#F1F1F1" rx="2"/>
        <path fill="#70706E" d="M17.475 7.428h9.31c.248 0 .43.081.545.243.097.135.129.3.094.499l-.028.123-.942 3.404a1.13 1.13 0 0 1-.413.603c-.167.13-.344.207-.53.233l-.142.01h-7.616l-.942 3.405h-1.694l1.405-5.077h1.694v.005h6.775l.494-1.78h-8.47l.46-1.668h9.31zm-9.612 0L5.96 14.284h6.778l1.904-6.856h1.694l-2.208 7.948a.781.781 0 0 1-.749.572H4.644c-.24 0-.417-.082-.533-.244-.115-.162-.143-.362-.073-.602l2.13-7.674h1.695zm22.702-.023l-2.355 8.504h-1.695l2.355-8.504h1.695z"/>
        <path fill="#098041" d="M33.49 7.42l2.143 4.262-4.505 4.262z"/>
        <path fill="#E97626" d="M31.985 7.42l2.143 4.262-4.509 4.262z"/>
    </g>
</svg>
