<?xml version="1.0" encoding="UTF-8"?>
<svg width="64px" height="64px" viewBox="0 0 64 64" version="1.1" xmlns="http://www.w3.org/2000/svg" xmlns:xlink="http://www.w3.org/1999/xlink">
    <!-- Generator: Sketch 61.2 (89653) - https://sketch.com -->
    <title>illustrator_profile_placeholder</title>
    <desc>Created with Sketch.</desc>
    <g id="illustration" stroke="none" stroke-width="1" fill="none" fill-rule="evenodd">
        <g id="Illustrations" transform="translate(-61.000000, -1183.000000)">
            <g id="illustrator_profile_placeholder" transform="translate(61.000000, 1183.000000)">
                <g id="Group-58">
                    <path d="M64.0002286,31.9956571 C64.0002286,46.0581333 54.9388952,57.997181 42.3301333,62.2920381 C39.0882286,63.4036571 35.6147048,64.0002286 32.0002286,64.0002286 C28.9663238,64.0002286 26.0223238,63.5773714 23.2375619,62.7895619 C9.82422857,58.9754667 0.000228571429,46.6387048 0.000228571429,31.9956571 C0.000228571429,14.3278476 14.3255619,0.000228571429 32.0002286,0.000228571429 C49.6741333,0.000228571429 64.0002286,14.3278476 64.0002286,31.9956571" id="Fill-1" fill="#E7F6FE"></path>
                    <path d="M61.3357714,31.9978667 C61.3357714,44.8832 53.0233905,55.8325333 41.4652952,59.7647238 C41.3136762,59.818819 41.1612952,59.8713905 41.0081524,59.9102476 C39.2184381,60.5037714 37.3517714,60.9152 35.4233905,61.1285333 C34.3041524,61.2664381 33.1612952,61.3350095 32.0024381,61.3350095 C31.7289143,61.3350095 31.4470095,61.3350095 31.1719619,61.3266286 C29.2443429,61.2740571 27.354819,61.0294857 25.5346286,60.6180571 C25.0081524,60.5037714 24.4824381,60.3666286 23.9643429,60.2218667 C23.9262476,60.2066286 23.8805333,60.1997714 23.8424381,60.1837714 C23.5833905,60.1152 23.339581,60.0313905 23.0805333,59.9552 C22.6386286,59.8104381 22.2051048,59.6656762 21.7776762,59.5056762 C21.4432,59.3769143 21.114819,59.2473905 20.7872,59.1171048 C10.1510095,54.7125333 2.66910476,44.235581 2.66910476,31.9978667 C2.66910476,15.7967238 15.7967238,2.66834286 32.0024381,2.66834286 C48.2012952,2.66834286 61.3357714,15.7967238 61.3357714,31.9978667" id="Fill-4" fill="#7CD8D5"></path>
                    <path d="M39.7971048,60.2790857 C38.4561524,57.9712762 36.8256762,54.1457524 36.3990095,52.8733714 C36.3380571,52.6988952 36.2999619,52.5769905 36.291581,52.508419 C36.2771048,52.4314667 36.2694857,52.348419 36.2611048,52.2714667 C36.1620571,51.3960381 36.1780571,50.5267048 36.2085333,49.7198476 C36.1780571,49.757181 36.147581,49.7876571 36.1171048,49.8257524 C36.1011048,49.8417524 36.0866286,49.8562286 36.0790095,49.8722286 C35.4313905,50.573181 34.707581,51.2436571 33.922819,51.7914667 C33.6637714,51.9819429 33.3971048,52.1495619 33.122819,52.3095619 C32.8485333,52.4695619 32.5666286,52.6143238 32.2771048,52.7438476 C32.1399619,52.8048 31.9952,52.8665143 31.8504381,52.9198476 C31.7201524,52.9648 31.5990095,53.0105143 31.4771048,53.0493714 C31.4542476,53.0569905 31.4313905,53.0638476 31.4085333,53.0714667 C31.2561524,53.1179429 31.1037714,53.1552762 30.9582476,53.1933714 C30.8066286,53.2238476 30.6618667,53.2543238 30.5094857,53.2779429 C30.4256762,53.292419 30.3494857,53.3008 30.2656762,53.308419 C30.1658667,53.3228952 30.066819,53.3312762 29.9609143,53.3388952 C29.7018667,53.3533714 29.442819,53.3533714 29.1761524,53.3388952 C28.7571048,53.308419 28.3456762,53.2314667 27.9411048,53.1179429 C27.6896762,53.0493714 27.4466286,52.9648 27.2096762,52.8665143 C26.6382476,52.6448 26.0904381,52.348419 25.5723429,52.012419 C25.5342476,51.9895619 25.4953905,51.9674667 25.4580571,51.9369905 C25.4199619,51.9141333 25.3818667,51.8828952 25.3437714,51.852419 L25.3437714,51.8600381 C25.3285333,52.0505143 25.2980571,52.2409905 25.2744381,52.4314667 L25.2744381,52.4390857 L25.2523429,52.5769905 C25.2371048,52.6600381 25.2218667,52.7514667 25.2066286,52.8352762 L25.2066286,52.8428952 C25.1990095,52.8588952 25.1990095,52.8665143 25.1913905,52.8809905 L25.1913905,52.9038476 C25.1761524,53.0028952 25.1532952,53.0943238 25.1304381,53.1857524 L25.1304381,53.1933714 C25.122819,53.2314667 25.1144381,53.2703238 25.107581,53.308419 C25.107581,53.3152762 25.0999619,53.3228952 25.0999619,53.3312762 L25.0999619,53.3457524 C25.0923429,53.3762286 25.0839619,53.4067048 25.0771048,53.4303238 L25.0694857,53.4303238 C25.0534857,53.5217524 25.0313905,53.612419 25.0085333,53.6962286 C24.9856762,53.8028952 24.9552,53.917181 24.9171048,54.0162286 C24.8790095,54.1762286 24.8256762,54.3362286 24.7723429,54.4962286 C24.2999619,55.8981333 23.5380571,57.1019429 22.6313905,58.3438476 C22.4561524,58.5876571 22.1285333,59.0295619 21.7780571,59.5019429 C22.2047238,59.6619429 22.6382476,59.8074667 23.0809143,59.9514667 C23.3392,60.028419 23.5837714,60.1114667 23.842819,60.1800381 C23.8801524,60.1960381 23.9266286,60.2028952 23.9647238,60.2188952 C24.4820571,60.3628952 25.0085333,60.5000381 25.5342476,60.6143238 C27.3552,61.0257524 29.2439619,61.2703238 31.1723429,61.3228952 C31.4466286,61.3312762 31.7285333,61.3312762 32.002819,61.3312762 C33.1609143,61.3312762 34.3037714,61.2619429 35.4237714,61.1248 C35.7811048,61.0638476 36.1620571,61.0188952 36.5361524,60.972419 C36.5513905,60.972419 36.5666286,60.972419 36.5818667,60.9648 L39.7971048,60.2790857 Z" id="Fill-6" fill="#02ACAB"></path>
                    <path d="M42.0805333,43.8103619 C41.8572952,45.081219 41.715581,46.2934095 41.1106286,47.4347429 C39.8687238,49.7593143 37.7392,51.5475048 35.8618667,53.3951238 C35.1266286,54.1181714 34.4972952,54.8069333 33.5609143,55.2244571 C32.7494857,55.5894095 31.443581,55.7067429 30.5254857,55.6541714 C29.6073905,55.7067429 28.3014857,55.5894095 27.4900571,55.2244571 C26.5536762,54.8069333 25.9243429,54.1181714 25.1891048,53.3951238 C23.3117714,51.5475048 21.1822476,49.7593143 19.9403429,47.4347429 C19.3346286,46.2934095 19.1936762,45.081219 18.9704381,43.8103619 C18.2405333,39.7326476 18.1582476,35.3151238 18.5704381,31.5726476 C18.7403429,30.0663619 19.1814857,28.6134095 19.7818667,27.2366476 C20.2938667,26.0305524 20.9232,24.8831238 21.5830095,23.7943619 C21.5997714,23.7707429 21.6180571,23.7478857 21.635581,23.7303619 C23.6942476,21.0827429 26.9132952,19.3814095 30.5254857,19.3814095 C34.1376762,19.3814095 37.3567238,21.0827429 39.4153905,23.7303619 C39.4329143,23.7478857 39.4512,23.7707429 39.4679619,23.7943619 C40.1277714,24.8831238 40.7571048,26.0305524 41.2691048,27.2366476 C41.8694857,28.6134095 42.3106286,30.0663619 42.4805333,31.5726476 C42.8927238,35.3151238 42.8104381,39.7326476 42.0805333,43.8103619" id="Fill-8" fill="#02ACAB"></path>
                    <path d="M47.5664,33.9494857 C47.7378286,34.6550095 47.7713524,35.3986286 47.6715429,36.1232 C47.4825905,37.4992 46.3694476,40.9033905 44.3458286,39.7536762 C43.974781,39.5418667 43.7081143,39.1845333 43.5024,38.8096762 C42.4311619,36.8492952 42.2810667,33.7331048 43.1191619,31.6736762 C44.3344,28.6900571 47.174781,32.3334857 47.5664,33.9494857" id="Fill-10" fill="#A1E2FF"></path>
                    <path d="M15.9101714,33.9494857 C15.7387429,34.6550095 15.705219,35.3986286 15.8050286,36.1232 C15.993981,37.4992 17.1071238,40.9033905 19.1307429,39.7536762 C19.5017905,39.5418667 19.769219,39.1845333 19.9741714,38.8096762 C21.0454095,36.8492952 21.1955048,33.7331048 20.3574095,31.6736762 C19.1421714,28.6900571 16.3017905,32.3334857 15.9101714,33.9494857" id="Fill-12" fill="#A1E2FF"></path>
                    <path d="M41.008381,59.9063619 C39.2179048,60.4998857 37.3512381,60.9113143 35.423619,61.1254095 C34.303619,61.2617905 33.1607619,61.3311238 32.0026667,61.3311238 C31.728381,61.3311238 31.4464762,61.3311238 31.1721905,61.3227429 C29.2445714,61.2701714 27.3550476,61.0263619 25.5340952,60.6149333 C25.008381,60.4998857 24.4826667,60.3635048 23.9645714,60.2187429 C23.9264762,60.2035048 23.8807619,60.1958857 23.8426667,60.1798857 C23.9950476,59.8149333 24.2693333,59.4644571 24.5207619,59.1596952 C25.4731429,58.0236952 26.1893333,56.713981 26.6617143,55.3120762 C26.7150476,55.1520762 26.768381,54.9920762 26.8064762,54.8320762 C26.8445714,54.7330286 26.8750476,54.6187429 26.8979048,54.5120762 C26.9207619,54.4282667 26.943619,54.3360762 26.9588571,54.2446476 L26.9664762,54.2446476 C26.9740952,54.2225524 26.9817143,54.1920762 26.9893333,54.1616 L26.9893333,54.1456 C27.0045714,54.1006476 27.0121905,54.0541714 27.0198095,54.009219 L27.0198095,54.0016 C27.0426667,53.9101714 27.0655238,53.8187429 27.0807619,53.7196952 L27.0807619,53.6968381 C27.088381,53.6816 27.088381,53.673219 27.096,53.6587429 L27.096,53.6511238 C27.1112381,53.5673143 27.1264762,53.4758857 27.1417143,53.3913143 L27.1645714,53.2549333 L27.1645714,53.2473143 C27.1798095,53.1177905 27.1950476,52.9958857 27.2102857,52.8663619 C27.2179048,52.8054095 27.2255238,52.7368381 27.2331429,52.6758857 L27.2331429,52.6682667 C27.2712381,52.6987429 27.3093333,52.729219 27.3474286,52.7513143 C27.3855238,52.7817905 27.423619,52.8054095 27.4617143,52.8282667 C27.6217143,52.9273143 27.7817143,53.0263619 27.9417143,53.1177905 C28.9017143,53.673219 29.9607619,54.0777905 31.0655238,54.153219 C31.3321905,54.169219 31.5912381,54.169219 31.8502857,54.153219 C31.9569524,54.1456 32.056,54.1387429 32.1550476,54.1235048 C32.2388571,54.1151238 32.3150476,54.1082667 32.3988571,54.0930286 C32.5512381,54.0701714 32.696,54.0396952 32.848381,54.009219 C32.9931429,53.9711238 33.1455238,53.9330286 33.2979048,53.8873143 C33.3207619,53.8796952 33.343619,53.8720762 33.3664762,53.8636952 C33.488381,53.8263619 33.6102857,53.7806476 33.7398095,53.7341714 C33.8845714,53.6816 34.0293333,53.6206476 34.1664762,53.5596952 C34.456,53.4301714 34.7379048,53.2854095 35.0121905,53.1254095 C35.2864762,52.9654095 35.5531429,52.7977905 35.8121905,52.6073143 C35.9645714,52.4998857 36.1169524,52.3863619 36.2617143,52.2713143 C36.8712381,51.7989333 37.4426667,51.2511238 37.968381,50.6865524 C37.976,50.6720762 37.9912381,50.6560762 38.0064762,50.6416 C38.0369524,50.6035048 38.0674286,50.5730286 38.0979048,50.5341714 C38.0674286,51.417981 38.0445714,52.3703619 38.1817143,53.3227429 C38.2579048,53.8568381 39.6369524,57.3227429 41.008381,59.9063619" id="Fill-14" fill="#E7F6FE"></path>
                    <path d="M37.9733333,50.2857143 C37.2419048,52.16 36,53.8971429 34.2628571,54.903619 C32.2361905,56.0769524 29.5085714,56.0769524 27.3592381,55.2228571 C27.1542857,55.1390476 26.9173333,55.04 26.6666667,54.9104762 C26.7192381,54.7504762 26.7733333,54.5904762 26.8114286,54.4304762 C26.8487619,54.3245714 26.8792381,54.2171429 26.9028571,54.1112381 C26.9257143,54.0266667 26.9478095,53.9352381 26.9638095,53.8438095 L26.9714286,53.8438095 C26.9782857,53.8140952 26.9866667,53.783619 26.9942857,53.7447619 C27.0087619,53.6990476 27.0171429,53.6533333 27.0247619,53.607619 L27.0247619,53.6007619 C27.047619,53.5085714 27.0697143,53.4171429 27.0857143,53.3180952 L27.0857143,53.2952381 C27.0933333,53.2807619 27.0933333,53.2647619 27.0933333,53.2426667 C27.1161905,53.1588571 27.1314286,53.0742857 27.1466667,52.9912381 L27.1687619,52.8533333 L27.1687619,52.8457143 L27.2380952,52.2742857 C27.2761905,52.2979048 27.3142857,52.328381 27.352381,52.3504762 C27.3897143,52.3809524 27.4285714,52.4038095 27.4666667,52.4274286 C28.5485714,53.127619 29.7744762,53.6617143 31.0697143,53.7531429 C31.3371429,53.767619 31.5961905,53.767619 31.8552381,53.7531429 C31.9611429,53.7447619 32.0601905,53.7371429 32.16,53.7226667 C32.2430476,53.7142857 32.32,53.7066667 32.4030476,53.6921905 C32.5561905,53.6685714 32.7009524,53.6380952 32.8525714,53.607619 C32.9980952,53.5702857 33.1504762,53.5321905 33.3028571,53.4857143 C33.3249524,53.4780952 33.3485714,53.4712381 33.3714286,53.4628571 C33.4933333,53.4247619 33.6144762,53.3798095 33.744,53.3333333 C33.8895238,53.2807619 34.0342857,53.2198095 34.1714286,53.1588571 C34.4609524,53.0293333 34.7428571,52.8838095 35.0171429,52.7238095 C35.2906667,52.5714286 35.5580952,52.3969524 35.8171429,52.2064762 C36.6011429,51.6579048 37.3249524,50.9866667 37.9733333,50.2857143" id="Fill-16" fill="#02ACAB"></path>
                    <path d="M43.5537524,42.7180952 C43.3305143,43.9889524 43.1888,45.2011429 42.5830857,46.3424762 C41.3419429,48.6662857 39.2116571,50.4544762 37.3350857,52.3020952 C36.5998476,53.0251429 35.9697524,53.7146667 35.0341333,54.1314286 C34.2227048,54.496381 32.9160381,54.6144762 31.9987048,54.5611429 C31.0806095,54.6144762 29.7747048,54.496381 28.9632762,54.1314286 C28.0268952,53.7146667 27.3975619,53.0251429 26.6623238,52.3020952 C24.7849905,50.4544762 22.6554667,48.6662857 21.4135619,46.3424762 C20.8078476,45.2011429 20.6668952,43.9889524 20.4436571,42.7180952 C19.7137524,38.640381 19.6314667,34.2220952 20.0436571,30.480381 C20.2135619,28.9740952 20.6547048,27.5211429 21.2550857,26.143619 C21.7670857,24.9375238 22.396419,23.7900952 23.0562286,22.7020952 C23.0729905,22.6784762 23.0912762,22.6548571 23.1088,22.6373333 C25.1674667,19.9897143 28.3865143,18.2891429 31.9987048,18.2891429 C35.6108952,18.2891429 38.829181,19.9897143 40.8886095,22.6373333 C40.9061333,22.6548571 40.924419,22.6784762 40.941181,22.7020952 C41.6009905,23.7900952 42.2303238,24.9375238 42.7423238,26.143619 C43.3427048,27.5211429 43.7838476,28.9740952 43.9537524,30.480381 C44.365181,34.2220952 44.2836571,38.640381 43.5537524,42.7180952" id="Fill-18" fill="#E7F6FE"></path>
                    <path d="M33.7546667,47.7396571 L30.2422857,47.7396571 C30.0487619,47.7396571 29.8910476,47.5827048 29.8910476,47.388419 C29.8910476,47.1948952 30.0487619,47.037181 30.2422857,47.037181 L33.7546667,47.037181 C33.9489524,47.037181 34.1059048,47.1948952 34.1059048,47.388419 C34.1059048,47.5827048 33.9489524,47.7396571 33.7546667,47.7396571" id="Fill-20" fill="#02ACAB"></path>
                    <path d="M39.2412952,9.352 C38.410819,9.10819048 37.5346286,8.90171429 36.5967238,8.75009524 C35.194819,8.5207619 33.6641524,8.39961905 32.0032,8.39961905 C30.3346286,8.39961905 28.810819,8.5207619 27.4012952,8.75009524 C26.5624381,8.8872381 25.7632,9.06247619 25.0081524,9.28266667 C11.3479619,13.1226667 11.5003429,28.5672381 12.155581,35.7062857 C12.155581,35.7062857 12.2089143,36.3005714 12.3376762,37.359619 C13.1460571,43.1729524 15.4089143,47.2872381 16.2622476,48.6662857 C16.315581,47.9348571 16.2698667,46.952 15.9803429,45.7100952 C15.7967238,44.879619 15.5003429,43.7977143 15.1498667,42.5405714 C14.5784381,40.4605714 13.8698667,37.8700952 13.4279619,35.5158095 C12.8870095,32.6731429 12.8412952,30.6548571 13.275581,29.359619 C14.0519619,27.0274286 15.6138667,25.2986667 18.0679619,24.064381 C19.5536762,23.3093333 21.4051048,22.7310476 23.5689143,22.3424762 C24.475581,22.1824762 25.4500571,22.0529524 26.4870095,21.9455238 C26.4793905,21.9005714 37.1765333,21.9005714 37.5110095,21.9455238 C37.5110095,21.9455238 37.5110095,21.9150476 37.5186286,21.8700952 L37.5186286,21.9455238 C38.555581,22.0445714 39.5232,22.1824762 40.4298667,22.3424762 C40.6660571,22.3874286 40.8946286,22.4255238 41.1232,22.479619 C41.2146286,22.4948571 41.3060571,22.5169524 41.3974857,22.5405714 C41.5346286,22.5634286 41.6710095,22.5939048 41.8005333,22.624381 C41.9765333,22.6700952 42.1441524,22.7074286 42.3193905,22.7615238 C42.3651048,22.768381 42.410819,22.7767619 42.4565333,22.792 C42.6614857,22.8453333 42.875581,22.8979048 43.0729143,22.9672381 L43.0889143,22.9672381 C43.0965333,22.9748571 43.1033905,22.9748571 43.1117714,22.9748571 C43.2329143,23.0129524 43.354819,23.0434286 43.4698667,23.0815238 C43.5841524,23.1188571 43.6984381,23.1577143 43.8127238,23.1958095 C43.9262476,23.2339048 44.0412952,23.272 44.1472,23.3093333 C44.2317714,23.3398095 44.315581,23.3702857 44.3993905,23.4007619 C44.5136762,23.4472381 44.635581,23.4853333 44.7491048,23.5302857 C44.795581,23.5462857 44.8412952,23.568381 44.8870095,23.584381 C45.0470095,23.6529524 45.2070095,23.7207619 45.3586286,23.7893333 C45.3670095,23.7977143 45.3822476,23.7977143 45.3891048,23.8053333 C45.4736762,23.8434286 45.5651048,23.8807619 45.6489143,23.9272381 L45.6565333,23.9272381 C45.6710095,23.9348571 45.6870095,23.9417143 45.7014857,23.9493333 C45.7784381,23.9881905 45.8614857,24.0186667 45.9300571,24.0567619 C45.9841524,24.079619 46.0374857,24.1100952 46.0824381,24.1398095 C46.2424381,24.224381 46.410819,24.3081905 46.5624381,24.4072381 C46.5624381,24.4148571 46.570819,24.4148571 46.570819,24.4148571 C46.6774857,24.4758095 46.7765333,24.5367619 46.875581,24.5977143 C46.9898667,24.6586667 47.1033905,24.7340952 47.210819,24.8110476 C47.3098667,24.879619 47.4157714,24.9481905 47.514819,25.023619 C47.530819,25.032 47.5384381,25.039619 47.5536762,25.0540952 C47.5993905,25.0845714 47.6443429,25.1226667 47.690819,25.1531429 C47.7136762,25.1691429 47.7289143,25.183619 47.7517714,25.199619 C47.8127238,25.2529524 47.8736762,25.2986667 47.9346286,25.343619 C47.9803429,25.3824762 48.0184381,25.4129524 48.0557714,25.4434286 C48.1098667,25.4891429 48.1632,25.5340952 48.2241524,25.5881905 C48.2462476,25.6110476 48.2767238,25.6339048 48.3003429,25.656 C48.4672,25.8015238 48.6272,25.9539048 48.7803429,26.1215238 C48.8412952,26.1824762 48.9022476,26.2434286 48.955581,26.304381 C49.0165333,26.3729524 49.0774857,26.4415238 49.1376762,26.5100952 C49.1681524,26.5474286 49.2070095,26.5862857 49.2291048,26.624381 C49.2451048,26.632 49.2527238,26.6464762 49.2527238,26.6548571 C49.3586286,26.7767619 49.4500571,26.8979048 49.5422476,27.0274286 C49.5651048,27.0662857 49.595581,27.0967619 49.6100571,27.1348571 C49.6710095,27.2034286 49.7174857,27.2788571 49.7632,27.3481905 C49.7936762,27.3939048 49.8241524,27.4388571 49.8470095,27.4853333 C49.8698667,27.5081905 49.8774857,27.5234286 49.8919619,27.5462857 L49.8919619,27.5539048 C50.235581,28.1100952 50.5098667,28.7112381 50.7224381,29.359619 C50.7689143,29.503619 50.8138667,29.663619 50.8443429,29.824381 C50.890819,29.992 50.9212952,30.159619 50.9365333,30.3500952 C50.9593905,30.4948571 50.9738667,30.6388571 50.9822476,30.7988571 C50.9974857,30.8605714 50.9974857,30.9215238 50.9974857,30.9824762 C51.0043429,31.0053333 51.0043429,31.0358095 51.0043429,31.0579048 C51.0043429,31.1188571 51.0127238,31.1798095 51.0043429,31.248381 C51.0127238,31.3398095 51.0127238,31.432 51.0127238,31.5234286 C51.0127238,32.0712381 50.9738667,32.6731429 50.9060571,33.343619 L50.9060571,33.359619 C50.8679619,33.6864762 50.8222476,34.0300952 50.7689143,34.3805714 C50.7460571,34.5634286 50.715581,34.7539048 50.6774857,34.952 C50.6470095,35.1348571 50.6165333,35.3253333 50.5784381,35.5234286 C50.5251048,35.8129524 50.4633905,36.1100952 50.395581,36.4072381 C50.1441524,37.6034286 49.8393905,38.8453333 49.5270095,40.0339048 C49.4660571,40.2548571 49.4127238,40.4758095 49.3517714,40.6891429 C49.2374857,41.1226667 49.1232,41.5424762 49.0081524,41.9455238 L49.0081524,41.9539048 L48.8481524,42.5474286 C48.810819,42.7005714 48.7651048,42.8529524 48.7186286,43.0053333 C48.6812952,43.1577143 48.6432,43.3024762 48.5967238,43.4472381 L48.5967238,43.4548571 C48.3612952,44.3226667 48.1632,45.0921905 48.0184381,45.7177143 C47.7357714,46.952 47.690819,47.9272381 47.7357714,48.6662857 C48.5898667,47.2872381 50.8519619,43.1729524 51.6603429,37.359619 C51.7898667,36.3767619 51.8432,35.7062857 51.8432,35.7062857 C52.4976762,28.6121905 52.650819,13.3131429 39.2412952,9.352" id="Fill-22" fill="#FFDA00"></path>
                    <path d="M50.5708952,35.5157333 C50.5175619,35.8128762 50.4566095,36.110019 50.3956571,36.4071619 C50.4634667,36.110019 50.524419,35.8128762 50.5785143,35.5233524 C50.6166095,35.3252571 50.6470857,35.134781 50.6775619,34.9519238 C50.6394667,35.134781 50.6089905,35.3252571 50.5708952,35.5157333" id="Fill-24" fill="#FFDA00"></path>
                    <path d="M49.8469333,27.4852571 C49.8621714,27.5081143 49.8774095,27.5309714 49.8850286,27.5538286 L49.8926476,27.5538286 L49.8926476,27.5462095 C49.8774095,27.5233524 49.8697905,27.5081143 49.8469333,27.4852571" id="Fill-26" fill="#FFDA00"></path>
                    <path d="M48.8409905,42.5402667 C48.7952762,42.7002667 48.757181,42.8526476 48.7190857,43.0050286 C48.7648,42.8526476 48.8105143,42.7002667 48.8486095,42.5478857 L49.0086095,41.9536 C48.9476571,42.1516952 48.8943238,42.3497905 48.8409905,42.5402667" id="Fill-28" fill="#FFDA00"></path>
                    <path d="M48.5969524,43.4547048 C48.3539048,44.3301333 48.1558095,45.085181 48.0102857,45.7099429 C47.728381,46.9518476 47.6834286,47.9347048 47.736,48.6661333 C47.6910476,47.9270857 47.736,46.9518476 48.0179048,45.7175619 C48.1634286,45.0920381 48.3607619,44.3232762 48.5969524,43.4547048" id="Fill-30" fill="#FFDA00"></path>
                    <path d="M46.082819,24.1399619 C46.0371048,24.1102476 45.9837714,24.0797714 45.9304381,24.0569143 C45.8618667,24.018819 45.778819,23.9883429 45.7018667,23.9494857 C45.778819,23.9883429 45.8542476,24.0264381 45.9304381,24.0637714 C46.0302476,24.1178667 46.1292952,24.162819 46.2207238,24.2237714 C46.1742476,24.2009143 46.1292952,24.1704381 46.082819,24.1399619" id="Fill-32" fill="#FFDA00"></path>
                    <path d="M37.5113905,21.9457524 L37.5190095,21.9457524 L37.5190095,21.8695619 C37.5113905,21.9152762 37.5113905,21.9457524 37.5113905,21.9457524" id="Fill-34" fill="#FFDA00"></path>
                    <path d="M50.9972571,30.9822476 C51.0048762,31.0736762 51.0048762,31.1574857 51.0048762,31.2489143 C51.0132571,31.1803429 51.0048762,31.1193905 51.0048762,31.0584381 C51.0048762,31.035581 51.0048762,31.0051048 50.9972571,30.9822476" id="Fill-36" fill="#FF0000"></path>
                    <path d="M49.2122667,29.8601905 C48.5669333,27.9257143 47.2960762,26.5352381 45.2130286,25.4838095 C42.3322667,24.0308571 37.8865524,23.2940952 31.9985524,23.2940952 C26.1113143,23.2940952 21.6656,24.0308571 18.7840762,25.4838095 C16.7010286,26.5352381 15.4301714,27.9257143 14.7848381,29.8601905 C14.6217905,30.352381 14.5585524,30.9900952 14.5722667,31.7291429 C15.1322667,32.0293333 15.9505524,32.4118095 16.7665524,32.592381 C17.4088381,32.7348571 18.0496,32.7531429 18.5616,32.5093333 C20.2301714,31.712381 20.1684571,29.608 21.961981,27.9584762 C23.7570286,26.3089524 27.4431238,25.1714286 31.9985524,25.1714286 C36.5547429,25.1714286 40.2408381,26.3089524 42.0343619,27.9584762 C43.8294095,29.608 43.7676952,31.712381 45.4362667,32.5093333 C45.9482667,32.7531429 46.5890286,32.7348571 47.2305524,32.592381 C48.0473143,32.4118095 48.8656,32.0293333 49.4248381,31.7291429 C49.4385524,30.9900952 49.3760762,30.352381 49.2122667,29.8601905" id="Fill-38" fill="#231F1E"></path>
                    <path d="M51.0046476,31.2486095 C51.0130286,31.1800381 51.0046476,31.1190857 51.0046476,31.0581333 C51.0046476,31.0360381 51.0046476,31.0055619 50.9970286,30.9819429 C50.9970286,30.9209905 50.9970286,30.8600381 50.9825524,30.7990857 C50.9741714,30.6390857 50.9589333,30.4950857 50.9360762,30.3495619 C50.913219,30.1667048 50.8827429,29.9922286 50.8446476,29.8246095 C50.8141714,29.6638476 50.7684571,29.5038476 50.7227429,29.3598476 C50.5101714,28.7114667 50.2351238,28.1103238 49.8922667,27.5533714 L49.8922667,27.5465143 C49.8777905,27.5228952 49.8701714,27.508419 49.8465524,27.4855619 C49.7703619,27.3628952 49.6941714,27.2486095 49.6103619,27.1350857 C49.5951238,27.0969905 49.5646476,27.0665143 49.5417905,27.0276571 C49.4503619,26.8981333 49.3513143,26.7769905 49.2522667,26.6550857 C49.2522667,26.6467048 49.2446476,26.6314667 49.2294095,26.6246095 C49.2073143,26.5865143 49.1684571,26.5476571 49.137981,26.5095619 C49.0777905,26.4409905 49.0168381,26.373181 48.9558857,26.3046095 C48.9017905,26.2436571 48.8408381,26.1827048 48.7798857,26.1217524 C48.6275048,25.9541333 48.4675048,25.8017524 48.2998857,25.6562286 C48.2770286,25.6341333 48.2465524,25.6112762 48.2244571,25.5876571 C48.1635048,25.5343238 48.1094095,25.4886095 48.0560762,25.4436571 C48.017981,25.413181 47.9798857,25.3827048 47.9349333,25.3438476 C47.873981,25.2981333 47.8130286,25.253181 47.7513143,25.1998476 C47.7284571,25.1838476 47.713981,25.1693714 47.6903619,25.1533714 C47.6446476,25.1228952 47.5989333,25.0848 47.553981,25.0543238 C47.537981,25.0398476 47.5303619,25.0322286 47.5151238,25.0238476 C47.4160762,24.9476571 47.3094095,24.8798476 47.2111238,24.8112762 C47.1036952,24.7343238 46.9894095,24.6588952 46.8751238,24.5979429 C46.7760762,24.5362286 46.6770286,24.4752762 46.5711238,24.4143238 C46.5711238,24.4143238 46.5627429,24.4143238 46.5627429,24.4074667 C46.4560762,24.3533714 46.3501714,24.292419 46.2351238,24.2314667 C46.2275048,24.2314667 46.2275048,24.2238476 46.2206476,24.2238476 C46.129219,24.1628952 46.0301714,24.1179429 45.9303619,24.0638476 C45.8541714,24.0265143 45.7787429,23.988419 45.7017905,23.9495619 C45.6873143,23.9419429 45.6713143,23.9343238 45.6560762,23.9274667 L45.649219,23.9274667 C45.5646476,23.8893714 45.473219,23.8428952 45.3894095,23.8048 C45.3817905,23.7979429 45.3673143,23.7979429 45.3589333,23.7895619 C45.2073143,23.7209905 45.0473143,23.652419 44.8873143,23.5838476 C44.8408381,23.5686095 44.7958857,23.5465143 44.7494095,23.5305143 C44.6358857,23.4855619 44.513219,23.4474667 44.3989333,23.4009905 C44.3158857,23.3705143 44.2313143,23.3400381 44.1475048,23.3095619 C44.0408381,23.2714667 43.9265524,23.2333714 43.8130286,23.1960381 C43.697981,23.1579429 43.5844571,23.1190857 43.4694095,23.0809905 C43.3475048,23.0428952 43.233219,23.012419 43.1120762,22.9750857 C43.1036952,22.9750857 43.0960762,22.9750857 43.0884571,22.9674667 L43.073219,22.9674667 C42.8675048,22.9065143 42.6617905,22.8455619 42.4560762,22.7914667 C42.4111238,22.7769905 42.3646476,22.7686095 42.3196952,22.7609905 C42.0141714,22.6855619 41.7094095,22.6162286 41.3977905,22.5400381 C41.0846476,22.4790857 40.7654095,22.4105143 40.4294095,22.3495619 C39.5235048,22.1895619 38.5551238,22.053181 37.5189333,21.9541333 L37.5189333,21.8695619 C37.5113143,21.9152762 37.5113143,21.9457524 37.5113143,21.9457524 C37.1768381,21.9000381 26.4796952,21.9000381 26.4865524,21.9457524 L26.4865524,21.9541333 C25.4503619,22.053181 24.4758857,22.1895619 23.5684571,22.3495619 C21.4046476,22.7381333 19.553981,23.3179429 18.0682667,24.0638476 C17.1836952,24.5133714 16.4149333,25.0238476 15.7589333,25.6036571 C15.5920762,25.7552762 15.4320762,25.9000381 15.2865524,26.053181 C14.8301714,26.517181 14.4416,27.012419 14.113219,27.5533714 L14.113219,27.5609905 C13.7703619,28.1179429 13.489219,28.7114667 13.2751238,29.3598476 C12.8408381,30.6619429 12.8941714,32.6733714 13.4282667,35.5228952 C13.8701714,37.8695619 14.5856,40.468419 15.1570286,42.5476571 C15.4998857,43.7979429 15.7970286,44.8798476 15.9875048,45.717181 C16.2694095,46.9590857 16.3158857,47.9343238 16.2617905,48.6733714 C16.2617905,48.6733714 16.9475048,49.8627048 17.649219,50.0981333 C17.8396952,49.3598476 17.969219,48.2848 17.793219,46.8295619 C17.7856,46.7914667 17.7787429,46.7686095 17.7787429,46.7465143 C17.7322667,46.3190857 17.6560762,45.8543238 17.5417905,45.3598476 C17.3436952,44.4988952 17.0389333,43.3933714 16.6884571,42.1286095 C15.8351238,39.0055619 14.6236952,34.6086095 14.577981,31.7369905 C14.5627429,30.997181 14.6236952,30.357181 14.7920762,29.8627048 C14.9284571,29.4436571 15.0960762,29.0543238 15.3025524,28.6817524 L15.3025524,28.6733714 C16.0256,27.332419 17.153219,26.3122286 18.7836952,25.4886095 C21.6713143,24.0333714 26.113219,23.3019429 32.0035048,23.3019429 C37.8922667,23.3019429 42.3341714,24.0333714 45.2141714,25.4886095 C46.8446476,26.3122286 47.9730286,27.332419 48.7036952,28.6657524 L48.7036952,28.6733714 C48.9017905,29.0467048 49.0777905,29.4436571 49.2141714,29.8627048 C49.3817905,30.357181 49.4427429,30.997181 49.4282667,31.7369905 C49.3741714,34.6086095 48.1703619,39.0055619 47.3094095,42.1286095 C46.9589333,43.3933714 46.6617905,44.4988952 46.4636952,45.3598476 C46.3501714,45.8695619 46.2656,46.3427048 46.2122667,46.7769905 C46.2122667,46.7914667 46.2122667,46.8067048 46.2046476,46.8219429 C46.2046476,46.837181 46.1970286,46.8455619 46.1970286,46.8600381 L46.1970286,46.8676571 C46.0370286,48.3008 46.1665524,49.3598476 46.3501714,50.0905143 C47.0130286,49.8695619 47.6675048,48.7808 47.7360762,48.6733714 L47.7360762,48.6657524 C47.6903619,47.9274667 47.7360762,46.9514667 48.017981,45.717181 C48.1635048,45.092419 48.3608381,44.3228952 48.5970286,43.4550857 L48.5970286,43.4474667 C48.6427429,43.3019429 48.6808381,43.1579429 48.7189333,43.0055619 C48.7654095,42.852419 48.8103619,42.7000381 48.8484571,42.5476571 L49.0084571,41.9541333 L49.0084571,41.9457524 C49.1227429,41.5427048 49.2377905,41.1228952 49.3513143,40.6893714 C49.4122667,40.4752762 49.4656,40.2543238 49.5273143,40.0333714 C49.8396952,38.8455619 50.1436952,37.6036571 50.3951238,36.4074667 C50.4636952,36.1103238 50.5246476,35.812419 50.577981,35.5228952 C50.6160762,35.3255619 50.6465524,35.1350857 50.6770286,34.9514667 C50.7151238,34.7541333 50.7456,34.5636571 50.7684571,34.3800381 C50.8225524,34.0295619 50.8675048,33.6867048 50.9056,33.3598476 L50.9056,33.3438476 C50.9741714,32.6733714 51.0130286,32.0714667 51.0130286,31.5228952 C51.0130286,31.4314667 51.0130286,31.3400381 51.0046476,31.2486095" id="Fill-40" fill="#FF0000"></path>
                    <path d="M49.4250667,31.7315048 C49.3717333,34.6038857 48.1679238,39.0000762 47.3069714,42.1238857 C46.9564952,43.3886476 46.6585905,44.4934095 46.4604952,45.3543619 C45.950019,47.5943619 46.0985905,49.1204571 46.3492571,50.0888381 C45.1378286,50.3021714 42.4764952,49.7353143 42.0345905,48.3791238 C41.9431619,48.097219 41.9126857,47.6857905 41.9271619,47.1829333 C41.9736381,45.8038857 42.590019,43.777219 43.1698286,41.8038857 C43.1774476,41.7657905 43.1850667,41.7276952 43.2003048,41.6896 C43.2604952,41.4838857 43.3214476,41.2857905 43.3755429,41.0800762 C43.4509714,40.8438857 43.5203048,40.6076952 43.5812571,40.3791238 C43.9233524,39.2210286 44.1298286,38.1315048 44.2593524,37.1334095 C44.654781,34.0553143 44.2433524,31.9067429 44.174781,31.5638857 C44.1679238,31.5486476 44.1679238,31.5334095 44.1679238,31.5257905 L44.1679238,31.5029333 C44.0384,31.0762667 43.9317333,30.8476952 43.9317333,30.8476952 C44.1069714,30.8096 44.4422095,30.8400762 44.8612571,30.9162667 C45.1271619,30.961981 45.4250667,31.0229333 45.7450667,31.0991238 C47.2224,31.4267429 49.0662095,31.921981 49.4250667,31.7315048" id="Fill-42" fill="#231F1E"></path>
                    <path d="M21.9607619,48.3817905 C21.5417143,49.6770286 19.096,50.2713143 17.823619,50.1341714 C17.7626667,50.1265524 17.7093333,50.1189333 17.648381,50.0960762 C17.8312381,49.3646476 17.9607619,48.3056 17.8007619,46.8656 C17.8007619,46.8503619 17.7931429,46.8427429 17.7931429,46.8275048 C17.7862857,46.8122667 17.7862857,46.7970286 17.7862857,46.7817905 C17.7321905,46.3475048 17.6567619,45.8675048 17.5340952,45.3570286 C17.3367619,44.4960762 17.0388571,43.3913143 16.688381,42.1265524 C15.8274286,39.0027429 14.623619,34.6065524 14.5702857,31.7341714 C14.9291429,31.9246476 16.7721905,31.4294095 18.2502857,31.1017905 C18.5702857,31.0256 18.8674286,30.9646476 19.1340952,30.9189333 C19.5531429,30.8427429 19.888381,30.8122667 20.063619,30.8503619 C20.063619,30.8503619 19.9569524,31.0789333 19.8274286,31.5056 L19.8274286,31.5284571 C19.8274286,31.5360762 19.8274286,31.5513143 19.8198095,31.5665524 C19.752,31.9094095 19.3405714,34.057981 19.736,37.1360762 C19.8655238,38.1341714 20.072,39.2236952 20.4140952,40.3817905 C20.4750476,40.6103619 20.544381,40.8465524 20.6198095,41.0827429 C20.6739048,41.2884571 20.7348571,41.4865524 20.7950476,41.6922667 C20.8102857,41.7303619 20.8179048,41.7684571 20.8255238,41.8065524 C21.4053333,43.7798857 22.0217143,45.8065524 22.0681905,47.1856 C22.0826667,47.6884571 22.0521905,48.0998857 21.9607619,48.3817905" id="Fill-44" fill="#231F1E"></path>
                    <path d="M44.167619,31.5030857 L44.167619,31.5259429 C44.16,31.5183238 44.16,31.5107048 44.16,31.5107048 L44.167619,31.5030857 Z" id="Fill-46" fill="#FF0000"></path>
                    <path d="M49.8893714,27.5484952 C49.5160381,27.9370667 49.1122286,28.3104 48.7008,28.6692571 C44.4341333,32.3789714 38.5293714,34.6730667 32.0006095,34.6730667 C25.4703238,34.6730667 19.5655619,32.3789714 15.2996571,28.6761143 C15.0482286,28.4551619 14.7960381,28.2342095 14.5598476,27.998019 C15.3750857,28.3104 16.1065143,28.6608762 16.3129905,28.7599238 C18.6436571,29.8570667 21.1198476,30.6799238 23.6569905,31.198019 C26.5827048,31.7854476 29.5922286,31.9759238 32.548419,31.6932571 C35.3606095,31.4265905 38.133181,30.718019 40.7160381,29.5606857 C43.3141333,28.4018286 45.2874667,26.6799238 47.5122286,25.0265905 C48.5034667,25.742781 49.2958476,26.5808762 49.8893714,27.5484952" id="Fill-48" fill="#FF0000"></path>
                    <path d="M49.8923429,27.5462095 L49.8923429,27.5538286 L49.8847238,27.5538286 C49.5113905,27.9424 49.1152,28.3081143 48.7037714,28.6662095 C44.4371048,32.3766857 38.5323429,34.670019 32.003581,34.670019 C25.4732952,34.670019 19.5685333,32.3766857 15.3026286,28.6730667 C15.0512,28.4521143 14.7990095,28.2311619 14.562819,27.9957333 C14.4112,27.8502095 14.2580571,27.7062095 14.1132952,27.5538286 C14.4416762,27.0128762 14.8294857,26.5168762 15.2866286,26.0528762 C15.4321524,25.9004952 15.5913905,25.7549714 15.7590095,25.6033524 C16.4150095,25.0166857 17.1837714,24.5062095 18.067581,24.0566857 C19.5540571,23.3092571 21.4047238,22.7309714 23.5685333,22.3424 C23.827581,22.2959238 24.0866286,22.2509714 24.3532952,22.2128762 C24.3532952,22.2128762 24.3685333,22.2128762 24.3913905,22.2052571 C24.4218667,22.2052571 24.4523429,22.1968762 24.4904381,22.190019 C24.5369143,22.1824 24.5818667,22.174781 24.6359619,22.1664 C25.8847238,21.9614476 31.042819,21.230019 37.4504381,21.9385905 C37.4809143,21.9454476 37.5037714,21.9454476 37.5113905,21.9454476 L37.5190095,21.9454476 C37.778819,21.9690667 38.0302476,21.9995429 38.2809143,22.030019 C38.4256762,22.0444952 38.5712,22.0604952 38.707581,22.0833524 C39.3026286,22.1595429 39.8809143,22.2433524 40.4294857,22.3424 C40.6664381,22.3873524 40.8942476,22.4254476 41.122819,22.4795429 C41.2142476,22.494781 41.3056762,22.5168762 41.3978667,22.5404952 C41.5342476,22.5633524 41.6713905,22.5938286 41.8009143,22.6243048 C41.9761524,22.670019 42.1437714,22.7073524 42.3197714,22.7614476 C42.3647238,22.7683048 42.4112,22.7766857 42.4561524,22.7919238 C42.6618667,22.8452571 42.867581,22.9062095 43.0732952,22.9671619 L43.0885333,22.9671619 C43.0961524,22.974781 43.1037714,22.974781 43.1121524,22.974781 C43.2332952,23.0128762 43.347581,23.0433524 43.4694857,23.0814476 C43.5845333,23.118781 43.6980571,23.1576381 43.8131048,23.1957333 C43.9266286,23.2338286 44.0409143,23.2719238 44.147581,23.3092571 C44.2313905,23.3397333 44.3159619,23.3709714 44.3990095,23.4014476 C44.5132952,23.4471619 44.6359619,23.4852571 44.7494857,23.5302095 C44.7959619,23.5462095 44.8409143,23.5683048 44.8873905,23.5843048 C45.0473905,23.6528762 45.2073905,23.7206857 45.3590095,23.7892571 C45.3673905,23.7976381 45.3818667,23.7976381 45.3894857,23.8052571 C45.4732952,23.8433524 45.5647238,23.8806857 45.6492952,23.9271619 L45.6561524,23.9271619 C45.6713905,23.934781 45.6866286,23.9424 45.7018667,23.9492571 C45.778819,23.9881143 45.8618667,24.0185905 45.9304381,24.0566857 C45.9837714,24.0795429 46.0371048,24.110019 46.082819,24.1397333 C46.1292952,24.1702095 46.1742476,24.2006857 46.2207238,24.2243048 C46.227581,24.2243048 46.227581,24.2311619 46.2352,24.2311619 C46.3502476,24.2921143 46.4561524,24.3538286 46.562819,24.4071619 C46.562819,24.414781 46.5712,24.414781 46.5712,24.414781 C46.6771048,24.4757333 46.7761524,24.5366857 46.8752,24.5976381 C46.9894857,24.6585905 47.1037714,24.734781 47.2104381,24.8109714 C47.3094857,24.8795429 47.4161524,24.9481143 47.5152,25.0235429 C47.5304381,25.0319238 47.5380571,25.0395429 47.5540571,25.054019 C47.5990095,25.0852571 47.6447238,25.1225905 47.6904381,25.1530667 C47.7140571,25.1690667 47.7285333,25.1835429 47.7513905,25.1995429 C47.8131048,25.2528762 47.8740571,25.2985905 47.9350095,25.3435429 C47.9799619,25.3824 48.0180571,25.4128762 48.0561524,25.4433524 C48.1094857,25.4890667 48.162819,25.534019 48.2245333,25.5881143 C48.2466286,25.6109714 48.2771048,25.6338286 48.2999619,25.6566857 C48.467581,25.8014476 48.627581,25.9538286 48.7799619,26.1214476 C48.8409143,26.1824 48.9018667,26.2433524 48.9559619,26.3043048 C49.0169143,26.3728762 49.0778667,26.4414476 49.1380571,26.510019 C49.1685333,26.5473524 49.2073905,26.5862095 49.2294857,26.6243048 C49.2447238,26.6319238 49.2523429,26.6464 49.2523429,26.654781 C49.3513905,26.7766857 49.4504381,26.8978286 49.5418667,27.0273524 C49.5647238,27.0662095 49.5952,27.0966857 49.6104381,27.134781 C49.6713905,27.2033524 49.7178667,27.278781 49.762819,27.3481143 C49.7932952,27.3938286 49.8237714,27.438781 49.8466286,27.4852571 C49.8702476,27.5081143 49.8771048,27.5233524 49.8923429,27.5462095" id="Fill-50" fill="#ED0000"></path>
                    <path d="M37.518781,21.9457524 L37.5111619,21.9457524 C37.5035429,21.9457524 37.4806857,21.9457524 37.4502095,21.9381333 C37.4730667,21.9381333 37.4966857,21.9381333 37.518781,21.9457524" id="Fill-52" fill="#ED0000"></path>
                    <path d="M39.2412952,9.352 C33.2146286,14.7005714 27.4774857,11.2948571 25.0081524,9.28266667 C25.7632,9.06247619 26.5624381,8.8872381 27.4012952,8.75009524 C28.810819,8.5207619 30.3346286,8.39961905 32.0032,8.39961905 C33.6641524,8.39961905 35.194819,8.5207619 36.5967238,8.75009524 C37.5346286,8.90171429 38.410819,9.10819048 39.2412952,9.352" id="Fill-54" fill="#ED0000"></path>
                    <path d="M49.8893714,27.5484952 C49.5160381,27.9370667 49.1122286,28.3104 48.7008,28.6692571 C44.4341333,32.3789714 38.5293714,34.6730667 32.0006095,34.6730667 C25.4703238,34.6730667 19.5655619,32.3789714 15.2996571,28.6761143 C15.0482286,28.4551619 14.7960381,28.2342095 14.5598476,27.998019 C15.3750857,28.3104 16.1065143,28.6608762 16.3129905,28.7599238 C18.6436571,29.8570667 21.1198476,30.6799238 23.6569905,31.198019 C26.5827048,31.7854476 29.5922286,31.9759238 32.548419,31.6932571 C35.3606095,31.4265905 38.133181,30.718019 40.7160381,29.5606857 C43.3141333,28.4018286 45.2874667,26.6799238 47.5122286,25.0265905 C48.5034667,25.742781 49.2958476,26.5808762 49.8893714,27.5484952" id="Fill-56" fill="#FF0000"></path>
                </g>
            </g>
        </g>
    </g>
</svg>