<svg xmlns="http://www.w3.org/2000/svg" width="40" height="24" viewBox="0 0 40 24">
    <g fill="none" fill-rule="evenodd">
        <rect width="40" height="24" fill="#E5F5FB" rx="2"/>
        <path fill="#233375" d="M4.14 9.315c0-.227.145-.34.324-.34H7.62c.969.116 1.646.634 1.712 1.998v1.845c0 .274-.016.504-.09.77-.252.888-.856 1.33-1.757 1.391H6.132v2.258c0 .17-.136.255-.3.255H4.41c-.173 0-.3-.102-.3-.305l.03-7.872zm2.006 1.753h.84c.19 0 .344.163.344.362v1.066c0 .199-.155.363-.344.363h-.84v-1.791zM10.889 8.985h2.206c1.292.079 1.991.792 1.973 2.27v5.478c0 .424-.408.746-.757.746H11.42c-.878 0-1.457-.72-1.602-1.425-.138-.677-.035-1.496-.035-2.188 0-1.068.673-2.126 1.794-2.126h1.177c.342-.02.327-.807 0-.78h-1.84c-.187 0-.318-.103-.335-.303V9.223c0-.184.143-.238.31-.238zm1.217 4.735h.672c.16 0 .29.137.29.304v1.233c0 .168-.13.305-.29.305h-.672a.297.297 0 0 1-.289-.305v-1.233c0-.167.13-.304.289-.304zM15.745 9.37v3.46c.08 1.085 1.006 1.897 2.013 1.897h.932c.385 0 .362.68 0 .68h-2.016c-.218 0-.298.12-.298.323v1.523c0 .154.118.27.273.27h1.867c1.557 0 2.444-.787 2.444-2.548V9.237c0-.188-.113-.26-.22-.26h-1.566c-.145 0-.23.164-.23.285v3.145c0 .135-.07.215-.186.215h-.74c-.171 0-.265-.098-.265-.269V9.317c0-.201-.076-.35-.288-.35H15.96c-.171 0-.215.18-.215.403"/>
        <path fill="#00A3DA" d="M21.747 10.793V9.297c0-.161.125-.293.278-.293h.342c.882-.193 1.092-.737 1.631-1.348.331-.378.623-.477.837-.077v1.425h.808c.153 0 .278.132.278.293v1.496c0 .16-.125.292-.278.292h-.809v6.13c0 .16-.125.291-.277.291h-1.423a.285.285 0 0 1-.277-.292v-6.13h-.832a.287.287 0 0 1-.278-.291M31.824 17.116c0 .2-.157.363-.347.363h-1.333a.356.356 0 0 1-.347-.363V11.49c.01-.608-1.155-.702-1.155 0v5.626c0 .2-.156.363-.348.363h-1.332a.357.357 0 0 1-.348-.363v-7.8c0-.2.157-.364.348-.364h1.332c.192 0 .348.164.348.365v.107c.779-.784 2.129-.66 2.847.154 1.352-1.63 3.667-.178 3.56 1.61 0 1.978-.016 3.935-.016 5.928 0 .2-.157.363-.347.363h-1.333a.356.356 0 0 1-.347-.363v-5.588c-.077-.78-1.198-.599-1.196 0 0 1.857.014 3.714.014 5.588"/>
    </g>
</svg>
