<svg xmlns="http://www.w3.org/2000/svg" width="60" height="60" viewBox="0 0 60 60">
    <g fill="none" fill-rule="evenodd">
        <rect width="60" height="60" fill="#00A3DA" opacity=".1" rx="2"/>
        <path fill="#233375" d="M8.196 26.157c0-.31.204-.465.454-.465h4.427c1.358.159 2.308.866 2.4 2.725v2.516c0 .374-.021.688-.127 1.051-.352 1.211-1.198 1.813-2.463 1.897H10.99v3.079c0 .232-.19.347-.42.347H8.575c-.243 0-.421-.139-.42-.416l.04-10.734zm2.813 2.39h1.178a.49.49 0 0 1 .483.494v1.453a.49.49 0 0 1-.483.495H11.01v-2.442zM17.659 25.707h3.094c1.811.107 2.791 1.08 2.766 3.096v7.469c0 .579-.572 1.017-1.06 1.017h-4.057c-1.23 0-2.043-.98-2.246-1.942-.194-.924-.05-2.041-.05-2.985 0-1.455.944-2.899 2.516-2.899h1.65c.48-.026.46-1.1 0-1.062h-2.58c-.261 0-.445-.142-.47-.414V26.03c0-.25.202-.324.437-.324zm1.706 6.456h.944c.222 0 .405.187.405.415v1.682c0 .23-.183.416-.405.416h-.944a.41.41 0 0 1-.404-.416v-1.682a.41.41 0 0 1 .404-.415zM24.468 26.233v4.717c.113 1.48 1.41 2.587 2.823 2.587h1.306c.54 0 .508.928 0 .928H25.77c-.306 0-.418.163-.418.44v2.077c0 .209.166.366.382.366h2.618c2.184 0 3.427-1.071 3.427-3.473V26.05c0-.256-.158-.355-.31-.355h-2.194c-.203 0-.321.225-.321.39v4.288c0 .185-.1.293-.262.293h-1.039c-.239 0-.37-.133-.37-.366v-4.14c0-.275-.107-.477-.404-.477H24.77c-.24 0-.3.244-.3.55"/>
        <path fill="#00A3DA" d="M32.884 28.172v-2.04c0-.22.176-.399.39-.399h.479c1.237-.263 1.531-1.005 2.287-1.839.465-.515.873-.65 1.174-.104v1.943h1.133c.214 0 .389.18.389.399v2.04a.395.395 0 0 1-.389.398h-1.134v8.358c0 .22-.175.399-.389.399H34.83a.394.394 0 0 1-.388-.399V28.57h-1.168a.396.396 0 0 1-.39-.398M47.013 36.795c0 .272-.22.494-.487.494h-1.868a.492.492 0 0 1-.488-.494v-7.672c.015-.829-1.619-.958-1.619 0v7.672c0 .272-.219.494-.487.494h-1.867a.493.493 0 0 1-.488-.494V26.159c0-.274.22-.496.488-.496h1.867c.268 0 .487.222.487.496v.146c1.092-1.068 2.985-.9 3.992.21 1.895-2.223 5.142-.242 4.993 2.197 0 2.696-.024 5.365-.024 8.083 0 .272-.22.494-.487.494h-1.868a.492.492 0 0 1-.487-.494v-7.62c-.107-1.065-1.679-.817-1.676 0 0 2.532.019 5.064.019 7.62"/>
    </g>
</svg>
