<svg xmlns="http://www.w3.org/2000/svg" width="288" height="156" viewBox="0 0 288 156">
    <g fill="none" fill-rule="evenodd">
        <path fill="#F7F7F7" d="M145.227 90.465V40.33h-14.414V56.36h-3.604V36.086h-13.318V87.95h-2.35V61.86h-9.714l.36 47.386zM183.65 112.32l.602-53.64h-9.957v29.152h-2.49V44.9h-9.199v52.097h-1.623V73.553h-6.71l.216 26.924zM99.845 105.812V93.88h-4.686V52.661H83.805v38.688H80.74V38.56H64.16v52.067h-4.506V57.181H33.342v16.09H24.51v35.253z"/>
        <path fill="#F2F2F2" d="M104.35 109.247s.541-9.22-6.307-9.22c-5.948.904-5.768 6.508-5.768 6.508s.721-8.135-4.145-8.135-3.785 7.774-3.785 7.774-.36-5.785-6.848-5.062c-6.488.723-7.21 5.604-7.21 5.604s-3.243-5.966-6.127-4.158c-2.883 1.808-2.523 3.797-2.523 3.797s-4.506-4.52-8.65-.904c-2.704 2.53-1.864 5.186-1.864 5.186l53.227-1.39z"/>
        <path fill="#F7F7F7" d="M267.454 109.999V64.41H249.84v35.163h-3.699V43.207h-16.206V61.23h-4.051V38.436H210.91v58.31h-2.642V67.416h-10.921l.352 43.82z"/>
        <path fill="#F2F2F2" d="M184.01 105.812c3.965-.542 4.325 2.17 4.325 2.17s3.064-7.232 10.093-3.074c2.884 1.989 3.064 5.062 3.064 5.062s1.802-7.05 4.866-6.689c3.064.362 3.244 6.147 3.244 6.147s1.793-3.544 5.407-3.797c7.75-.542 9.011 4.7 9.011 4.7s3.424-3.434 7.75-.541c1.71 1.143 1.081 2.53 1.081 2.53l-50.823-.542s-1.803-4.881 1.982-5.966"/>
        <path fill="#EAEAEA" d="M39.87 67.354c8.893-25.448 22.973-13.219 21.897-4.199-1.076 9.02 2.751 9.817 7.564 13.355 6.509 4.785 3.687 20.882-8.057 24.687-15.912 5.155-29.729-10.02-21.404-33.843"/>
        <path fill="#F3F3F3" d="M56.483 128.89l13.325-5.71 6.875-3.062 6.88-3.052c9.168-4.083 18.364-8.1 27.548-12.144l27.595-12.035.428-.186.429.187 28.23 12.339 14.095 6.217 7.047 3.11 7.038 3.131 14.071 6.271 14.054 6.311c9.357 4.237 23.263 9.95 28.037 12.787 4.774 2.837-18.987-7.84-28.464-11.8l-14.196-5.982-14.179-6.023-7.087-3.015-7.078-3.037-14.304-6.79-28.122-11.534.43-.445-27.569 11.978c-9.228 3.941-18.095 8.295-27.34 12.197l-6.93 2.937-6.933 2.927-13.88 5.826c-9.264 3.859-27.827 12.761-27.827 11.496 9.113-4.209 18.678-8.773 27.827-12.899z"/>
        <path fill="#EAEAEA" d="M60.983 117.62c-2.062.161-5.58-1.215-4.918-5.15.486-2.004 3.962-8.386 8.357-7.964 4.359.418 4.145 12.524-3.44 13.115"/>
        <path fill="#E2E2E2" d="M52.312 63.385s-2.12 18.18-2.043 21.689c-.177-.034-3.442-4.144-4.625-8.597l-.42.288s2.167 7.03 5.31 9.83l.828 44.83 2.582-1.328s-.166-2.943-.297-5.32c-.018-.32 4.737-2.806 6.658-9.28.04-.136 3.667-3.368 2.779-4.108-.13-.107-2.478 2.622-2.569 2.485.02-1.085.05-2.712-.674-2.544-.146 7.953-6.493 11.924-6.519 11.453-.578-10.657-1.358-29.764-1.404-35.743.046-5.142.47-14.26.47-14.26s5.525-5.03 6.201-7.66c-.288-.423-4.95 5.873-6.29 6.172.31-.677.013-7.907.013-7.907"/>
        <path fill="#F7F7F7" d="M7.525 46.675a3.768 3.768 0 0 0-3.762-3.774A3.768 3.768 0 0 0 0 46.675h7.525zM268.356 52.584a4.61 4.61 0 0 0-4.603-4.617 4.61 4.61 0 0 0-4.603 4.617h9.206zM256.741 52.584a3.121 3.121 0 0 0-3.116-3.126 3.121 3.121 0 0 0-3.116 3.126h6.232zM55.645 46.675a3.768 3.768 0 0 0-3.762-3.774c-1.1 0-2.086.476-2.775 1.23-.334-2.207-1.48-4.973-5.09-5.217-4.757-.321-5.44 3.716-5.519 4.371.09-.954.541-9.104-10.121-9.104-8.494.406-8.764 8.52-8.764 8.52-1.792-2.978-9.303-2.299-8.36 4.193h37.933s.01-.08.02-.219h6.438zM202.573 49.086a2.737 2.737 0 0 0-2.733-2.742 2.72 2.72 0 0 0-2.014.894c-.244-1.604-1.076-3.612-3.698-3.79-3.455-.233-3.95 2.7-4.008 3.175.065-.693.646-6.182-7.098-6.182-6.17.294-6.371 6.87-6.053 8.803h20.914s.007-.058.014-.158h4.676z"/>
        <path fill="#F7F7F7" d="M288 52.474c0-1.19-.962-2.155-2.148-2.155-.627 0-1.19.272-1.583.703-.192-1.26-.846-2.84-2.907-2.979-2.715-.183-3.104 2.122-3.15 2.496.052-.545.508-4.86-5.578-4.86-4.85.232-5.008 5.4-4.757 6.92h16.436s.006-.046.012-.125H288z"/>
        <path fill="#EAEAEA" d="M195.058 100.837s10.572-8.78 3.396-20.09C190.443 68.12 187.391 82.853 182.05 84c-9.443 2.03.834 24.883 13.008 16.837"/>
        <path fill="#E2E2E2" d="M185.632 88.818s.901 4.158 3.605 6.328c.36 0-.379 19.66-.379 19.66l1.411.747.41-21.853s2.883-5.424 2.703-9.04c0-.18-3.785 9.04-3.785 9.04s-2.163-1.628-3.965-4.882"/>
        <path fill="#EDEDED" d="M220.065 119.38s-4.505-16.09 11.354-16.994c15.72-.896 12.616 15.91 12.616 15.91l-23.97 1.084z"/>
        <path fill="#F2F2F2" d="M242.866 120.826s-2.464-8.798 6.21-9.293c8.596-.49 6.898 8.7 6.898 8.7l-13.108.593zM17.068 108.795s-2.464-8.799 6.21-9.293c8.596-.49 6.898 8.7 6.898 8.7l-13.108.593z"/>
        <path fill="#F2F2F2" d="M10.295 109.156s-1.539-5.493 3.876-5.802c5.367-.305 4.307 5.432 4.307 5.432l-8.183.37z"/>
        <g>
            <path fill="#F2DB79" d="M95.299 110.551s6.839 5.407 16.585 2.644c.279.4-9.128 6.638-16.585-2.644"/>
            <path fill="#FFCE00" d="M177.365 33.952C177.122 14.568 162.673.807 143.817.177c-.333-.119-4.926.096-5.259.214-18.346 1.155-32.148 14.498-32.391 33.882-.085 6.778 1.16 14.261 2.633 18.55 1.213 3.535 3.352 9.254 6.505 9.006 2.05-.16 2.787-1.405 2.501-2.019l26.531-.79 22.113.79c-.286.614-.6 1.859 1.45 2.02 3.153.247 5.517-5.472 6.73-9.007 1.473-4.289 2.82-12.093 2.735-18.871"/>
            <path fill="#FFB000" d="M114.949 56.475c-12.663-32.796 7.28-50.443 8.078-51.38l-.16-.181c-10 5.632-16.534 16.077-16.7 29.36-.085 6.777 1.16 14.26 2.633 18.549 1.213 3.535 3.352 9.254 6.505 9.007 1.42-.112 2.21-.744 2.466-1.325l-2.822-4.03z"/>
            <path fill="#9ED7FF" d="M99.03 105.678s-1.048-2.916 1.47-3.997c2.94-1.262 1.958 1.98 3.587 3.21 3.616 2.73 7.756 6.677 10.067 9.202 1.05-1.052 9.363-9.026 10.06-10.89.233-.466.233 7.223.233 7.223s-6.774 7.693-8.402 9.557c-.892 1.02-1.74 5.77-5.462 4.838-3.723-.932-11.554-19.143-11.554-19.143"/>
            <path fill="#476172" d="M94.434 106.698s-1.86 4.893 4.188 12.349c5.2 6.41 10.238 8.753 12.591 7.878.436-.162 2.02-1.915 2.067-2.287.232-1.864-1.63-7.222-7.213-13.98-5.584-6.756-8.608-9.785-11.633-3.96"/>
            <path fill="#304956" d="M111.929 126.288c1.175-2.729-2.39-7.925-7.025-13.532-4.676-5.658-8.717-8.927-10.286-6.446-.532.885-2.045 5.28 4.004 12.736 5.242 6.46 11.33 9.983 13.307 7.242"/>
            <path fill="#476172" d="M104.281 105.258c-.21 1.052-1.05 3.576-1.05 3.576s3.598 4.838 4.831 4.838c.63 0 1.891-2.945 1.47-4.207-.387-1.164-5-5.462-5.25-4.207"/>
            <path fill="#9ED7FF" d="M185.433 105.258s1.047-2.917-1.47-3.997c-2.941-1.262-1.958 1.979-3.587 3.21-3.616 2.73-7.757 6.677-10.067 9.201-1.05-1.052-9.363-9.025-10.061-10.89-.233-.465-.233 7.223-.233 7.223s6.774 7.693 8.403 9.557c.891 1.02 1.739 5.77 5.462 4.839 3.722-.933 11.553-19.143 11.553-19.143"/>
            <path fill="#476172" d="M190.028 106.277s1.862 4.893-4.188 12.349c-5.2 6.41-10.237 8.753-12.59 7.878-.436-.162-2.02-1.915-2.067-2.287-.233-1.864 1.629-7.222 7.212-13.979 5.584-6.757 8.609-9.785 11.633-3.96"/>
            <path fill="#304956" d="M172.534 125.868c-1.175-2.73 2.39-7.925 7.025-13.533 4.675-5.657 8.717-8.926 10.285-6.446.532.885 2.046 5.281-4.004 12.737-5.241 6.46-11.33 9.982-13.306 7.242"/>
            <path fill="#476172" d="M180.182 104.837c.21 1.052 1.05 3.576 1.05 3.576s-3.598 4.838-4.832 4.838c-.63 0-1.89-2.945-1.47-4.207.387-1.164 5.001-5.462 5.252-4.207"/>
            <path fill="#78BCEC" d="M156.497 82.17c0 .22 1.31 5.248 5.895 5.904 4.585.656 10.48-6.559 10.699-8.745.218-2.187-16.594 2.842-16.594 2.842M111.52 81.296c.219.219 3.276 9.183 9.389 7.653 7.655-1.917 5.458-10.714 5.458-10.714l-14.846 3.061z"/>
            <path fill="#9ED7FF" d="M169.16 50.912c0 14.008-12.505 19.234-26.854 19.234-14.35 0-27.292-4.804-27.292-18.811s7.629-31.42 27.292-31.914c16.811-.423 26.855 17.484 26.855 31.491"/>
            <path fill="#505B6D" d="M178.54 59.358c-1.677.187-3.284.851-4.592 1.687l.01-.018-.391.273-.143.1-13.215 9.223 1.458.834 9.211-6.33c.406 1.566 3.541 2.784 7.35 2.784 4.084 0 6.978-.834 7.395-3.129.938-5.168-3.333-5.84-7.083-5.424"/>
            <path fill="#2E3B4C" d="M157.37 71.02s2.839-2.405 4.586-.656c1.965 1.968-1.092 5.029-1.092 5.029l-3.493-4.373z"/>
            <path fill="#505B6D" d="M107.704 61.254c1.626.132 3.196.726 4.485 1.496l-.01-.017.385.252c.047.03.094.06.14.092l13.03 8.526-1.384.848-9.08-5.848c-.346 1.524-3.339 2.792-7.017 2.902-3.945.119-6.764-.604-7.233-2.808-1.055-4.964 3.05-5.738 6.684-5.443"/>
            <path fill="#2E3B4C" d="M128.582 71.887s-2.908-2.32-4.602-.519c-1.905 2.026 1.241 4.994 1.241 4.994l3.361-4.475z"/>
            <path fill="#39475B" d="M162.716 74.878l13.02 1.482a2.936 2.936 0 0 1 2.567 3.364 2.934 2.934 0 0 1-3.096 2.484l-13.47-.912.979-6.418zM123.431 74.878l-13.02 1.482a2.936 2.936 0 0 0-2.568 3.364 2.934 2.934 0 0 0 3.097 2.484l13.47-.912-.979-6.418z"/>
            <path fill="#9ED7FF" d="M164.357 75.174l3.644.367s2.775 2.612.112 6.042c-.306.082-1.944.023-1.944.023s1.065 1.878 4.648.456c.18.217 1.619 1.64 4.239.328.218 0 2.315.561 4.366-1.75 1.747-1.967 1.092-3.716.655-4.81-.436-1.093-1.965-3.28-3.493-3.06-1.31.218-1.092-.438-2.183-.657-1.092-.218-1.747.438-2.62.438-.874 0-1.529-.438-2.839-.656-1.31-.219-1.965.218-3.056 1.093-1.092.875-1.529 2.186-1.529 2.186"/>
            <path fill="#08C" d="M171.78 74.518s2.402 1.53 2.402 3.717c0 1.763-1.528 3.28-3.493 3.936 0 0 2.402-1.093 2.62-3.936.08-1.036-.873-2.623-1.528-3.717M175.71 74.956s2.402 1.53 2.402 3.717c0 1.762-1.528 3.28-3.493 3.935 0 0 2.402-1.093 2.62-3.935.08-1.037-.873-2.624-1.528-3.717"/>
            <path fill="#9ED7FF" d="M122.492 75.174l-2.893.438s-2.402 2.405 0 5.903c.306.082 1.31 0 1.31 0s-2.62 2.842-5.677.656c-.18.217-1.091 1.312-3.711 0-.219 0-2.043.78-4.094-1.53-1.747-1.968-.799-4.195-.273-5.248.437-.875 2.402-2.842 4.203-2.624 1.31.219 1.092-.437 2.183-.656 1.092-.218 1.474.438 2.347.438.874 0 .437-.219 1.747-.438 1.31-.218 2.183.438 3.275 1.312.873.875 1.583 1.75 1.583 1.75"/>
            <path fill="#08C" d="M115.069 74.518s-2.402 1.53-2.402 3.717a4.256 4.256 0 0 0 2.565 3.936s-1.473-1.093-1.692-3.936c-.08-1.036.874-2.623 1.529-3.717M111.139 74.956s-2.402 1.53-2.402 3.717c0 1.762.819 2.842 2.784 3.498 0 0-1.965-1.093-1.91-3.498.023-1.04.873-2.624 1.528-3.717"/>
            <path fill="#FFCE00" d="M164.139 74.737c-2.402-1.968-2.183-1.312-5.24-3.498-2.856-2.043-6.987-4.81-15.61-4.532-8.188-.06-12.755 2.489-15.612 4.532-3.056 2.186-2.838 1.53-5.24 3.498-2.183 1.75-1.746 6.34.874 7.653 8.078.874 10.48 6.996 10.48 6.996h19.213s1.31-5.903 10.262-6.996c2.62-1.312 3.056-5.904.873-7.653"/>
            <path fill="#FFB000" d="M132.699 87.856l21.178-.22s-1.965-3.716-10.916-3.497c-8.952.218-10.262 3.717-10.262 3.717"/>
            <path fill="#FFCE00" d="M123.529 134.208c-1.092-1.49-6.113-24.324-1.31-39.575 3.057-8.356 21.397-8.308 21.397-8.308s12.445-1.739 19.213 7.871c5.677 8.148 2.183 37.403 1.31 38.926-.873 1.523-4.148 9.401-20.96 9.61-13.894.173-18.558-7.035-19.65-8.524"/>
            <path fill="#825E17" d="M132.827 136.613c2.076 5.903 18.128 9.183 22.95.437 2.335-4.236 2.027-12.025 2.027-12.025l-27.484-.219s.724 6.735 2.507 11.807"/>
            <path fill="#505B6D" d="M144.69 154.978h-1.066c-3.554 0-6.02-4.81-6.672-10.494-.846-7.373.237-26.675.237-26.675l14.723-.218s.842 20.552-.299 29.08c-.714 5.341-3.37 8.307-6.923 8.307"/>
            <path fill="#3D3F4F" d="M151.285 135.3c0 8.091-.181 12.245-.893 12.245-.713 0-.695-4.591-.695-12.682 0-8.09.082-13.993.794-13.993.712 0 .794 6.34.794 14.43"/>
            <path fill="#FFCE00" d="M144.277 133.333c10.624-.219 13.805-7.835 13.748-9.195-.263-6.226-3.86-14.406-15.223-14.2-10.512.19-12.766 9.183-12.482 14.868.053 1.067 2.708 8.964 13.957 8.527"/>
            <path fill="#FFB000" d="M143.756 115.842c-11.614.423-13.436 10.276-13.436 10.276s0-11.807 12.294-12.9c13.028-1.158 16.263 10.685 14.995 12.463 0 0-1.867-10.277-13.853-9.84M153.004 87.2s1.747-9.402 12.445-8.09c0 .219-.437 1.968-1.092 2.405-.218.219-6.768-1.53-11.353 5.685M133.572 87.2s-1.746-9.402-12.445-8.09c0 .219.437 1.968 1.092 2.405.218.219 6.768-1.53 11.353 5.685"/>
            <path fill="#FFF" d="M132.262 73.207c2.839-3.936 17.467-5.03 22.489 0 2.401 2.842-2.402 7.652-4.585 7.87-3.073.308-9.607.22-12.664.438-1.46.104-8.078-4.373-5.24-8.308"/>
            <path fill="#FF4C5A" d="M143.834 95.508c-3.065 0-7.205 1.968-8.733 6.56-1.946 5.844 3.93 7.214 8.733 6.996 4.803-.219 10.419-2.31 7.642-7.871-1.965-3.936-5.459-5.685-7.642-5.685M128.246 2.405s-.836 5.706 14.098 4.634c10.727-.858 11.75-4.648 11.779-5.147-.363-.138-12.83-4.503-25.877.513"/>
            <path fill="#39475B" d="M169.597 59.214c2.184-4.753 4.585-38.919-17.903-43.947-.218.223 8.952 13.555 8.952 13.555s8.733 11.151 5.676 32.14c-.08.214 1.747 2.348 3.275-1.748M113.704 57.902s-9.825-37.825 20.96-41.323c.218.221-12.227 11.806-12.227 11.806-.672.748-8.296 13.993-4.803 32.578.08.212-2.62 1.53-3.93-3.061"/>
            <path fill="#FFF" d="M155.087 39.61c-1.104 3.258-4.544 5.035-7.685 3.968-3.14-1.067-4.79-4.573-3.686-7.832 1.104-3.26 4.544-5.036 7.685-3.97 3.14 1.067 4.79 4.574 3.686 7.833"/>
            <path fill="#203D4F" d="M155.036 39.592c.25-.755.334-1.564.235-2.343a5.66 5.66 0 0 0-.744-2.176 6.373 6.373 0 0 0-1.43-1.692 5.66 5.66 0 0 0-4.015-1.324 5.581 5.581 0 0 0-2.094.566 6.157 6.157 0 0 0-1.764 1.325A6.362 6.362 0 0 0 144 35.842a5.66 5.66 0 0 0-.43 2.262 5.4 5.4 0 0 0 .537 2.256 5.163 5.163 0 0 0 1.446 1.782c.6.47 1.286.801 1.996 1.006a6.596 6.596 0 0 0 4.345-.268 5.723 5.723 0 0 0 1.913-1.28 5.27 5.27 0 0 0 1.23-2.008m.103.035a8.264 8.264 0 0 1-1.119 2.153c-.486.659-1.085 1.26-1.802 1.717a5.564 5.564 0 0 1-2.408.852 5.529 5.529 0 0 1-2.554-.34 5.857 5.857 0 0 1-2.11-1.421 7 7 0 0 1-1.36-2.08 7.38 7.38 0 0 1-.353-4.859 6.582 6.582 0 0 1 1.122-2.267 6.417 6.417 0 0 1 1.952-1.673 6.406 6.406 0 0 1 2.478-.79 6.02 6.02 0 0 1 4.825 1.68 5.793 5.793 0 0 1 1.376 2.17c.289.803.398 1.646.382 2.466a8.116 8.116 0 0 1-.429 2.392"/>
            <path fill="#FFF" d="M143.1 38.69c-.533 3.042-2.957 5.066-6.013 4.418-3.754-.797-3.782-3.68-3.231-6.042.702-3.008 3.034-5.147 5.587-4.699 2.552.449 4.19 3.28 3.657 6.322"/>
            <path fill="#203D4F" d="M143.046 38.68a5.161 5.161 0 0 0-.056-1.99 5.213 5.213 0 0 0-.784-1.774 5.219 5.219 0 0 0-1.279-1.31 3.716 3.716 0 0 0-1.598-.665 3.633 3.633 0 0 0-1.704.146 4.382 4.382 0 0 0-1.53.913c-.457.41-.844.91-1.173 1.453a7.995 7.995 0 0 0-.792 1.759c-.19.631-.334 1.283-.342 1.94-.014.652.1 1.319.421 1.878.318.56.834.973 1.409 1.227.149.056.287.128.44.17l.458.128c.315.054.627.134.937.15 1.235.13 2.445-.12 3.505-.81a4.724 4.724 0 0 0 1.365-1.361 4.96 4.96 0 0 0 .723-1.854m.107.019c-.124.67-.31 1.33-.586 1.966-.276.635-.65 1.252-1.167 1.768a4.301 4.301 0 0 1-1.89 1.113 4.65 4.65 0 0 1-2.198.06 3.358 3.358 0 0 1-.525-.14c-.17-.058-.342-.107-.508-.174l-.49-.23c-.162-.078-.312-.187-.466-.279a4.155 4.155 0 0 1-1.425-1.588c-.32-.639-.444-1.344-.48-2.037-.028-.696.024-1.393.13-2.079.112-.69.294-1.386.6-2.037a6.365 6.365 0 0 1 1.231-1.787 5.227 5.227 0 0 1 1.862-1.244 4.248 4.248 0 0 1 2.285-.22c.762.136 1.48.49 2.055.983a4.648 4.648 0 0 1 1.267 1.803c.271.674.396 1.38.433 2.072a9.133 9.133 0 0 1-.128 2.05"/>
            <path fill="#43775B" d="M151.039 37.787c0 1.46-1.075 2.645-2.402 2.645-1.326 0-2.401-1.184-2.401-2.645s1.075-2.646 2.401-2.646c1.327 0 2.402 1.185 2.402 2.646"/>
            <path fill="#71BC8A" d="M146.277 38.318s.266-.985.953-.361c-.067.189 1.407 1.417 1.407 1.417s.522.924-.58.991c-.62-.197-1.581-.726-1.78-2.047"/>
            <path fill="#000" d="M149.947 37.787c0 .797-.586 1.443-1.31 1.443-.723 0-1.31-.646-1.31-1.443s.587-1.443 1.31-1.443c.724 0 1.31.646 1.31 1.443"/>
            <path fill="#FFF" d="M152.349 37.787c0 .398-.684.721-1.528.721s-1.529-.323-1.529-.721c0-.399.685-.722 1.529-.722.844 0 1.528.323 1.528.722"/>
            <path fill="#43775B" d="M141.412 37.787c0 1.449-1.066 2.623-2.381 2.623-1.316 0-2.382-1.174-2.382-2.623 0-1.45 1.066-2.624 2.382-2.624 1.315 0 2.381 1.175 2.381 2.624"/>
            <path fill="#71BC8A" d="M136.69 38.313s.264-.976.945-.358c-.067.188 1.396 1.406 1.396 1.406s.517.916-.575.983c-.616-.196-1.57-.72-1.766-2.03"/>
            <path fill="#000" d="M140.34 37.787c0 .797-.586 1.443-1.31 1.443-.723 0-1.31-.646-1.31-1.443s.587-1.443 1.31-1.443c.724 0 1.31.646 1.31 1.443"/>
            <path fill="#FFF" d="M142.742 37.787c0 .398-.684.721-1.528.721s-1.528-.323-1.528-.721c0-.399.684-.722 1.528-.722s1.528.323 1.528.722"/>
            <path fill="#9ED7FF" d="M146.863 43.644c1.689-1.991 6.261-4.489 10.418-2.824-.104 1.77-1.66 2.93-3.949 3.955-2.09.936-4.884 1.144-6.469-1.131M140.996 42.967c-1.391-1.64-5.157-3.698-8.581-2.326.085 1.457 1.019 2.642 2.904 3.486 1.722.771 4.371.714 5.677-1.16"/>
            <path fill="#9B426A" d="M129.642 51.124c0-2.851.437-5.029 3.057-6.56 2.62-1.53 5.022-1.311 7.205.22 2.183 1.53 5.895 5.247 10.917.437 3.056-2.624 6.55-1.968 7.86 2.186 1.528 3.935 0 15.523-14.192 16.617-13.1.218-14.847-10.932-14.847-12.9"/>
            <path fill="#682745" d="M150.82 60.963c1.31-6.56-2.838-8.527-4.366-8.965-1.528-.437-4.148.219-3.93 1.53.218 1.313 2.183 2.843-.873 2.625-3.057-.22-1.31-2.187-1.092-2.624.218-.437 0-3.498-4.803-.875-3.418 1.867-3.188 5.06-2.77 6.748 2.186 2.578 5.75 4.718 11.503 4.622 2.095-.162 3.911-.553 5.485-1.113.407-.565.7-1.214.847-1.948"/>
            <path fill="#E06396" d="M147.546 56.371c-2.62 0-2.839 2.405-2.839 2.405-6.146-2.335-7.555 3.441-7.62 3.794 1.937.931 4.364 1.504 7.402 1.454 4.344-.335 7.5-1.654 9.746-3.435-1.231-2.687-4.364-4.218-6.69-4.218"/>
            <path fill="#FFF" d="M152.13 48.937c.982-1.375-.008-3.97-.307-4.481-.329.219-.663.473-1.002.765-5.022 4.81-8.734 1.093-10.917-.438a6.9 6.9 0 0 0-1.543-.806l-.094-.003s-2.293 3.433-.765 5.62c1.529 1.967 5.24 2.186 7.642 2.186 2.838 0 5.895-1.312 6.987-2.843"/>
            <path fill="#08C" d="M146.343 44.22s5.237-4.226 11.437-2.811c-.024-.437-1.415-1.894-5.304-1.026-4.393.981-6.133 3.837-6.133 3.837M141.321 43.345s-4.255-3.372-9.495-1.841c-.024-.437 1.55-1.585 4.585-1.093 3.429.555 4.91 2.934 4.91 2.934"/>
            <path fill="#000" fill-opacity=".3" d="M120.254 32.977s34.2.48 42.793 0c.156-.02-3.056-5.466-3.056-5.466l-37.062-.058s-2.166 3.275-2.675 5.524"/>
            <path fill="#5D6D84" d="M113.922 32.54c9.159-3.777 33.68-4.743 47.198-2.534 2.917.477 5.758 1.101 7.386 1.877 0-3.159-5.459-19.24-29.257-17.71-18.525 1.192-24.453 14.65-25.327 18.366"/>
            <path fill="#000" d="M134.832 31.153s1.765-2.271 5.042-1.514c1.122.277 1.26-2.272-1.765-2.777-2.835-.473-4.537 2.02-4.537 3.534 0 1.514 1.26.757 1.26.757M152.256 28.89s-1.461-2.114-4.25-1.084c-.98.435-1.788-2.014.557-2.883 2.198-.814 4.332 1.091 4.591 3.018.219 1.628-.898.95-.898.95"/>
            <path fill="#FF4C5A" d="M192.85 86.233c-2.15-1.156-8.33-14.022-2.136-16.686 5.076-2.183 6.6 5.879 6.6 5.879s5.929-6.096 8.544-.846c3.095 6.214-10.336 13.09-13.008 11.653"/>
            <path fill="#FC5E7D" d="M94.516 49.97c-1.842.435-12-3.975-9.752-8.778 1.842-3.936 6.84.049 6.84.049s.343-6.7 4.542-4.95c4.97 2.072.658 13.14-1.63 13.68"/>
            <path fill="#F9A0AD" d="M200.43 91.505c-.298-1.209 2.453-7.941 5.573-6.507 2.556 1.175.032 4.505.032 4.505s4.325.162 3.235 2.945c-1.29 3.294-8.471.559-8.84-.943M91.857 62.641c-1.047.646-8.398.12-8.108-3.234.238-2.749 4.275-1.4 4.275-1.4s-1.335-4.095 1.687-3.922c3.578.206 3.448 7.754 2.146 8.556"/>
            <path fill="#FFEF5A" d="M149.446 89.053c-.163.406 2.539.992 4.366 1.968.205.109.405.225.599.347 2.842 1.78 5.37 5.06 5.733 8.398 1.092 10.058 1.31 15.742 1.092 20.99 1.528-.656 2.183-3.936 2.62-6.778 0 0 .218-6.122-1.127-14.453-.593-3.677-2.722-6.936-6.033-8.635-3.435-1.764-6.98-2.515-7.25-1.837M147.917 116.164L147.262 133s2.32-.252 4.763-1.438c.082-.185.259-13.649.259-13.649s-.655-.874-4.367-1.749M148.79 66.97c.437.656 1.092 2.624 1.31 3.717.656.219 3.276 1.312 4.367 2.186-.218-1.749-1.965-5.028-1.965-5.028s-2.62-.875-3.711-.875"/>
            <path fill="#FFB000" d="M128.267 72.217s-1.186 6.756 1.809 9.377c-.124.287-2.9-.247-2.9-.247s-1.747-5.217 1.091-9.13M159.052 72.436s.28 6.537-2.715 9.158c.124.287 2.9-.247 2.9-.247s2.435-4.538-.185-8.911"/>
            <path fill="#FFEF5A" d="M160.58 10.998c3.712 2.842 8.725 6.865 12.009 15.086 1.31 3.28 2.796 1.951 1.965-.874-1.915-6.512-5.048-11.933-11.424-16.606-2.369-1.735-6.049-.286-2.55 2.394"/>
            <path fill="#7E92A8" d="M146.389 14.277s8.515 5.03 11.135 15.305c-.064-.094 4.803.656 4.803.656s-1.965-10.057-11.571-15.305c-1.529-.437-4.367-.656-4.367-.656"/>
        </g>
    </g>
</svg>
