<svg xmlns="http://www.w3.org/2000/svg" width="16" height="16" viewBox="0 0 16 16">
    <path fill="#141414" d="M12.571 9.143c-1.134 0-2.133.56-2.758 1.41l-3.12-1.56c.097-.316.164-.645.164-.993s-.067-.677-.164-.993l3.12-1.56c.625.85 1.624 1.41 2.758 1.41C14.462 6.857 16 5.32 16 3.43 16 1.538 14.462 0 12.571 0c-1.89 0-3.428 1.538-3.428 3.429 0 .347.067.676.164.993l-3.12 1.56c-.625-.85-1.624-1.41-2.758-1.41C1.538 4.571 0 6.108 0 8c0 1.89 1.538 3.429 3.429 3.429 1.134 0 2.133-.56 2.758-1.411l3.12 1.56c-.097.317-.164.646-.164.993C9.143 14.462 10.68 16 12.57 16 14.462 16 16 14.462 16 12.571c0-1.89-1.538-3.428-3.429-3.428zm0-8c1.261 0 2.286 1.026 2.286 2.286s-1.025 2.285-2.286 2.285c-1.26 0-2.285-1.025-2.285-2.285 0-1.26 1.025-2.286 2.285-2.286zM3.43 10.286C2.168 10.286 1.143 9.26 1.143 8s1.025-2.286 2.286-2.286c1.26 0 2.285 1.026 2.285 2.286S4.69 10.286 3.43 10.286zm9.142 4.571c-1.26 0-2.285-1.026-2.285-2.286s1.025-2.285 2.285-2.285c1.261 0 2.286 1.025 2.286 2.285 0 1.26-1.025 2.286-2.286 2.286z"/>
</svg>
