<svg xmlns="http://www.w3.org/2000/svg" width="24" height="25" viewBox="0 0 24 25">
    <g fill="#B0B0B0" fill-rule="evenodd">
        <path d="M20.827 13.78c1.219-.65 1.543-3.736-1.299-3.98 0 0-3.086-.325-3.98-.406-1.054-.096.398-2.886-.455-5.209-.36-.983-1.14-1.62-1.87-1.62-.646 0-1.253.503-1.492 1.713-.667 3.39-2.361 5.208-3.364 6.016-.49.396-.777.983-.777 1.613v7.412c0 .906.59 1.715 1.456 1.98 2.167.665 4.259.887 5.933.887.38 0 .738-.012 1.07-.032 5.51-.334 5.915-3.664 4.778-4.557 1.868-1.056 1.056-3.655 0-3.817M3.944 21.153A1.944 1.944 0 0 1 2 19.21V12.66a1.944 1.944 0 0 1 3.889 0v6.548c0 1.074-.87 1.944-1.945 1.944"/>
    </g>
</svg>
