<svg xmlns="http://www.w3.org/2000/svg" width="24" height="25" viewBox="0 0 24 25">
    <g fill="#B0B0B0" fill-rule="evenodd">
        <path d="M3.117 10.535c-1.218.65-1.543 3.736 1.3 3.98 0 0 3.085.325 3.979.406 1.054.096-.398 2.885.455 5.209.361.983 1.14 1.62 1.87 1.62.647 0 1.254-.503 1.492-1.713.667-3.39 2.362-5.208 3.364-6.017.49-.395.778-.982.778-1.612V4.996c0-.906-.59-1.715-1.457-1.98a20.516 20.516 0 0 0-5.933-.887c-.38 0-.737.011-1.07.032-5.51.334-5.915 3.664-4.778 4.557-1.868 1.056-1.056 3.655 0 3.817M20 3.162c1.074 0 1.944.87 1.944 1.944v6.547a1.944 1.944 0 0 1-3.888 0V5.106c0-1.074.87-1.944 1.944-1.944"/>
    </g>
</svg>
