<svg xmlns="http://www.w3.org/2000/svg" width="24" height="24" viewBox="0 0 24 24">
    <g fill="none" fill-rule="evenodd">
        <path fill="#4CAF50" d="M12 0C7.49-.002 3.361 2.524 1.311 6.54c-2.05 4.015-1.675 8.84.97 12.491l-1.5 4.458L5.4 22.013c1.956 1.3 4.252 1.992 6.6 1.987 6.628 0 12-5.373 12-12S18.627 0 12 0z"/>
        <path fill="#FFF" d="M18.983 16.945c-.491.888-1.355 1.508-2.353 1.692-.628.131-1.444.239-4.2-.9-3.525-1.463-5.8-5.044-5.977-5.278-.813-1.044-1.308-2.3-1.425-3.619-.03-1.105.418-2.169 1.228-2.92.339-.296.779-.45 1.228-.431.15 0 .281.009.4.014.352.014.53.037.764.591.291.7.994 2.419 1.078 2.6.12.197.139.439.052.652-.098.203-.23.388-.389.548-.178.2-.347.361-.52.581-.164.192-.347.394-.14.745.527.897 1.182 1.711 1.944 2.419.82.75 1.775 1.339 2.813 1.734.282.136.618.084.844-.131.334-.397.648-.812.938-1.242.18-.294.55-.407.862-.262.323.112 2.04.961 2.391 1.134.352.173.586.263.67.408.09.563.019 1.141-.208 1.665z"/>
    </g>
</svg>
