<svg xmlns="http://www.w3.org/2000/svg" width="24" height="24" viewBox="0 0 24 24">
    <g fill="none" fill-rule="evenodd">
        <path fill="#131DF5" d="M12 0a11.993 11.993 0 0 0-9.717 19.031l-1.5 4.458L5.4 22.013A11.877 11.877 0 0 0 12 24c6.627 0 12-5.373 12-12S18.627 0 12 0z"/>
        <path fill="#FAFAFA" d="M18.984 16.945a3.391 3.391 0 0 1-2.353 1.692c-.628.131-1.444.239-4.2-.9-3.525-1.463-5.8-5.044-5.977-5.278A6.871 6.871 0 0 1 5.029 8.84a3.839 3.839 0 0 1 1.228-2.92c.339-.296.778-.45 1.228-.431.15 0 .281.009.4.014.352.014.53.037.764.591.291.7.994 2.419 1.078 2.6a.731.731 0 0 1 .052.652c-.098.203-.23.388-.389.548-.178.2-.347.361-.52.581-.164.192-.347.394-.141.745a10.7 10.7 0 0 0 1.945 2.419 8.8 8.8 0 0 0 2.813 1.734.751.751 0 0 0 .844-.131c.334-.397.647-.812.938-1.242a.676.676 0 0 1 .862-.262c.323.112 2.039.961 2.391 1.134.352.173.586.263.67.408a3 3 0 0 1-.208 1.665z"/>
    </g>
</svg>
