<svg xmlns="http://www.w3.org/2000/svg" width="30" height="20" viewBox="0 0 30 20">
    <g fill="none" fill-rule="evenodd">
        <path d="M0 0H32V24H0z" transform="translate(-1 -2)"/>
        <g>
            <path fill="#4A377B" d="M10.525 0c-.368 0-.722.133-.992.374L7.465 1.728 5.617.396C5.344.142 4.98 0 4.601 0H1.875C.844 0 0 .817 0 1.818V18.18c0 1.004.84 1.818 1.875 1.818h2.677c.403 0 .788-.16 1.065-.445l1.941-1.633 1.88 1.61c.278.298.673.468 1.087.468h17.598c1.036 0 1.875-.814 1.875-1.818V1.818C29.998.814 29.16 0 28.123 0H10.525z" transform="translate(-1 -2) translate(1 2)"/>
            <path fill="#FFF" fill-rule="nonzero" d="M9.457 10.457H7.043V13H6V7h3.812v.84h-2.77v1.785h2.415v.832zm3.384.231h-1.162V13h-1.043V7h2.11c.692 0 1.227.155 1.603.466.376.31.564.76.564 1.347 0 .401-.096.737-.29 1.008-.194.27-.464.478-.81.624l1.348 2.501V13h-1.117l-1.203-2.312zm-1.162-.836h1.071c.352 0 .626-.089.824-.266.198-.177.297-.42.297-.727 0-.322-.091-.57-.274-.746-.183-.176-.456-.267-.818-.272h-1.1v2.01zm7.73.47h-2.464v1.846h2.88V13h-3.923V7h3.895v.84h-2.852v1.657h2.464v.824zm4.772 0h-2.464v1.846h2.88V13h-3.923V7h3.895v.84h-2.852v1.657h2.464v.824z" transform="translate(-1 -2) translate(1 2)"/>
        </g>
    </g>
</svg>
