<svg xmlns="http://www.w3.org/2000/svg" width="24" height="24" viewBox="0 0 24 24">
    <path fill="#FF4C5A" fill-rule="evenodd" d="M11.982 3c1.182 0 2.274.63 2.865 1.654l6.558 11.366a3.308 3.308 0 0 1-2.742 5.157H5.308a3.308 3.308 0 0 1-2.865-4.963l6.674-11.56A3.308 3.308 0 0 1 11.982 3zm.004 13.52a1.37 1.37 0 1 0 1.369 1.37l-.006-.132a1.37 1.37 0 0 0-1.363-1.237zm.008-10.34c-.638 0-1.154.515-1.156 1.151l-.011 6.122a1.154 1.154 0 0 0 2.306.004l.012-6.121a1.153 1.153 0 0 0-1.151-1.156z"/>
</svg>
