<svg xmlns="http://www.w3.org/2000/svg" width="44" height="44" viewBox="0 0 44 44">
    <g fill="none" fill-rule="evenodd">
        <circle cx="22" cy="22" r="22" fill="#4A377B"/>
        <g transform="translate(6 13)">
            <path fill="#E0E0E0" d="M32 15.75c0-4.556-2.93-8.25-6.545-8.25-3.615 0-6.546 3.694-6.546 8.25"/>
            <ellipse cx="25.818" cy="4.875" fill="#E0E0E0" rx="4" ry="4.125"/>
            <path fill="#E0E0E0" d="M13.09 15.75c0-4.556-2.93-8.25-6.545-8.25C2.93 7.5 0 11.194 0 15.75"/>
            <ellipse cx="6.909" cy="4.875" fill="#E0E0E0" rx="4" ry="4.125"/>
            <g fill="#FFF" transform="translate(8)">
                <path d="M16 18c0-5.385-3.582-9.75-8-9.75S0 12.615 0 18"/>
                <ellipse cx="8.208" cy="4.696" rx="4.571" ry="4.696"/>
            </g>
        </g>
        <circle cx="22" cy="22" r="22" fill="#4A377B"/>
        <g fill="#FFF">
            <path d="M24.521 26.887c-.059-.553-.114-1.473.078-2.088 1.149-.931 1.898-2.56 1.914-4.775.022-3.34-2.011-5.677-4.493-5.677-2.48 0-4.442 2.142-4.492 5.677-.031 2.197.76 3.863 1.96 4.804.269.73.197 1.547.108 2.049h-.069c-3.198 0-5.79 2.58-5.79 5.764v.293c0 .823.67 1.49 1.497 1.49H28.78c.826 0 1.497-.667 1.497-1.49 0-3.22-2.56-5.874-5.756-6.047"/>
            <path d="M15.435 26.205a4.053 4.053 0 0 0-1.108-.234c-.04-.376-.078-1 .053-1.42.78-.631 1.29-1.738 1.3-3.243.014-2.269-1.367-3.856-3.052-3.856-1.687 0-3.019 1.455-3.053 3.856-.02 1.494.517 2.624 1.333 3.264.181.496.133 1.051.073 1.393h-.048A3.924 3.924 0 0 0 7 29.88v.2c0 .559.455 1.011 1.016 1.011h4.017a7.639 7.639 0 0 1 3.402-4.886M33.09 25.971c-.04-.376-.077-1 .053-1.42.78-.631 1.29-1.738 1.3-3.243.015-2.269-1.367-3.856-3.052-3.856-1.686 0-3.019 1.455-3.053 3.856-.021 1.494.516 2.624 1.334 3.264.18.496.132 1.051.072 1.393h-.047c-.463 0-.902.094-1.315.24a7.93 7.93 0 0 1 3.544 4.886h4.058c.561 0 1.016-.452 1.016-1.011 0-2.188-1.74-3.992-3.91-4.109M21.724 11.544a.702.702 0 0 1-.703-.7V7.2c0-.386.315-.7.703-.7.389 0 .704.314.704.7v3.644c0 .386-.315.7-.704.7M25.94 12.687a.701.701 0 0 1-.641-.99l1.436-3.156a.706.706 0 0 1 .931-.35c.354.16.511.575.35.928l-1.434 3.157a.706.706 0 0 1-.642.41M29.593 15.387a.698.698 0 0 1-.404-1.274l2.491-1.732a.71.71 0 0 1 .98.174.7.7 0 0 1-.175.975l-2.49 1.731a.706.706 0 0 1-.402.126M16.915 12.687a.702.702 0 0 1-.637-.405l-1.411-3.018a.699.699 0 0 1 .34-.93.701.701 0 0 1 .935.34l1.41 3.018a.699.699 0 0 1-.637.995M13.262 15.387a.71.71 0 0 1-.405-.128l-2.465-1.73a.7.7 0 0 1-.17-.977.707.707 0 0 1 .981-.17l2.466 1.733a.7.7 0 0 1-.407 1.272"/>
        </g>
    </g>
</svg>
