<svg xmlns="http://www.w3.org/2000/svg" width="24" height="24" viewBox="0 0 24 24">
    <g fill="none" fill-rule="evenodd">
        <rect width="24" height="24" fill="#F1F1F1" rx="12"/>
        <path fill="#141414" d="M15.535 8.463c.063.063.123.126.181.19a.5.5 0 0 1-.741.672A4.005 4.005 0 0 0 9.17 9.17a4.007 4.007 0 0 0 0 5.66 4.004 4.004 0 0 0 6.47-1.17c.292-.64.41-1.352.34-2.056a.5.5 0 1 1 .995-.099 5.008 5.008 0 0 1-1.44 4.032 5.006 5.006 0 0 1-7.073 0 5.008 5.008 0 0 1 0-7.074 5.006 5.006 0 0 1 7.073 0zm-3.54.693a.5.5 0 0 1 .5.5v1.85h1.468a.5.5 0 0 1 0 1h-1.968a.5.5 0 0 1-.5-.5v-2.35a.5.5 0 0 1 .5-.5z"/>
    </g>
</svg>
