<svg width="103" height="166" viewBox="0 0 103 166" fill="none" xmlns="http://www.w3.org/2000/svg">
<g opacity="0.4">
<path d="M70.5221 4.99429C69.143 4.99429 68.025 3.87628 68.025 2.49714C68.025 1.11801 69.143 0 70.5221 0C71.9013 0 73.0193 1.11801 73.0193 2.49714C73.0193 3.87628 71.9013 4.99429 70.5221 4.99429Z" fill="#F8F8F8"/>
<path d="M14.183 55.2536C13.2829 55.2536 12.5532 54.5239 12.5532 53.6238C12.5532 52.7236 13.2829 51.9939 14.183 51.9939C15.0832 51.9939 15.8129 52.7236 15.8129 53.6238C15.8129 54.5239 15.0832 55.2536 14.183 55.2536Z" fill="#F8F8F8"/>
<path opacity="0.5" fill-rule="evenodd" clip-rule="evenodd" d="M114.015 130.953C111.945 136.027 100.436 133.175 93.3698 130.524C93.3698 130.524 97.3358 125.728 99.5476 121.725C101.759 117.723 105.452 116.914 106.658 120.959C109.207 113.578 113.148 112.06 114.148 116.523C114.148 116.523 118.007 108.297 121.868 108.394C125.728 108.49 125.305 114.56 121.594 119.677C125.446 121.867 120.626 126.39 111.764 127.948C111.764 127.948 114.997 128.258 114.015 130.953ZM120.691 113.182C120.691 113.182 120.691 113.182 120.462 113.081L120.234 112.98L120.234 112.981L120.233 112.983L120.229 112.991L120.214 113.024C120.2 113.054 120.179 113.1 120.151 113.159C120.094 113.277 120.008 113.452 119.891 113.676C119.658 114.123 119.303 114.764 118.817 115.536C118.516 116.014 118.165 116.542 117.763 117.106L117.607 115.881L117.112 115.944L117.334 117.692C116.506 118.799 115.489 120.013 114.271 121.234C113.469 122.038 112.58 122.845 111.599 123.626L111.489 118.949L110.99 118.96L111.109 124.008C109.158 125.498 106.864 126.874 104.198 127.931L104.533 121.148L104.035 121.123L103.689 128.127C100.916 129.165 97.7528 129.855 94.1687 129.978L94.1858 130.477C97.758 130.355 100.92 129.677 103.7 128.656L109.386 129.718L109.478 129.228L104.586 128.313C107.359 127.19 109.731 125.727 111.735 124.155L115.643 124.059L115.631 123.56L112.374 123.64C113.189 122.965 113.938 122.275 114.624 121.587C115.799 120.41 116.788 119.239 117.605 118.162L119.513 117.696L119.394 117.211L118.07 117.534C118.52 116.91 118.91 116.326 119.24 115.802C119.733 115.017 120.095 114.364 120.334 113.907C120.453 113.678 120.542 113.498 120.601 113.374C120.631 113.313 120.653 113.265 120.668 113.233L120.685 113.196L120.689 113.186L120.69 113.183L120.691 113.182Z" fill="#F0FFFB"/>
<path opacity="0.55" fill-rule="evenodd" clip-rule="evenodd" d="M27.3672 118.396C27.3959 118.395 27.4246 118.395 27.4533 118.394C27.4533 118.394 27.972 104.825 24.3065 101.34C22.9346 100.036 22.0933 100.878 21.2856 101.686C20.8805 102.091 20.4839 102.488 20.0331 102.602C19.4167 102.757 19.1886 101.595 18.9088 100.171C18.5758 98.4752 18.1696 96.4072 16.9487 95.7436C14.5073 94.4158 14.3223 95.829 14.1702 96.9903C14.0983 97.5397 14.0337 98.0326 13.7412 98.1525C13.4513 98.2712 12.9527 97.6978 12.2994 96.9466C10.8999 95.3371 8.7903 92.9112 6.50155 94.7246C4.59724 96.2294 6.08879 97.7198 7.6143 99.2441C8.19614 99.8255 8.78292 100.412 9.18811 101.006C9.79327 101.89 9.27471 102.075 8.60076 102.316C7.86592 102.578 6.94635 102.907 7.09719 104.28C7.315 106.218 9.83641 107.073 11.7545 107.723C12.6602 108.03 13.4314 108.291 13.7621 108.6C14.142 108.954 13.7895 109.024 13.213 109.138C12.225 109.333 10.579 109.659 10.8345 111.77C11.2372 115.098 20.0744 118.478 27.3518 118.396C27.282 118.356 27.0119 117.936 26.5547 117.224C24.3677 113.822 17.9006 103.76 8.60461 96.8301L8.61625 96.6614C17.4921 102.129 23.9131 112.383 26.3213 116.229C26.9754 117.273 27.3334 117.845 27.3643 117.72L27.3684 118.393C27.3681 118.394 27.3677 118.395 27.3672 118.396Z" fill="#FCFCFC"/>
<g opacity="0.7">
<path d="M33.7684 125.237C26.0262 125.273 17.2475 122.233 11.3821 115.209L10.8703 115.322C16.8834 122.526 25.9095 125.781 33.8506 125.807C33.8193 125.618 33.7929 125.428 33.7684 125.237Z" fill="#F8F8F8"/>
<path d="M11.5692 115.755C11.7052 114.107 9.77909 109.996 8.39363 110.703C7.00816 111.41 8.1767 114.923 11.5692 115.755Z" fill="#F8F8F8"/>
<path d="M15.8155 120.085C17.0281 118.958 18.371 114.621 16.8703 114.212C15.3697 113.803 13.8666 117.186 15.8155 120.085Z" fill="#F8F8F8"/>
<path d="M19.331 121.91C20.6258 120.706 22.0587 116.074 20.4575 115.636C18.8563 115.199 17.2496 118.814 19.331 121.91Z" fill="#F8F8F8"/>
<path d="M23.5059 123.82C24.4887 122.906 25.5751 119.395 24.3609 119.063C23.1466 118.731 21.9266 121.476 23.5059 123.82Z" fill="#F8F8F8"/>
<path d="M23.5588 123.756C22.977 125.027 19.8878 127.35 19.1696 126.309C18.4514 125.268 20.7554 123.106 23.5588 123.756Z" fill="#F8F8F8"/>
<path d="M12.5097 116.907C13.4964 115.989 14.5881 112.46 13.3676 112.126C12.1471 111.792 10.9232 114.543 12.5097 116.907Z" fill="#F8F8F8"/>
<path d="M16.1001 119.862C14.9657 118.853 10.9349 118.23 10.7241 119.768C10.5134 121.307 13.6984 122.233 16.1001 119.862Z" fill="#F8F8F8"/>
<path d="M19.6343 122.149C18.5015 121.14 14.5083 121.382 14.2935 122.913C14.0787 124.445 17.2318 124.526 19.6343 122.149Z" fill="#F8F8F8"/>
<path d="M12.5422 116.77C11.5997 116.171 8.23452 115.066 8.00339 116.172C7.72642 117.502 10.4411 118.85 12.5422 116.77Z" fill="#F8F8F8"/>
</g>
<g opacity="0.7">
<path d="M75.8427 139.398L76.2196 140.417C91.8097 134.661 107.776 116.015 108.051 93.6487L107.232 94.0585C106.964 115.933 91.0843 133.771 75.8427 139.398Z" fill="#F8F8F8"/>
<path d="M107.579 95.004C105.577 92.9227 103.655 85.2339 106.309 84.6649C108.963 84.0958 111.257 90.1399 107.579 95.004Z" fill="#F8F8F8"/>
<path d="M106.594 105.545C103.711 105.358 97.1123 100.967 98.6926 98.7596C100.273 96.5521 106.047 99.4751 106.594 105.545Z" fill="#F8F8F8"/>
<path d="M103.858 111.894C100.767 111.69 93.7322 107.004 95.4171 104.645C97.1021 102.286 103.265 105.41 103.858 111.894Z" fill="#F8F8F8"/>
<path d="M100.316 119.086C97.9808 118.933 92.636 115.377 93.9142 113.589C95.1925 111.8 99.8512 114.166 100.316 119.086Z" fill="#F8F8F8"/>
<path d="M100.172 119.056C102.361 120.134 109.109 119.866 108.927 117.672C108.745 115.478 103.25 115.075 100.172 119.056Z" fill="#F8F8F8"/>
<path d="M107.577 97.5993C105.23 97.4479 99.8591 93.8728 101.147 92.0762C102.434 90.2796 107.126 92.6575 107.577 97.5993Z" fill="#F8F8F8"/>
</g>
<g opacity="0.7">
<path d="M27.4723 97.1872C27.4723 97.1872 29.3902 92.4908 28.4349 87.4431C27.4797 82.3953 28.398 79.4843 28.398 79.4843C28.398 79.4843 24.1748 83.7884 24.5653 88.878C24.7655 91.8595 25.7701 94.7311 27.4723 97.1872Z" fill="#F8F8F8"/>
<path d="M25.3802 94.5767C25.3802 94.5767 24.3233 91.2943 18.8591 89.235C13.3948 87.1756 11.7147 87.4219 10.2597 85.3421C10.2597 85.3421 12.2789 91.3448 17.7554 93.4073C23.2318 95.4698 25.3802 94.5767 25.3802 94.5767Z" fill="#F8F8F8"/>
<path d="M19.2591 86.4366C19.2591 86.4366 17.9139 83.698 13.1726 81.2146C10.2464 79.6799 9.52288 78.0807 9.47805 77.5152C8.99835 78.6933 9.25782 82.7355 14.042 85.1291C16.9987 86.6098 19.2591 86.4366 19.2591 86.4366Z" fill="#F8F8F8"/>
<path d="M17.3044 83.1741C17.3044 83.1741 20.8755 77.7845 16.877 70.1258C16.877 70.1258 16.5713 73.5613 16.0924 74.7364C15.6135 75.9115 14.2194 79.9983 17.3044 83.1741Z" fill="#F8F8F8"/>
<path d="M14.6554 78.2579C14.6554 78.2579 14.2253 72.6075 8.22625 68.5127C8.22625 68.5127 9.0731 71.9261 9.78875 74.0803C11.2646 78.5177 14.6554 78.2579 14.6554 78.2579Z" fill="#F8F8F8"/>
<path d="M13.6614 72.6467C13.6614 72.6467 15.7069 69.6483 13.708 65.8174C12.8256 64.2883 12.3064 62.5769 12.1904 60.8153C12.1455 60.2498 8.83353 69.0331 13.6614 72.6467Z" fill="#F8F8F8"/>
<path d="M21.2229 74.9141C21.2229 74.9141 23.4816 82.1357 23.1759 85.5712C22.8702 89.0068 22.3882 90.181 22.3882 90.181C22.3882 90.181 19.345 87.57 19.4813 81.8718C19.6176 76.1735 21.2229 74.9141 21.2229 74.9141Z" fill="#F8F8F8"/>
<path d="M32.2513 107.628C32.2513 107.628 30.0375 100.972 25.2985 98.4924C20.5594 96.0129 16.6018 96.3107 16.6018 96.3107C16.6018 96.3107 20.9028 100.533 23.4224 103.754C24.8661 105.589 31.1636 108.276 32.2513 107.628Z" fill="#F8F8F8"/>
<path d="M32.2425 120.774C37.94 107.837 23.9653 91.6594 19.3672 86.3531C14.1592 80.3244 13.7208 71.6067 13.7132 71.5233L13.4263 71.5365C13.4301 71.6221 13.8728 80.4485 19.1481 86.5436C23.7168 91.8129 37.6015 107.885 31.9913 120.662L32.2425 120.774Z" fill="#F8F8F8"/>
</g>
</g>
<path fill-rule="evenodd" clip-rule="evenodd" d="M76.8624 136.884C75.7338 144.224 77.1187 149.678 83.4893 151.547C90.0308 153.462 93.7052 146.991 94.8337 139.648C95.9623 132.305 92.6739 125.958 87.5792 124.956C81.0701 123.677 77.9909 129.541 76.8624 136.884Z" fill="#464A66"/>
<path fill-rule="evenodd" clip-rule="evenodd" d="M80.7224 137.529C79.5939 144.869 81.8392 151.296 85.7317 151.882C89.6241 152.469 93.6875 146.991 94.8308 139.648C95.9741 132.305 93.717 125.879 89.8215 125.295C85.9261 124.712 81.8657 130.186 80.7224 137.529Z" fill="#5A5F7A"/>
<path fill-rule="evenodd" clip-rule="evenodd" d="M84.0346 138.027C83.4453 141.92 84.624 145.329 86.6866 145.642C88.7492 145.954 90.915 143.046 91.5161 139.159C92.1172 135.272 90.9268 131.854 88.8641 131.545C86.8015 131.236 84.6358 134.141 84.0346 138.027Z" fill="#9493A5"/>
<path fill-rule="evenodd" clip-rule="evenodd" d="M84.6827 138.124C84.3085 140.564 85.054 142.701 86.3475 142.892C87.6411 143.084 88.9995 141.268 89.3737 138.829C89.7479 136.389 89.0024 134.253 87.7088 134.058C86.4153 133.864 85.0569 135.682 84.6827 138.124Z" fill="#B6B3C6"/>
<path fill-rule="evenodd" clip-rule="evenodd" d="M86.8515 140.122C87.4997 140.237 88.1421 139.677 88.2835 138.876L90.5966 125.802C90.6267 125.697 90.6142 125.585 90.5617 125.489C90.5093 125.394 90.4212 125.323 90.3167 125.292L88.8434 124.208C88.7347 124.202 88.6282 124.239 88.5462 124.31C88.4643 124.382 88.4134 124.482 88.4043 124.591L85.9233 138.466C85.7789 139.268 86.1885 140.01 86.8397 140.122" fill="#DDDFED"/>
<path fill-rule="evenodd" clip-rule="evenodd" d="M52.1139 79.6138C52.3644 81.4849 40.4012 80.6245 41.3058 79.3899C42.2104 78.1552 39.9386 74.5456 37.4516 71.2778C35.9547 69.3095 58.0779 71.5725 58.0779 71.5725C58.0779 71.5725 51.5099 75.1055 52.1139 79.6138Z" fill="#E29F0A"/>
<path fill-rule="evenodd" clip-rule="evenodd" d="M25.7829 136.793C25.7829 136.793 18.8555 136.056 17.6709 134.061C17.3468 131.704 21.2393 123.085 26.4459 126.477C31.6526 129.868 25.7829 136.79 25.7829 136.79" fill="#E29F0A"/>
<path fill-rule="evenodd" clip-rule="evenodd" d="M52.0403 142.521L50.0248 128.283L40.5544 128.139L45.045 141.28L52.0403 142.521Z" fill="#E29F0A"/>
<path fill-rule="evenodd" clip-rule="evenodd" d="M62.8221 101.613C62.8221 101.613 68.6269 133.858 60.3853 133.858C50.6114 133.858 65.7628 139.518 65.7628 139.518L78.5364 136.466L83.4484 111.216L78.2564 101.227L62.8221 101.613Z" fill="#E29F0A"/>
<path fill-rule="evenodd" clip-rule="evenodd" d="M66.4019 80.9693C66.4019 80.9693 58.9617 78.7446 53.4368 79.2573C47.9119 79.77 59.5746 134.671 59.5746 134.671L64.6281 132.293C64.6281 132.293 63.6468 82.4956 66.4137 80.9693" fill="#E29F0A"/>
<path fill-rule="evenodd" clip-rule="evenodd" d="M66.4019 80.9693C66.4019 80.9693 58.9617 78.7446 53.4368 79.2573C50.67 79.5137 52.2022 93.3686 54.4298 107.156C55.5319 107.256 64.5721 108.122 64.4807 107.624C64.575 94.8537 65.0141 81.7472 66.4137 80.9693" fill="#1F609B"/>
<path fill-rule="evenodd" clip-rule="evenodd" d="M37.4369 79.3781C40.3099 77.84 50.1073 77.3715 55.9092 80.4831C60.2731 82.8404 59.2507 87.2397 59.0827 90.4603C58.8529 94.9244 57.9041 104.068 58.8234 116.217C59.3243 122.82 60.0963 134.044 64.8905 136.781C66.0691 137.45 72.201 135.809 72.5075 135.308C76.3675 128.825 76.9274 109.183 71.983 103.116L95.5381 102.447C95.5381 102.447 97.5359 105.081 98.9267 111.087C100.229 116.703 98.2903 125.914 96.8818 129.117C91.3068 128.958 82.1959 138.213 73.3708 141.021C62.6923 142.48 51.6543 138.142 51.6543 138.142C51.6543 138.142 52.2053 125.304 34.3253 119.372C29.543 117.784 24.6015 123.498 24.5337 123.592C25.123 101.492 32.2273 82.1892 37.4487 79.3929" fill="#FFDD47"/>
<path fill-rule="evenodd" clip-rule="evenodd" d="M53.8169 132.992C54.2854 135.349 53.9318 137.146 50.2397 137.043C33.8418 133.914 37.864 132.585 32.5807 130.393C28.6588 130.098 23.7114 122.242 25.4175 119.543C28.5527 113.945 42.1395 115.651 47.4198 119.926C50.8939 122.743 52.3406 125.587 53.8169 132.992Z" fill="#E29F0A"/>
<path fill-rule="evenodd" clip-rule="evenodd" d="M19.9073 144.813C19.7069 150.038 20.367 155.032 21.6281 158.515C23.4639 163.598 27.0116 167.084 35.7895 166.332C39.8264 164.411 46.0467 157.902 47.4109 146.782C48.7752 135.661 42.8967 127.655 35.3298 125.719C25.7003 123.253 20.3198 133.675 19.8985 144.813" fill="#464A66"/>
<path fill-rule="evenodd" clip-rule="evenodd" d="M27.6748 145.403C26.8144 156.529 29.7227 166.23 36.1964 166.324C41.7802 166.395 46.978 158.073 47.8384 146.941C48.6988 135.809 44.8918 126.456 39.3168 126.035C33.7418 125.613 28.5381 134.285 27.6748 145.418" fill="#5A5F7A"/>
<path fill-rule="evenodd" clip-rule="evenodd" d="M31.2134 146.057C30.6771 152.949 33.1021 158.757 36.6263 159.022C40.1504 159.287 43.4388 153.915 43.9722 147.02C44.5055 140.125 42.0834 134.32 38.5593 134.055C35.0351 133.79 31.7467 139.162 31.2134 146.057Z" fill="#9493A5"/>
<path fill-rule="evenodd" clip-rule="evenodd" d="M31.62 145.971C31.234 150.963 32.9872 155.165 35.536 155.356C38.0848 155.548 40.4686 151.655 40.8546 146.67C41.2406 141.684 39.4874 137.476 36.9386 137.285C34.3898 137.093 32.006 140.98 31.62 145.971Z" fill="#B6B3C6"/>
<path fill-rule="evenodd" clip-rule="evenodd" d="M84.9009 35.4975C84.9009 35.4975 86.3977 37.9962 90.7941 39.4754C95.1904 40.9546 97.533 41.2434 98.1871 44.19C98.3757 44.9296 101.723 45.8165 103.12 48.0206C104.835 50.7285 104.646 54.0847 102.027 54.6387C101.732 54.8243 105.3 59.1706 103.243 63.2428C101.187 67.315 95.9418 67.8689 95.9418 67.8689L75.1535 62.6034L68.0816 60.087C68.0816 60.087 59.5364 53.239 61.0098 47.3193C61.9939 43.3355 66.3578 44.4906 66.8558 41.2404C67.3184 38.2437 69.3192 36.7027 70.2798 35.7598C73.3089 33.8445 84.9097 35.4975 84.9097 35.4975" fill="#2D2DA0"/>
<path fill-rule="evenodd" clip-rule="evenodd" d="M59.2417 54.1227C57.8097 56.0911 54.2325 61.9018 52.715 62.2583C51.1975 62.6149 35.1915 65.2992 35.1915 65.2992L35.2799 69.0532C42.3518 71.2013 56.0241 69.2329 58.3489 68.5169C60.6738 67.8009 66.2164 58.8609 66.2164 58.8609C65.3377 57.7175 64.2812 56.7226 63.0871 55.9143C61.9092 55.1155 60.611 54.5107 59.2417 54.1227Z" fill="#E1BEE1"/>
<path fill-rule="evenodd" clip-rule="evenodd" d="M65.4001 60.3285C63.3669 59.7392 59 55.7406 58.7378 54.8861L59.0324 54.3321L65.7566 59.4091L65.4001 60.3285Z" fill="#BD76C5"/>
<path fill-rule="evenodd" clip-rule="evenodd" d="M67.4452 44.6346C65.4562 45.0236 60.7446 51.3293 58.8588 54.2288C60.1641 56.3828 67.0238 59.4767 67.0238 59.4767C67.0238 59.4767 74.0102 51.2586 73.8187 48.9278C73.4622 44.5462 69.4341 44.2457 67.4452 44.6346Z" fill="#FF5F2E"/>
<path fill-rule="evenodd" clip-rule="evenodd" d="M52.0402 142.521C49.5032 141.61 50.6936 137.305 47.7794 135.234C41.6917 130.914 24.2242 138.626 21.478 138.799C18.7318 138.973 16.289 138.552 15.791 136.875C15.3137 135.275 18.8614 122.732 26.829 118.933C34.1514 117.003 42.0984 118.114 47.3993 122.511C52.1139 126.409 53.5312 143.054 52.0402 142.521Z" fill="#FFE448"/>
<path fill-rule="evenodd" clip-rule="evenodd" d="M15.791 136.878C15.3136 135.278 18.8613 122.734 26.829 118.936C32.846 117.348 39.2813 117.819 44.3289 120.474C43.0118 120.315 37.1922 118.011 30.8157 124.119C25.1789 129.517 21.4779 138.802 21.4779 138.802C18.7346 138.976 16.289 138.555 15.791 136.878Z" fill="#F2D230"/>
<path fill-rule="evenodd" clip-rule="evenodd" d="M66.5669 94.4352C73.1761 94.4352 95.5468 91.468 98.349 93.8812C100.093 95.1129 98.5317 102.105 95.8385 103.251C94.3652 103.876 81.241 104.725 72.7636 105.149C70.701 105.252 64.0181 105.12 63.1606 104.233C61.2247 101.239 58.9263 94.8418 66.5669 94.4352Z" fill="#464A66"/>
<path fill-rule="evenodd" clip-rule="evenodd" d="M81.7627 44.4727C82.0986 45.1357 87.0666 45.0326 91.3863 46.7946C95.706 48.5567 98.9944 54.9774 101.455 63.7111C102.463 67.141 101.567 70.2349 100.447 70.4559C99.3274 70.6769 86.6717 71.0717 80.198 66.7726L73.3914 65.1667L74.3903 62.3262C74.3903 62.3262 81.4621 64.0234 86.604 63.3605C90.632 62.5855 92.45 63.5107 92.45 63.5107L87.8062 55.9704L68.226 56.1943L66.3136 48.4536L68.226 44.6937L72.4396 44.3106C72.4396 44.3106 73.5534 39.6167 74.0219 37.2123C74.1339 36.9913 83.289 38.3909 83.289 38.3909C83.289 38.3909 81.2058 43.0348 81.7627 44.4727Z" fill="#E1BEE1"/>
<path fill-rule="evenodd" clip-rule="evenodd" d="M72.9259 42.2272C72.9259 42.2272 76.5473 46.3524 82.355 40.9572C82.084 40.5564 73.4091 40.0732 73.4091 40.0732L72.9259 42.2272Z" fill="#BD76C5"/>
<path fill-rule="evenodd" clip-rule="evenodd" d="M84.1202 39.758C84.1202 39.758 80.4399 42.8313 76.4443 42.1329C75.1507 41.909 71.1787 40.2736 71.494 35.341L82.915 38.2493L84.1202 39.758Z" fill="#2C2435"/>
<path fill-rule="evenodd" clip-rule="evenodd" d="M85.6672 27.0938C85.6672 27.0938 84.1585 36.8353 82.75 38.7624C81.3416 40.6895 77.7555 41.768 76.6417 41.6589C75.0299 41.4998 73.3179 39.3429 72.5341 37.3363C71.7503 35.3296 74.7294 25.5498 74.7294 25.5498L85.6672 27.0938Z" fill="#E1BEE1"/>
<path fill-rule="evenodd" clip-rule="evenodd" d="M71.6353 44.3989C71.6353 44.3989 68.4736 50.3982 68.7122 51.0582C69.3251 52.7437 70.5421 54.1551 73.4474 54.3673C76.4736 54.5912 81.253 52.4608 81.253 52.4608L79.0224 55.3455L69.6168 55.6873L66.8706 52.673L66.956 49.4494L69.0599 45.6718L70.6482 44.1425L71.6353 44.3989Z" fill="#EAA471"/>
<path fill-rule="evenodd" clip-rule="evenodd" d="M99.4717 57.6763C99.4717 57.6763 94.436 57.5025 90.7675 60.7762L90.5141 60.3754L93.1807 57.364L98.8972 56.1058L99.4717 57.6763Z" fill="#BD76C5"/>
<path fill-rule="evenodd" clip-rule="evenodd" d="M81.4709 51.9334C79.9269 54.2082 74.1044 55.3721 71.0281 54.4646C68.8918 53.6572 68.1463 51.4266 68.0815 51.0465C68.0167 50.6664 70.0145 46.3643 71.1136 44.2133C71.1136 44.1485 68.9832 44.508 68.2937 44.508C68.0373 44.508 66.0307 49.5172 64.7577 51.6122C63.4848 53.7073 62.0675 55.4752 62.4535 57.7559C62.8395 60.0366 65.7832 65.921 67.1916 69.784C68.6001 73.647 68.6325 77.6986 67.9931 79.0275C67.8635 79.219 87.9328 81.2492 87.9328 81.2492L92.2349 79.9174C92.2349 79.9174 86.7718 73.7472 85.9556 71.0009C85.2043 68.4668 86.1855 61.8399 88.805 57.9592L90.5435 60.4874C90.5435 60.4874 91.7899 58.8668 94.4566 57.694C96.2638 56.9144 98.286 56.7884 100.176 57.3375C100.176 57.3375 97.1144 50.799 94.3505 47.873C93.0658 46.3997 85.7788 45.221 85.7788 45.221C85.7788 45.221 83.0061 49.1577 81.4709 51.9334Z" fill="#FF5F2E"/>
<path fill-rule="evenodd" clip-rule="evenodd" d="M71.6675 44.1044C71.6675 44.1044 71.8856 52.7851 73.2322 55.8083C76.9626 64.2003 83.1505 75.1027 83.1505 75.1027L81.356 75.2294C81.356 75.2294 73.3854 60.9177 71.5349 56.4801C69.6845 52.0425 70.2178 45.2978 70.3563 43.8097C70.4653 43.8097 71.6587 44.1044 71.6587 44.1044" fill="#1E5B84"/>
<path fill-rule="evenodd" clip-rule="evenodd" d="M100.93 64.6038C101.885 67.8451 101.131 69.8459 100.07 70.0551C99.0091 70.2643 86.0824 71.5932 79.1254 67.2293L74.2959 65.9858L71.6293 63.6786C71.6293 63.6786 74.7733 62.9655 76.7947 63.1688C79.0606 63.3987 83.4599 63.1394 86.3269 62.6178C90.1575 61.8841 91.7988 61.9814 91.7988 61.9814C91.7988 61.9814 98.5937 56.315 100.933 64.6038" fill="#E1BEE1"/>
<path fill-rule="evenodd" clip-rule="evenodd" d="M34.0483 64.7304L26.508 65.4199C25.6741 65.4965 25.07 66.3039 25.1555 67.2379C25.1739 67.6626 25.359 68.0629 25.6707 68.352C25.9824 68.641 26.3954 68.7955 26.8203 68.782L34.3607 68.0924C34.7015 68.0414 35.0086 67.8582 35.2153 67.5824C35.4221 67.3067 35.5121 66.9607 35.4657 66.6191L35.4097 66.0062C35.3981 65.6566 35.2483 65.3258 34.993 65.0866C34.7378 64.8474 34.398 64.7192 34.0483 64.7304Z" fill="#595E70"/>
<path fill-rule="evenodd" clip-rule="evenodd" d="M29.4043 63.9763C28.4908 64.0647 26.6315 65.482 26.4577 66.3336C26.3634 66.8168 26.3929 68.4522 26.9586 69.236C27.3151 69.7281 28.0606 69.6956 28.4319 69.4805C29.5192 70.0699 30.0025 69.6485 30.3413 69.4805C30.6037 69.6602 30.9123 69.7602 31.2301 69.7685C31.5479 69.7769 31.8614 69.6933 32.1328 69.5277C32.3751 69.694 32.6573 69.7928 32.9504 69.8141C33.2435 69.8353 33.5369 69.7781 33.8006 69.6485C33.4618 69.1918 33.3144 68.2135 33.4117 67.2087C33.4765 66.5605 34.1837 66.4072 34.6551 66.4455C36.5056 66.6017 36.9388 71.0363 39.0603 68.1546C40.0681 66.7873 37.2099 63.1954 29.4013 63.9674" fill="#E1BEE1"/>
<path fill-rule="evenodd" clip-rule="evenodd" d="M30.3649 69.5393C29.9318 69.0561 28.7384 67.7449 29.6401 65.7088C27.9487 67.5003 29.5458 69.6425 30.3649 69.5393Z" fill="#BD76C5"/>
<path fill-rule="evenodd" clip-rule="evenodd" d="M32.2036 69.6189C32.2036 69.6189 30.7156 67.5297 31.3403 66.1095C29.8316 68.1456 32.2036 69.6189 32.2036 69.6189Z" fill="#BD76C5"/>
<path fill-rule="evenodd" clip-rule="evenodd" d="M28.544 69.5452C28.544 69.5452 27.1267 67.6741 28.1756 65.9651C26.222 67.6388 28.544 69.5452 28.544 69.5452Z" fill="#BD76C5"/>
<path fill-rule="evenodd" clip-rule="evenodd" d="M69.2602 64.3798C69.1099 63.2571 68.1287 63.372 67.009 63.3308C64.5515 63.2335 60.5264 61.4184 58.6671 60.1867C55.9975 58.4188 53.6579 57.5672 50.9146 57.4435C48.1713 57.3197 44.158 57.5377 42.7731 57.8589C39.7852 58.5514 37.5605 61.5717 36.5852 62.5028C35.6099 63.4339 32.9403 63.8671 32.1977 64.0998C31.0368 64.3945 30.5624 66.7223 31.7292 68.7997C32.3185 69.7426 33.7624 69.2711 35.7248 70.5293C37.3955 71.6019 40.3834 75.4855 44.5087 75.7537C49.4265 76.0749 53.1363 74.0682 57.3794 71.8966C59.7161 70.7002 63.6646 70.0314 66.5434 70.161C67.4893 70.2052 68.4646 69.9253 68.827 69.0384C69.2307 68.0601 69.5489 66.5485 69.2602 64.3798Z" fill="#FFDD47"/>
<path fill-rule="evenodd" clip-rule="evenodd" d="M68.0815 68.6407L77.4428 69.0651C78.4771 69.1122 79.3581 68.2164 79.4112 67.0643C79.4642 65.9122 78.6716 64.9398 77.6432 64.8927L68.2818 64.4684C67.4362 64.43 66.7172 65.1608 66.673 66.1037L66.6376 66.8639C66.5905 67.8069 67.2417 68.6024 68.0874 68.6319" fill="#595E70"/>
<path fill-rule="evenodd" clip-rule="evenodd" d="M55.2493 62.4646C55.2493 62.4646 56.313 62.9567 56.3483 64.6156C56.422 67.9747 50.8529 72.0705 45.2131 72.1913C41.8864 72.265 35.7398 66.4042 37.8466 63.6167C39.5527 61.3478 52.8743 61.0414 55.261 62.4646" fill="white"/>
<path fill-rule="evenodd" clip-rule="evenodd" d="M71.028 103.564C70.9647 106.136 70.6877 108.698 70.2 111.225C68.2965 121.143 71.0044 133.619 71.0044 133.619C71.0044 133.619 67.8192 135.41 65.9952 134.936C64.3186 132.284 61.87 116.272 60.6353 102.786C59.9606 95.3896 71.1459 98.0387 71.0162 103.552" fill="#E1BEE1"/>
<path fill-rule="evenodd" clip-rule="evenodd" d="M93.0513 92.4285C93.0513 92.4285 91.3187 96.5331 79.5529 95.3368C71.4202 94.824 70.2092 94.6531 70.2092 94.6531C70.2092 94.6531 71.8711 99.63 70.7396 107.727L71.4291 107.928C71.3495 108.352 71.0667 110.55 70.9429 111.192C69.9941 111.349 64.8434 111.26 60.8802 111.349C60.7417 110.877 60.3204 108.909 60.1642 108.322L60.7535 107.972C59.4865 98.1891 59.5218 89.2844 60.067 85.666C61.278 77.6276 69.4401 75.4059 86.6778 79.6166C88.9172 80.0173 91.0977 79.7463 91.8285 79.4486C93.0071 80.8394 93.8557 83.4708 94.0414 84.947C94.371 87.4845 94.0296 90.0641 93.0513 92.4285Z" fill="#2982CC"/>
<path fill-rule="evenodd" clip-rule="evenodd" d="M70.7334 107.724L71.4258 107.925C71.3433 108.349 71.0634 110.547 70.9396 111.19C69.9908 111.346 64.8402 111.257 60.877 111.346C60.7385 110.874 60.3171 108.906 60.158 108.32L60.7473 107.969L70.7658 107.512C70.7658 107.583 70.7511 107.654 70.7422 107.724" fill="#A7D0EA"/>
<path fill-rule="evenodd" clip-rule="evenodd" d="M72.1628 63.5223C71.2494 63.6137 69.3901 65.028 69.2162 65.8796C69.1249 66.3658 69.1514 68.0012 69.7201 68.782C70.0766 69.277 70.8221 69.2417 71.1934 69.0266C72.2807 69.6159 72.7639 69.1945 73.1028 69.0266C73.3641 69.2071 73.6722 69.3079 73.9897 69.3168C74.3071 69.3257 74.6204 69.2423 74.8914 69.0767C75.134 69.2422 75.4163 69.3404 75.7093 69.3611C76.0024 69.3818 76.2956 69.3243 76.5592 69.1945C76.2233 68.7408 76.0759 67.7625 76.1732 66.7577C76.238 66.1094 76.9452 65.9533 77.4166 65.9916C79.2641 66.1477 79.7002 70.5853 81.8218 67.7036C82.8266 66.3363 79.9713 62.7415 72.1628 63.5135" fill="#E1BEE1"/>
<path fill-rule="evenodd" clip-rule="evenodd" d="M73.132 69.0888C72.6989 68.6026 71.5025 67.2943 72.4042 65.2582C70.7158 67.0468 72.3099 69.1919 73.132 69.0888Z" fill="#BD76C5"/>
<path fill-rule="evenodd" clip-rule="evenodd" d="M74.9618 69.1652C74.9618 69.1652 73.4885 67.076 74.0984 65.6558C72.5898 67.6948 74.9618 69.1652 74.9618 69.1652Z" fill="#BD76C5"/>
<path fill-rule="evenodd" clip-rule="evenodd" d="M71.2994 69.0915C71.2994 69.0915 69.885 67.2204 70.934 65.5114C68.9804 67.188 71.2994 69.0915 71.2994 69.0915Z" fill="#BD76C5"/>
<path fill-rule="evenodd" clip-rule="evenodd" d="M72.1628 63.5223C71.2494 63.6137 69.3901 65.028 69.2162 65.8796C69.1249 66.3658 69.1514 68.0012 69.7201 68.782C70.0766 69.277 70.8221 69.2417 71.1934 69.0266C72.2807 69.6159 72.7639 69.1945 73.1028 69.0266C73.3641 69.2071 73.6722 69.3079 73.9897 69.3168C74.3071 69.3257 74.6204 69.2423 74.8914 69.0767C75.134 69.2422 75.4163 69.3404 75.7093 69.3611C76.0024 69.3818 76.2956 69.3243 76.5592 69.1945C76.2233 68.7408 76.0759 67.7625 76.1732 66.7577C76.238 66.1094 76.9452 65.9533 77.4166 65.9916C79.2641 66.1477 79.7002 70.5853 81.8218 67.7036C82.8266 66.3363 79.9713 62.7415 72.1628 63.5135" fill="#E1BEE1"/>
<path fill-rule="evenodd" clip-rule="evenodd" d="M73.132 69.0888C72.6989 68.6026 71.5025 67.2943 72.4042 65.2582C70.7158 67.0468 72.3099 69.1919 73.132 69.0888Z" fill="#BD76C5"/>
<path fill-rule="evenodd" clip-rule="evenodd" d="M74.9618 69.1652C74.9618 69.1652 73.4885 67.076 74.0984 65.6558C72.5898 67.6948 74.9618 69.1652 74.9618 69.1652Z" fill="#BD76C5"/>
<path fill-rule="evenodd" clip-rule="evenodd" d="M71.2994 69.0915C71.2994 69.0915 69.885 67.2204 70.934 65.5114C68.9804 67.188 71.2994 69.0915 71.2994 69.0915Z" fill="#BD76C5"/>
<path fill-rule="evenodd" clip-rule="evenodd" d="M73.2382 29.9608C73.7439 29.6889 74.3209 29.5788 74.8912 29.6456C74.8912 29.5572 76.1199 27.1645 77.1896 27.0879C77.143 28.0823 77.3318 29.0737 77.7406 29.9815C77.9645 30.0375 79.9388 30.3969 79.9388 30.3969C79.6205 29.3303 80.2511 27.2676 80.2511 27.2676C80.2511 27.2676 80.8404 29.7163 81.0555 30.4117C81.2529 30.4912 81.7156 31.0305 82.2342 31.4784L82.6054 28.5818C82.6054 28.5818 82.7145 31.3192 82.7145 31.6375C82.7145 31.5933 84.7182 33.261 84.7182 33.261L85.5874 29.8666L81.9984 25.8209L79.4349 24.1884L75.899 23.7789L75.5041 23.5873L72.9553 26.6754L73.2382 29.9608Z" fill="#2D2DA0"/>
<path fill-rule="evenodd" clip-rule="evenodd" d="M82.3165 39.2749C82.3165 39.2749 81.9894 38.5825 83.2005 34.967C83.4982 34.0612 83.7364 33.137 83.9136 32.2001C84.0246 31.6447 83.9931 31.0701 83.8221 30.5301C83.651 29.9901 83.3459 29.5023 82.9353 29.1121C82.19 28.4408 81.3143 27.9302 80.3629 27.6123C79.3281 27.224 78.226 27.0466 77.1216 27.0907C76.2848 27.1252 75.4809 27.4263 74.8272 27.95C74.1736 28.4738 73.7045 29.1927 73.4885 30.002C72.9465 32.1394 72.5137 34.303 72.192 36.4845C71.0929 35.5268 71.6586 29.7456 71.6586 29.7456L73.6888 24.6303L80.7519 23.9025L85.7611 28.4697L86.8572 31.9585L84.9419 39.4252C84.9419 39.4252 83.0797 40.5655 82.29 39.2749" fill="#2C2435"/>
<path fill-rule="evenodd" clip-rule="evenodd" d="M83.9373 39.9791C82.5818 39.269 85.7347 32.9632 85.8555 30.9861C85.9822 28.9234 84.615 27.3205 81.8304 26.024C78.1442 24.3061 74.7291 24.9691 73.1497 26.9551C72.1832 28.1661 71.6764 33.143 71.8738 36.3577C71.2168 37.2417 70.0234 34.6929 70.4005 30.9743C70.7777 27.2556 71.9976 22.4291 77.8024 20.5256C83.6072 18.6221 90.2636 22.7562 90.7115 28.5492C91.2743 35.8244 85.9321 41.0281 83.9343 39.9791" fill="#FFCD3A"/>
<path fill-rule="evenodd" clip-rule="evenodd" d="M70.2886 125.463L71.5114 134.194C71.5114 134.194 62.3445 131.99 61.1983 131.769L63.7176 127.54C63.7176 127.54 63.7412 127.287 63.4053 126.067C63.2992 125.684 62.9604 125.003 63.0812 124.759C63.202 124.514 64.4219 124.19 66.0867 124.078C67.1033 124.013 68.1729 125.628 68.1729 125.628L70.2886 125.463Z" fill="#794DA3"/>
<path fill-rule="evenodd" clip-rule="evenodd" d="M61.2511 131.686C63.0191 131.981 65.1348 132.544 65.1348 132.544L68.1786 125.622C68.1786 125.622 69.6313 125.493 70.2884 125.463C70.7333 126.757 71.8619 133.387 71.8619 133.387C71.8619 133.387 60.8651 135.119 60.541 134.96C60.0666 134.724 58.8526 133.192 59.3093 132.588C60.2729 131.336 61.2511 131.704 61.2511 131.704" fill="#794DA3"/>
<path fill-rule="evenodd" clip-rule="evenodd" d="M71.8945 132.411C71.8945 132.411 67.731 133.625 64.8227 133.469C61.9144 133.313 59.6308 133.374 59.2713 133.265C59.0856 133.424 59.2713 135.033 59.7899 135.243C61.6739 135.47 63.5703 135.581 65.468 135.573C67.7817 135.542 70.0595 134.996 72.1362 133.976L71.8945 132.411Z" fill="white"/>
<path fill-rule="evenodd" clip-rule="evenodd" d="M89.4886 28.6555C89.4886 28.6555 89.3678 24.5007 84.8802 22.3615C84.5855 22.3615 83.6013 22.9331 83.6013 22.9331C83.6013 22.9331 87.8238 25.0959 88.1008 29.2153L89.4886 28.6555Z" fill="white"/>
<path d="M91.1153 79.8406C92.2262 83.2586 91.9227 89.3699 89.642 90.6252C86.3477 91.7714 78.9517 92.5375 71.98 91.4031C71.5263 91.1084 70.7395 90.1507 70.5067 89.9091C70.3913 90.4759 70.3252 91.0517 70.3093 91.6299C69.9646 91.4207 68.9598 90.855 68.5178 90.6281C68.4972 90.9228 68.5826 91.9217 68.6268 92.4903C69.0457 97.4514 69.1097 102.436 68.8183 107.406" stroke="#2F64A3" stroke-width="0.130412"/>
<path opacity="0.26" fill-rule="evenodd" clip-rule="evenodd" d="M80.6458 78.3085C80.6458 78.3085 80.5161 84.3166 83.0532 89.5056C83.8753 91.197 85.9998 92.8854 88.9258 93.2036C91.0945 93.4393 95.5497 91.5624 97.5122 86.4795C98.7291 83.3236 83.1386 78.9126 83.1386 78.9126L80.6458 78.3085Z" fill="#231F20"/>
<path fill-rule="evenodd" clip-rule="evenodd" d="M81.3414 75.2325C81.3414 75.2325 80.7521 82.6992 83.7517 88.8134C84.5797 90.5019 86.713 92.1962 89.6272 92.5114C91.7959 92.7472 98.8884 90.328 100.848 85.2422C102.068 82.0893 83.7281 75.094 83.7281 75.094L81.3414 75.2325Z" fill="#257E99"/>
<path fill-rule="evenodd" clip-rule="evenodd" d="M92.7212 73.0574C92.7212 73.0574 98.9091 80.3326 99.9493 82.021C100.989 83.7094 101.788 85.5274 99.2922 87.0862C96.7964 88.6449 91.7989 92.6847 87.2111 89.0339C82.6232 85.3831 82.8737 75.1347 82.8737 75.1347C82.8737 75.1347 89.972 74.7458 92.733 73.0574" fill="#66D3C8"/>
<path fill-rule="evenodd" clip-rule="evenodd" d="M92.7182 73.0574C92.7182 73.0574 97.2795 78.7679 95.5852 81.6026C93.667 84.8202 87.2139 84.8055 83.1506 75.0964L82.8559 75.1259C82.8559 75.1259 86.8544 87.4191 94.7867 83.5296C99.846 80.0703 92.7241 73.0574 92.7241 73.0574" fill="#257E99"/>
<path fill-rule="evenodd" clip-rule="evenodd" d="M92.7181 73.0577L90.2872 70.2703L88.8581 70.1553L91.0651 73.7502C91.6533 73.6092 92.2153 73.3755 92.7299 73.0577" fill="#1E5B84"/>
<path fill-rule="evenodd" clip-rule="evenodd" d="M24.3862 51.5976C23.8735 53.4628 25.2879 55.4665 27.545 56.0706C29.8021 56.6746 32.0474 55.6551 32.5542 53.7899C33.0611 51.9247 31.6496 49.9239 29.3925 49.3169C27.1354 48.7099 24.8931 49.7324 24.3833 51.5976" fill="#FFDD47"/>
<path fill-rule="evenodd" clip-rule="evenodd" d="M38.2177 62.83C38.2177 62.83 35.9636 57.4878 35.0796 55.8672C34.1956 54.2465 31.2254 52.729 31.2254 52.729L30.9308 54.0756C30.9308 54.0756 33.2674 55.2042 34.0247 56.5095C34.6877 57.6528 37.1275 63.9026 37.1275 63.9026L38.2177 62.83Z" fill="#FFDD47"/>
<path fill-rule="evenodd" clip-rule="evenodd" d="M34.7849 108.538C29.8346 107.833 29.7757 101.793 32.2449 98.5191C34.6022 95.3751 38.7275 93.2388 42.6288 95.1305C46.6627 96.7983 48.7165 102.353 47.2785 106.257C45.4487 111.228 38.7481 109.103 34.7849 108.538Z" fill="#FF4C5A"/>
<path d="M41.4989 101.039C42.149 100.275 42.2225 99.2462 41.2782 98.1905C39.7585 96.4942 37.2402 96.8354 35.9441 98.5374C35.3645 99.2979 36.6332 100.065 37.2045 99.3138C37.4923 98.9377 37.838 98.7107 38.2068 98.6122C38.2041 98.6178 38.2055 98.6219 38.2 98.6261C37.6206 100.624 37.0426 102.62 36.4617 104.614C36.2674 104.553 36.0801 104.492 35.8996 104.431C34.9931 104.121 34.585 105.545 35.4859 105.852C37.9097 106.682 41.9015 107.456 43.5523 104.91C44.8256 102.952 43.2605 101.644 41.4989 101.039ZM39.1291 100.74L39.6223 99.037C39.6439 98.9649 39.6516 98.8859 39.6509 98.8098C39.7177 98.8425 39.7858 98.8793 39.8526 98.9189C41.085 99.6609 40.3641 100.4 39.2865 100.679C39.2312 100.693 39.1788 100.716 39.1291 100.74ZM41.4063 104.893C40.3684 105.294 39.0984 105.227 37.8989 104.987C38.2102 103.909 38.5214 102.831 38.834 101.757C38.9522 101.994 39.1943 102.14 39.4559 102.141C40.2867 102.162 41.0868 102.316 41.8236 102.705C42.9275 103.287 42.3821 104.513 41.4063 104.893Z" fill="#F7EBE2"/>
<path fill-rule="evenodd" clip-rule="evenodd" d="M76.8329 31.5958C76.8034 34.2714 74.1014 35.232 74.6465 35.8154C74.8115 35.9951 75.8251 36.11 76.7445 35.5207C78.1029 34.6367 77.9555 31.4927 77.9555 31.4927L76.8329 31.5958Z" fill="#BD76C5"/>
<path fill-rule="evenodd" clip-rule="evenodd" d="M91.3187 61.5924C91.3187 61.5924 95.4439 60.7085 98.1401 63.3604C98.0016 62.7092 95.5736 59.6182 90.9533 61.0031C91.0181 61.1033 91.3187 61.5924 91.3187 61.5924Z" fill="#BD76C5"/>
<path fill-rule="evenodd" clip-rule="evenodd" d="M69.888 111.681L61.5108 112.106L61.3753 110.948L70.0236 110.856L69.888 111.681Z" fill="#EAA471"/>
<path opacity="0.26" fill-rule="evenodd" clip-rule="evenodd" d="M77.7405 57.8149C77.2278 59.9718 74.6966 61.2271 72.0859 60.6201C69.4752 60.0131 67.778 57.7736 68.2937 55.6108C68.8093 53.448 71.3228 52.2045 73.9452 52.8115C76.5677 53.4185 78.2532 55.6609 77.7405 57.8208" fill="#231F20"/>
<path fill-rule="evenodd" clip-rule="evenodd" d="M31.526 52.6673C31.526 52.6673 30.9072 51.5122 30.1146 51.804C29.3219 52.0957 29.0243 53.239 29.6372 53.7723C30.0011 54.0905 30.4711 54.2608 30.9544 54.2496C30.9544 54.2496 30.2472 54.8213 29.2895 54.0021C28.3319 53.183 28.8652 51.966 29.4103 51.5947C29.9555 51.2235 31.0958 51.4651 31.526 52.6673Z" fill="#E29F0A"/>
<path fill-rule="evenodd" clip-rule="evenodd" d="M76.7801 57.4582C76.3293 59.3411 74.1282 60.4343 71.8475 59.9069C69.5668 59.3794 68.0876 57.4229 68.5355 55.54C68.9834 53.6571 71.1874 52.5639 73.4681 53.0943C75.7488 53.6247 77.228 55.5783 76.7801 57.4582Z" fill="#FFDD47"/>
<path fill-rule="evenodd" clip-rule="evenodd" d="M60.3614 63.1424C60.3614 63.1424 63.308 58.6547 64.6104 57.1873C65.8333 55.8024 69.0627 54.7888 69.0627 54.7888L68.9331 56.4153C68.9331 56.4153 66.4373 57.1932 65.5209 58.0565C64.3806 59.1232 61.4458 64.2444 61.4458 64.2444L60.3614 63.1424Z" fill="#FFDD47"/>
<path fill-rule="evenodd" clip-rule="evenodd" d="M69.6404 55.3014C69.6404 55.3014 70.7395 54.5794 71.2964 55.2041C71.8533 55.8288 71.5645 56.9721 70.766 57.1636C70.2952 57.2718 69.8009 57.1993 69.3811 56.9603C69.3811 56.9603 69.7258 57.7971 70.9634 57.529C72.201 57.2609 72.3189 55.9378 72.0154 55.3544C71.7119 54.771 70.598 54.4468 69.6404 55.3014Z" fill="#E29F0A"/>
<path fill-rule="evenodd" clip-rule="evenodd" d="M60.547 129.182C60.547 129.182 61.3779 133.278 63.7175 135.8C61.2895 135.664 54.9307 135.243 54.9307 135.243L58.9971 128.914L60.547 129.182Z" fill="#FFDD47"/>
<path fill-rule="evenodd" clip-rule="evenodd" d="M99.9813 56.96C99.9409 57.108 99.8708 57.2462 99.7751 57.3662C99.6795 57.4861 99.5604 57.5853 99.4251 57.6576L99.0807 56.7452C99.3853 56.797 99.6861 56.8688 99.9813 56.96Z" fill="#9B93B5"/>
</svg>
