<svg xmlns="http://www.w3.org/2000/svg" width="360" height="122" viewBox="0 0 360 122">
    <g fill="none" fill-rule="evenodd">
        <path fill="#DFE7EA" d="M360 120.496H0V11.9C0 5.329 5.373 0 12 0h336c6.627 0 12 5.329 12 11.9v108.596z"/>
        <path fill="#A9E3F7" d="M345.067 67.341s-1.037-7.187 3.105-9.241h-9.317l-1.03 9.182.076.06h7.166zM324.359 31.402h12.424l-8.282-3.081 3.106-4.107-8.284 1.027 3.106 1.027zM328.5 91.985l4.142 2.054 4.142-1.027-3.107-4.107zM247.74 103.28l2.07-4.107-3.105-1.027-2.071 3.08z"/>
        <path fill="#C3EDAB" d="M308.384 65.903l2.514 3.491 3.107-7.187-2.666-1.852-2.94 5.543zM292.266 73.087l8.806-.874 8.37 1.039h.106l-6.662-5.286-9.599 3.602zM309.654 40.512l3.589 9.788-.695 6.904 2.493 1.922s-2.03-11.084 1.962-11.286l-2.047-5.074-5.302-2.254zM262.235 10.865l-2.07 5.134h-10.354l1.034 4.107-7.246 2.054v4.107l.214-.041.97-2.89 3.328-1.1 7.172-2.034 6.095-5.037 3.185-4.212 6.338-1.047 1.563-.69-.91-4.512s-.796-.225-1.89-.525l-1.177.683-4.848-.942-1.74-.493c-1.892 1.434-4.84 4.357-4.84 4.357l5.176 3.08z"/>
        <path fill="#C3EDAB" d="M244.634 35.51l2.871 1.423 2.015-3.42 4.756.419-4.466-2.53 2.072-5.134 4.618-4.008-1.13-1.12-6.984 1.978-2.867.948-.654 1.95 3.91-.775zM249.157 37.18l-.26.443 1.337.663zM309.931 26.297c-.696 5.38-.819 10.683-.84 12.3l6.411 2.725 3.68-10.947-9.251-4.078zM271.554 62.207l10.787.891-3.322-4.117-2.152-1.067-1.119-3.409v-1.748l-2.156-.917.033.099zM266.377 25.24l-3.106-5.133 1.644-2.174-3.397-1.685-5.347 4.377 1.031 1.025 2.963-2.57-1.71 3.813 2.67 2.647.075-.3zM274.416 38.382l13.995 3.964 2.991-2.967 16.137-1c.021-1.62.122-5.684.59-10.161l-5.522-1.826-4.119-7.147-8.983-1.981-3.063-1.008h-6.94l-3.865 1.916-3.412 3.385-.876-.435-.83 4.12 3.107 4.106h-6.214l-1.705 5.92.216-.044 8.493 3.158zM312.01 17.064a25.87 25.87 0 0 0-.995 3.213l2.99-2.224-1.995-.99zM308.81 92.989l-4.124-5.11.543-1.974-4.294 1.275-2.979-1.971-2.87 1.899-3.62-.052-1.71-.649-.454-.43-1.633 5.933.761 2.72v.002l7.973 3.514-1.034 4.107 8.609.948 2.34-3.968 2.387-5.916zM259.351 29.146l.816-3.25-2.116-2.098-2.028 4.523z"/>
        <path fill="#C3EDAB" d="M265.862 16.68l.515-.68 3.146 2.496 2.395 1.187 2.913-2.832 4.305-2.135 7.51.04 3.68-3.651 1.05-2.083-5.326-2.265-7.249 2.054-5.039.834-2.648 1.163-6.03.996-2.48 3.261zM293.297 9.838l-1.072-.456-1.187 2.324-3.362 3.335 2.243.741 9.576 2.107 4.165 7.228 4.647 1.536c.452-3.68 1.17-7.464 2.304-10.283l-9.03-4.478-8.284-2.054zM299.51 80.69l1.739-6.902-.195-.025-9.697.962-1.595 7.912.43.107-.426 1.543.838.792 1.283.489h2.728l3.34-2.21 3.236 2.138 4.519-1.34 2.083-7.574zM288.254 82.263l1.64-8.139-1.911-3.792-4.54-5.405-.896 2-1.999 5.15-.807 4.268-.745.493 2.912 3.851zM292.086 40.88l-3.22 3.195-6.588-1.865-5.599 8.328v3.893l.95 2.827 2.054 1.067 3.739 4.635.316-.087 5.595 6.69 1.471 2.921 1.468-2.182 9.205-3.454-1.968-1.56 6.213-3.08 1.658 2.3 2.677-5.042-6.406-4.447h-9.32l-6.211-3.08 4.142-2.054 7.247 1.027 6.213 1.027 5.378 4.148.56-5.59-3.836-10.592zM271.554 45.777l1.644 4.89 2.55 1.084v-1.493l5.59-8.316-7.41-2.098-8.133-3.023-.663.131-2.897 5.744zM256.975 35.716l-6.613-.582-.717 1.217 3.092 3.177 2.25 1.116zM75.757 58.804l1.144 3.403-3.635 5.408-.896 1.332 2.826 2.802 1.705-3.381 9.318 1.027-.86 5.117 3.32-.94 3.923-1.954 1.854-3.679-4.095-1.625 4.141-9.242h5.177l2.214-6.037-.517.129-5.447.004-6.117-2.021-3.823.946-8.965 4.94z"/>
        <path fill="#C3EDAB" d="M93.467 72.475l1.966-3.9-.205-.1-1.932 3.83-4.28 2.124-3.826 1.088-.006.038-3.133 3.109-.741 6.612.835 4.143 7.181-14.89zM109.064 12.058l-.452 1.296 1.56-.929zM106.927 28.321l4.142-3.08-4.959-4.098-.96 3.56 2.026 6.059.624 3.72h1.198zM68.353 96.946l-3.848-1.656 1.006 7.99 4.141 1.028 2.743-4.533-.487-.774zM73.366 72.112l-1.874-1.86-.803 1.196zM81.3 91.17l-.412-.136-1.148-5.69.553-4.937-2.357 2.336-4.141-1.027 2.07-4.106-5.176-1.028-1.037 5.134s.927 10.138-4.262 12.948l3.383 1.458 3.803 2.196.499.792 4.86-.964L81.3 91.17zM75.015 56.14l-.129.071.052.157z"/>
        <path fill="#C3EDAB" d="M85.513 48.624l4.36-1.08 6.309 2.084 5.096-.004 1.248-.314 1.295-3.533-5.177-2.053-4.142-4.107 11.39 1.027-4.142-4.108-6.212-5.134 7.247-3.08 2.071 6.16h1.37l-.572-3.407-2.125-6.323 1.542-5.712.82-4.067.646-.384 1.168-3.345.042-3.837-.022-1.656-12.187 1.007 1.035 6.16-5.177 2.055-7.247 16.429 7.247 2.054 1.036 3.08H84.15l-1.036 3.08-4.141 3.08-3.03 9.765.697 1.037zM110.981 11.718l-1.7-3.372-.057 2.791z"/>
        <path fill="#B4EF95" d="M172.85 62.071l-2.355-1.555c-.622-.37-1.185-.496-1.651-.364a1.336 1.336 0 0 0-.566.336l3.982 2.385.59-.802z"/>
        <path fill="#B4EF95" d="M167.456 59.995c.22-.254.584-.572 1.115-.727.73-.21 1.545-.055 2.422.467l2.406 1.59 1.77-2.406c-3.194-1.5-6.608-3.107-10.118-4.762l-3.406 2.356 5.81 3.482zM163.801 62.892c.236.155.591.386 1.01.655l2.095-2.802-2.65-1.588-3.516 1.938c.934.414 1.943.99 3.061 1.797M126.454 68.889l-2.362 1.273-.259 1.406 2.218.182c.66-.276 1.421-.596 2.262-.946l-1.859-1.915zM147.81 65.71l2.95-2.56a7.706 7.706 0 0 1 .015-.509 284.8 284.8 0 0 0-5.059 1.993c.551.283 1.267.649 2.094 1.076M137.812 74.699l-2.439 1.737 3.35 1.514-.082.059c.975.09 1.964.252 2.963.478l-3.792-3.788zM143.92 77.654l-4.263-4.26-1.076.76 4.272 4.27 1.068-.77zM133.908 78.03l-.467-.211-.438.313c.299-.04.602-.073.905-.103M166.768 50c.508-.671 1.348-2 2.193-3.385l-2.428-.603c-.33 1.606-.992 3.826-2.896 5.772l.57.269c.71-.425 1.936-1.227 2.561-2.052M169.462 45.786c.87-1.442 1.668-2.81 2.032-3.437a36.107 36.107 0 0 0-2.445-.479l-.04.03c-.236.244-1.577 1.676-2.202 3.228l2.655.658zM227.177 76.589a52.183 52.183 0 0 0 2.536-4.408l-3.701-2.084-2.987 4.867a50.694 50.694 0 0 1 4.152 1.625M222.12 74.658l3.082-5.019-3.327-1.874-4.526 5.55.418.151c1.475.337 2.927.732 4.354 1.192M234.072 52.799a13.795 13.795 0 0 0-1.183-3.553l-7.636 1.721c.244.213.484.418.721.617 2.427.395 5.59.862 8.098 1.215M175.985 53.813l-.531.856 10.901 4.864.812-1.007zM212.606 61.08l.262.105-4.841-5.376-1.597 1.187zM187.19 76.454c2.45-.764 4.89-1.496 7.275-2.133l-.007-.002-5.19-.752-2.077 2.887zM177.872 60.188l-1.743-.818-.112-.037-1.148 1.562c.591.333 1.877 1.067 2.617 1.558l.386-2.265zM198.753 59.683l2.859-2.026-7.38-2.885-.898 3.12zM133.113 50.126l-.08-.09 2.116-1.823-6.646-3.987-.765-.412-.16.098-2.103 2.574 7.326 3.632zM202.761 44.239c.146-.507.383-2.03.114-3.058l-7.881-4.466-1.885 2.493 9.652 5.03zM237.534 47.25c-1.315-2.635-2.77-4.405-3.464-5.163-1.392.267-3.18.625-5.07 1.024 1.327 1.122 2.539 2.369 3.55 3.762.305.42.576.862.83 1.315l4.154-.937zM160.86 23.187l.276 1.096.58 1.728h4.315l.948-2.824zM147.307 17.026l-.716-2.84a8.278 8.278 0 0 1-.953-.291c-.315-.112-.897-.313-1.085-.281a1.604 1.604 0 0 1-.408.537l1.396 3.751 1.766-.876zM140.697 34.482a13.017 13.017 0 0 0-.984-.527l-.136-.064-.87-.93c-.195.177-.574.411-1.147.318l-.607 1.203h3.744zM210.66 18.998l6.016-2.557a72.773 72.773 0 0 1-2.909-1.42l-.023-.006-3.084 3.983zM172.595 107.666l-.16-1.586-3.208.63.751 1.49zM192.272 88.626c.121.027.236.054.35.082l1.548-.385-1.898.303zM193.9 84.797l-4.142 1.027.639.95 1.048 1.046 4.055-.642zM159.732 86.85h1.286c.186-.989.373-2.034.545-3.08h-1.831v3.08zM147.307 92.983c.704-.022 1.41-.047 2.12-.08l.395-1.945h-2.515v2.025zM192.646 27.222l.35-.24-6.116-2.568-2.526-1.001-.808.802z"/>
        <path fill="#A9E3F7" d="M27.202 81.716v1.028l-3.106 1.026 3.106 1.027 2.071 8.215v3.08l1.036-1.026 1.034 2.053-1.034 3.08v4.108l1.034 1.027 2.071-4.108h1.036l-1.036-7.187-1.035 1.027-1.036-3.081H30.31l-2.071-7.188h3.105zM57.229 45.777l1.035 3.081-3.107 3.081h-6.212v-3.08l3.107-5.135V41.67l-3.107 5.134-1.035-1.027v2.054h-1.036L45.84 51.94l-4.141 1.026 3.105 1.027-1.034 1.027 2.07-1.027v3.08l2.07-2.053 3.106 3.08-2.07-4.107v-1.027l6.212 1.027-1.035 4.108h3.107l-1.036-1.027v-3.081h2.071l1.035-5.134.973-.965-.177-1.405zM85.184 97.119l2.071 3.08-1.036 2.054 3.107-1.026 1.034-1.027-2.07-4.108s-1.035 2.054-3.106 1.027M93.467 87.878l2.071-7.189-5.178 7.19zM106.927 82.744l-1.035-1.028v3.08l2.07 1.028 1.036-2.053s0-.982.186-1.837l-.94-2.131-.281-.14-1.036 3.08zM159.612 53.268l1.252-1.086c-1.368-.645-2.742-1.295-4.116-1.944l-1.157 1.7 4.021 1.33zM181.475 37.563l-1.036 2.054h2.072zM201.147 53.992l2.071 1.027h2.071l-1.035-2.054-1.036 1.027zM209.11 73.133c-.15-.01-.31-.01-.462-.016l.782 3.465 2.634-.062-.186-3.122-.227-.035a56.163 56.163 0 0 0-2.542-.23M239.69 84.45a59.884 59.884 0 0 1 2.28 2.008l1.075-2.15.544-1.244-2.06-1.347-1.84 2.734zM142.6 93.967c-7.938-.024-14.361-.638-14.762-.678l-.007.308-1.776-.045-.44.698 16.77.78.215-1.063zM166.487 14.687l.143-2.321c-.502-.045-.999-.1-1.485-.158l-.236-.027v2.791l1.578-.285zM188.723 22.16l-.024.024-.5 1.113 1.745.732.849-.842z"/>
        <path fill="#C7D4D8" d="M182.123 55.397l5.702 2.404.225-.335c.014-1.492.029-2.788.038-3.697l-3.786-1.252-2.179 2.88zM198.301 70.432l3.613.896v-.763c-2.172-.497-4.119-1.318-5.565-1.936a26.584 26.584 0 0 0-.524 2.746l2.025.4.451-1.343zM202.366 64.61h2.09l-.45-4.032h-1.64zM207.333 66.4l3.613-.446v-1.345l-3.613.449zM214.559 59.683l1.344.888c.11-.372.207-.724.293-1.057l-.733-.726-.904.895zM174.366 69.089l.904-1.344-2.71-1.344-.903 1.344zM181.987 65.109l1.673-2.213-4.362-2.039-.416 3.305 3.105.947zM186.247 64.102l-1.725-.804-1.589 2.1 1.82.555 1.494-1.851zM251.253 71.63l.713-3.177-6.547-3.013c-.093.656-.198 1.3-.32 1.928.496.646.988 1.326 1.477 2.045l4.677 2.217zM180.237 52.517l.903-1.343.908.3.772-1.165-1.824-.714-1.662 2.475zM143.205 66.4l-2.364 1.174 4.677 4.273 3.106-2.31zM156.302 74.91l-.904-.446-2.258 3.582.904.448.902-1.344 1.816 1.08a61.6 61.6 0 0 0 .733-.728l-2.097-1.248.904-1.343zM182.495 76.703l-.451-1.344-.404.125-6.715 2.756.33 1.953c1.02-.3 2.065-.62 3.127-.95l-.403-1.197 4.516-1.343zM215.915 51.621l-.452 1.344 4.516 1.344.903-2.688-2.259-.448-.45.896zM245.083 50.786l2.429-.803-.619-1.906 1.557-.35-.228-1.817-4.353.86zM227.656 62.37l-.63 1.563 5.075 2.93c.347-.912.675-1.857.969-2.827l-1.516-.719-.285.846-3.613-1.793zM226.753 65.506l-.904-.448-1.547 2.303.828.466.268-.53.904.448.158-.158.522-.848-.68-.338zM235.627 71.581l-.583 1.16-2.335-1.16.584-1.157-1.168-.58-.755 1.5 4.545 2.561.88-1.745zM217.315 46.196c.303.36.703.824 1.164 1.328l1.03-.438c.29-.56.572-1.284.71-1.919-1.181.329-2.112.629-2.603.873-.085.041-.19.096-.3.156M221.814 42.738l.127.116.083.15c.017.03.024.064.039.095.789-.194 1.612-.389 2.447-.58l-3.045-1.006c-.01.529.082.984.35 1.225M219.722 43.297c-.331-.73-.38-1.57-.3-2.362l-2.152 1.281 2.452 1.08zM206.43 39.08l1.807.896 2.71-1.791 2.71 1.344 1.355-1.344-4.97-1.792zM194.688 50.725l-3.086.437.955 1.72 2.582-.365zM118.17 53.083l4.892.036-.928-2.35-3.842-.098zM176.173 48.934l-1.833-.727-.922 1.336 1.851.735zM155.023 45.613l-3.237-1.605-1.676 1.385 3.433 1.624 1.48-1.404zM158.108 47.143l-2.199-1.091-1.466 1.39 1.313.62.998.424 1.354-1.343zM150.43 49.382l-2.708-1.791-.904.895 2.71 1.792zM139.592 61.027v-1.344h3.425c.042-.661 0-1.264-.084-1.792h-3.34V56.55l-1.864.056-.327 2.15-.068.023v2.249h2.258zM146.366 53.86v-1.344h-1.354v.897h-2.258v1.499l7.676-.232v-.82zM141.7 39.454l-.462.006-1.189 1.172 2.542 1.203 1.066-1.41-1.958-.971zM118.886 65.574l-.126.057 2.837 2.822.798-.506.007-.041 1.124-2.034-1.434-1.478zM165.016 72.717l2.297-3.12-4.064-1.867-1.974 3.133zM131.761 75.905l-1.14-1.718-1.329-.111 2.022 2.006zM128.057 71.915l1.45.119-.5-.516-.95.397M128.245 73.99l-1.468-.12.489.606zM154.555 89.931h.99l.305-6.391a33.98 33.98 0 0 1-.692-.07l-.603.3v6.161zM174.228 85.824l.721 1.431c1.372-.5 2.77-1.017 4.184-1.54 2.388-.884 4.794-1.77 7.182-2.613l-.699-1.386-11.388 4.108zM173.422 100.39l.699 6.926c.087-.358.167-.72.25-1.089.224-1.017.458-2.052.838-3.044l-.557-3.607-1.23.814zM231.174 57.335l-2.648-.681-.123.53 2.771.916zM201.308 22.752l-2.512-1.17-.431 1.712 2.183.722zM207.883 25.815l-1.84-.857-2.805 3.625 1.974.49zM180.364 15.29l2.147.71 2.746-5.448c-.772-.234-1.65-.406-2.57-.53l-2.034 4.698-.289.57zM153.082 31.562l-.514-1.02-2.268.139 1.416 3.801h2.348zM143.166 29.348l1.306-.648-2.698-6.363-1.715.85zM126.25 37.91l4.898 2.744.757-.46-5.305-2.632z"/>
        <path fill="#F5FBFF" d="M227.169 82.992a49.405 49.405 0 0 0-2.9-1.346c1.1-.923 2.623-3.015 3.234-3.882a50.664 50.664 0 0 1 4.255 2.214c-.943.8-2.925 2.379-4.589 3.014zm-15.291-9.594l.186 3.121.106 1.804a38.126 38.126 0 0 0-3.466-.292c-6.274-.168-14.225 2.19-22.39 5.07a498.394 498.394 0 0 0-7.18 2.614c-1.416.523-2.813 1.04-4.185 1.54-2.16.787-4.256 1.53-6.274 2.195l.23-2.763c2.216-.494 4.48-1.075 6.112-1.682 15.657-5.823 27.115-8.882 30.637-8.181l.11-.543.204 1.817.925-.103-.546-4.878a24.877 24.877 0 0 1 2.301 0c.153.007.311.006.461.015.855.057 1.701.136 2.542.23.075.01.15.016.227.024v.012zM198.44 86.711l-1.598-6.007c3.2-.858 6.24-1.463 9.018-1.673l-3.674 7.086-3.746.594zm-8.043.063l-3.065-3.06c2.932-1.03 5.825-1.978 8.611-2.758l1.572 5.902-2.014.32-4.056.643-1.048-1.047zm-26.99 4.263c-.769.203-1.571.385-2.392.552.169-.79.432-2.047.717-3.518.507-.084 1.57-.264 2.937-.522l-.445 3.208.123.018c-.314.087-.631.18-.94.262zm-3.938 3.868l-2.977.392.393-2.106a63.622 63.622 0 0 0 2.947-.45l-.363 2.164zm-9.778 1.204l1.118-2.329.006-.03a95.355 95.355 0 0 0 4.456-.371l-.397 2.12-5.183.61zm-6.093.717l.577-2.868c1.596-.01 3.231-.048 4.887-.122l-1.195 2.488-4.269.502zm-11.97-7.446l2.2.162-1.408 2.993.434.202c-1.1-.065-2.055-.132-2.823-.19l1.597-3.167zm2.24-4.441l2.037.188-1.375 2.922-2.15-.16 1.488-2.95zm6.55-5.756c.691.125 1.387.288 2.088.488l.069.093.075-.053c.127.037.254.069.382.108.556.221 1.117.459 1.697.705.805.343 1.65.7 2.567 1.048l-1.164 2.955-2.643-.245 1.565-3.598-1.425-.61-1.767 4.058-3.616-.335 2.171-4.614zm-.76-5.79l4.263 4.26-1.068.77-4.272-4.27 1.077-.76zm7.943 1.613l-2.916 2.098-4.257-4.252c1.316-.923 2.33-1.62 2.752-1.883l4.421 4.037zm-20.385-6.666l9.887-9.39-.06-.063.291-.109.069-.024.326-2.15 1.863-.055 2.987-.09c.123.35.26.84.354 1.432.084.528.125 1.13.084 1.792-.124 1.99-1.034 4.461-4.025 6.69a2002.234 2002.234 0 0 0-9.758 4.047l-2.018-2.08zm13.577-18.603c.478-.394.999-.735 1.538-1.05l.04.022.04-.068c2.292-1.322 5.034-1.918 7.549-1.611l6.787 3.208 4.117 1.944-1.252 1.087-1.354 1.173-7.827.238-7.678.232-4.568.139c.022-1.256.41-3.498 2.608-5.314zm-16.734-1.52l1.416-1.732 2.103-2.574.16-.097.038-.023.727.436 6.647 3.986-2.116 1.823.08.09-.312-.007-7.782-.2a12.527 12.527 0 0 0-.96-1.701zm6.503-6.122l7.084 3.968-1.757 1.513-7.218-4.33 1.89-1.151zm10.725.831l-2.396 2.065-6.815-3.817 2.413-1.469 6.798 3.221zm-1.388-3.45l-.743.732-1.486-.703 2.229-.029zm3.854-2.495c.427.492.792.998 1.115 1.509l-2.68.033 1.565-1.542zm2.285-4.582l2.562 6.044-1.943.024a13.72 13.72 0 0 0-2.43-3.247l-.068-1.984 1.88-.837zm3.351-1.494l2.79 7.492-2.573.033-2.717-6.41 2.5-1.115zm9.394 7.41l-2.439.03-2.646-7.872 2.028-.125.57 2.996 2.487 4.971zm18.654-12.687l-1.915-.475v-.09l1.915.565zm4.823 3.008l-3.227-.423.927-1.84 2.996.884-.696 1.379zm7.576 1.014l-3.233 2.309 8.39 4.756 7.882 4.466c.269 1.027.032 2.55-.114 3.058l-9.652-5.03-11.438-5.96 2.78-5.512 5.385 1.913zm8.097-4.647l.432-1.709.431-1.712 2.512 1.17-.76 1.264-2.287 3.81-2.191-1.086.127-.088-.36-.151 2.096-1.498zm2.933 4.114l-1.212-.6 3.066-5.107 1.885.879-3.739 4.828zm6.3 3.183l.023-.047-1.838-.911 3.98-4.851 2.392 1.114-4.557 4.695zm-3.928-3.717l2.806-3.624 1.839.857-2.671 3.256-1.284 1.564-1.648-.817.958-1.236zm3.652 6.432c-.112.446-.483.835-1.077 1.165l-13.264-7.016 2.067-1.423 11.879 5.89.034-.067c.062.08.539.749.361 1.45zm-4.315 3.984a2.521 2.521 0 0 0-.099.892l-14.154-8.021 2.571-1.836 13.26 7.014c-.786.535-1.345 1.21-1.578 1.95zm12.237 6.977a8.937 8.937 0 0 0-1.569 1.533 240.086 240.086 0 0 1-3.404-2.279l4.973.746zm6.655 5.466l-1.09 3.703-6.291-2.155c-.283-.535-.491-1.046-.567-1.496-.375-2.227 1.556-3.905 2.982-4.82.962 1.159 3.069 3.558 4.966 4.768zm6.157 4.98l-.32 1.374-6.053-2.324.19-.643 6.183 1.592zm6.644 1.71c-.068.742-.17 1.483-.302 2.22l-5.784-2.22.22-.948.124-.53 2.648.68 3.094.799zm-6.622 2.308l.324-1.398 5.814 2.231a33.342 33.342 0 0 1-.457 1.86l-5.68-2.693zm11.152 6.31a37.04 37.04 0 0 1-2.838 7.18l-.045-.025-4.546-2.56-.144-.082a50.35 50.35 0 0 0 2.03-4.763c.253-.695.474-1.378.68-2.055l4.863 2.306zm4.972 2.359a42.044 42.044 0 0 1-2.695 7.704l-4.307-2.428a38.082 38.082 0 0 0 2.88-7.23l4.122 1.954zm.894 11.497l-1.075 2.457-.544 1.246-1.075 2.15a59.04 59.04 0 0 0-2.28-2.009 55.26 55.26 0 0 0-1.36-1.106c.199-.234.318-.394.335-.418.026-.036 1.176-1.59 2.543-4.265l3.456 1.945zm-8.638-4.867l4.373 2.464c-1.333 2.619-2.457 4.138-2.485 4.177-.006.005-.12.162-.326.398a54.287 54.287 0 0 0-4.332-2.968c.493-.596 1.567-1.99 2.77-4.071zm-18.676-2.425l4.525-5.55 3.326 1.875-3.08 5.02a51.587 51.587 0 0 0-4.353-1.192c-.153-.036-.3-.078-.453-.112l.035-.041zM215.682 67l3.986 2.002-3.388 4.153a55.287 55.287 0 0 0-3.417-.565l2.82-5.59zm-20.407 7.106l.026-.09h.306c0-.029.006-1.084.219-2.641.109-.805.275-1.745.523-2.747 1.446.619 3.393 1.44 5.565 1.937 1.045.24 2.14.402 3.258.43l.142 1.27c-3.1.242-6.497.923-10.04 1.84zm-32.742 9.508c.77-.045 1.56-.1 2.395-.18.102-.01.216-.031.32-.042l-.354 2.542c-1.176.226-2.186.407-2.855.522.17-.924.34-1.885.494-2.842zm-17.049 6.79l4.385.323-.047.23-.395 1.945c-.71.035-1.417.06-2.12.08-.964.03-1.92.048-2.861.057l1.038-2.635zm-4.514-.334l2.893.213-1.065 2.704-.011.058a168.605 168.605 0 0 1-3.097-.034l1.28-2.941zm-1.639-.122l-1.311 3.016.01.004a177.958 177.958 0 0 1-4.021-.167l1.476-3.137 3.846.284zm.652-1.495l-3.796-.282 1.36-2.89 3.668.338-1.232 2.834zm4.472.33l-2.834-.21 1.22-2.804 2.703.25-1.09 2.764zm6.273-2.283l-.55 2.706-4.103-.304 1.077-2.733 3.576.331zm.741-3.652l-.432 2.132-3.296-.305 1.018-2.585c.835.276 1.732.533 2.71.758zm-8.116-20.489l17.392-5.305 2.591 1.552-3.67 2.023.031.054c-2.727-.902-4.776-.323-6.906.281l-.23.067c-1.24.35-5.851 2.187-11.05 4.31.883-.992 1.469-2.003 1.842-2.982zm19.038-9.456l1.694.798-3.294 2.3-1.166-.698 2.766-2.4zm-7.948-5.46l1.466-1.39 4.417-4.19c1.602 1.157 3.884 2.826 4.775 3.522-.023.089-.059.175-.077.263-.477 2.37-1.376 4.063-2.886 5.429l-6.382-3.015-1.313-.62zm-7.803-4.718c-.568.133-1.055.25-1.439.345l-2.61-1.236c-.861-.406-1.71-.809-2.542-1.203l1.189-1.171.46-.006 3.701-.047a14.51 14.51 0 0 1 1.241 3.318zm22.458-9.072l.304 4.529-9.41.118.836-4.976 8.27.329zm-4.045-1.703l-4.009-.16.603-4.239 3.94-.005-.534 4.404zm4.606.183l-3.05-.121.551-4.542 6.027-.746-3.528 5.41zM187.3 43.12l-.148.027-4.685-8.442 10.268 5.335-5.435 3.08zm29.122 15.462c-.058.263-.138.588-.228.933-.085.333-.182.686-.292 1.058a21.938 21.938 0 0 1-.645 1.88l-10.523-11.689 7.852 2.691c1.046 2.114 3.07 4.33 3.836 5.127zm2.805.466l-1.16-.745.043-.215-.292-.292c-.657-.65-1.97-2.09-2.98-3.57l5.278 1.808-.889 3.014zm1.523-1.875l.238-.81 6.104 2.342-.308 1.327-6.034-2.86zm5.262 6.175l-.82-.473-5.149-3.304.443-1.5 6.082 2.885-.556 2.392zm7.056.689c-.293.97-.62 1.915-.969 2.827l-5.074-2.93-.17-.098.575-2.472 4.122 1.954 1.516.719zm-6.249 4.743l1.767-2.876 3.17 1.831c-.439 1.088-.9 2.116-1.356 3.065l-3.58-2.02zm2.893 3.403a52.357 52.357 0 0 1-2.536 4.407 50.572 50.572 0 0 0-4.153-1.625l2.988-4.868 3.701 2.086zm-1.933-6.745l-.8 1.302-.52.848-.451.735-.878-.495-.83-.466-1.436-.81 2.193-2.686 2.722 1.572zm-9.922-6.17l6.4 4.107-2.214 2.715-5.357-3.018c.553-1.372.957-2.903 1.17-3.804zm-13.104-.375l10.252 4.158c-.206.447-.424.845-.65 1.146-2.44 3.805-5.46 5.111-8.42 5.24l-1.182-10.544zm-7.871 8.288l-.108-.046c.312-.976.71-1.973 1.213-2.938l6.802 3.4.208 1.84c-3.088-.112-6.038-1.37-8.115-2.256zM189 72.756l5.457 1.563.007.002c-2.385.637-4.825 1.37-7.274 2.134-.4.125-.802.25-1.201.377L189 72.756zM150.85 64.3c.175 1.167.661 2.592 1.825 3.958a412.679 412.679 0 0 0-3.979-2.09l2.154-1.868zm12.419-.65c1.063.703 4.368 2.796 5.73 3.656l-1.125 1.529-15.065-6.914a.02.02 0 0 0 .008-.002l.23-.066c2.975-.845 5.544-1.574 10.222 1.797zm-1.096-22.316c1.842 0 3.506.114 5.018.285-.563.678-1.297 1.701-1.778 2.838-1.108-.85-3.179-2.357-4.208-3.102.33-.011.655-.02.968-.02zm7.325-1.723l-1.469 1.093-.08.069a44.963 44.963 0 0 0-5.776-.363c-.594 0-1.218.023-1.863.062l-.253-1.248 9.408-.119.033.506zm20.517 10.61l-4.976-2.117-1.957-2.33c.142-.223.226-.485.226-.769 0-.076-.01-.15-.023-.223l3.374-.608 3.356 6.046zm14.172 7.451l-11.458-4.48-.171-.309-.955-1.72-.678-1.222c1.219.072 3.451-.126 4.867-2.241l1.758.603.079.137.121-.069 5.178 1.774 4.174 4.636-2.915 2.891zm-4.618 4.092c1.508-1.87 3.364-3.111 3.83-3.407l.373.147.233 2.075.451 4.03.212 1.892-6.229-3.114c.338-.563.707-1.111 1.13-1.623zm-4.43-.692l2.777 1.396c-.896 1.376-1.547 2.861-2.015 4.302-.168-.069-.34-.139-.487-.194-.273-.101-.947-.396-1.955-.85l1.68-4.654zm-2.385-6.878l1.478.578 7.38 2.886.736.288c-.824.577-2.254 1.686-3.504 3.236-.139.168-.261.346-.391.52l-3.836-1.928-2.008 5.567c-.55-.25-1.17-.536-1.852-.85l1.997-10.297zm-3.723-1.457l2.842 1.111-1.988 10.242-.968-.449.114-10.904zm-3.52 9.321l2.524-3.129-.045 4.282c-.779-.361-1.607-.747-2.479-1.153zm2.396 9.422l-3.4-1.688 3.047-5.083.419.194-.066 6.577zm-10.568 2.473l6.52-3.448 3.385 1.679-15.017 6.163 5.112-4.394zm-14.251 5.479c.088-.961.086-1.806-.008-2.562l.998-1.322 5.49 3.89-6.825 2.801c.146-.992.266-1.95.345-2.807zm2.961-6.552l6.945 3.585-2.72 2.337-5.642-3.995 1.417-1.927zm10.177.806l-2.474 2.127-7.147-3.688 1.57-2.133 8.05 3.694zm-3.717-9.584l7.027 4.21-3.515 4.262-7.285-3.344 3.773-5.128zm-3.666-3.95c.467-.133 1.03-.006 1.652.364l2.355 1.555-.59.802-3.982-2.385c.139-.132.319-.266.565-.336zm6.327-1.233l-1.77 2.406-2.407-1.59c-.877-.522-1.692-.677-2.422-.467a2.348 2.348 0 0 0-1.115.727l-5.811-3.482 3.406-2.356c3.51 1.655 6.924 3.262 10.119 4.762zm-7.657-8.364c1.265-1.672 4.381-7.041 4.921-7.975.443.116.85.232 1.229.35-.953 1.576-3.843 6.374-4.23 7.141-.662 1.313-2.139 2.45-2.964 3.049-.42-.2-.84-.398-1.265-.598.761-.492 1.73-1.203 2.31-1.967zm1.537-8.684c.89.143 1.7.306 2.444.478-.364.627-1.163 1.994-2.032 3.437l-2.655-.658c.625-1.552 1.967-2.984 2.203-3.228l.04-.03zm12.245 3.134c0-.295.24-.535.54-.535a.54.54 0 0 1 .541.535.54.54 0 0 1-1.042.188l.027-.047-.042-.018c-.008-.04-.024-.08-.024-.123zm2.733 4.783l-4.463-1.745 1.24-1.998a1.467 1.467 0 0 0 1.559.32l2.031 2.417.116.05-.483.956zm-9.861 6.955l.795-1.282 10.792 4.817-1.11 1.375c-3.07-1.433-6.635-3.103-10.477-4.91zm6.778 11.283l1.988-2.628 1.588-2.1c.598.28 1.17.544 1.726.804l.46.214-3.036 5.062-2.726-1.352zm-2.198-7.428l.551.259c1.537.72 2.993 1.4 4.362 2.04l-1.673 2.211-1.869 2.473-2.323-1.39.952-5.593zm-3.878.296l1.148-1.561.01-.011.101.048 1.743.818-.385 2.264-.549 3.223-3.877-2.322 1.809-2.459zm-6.3-8.285l1.227.547-.798 1.155c-.522-.247-1.05-.494-1.578-.743.349-.265.746-.586 1.15-.96zm1.247-1.395l1.022.43-.509.737-1.069-.477c.197-.221.384-.45.556-.69zm2.876-4.867l1.419.555-2.736 3.965-1.071-.452c.278-.526 1.355-2.343 2.388-4.068zm2.92 6.305l-3.363-1.417 1.168-1.692.923-1.336.659-.957 3.19 1.248-2.578 4.154zm-.158 2.017l.53-.856 11.182 4.714-.811 1.006-10.901-4.864zm-.857-.383l-3.404-1.52.52-.754 3.404 1.436-.52.838zm-4.746.426l.807-1.17 3.447 1.537-.786 1.265-3.468-1.632zm12.969-4.404l-.772 1.166-2.014 3.042-3.556-1.498 2.591-4.177 1.927.755 1.824.712zm-8.253-7.079c1.322.495 4.28 1.806 5.447 2.327l-1.329 2.143-5.51-2.155c.594-.99 1.12-1.864 1.392-2.315zm2.494 29.821l-.167-.076 3.468-4.203 2.473 1.226-5.774 3.053zm11.04-20.629c0 .115-.005.601-.013 1.347l-.038 3.698c-.002.14-.002.284-.005.427l-.22-.093-5.701-2.403-1.219-.514 2.8-4.228 4.52 1.767-.123-.001zm3.269.238l-6.473-2.531.467-.926 5.381 2.333.625 1.124zm-20.266-12.317l-.003-.048c2.247-.226 8.676-.457 14.567 3.12l-2.85.514a1.469 1.469 0 0 0-2.425.783c-1.29-.577-4.754-2.113-5.88-2.486a34.158 34.158 0 0 0-4.441-1.115l1.032-.768zm-7.466 11.441c1.903-1.944 2.566-4.165 2.895-5.771l2.428.602c-.845 1.386-1.685 2.715-2.193 3.387-.625.825-1.85 1.627-2.56 2.051-.19-.09-.38-.178-.57-.269zm4.064 9.439l4.007 2.4-2.16 2.936c-.86-.542-2.565-1.622-3.955-2.51l2.108-2.826zm-.796-.477l-2.095 2.802c-.419-.268-.773-.5-1.01-.655-1.118-.807-2.127-1.382-3.061-1.798l3.516-1.936 2.65 1.587zM150.76 63.15l-2.95 2.56c-.827-.427-1.543-.793-2.094-1.075 2-.806 3.758-1.501 5.06-1.994a7.66 7.66 0 0 0-.016.509zm5.75 6.87c-4.996-2.478-4.952-6.335-4.792-7.58l11.53 5.29 4.065 1.866-2.297 3.12-1.434 1.951-.758 1.002c-.744-2.459-2.786-3.901-6.314-5.65zm56.358-8.835l-.262-.105-7.478-3.035 2.596-2.574.302.338 4.842 5.376zm-4.034-12.784l2.988 3.813-12.998-4.452c1.67-.951 3.34-1.92 4.12-2.422l5.89 3.061zm-6.841-3.554a238.6 238.6 0 0 1-4.339 2.514l-2.276-.78-.191.333c-1.477 2.566-4.275 2.146-4.81 2.039l-2.763-4.977 6.1-3.43 8.279 4.301zm-21.656-10.626l.013-.267.339-.174.284.148 4.64 8.36c-5.993-3.41-12.249-3.169-14.574-2.923l-.04-.573 8.883-4.595.455.024zm-9.677-.504l7.391.384-7.119 3.684-.272-4.068zM146.87 43.86l-.332-.158.292-.068c.013.074.03.155.04.226zm3.24 1.532l-1.578-.746c-.031-.35-.09-.809-.189-1.355 3.026-.666 7.327-1.504 11.05-1.824l-4.37 4.145-1.48 1.404-3.433-1.624zm3.571 36.949c3.315-2.88 6.679-6.105 7.463-7.938.873 1.216 1.22 2.732 1.016 4.944a56.952 56.952 0 0 1-.433 3.38c-3.193.14-5.826-.03-8.046-.386zm24.7-3.099c-1.06.33-2.105.65-3.128.95-3.881 1.144-7.449 2.031-10.417 2.32-.138.013-.266.02-.404.033l10.493-4.306 6.715-2.756 6.015-2.47-2.853 3.861.318.231-2.303.734c-1.503.48-2.983.95-4.436 1.403zm16.31-5.819l-5.855-1.676c.01-1.011.034-3.52.064-6.416 3.249 1.502 5.405 2.476 5.967 2.686.184.068.386.15.6.24a26.656 26.656 0 0 0-.775 5.166zm20.5-7.706c.149-.21.296-.421.441-.646.135-.18.265-.387.39-.605l5.032 2.835-1.049 1.286.184-.36-4.997-2.51zm-7.445-20.802a243.636 243.636 0 0 0 4.97 3.357c-.487.823-.767 1.689-.785 2.573l-2.422-3.091-5.94-3.095c.214-.561.378-1.575.35-2.553.938.762 2.353 1.783 3.8 2.79l-.003.015.03.004zm-29.987-17.62l-1.089 2.16 4.856.638-1.264 2.504.356.175-.21.11.01-.2-8.962-.468 3.64-5.58 2.663.66zm-27.46 3.385l2.27-.14.168-.01.345 1.03.982 2.921 1.303 3.876-2.199.027-1.452-3.903-1.416-3.801zm8.81 8.554l.263 1.305c-3.812.318-8.161 1.165-11.22 1.842a16.34 16.34 0 0 0-1.031-2.996l11.987-.151zm-19.65 10.483l-2.733-1.639 1.782-1.535 2.882 1.615c-.415.267-.814.556-1.193.868a8.633 8.633 0 0 0-.738.691zm-3.472-1.002l2.584 1.55-4.257-.109 1.673-1.441zM143 47.292l-3.248-1.82 2.452-2.112 5.678 2.687A13.75 13.75 0 0 0 143 47.292zm15.861 8.673l.028-.023.787.471-15.988 4.879c.49-2.026.16-3.813-.154-4.863l15.327-.464zm-18.02 11.609l-.723-.66c1.535-.63 3.044-1.246 4.462-1.82a469.264 469.264 0 0 1 9.725 5.09l-5.934 4.268-2.853-2.605-4.678-4.273zm14.368 3.101c2.79 1.52 4.929 2.76 5.204 3.107.063.48-1.15 1.935-2.918 3.72-.236.237-.48.481-.733.729a94.91 94.91 0 0 1-4.256 3.899c-3.1-.624-5.38-1.592-7.41-2.455a81.534 81.534 0 0 0-1.521-.63l11.634-8.37zm-4.202 22.14l1.984-9.656a32.839 32.839 0 0 0 2.859.38l-.304 6.393-.12 2.51c-1.454.16-2.934.284-4.419.374zm5.976-.56l.416-8.607c1.278.065 2.667.073 4.182.012l-.018.111a136.96 136.96 0 0 1-.545 3.08 189.167 189.167 0 0 1-.998 4.928c-.987.18-2.001.338-3.037.475zm10.335-5.229l-.244 2.942c-.414.13-.818.25-1.224.372l.431-3.103 1.037-.21zm-.812-1.409l.339-2.435c.26-.042.538-.101.805-.15l-.198 2.39-.946.195zm39.144-10.349c-5.586-.784-21.858 4.83-31.178 8.294-1.435.534-3.427 1.054-5.433 1.51l.196-2.351c4.127-.894 8.893-2.412 13.868-4 7.78-2.486 15.786-5.035 22.314-5.539l.233 2.086zm3.523-3.058c-.937-.06-1.916-.06-2.929-.01l-.136-1.213c2.935-.132 5.954-1.291 8.52-4.517l.222.112-2.96 5.873a58.13 58.13 0 0 0-2.717-.245zm18.856 4.776a53.792 53.792 0 0 0 2.504-4.342l4.686 2.64c-1.272 2.202-2.379 3.586-2.759 4.037a51.578 51.578 0 0 0-4.431-2.335zm13.51 10.336l-.397.793a6.8 6.8 0 0 0 .732.423l.08.034.295-.59c.412.397.816.815 1.22 1.229.644.263 1.366.552 2.08.835a64.704 64.704 0 0 0-2.868-2.93l1.21-2.417 1.588-3.633 2.84 1.602-.98 2.906 2.61 1.11.389-.84-1.843-.784.652-1.927 1.93 1.087-.051.145.7-1.513-.106-.157-.019.05-1.952-1.1.45-1.328a47.374 47.374 0 0 1-.625-1.065l-.65 1.928-2.723-1.535 1.724-3.944c-.179-.366-.355-.735-.54-1.088l-2 4.573-3.398-1.916a43.186 43.186 0 0 0 2.601-7.206 43.418 43.418 0 0 0-1.947-2.563l-2.655-1.258c.116-.446.231-.888.333-1.353-.271-.28-.538-.554-.796-.808-.12.6-.251 1.185-.394 1.753l-4.825-2.287a32.24 32.24 0 0 0 .726-3.246l-.119-.081.348-1.576.03-.276.029.008.31-1.404-3.958-1.022c-.62.316-1.544.266-2.937-.154-.613-.185-1.41-.662-2.28-1.29l-4.478-1.157.45-1.53c.244.068.583.147 1.044.242a79.963 79.963 0 0 1-1.843-1.702c-1.05-.764-2.158-1.865-3.047-2.837a41.68 41.68 0 0 1-1.164-1.327c.112-.06.215-.114.3-.157.493-.243 1.422-.544 2.603-.873.094-.43.12-.817.035-1.072a2.822 2.822 0 0 1-.334-.438c-1.332.367-2.409.715-2.997 1.006-.347.172-.666.36-.98.55l-7.835-1.176c-2.195-1.53-4.065-2.912-4.423-3.387l-.03-.09-.04-.023a1.512 1.512 0 0 1-.147-1.263c.207-.662.803-1.262 1.65-1.716l.325.172.24-.45c.011-.004.018-.009.028-.013 1.168-.497 1.87-1.179 2.085-2.026.014-.057.009-.109.018-.165.782.136 6.284 1.152 12.11 3.686.112-.314.206-.54.245-.627l.116-.262c-6.205-2.697-12.012-3.66-12.425-3.726l-.036.218c-.059-.427-.21-.8-.35-1.049l5.034-5.185 4.844 5.014-.42.766 1.164.114c1.514.151 2.961.493 4.326.945-.013-.4-.241-1.044-.567-1.783a21.649 21.649 0 0 0-2.458-.547l1.15-2.1-.251-.474a110.57 110.57 0 0 1-.614-1.175l-1.552 2.833-4.543-4.704 2.32-2.39-.693-.158.118-.582-2.507 2.582-5.83-2.74 3.666-4.733 3.083-3.983.003-.005a20.865 20.865 0 0 1-1.363-.767l-6.825 8.814-5.969-2.805 7.113-7.058c-.398-.035-.803-.07-1.211-.104l-6.793 6.738-3.198-1.586 3.194-5.544-.25-.003c-.453 0-1.08.162-1.77.403l-3.339 5.793 4.605 2.282-.826 3.278-2.281 1.63-4.888-2.052-1.745-.732.499-1.113 2.98-6.647-.544.327-.563-.76c-.004-.005-.097-.132-.251-.33l-3.556 7.936-3.705-1.47 4.653-9.395c-.043-.04-.087-.086-.13-.126-.305-.276-.713-.515-1.176-.728l-5.48 11.062 3.426 1.36 2.527 1.001 6.115 2.567-.349.242-1.637 1.127-.368-.195-.065.12-6.898-2.45-.018.034-8.138-2.404v-.525l2.95-3.902 1.892-3.738.289-.57 2.034-4.698a24.802 24.802 0 0 0-1.616-.167l-1.843 4.26-2.04 4.045-3.22 4.257v2.657l-7.506.937h-4.891l-.436-1.728-.276-1.096-.013-.05h6.055l.658-10.71c-.31-.014-.62-.033-.93-.061l-.142 2.321-.463 7.525h-5.178l.923-3.664-1.057-3.116-.43-2.857c-.452.323-.601.665-.611.692l-.16.403.297 1.962.992 2.953-1.031 4.089 1.041 4.132-.903 6.377-.672 3.993-2.036-4.067-.625-3.247-.009-7.28-1.049-5.185-1.368-4.183c-.33-.047-.649-.092-.95-.131l-.067.02 1.485 4.527 1.026 5.044.007 6.753-5.686.348-1.436-3.853 3.982-1.974-1.036-4.107 2.075-1.029-1.527-5.862a7.37 7.37 0 0 0-.572-.032c-.144 0-.281-.024-.414-.06l1.422 5.463-2.068 1.025 1.035 4.107-3.22 1.597-2.663-7.148-1.397-3.751c-.25.219-.522.32-.741.346-.042.005-.08 0-.123.002l5.795 15.562-2.541 1.12-7.427-17.526-.49.84-.222-.132 3.38 7.973 2.697 6.365 1.21 2.856-2.475 1.09.059 1.723a13.848 13.848 0 0 0-2.754-1.743l-1.444-1.545c.14.752.094 1.402-.284 1.806-.02.022-.047.047-.077.074l.87.93.136.063c.35.163.668.345.984.527.937.54 1.741 1.157 2.42 1.823l-2.268 2.234-5.079.064c-4.873-2.308-8.974-4.254-11.745-5.57l-.222 1.603c2.442 1.16 5.774 2.74 9.684 4.594l-1.582.964-.757.46-4.899-2.744-2.69-1.507-.226 1.643 6.302 3.53-1.862 1.132-4.696-2.817-.137.998 3.987 2.392-3.432 4.162a15.425 15.425 0 0 0-2.196-2.271v1.23a13.91 13.91 0 0 1 1.58 1.762l.51.154 2.394 6.063c-.024-1.233-.164-2.44-.456-3.53l13.015.333a7.904 7.904 0 0 0-1.089 3.895l-11.062.335.6 1.522 9.991-.302-.219 1.443-10.79 3.975-.478.72.11.401 9.65-3.554-8.474 8.066-1.08-1.113-.47.85.753.776-1.477.796-.215 1.168 2.363-1.273 1.858 1.915c-.841.35-1.602.67-2.261.946l2.004.165.95-.397.5.515 1.407.117-.985-1.016a2083.3 2083.3 0 0 1 9.24-3.83l3.321 3.032c-.95.58-3.05 2.038-7.949 5.55l-.99-1.019.705 1.062 1.118.506c.824-.588 1.648-1.175 2.44-1.736l3.79 3.79a23.081 23.081 0 0 0-2.962-.48l-1.157.836c.439.021.882.06 1.327.108l-2.208 4.692-1.99-.184 2.013-3.995-2.734 1.98-.938 1.862-.404-.039-.923 1.463.582.054-1.503 2.98-.952-.07-.932 1.476 1.133.085-1.462 2.897.652.323c-.768-.063-1.216-.107-1.247-.11l-.048.459.02-.77-.856-.02-.958 1.516 1.774.044.009-.307c.4.04 6.823.654 14.762.677l-.216 1.063-.393 1.941L131 96.87v-2.061h-5.737l-.712 1.127.172.414h4.725v2.047l12.236.106-.699 3.456.7-.316.504.634c.07.09.158.196.253.307l.84-4.173 3.799-.445-3.01 6.268c.392.348.813.686 1.248.984l3.586-7.467 5.674-.667-.242 1.298c.447.037.975.089 1.55.156l.307-1.649 2.92-.387-.551 2.448c.304.06.606.126.903.197l.63-2.775.343-.045 7.318-1.814v4.572l-4.142 1.028v3.37c.019.085.029.178.051.26l8.325-2.065.29 2.864-7.253 1.424.437.423-.64.737c-.106.12-.207.245-.31.368l.028.136 4.684-.92 3.21-.63.159 1.587-2.617.534-6.922 1.415c-.324.596-.506 1.086-.44 1.307.06.108.139.208.208.312l9.927-2.028.122 1.208c.628-.895.97-1.959 1.247-3.098l-.697-6.926-.066-.64-8.189 2.03v-.466l4.141-1.026v-7.75l-8.868 2.205.366-2.179c.977-.19 1.932-.395 2.84-.635 2.913-.77 6.058-1.816 9.362-2.992l1.643 10.639.557 3.607a8.268 8.268 0 0 1 1.23-2.21l-1.942-12.571a729.275 729.275 0 0 0 4.963-1.822c.478-.177.958-.355 1.436-.53l-1.885 4.977-.017-.005-.032.135-1.463 3.86.75 4.555c.294-.123.595-.21.899-.266l-.689-4.194 1.138-3.005a86.5 86.5 0 0 0 4.16.825c.023-.302.074-.608.155-.918-1.421-.24-2.892-.54-3.985-.78l2.125-5.61c1.438-.531 2.879-1.054 4.312-1.564l4.276 4.269c.587.078 1.14.184 1.631.297l1.9-.302 7.485-1.187-3.717 7.167-.455-.455c-.059.031-.109.065-.174.094a7.637 7.637 0 0 0-.686.36l1.24 1.238.025.812c.314-.027.625-.025.934-.005l-.032-.998.1-.097-.107-.105-.012-.426 7.364-14.2 1.205 14.233.55 1.758c.007-.006.011-.013.017-.02.116-.134.328-.525.602-1.084l-.26-.83-.924-11c.632.242 2.188.873 4.33 1.954l-.043-.012-2.163 7.854c.663-1.494 1.43-3.31 2.106-4.99l1.07-3.395c-3.166-1.639-5.278-2.393-5.324-2.41l-.049.14-.315-3.752c.591-.023 1.172-.03 1.735-.011a38.05 38.05 0 0 1 5.441.581l.21.07.287-.91c-.079-.015-.156-.033-.236-.047l-1.276-.422-.281-4.711c1.08.146 2.148.322 3.203.53l-.735 3.66.903.235.747-3.72c1.638.353 3.246.788 4.825 1.295l-.709 3.682.899.231.676-3.623c1.362.463 2.7.983 4.015 1.563-.871 1.225-2.497 3.367-3.287 3.797l.063.115c-.347-.14-.706-.268-1.06-.402l.302 1.093c1.116.44 2.198.91 3.242 1.41-.117.036-.214.066-.32.097.497.18 1.001.352 1.507.514l.029-.01c.038.02.077.037.114.057 1.188.375 2.359.682 3.36.841-.761-.46-1.546-.912-2.366-1.35 1.76-.865 3.584-2.368 4.36-3.045a53.21 53.21 0 0 1 4.356 2.966c-.526.5-1.244 1.073-2.095 1.48.426.08.85.203 1.27.354a9.879 9.879 0 0 0 1.575-1.263 58.218 58.218 0 0 1 3.846 3.297z"/>
        <path fill="#F5FBFF" d="M135.354 27.11l-5.39-5.765V16.67l2.932-6.784 4.119-2.042 1.007-1.998 2.743-.91 8.191-2.03 5.027-.002 3.944.28 1.165 7.705c.244-.174.534-.334.864-.476l-1.079-7.162 5.208.369.26 6.433c.313.033.627.066.936.103l-.26-6.47 3.103.22 3.077 4.068 2.26.4c2.653-.772 6.66-.902 10.075-.316l4.349-10.042h-1.689l-4.242 9.801-6.39-.632-3.487-.619-3.136-4.146-10.299-.728-.554-3.676h-.94l.544 3.609-3.655-.26h-5.177l-8.528 2.094-3.411 1.128-1.064 2.109-4.165 2.065-3.281 7.593v5.594l8.523 9.116c-.22-.694-.648-1.708-1.16-2.635a3.534 3.534 0 0 1-.42-1.32M340.663 100.904l-2.964-2.94-4.54-1.125-4.15 1.03-8.874-1.956-8.262-10.242-5.577-1.69-.585.174-4.52 1.341-3.235-2.139-3.341 2.21h-2.728l-1.284-.487-.837-.793-.282-.268.278-1.382 1.596-7.912 9.696-.961.195.024 8.097.997h6.212l11.528-2.065 10.09-3.985 8.766 6.76 1.954 6.78-1.057 6.29 4.066 6.05-3.334 6.882-1.748-1.616-5.16 1.023zm-33.253-3.52l-1.092 1.85-2.34 3.968-.208.354-3.055 5.065-8.096 9.031-12.067-2.982-5.41-2.504.812-.887v-3.85l2.715-.897 6.45-5.33 3.311-6.57-.76-2.722-.11-.395 1.499-5.768.243.229.454.43 1.71.65 3.62.052 2.87-1.898 2.979 1.97 4.294-1.275 1.062-.314 4.447 1.346-1.929 6.051-.104.33-1.295 4.066zm9.63 12.709l-3.825 7.582-9.089-.994-10.217.923 7.552-8.439 2.916-4.816 8.891 2.94 3.771 2.804zm-35.972-26.58l-2.06 2.045-8.194-.23 1.63-2.815 4.028-4.007 2.524-1.667.744-.494.808-4.268.228-1.197 1.77-3.954.896-1.998 4.541 5.404 1.912 3.792-1.642 8.138-.251 1.251h-6.934zm-17.915-2.072l3.077-5.085 4.1-4.068 1.949-4.746 10.196-2.732-2.573 5.744-1.004 5.239-3.015 2.003-4.14 4.108-1.857 3.17h-8.104l-.376-.01 1.747-3.623zm-2.174-16.36l-4.975-2.913-1.35-.348-1.723-17.093 3.186-.717-.104-.451.338-.32-3.615-3.711-3.091-3.176.718-1.218 6.612.582.336.03 3.21 2.121 4.61-.915.664-.13 8.134 3.022 7.409 2.099-5.59 8.316v1.492l-2.55-1.084-4.048-1.72-6.78-.038-1.119 5.596v3.209l3.236 5.348 5.287 2.995h-4.854l-3.94-.976zM238.861 47.9l3.767-.85c1.276 3.312 2.189 7.38 2.248 12.243l-3.86-.997a24.955 24.955 0 0 0-2.155-10.396zM229 43.11c1.888-.397 3.677-.755 5.07-1.023.692.758 2.148 2.529 3.463 5.164l-4.155.936a13.123 13.123 0 0 0-.83-1.313c-1.01-1.394-2.222-2.641-3.549-3.763zm23.487.77l-4.64-4.48 1.049-1.777.26-.443 1.077 1.106 4.87 5.004-2.616.59zm-4.28 1.913l.014.118.228 1.816 1.618 12.908-4.257-1.1c-.03-5.036-.955-9.255-2.263-12.692l4.66-1.05zm-5.445-.817a30.805 30.805 0 0 0-2.637-4.687l5.73-.56-3.093 5.247zm1.33.797l3.27-5.552 4.042 3.903-7.313 1.649zm6.945 15.112l-1.918-15.298 2.896-.653 1.678 16.637-2.656-.686zM232.87 32.961l11.627-5.854.367-1.09.655-1.95 2.867-.95 6.984-1.978 1.13 1.121 1.55 1.537 2.117 2.1-.816 3.25-.137.543-1.822 4.517-3.116-.275-4.756-.419-2.016 3.42-1.068 1.811-6.928.677-.074-.103c-2.625-3.51-5.312-5.527-6.564-6.357zm32.215-21.157l6.029-.996 2.648-1.163 6.782-2.979 4.869-3.626 7.342-1.146 6.426 1.416-2.5 2.518-4.221 1.047-1.084 2.147-1.05 2.083-3.68 3.65-7.509-.04-4.305 2.136-2.914 2.832-2.395-1.188-3.661-1.815-3.256-1.615 2.479-3.26zm42.732-4.943c2.303 2.772 4.416 6.309 3.99 7.171-.444.66-.84 1.454-1.195 2.338-1.135 2.82-1.853 6.604-2.305 10.283l-4.647-1.536-4.164-7.228-9.578-2.107-2.242-.74 3.362-3.336 1.187-2.324.876-1.714 4.059-1.007 3.094-3.115 1.583.35 5.98 2.965zm18.205 10.414l6.27-2.065 6.987-1.538 3.723 12.009-2.066 3.075 2.192 7.612 5.097 2.021.005 5.772-.93 5.53-3.221.8-1.013-4.017-18.126 2.115-6.732-1.908-2.05-5.08-.655-.279-6.412-2.725c.022-1.617.144-6.92.84-12.3.267-2.067.621-4.14 1.084-6.02.286-1.164.618-2.25.996-3.213.227-.58.472-1.118.736-1.597l5.788 2.869 7.487-1.06zm-65.177 18.957l-2.578-1.705 1.831-4.553 1.1-4.362-.073-.072-2.67-2.647-1.253-1.243-1.031-1.025 5.347-4.376 3.397 1.683 6.434 3.19.877.435 3.412-3.384 3.864-1.917h6.94l3.062 1.008 8.984 1.98 4.118 7.147 5.524 1.827c-.469 4.476-.57 8.541-.59 10.161l-16.137 1-2.991 2.966-13.997-3.963-8.491-3.158-.217.043-4.862.965zm11.122 29.825h-.316l-6.49-3.678-2.977-4.922-.009-2.86.96-4.763h5.735l4.723 2.007 2.154.916v1.748l1.12 3.409 2.152 1.067 3.322 4.117.101.126-10.475 2.833zm39.133-9.97l-.175 1.743-.868 1.636-2.678 5.043-.082.155-5.82 2.184-9.205 3.454-1.467 2.183-1.472-2.921-5.596-6.691-.315.086-3.738-4.635-2.054-1.066-.951-2.828v-3.892l5.6-8.329 6.586 1.867 3.22-3.196 15.74-.975 3.836 10.592-.561 5.59zm48.9 56.902l-11.997-11.093.89.425 3.796-7.831-4.218-6.273 1.014-6.033-2.188-7.595-9.395-7.247-.076-.06-.4-.307-10.694 4.243-11.245 2.028-5.939.006h-.106l-8.369-1.04-8.807.876 1.02-1.52 9.6-3.602 5.498-2.063.014-.005 2.94-5.542 1.102-2.074.108-1.078.695-6.904-3.59-9.788 5.304 2.254 2.046 5.075.046.113 7.764 2.2 17.077-1.992 1.058 4.197 4.895-1.214 3.898-1.912 2.975 1.967 5.284-.702v-1.553l-4.91.652-3.238-2.141-3.525 1.748.83-4.966v-6.474l-5.258-2.086-1.948-6.764 2.073-3.086-3.835-12.357 1.713-.377 5.076-7.048 6.737.954 5.061 8.1 1.224.662v-1.754l-.584-.316-5.439-8.21-7.715-1.094-5.278 7.33-9.105 2.01-6.146 2.032-6.939.983-5.46-2.708c.052-.703-.168-1.54-.548-2.418l7.218-.835 2.219-4.425.996-3.955 6.017-4.385h-1.568l-5.276 3.854-1.038 4.167-1.959 3.884-7.029.814c-1.07-2.044-2.723-4.11-3.459-4.984l-.104-.124-6.358-3.153-9.64-2.148-4.743.74 4.096-3.05h-1.55l-4.496 3.354-2.375.371-8.663-2.49-6.864 3.988-4.208-.816-7.619-2.159-4.45 3.31-5.285 8.289-10.21 7.088-6.018 3.978h-7.473l-2.052 3.744c.222.49.533 1.1.841 1.691l2.135-3.895h7.02l6.422-4.245 10.484-7.278 5.185-8.226 3.716-2.766 5.2 1.472 1.74.492 4.85.944 1.175-.683 5.62-3.265 8.258 2.374-3.424 2.554-7.653 3.374-1.563.688-6.338 1.049-3.185 4.212-6.094 5.036-7.173 2.034-3.328 1.099-.97 2.89-.077.23L230.93 32.9l.766.423c.036.019 3.596 2.01 6.988 6.546a29.78 29.78 0 0 1 3.592 6.312l-3.818.862c-1.187-2.43-2.504-4.186-3.334-5.158l.383-.074-.963-1.018c-.217-.23-4.222-4.393-10.192-6.769.091.357.144.688.144.985 0 .253-.03.493-.073.726 3.648 1.586 6.49 3.834 7.935 5.118-1.19.236-2.982.599-4.935 1.02-1.589-1.155-3.294-2.153-5.014-3.01-.17.143-.33.27-.454.358-.05.13-.1.271-.145.414a35.928 35.928 0 0 1 4.362 2.511c-.552.122-1.108.247-1.663.373-.835.191-1.658.386-2.447.58.23.46.31.98.297 1.51.39-.096.79-.194 1.203-.291l-1.178 4.003c.246.238.497.479.757.724l1.463-4.97c1.054-.242 2.143-.483 3.224-.715 1.505 1.192 2.864 2.536 3.965 4.053.234.322.447.652.645.986l-8.035 1.812c.283.256.567.51.85.756l7.635-1.721a13.823 13.823 0 0 1 1.183 3.553c-2.51-.353-5.67-.82-8.098-1.214.52.439 1.022.84 1.48 1.18.314.05.636.099.986.153l-.107.456c.333.21.624.363.854.439l.177-.757c1.36.202 2.965.433 4.856.697.032.26.061.52.082.782l.95.245c-.144-2.106-.62-4.029-1.433-5.744l4.129-.93a24.13 24.13 0 0 1 2.13 9.948l-2.525-.653-.33 1.492 2.796.72c-.02.322-.024.634-.057.965-.034.347-.088.678-.132 1.018.268.246.548.509.837.788.083-.563.164-1.128.224-1.715.028-.28.028-.544.047-.82l3.927 1.012c-.011.444-.018.886-.045 1.343a37.967 37.967 0 0 1-.48 4.193c.253.312.507.64.76.971.12-.628.226-1.272.32-1.928.145-1.034.268-2.088.33-3.184.023-.394.028-.773.04-1.158l9.52 2.451 4.978 2.914 4.348 1.112 6.624.02-1.657 4.107-4.074 4.04-3.196 5.261-1.945 4.033-4.968-.14-1.873-1.055-.651 1.404 1.924 1.086.168.094 24.644.691 2.08-2.063h5.924l-1.684 6.476.822 2.943-2.9 5.753-5.974 4.937-3.499 1.156v4.365l-.733.802-8.573-3.968-3.047-3.023-6.255-3.128-7.152-7.9-.539-.207c-.068-.027-.621-.241-1.396-.546l8.452 9.336 6.283 3.151 3.053 3.028 8.53 3.96-8.253 9.002h2.098l7.626-8.32 5.747 2.668 12.698 3.147.066-.072 11.111-1.011 9.22 1.015-.095.283 6.926 2.29h4.915l-10.799-3.57 3.936-7.804-4.454-3.312-8.905-2.967 3.379-5.731 3.244-10.152 7.78 9.645 9.764 2.151 4.132-1.023 3.744.928 3.249 3.22 5.192-1.03L360 115.095v-2.106zM209.218 100.178c-.039.047-.096.08-.139.123l1.494 4.764 8.228 8.161v3.175l9.658 4.79h2.083l-10.81-5.361v-2.987l-8.337-8.27-1.758-5.581a1.87 1.87 0 0 1-.419 1.186M179.5 107.181l4.021 1.994-1.024 4.064 6.518 4.308 6.611 3.643h1.92l-8.047-4.432-5.939-3.927 1.047-4.15-4.264-2.114-.858-5.219a2.454 2.454 0 0 0-.882.38l.897 5.453zM195.656 92.024c-.551-.312-1.35-.659-2.282-.966l1.756 1.754c.256-.171.53-.336.825-.489l-.3-.299zM188.17 92.397c-.448.08-1.252.034-2.21-.08-.091.29-.152.599-.157.914.662.077 1.272.126 1.773.126.365 0 .674-.025.904-.083l3.602-2.583a17.234 17.234 0 0 0-1.218-.254l-2.694 1.96zM157.737 102.61l-3.092 6.136-5.378 12.444h1.014l5.208-12.055 3.106-6.163.413-1.816a25.69 25.69 0 0 0-.901-.188l-.37 1.643zM214.391 6.597l5.197-8.58h-1.08l-4.781 7.928-6.238 5.255c.437.042.864.086 1.278.134l5.624-4.737z"/>
        <path fill="#F5FBFF" d="M255.204 74.015l.2-.417-4.15-1.968-4.677-2.217c.325.479.647.973.965 1.483l1.133.537-.34.78c.192.334.376.686.563 1.033l.585-1.338 2.131 1.007-1.182 3.5c.186.427.373.852.546 1.295l1.51-4.47 2.138 1.013-2.139 6.004c.245.386.456.706.64.98l2.517-7.069-.44-.153zM197.956 98.437l.135 4.262-1.08 3.216 2.138 3.182 1.742 12.093h.94l-1.776-12.328-2.017-3.084.99-2.943-.14-4.418a4.28 4.28 0 0 0-.932.02M102.78 97.023l-2.517 3.744-8.987-7.923-9.043-2.989-.089-.436-.834-4.143.741-6.613.26-2.327 2.88-.82 3.826-1.087 4.28-2.124 1.932-3.831.204.101 5.752 2.853 6.519-1.83v4.236l-1.116 2.214 1.657 3.755.94 2.13 4.49 10.178-10.895 4.912zm-14.784 11.092l-10.294-1.663-4.627-7.342-.499-.793-3.802-2.195-3.385-1.457-1.536-.662-3.093 3.067-3.823-1.895-8.686-4.786.014-.035-2.297-3.417-2.776-2.773 2.96-4.892-1.057-4.198 1.914-5.698 1.975-1.307.002.041 9.58-.5 3.087 2.04h9.231l.608.603 1.874 1.86 1.433 1.42 5.93 2.984-.436 3.89-.554 4.937 1.148 5.69.413.137 9.182 3.036 8.911 7.854-.757 1.126-10.64 4.928zM56.106 63.36l5.425-5.358.883-2.63 4.728.782-1.265 5.02 9.008-4.964.13-.07-.076.227-1.354 4.028-2.917 7.715h-8.545l-3.125-2.066-7.547.394 4.655-3.078zM65.98 44.61l-1.803-4.47 5.235 2.225 2.093 6.225 3.772 5.658-7.025 3.857.806-3.194-6.472-1.07-.895-7.104 4.289-2.127zm20.01 5.484l3.822-.947 6.118 2.023 5.445-.004.518-.129 6.69-1.666-1.933 13.42 1.054 3.135v2.713l-6.425 1.804-6.467-3.208-.355.706-1.855 3.678-3.922 1.953-3.32.941-3.312.939-6.24-3.095-.612-.608-2.826-2.8-.26-.26 2.939-7.778.707-2.106 1.269-3.77 8.965-4.94zm32.954-7.998l-.627 1.039a20.979 20.979 0 0 0-6.403-2.24l2.067-2.05 4.963 3.25zm-2.407 7.607l-6.41-.163.176-1.216-.528-2.616c4.347.795 6.141 2.971 6.762 3.995zm-.111 7.142l-7.362.079.43-2.978 7.075.051-.143 2.848zm8.227.835c-.121.82-.291 1.606-.5 2.33l-6.356.464.138-2.72 6.718-.074zm-8.671 7.98l-2.005.738.11-4.725 2.103-.154-.208 4.14zm4.638 5.323l-5.57 3-1.007-6.623 2.132-.786 4.445 4.409zm-5.459 19.17l.014-15.185 5.46-2.942-1.807 11.829-3.667 6.298zm-5.94-11.976l5.027-2.71-.017 14.064-5.01-11.354zm-.92-2.085l.956-1.894v-5.075l3.9-1.437 1.028 6.764-5.337 2.877-.546-1.235zm.018-13.998l4.837-.354-.112 5.001-3.787 1.395v-2.334l-1.017-3.152.08-.556zm8.06-4.325l-.142 2.82-2.128.155.069-2.95 2.202-.025zm-7.447.082l4.314-.048-.068 3.009-4.724.344.478-3.305zm1.064-7.39l6.742.172-.122 2.44-6.99-.051.37-2.562zm-2.82-19.698l-2.027-6.059.961-3.56.753-2.788 1.749-5.001.452-1.296 1.109.367 4.588 1.517 3.18-2.1h4.253c-.714.796-1.679 2.106-2.99 4.275l-.112.183v4.871l-4.14 2.054v7.256c-1.296.89-3.107 2.34-3.106 3.463-.062.568-1.44 3.598-2.996 6.78l-1.049-6.242-.626-3.72zm8.843 61l4.3-7.391.092-.602c1.869-1.202 7.016-4.145 13.404-4.81l.825-.598-.731-.331c-.305.03-.607.063-.905.101l.437-.312-.588-.267-.204-.308-1.724 1.24c-.676.142-1.333.303-1.968.48l.27-.235-4.444-5.023-1.338-.11 4.903 5.54a34.786 34.786 0 0 0-7.753 3.43l1.39-9.09-.6-.049.602-3.268-4.211-4.176 1.11-.408 3.206-1.182 1.434 1.479.319-.578-.165-.597-.627-.647.016-.016.388-.143-.368-1.331a4.099 4.099 0 0 1-.525.674l-.224.082-.002-.002-.005.005-4.768 1.756.186-3.671 6.093-.445a10.03 10.03 0 0 1-.276.68l1.78-2.685.006-.029-.856-2.17-6.516.072.141-2.82 5.305.039-.366-.928-4.892-.035.122-2.412 3.843.098-.307-.775-.565-.171-2.974-.076-.01-.027c-.07-.192-1.758-4.58-8.83-5.63l-.126-.627 1.776-1.76c3.03.442 5.835 1.525 8.13 3.064V43.67c-.036-.023-.074-.045-.111-.067l.11-.182v-.259l.874-1.187.1-.164-5.547-3.635 1.418-1.407 4.936 2.962.138-.998-4.395-2.637 1.118-1.11 3.522 1.973.227-1.642-2.948-1.651 1.143-1.635-.28.579c.264.124 1.07.508 2.308 1.096l.221-1.603-1.727-.82 1.023-1.466-1.237-.933-3.695 5.294.04.022-5.263 5.22c1.126-2.37 2.193-4.782 2.192-5.417.094-.4 1.41-1.579 2.763-2.474l.345-.228v-7.124l2.196-1.089.802-2.544h.762c.027 0 .167.002.382.018v-3.835c1.245-2.033 2.877-4.283 3.454-4.582a.988.988 0 0 0 .655-.338c.788-.885.49-4.954.073-8.365l3.44-3.411-2.265-2.014h-2.365l2.329 2.118-2.773 2.75.047.374c.37 2.947.598 6.46.364 7.424a2.02 2.02 0 0 0-.422.233h-5.526l-3.034 2.006-3.642-1.204-1.757-.58.057-2.791.02-.942-.042-3.033 3.25-6.355h-1.741L107.7 4.009l.023 1.742.024 1.656-.043 3.837-1.168 3.345-1.159 3.314-.306 1.137-1.544 5.71 2.125 6.325.574 3.407 1.422 8.464-.012.011.077.381.393 2.335.056-.111.447 2.216-6.085 1.533-1.247.313-5.097.004-6.307-2.085-4.362 1.081-8.872 4.873-.698-1.036-2.997-4.458-1.956-5.82 1.916-5.7 5.154-4.09 5.231-12.456 3.234-6.415-1.046-4.155 4.58-11.35h-1.669L83.855 9.284l1.024 4.059-3 5.954-5.101 12.14-5.2 4.126-1.975 5.877-5.916-2.515-.043-.108-.11.044-.428-.183-6.488-1.086-5.213 3.102h-7.772l-1.013-5.022-8.782-3.022-.306.874 8.278 2.849 1.058 5.246h8.795l5.14-3.059 5.426.897 1.778 4.408-3.993 1.98.08.643.178 1.405.824 6.535-.922 2.741-4.994 4.953-8.075 5.34.028-4.382-8.247-1.17-4.177 3.315v-5.579l-8.133 2.303h-3.921l.94-2.33.683-1.693 7.36-12.514-1.042-6.204 5.085-11.096 3.107-7.188L41.9 8.614l6.87-10.597h-1.846l-6.39 9.855-3.198 12.501-3.076 7.116L28.986 39l1.028 6.117-7.106 12.082-.043.105-.008-.003-1.587 3.935-4.576-5.445H12.07l.98-5.826-4.08-2.023 2.02-7.008-9.793-9.713L-8 28.199v1.622l8.403 2.79 8.844 8.77-2.124 7.367 4.206 2.084-1.092 6.498h5.73l4.648 5.53-.255.63h.784l.601.715.287-.715h4.653l6.47-1.802v6.742l6.178-4.9 6.247.885v4.34l-2.102 6.256 1.013 4.016-3.254 5.376 3.48 3.451 1.803 2.682-1.86 4.61-8.132 8.064-4.097 3.048-1.926 1.9H27.72l-3.57 1.138-3.586 4.447-5.865-9.693h-4.26l-3.825-3.793-3.049-6.048-7.354-5.323L-8 86.09v1.845l3.167 2.095 7.065 4.978 3.05 6.049 4.514 4.533h4.024l6.56 10.844 4.697-5.82 2.769-.916h3.302l2.259-2.24 4.098-3.049 8.478-8.397 1.919-4.758 8.6 4.738 4.442 2.203 3.12-3.094.44.19 3.85 1.655L71.907 99l.487.774 4.74 7.521 9.362 1.513-3.112 1.442-33.092 10.94h4.91l28.757-9.512 15.727-7.279 4.14-6.158 10.47-4.72.3.682.537-.924 8.517.213.958-1.518-8.59-.214zM217.639 22.974l4.268-5.927L227 13.006l3.244-5.268 9.326-9.722h-2.143l-8.371 8.728-3.135 5.147-5.069 4.02-2.499 3.447-.727 3.612.013.004M119.081 121.19h2.816l22.006-14.438c-.455-.326-.88-.671-1.266-1.018L119.08 121.19zM227.174 95.316l-.1-.138a60.054 60.054 0 0 0-2.596-2.31l3.14-2.945a1514.76 1514.76 0 0 1 4.95 5.089l-4.574 2.018-.82-1.714zm2.647-7.46c2.38 1.735 5.617 4.294 6.906 5.321l-3.254 1.435c-1.046-1.08-3.23-3.332-5.178-5.325l1.526-1.431zm9.516 4.168c-1.315-1.595-3.252-3.382-5.696-5.139-.193.004-.387.01-.568.05a4.877 4.877 0 0 1-.825.102c2.658 1.82 4.786 3.698 6.207 5.377l-.77.34c-.879-.702-4.492-3.581-7.176-5.545l.248-.232c-1.036-.123-2.172-.387-3.29-.71.131.077.256.147.395.233.322.2.73.478 1.19.803l-1.407 1.32c-.95-.968-1.799-1.829-2.368-2.394-.474-.469-.685-.78-.79-.954-.353-.131-.68-.258-.988-.38-.08.501.29 1.165 1.117 1.988.567.56 1.409 1.415 2.353 2.376l-3.213 3.015a65.255 65.255 0 0 0-9.277-6.288l-.285.904c.662.375 1.347.771 2.065 1.211l-4.708 5.644c-.606 1.376-1.203 2.646-1.671 3.454l7.172-8.597c2.91 1.84 6.152 4.206 9.317 7.187l4.98 10.42 5.486 2.177 4.06-1.007 6.115 5.057 9.297 2.047 6.762 6.707h1.318l-7.613-7.551-9.34-2.058-6.308-5.213-4.224 1.05-4.867-1.933-3.377-7.063 15.355-6.774c-.717-.287-1.41-.569-1.99-.809l-2.686 1.185z"/>
        <path fill="#16218E" d="M236.116 85.287a8.487 8.487 0 0 0-1.27-.354c-.747-.142-1.5-.166-2.234.001-.5.113-1.203.08-2.02-.05-1.001-.16-2.172-.467-3.36-.843-.047-.015-.095-.031-.143-.045a47.105 47.105 0 0 1-4.32-1.628l-.11-.395-.302-1.093-.401-1.446-.005-.002-.899-.232-4.863-1.258-.903-.234-.336-.086-.339 1.076-.286.91-1.698 5.381-1.071 3.396a157.898 157.898 0 0 1-2.106 4.991 62.508 62.508 0 0 1-.94 2.033c-.273.558-.485.95-.602 1.086-.006.006-.009.012-.016.018-.667.624-.495 1.468-.39 1.974.025.116.06.296.069.405-.126.056-.482.163-1.31.163-.57 0-1.55-.505-2.499-.993-1.39-.715-3.106-1.594-4.94-1.714a5.647 5.647 0 0 0-3.154.678c-.419.19-.918.285-1.027.05-.193-.42.17-1.718 1.983-2.772.213-.124.432-.247.686-.361.065-.029.115-.062.174-.094.898-.49.973-1.215.956-1.517-.084-1.513-2.472-2.598-4.46-3.242a20.168 20.168 0 0 0-3.34-.761c-2.008-.268-4.35-.191-5.54 1.246-.599.81-.98 1.635-1.188 2.44a5.23 5.23 0 0 0-.155.917c-.096 1.306.325 2.523 1.3 3.493.109.545-.389 2.133-1.135 3.688-1.113-.504-2.997-1.144-4.773-.807a4.593 4.593 0 0 0-.9.265 4.345 4.345 0 0 0-1.713 1.274c-.036.042-.063.087-.097.13a8.263 8.263 0 0 0-1.23 2.207c-.38.994-.614 2.028-.839 3.045-.082.37-.162.732-.25 1.089-.276 1.14-.619 2.203-1.247 3.098-.08.112-.157.226-.246.332l-.108.16c-.356.643-2.996 2.325-5.401 3.603-.922-.401-3.145-1.524-4.294-3.274-.07-.106-.148-.204-.208-.313-.066-.221.116-.711.44-1.307.35-.642.868-1.405 1.459-2.122.102-.124.203-.248.309-.368l.64-.737-.437-.424-.264-.254c-.04-.042-.768-.76-1.098-1.969-.021-.081-.032-.174-.05-.26-.072-.338-.12-.7-.106-1.103.12-.468.039-.946-.235-1.37-.56-.86-2.092-1.454-3.809-1.862-.297-.07-.599-.137-.903-.196a35 35 0 0 0-2.677-.414 45.664 45.664 0 0 0-1.55-.155l-.376-.03-.808-.062-.254.764c-.705 2.128-2.787 6.664-4.718 7.1-.849.191-1.881-.264-2.861-.936a12.979 12.979 0 0 1-1.249-.984 17.714 17.714 0 0 1-1.628-1.65 9.866 9.866 0 0 1-.253-.306l-.504-.636-.7.317-2.605 1.178-4.884-3.682-2.57 2.323-4.427-1.145-1.776-4.283-.172-.414.712-1.126.352-.559.442-.698.959-1.517 1.807-2.863.932-1.476 1.873-2.964.924-1.462.993-1.573.35-.252 2.732-1.978.858-.621 1.157-.838.081-.057-3.349-1.515-1.117-.506-.704-1.062-1.755-2.646-.884-.072-1.406-.116-1.45-.118-2.005-.167-2.218-.181.258-1.406.215-1.167.072-.393.652-1.18.47-.85.563-1.019-.658-2.38-.11-.402.477-.72 1.904-2.872-.885-2.243-.601-1.523-.408-1.032-2.393-6.063-.511-.154-1.58-.477V43.832l1.52-2.06.121-.883.137-.998.256-1.846.227-1.64.243-1.768.222-1.603.474-3.43-4.594-3.463 1.097-3.472c.87.134 2.3.522 3.117 1.63 1.608 2.182 8.74 8.7 13.137 8.904a1.9 1.9 0 0 0 .304.076c.572.093.952-.14 1.147-.318.03-.026.056-.051.077-.074.378-.403.424-1.053.285-1.804-.209-1.125-.84-2.485-1.48-3.64-.643-1.164.522-2.24.573-2.285.345-.312.52-.718.494-1.144-.05-.787-.712-1.253-1.295-1.664l-.24-.17c.043-.049.088-.097.128-.141.498-.543 1.25-1.365 1.25-2.59 0-1.555-1.321-3.601-3.396-4.71l1.113-1.678 2.18 1.302.222.132.489-.839.04-.07c.022-.036.53-.89 1.444-.89.267 0 .682.453.984.785.451.493.964 1.04 1.705 1.017.042 0 .081.004.123-.002.219-.025.49-.126.741-.345a1.6 1.6 0 0 0 .409-.537c.188-.033.77.17 1.086.28.298.107.622.22.952.291.6.131 1.218.123 1.734-.343.664-.6.543-1.587.375-2.95-.12-.967-.319-2.585.08-3.032.026-.028.105-.116.41-.116.153 0 .354.02.444.113.29.3.245 1.36.215 2.063-.045 1.042-.083 1.942.501 2.546.187.193.424.323.686.393.132.036.269.06.413.06.147 0 .342.011.572.031.33.028.733.074 1.177.132.301.04.62.084.95.132 1.617.235 3.456.552 4.363.715l.849.124.152-.384.159-.402c.01-.028.16-.368.61-.693.421-.3 1.102-.587 2.2-.587.752 0 1.57.093 2.427.195.081.01.157.016.238.026.484.058.982.113 1.483.159.31.028.62.047.93.06 1.806.078 3.601-.146 5.002-1.415 1.04-.94 4.884-1.407 8.51-1.157.549.038 1.089.096 1.616.167.921.124 1.798.296 2.57.53.42.128.8.277 1.15.439.463.214.87.452 1.175.729.044.04.088.084.131.125 1.072.998 2.138 2.321 2.608 2.928.154.2.247.326.251.33l.563.762.543-.328.268-.162c1.198-.721 3.146-1.728 4.728-2.278.69-.24 1.317-.401 1.77-.401l.25.002c1.437.017 4.166.175 6.797.392.408.034.813.068 1.211.105 2.47.224 4.63.49 5.202.72.122.097.29.21.479.328.368.231.842.495 1.363.767.007.003.014.008.022.01a73.457 73.457 0 0 0 2.908 1.42l.139.065-1.484 7.385-.118.582.693.157.29.065c1.051.238 2.224.811 2.322 1.12 0 .678.416 1.627 1.163 3.076a133.476 133.476 0 0 0 .865 1.65c.452.858.94 1.807 1.308 2.645.326.74.554 1.385.568 1.785 0 .01.004.029.004.04 0 1.251-1.336 2.345-1.847 2.658l-.28.169-.015.035-.116.262a9.292 9.292 0 0 0-.245.627 9.577 9.577 0 0 0-.501 2.174c-.08.792-.031 1.633.3 2.362.056.123.125.242.197.359.097.153.204.3.334.438.085.256.059.642-.035 1.073-.137.635-.42 1.36-.709 1.92l-.082.161-.368.666.534.543a88.626 88.626 0 0 0 1.934 1.903c.556.53 1.184 1.114 1.842 1.702.983.877 2.026 1.753 2.984 2.445.87.629 1.667 1.106 2.28 1.29 1.393.42 2.317.47 2.937.154l3.958 1.023-.31 1.403-.06.268-.347 1.576.119.08.455.311c.04.027 1.749 1.213 4.038 3.47a44.791 44.791 0 0 1 3.118 3.418 43.418 43.418 0 0 1 1.947 2.563 41.105 41.105 0 0 1 2.797 4.55c.185.353.361.723.54 1.088.443.907.869 1.84 1.253 2.824l.058.124a47.527 47.527 0 0 0 .963 1.669c.63 1.05 1.164 1.86 1.52 2.377.036.053.075.112.108.158l-.701 1.512-.688 1.479-.39.84-2 4.307a366.648 366.648 0 0 1-4.479-1.78 55.307 55.307 0 0 1-1.516-.64c-.023-.01-.058-.023-.08-.034a6.632 6.632 0 0 1-.731-.422 45.261 45.261 0 0 1-.731-.477c-1.168-.77-2.687-1.772-4.295-2.35zm12.525 8.18l.37.143 3.884-8.365.652-1.404.566-1.22-.363-.487c-.005-.008-.244-.334-.623-.897a50.014 50.014 0 0 1-2.144-3.516l-.004-.012c-.174-.442-.361-.866-.546-1.293a41.807 41.807 0 0 0-1.535-3.17c-.187-.347-.37-.699-.563-1.033a43.38 43.38 0 0 0-.793-1.317 44.486 44.486 0 0 0-2.442-3.528 52.61 52.61 0 0 0-.759-.971 45.227 45.227 0 0 0-4.51-4.802 35.986 35.986 0 0 0-2.705-2.264l.097-.438.33-1.492.423-1.917-2.725-.704-.948-.246-4.058-1.048v.587a7.385 7.385 0 0 1-1.01-.241l-.047-.018c-.231-.077-.521-.23-.855-.44-.268-.169-.562-.373-.88-.609a32.656 32.656 0 0 1-1.479-1.18 49.878 49.878 0 0 1-1.57-1.374 73.752 73.752 0 0 1-2.019-1.89c-.276-.269-.545-.53-.795-.78.33-.725.74-1.848.77-2.931.014-.532-.067-1.05-.297-1.51-.015-.032-.023-.066-.039-.096l-.083-.15-.126-.116c-.268-.241-.36-.696-.35-1.225.011-.592.151-1.275.347-1.878a8.84 8.84 0 0 1 .144-.414c.124-.089.284-.215.455-.357.725-.609 1.741-1.686 2.013-3.128.043-.234.074-.474.074-.726 0-.298-.054-.628-.145-.985-.31-1.228-1.115-2.82-2.224-4.914l-.392-.745a35.935 35.935 0 0 1-.842-1.692c-.175-.387-.296-.702-.306-.86 0-1.554-1.752-2.426-2.95-2.84a.063.063 0 0 1-.012-.004l.726-3.611.813-4.043-.746-.338c-2.186-.988-4.798-2.283-5.205-2.654-.46-.415-2.257-.741-4.448-.99a65.555 65.555 0 0 0-1.278-.134c-4.138-.398-8.967-.558-9.045-.558-2.017 0-5.243 1.659-6.769 2.512-.614-.772-1.645-2.001-2.696-2.95-1.161-1.052-3.171-1.754-5.444-2.144-3.414-.587-7.422-.457-10.074.315-.986.288-1.787.661-2.295 1.12-1.331 1.205-3.487.946-5.772.675l-.112-.013c-.31-.037-.624-.07-.937-.103a18.064 18.064 0 0 0-1.864-.12c-1.052 0-1.872.198-2.525.48-.33.142-.62.302-.865.476-.409.292-.71.61-.922.893-1.471-.258-4.684-.797-6.268-.9-.01-.258.006-.612.017-.876.051-1.176.113-2.637-.79-3.571-.476-.495-1.13-.745-1.937-.745-1.023 0-1.63.439-1.96.808-1.018 1.14-.779 3.082-.587 4.643.038.3.082.666.105.96-.141-.045-.292-.098-.414-.141-.815-.29-2.246-.796-3.192.178-.01-.013-.022-.024-.032-.036-.532-.582-1.334-1.46-2.52-1.46-1.128 0-2.005.526-2.586 1.093l-2.421-1.46-3.655 5.512 1.324.4c1.938.584 3.175 2.321 3.175 3.26 0 .402-.282.74-.712 1.21-.399.436-.852.93-.852 1.62 0 .833.72 1.34 1.299 1.747l.14.1c-.66.803-1.078 1.873-.949 2.984.05.438.178.882.42 1.32.511.927.939 1.942 1.16 2.637.005.014.013.033.017.047-3.54-.53-9.75-6.11-11.16-8.026-1.52-2.062-4.16-2.451-5.145-2.525a5.859 5.859 0 0 0-.382-.018h-.762l-.802 2.544-1.205 3.815 2.627 1.98 1.237.934.924.696-.22 1.59-.22 1.602-.224 1.612-.227 1.643-.245 1.774-.137.997-.173 1.247-.735.997-.874 1.187v6.048l2.035.613.565.17.307.776.927 2.35.366.928 1.07 2.709.857 2.17.004.012-.01.015-1.781 2.685-.517.78.038.141.368 1.333.223.805.165.597-.32.578-1.123 2.033-.008.043-.407 2.21-.602 3.27.6.049 1.46.12 1.338.109 1.995.163 1.467.12 1.048.087 1.328.11 1.14 1.719.888 1.339.204.308.588.267.468.21.731.332-.825.598L132 80.272l-7.392 11.703-.958 1.518-1.42 2.248 2.744 6.62 6.516 1.684 2.124-1.921 4.497 3.391 2.972-1.344c.37.419.908.986 1.553 1.563.387.347.812.694 1.267 1.018 1.415 1.009 3.104 1.773 4.735 1.404 3.03-.685 5.192-5.673 5.951-7.69 1.247.12 2.458.298 3.517.502.314.06.618.123.901.188 1.22.28 2.124.593 2.446.88l-.006.106c-.121 1.968.66 3.462 1.254 4.298-1.169 1.45-2.777 3.885-1.911 5.452 1.73 3.132 5.851 4.652 6.026 4.716l.428.155.405-.21c1.322-.683 5.64-2.999 6.627-4.565 1.291-1.592 1.71-3.488 2.116-5.32.374-1.695.728-3.296 1.742-4.52.142-.171.302-.303.468-.42.27-.188.568-.31.882-.38 1.885-.42 4.32 1.008 4.35 1.026l.926.554.52-.938c.785-1.424 2.514-4.923 1.562-6.646l-.082-.15-.128-.116c-.631-.57-.84-1.22-.83-1.847.005-.316.066-.623.158-.913.2-.63.543-1.171.774-1.486.38-.457 1.487-.661 2.957-.546.39.03.783.086 1.172.151a18.925 18.925 0 0 1 2.51.62c.933.308 1.73.656 2.282.968.147.084.285.166.393.242-.033.016-.06.039-.094.056-.295.154-.569.318-.825.49-2.282 1.527-3.04 3.665-2.373 5.116.505 1.099 1.865 1.828 3.84.933.45-.246.904-.37 1.359-.425.31-.038.62-.05.932-.02 1.312.13 2.63.804 3.92 1.468 1.277.657 2.38 1.223 3.453 1.223 1.404 0 2.275-.26 2.819-.807.043-.043.099-.077.139-.123.313-.382.41-.8.419-1.186a4.08 4.08 0 0 0-.107-.92c-.016-.077-.037-.177-.05-.259.118-.152.252-.36.4-.614.467-.809 1.064-2.078 1.67-3.454a158.251 158.251 0 0 0 1.954-4.673l.689-2.182.285-.904 1.859-5.882 3.938 1.019.751 2.719.442.2a51.122 51.122 0 0 0 3.018 1.232c.904.339 1.93.69 2.98.994 1.118.322 2.254.587 3.29.71a8.93 8.93 0 0 0 1.491.059c.294-.015.573-.044.825-.101.181-.04.375-.047.568-.051 1.813-.038 4.075 1.44 5.622 2.462.712.472 1.276.844 1.75 1.059.252.113.606.264 1.01.434.58.24 1.274.52 1.99.808.95.38 1.93.766 2.693 1.065.775.304 1.328.518 1.397.546l.538.207z"/>
    </g>
</svg>
