<svg xmlns="http://www.w3.org/2000/svg" width="360" height="122" viewBox="0 0 360 122">
    <g fill="none" fill-rule="evenodd">
        <path fill="#DFE7EA" d="M360 121.5H0V12C0 5.373 5.373 0 12 0h336c6.627 0 12 5.373 12 12v109.5z"/>
        <path fill="#A9E3F7" d="M106.165 120.23l-.256-.297c-7.876-1.593-13.663-4.07-18.817-6.28-1.431-.613-2.817-1.207-4.188-1.756-21.196-6.681-41.271 1.662-51.192 7.105l.52 2.499h87.225c-4.941-.2-9.244-.73-13.055-1.474l-.237.204M236.94 95.383c-16.114 1.27-35.815 7.604-54.99 13.78-16.846 5.426-32.76 10.55-44.917 11.742-2.03.2-3.97.347-5.843.457l-.022.138h54.133c18.86-6.873 37.493-12.957 52.976-14.082l-1.337-12.035zM239.435 95.21l1.339 12.044-.364.04c1.615-.07 3.2-.088 4.739-.036 18.118.584 35.39 6.623 49.257 14.242h21.221c-20.337-15.715-43.605-24.521-69.487-26.247-2.142-.144-4.382-.15-6.704-.042"/>
        <path fill="#B4EF95" d="M146.572 62.443c-.917.264-1.543.845-1.92 1.297l10.587 6.395 1.919-2.629-6.163-4.109c-1.654-.992-3.153-1.32-4.423-.954"/>
        <path fill="#B4EF95" d="M146.132 61.01c1.693-.496 3.6-.119 5.664 1.12l6.247 4.164 4.99-6.838c-7.455-3.515-15.38-7.26-23.497-11.103l-2.16-.984-9.183 6.426 15.164 9.162c.493-.643 1.386-1.542 2.775-1.948M134.004 69.975c.647.432 1.646 1.082 2.827 1.847l5.48-7.391.164-.254-7.103-4.291-9.585 5.324c2.48 1.03 5.19 2.563 8.217 4.765M35.379 94.355l4.409-1.697c2.034-.86 4.585-1.936 7.492-3.16l-4.848-5.038-10.654 5.79 3.6 4.105zM30.518 91.088l-.059.385.956.636zM101.139 71.603l.768-.671a18.93 18.93 0 0 1 .067-2.302c-3.387 1.294-8.031 3.15-13.31 5.296l.853.489c1.302.67 3.098 1.598 5.199 2.694l6.423-5.505zM87.005 72.978c.699-.284 1.384-.563 2.062-.837l-2.352.671.29.166zM74.652 95.28c-1.055.748-2.17 1.542-3.322 2.365l11.124 11.21 3.297-2.39-11.1-11.186zM57.482 107.607c6.993-1 14.643-.979 22.53.918l-9.918-9.997a2876.964 2876.964 0 0 0-12.612 9.08M146.66 16.867c-.513.53-4.264 4.5-5.805 8.751l7.392 1.85-.138.551a653.04 653.04 0 0 0 5.752-9.809 90.744 90.744 0 0 0-7.12-1.404l-.081.061zM141.887 37.783c1.318-1.757 3.534-5.304 5.72-8.93l-7.175-1.794c-.02.088-.048.177-.066.265-.826 4.132-2.54 10.008-7.79 14.963l2.267 1.074c1.586-.922 5.271-3.213 7.044-5.578M278.512 80.916l-11.914 14.725.065.024c4.1.913 8.125 2.02 12.076 3.319l8.113-13.33-8.34-4.738zM288.156 86.395l-7.964 13.084a125.191 125.191 0 0 1 10.55 4.153c1.105-1.72 3.787-6.046 6.74-11.938l-9.326-5.299zM304.621 35.312l-23.142 5.261 26.286 4.205c-.6-3.281-1.619-6.461-3.144-9.466M192.595 58.615l-8.357-3.552-6.056-2.329.139-.185-14.15-6.014-1.73 2.811 27.624 12.431zM256.264 66.12l-6.327-7.478-6.14-6.876-4.265 3.2zM192.105 103.295c5.937-1.868 11.85-3.654 17.633-5.218l-12.594-1.841-5.04 7.059zM164.016 60.654l-2.79 3.823c1.3.736 5.302 3.02 7.179 4.328l1.068-6.315-.131-.06-5.326-1.776zM207.184 57.196l13.385 4.462 7.449-5.32-9.25-3.649-9.354-3.302zM58.797 38.266l-.29-.333 5.339-4.635L44.28 22.346l-5.07 6.26 19.308 9.653zM231.106 15.358l-.787-.488-18.792-10.739-5.117 6.823 24.286 12.721c.43-1.079 1.202-5.463.41-8.317M232.003 24.356l-.002.003.002.001v-.004zM304.127 29.695c.842 1.169 1.584 2.405 2.271 3.675l1.346-.306 8.62-2.155c-3.678-7.51-7.87-12.224-9.21-13.63a843.372 843.372 0 0 0-12.377 2.537c3.512 2.923 6.703 6.202 9.35 9.879"/>
        <path fill="#C7D4D8" d="M194.625 47.061l-9.751-3.25-5.626 7.501 14.105 5.995 1.185-1.779.087-8.467M184.237 55.063l-5.917-2.515-.139.186zM219.453 88.429l8.924 2.23V88.06c-5.359-1.245-10.156-3.304-13.683-4.822l-.272-.118a66.155 66.155 0 0 0-1.478 7.576l5.394 1.079 1.115-3.347zM229.492 73.928h5.063l-1.115-10.04h-3.948zM241.763 78.39l8.923-1.115v-3.347l-8.923 1.115zM259.61 61.658l3.346 2.23.78-.389c.17-.602.322-1.174.463-1.713l-2.359-2.359-2.23 2.231zM160.334 85.082l2.231-3.346-6.692-3.346-2.231 3.346zM179.564 75.297l4.472-5.964a7875.04 7875.04 0 0 1-11.44-5.372l-1.107 8.852 8.075 2.484zM190.082 72.16c-1.491-.696-3.05-1.426-4.658-2.178l-4.337 5.783 4.903 1.51 4.092-5.116zM334.546 84.356l15.606 7.459L352 83.5l-16.043-7.449a100.63 100.63 0 0 1-1.25 7.016l-.161 1.288zM174.835 43.81l2.231-3.346 2.637.88 2.118-3.226-4.882-1.925-4.335 6.503zM83.368 78.39l-6.224 3.112 11.612 10.695 7.998-6zM115.716 99.583l-2.23-1.115-5.578 8.924 2.231 1.115 2.231-3.347 4.846 2.908a161 161 0 0 0 1.807-1.816l-5.538-3.322 2.231-3.347zM180.413 104.045l-1.116-3.347-5.273 1.649-12.375 5.12.863 5.178a505.06 505.06 0 0 0 7.71-2.363l-.964-2.89 11.155-3.347zM275.226 41.58l-5.577-1.115-1.115 2.23-5.578-1.115-1.115 3.347 11.155 3.346zM335 39.5l6-2-1.529-4.746 4.237-.961-.562-4.515L332 29.5zM305.36 72.068l-3.649-1.744-.83 2.488-8.923-4.462-1.52 3.797L302.89 79.4a103.807 103.807 0 0 0 2.47-7.332M289.727 76.16l-2.23-1.117-4.462 6.693 2.23 1.115 1.115-2.23 2.232 1.115 1.598-1.598.443-.728-2.041-1.02zM314.505 92.722l-2.86-1.43-1.442 2.883-5.766-2.883 1.442-2.883-2.884-1.442-2.388 4.777 11.226 6.379 2.415-4.828c.086-.187.17-.384.257-.573M269 31.5l7-3-2.706-3.608c-2.883.809-5.181 1.564-6.434 2.19-.332.166-.755.387-1.236.658.539.657 1.268 1.529 2.128 2.512L269 31.5zM285.265 19.271l-13.385-4.462-5.578 3.346 8.449 3.756c3.044-.81 6.505-1.647 10.013-2.452l.5-.188zM243.993 12.578l6.692-4.462 6.694 3.347 3.345-3.347-12.269-4.462-8.924 6.693zM210.53 39.349l-7.809 1.116.125.499 2.02 3.816 6.78-.97zM36.583 39.193l-15.896-.41-.349 6.967h17.498c-.203-2.329-.61-4.557-1.253-6.557M164.796 34.887l-4.91-1.964-2.277 3.328 4.956 1.982zM120.178 30.425l-5.813-2.906-3.75 3.588 6.217 2.664zM105.99 32.448l-4-1.899 3.687 2.107.312-.208zM99.684 26.683l8.733 4.147.607-.404.09.039 3.826-3.658-8.378-4.19-4.878 4.066zM92.292 33.772l6.693 4.462 2.231-2.232-6.693-4.462zM74.445 65.004v-3.346h8.83c.015-.238.035-.476.04-.716a21.37 21.37 0 0 0-.237-3.746h-8.633v-4.012l-4.91.15-.667 4.44v7.23h5.577zM91.177 47.157V43.81H87.83v2.231h-5.577v4.403l18.963-.579v-2.708zM74.514 14.717l6.783 3.226 3.187-4.25-5.615-2.807-.526.006-3.77 3.745-.06.08zM30 83.5l7.118-4.562-5.791-6.016-2.158.801-6.179 2.747zM33.378 72.889l.774.805-.625-.938c-.05.044-.098.09-.149.133M128 89.5l9.604 4.803 5.869-8.042L133 81.5zM48 96.5l6 6 4.185-1.674-9.788-10.169a7459.823 7459.823 0 0 0-7.98 3.365L44 98.5l4-2z"/>
        <path fill="#F5FBFF" d="M351.425 23.135l-20.708 4.707 9.265-15.85 11.443 11.143zm5.372 44.499l-.071-.02-7.368-2.547-4.83-38.826 7.95-1.807 4.319 43.2zm-19.88-5.161c.074-13.121-2.284-24.116-5.79-33.186l11.933-2.712.087.704.56 4.514 4.17 33.526-10.96-2.846zm7.48 28.253l-9.012 20.779-8.684-4.933a108.234 108.234 0 0 0 7.384-20.774l10.312 4.928zm7.23 3.678l-7.41 22.12-7.521-4.274 8.97-20.684 5.96 2.838zm7.442 3.335l-8.008 22.673-5.516-3.133 7.509-22.415 6.015 2.875zm-34.542 7.597l-10.45-5.937a93.952 93.952 0 0 0 7.737-19.466l9.966 4.764a105.44 105.44 0 0 1-7.253 20.639zm-12.68-7.204l-.014-.01-11.226-6.378-.253-.143c1.882-3.824 3.829-8.22 5.527-12.93a102.782 102.782 0 0 0 1.793-5.497l11.822 5.65a92.847 92.847 0 0 1-4.991 13.898c-.086.189-.171.386-.257.573a91.425 91.425 0 0 1-2.4 4.837zm-8.042 12.29a126.584 126.584 0 0 0-10.771-5.73c1.236-1.932 3.82-6.144 6.65-11.746l11.446 6.503c-3.241 5.836-6.186 9.603-7.325 10.974zM280.193 99.48l7.963-13.083 9.327 5.299c-2.954 5.892-5.635 10.217-6.742 11.938a124.832 124.832 0 0 0-10.548-4.154zm-13.53-3.814l-.072-.016.007-.008 11.914-14.725 8.34 4.739-8.114 13.33c-3.95-1.3-7.975-2.407-12.075-3.32zm-11.604-2.035l7.144-14.29 10.19 5.162-8.552 10.57a132.602 132.602 0 0 0-8.782-1.442zm-8.752-.871c-2.286-.152-4.675-.155-7.148-.035l-.401-3.61c7.13-.348 14.454-3.236 20.66-11.183l1.447.732-7.381 14.764a140.183 140.183 0 0 0-7.177-.668zm-7.824-6.126l-3.04-27.358 26.06 10.66c-.561 1.285-1.176 2.444-1.833 3.322-6.16 9.679-13.748 13.025-21.187 13.376zm-26.474 10.836l.034-.116h.353c0-.071.015-2.73.549-6.656a65.918 65.918 0 0 1 1.477-7.576l.273.118c3.526 1.518 8.324 3.577 13.682 4.822 2.523.586 5.168.986 7.867 1.067l.419 3.77c-7.616.609-15.96 2.3-24.654 4.57zm-16.274-5.444l-.066.089c.02-2.294.09-9.284.172-17.273 8.312 3.859 13.9 6.4 15.365 6.949.534.2 1.134.447 1.786.72-1.65 6.295-2.003 11.756-2.076 13.896l-15.181-4.381zm14.003 6.052c-5.784 1.564-11.697 3.35-17.633 5.218-1.203.379-2.406.76-3.61 1.143l7.829-10.681 14.216 4.103c-.266.07-.534.145-.802.217zm-28.555 8.706a1522.833 1522.833 0 0 1-10.961 3.499 505.13 505.13 0 0 1-7.711 2.363c-9.588 2.846-18.397 5.053-25.723 5.772-.694.069-1.373.128-2.05.185l26.91-11.135 12.376-5.12 20.302-8.401-7.891 10.767.364.267c-1.875.6-3.748 1.202-5.616 1.803zm-48.605 4.068c.244-2.684.194-4.99-.128-7.045l2.39-3.187 14.464 10.332-17.634 7.297c.383-2.618.703-5.142.908-7.397zm-16.302-23.54c-12.822-6.411-12.143-16.565-11.732-19.164l38.982 18.04-.053.074-5.868 8.042-3.526 4.83-2.042 2.723c-1.738-6.405-6.824-10.076-15.761-14.545zm13.813 23.313c-.23 2.52-.605 5.387-1.054 8.345-8.065.352-14.648-.12-20.202-1.052 6.624-5.814 16.678-15.166 18.568-19.904 2.449 3.154 3.203 6.943 2.688 12.61zm-42.012.732a190.95 190.95 0 0 0-4.131-1.73l29.032-21.058c5.967 3.289 10.763 6.075 12.554 7.437.265.24.507.487.748.734.372.994-2.492 4.64-7.257 9.513-.575.589-1.178 1.195-1.806 1.817-2.95 2.919-6.456 6.172-10.275 9.505-7.947-1.543-13.73-4.018-18.865-6.218zm-5.623-2.5L71.33 97.646c1.153-.823 2.267-1.617 3.322-2.366l11.099 11.184-3.297 2.392zm-24.972-1.248c4.053-2.934 8.526-6.156 12.612-9.08l9.919 9.998c-7.888-1.897-15.538-1.918-22.531-.918zm-9.135 1.922l.194-.171L36.53 95.666c.882-.373 2.21-.935 3.888-1.643a5172.74 5172.74 0 0 1 7.979-3.366l9.788 10.169 2.507 2.606a3739.799 3739.799 0 0 0-6.528 4.729c-2.008.387-3.95.849-5.817 1.369zm-22.108 9.8l4.22-27.857.059-.385.897 1.022 15.614 17.798c-9.658 2.87-17.128 7.102-20.79 9.422zm-7.194-41.846l10.125-3.761 2.157-.801 5.79 6.017 3.516 3.652-10.677 5.804-10.911-10.911zM13.439 97.37l-2.53-16.866 6.589-2.446L28.58 89.142 13.439 97.37zm-2.38-31.18l6.78-.488-.541 10.829-6.535 2.427.296-12.767zm.223-9.638l7.018-.077-.385 7.719-6.822.49.189-8.132zm8.064 9.042l16.263-1.171c-1.056 3.019-2.396 5.396-3.893 6.604l.093.115-.082.03-.186-.193-.444.427-12.27 4.557.519-10.37zm.457-9.135l17.713-.194c-.325 2.342-.805 4.59-1.41 6.619l-16.684 1.2.38-7.625zm.46-9.21h17.678c.123 2.476.033 5.03-.237 7.514l-17.826.195.386-7.71zm.424-8.467l15.896.41c.643 2 1.05 4.228 1.253 6.557H20.339l.348-6.967zm15.15-6.012l3.374-4.165 5.069-6.26 19.566 10.952-5.338 4.636.289.332-.28-.007-19.79-.51c-.03-.088-.057-.18-.09-.266-.73-1.61-1.677-3.184-2.8-4.712zM52.882 16.93l18.063 10.202-5.896 5.12-19.422-10.87 7.255-4.452zm8.936-5.483c5.308 2.527 11.23 5.345 17.563 8.357l-7.235 6.284-17.803-10.055 7.475-4.586zm14.368-.527l-3.126 3.106-6.277-2.987 9.403-.12zm2.156-.027l.527-.007 10.958-.138c1.622 3.16 2.607 6.253 3.208 8.824-2.401.553-4.305 1.02-5.526 1.325l-6.212-2.953-6.783-3.226-.014-.007.073-.073 3.769-3.745zM85.26 4.02a32.282 32.282 0 0 1 3.752 5.238l-9.14.115L85.26 4.02zm37.719 6.308l.804 4.02c-9.93.809-21.581 3.152-29.291 4.892a40.657 40.657 0 0 0-3.01-8.513l31.497-.4zm1.468 5.474L112.94 26.806l-3.825 3.659-.487.465-.211-.1-8.733-4.147-4.301-2.044a38.5 38.5 0 0 0-.574-3.934c7.808-1.763 19.682-4.148 29.638-4.903zM148.87 10l.132 1.985-3.92 2.94-.122.106a109.596 109.596 0 0 0-14.744-.972c-1.56 0-3.211.063-4.927.177l-.785-3.927 24.366-.31zm2.717 3.172l-.01-.132c5.023-.58 22.318-1.652 37.805 8.3l-8.288 1.506a3.222 3.222 0 0 0-2.312-.98 3.232 3.232 0 0 0-3.221 3.098c-2.673-1.208-12.07-5.431-14.99-6.404-3.06-1.02-7.134-2.136-12.166-3.003l3.182-2.385zm39.789 9.329l8.737 16.508-13.663-5.856-5.093-6.111a3.207 3.207 0 0 0 .66-1.94c0-.304-.056-.594-.135-.874l9.494-1.727zm16.742-8.958l21.26 11.136c-2.361 1.465-7.566 4.487-11.48 6.727l-5.481-1.893-.308.54c-3.73 6.528-10.7 5.588-12.24 5.288l-6.962-13.153 15.21-8.645zm22.779 11.932l14.834 7.77 8.262 10.63-34.213-11.818c3.762-2.158 9.092-5.25 11.117-6.582zm1.105-1.118c.574-1.345 1.126-4.524.893-7.344 2.203 1.886 5.99 4.65 9.882 7.382l-.012.079.159.024a613.43 613.43 0 0 0 12.864 8.744c-1.58 2.543-2.26 5.266-1.935 8.009l-7.138-9.183-14.713-7.707-.002-.001c0-.001 0-.002.002-.003zm29.583 2.964c-2.028 1.432-3.683 3.01-4.946 4.686a598.83 598.83 0 0 1-10.354-7l15.3 2.314zm2.734 1.199c2.172 2.678 7.85 9.34 12.822 12.43l-2.896 9.922-16.48-5.693c-.687-1.334-1.19-2.632-1.385-3.805-1.01-6.06 4.259-10.527 7.939-12.854zm2.54-1.438c1.253-.626 3.55-1.381 6.434-2.19 2.683-.752 5.87-1.551 9.217-2.341l-4.934 16.908c-3.414-2.231-7.221-6.231-9.825-9.207-.86-.983-1.59-1.854-2.128-2.512.482-.271.905-.492 1.237-.658zm24.735-6.582c4 3.104 7.61 6.639 10.503 10.656a31.222 31.222 0 0 1 1.785 2.786l-24.777 5.632 5.082-17.415c2.466-.571 4.98-1.131 7.407-1.66zm15.559-3.22c1.34 1.405 5.532 6.12 9.21 13.629l.088.176-8.708 1.979-1.346.306c-.687-1.27-1.43-2.506-2.271-3.675-2.647-3.677-5.838-6.956-9.35-9.88a839.49 839.49 0 0 1 12.377-2.534zm15.403 41.464l-11.701-3.04c.403-7.902-.84-14.95-3.743-20.958l9.99-2.271a60.37 60.37 0 0 1 5.454 26.269zm2.187 5.38c.109-1.084.182-2.148.236-3.202l9.43 2.449c-.021 1.493-.07 3.01-.158 4.559a95.895 95.895 0 0 1-2.124 15.269l-9.93-4.745a95.722 95.722 0 0 0 2.546-14.33zm-13.966-6.89L322.5 60.28a63.615 63.615 0 0 1-.245 3.597 91.738 91.738 0 0 1-2.375 13.47l-11.775-5.628c1.425-5.08 2.32-9.921 2.672-14.483zm-17.99.81l1.194-5.17 14.324 3.719a64.915 64.915 0 0 1-.927 7.1l-14.591-5.648zm-1.32 5.722l.98-4.245 14.639 5.667a83.97 83.97 0 0 1-1.308 5.418l-14.31-6.84zm-1.03 8.382l-.796-.464 1.48-6.42 10.589 5.06 3.65 1.745a105.192 105.192 0 0 1-2.47 7.332l-12.452-7.253zm3.419 4.883l8.117 4.728a131.406 131.406 0 0 1-3.825 8.589l-9.212-5.234 4.92-8.083zm-8.294-4.83l6.997 4.076-1.907 3.133-.443.728-2.578 4.234-8.164-4.638 6.095-7.533zm-21.726-1.348c1.586-3.646 2.734-8.086 3.299-10.513l16.282 10.535-6.154 7.607-13.427-7.63zm7.687-10.651l-4.427-2.864c-.613-.624-5.187-5.348-8.191-10.178l14.919 5.154-2.301 7.888zm18.213 4.399l-1.452 6.293-2.366-1.378-13.081-8.464 1.159-3.974 15.74 7.523zm1.298-5.627l-.953 4.13-15.66-7.485.808-2.763 15.805 6.118zm1.495-6.477l-1.154 5-15.724-6.086.893-3.064 15.985 4.15zm1.85-8.022l-1.513 6.56-15.901-4.13 1.55-5.314c1.567.483 5.542 1.308 15.865 2.884zm13.655 1.99c.392 2.82.492 5.702.36 8.602l-14.075-3.655 1.548-6.712c3.387.51 7.406 1.096 12.167 1.766zm-27.062-5.777l.507-.115 23.14-5.261c1.527 3.006 2.545 6.185 3.145 9.467.008.045.018.09.026.138-9.058-1.285-21.554-3.173-26.818-4.23zm-46.954-2.125l21.356 7.377c2.66 5.382 7.933 11.074 9.565 12.767a87.806 87.806 0 0 1-1.204 4.792c-.548 1.935-1.247 4.106-2.062 6.038l-27.655-30.974zm8.723 12.022l1.055 1.18 6.14 6.877 6.949 7.784-21.28-8.705 7.136-7.136zm-8.655 6.533l-28.676-11.31-.545-1.028-2.02-3.816-2.118-4.003c2.799.259 8.773.05 12.362-5.628l4.207 1.453.298.522.457-.261 13.145 4.54-.033.03 10.577 11.848-7.654 7.653zm-15.6 15.236l16.836 8.484.645 5.8c-7.724-.297-15.09-3.458-20.284-5.695l-.58-.25c.84-2.76 1.94-5.61 3.383-8.34zm-7.067-7.8l7.644 3.875c-2.46 3.71-4.18 7.775-5.38 11.66a48.528 48.528 0 0 0-1.6-.64c-.723-.271-2.515-1.057-5.183-2.268l4.519-12.627zM232 57.907l.812.32.629 5.662 1.115 10.039.57 5.13-15.911-8.018a33.516 33.516 0 0 1 3.056-4.451c3.996-4.995 8.963-8.202 9.729-8.682zm-26.552-10.47l13.32 5.253 9.25 3.647 2.27.896c-1.85 1.255-5.805 4.19-9.183 8.413a33.336 33.336 0 0 0-1.178 1.539l-9.347-4.738-5.05 14.11c-1.522-.693-3.27-1.498-5.221-2.4l5.139-26.72zm-9.29-3.664l7.87 3.104-5.122 26.63c-.967-.447-1.984-.92-3.038-1.41.129-12.596.274-26.566.29-28.324zm-10.365-5.7l1.47-2.94 13.97 5.987 2.034 3.844-17.474-6.891zm7.56 19.234l-14.105-5.994-3.36-1.428 7.359-11.204 12.44 4.906-1.026-.011c-.003.29-.015 1.549-.036 3.485l-.087 8.468-.023 2.272-1.162-.494zm-6.324 10.666l7.477-9.346-.131 12.776c-2.28-1.063-4.736-2.21-7.346-3.43zm-2.213 19.03l8.052-13.544 1.48.689c-.08 7.826-.15 14.8-.175 17.535l-9.357-4.68zm-17.363 9.858l16.318-8.704 9.337 4.669-40.186 16.628 14.53-12.593zm-9.798 6.505l-7.404 6.417-14.52-10.37 3.942-5.4 17.982 9.353zM144.914 86.83l20.745 9.6-6.785 5.88-18.307-9.523 4.347-5.957zm-37.915-19.99l.57-.162c7.447-2.136 13.878-3.981 25.579 4.527 2.716 1.812 11.392 7.348 14.503 9.33l-3.223 4.417-38.44-17.79c.4-.134.743-.244 1.01-.321zm-17.932 5.3l-2.062.839a2290.846 2290.846 0 0 0-9.398 3.855c3.02-3.007 4.862-6.12 5.917-9.095l.066.213 43.155-13.28 7.148 4.319-9.671 5.373.175.315c-6.854-2.416-11.945-.962-17.241.558l-.57.163c-2.246.64-9 3.285-17.52 6.74zm7.158 5.758l5.827-5.1c.097.762.245 1.572.463 2.418.639 2.475 1.98 5.538 4.707 8.507-3.867-2.08-7.717-4.11-10.997-5.825zm-7.613-3.95a.811.811 0 0 0 .052-.022c5.279-2.146 9.923-4.001 13.31-5.295a18.924 18.924 0 0 0-.067 2.3l-.768.673-6.341 5.549c-.028-.015-.055-.03-.082-.043a1251.614 1251.614 0 0 0-6.104-3.162zm.144 18.249L77.145 81.502l-2.134-1.966a2477.51 2477.51 0 0 1 11.976-4.926l-.077.149c7.258 3.722 16.76 8.71 24.614 13.01L96.098 98.958l-7.342-6.761zm-5.4-2.933L94.86 99.858l-7.88 5.715L75.892 94.4c3.755-2.658 6.577-4.614 7.465-5.137zm-9.873-9.095l8.775 8.082c-1.941 1.153-6.9 4.585-20.338 14.293L49.88 90.033a5221.047 5221.047 0 0 1 23.603-9.864zm-29.8 3.428l24.683-23.695-.522-.543.417-.156.415-.154.192-1.274.668-4.441 4.909-.15 7.553-.23c.338.905.8 2.38 1.08 4.243.17 1.123.273 2.382.238 3.745-.006.24-.026.478-.04.716-.388 6.557-3.771 12.27-10.07 16.998a4980.35 4980.35 0 0 0-24.443 10.217l-5.08-5.276zm-1.251.863l4.848 5.037c-2.907 1.225-5.458 2.302-7.492 3.16l-4.3 1.822-.11-.124-3.6-4.105 10.654-5.79zM63.73 60.886L41.95 81.795l-7.797-8.101-.774-.805c.05-.042.099-.09.149-.133a9.797 9.797 0 0 0 1.024-1.032L63.73 60.886zM40.18 54.23l27.832-.85-.688 4.57-.612.229-.078-.081-.185.179-30.396 11.29c2.225-3.85 3.63-9.532 4.128-15.337zM72.05 40.108c-2.65 4.164-3.033 8.343-2.978 10.739l-28.731.877c.184-4.503-.187-8.922-1.146-12.463l32.855.847zm1.127-1.587l-.09.114-12.72-.328 4.87-4.231 7.94 4.445zm7.246-6.038a30.547 30.547 0 0 0-4.226 2.944 21.24 21.24 0 0 0-2.028 1.93L66.44 33.03l5.89-5.117 8.092 4.569zm47.64 10.437l-7.254 6.348-19.592.598-18.963.579-11.663.356c-.043-3.03.668-9.307 6.566-14.222 6.347-5.288 15.218-7.872 23.107-6.85l1.727.82 3.999 1.899c7.262 3.448 14.686 6.97 22.074 10.472zm10.044-16.86c-.068.259-.14.515-.19.774-1.261 6.3-3.685 10.733-7.798 14.289-6.69-3.171-13.422-6.363-20.04-9.505l.536-.511 3.75-3.588 11.258-10.764c3.23 2.352 10.427 7.632 12.484 9.306zm.487-1.527c-2.784-2.2-9.745-7.283-11.87-8.832l.05-.048c1.188-.06 2.34-.094 3.444-.094 4.99 0 9.494.32 13.505.822-1.457 1.682-3.84 4.755-5.13 8.152zm9.516 3.487l.138-.553-7.392-1.848c1.54-4.253 5.292-8.222 5.805-8.752l.08-.06c2.623.41 4.998.893 7.12 1.404a658.344 658.344 0 0 1-5.751 9.809zm.4 9.878c-1.837 3.675-6.125 6.789-8.002 8.145l-4.03-1.908c1.906-1.167 4.948-3.235 6.61-5.451 3.273-4.363 11.623-18.936 12.286-20.094 1.405.366 2.684.739 3.833 1.105-2.035 3.397-9.71 16.229-10.697 18.203zm22.659-5.593l-14.362-5.664c1.71-2.873 3.224-5.403 3.857-6.46 3.299 1.215 11.62 4.95 14.203 6.115l-3.698 6.009zm-8.726 17.042l1.73-2.811 14.149 6.013 5.917 2.515 8.357 3.55-2.53 3.164-27.623-12.431zm-3.37 5.474l2.577-4.186 27.449 12.352-3.465 4.332c-7.788-3.65-16.84-7.91-26.56-12.498zm16.903 27.762l5.112-6.817 4.337-5.783a4148.89 4148.89 0 0 0 6.078 2.84L183.47 86.33l-7.496-3.748zm-.94 1.207l7.09 3.545-15.121 8.065-1.064-.493 9.096-11.117zm-19.394-11.66l18.067 10.916-9.173 11.21-18.72-8.662 9.826-13.463zm-11.86-7.164l10.57 6.387-5.814 7.969a2793.205 2793.205 0 0 1-10.443-6.685l5.687-7.671zm-1.306-.79l.017.01-.181.245-5.48 7.39a299.071 299.071 0 0 1-2.826-1.846c-3.027-2.202-5.738-3.735-8.218-4.765l9.585-5.325 7.103 4.292zm12.764 5.96l-10.586-6.396c.376-.452 1.002-1.033 1.919-1.296 1.27-.367 2.769-.038 4.423.954l6.163 4.109-1.92 2.629zm15.643-6.981c.577.27 1.145.539 1.714.806a7875.04 7875.04 0 0 0 11.44 5.372l-4.472 5.964-4.921 6.563-6.281-3.795 2.52-14.91zm-2.477 5.65l-1.424 8.426-10.453-6.316 4.698-6.438 2.79-3.823.398-.546 4.928 2.322.13.06-1.067 6.315zm-18.76-23.571l-2.652 3.878-4.942-2.338c1.053-.773 2.483-1.872 3.888-3.208l3.707 1.668zm2.583-3.774l-1.721 2.516-3.44-1.548a19.487 19.487 0 0 0 1.899-2.355l3.262 1.387zm.864-1.263l-3.352-1.425c.037-.068.077-.135.11-.203.563-1.124 3.475-6.07 6.179-10.622l4.288 1.69-7.225 10.56zm1.409.598l3.109-4.544 2.276-3.327 1.862-2.721 8.62 3.4-6.797 11.047-9.07-3.855zm5.769 9.219l-2.561 4.163a16227.98 16227.98 0 0 1-9.343-4.416l2.67-3.902 9.234 4.155zm-8.373-5.413l1.739-2.543 9.14 3.885-1.713 2.783-9.166-4.125zm-14.52 2.769l.032-.023 2.127 1.007c8.118 3.842 16.042 7.587 23.497 11.102l-4.99 6.838-6.246-4.164c-2.066-1.24-3.972-1.615-5.664-1.12-1.39.406-2.283 1.305-2.775 1.947l-15.164-9.161 9.183-6.426zm-4.801-5.083c5.249-4.954 6.964-10.83 7.79-14.963.018-.088.046-.176.066-.265l7.175 1.794c-2.186 3.626-4.402 7.174-5.72 8.93-1.773 2.365-5.457 4.657-7.044 5.579l-2.267-1.075zm-9.567 8.376l7.516-6.577 5.328 2.524-9.031 6.357-3.813-2.304zM83.56 52.906l38.219-1.167.044-.04 3.2 1.935L83.986 66.26c1.595-5.783.413-10.867-.425-13.355zm91.13-3.53l-9.724-4.133 6.82-11.082 5.152 2.033 4.882 1.925-2.117 3.225-5.196 7.912.184.12zm2.357-24.273c0-.957.778-1.736 1.735-1.736.957 0 1.736.779 1.736 1.736s-.78 1.736-1.736 1.736a1.737 1.737 0 0 1-1.735-1.736zm1.735 3.236c.51 0 .989-.13 1.419-.342l5.327 6.393.353.15-1.49 2.98-11.807-4.656 3.6-5.851c.59.8 1.53 1.326 2.598 1.326zm-89.134-6.425c1.035-.252 2.276-.548 3.702-.876.215 1.102.357 2.068.449 2.849l-4.151-1.973zm7.01 6.103c-4.982.027-10.12 1.292-14.685 3.62l-8.442-4.766 7.327-6.364c5.049 2.4 10.348 4.92 15.8 7.51zm163.684 48.7c.468-.648.929-1.327 1.382-2.04.52-.694 1.013-1.535 1.476-2.46l13.107 7.447-3.03 3.745.056-.111-12.991-6.58zm68.318-46.87c3.413 8.722 5.736 19.31 5.743 31.973l-9.37-2.433a62.813 62.813 0 0 0-5.454-27.475l9.08-2.064zm-6.15-16.868l16.084-1.586-8.702 14.887a77.687 77.687 0 0 0-7.382-13.301zm24.48-12.98h-1.736l-1.12 1.917-.143-.148-1.901 3.644-2.561 4.38-18.017 1.778A74.125 74.125 0 0 0 311.126 0h-3.792c5.73 4.702 14.738 13.835 20.779 28.434l-9.177 2.086c-3.208-6.75-6.872-11.456-8.914-13.796l.013-.003-.238-.253a27.862 27.862 0 0 0-1.327-1.416c-.581-.618-8.735-9.141-21.157-15.052h-6.525c11.716 4.293 20.663 11.85 24.21 15.157a832.572 832.572 0 0 0-12.762 2.642c-13.021-9.821-29.51-15.198-39.71-17.8h-9.778l-.068.428c.335.054 26.796 4.46 46.234 18.098-1.375.303-2.765.616-4.15.934-3.508.805-6.97 1.642-10.013 2.452-4.037 1.074-7.337 2.099-9.008 2.934a33.78 33.78 0 0 0-2.254 1.246l-19.982-3.022c-5.53-3.887-10.218-7.39-11.11-8.611l-.052-.157-.066-.038c-.672-1.083-.837-2.306-.451-3.554.663-2.135 2.76-4.046 5.769-5.25 2.764-1.184 4.418-2.791 4.915-4.776a4.93 4.93 0 0 0 .117-.683H241.1c-.018.11-.02.218-.047.329-.381 1.5-1.743 2.764-4.031 3.745-3.414 1.365-5.83 3.622-6.627 6.19a5.832 5.832 0 0 0-.167 2.828L207.319 0h-3.023l7.23 4.132L230.32 14.87l.776.444.01.045c.793 2.854.02 7.237-.41 8.317L206.41 10.954 185.497 0h-3.232l24.278 12.718-14.121 8.069-.233.042-11.025-20.83h-1.698l10.574 19.978c-15.73-10.025-33.244-9.03-38.56-8.433l-.135-2.013L169.61 0h-3.243l-15.131 7.895L150.71 0h-2.506l.567 8.5-24.416.31L125.823 0h-1.52l-1.145 6.87-3.42-6.87h-1.667l4.416 8.834-31.772.402c-1.743-3.198-4.128-6.42-7.38-9.236h-2.387a30.47 30.47 0 0 1 3.29 2.919L77.716 9.4l-14.004.177A45906.02 45906.02 0 0 1 43.602 0H37.79a44039.91 44039.91 0 0 0 22.412 10.677l-7.353 4.513L25.952 0h-3.05l28.486 16.087-7.26 4.455L8.408.549c-.615.192-1.202.443-1.77.727l36.35 20.347-8.094 9.93c-2.96-3.642-6.95-6.97-11.598-9.755l2.745-4.575L2.856 4.24c-.327.384-.628.789-.905 1.212L23.96 17.777l-1.961 3.268c-6.5-3.66-14.151-6.262-22-7.235v2.517c15.588 2.03 30.777 11.094 35.96 21.35l-15.24-.393-.014-.04C20.54 36.794 16.629 26.566 0 24.01v1.522c13.439 2.158 18.045 9.67 19.06 11.709L.02 36.75 0 37.5v.75l19.187.495-.35 7.005H0v1.5h18.762l-.386 7.725-18.376.2v1.5l9.78-.105-.19 8.224-9.59.69v1.505l9.555-.69-.306 13.223-9.25 3.435v1.6l9.474-3.518 2.565 17.094L0 104.675v2.846l12.37-6.723 1.884 19.774 1.493-.143-1.945-20.41 15.088-8.2-4.335 28.615c-.503.343-.778.547-.805.566l.375.5h3.359a74.723 74.723 0 0 1 4.228-2.497c9.92-5.443 29.996-13.787 51.192-7.105 1.372.549 2.757 1.142 4.188 1.756 5.155 2.209 10.94 4.687 18.818 6.279l.256.298c.075-.066.158-.137.236-.203 3.81.743 8.114 1.274 13.056 1.472h8.749c.147-.006.284-.006.432-.011a.036.036 0 0 0-.002.01h2.53l.024-.136c1.873-.111 3.812-.258 5.84-.457 12.16-1.193 28.072-6.317 44.918-11.743 19.176-6.175 38.876-12.51 54.99-13.78l1.338 12.035c-15.484 1.125-34.117 7.209-52.975 14.082h7.41c7.264-2.565 14.434-4.94 21.33-6.87l1.815 6.87h1.552l-1.92-7.27c8.138-2.216 15.87-3.785 22.906-4.307l.019.233-5.835 11.344h1.687l4.384-8.522.71 8.522h2.509l-.061-.737c.433.167 1.056.415 1.834.737h3.753c-3.172-1.434-5.235-2.212-5.725-2.391l-.778-9.33a58.984 58.984 0 0 1 4.177-.023c15.97.516 31.24 5.358 44.005 11.744h5.33c-13.866-7.62-31.137-13.658-49.255-14.242a62.217 62.217 0 0 0-4.74.036l.365-.04-1.338-12.043c2.322-.107 4.562-.101 6.705.042 25.882 1.726 49.15 10.532 69.487 26.247h4.026a135.291 135.291 0 0 0-13.68-9.763c1.373-1.66 4.253-5.401 7.384-11.022l10.515 5.975c-3.516 7.167-6.577 11.322-6.645 11.414l2 1.5c.07-.094 3.207-4.345 6.818-11.68l8.738 4.965-3.734 8.61h1.636l3.41-7.864 7.635 4.338-1.182 3.527h1.582l.929-2.772 4.88 2.772h3.036l-.59-.335L360 99.605v-3.083l-9.847-4.707-15.607-7.46-.107-.051c.092-.408.179-.822.268-1.235a100.63 100.63 0 0 0 1.25-7.016 96.04 96.04 0 0 0 .79-7.982c.079-1.375.124-2.723.15-4.054l19.38 5.03 2.248.779-.02-.2 1.495.389v-1.55l-1.654-.43L353.95 24.1 360 22.724v-1.538l-6.833 1.553-12.218-11.896 2.458-4.71 1.024-1.751L360 20.509v-2.161L345.217 3.036 346.992 0z"/>
        <g>
            <path fill="#E0E1E2" d="M201 83.5c0 2.485-8.954 4.5-20 4.5s-20-2.015-20-4.5 8.954-4.5 20-4.5 20 2.015 20 4.5" style="mix-blend-mode:multiply"/>
            <path fill="#F4A800" d="M187.186 56.108a6.199 6.199 0 0 1-1.42 2.031 6.382 6.382 0 0 1-2.118 1.32c-.81.313-1.68.47-2.609.47h-3.196V67.4h-3.688V47.06h6.884c.93 0 1.799.156 2.609.47.81.312 1.517.752 2.117 1.32a6.187 6.187 0 0 1 1.421 2.031c.346.787.52 1.653.52 2.6 0 .967-.174 1.841-.52 2.628m9.463-6.253c-3.656-6.31-10.036-11.412-17.256-11.412-1.744 0-3.537.299-5.352.95-9.563 2.79-15.651 15.03-13.41 24.381 1.814 7.573 8.84 9.048 16.053 9.048 4.123 0 8.306-.48 11.618-.582 11.383-.346 13.08-14.217 8.347-22.385"/>
            <path fill="#FFF" d="M186.696 75.594l-5.248 5.997a1.444 1.444 0 0 1-2.174 0l-4.837-5.528c-5.224-.208-14.624-1.644-16.99-11.525-2.722-11.36 4.844-25.061 15.581-28.263a19.064 19.064 0 0 1 6.365-1.108c7.729 0 15.427 4.998 20.09 13.044 3.602 6.22 3.896 14.565.713 20.294-2.425 4.363-6.614 6.852-11.794 7.01-.54.017-1.111.044-1.706.079zm-26.066-11.82c1.814 7.573 8.84 9.048 16.054 9.048 4.123 0 8.306-.48 11.619-.582 11.382-.346 13.078-14.217 8.346-22.385-3.656-6.31-10.036-11.412-17.256-11.412-1.744 0-3.537.299-5.352.95-9.563 2.79-15.651 15.03-13.41 24.381z"/>
            <path fill="#FFF" d="M183.28 55.44c-.493.568-1.22.852-2.186.852h-3.251v-5.596h3.251c.491 0 .92.076 1.284.227.364.152.669.355.916.61.245.257.427.555.545.896.12.34.178.69.178 1.05 0 .739-.245 1.393-.738 1.961m2.487-6.591a6.382 6.382 0 0 0-2.118-1.32 7.197 7.197 0 0 0-2.61-.47h-6.884v20.342h3.689V59.93h3.196c.928 0 1.798-.156 2.61-.468a6.385 6.385 0 0 0 2.117-1.322 6.187 6.187 0 0 0 1.42-2.031c.347-.786.52-1.662.52-2.628 0-.947-.173-1.813-.52-2.6a6.187 6.187 0 0 0-1.42-2.031"/>
            <path fill="#F4A800" d="M183.293 51.534a2.688 2.688 0 0 0-.915-.61c-.364-.153-.792-.228-1.284-.228h-3.251v5.596h3.251c.965 0 1.694-.284 2.185-.852a2.907 2.907 0 0 0 .738-1.96c0-.36-.06-.711-.178-1.052-.118-.34-.3-.639-.546-.894"/>
        </g>
    </g>
</svg>
