<svg xmlns="http://www.w3.org/2000/svg" xmlns:xlink="http://www.w3.org/1999/xlink" width="360" height="176" viewBox="0 0 360 176">
    <defs>
        <path id="a" d="M0 0h360v176H0z"/>
        <rect id="c" width="360" height="177" rx="4"/>
        <path id="e" d="M0 .09h79.955v177.973H0z"/>
        <path id="g" d="M.093.104H78.14v155.56H.093z"/>
    </defs>
    <g fill="none" fill-rule="evenodd">
        <mask id="b" fill="#fff">
            <use xlink:href="#a"/>
        </mask>
        <use fill="#F21942" xlink:href="#a"/>
        <g mask="url(#b)">
            <g transform="translate(0 -1)">
                <mask id="d" fill="#fff">
                    <use xlink:href="#c"/>
                </mask>
                <use fill="#FF3242" xlink:href="#c"/>
                <g mask="url(#d)">
                    <path fill="#FFF" d="M325.945 38.315l-10.12-17.733a5.097 5.097 0 0 0-4.42-2.582c-1.825 0-3.51.985-4.422 2.582l-10.3 18.036a5.216 5.216 0 0 0 0 5.163 5.094 5.094 0 0 0 4.422 2.58h20.608c2.82 0 5.105-2.311 5.105-5.162a5.166 5.166 0 0 0-.873-2.884"/>
                    <path fill="#FF3242" d="M311.4 36.408h-.005a1.97 1.97 0 0 1-1.97-1.968l.02-10.432a1.97 1.97 0 0 1 1.974-1.961h.005a1.97 1.97 0 0 1 1.97 1.968l-.02 10.432a1.97 1.97 0 0 1-1.975 1.961M311.41 43.489a2.338 2.338 0 0 1-2.343-2.333c0-1.29 1.049-2.334 2.342-2.334a2.337 2.337 0 0 1 2.343 2.332v.002a2.338 2.338 0 0 1-2.343 2.333"/>
                    <path fill="#FFCE00" d="M287.87 298.168l-211.522 2.225-1.59-103.982c-.2-18.919 12.836-33.74 31.708-42.229 0 0 44.609-23.18 73.053-23.725 28.445-.544 73.245 26.167 73.245 26.167 18.939 8.176 32.504 20.533 32.703 39.452l2.404 102.092z"/>
                    <path fill="#1C1C2D" d="M288.06 310.39l-211.522 2.226-1.592-103.983c-.197-18.918 15.433-35.572 32.13-42.158 0 0 44.324-23.225 72.769-23.77 28.445-.544 73.11 26.142 73.11 26.142 16.138 8.111 32.503 20.533 32.702 39.451l2.404 102.093z"/>
                    <path fill="#505668" d="M204.47 310.25l-48.56-1.252-1.26-170.904 48.218-1.663z"/>
                    <path fill="#1C1C2D" d="M79.692 83.663c-5.56.183-13.476 1.291-18.868-3.282a2.239 2.239 0 0 0-1.54-.519c-5.806.24-36.182 1.81-36.182 1.81s-1.062-1.724-3.213-2.101c-5.116-.895-7.276 3.592-6.138 6.664 1.424 3.842 7.85 3.556 8.861 1.102.27.047 33.5 1.615 33.5 1.615s13.624 9.774 22.498 11.328c.297.051.121-14.118 1.082-16.617"/>
                    <path fill="#2E3447" d="M77.97 116.405l-50.777 9.975c-7.093 1.332-14.046-3.992-15.53-11.891-1.484-7.9 3.064-15.383 10.157-16.715l50.778-9.975c5.953-1.118 11.789 3.35 13.034 9.98l.864 4.597c1.245 6.63-2.572 12.91-8.525 14.029"/>
                    <path fill="#1C1C2D" d="M93.485 114.818s-7.828 1.89-15.88 3.993C68.524 121.183 62.12 82.24 69 80.688c6.879-1.553 15.88-3.993 15.88-3.993l8.605 38.123z"/>
                    <g transform="translate(-10 65.416)">
                        <mask id="f" fill="#fff">
                            <use xlink:href="#e"/>
                        </mask>
                        <path fill="#FF8585" d="M62.511 8.3c2.946.568 4.645 3.588 4.211 6.021-5.466 3.143-6.123 14.406-5.828 18.333.861 11.498 6.106 22.094 8.485 21.967 2.026-.108 8.76-2.114 9.19-1.51 1.512 2.461 1.672 5.474 1.031 7.015-.86 2.067-2.94 4.371-7.928 8.018-4.486 3.28-9.356 5.688-9.597 8.727-.241 3.04 10.513 109.192 10.513 109.192L0 184.253 30.773 71.444s-13.64-11.708-4.386-37.936c.188-1.462 1.733-3.609 4.542-4.202 1.42-.3 2.362.445 4.128.43 1.198-.01 1.294-2.248 4.03-2.44 2.736-.192 3.414 2.55 4.708 1.278 3.332-3.274 5.766-.943 5.766-.943s1.712-8.943 5.036-15.256c1.175-2.234 5.396-5.088 7.914-4.076" mask="url(#f)"/>
                    </g>
                    <path fill="#1C1C2D" d="M285.452 75.32c4.984-.119 12.12.471 16.712-3.893.357-.34.84-.535 1.35-.543 5.207-.08 32.459-.219 32.459-.219s.862-1.596 2.768-2.042c4.53-1.061 6.691 2.843 5.828 5.65-1.078 3.509-6.84 3.58-7.87 1.435-.238.056-29.885 3.146-29.885 3.146s-11.691 9.435-19.55 11.275c-.263.062-.826-12.622-1.812-14.808"/>
                    <path fill="#2E3447" d="M289.259 83.154l48.75 7.336c6.506 1.192 10.689 8.11 9.344 15.45-1.345 7.341-7.71 12.326-14.214 11.134l-48.751-7.336c-5.46-1-8.97-6.806-7.842-12.968l.783-4.272c1.129-6.161 6.47-10.345 11.93-9.344"/>
                    <path fill="#1C1C2D" d="M265.048 112.804s19.4 1.894 22.809 1.818c.662-.014 2.59-8.929 2.872-9.096 4.13-5.67 5.456-20.544 2.896-28.47-.75-2.32-2.74-4.025-5.137-4.469l-14.4-2.476s-7.066 32.75-9.04 42.693"/>
                    <path fill="#FFCE00" d="M243.645 49.503c-6.323-4.173-11.098-21.476-68.889-19.317-58.597 1.04-60.05 22.548-66.87 25.846-8.942 5.853-28.853 8.43-28.641 14.609-.545 8.12 5.414 40.084 16.245 50.829.535-.49 15.53-7.776 19.766-10.673 2.118-1.448-2.83-5.773 6.888-4.836 9.718.938 27.192.673 33.207 27.643.49.535 1.313 17.015 24.448 16.475 22.546-.546 23.794-18.137 24.23-18.718 3.336-27.43 20.752-28.883 30.33-30.77 9.58-1.887 5.08 2.902 7.33 4.136 4.5 2.467 21.005 2.316 21.586 2.751 9.723-11.757 11.61-41.038 11.49-44.997-.154-5.05-24.46-8.583-31.12-12.978"/>
                    <path fill="#3B4056" d="M243.436 58.516c-7.111-2.612-11.098-21.476-68.889-19.317-58.597 1.04-60.05 22.548-66.87 25.846-6.82 3.298-28.396 8.65-28.396 8.65s2.947 39.868 13.778 50.613c.535-.49 17.753-1.601 21.988-4.498 2.118-1.449-2.83-5.774 6.888-4.836 9.718.937 27.727 8.82 33.207 27.643.49.535 1.313 17.014 24.448 16.475 22.546-.546 23.794-18.137 24.23-18.718 1.709-17.577 20.752-28.883 30.33-30.77 9.58-1.888 5.08 2.902 7.33 4.136 4.5 2.467 22.304 3.185 22.885 3.62 10.24-18.88 10.24-50.72 10.24-50.72s-24.057-5.512-31.169-8.124"/>
                    <g transform="rotate(12 -333.204 1217.252)">
                        <path fill="#292F42" d="M2.582 14.202C.924 13.98.034 11.906.04 10.637L.012 3.193C.02 1.98 1.025.79 1.952.762L18.79.122c1.915.108 3.11 2.223 3.044 3.537l-.587 8.05c-.058 1.154-1.572 1.806-2.457 1.839l-16.208.654z"/>
                        <path fill="#1C1C2D" d="M3.995 13.497c-.877.032-1.6-.895-1.595-2.046l-.276-6.69c.005-1.1.676-1.994 1.513-2.02l15.908-.507c.91-.029 1.644.975 1.584 2.168l-.364 6.663c-.053 1.047-.704 1.87-1.503 1.9l-15.267.532z"/>
                        <path fill="#FA5365" d="M4.438 4.007c-.311.018-.552.207-.564.442l.12 6.972c-.006.123.034.335.112.438.114.15 1.256 1.624 2.452 1.43.227-.454 12.5-7.734 12.642-8.342-.308-2.013-12.483-1.063-14.762-.94z"/>
                        <path fill="#FF899E" d="M3.997 4.2a.644.644 0 0 1 .44-.193c2.22-.123 14.463-1.073 14.763.94.024.61-.696.743-1.922 1.59l-.964.316-8.72-.579c-.526-.035-1.261.13-1.628-.167L3.997 4.201z"/>
                        <path fill="#F2314E" d="M6.021 5.925c-.2.077-.324.231-.326.398a938.841 938.841 0 0 0-.011 6.537c0 .33.458.556.874.43 1.844-.557 6.398-1.704 11.624-1.322.358.026.67-.175.684-.439l.334-6.45c.013-.25-.245-.462-.584-.482-1.964-.116-8.275-.332-12.595 1.328z"/>
                        <circle cx="8.52" cy="9.167" r="1.267" stroke="#FFF" stroke-width=".5"/>
                        <path stroke="#FFF" stroke-linecap="round" stroke-linejoin="round" stroke-width=".5" d="M17.221 8.559l-2.128.091"/>
                    </g>
                    <path fill="#1C1C2D" d="M229.413 58.174c-15.47-12.575-51.01-11.49-51.01-11.49s-35.84.393-50.736 13.634c-17.037 18.251 9.818 55.763 50.696 53.776 44.076-2.141 67.734-40.845 51.05-55.92"/>
                    <path fill="#B8C0CC" d="M218.842 62.666c-4.11-3.464-22.043-7.025-41.054-6.637-19.01.388-37.673 4.974-41.06 9.067-12.924 15.621 9.413 40.341 41.437 40.172 31.995-.17 55.503-30.105 40.677-42.602"/>
                    <g fill="#0A1421">
                        <path d="M193.303 77.053l-.82.82-2.461-2.46V70.49l2.46-2.46.821.82v8.203zm-10.664.82l1.64-1.64h4.922l1.641 1.64-1.64 1.641h-4.923l-1.64-1.64zm0 11.486l-.82-.82 2.46-2.462h4.922l2.461 2.461-.82.82h-8.203zm8.203-22.97l.82.82-2.46 2.461h-4.923l-2.46-2.46.82-.821h8.203zm-10.665 12.305l.82-.82 2.462 2.46v4.923l-2.461 2.46-.82-.82v-8.203zM177.126 86.509l-.82.82-2.462-2.46v-4.923l2.461-2.46.82.82v8.203zm0-9.844l-.82.82-2.462-2.461v-4.922l2.461-2.461.82.82v8.204zM166.46 88.97l-.82-.82 2.46-2.461h4.923l2.461 2.46-.82.821h-8.204zM174.665 66l.82.82-2.461 2.461h-4.922l-2.461-2.46.82-.821h8.204zM164 78.305l.82-.82 2.461 2.461v4.922l-2.46 2.461-.821-.82v-8.204zm0-9.844l.82-.82 2.461 2.46v4.923l-2.46 2.461-.821-.82V68.46z"/>
                    </g>
                    <g transform="translate(291.76 63.816)">
                        <mask id="h" fill="#fff">
                            <use xlink:href="#g"/>
                        </mask>
                        <path fill="#FF8585" d="M16.046.342c-3.019.638-4.668 3.792-3.977 6.777 3.017 2.354 6.182 10.267 6.713 17.206.906 11.824-4.358 24.076-6.808 23.988C9.89 48.24 1.302 46.706.87 47.334c-.7 2.799-1.11 5.104-.423 6.677.922 2.11 3.617 3.424 8.326 7.823 4.176 3.902 8.368 8.634 8.67 11.755.303 3.121-5.614 82.075-5.614 82.075l66.313-3.493-25.19-88.03s9.524-17.852 2.193-38.692c-.746-1.893-2.017-3.945-4.975-4.04-1.492-.049-1.64.77-3.455.786-1.233.011-2.117-2.329-4.933-2.477-2.817-.148-3.826 2.638-5.18 1.354-3.485-3.306-6.89-1.083-6.89-1.083s-1.922-9.166-5.453-15.598c-1.25-2.276-5.64-5.135-8.212-4.049" mask="url(#h)"/>
                    </g>
                </g>
            </g>
        </g>
        <g mask="url(#b)">
            <g transform="translate(33 74)">
                <circle cx="45.486" cy="45.486" r="45.486" fill="#FFF" stroke="#FF4C5A" stroke-width="2.394"/>
                <path fill="#000" d="M45.98 25.071V64.93c0 1.621-1.742 2.612-3.09 1.757L29.881 58.44l.155-26.859 12.84-8.26c1.349-.868 3.104.122 3.104 1.75zm-19.876 7.257V58.26h-7.08c-1.118 0-2.024-.926-2.024-2.067V34.396c0-1.142.906-2.068 2.024-2.068h7.08zm46.134 3.176a2.698 2.698 0 0 1 0 3.759l-6.319 6.453 6.319 6.454a2.698 2.698 0 0 1 0 3.759 2.567 2.567 0 0 1-3.681 0l-6.319-6.454-6.317 6.454a2.568 2.568 0 0 1-3.681 0 2.698 2.698 0 0 1 0-3.76l6.318-6.453-6.318-6.453a2.698 2.698 0 0 1 0-3.76 2.564 2.564 0 0 1 3.68 0l6.318 6.453 6.319-6.452a2.564 2.564 0 0 1 3.68 0z"/>
            </g>
        </g>
    </g>
</svg>
