<svg xmlns="http://www.w3.org/2000/svg" width="20" height="20" viewBox="0 0 20 20">
    <path fill="#7A7A7A" fill-rule="evenodd" d="M10 11.667c2.057 0 3.26.666 3.808 1.355.461-.196 1.056-.33 1.8-.352l.225-.003c2.304 0 3.27 1.045 3.33 1.722l.004.067v3.354c0 .27-.138.44-.389.47l-.088.006-4.524-.001v.644c0 .343-.177.557-.502.59l-.093.005H6.43c-.352 0-.56-.186-.591-.505l-.005-.09v-.644H1.31l-.088-.005c-.251-.03-.389-.2-.389-.47v-3.354l.003-.067c.06-.677 1.027-1.722 3.33-1.722l.227.003c.754.023 1.355.16 1.82.361.532-.696 1.656-1.31 3.536-1.361l.251-.003zM7.5 17.81l-.003.033.001.014 5.002.002V14.057l-.014-.02c-.04-.046-.097-.098-.171-.152l-.08-.055c-.463-.3-1.21-.497-2.235-.497-1.058 0-1.807.204-2.244.51-.178.125-.24.209-.253.21l-.003-.005v3.762zm8.333-3.477c-.716 0-1.224.122-1.526.298l-.078.05c-.044.031-.058.036-.062.008v1.93H17.5V14.72l-.064-.045c-.314-.202-.847-.342-1.604-.342zm-11.666 0c-.757 0-1.29.14-1.604.342l-.065.045.001 1.898h3.333v-1.925c-.003.017-.012.019-.033.006l-.028-.018-.078-.05c-.302-.176-.81-.298-1.526-.298zm12.5-7.666c1.38 0 2.5 1.119 2.5 2.5 0 1.333-1.044 2.422-2.358 2.496l-.142.004c-1.381 0-2.5-1.12-2.5-2.5 0-1.333 1.043-2.423 2.358-2.496l.142-.004zm-13.334 0l.142.004c1.315.073 2.358 1.163 2.358 2.496 0 1.38-1.119 2.5-2.5 2.5l-.142-.004C1.877 11.589.833 10.5.833 9.167c0-1.381 1.12-2.5 2.5-2.5zM10 4.167c1.84 0 3.333 1.492 3.333 3.333 0 1.785-1.403 3.243-3.167 3.33l-.166.003c-1.84 0-3.333-1.492-3.333-3.333 0-1.785 1.403-3.243 3.167-3.33L10 4.168zm6.667 4.166c-.46 0-.834.374-.834.834 0 .46.374.833.834.833.46 0 .833-.373.833-.833 0-.46-.373-.834-.833-.834zm-13.334 0c-.46 0-.833.374-.833.834 0 .46.373.833.833.833.46 0 .834-.373.834-.833 0-.46-.374-.834-.834-.834zM10 5.833c-.92 0-1.667.747-1.667 1.667S9.08 9.167 10 9.167s1.667-.747 1.667-1.667S10.92 5.833 10 5.833zm-5.346-3.38l.07.03 1.443.834c.199.115.249.402.11.641-.122.213-.352.316-.541.255l-.07-.03-1.443-.833c-.199-.115-.249-.403-.11-.642.122-.212.352-.315.541-.255zm11.4.255c.123.213.097.463-.05.597l-.06.045-1.444.833-.069.03c-.19.061-.42-.042-.542-.255-.123-.212-.097-.463.05-.597L14 3.317l1.443-.833.07-.03c.189-.061.418.042.541.254zM7.14.746l.044.06.833 1.444c.115.2.015.473-.224.61-.213.124-.463.098-.597-.05l-.045-.06-.833-1.443c-.115-.2-.014-.473.225-.611.212-.123.463-.097.597.05zm6.486-.05c.213.123.316.352.255.542l-.03.069-.834 1.443-.044.06c-.134.148-.384.174-.597.05-.213-.122-.316-.352-.255-.541l.03-.069.834-1.443.044-.061c.134-.147.384-.173.597-.05zM10.083 0c.246 0 .45.147.492.342l.008.075v1.666c0 .23-.224.417-.5.417-.245 0-.45-.147-.492-.342l-.008-.075V.417c0-.23.224-.417.5-.417z"/>
</svg>
