<svg xmlns="http://www.w3.org/2000/svg" xmlns:xlink="http://www.w3.org/1999/xlink" width="293" height="308" viewBox="0 0 293 308">
    <defs>
        <path id="a" d="M.282 4.324c-.681 1.592 1.884 2.376 2.559.798.333-.788.84-1.337 1.452-1.675 0 .007-.007.015-.006.03L3.89 14.753c-.365-.023-.724-.045-1.068-.069-1.72-.14-1.813 2.532-.093 2.679 4.62.38 11.967-.026 13.74-5.225 1.351-4.004-1.977-5.613-5.334-5.888.8-1.627.48-3.462-1.65-4.897C8.415.633 7.26.305 6.134.305c-2.47 0-4.81 1.572-5.852 4.019zm6.677-.753c.009-.15-.02-.282-.047-.416.128.032.264.064.4.103 2.489.757 1.548 2.375-.21 3.34-.094.048-.173.111-.253.174.039-1.067.078-2.134.11-3.201zm-.175 5.111c.289.331.729.522 1.26.397 1.462-.335 2.942-.417 4.402-.058 2.198.545 1.78 2.932.23 4.03-1.646 1.161-3.9 1.61-6.11 1.714.076-2.03.143-4.06.218-6.083z"/>
        <linearGradient id="c" x1="29.803%" x2="66.596%" y1="0%" y2="109.413%">
            <stop offset="0%" stop-color="#FFFFF5"/>
            <stop offset="100%" stop-color="#FDB769"/>
        </linearGradient>
    </defs>
    <g fill="none" fill-rule="evenodd">
        <path fill="#DDDCDB" d="M98.312 253.116s-5.502.821-3.028 2.44c2.473 1.617 12.736 6.11 24.606 5.918 6.017.112 33.132 14.281 42.836 15.913 9.705 1.633 7.37 5.451 23.889 7.264 16.52 1.813 32.224 3.757 36.212 4.098 3.989.34 10.52 1.501 9.459-.196-1.06-1.698-11.307-6.39-11.307-6.39s6.592-4.259 7.178-6.419c.586-2.16 14.233-1.998 19.292-4.78 1.248-.496 28.901 2.67 31.492-4.14 2.59-6.81-35.006-8.817-45.011-9.27-10.006-.452-26.68-.47-26.68-.47s-62.36-3.72-68.793-3.667c-6.433.053-26.77-4.095-30.132-2.373-3.362 1.722-7.981 2.072-7.981 2.072h-2.032z"/>
        <path fill="#FFC934" d="M273.893 305.302c-85.063-3.277-151.919-11.081-198.71-23.197-47.866-12.394-73.13-28.957-75.087-49.229-.896-9.268 3.26-19.424 12.704-31.047 8.14-10.017 19.132-19.813 28.831-28.456 13.796-12.293 25.71-22.91 25.353-30.021-.537-10.697-25.77-13.001-26.026-13.023l.186-1.937c1.113.096 27.265 2.49 27.887 14.867.402 8.008-11.832 18.91-25.997 31.532-9.643 8.592-20.572 18.332-28.61 28.225C5.31 214.232 1.29 223.942 2.135 232.699c.928 9.612 7.656 18.522 19.997 26.483 12.324 7.95 30.354 15.03 53.59 21.047 46.642 12.077 113.344 19.86 198.254 23.13l-.084 1.943z"/>
        <path fill="#FFC833" d="M267.91 302.326a4.73 4.73 0 1 1 9.46 0 4.73 4.73 0 0 1-9.46 0"/>
        <path fill="#9B5C0A" d="M51.303 104.29c-.334-5.37-4.362-9.741-9.743-9.741-5.38 0-9.776 4.361-9.742 9.742.05 7.695 9.644 20.015 10.138 19.919.612-.118 9.806-12.527 9.347-19.92"/>
        <path fill="#C9800D" d="M39.938 128.834a1.95 1.95 0 1 1 3.899 0 1.95 1.95 0 0 1-3.9 0"/>
        <path fill="#FCCE59" d="M47.478 104.846a5.772 5.772 0 1 1-11.544 0 5.772 5.772 0 0 1 11.544 0"/>
        <path fill="#FFC833" d="M292.478 249.514c-.692-11.124-9.036-20.18-20.181-20.18-11.145 0-20.253 9.035-20.18 20.18.102 15.94 19.975 41.46 21 41.263 1.268-.245 20.312-25.95 19.36-41.263"/>
        <path fill="#FFF" d="M284.555 250.664c0 6.603-5.353 11.957-11.957 11.957-6.603 0-11.957-5.354-11.957-11.957 0-6.604 5.354-11.958 11.957-11.958 6.604 0 11.957 5.354 11.957 11.958"/>
        <g>
            <path fill="#464A66" d="M125.512 230.482c1.983 13.047-.45 22.737-11.64 26.055-11.486 3.405-17.94-8.095-19.924-21.142-1.983-13.047 3.793-24.327 12.743-26.106 11.43-2.272 16.838 8.146 18.82 21.193"/>
            <path fill="#5A5F7A" d="M118.73 231.629c1.984 13.046-1.956 24.467-8.8 25.506-6.843 1.04-13.999-8.693-15.982-21.74-1.982-13.047 1.958-24.467 8.801-25.507 6.844-1.04 13.999 8.694 15.982 21.74"/>
            <path fill="#9493A5" d="M112.913 232.513c1.051 6.92-1.039 12.978-4.669 13.53-3.63.552-7.426-4.611-8.477-11.532-1.052-6.921 1.038-12.979 4.668-13.53 3.63-.552 7.426 4.61 8.478 11.532"/>
            <path fill="#B6B3C6" d="M111.776 232.686c.659 4.336-.65 8.131-2.925 8.477-2.275.345-4.653-2.89-5.312-7.226-.659-4.336.65-8.131 2.925-8.477 2.275-.346 4.653 2.89 5.312 7.226"/>
            <path fill="#DDDFED" d="M107.97 236.24c-1.139.201-2.267-.791-2.519-2.217l-4.062-23.233c-.077-.438.144-.843.494-.905l2.565-1.927c.35-.061.696.244.774.682l4.356 24.654c.252 1.426-.468 2.744-1.607 2.946"/>
            <path fill="#E29F0A" d="M158.97 115.679s11.069 5.023 10.007 13.036c-.441 3.324 20.573 1.796 18.986-.4-1.587-2.197 2.397-8.609 6.765-14.415 2.63-3.497-35.757 1.779-35.757 1.779M215.222 230.319s12.17-1.31 14.25-4.854c.566-4.203-6.27-19.501-15.414-13.477-9.145 6.023 1.164 18.33 1.164 18.33M169.105 240.505l3.543-25.298 16.633-.26-7.888 23.354zM150.169 167.805s-10.196 57.299 4.282 57.299c17.167 0-9.445 10.06-9.445 10.06l-22.434-5.423-8.629-44.868 9.122-17.75 27.104.682z"/>
            <path fill="#E29F0A" d="M143.883 131.12s13.068-3.95 22.792-3.039c9.725.912-10.78 98.47-10.78 98.47l-8.875-4.226s1.725-88.47-3.137-91.205"/>
            <path fill="#1F609B" d="M143.883 131.12s13.068-3.95 22.792-3.039c4.863.456 2.168 25.073-1.743 49.577-1.934.173-17.813 1.717-17.651.832-.165-22.696-.94-45.987-3.398-47.37"/>
            <path fill="#FFE448" d="M194.732 128.294c-5.046-2.736-22.251-3.567-32.439 1.964-7.665 4.162-5.87 12.003-5.577 17.73.407 7.93 2.077 24.178.456 45.77-.881 11.732-2.234 31.679-10.655 36.541-2.064 1.192-12.84-1.729-13.375-2.638-6.783-11.53-7.788-46.426.918-57.205l-41.346-1.187s-3.51 4.681-5.956 15.351c-2.287 9.982 1.119 26.348 3.594 32.038 9.793-.283 25.793 16.167 41.291 21.156 18.755 2.594 38.144-5.118 38.144-5.118s-.97-22.813 30.434-33.352c8.4-2.82 17.056 7.307 17.194 7.498-1.05-39.274-13.509-73.575-22.683-78.548M217.416 206.842v.002c.002.003.002.002 0-.002"/>
            <path fill="#E29F0A" d="M165.986 223.566c-.823 4.172-.203 7.382 6.286 7.198 28.796-5.559 21.727-7.92 31.015-11.815 6.887-.51 15.576-14.486 12.58-19.28-5.507-9.96-29.371-6.92-38.643.681-6.104 5.003-8.646 10.06-11.238 23.216"/>
            <path fill="#464A66" d="M225.545 244.575c.349 9.284-.81 18.156-3.023 24.346-3.226 9.032-9.459 15.225-24.875 13.891-7.09-3.413-18.013-14.98-20.408-34.743-2.387-19.685 7.925-33.987 21.203-37.428 16.909-4.382 26.358 14.12 27.103 33.934"/>
            <path fill="#5A5F7A" d="M211.9 245.62c1.514 19.771-3.598 37.01-14.966 37.155-9.807.124-18.933-14.673-20.447-34.444-1.514-19.772 5.187-36.406 14.966-37.155 9.78-.749 18.934 14.672 20.448 34.444"/>
            <path fill="#9493A5" d="M205.687 246.782c.938 12.252-3.318 22.568-9.506 23.042-6.188.473-11.965-9.075-12.903-21.327-.938-12.252 3.318-22.568 9.506-23.042 6.189-.474 11.965 9.074 12.903 21.327"/>
            <path fill="#B6B3C6" d="M204.972 246.632c.679 8.867-2.402 16.335-6.88 16.677-4.48.343-8.662-6.568-9.34-15.436-.679-8.868 2.402-16.335 6.88-16.678 4.48-.343 8.661 6.568 9.34 15.437"/>
            <path fill="#DDDFED" d="M196.96 253.44c-2.051.459-4.18-1.25-4.754-3.816l-9.286-41.822c-.176-.788.191-1.542.822-1.683l4.495-3.707c.63-.14 1.285.384 1.462 1.173l9.935 44.377c.574 2.566-.623 5.019-2.674 5.478"/>
            <path fill="#2D2DA0" d="M108.964 48.734s-2.63 4.44-10.357 7.07c-7.727 2.63-11.837 3.123-12.988 8.384-.328 1.315-6.209 2.889-8.663 6.815-3.01 4.815-2.68 10.776 1.923 11.762.493.329-5.754 8.056-2.137 15.29 3.617 7.233 12.823 8.22 12.823 8.22l36.497-9.372 16.933-13.645 3.781-17.755-1.93-2.68s-3.994-9.648-10.19-13.62c-5.317-3.408-25.692-.469-25.692-.469"/>
            <path fill="#FFE448" d="M169.105 240.505c4.459-1.619 2.367-9.27 7.488-12.947 10.69-7.676 41.37 6.025 46.19 6.333 4.82.308 9.113-.44 9.99-3.416.839-2.847-5.392-25.156-19.389-31.886-12.857-3.43-26.817-1.454-36.127 6.358-8.258 6.93-10.77 36.509-8.152 35.558"/>
            <path fill="#F2D230" d="M232.773 230.475c.839-2.847-5.392-25.156-19.389-31.886-10.563-2.819-21.87-1.984-30.731 2.736 2.31-.286 12.534-4.377 23.73 6.474 9.899 9.595 16.4 26.092 16.4 26.092 4.82.308 9.113-.441 9.99-3.416"/>
            <path fill="#464A66" d="M143.593 155.049c-11.607 0-50.894-5.272-55.82-.983-3.062 2.188-.317 14.616 4.413 16.65 2.58 1.11 25.633 2.63 40.526 3.376 3.627.18 15.36-.057 16.866-1.633 3.397-5.318 7.435-16.685-5.985-17.41"/>
            <path fill="#FFFFF5" d="M114.225 55.486s3.66 8.224 2.678 10.778c-.59 1.18-9.298.996-16.898 4.127-7.601 3.13-13.362 14.54-17.685 30.063-1.768 6.092-.196 11.594 1.769 11.987 1.964.393 24.194 1.093 35.563-6.55l11.957-2.851-1.755-5.046s-12.414 3.015-21.453 1.835c-7.074-1.375-10.267.267-10.267.267l8.158-13.396 34.387.393 3.34-13.755-5.338-7.738-5.402.398s-1.955-8.341-2.776-12.612c-.197-.393-16.278 2.1-16.278 2.1"/>
            <path fill="#EAA471" d="M132.424 62.278s-6.359 7.336-16.568-2.257c.474-.712 15.708-1.588 15.708-1.588l.86 3.845z"/>
            <path fill="#2C2435" d="M112.766 57.89s6.462 5.46 13.48 4.22c2.273-.4 9.25-3.307 8.695-12.07l-20.056 5.169-2.119 2.68z"/>
            <path fill="#FFFFF5" d="M110.048 35.38s2.653 17.313 5.123 20.74c2.472 3.428 8.772 5.34 10.73 5.145 2.83-.28 5.836-4.115 7.214-7.683 1.377-3.567-3.857-20.95-3.857-20.95l-19.21 2.749zM132.508 69.674s5.895-2.412 26.052-18.98c.346-.518 5.528-9.327 10.018-13.818 4.49-4.49 8.463-13.472 8.463-13.472s-2.764-5.872-1.554-11.226c1.209-5.354 1.036-10.018 0-11.054-1.037-1.036 2.59-1.555 3.8 1.727 1.036 2.591.863 5.009 1.727 5.354.173 0 2.235-.847 2.235-.847s4.82-1.643 5.364-.362c.513 1.207-.037 1.968-.417 2.687 0 0 1.13.93 1.057 1.437-.223 1.525-.846 2.283-.846 2.283s.761 1.142.803 1.903c.043.76-.942 2.744-.942 2.744s.69 1.036.518 1.555c-.173.518-3.454 3.454-4.664 6.045-1.208 2.59-8.635 25.217-15.026 34.198-3.454 5.009-27.959 22.368-27.959 22.368l-8.63-12.542z"/>
            <path fill="#EAA471" d="M134.692 66.134s5.554 10.663 5.135 11.834c-1.075 2.998-3.215 5.504-8.316 5.884-5.318.395-13.711-3.39-13.711-3.39l3.921 5.127 16.515.604 4.826-5.355-.15-5.73-3.696-6.712-2.79-2.715-1.734.453zM85.801 89.732s8.847-.313 15.292 5.507l.443-.71-4.683-5.375-10.041-2.235-1.01 2.813zM155.335 71.847s-4.082-5.743-5.452-14.228l-1.137.992-.998 5.521 5.109 9.669 2.478-1.954z"/>
            <path fill="#FF5F2E" d="M109.869 67.614s4.854 6.977 7.551 11.909c2.707 4.045 12.944 6.114 18.34 4.5 3.752-1.436 5.062-5.4 5.175-6.076.112-.674-3.399-8.321-5.326-12.144 0-.112 2.297-.602 3.803-1.67.45 0 5.123 11.115 7.374 14.827 2.25 3.713 4.725 6.864 4.05 10.914-.675 4.05-5.851 14.513-8.326 21.377-2.475 6.862-2.528 14.065-1.403 16.428.225.337-35.021 3.945-35.021 3.945l-7.555-2.365s9.593-10.965 11.023-15.844c1.32-4.507-.4-16.282-5.001-23.177l-3.055 4.492s-2.187-2.88-6.87-4.962c-5.247-2.332-10.048-.633-10.048-.633s5.377-11.62 10.233-16.823c2.254-2.602 15.056-4.698 15.056-4.698"/>
            <path fill="#1E5B84" d="M134.637 65.617s-.385 15.427-2.747 20.8c-6.555 14.91-17.423 34.282-17.423 34.282l3.155.23s14.004-25.44 17.249-33.35c3.245-7.909 2.311-19.87 2.054-22.506-.193 0-2.288.544-2.288.544"/>
            <path fill="#FFFFF5" d="M83.243 102.041c-1.679 5.781-.356 9.313 1.51 9.686 1.864.373 24.565 2.734 36.784-5.022l8.485-2.21 4.68-4.099s-5.52-1.267-9.072-.905c-3.978.406-11.704-.053-16.74-.98-6.714-1.306-9.609-1.132-9.609-1.132s-11.935-10.07-16.038 4.662"/>
            <path fill="#595E70" d="M200.708 102.278l13.244 1.224c1.463.135 2.525 1.58 2.374 3.23-.152 1.649-1.462 2.877-2.926 2.741l-13.243-1.223c-1.196-.11-2.064-1.293-1.94-2.64l.1-1.09c.124-1.349 1.195-2.353 2.39-2.242"/>
            <path fill="#FFEF5F" d="M138.858 101.643c.262-1.998 1.988-1.79 3.953-1.867 4.316-.17 11.392-3.398 14.65-5.586 4.693-3.15 8.792-4.654 13.617-4.872 4.824-.218 11.87.164 14.3.735 5.248 1.231 9.158 6.6 10.884 8.252 1.726 1.652 6.4 2.425 7.705 2.838 2.038.528 2.873 4.662.824 8.353-1.058 1.675-3.573.837-7.019 3.073-2.943 1.909-8.184 8.808-15.444 9.287-8.634.57-15.153-2.999-22.602-6.856-4.103-2.125-11.039-3.313-16.097-3.083-1.66.075-3.373-.422-4.012-1.996-.707-1.74-1.265-4.424-.759-8.278"/>
            <path fill="#595E70" d="M140.908 109.212l-16.44.757c-1.816.083-3.365-1.508-3.46-3.555-.095-2.047 1.3-3.775 3.117-3.859l16.44-.756c1.485-.068 2.751 1.232 2.83 2.905l.062 1.353c.078 1.674-1.063 3.087-2.549 3.155"/>
            <path fill="#FFF" d="M163.47 98.239s-1.866.877-1.929 3.823c-.127 5.97 9.654 13.248 19.559 13.463 5.843.127 16.638-10.288 12.955-15.24-2.997-4.03-26.417-4.573-30.586-2.046"/>
            <path fill="#FFFFF5" d="M135.74 171.275a83.516 83.516 0 0 0 1.457 13.636c3.343 17.626-1.414 39.791-1.414 39.791s5.596 3.187 8.78 2.341c2.945-4.71 7.248-33.166 9.41-57.13 1.185-13.146-18.457-8.435-18.233 1.362"/>
            <path fill="#2982CC" d="M97.082 151.481s3.039 7.294 23.704 5.167c14.284-.912 16.41-1.216 16.41-1.216s-2.917 8.845-.928 23.235l-1.214.358c.144.75.638 4.657.854 5.798 1.667.278 10.715.12 17.676.278.243-.835.98-4.334 1.258-5.378l-1.042-.622c2.227-17.386 2.164-33.21 1.207-39.64-2.128-14.283-16.462-18.23-46.736-10.75-3.935.715-7.755.233-9.047-.296-2.052 2.473-3.564 7.147-3.889 9.772-.94 7.614 1.747 13.294 1.747 13.294"/>
            <path fill="#A7D0EA" d="M136.268 178.667l-1.214.358c.144.75.638 4.657.854 5.798 1.667.278 10.715.12 17.676.278.243-.835.98-4.334 1.258-5.378l-1.042-.622-17.57-.81c.013.126.024.25.038.376"/>
            <path fill="#FFFFF5" d="M133.766 100.12c1.605.16 4.872 2.674 5.16 4.204.16.863.111 3.766-.883 5.157-.627.877-1.936.817-2.573.436-1.91 1.061-2.76.297-3.355 0-1.3.745-2.25.594-3.142.084-.51.297-1.571.892-2.93.213.594-.807.852-2.546.68-4.332-.112-1.152-1.356-1.428-2.184-1.359-3.246.276-4.01 8.16-7.736 3.039-1.767-2.43 3.25-8.814 16.963-7.442"/>
            <path fill="#EAA471" d="M132.065 110.008c.758-.86 2.858-3.188 1.275-6.807 2.968 3.182.165 6.99-1.275 6.807M128.853 110.145s2.613-3.712 1.514-6.233c2.65 3.619-1.514 6.233-1.514 6.233M135.28 110.017s2.487-3.326.645-6.364c3.433 2.977-.645 6.364-.645 6.364"/>
            <path fill="#2D2DA0" d="M131.877 40.453s-1.426-.826-2.902-.56c-.023-.158-2.16-4.41-4.036-4.545.01.08.177 2.753-.971 5.142-.39.098-3.859.735-3.859.735.561-1.895-.55-5.558-.55-5.558s-1.056 4.352-1.41 5.584c-.35.145-1.161 1.1-2.09 1.898l-.657-5.146s-.19 4.864-.19 5.429c-.011-.08-3.52 2.886-3.52 2.886l-1.526-6.034 6.308-7.19 4.501-2.902 6.185-.724.696-.344 4.475 5.489-.454 5.84z"/>
            <path fill="#2C2435" d="M115.93 57.03s.577-1.231-1.57-7.657c-.585-1.75-.994-3.567-1.252-4.913-.384-2.003.24-4.086 1.717-5.491.979-.931 2.414-1.895 4.516-2.666 2.146-.788 4.065-.998 5.674-.924a6.91 6.91 0 0 1 6.379 5.174c.65 2.527 1.502 6.361 2.278 11.528 1.932-1.7.94-11.973.94-11.973l-3.565-9.092-12.353-1.302-8.837 8.117-1.925 6.197 3.363 13.27s3.271 2.026 4.635-.268"/>
            <path fill="#FFF24A" d="M113.087 58.259c2.38-1.263-3.157-12.465-3.37-15.982-.221-3.672 2.177-6.51 7.07-8.816 6.475-3.054 12.472-1.876 15.244 1.657 1.7 2.153 2.58 11.023 2.242 16.708 1.156 1.559 3.252-2.96 2.573-9.567-.678-6.606-2.806-15.18-12.999-18.566-10.194-3.385-21.886 3.964-22.673 14.255-.989 12.93 8.392 22.178 11.913 20.31"/>
            <path fill="#794DA3" d="M137.057 210.186l-2.146 15.52s16.1-3.921 18.102-4.313l-4.425-7.512s-.04-.45.549-2.627c.184-.681.78-1.89.567-2.327-.209-.431-2.35-1.014-5.277-1.209-1.784-.119-3.664 2.75-3.664 2.75l-3.706-.282z"/>
            <path fill="#794DA3" d="M152.928 221.248c-3.107.544-6.817 1.525-6.817 1.525l-5.348-12.304s-2.552-.229-3.706-.283c-.774 2.299-2.763 14.058-2.763 14.058s19.312 3.079 19.881 2.795c.836-.418 2.966-3.166 2.165-4.217-1.694-2.222-3.412-1.574-3.412-1.574"/>
            <path fill="#FFF" d="M134.24 222.533s7.31 2.16 12.421 1.88c5.184-.282 9.123-.167 9.753-.36.325.285-.018 3.146-.912 3.511-.274.128-5.418.592-9.972.592-6.508 0-11.717-2.842-11.717-2.842l.427-2.781z"/>
            <path fill="#FF5F2E" d="M149.289 57.142s1.754 12.622 6.17 15.795c-.097.292-10.442 6.722-10.442 6.722l-6.146-15.15s9.348-5.519 10.418-7.367"/>
            <path fill="#FFF" d="M103.334 38.158s.216-7.381 8.094-11.185c.535 0 2.246 1.015 2.246 1.015s-7.425 3.845-7.899 11.167l-2.441-.997z"/>
            <path stroke="#2F64A3" stroke-width=".8" d="M100.482 129.116c-1.952 6.072-1.423 16.933 2.607 19.165 5.785 2.034 18.776 3.397 31.017 1.38.8-.506 2.18-2.223 2.576-2.65.21 1.033.31 2.009.344 3.053a80.774 80.774 0 0 1 3.147-1.777c.034.539-.116 2.299-.19 3.31-.78 9.195-.81 17.286-.336 26.502"/>
            <path fill="#231F20" d="M118.867 126.396s.23 10.673-4.226 19.917c-1.447 3.002-5.199 6.007-10.316 6.57-3.81.42-11.635-2.916-15.08-11.95-2.14-5.607 25.245-13.443 25.245-13.443l4.377-1.094z" opacity=".264"/>
            <path fill="#257E99" d="M117.622 120.929s1.027 13.266-4.231 24.134c-1.452 3-5.2 6.007-10.317 6.57-3.81.42-16.265-3.883-19.711-12.917-2.14-5.607 30.07-18.036 30.07-18.036l4.19.249z"/>
            <path fill="#66D3C8" d="M97.662 117.062S86.813 129.99 84.967 132.99c-1.847 3-3.232 6.232 1.153 9.002 4.386 2.77 13.158 9.925 21.237 3.462 8.078-6.463 7.617-24.698 7.617-24.698s-12.465-.693-17.312-3.694"/>
            <path fill="#257E99" d="M97.662 117.062s-8.01 10.15-5.032 15.202c3.369 5.715 14.703 5.69 21.837-11.564l.507.056s-7.01 21.822-20.942 14.914c-8.887-6.145 3.63-18.608 3.63-18.608"/>
            <path fill="#1E5B84" d="M97.662 117.062l4.27-4.952 2.513-.202-3.859 6.386s-1.906-.468-2.924-1.232"/>
            <path fill="#FFEF5F" d="M217.677 78.93c.9 3.314-1.585 6.872-5.55 7.947-3.963 1.076-7.905-.738-8.804-4.052-.9-3.314 1.585-6.873 5.548-7.948 3.964-1.076 7.906.739 8.806 4.053"/>
            <path fill="#FFEF5F" d="M193.382 98.887s3.965-9.495 5.521-12.37c1.556-2.877 6.769-5.578 6.769-5.578l.525 2.394s-4.1 2.006-5.43 4.321c-1.166 2.031-5.45 13.138-5.45 13.138l-1.935-1.905z"/>
            <path fill="#FF4C5A" d="M199.434 180.113c8.695-1.254 8.794-11.987 4.46-17.807-4.157-5.584-11.375-9.382-18.235-6.019-7.088 2.961-10.695 12.831-8.168 19.771 3.214 8.832 14.985 5.058 21.943 4.055"/>
            <g transform="translate(184.976 160.275)">
                <mask id="b" fill="#fff">
                    <use xlink:href="#a"/>
                </mask>
                <path fill="#FFF" d="M.266 18.128l17.232-.693-.724-17.997L-.457.13z" mask="url(#b)"/>
            </g>
            <g>
                <path fill="url(#c)" d="M40.85 36.008c.054 4.757 4.798 6.46 3.843 7.5-.293.319-2.054.54-3.685-.524-2.39-1.56-2.129-7.16-2.129-7.16l1.97.184z" transform="translate(84.388 8.052)"/>
                <path fill="#EAA471" d="M181.014 8.205s-2.284 3.782.049 3.583c-.158.458-1.065 1.245-1.029 1.538.124 1 1.545.907 1.545.907s-1.22 1.6-.976 2c.244.4 2.074.7 2.074.7s-.976 1.4-.732 1.9 3.24-.352 3.24-.352l.907.724s-.587-.16-1.57.151c-1.238.393-3.014.843-3.18.233-.297-1.098.14-2.132.14-2.132s-1.776-.507-1.735-1.218c.042-.711.867-1.557.867-1.557s-1.692.034-1.403-1.15c.08-.329.536-1.083.746-1.475-.298-.304-.56-.351-.666-.947-.211-1.197 1.723-2.905 1.723-2.905"/>
                <path fill="#EAA471" d="M188.788 10.402s-.533-1.749-1.99-1.458c-1.457.29-3.992.945-6.58 2.822l.69.289s3.1-2.079 5.893-2.203c1.214 0 1.987.55 1.987.55M188.612 13.858s-.386-1.787-1.862-1.618c-1.476.168-4.19.662-6.064 1.945l.212.635s2.986-1.783 5.779-1.675c1.21.101 1.935.713 1.935.713M181.82 16.917s3.018-1.347 4.05-1.104c1.033.243 2.398 2.237 2.398 2.237l-1.354-1.03a2.708 2.708 0 0 0-2.396-.446l-2.547 1.344-.151-1.001z"/>
                <path fill="#EAA471" d="M177.947 21.185s.347-3.92 3.771-3.771c1.638.247-2.283.793-3.77 3.77M159.778 51.925s1.91 1.811 2.982 3.357c-.094-1.104-.788-3.091-2.982-3.357M99.8 97.365s-7.248-1.586-11.984 3.158c.243-1.159 4.509-6.65 12.624-4.21a124.1 124.1 0 0 0-.64 1.052M137.44 186.376l14.713.754.234-2.06-15.19-.16z"/>
                <path fill="#231F20" d="M123.646 90.653c.902 3.83 5.347 6.062 9.93 4.983 4.582-1.078 7.565-5.059 6.663-8.89-.901-3.83-5.347-6.062-9.93-4.983-4.582 1.079-7.565 5.059-6.663 8.89" opacity=".264"/>
                <path fill="#E29F0A" d="M204.812 81.504s1.089-2.05 2.478-1.536c1.388.515 1.919 2.552.837 3.501-1.082.95-2.31.846-2.31.846s1.24 1.017 2.925-.437c1.684-1.454.745-3.621-.215-4.279-.96-.657-2.957-.234-3.715 1.905"/>
                <path fill="#FFEF5F" d="M125.334 90.02c.787 3.342 4.666 5.289 8.664 4.348 3.997-.942 6.6-4.414 5.813-7.756-.787-3.343-4.665-5.29-8.663-4.348-3.998.94-6.6 4.414-5.814 7.756"/>
                <path fill="#FFEF5F" d="M154.17 100.118s-5.189-7.974-7.464-10.581c-2.15-2.463-7.82-4.264-7.82-4.264l.225 2.894s4.383 1.381 5.996 2.912c2 1.9 7.157 10.973 7.157 10.973l1.906-1.934z"/>
                <path fill="#E29F0A" d="M137.873 86.159s-1.934-1.284-2.91-.171c-.976 1.114-.473 3.157.93 3.478 1.404.32 2.435-.357 2.435-.357s-.607 1.486-2.781 1.009c-2.173-.477-2.38-2.83-1.848-3.865.53-1.035 2.49-1.614 4.174-.094"/>
                <path fill="#FFE448" d="M154.1 217.375s-2.401 9.225-6.256 11.941c-3.284 2.316 15.86-1.074 15.86-1.074l-7.14-11.246-2.465.379z"/>
                <path fill="#9B93B5" d="M84.58 89.134s.073.622.982 1.24c0-.015.603-1.623.603-1.623s-1.042.185-1.585.383M155.356 71.746s.413 1.217.103 1.19c-.31-.025-.725-.633-.725-.633l.622-.557z"/>
            </g>
        </g>
    </g>
</svg>
