<?xml version="1.0" encoding="UTF-8"?>
<svg width="40px" height="42px" viewBox="0 0 40 42" version="1.1" xmlns="http://www.w3.org/2000/svg" xmlns:xlink="http://www.w3.org/1999/xlink">
    <!-- Generator: Sketch 62 (91390) - https://sketch.com -->
    <title>Group 136</title>
    <desc>Created with Sketch.</desc>
    <g id="Kirana-Cash-Payment-Flow---Final" stroke="none" stroke-width="1" fill="none" fill-rule="evenodd">
        <g id="5.-Kirana_OnlinePayment" transform="translate(-24.000000, -193.000000)">
            <g id="Group-7" transform="translate(24.000000, 193.000000)">
                <g id="Group-11">
                    <g id="Group-136">
                        <g id="Group-3" transform="translate(0.000000, 0.013748)" fill="#FBFBFB">
                            <path d="M39.9770109,20.5222316 C39.9770109,27.8240233 36.2541123,34.2344281 30.6483152,37.8652965 C27.563279,39.8640614 23.9076993,41.0208949 19.9884964,41.0208949 C17.1921558,41.0208949 14.5296196,40.4320743 12.1130978,39.3679465 C11.2869022,39.0049637 10.4897645,38.5859859 9.72567029,38.1156205 C3.89925725,34.5341332 1.8115942e-05,27.9950922 1.8115942e-05,20.5222316 C1.8115942e-05,9.20121087 8.94925725,0.0235684298 19.9884964,0.0235684298 C31.0277355,0.0235684298 39.9770109,9.20121087 39.9770109,20.5222316" id="Fill-1"></path>
                        </g>
                        <path d="M38.1772681,20.5359796 C38.1772681,27.1803224 34.789587,33.0135366 29.6885,36.3175013 C26.8812536,38.1363167 23.5548043,39.1889631 19.9885,39.1889631 C17.4439348,39.1889631 15.0211087,38.653165 12.8221957,37.6848641 C12.0703841,37.3545419 11.3450217,36.9733152 10.6497319,36.5452712 C5.34792029,33.286266 1.79973188,27.3360085 1.79973188,20.5359796 C1.79973188,10.2343129 9.94321014,1.88299604 19.9885,1.88299604 C30.0337899,1.88299604 38.1772681,10.2343129 38.1772681,20.5359796" id="Fill-5" fill="#E7F5F9"></path>
                        <path d="M25.9881232,24.5104276 C25.951529,26.8145082 25.9616739,29.1163595 26.142471,31.4148666 C26.1739928,31.8150431 26.1942826,32.2557204 26.0718188,32.6239423 C26.0145725,32.7948626 25.9268913,32.9505488 25.7953696,33.0791106 C25.3033406,33.5595454 24.5160217,33.380079 23.8453696,33.2693524 C22.6511667,33.0716793 21.4207319,33.2006127 20.250442,33.5138428 C19.2812391,33.7731958 18.3062391,34.1611107 17.3113116,34.0429527 C16.5997174,33.9582357 15.9392101,33.6167666 15.3471812,33.2032136 C15.1808768,33.0869135 15.0127609,32.9579801 14.9221812,32.7736834 C14.8402971,32.6072218 14.8312391,32.4143791 14.8239928,32.2282245 C14.8232681,32.2040727 14.8225435,32.1799209 14.8214565,32.1557691 C14.8210942,32.1357046 14.8203696,32.1152684 14.8196449,32.0952039 C14.7863116,31.0733974 14.7261667,30.0523341 14.6587754,29.032014 C14.5917464,28.0187536 14.5747174,26.9817129 14.4518913,25.974026 C14.3761667,24.8307175 14.2830507,23.6888952 14.160587,22.5493024 C14.0982681,21.9689163 14.0294275,21.3892734 13.9540652,20.8103736 C13.9163841,20.5209237 13.8772536,20.2318454 13.8363116,19.9427671 C13.8323261,19.9145281 13.8276159,19.8855459 13.8229058,19.8565638 C13.7816014,19.6131881 13.7145725,19.3519772 13.7145725,19.1112024 L15.476529,18.5921248 C16.0279783,18.3524647 16.5794275,18.1131762 17.1312391,17.8735162 C17.4627609,17.7297201 17.7989928,17.5844378 18.1558768,17.5353911 C18.3029783,17.5153266 18.4518913,17.5119825 18.5997174,17.4989777 C18.6678333,17.492661 18.7359493,17.4848581 18.8037029,17.4718533 C19.1609493,17.4038568 19.4808768,17.2102709 19.8069638,17.0456672 C20.4895725,16.7012255 21.2609493,16.2977049 22.0018913,16.4749418 C22.2884855,16.54331 22.9203696,16.7053127 23.1881232,16.830902 C23.468558,16.962808 23.7051522,17.0835669 23.9392101,17.2035827 C24.2026159,17.3392043 24.4631232,17.4740827 24.7790652,17.6223376 C24.7845,17.6249385 24.7899348,17.6275395 24.7957319,17.6301404 C25.1942826,17.8181528 25.6417464,18.0589276 25.9493551,18.4022545 C26.0134855,18.4728521 26.0707319,18.5479084 26.1207319,18.6274235 C26.3551522,19.0012189 26.2341377,19.5314435 26.2073261,19.9461112 C26.1743551,20.4614732 26.1428333,20.9768352 26.1142101,21.4921972 C26.058413,22.4972832 26.0040652,23.5038554 25.9881232,24.5104276" id="Fill-7" fill="#093A4B"></path>
                        <path d="M11.4976486,14.9564111 C11.878337,14.9202206 12.260221,14.8642999 12.6430471,14.860993 C12.7076123,14.8604356 12.7630833,14.8813548 12.8180833,14.9140155 C12.8856558,14.9541074 12.9326848,15.0307615 12.9783007,15.0937048 C13.1765616,15.3672145 13.3345688,15.6738307 13.5094964,15.9632806 C13.5159819,15.9739446 13.5223949,15.9846085 13.5288804,15.9952724 C13.5288804,15.9952724 13.7476123,16.0343983 13.8279022,15.8203392 C13.7990254,15.7735962 13.7701486,15.7268532 13.7412717,15.6801102 C13.602721,15.455833 13.4628659,15.2323732 13.3242428,15.0081331 C13.2190616,14.8380302 13.1117065,14.6582666 12.9310181,14.5633315 C12.9198225,14.5574236 12.9084457,14.5518501 12.8968877,14.5467225 C12.7165978,14.4666129 12.5306196,14.4954464 12.3414529,14.507225 C12.0280471,14.5267322 11.7148949,14.5504753 11.4016341,14.5720633 L11.4976486,14.9564111 Z" id="Fill-9" fill="#001C26"></path>
                        <path d="M13.3687935,15.6724931 C13.3708587,15.6719729 13.3723804,15.6714899 13.374192,15.6707096 C13.2623442,15.8057738 13.3461486,15.945817 13.3461486,15.945817 L13.5784674,16.3961921 L13.6855688,16.6028943 C13.7386486,16.5650317 13.7905326,16.524754 13.8405688,16.4821353 C13.9681051,16.3740096 14.0854601,16.254737 14.1933949,16.1267325 L14.1696268,16.0912851 L14.1693732,16.0915452 L14.0826341,15.9622774 L13.857779,15.6273107 C13.857779,15.6273107 13.782308,15.4981543 13.6278514,15.5219346 C13.629663,15.5201139 13.6304239,15.5193336 13.6304239,15.5193336 L13.3687935,15.6724931 Z" id="Fill-11" fill="#FCDD00"></path>
                        <path d="M25.9493587,18.4022694 C25.9384891,18.4728669 25.9261703,18.5434645 25.9127645,18.6136904 C25.6000833,20.2348328 24.6808804,21.6850548 23.5239964,22.8116428 C22.0348659,24.2622364 19.9308804,24.7813141 18.4460978,26.2359949 C17.6663877,27.0003061 17.0989964,27.940368 16.6489964,28.9391373 C16.6486341,28.9395089 16.6486341,28.940252 16.6482717,28.9406236 C16.41675,29.4552425 15.6700109,31.5657372 14.8214601,32.155784 C14.8210978,32.1357194 14.8203732,32.1152833 14.8196486,32.0952187 C14.7863152,31.0734123 14.7261703,30.052349 14.658779,29.0320288 C14.59175,28.0187684 14.574721,26.9817278 14.4518949,25.9740409 C14.3761703,24.8307324 14.2830543,23.6889101 14.1605906,22.5493173 C14.0982717,21.9689312 14.0294312,21.3892883 13.9540688,20.8103885 C13.9163877,20.5209386 13.8772572,20.2318603 13.8363152,19.9427819 C13.8323297,19.9145429 13.8276196,19.8855608 13.8229094,19.8565786 C13.7816051,19.6132029 13.7145761,19.351992 13.7145761,19.1112173 L15.4765326,18.5921396 C16.0279819,18.3524796 16.5794312,18.1131911 17.1312428,17.873531 C17.4627645,17.729735 17.7989964,17.5844527 18.1558804,17.535406 C18.3029819,17.5153414 18.4518949,17.5119973 18.599721,17.4989925 C18.667837,17.4926759 18.7359529,17.484873 18.8037065,17.4718682 C19.1609529,17.4038716 19.4808804,17.2102858 19.8069674,17.045682 C20.4895761,16.7012404 21.2609529,16.2977197 22.0018949,16.4749567 C22.2884891,16.5433248 22.9203732,16.7053276 23.1881268,16.8309169 C23.4685616,16.9628228 23.7051558,17.0835818 23.9392138,17.2035976 C24.2026196,17.3392191 24.4631268,17.4740976 24.7790688,17.6223524 C24.7845036,17.6249534 24.7899384,17.6275543 24.7957355,17.6301553 C25.1942862,17.8181677 25.64175,18.0589424 25.9493587,18.4022694" id="Fill-13" fill="#001C26"></path>
                        <g id="Group-19" transform="translate(21.775362, 3.952347)">
                            <path d="M2.86009783,3.39171368 C3.35488043,3.2763796 3.85248913,3.17419895 4.34640217,3.05492628 C4.72263406,2.9640784 5.12241667,2.88504631 5.45806884,2.67106147 C5.80161957,2.45206048 6.01205435,2.10289993 6.08622101,1.69752145 C6.15991667,1.29437237 6.08872101,0.848678983 5.83763406,0.517576542 C5.6049529,0.210737359 5.23636594,0.0651949661 4.86959058,0.0214244942 C4.61267029,-0.00919254224 4.35140217,0.00462971206 4.09607609,0.0436069829 C3.26723551,0.170125198 2.39868478,0.636291871 1.96571377,1.39580988 C1.78488043,1.71305291 1.66151087,2.06789842 1.59879348,2.4293578 C1.57955435,2.54038171 1.56846739,2.65415522 1.52832246,2.7591226 C1.41241667,3.06206034 1.1466558,3.28139574 0.977815217,3.55215587 C0.961873188,3.57775676 0.945568841,3.60595862 0.948141304,3.63620409 C0.954445652,3.71074022 1.03259783,3.76026997 1.08107609,3.8066414 C1.12969928,3.85316146 1.17651087,3.90172514 1.22132971,3.95210948 C1.2531413,3.98792844 1.30027899,4.06049528 1.35560507,4.05072309 C1.44680072,4.03448566 1.60053261,3.90414031 1.67169203,3.84952012 C2.02201812,3.58065498 2.44053261,3.48950984 2.86009783,3.39171368" id="Fill-15" fill="#001C26"></path>
                            <path d="M0.817753623,7.13415219 C0.817753623,7.13415219 0.590942029,7.15979025 0.481884058,7.17168036 L0.474275362,7.17279506 C0.470289855,7.17465289 0.465942029,7.17576758 0.461594203,7.17725385 C0.35326087,7.20958009 0.136956522,7.17390975 0.136956522,7.17390975 L0.132971014,7.1516158 L0.0380434783,6.59649623 C0.0380434783,6.59649623 0.00362318841,6.45009923 0.130072464,6.35609304 C0.144202899,6.34531763 0.160507246,6.33528535 0.178985507,6.32636776 L0.280797101,6.29738562 L0.288043478,6.29701405 L0.377173913,6.27880732 C0.389492754,6.27843575 0.401449275,6.27880732 0.412681159,6.27992202 C0.584782609,6.29589935 0.620652174,6.45604429 0.620652174,6.45604429 L0.801811594,7.07878886 L0.817753623,7.13415219 Z" id="Fill-17" fill="#3E3C38"></path>
                        </g>
                        <path d="M23.1295362,6.71167425 C23.1399348,6.70650948 23.1511304,6.70268235 23.1632319,6.70052727 C23.2545725,6.68425268 23.3405145,6.75860303 23.4053696,6.81456087 C23.5120725,6.90659776 23.6028333,7.01684138 23.6816377,7.13444202 C23.7615652,7.25378901 23.8613478,7.39093401 23.8772899,7.53933746 C23.8772899,7.53933746 23.8888478,7.64679434 23.7918913,7.70505588 C23.7423261,7.73489263 23.6626159,7.74447903 23.6126884,7.710778 C23.5838116,7.69127079 23.5729783,7.65296234 23.5566377,7.62331137 C23.533413,7.58106432 23.5096812,7.53918883 23.4848623,7.49794501 C23.3969275,7.35203105 23.2935217,7.20975844 23.1547899,7.11077326 C23.1095,7.07848418 23.0490652,7.05998019 23.0102246,7.01944235 C22.9525435,6.95936013 22.9941739,6.87096458 23.0326522,6.81296313 C23.0586304,6.77383724 23.0878333,6.732259 23.1295362,6.71167425" id="Fill-20" fill="#042D3B"></path>
                        <path d="M22.8256159,7.21791431 C22.8166304,7.18347015 22.8349638,7.14545895 22.864058,7.12591458 C22.9399275,7.07497288 23.0330797,7.13174816 23.099058,7.17522138 C23.2083696,7.24719371 23.3072464,7.33584935 23.3913768,7.43736118 C23.4438406,7.50063886 23.4910145,7.56971298 23.5204348,7.64707301 C23.5356522,7.68716498 23.545942,7.73208731 23.5327536,7.77295957 C23.5255072,7.79532784 23.511413,7.81516946 23.4934783,7.82988347 C23.469058,7.84983657 23.435471,7.86024041 23.4059058,7.84998519 C23.3773913,7.84010154 23.3578261,7.81375751 23.3401449,7.78878828 C23.2466304,7.65695667 23.1509783,7.52144656 23.0180797,7.43201063 C22.9802174,7.4065212 22.9397101,7.38508184 22.903587,7.35706577 C22.8508696,7.31615636 22.7951087,7.24615333 22.830942,7.17525854" id="Fill-22" fill="#FCDD00"></path>
                        <path d="M11.0883261,14.4486997 C11.1847391,14.4748208 11.3012971,14.4830324 11.3848116,14.543449 C11.5011522,14.627683 11.5240145,14.8062948 11.5022754,14.9402071 C11.476913,15.0965993 11.3458261,15.2107443 11.1987971,15.2452257 L11.0883261,14.4486997 Z" id="Fill-24" fill="#3E3C38"></path>
                        <path d="M10.8340554,14.299293 C10.8330145,14.280789 10.9166739,14.293125 10.925913,14.2942397 C11.1891739,14.3257856 11.3063841,14.6112969 11.3346087,14.8503625 C11.3561304,15.0323555 11.3443913,15.2984339 11.1675072,15.4005031 C11.0882319,15.44628 10.9858406,15.4457598 10.9008406,15.4186355 C10.9008406,15.4186355 10.8341014,14.2999618 10.8340554,14.299293" id="Fill-26" fill="#FCDD00"></path>
                        <path d="M10.5614783,14.1751417 C10.5650652,14.1514357 10.6623478,14.1837991 10.6751014,14.1875148 C10.9936159,14.2801834 11.1476739,14.6576201 11.1417681,14.9712218 C11.1374203,15.2003293 11.0446304,15.4496873 10.8388696,15.5632378 C10.7886884,15.5909566 10.7333261,15.6076771 10.6766594,15.6133992 C10.6766594,15.6133992 10.4362609,15.6416382 10.3711522,15.4593108 C10.3711522,15.4593108 10.5613333,14.1762192 10.5614783,14.1751417" id="Fill-28" fill="#042D3B"></path>
                        <path d="M10.686308,15.3658211 C10.686308,15.3658211 10.1700036,15.9577257 8.65225,16.7714552 C8.65225,16.7714552 7.96674275,17.1452506 7.50261232,17.0917451 C7.50261232,17.0917451 6.75297464,17.077254 6.26456884,16.5384833 C6.26456884,16.5384833 5.66638043,15.9469503 5.60080072,15.2331721 C5.60080072,15.2331721 5.50623551,14.6787956 5.87725,14.2195401 C5.90877174,14.1805256 5.9406558,14.1422543 5.97362681,14.1043546 C6.51275725,13.4782659 7.21782971,12.9903998 8.04319203,12.8949074 C8.45297464,12.8477185 8.87253986,12.9023387 9.2580471,13.0487357 C9.7348587,13.2296883 10.1446413,13.5551801 10.453337,13.9679899 C10.4605833,13.9776506 10.4674674,13.9873113 10.4747138,13.9969721 C10.7565978,14.3848869 10.9750761,14.9184557 10.686308,15.3658211" id="Fill-30" fill="#001C26"></path>
                        <path d="M27.571692,11.7128817 C27.5231413,11.7277443 27.471692,11.7221708 27.4206051,11.6995053 L27.4198804,11.6995053 C27.4006775,11.6909593 27.3814746,11.6801839 27.3626341,11.6668075 C27.254663,11.5921227 27.1561123,11.4457257 27.1028514,11.2621722 C27.0720543,11.1555327 27.0604601,11.0503796 27.0662572,10.9571165 L27.0662572,10.9560018 C27.0662572,10.9552587 27.0666196,10.954144 27.0666196,10.9534008 C27.0709674,10.8842896 27.0850978,10.8218665 27.1075616,10.7698472 C27.139808,10.6947909 27.189808,10.641657 27.2543007,10.621964 C27.4256775,10.5695732 27.6354601,10.7713335 27.7231413,11.0726735 C27.8104601,11.3740135 27.7427065,11.6604909 27.571692,11.7128817" id="Fill-32" fill="#FCDD00"></path>
                        <path d="M27.5549384,11.5805299 C27.5529819,11.5849515 27.5504819,11.5887043 27.5470399,11.5907108 C27.5321848,11.5994054 27.5130181,11.604533 27.4970036,11.6111469 C27.4775471,11.6192099 27.4580906,11.6272729 27.4385978,11.6353359 C27.413308,11.645814 27.3880181,11.6562922 27.3626196,11.6668075 L27.3372572,11.6764682 L24.7383442,12.6432829 L24.4546486,11.7396344 L27.1075471,10.7698472 C27.1075471,10.7698472 27.1865688,10.7408651 27.1868949,10.7412367 C27.1901558,10.7397504 27.1934167,10.7386357 27.1966775,10.7378926 C27.323163,10.7029654 27.4818225,10.8891199 27.55175,11.1533033 C27.5831268,11.2723902 27.5977283,11.4034787 27.5706268,11.5249808 C27.5680181,11.5366108 27.5649746,11.5481665 27.5614601,11.5595364 C27.5596486,11.5652214 27.5579819,11.5736559 27.5549384,11.5805299" id="Fill-34" fill="#001C26"></path>
                        <path d="M13.870663,17.3090703 C13.7868949,17.5359113 13.8849746,17.7846747 13.9391413,18.0207678 C13.9613514,18.1177836 13.9762065,18.2167688 14.0066413,18.3113695 C14.0380906,18.409017 14.0855906,18.5002736 14.1236341,18.5953945 C14.2591775,18.9342256 14.2812428,19.3335103 14.5176196,19.6080604 C14.5638514,19.6617517 14.617837,19.7098324 14.6517862,19.7724784 C14.6875471,19.8385428 14.6827283,19.9384941 14.7111703,20.0081998 C14.7346848,20.0657554 14.7761703,20.112164 14.8188152,20.1555258 C14.9313514,20.2700052 15.0383804,20.4110888 15.2109891,20.4146187 C15.5583442,20.4217528 15.9328732,20.3392651 16.260663,20.2240425 C16.4509167,20.1571235 16.6104457,20.0467684 16.66925,19.8420727 C16.7365688,19.607949 16.6984167,19.3503051 16.6553732,19.1152525 C16.6529457,19.1019504 16.6504819,19.0886484 16.6480543,19.0753463 C16.6477645,19.0739344 16.6475471,19.0725224 16.6472572,19.0711105 C16.5978732,18.8010563 16.4902645,18.5457162 16.3669312,18.3017831 C16.2217138,18.0145998 16.0496123,17.7348106 15.8088514,17.5256933 C15.6934529,17.4254819 15.5644312,17.3433658 15.4358804,17.2616213 C15.2980181,17.1739317 15.1558442,17.084533 14.9961341,17.0552536 C14.8908804,17.0359693 14.782837,17.0438836 14.6763514,17.0538788 C14.4746848,17.0728658 14.2736703,17.0992098 14.0738152,17.1329109 L13.870663,17.3090703 Z" id="Fill-36" fill="#001C26"></path>
                        <path d="M14.0417717,18.6022202 C14.0417717,18.6022202 13.7772065,19.1392074 13.4014094,19.4377235 C13.4014094,19.4377235 12.2481486,20.4360469 12.1965906,20.5716685 C12.1965906,20.5716685 11.4330761,21.3488359 11.2715906,21.5354363 C11.2715906,21.5354363 11.058221,21.476283 10.9572428,21.5713668 C10.9572428,21.5713668 10.8314094,21.6477607 10.813221,21.8158572 C10.813221,21.8158572 10.7933297,21.9363932 10.9125326,22.0467483 C10.9125326,22.0467483 10.9787645,22.1061988 11.0466268,22.1265606 C11.0466268,22.1265606 11.1343804,22.163903 11.2403587,22.0569663 C11.2403587,22.0569663 11.4158297,21.8769798 11.4323877,21.8073483 C11.4323877,21.8073483 12.3214819,21.1417993 12.538221,20.9235043 L14.5973514,19.0221641 L14.0417717,18.6022202 Z" id="Fill-38" fill="#042D3B"></path>
                        <path d="M15.1737899,18.5184729 C15.5760725,18.8102637 15.7617609,19.2504208 15.5885,19.5015622 C15.4153116,19.7527408 14.9487536,19.7198201 14.546471,19.4280293 C14.1441884,19.1362385 13.9585362,18.6961186 14.1317609,18.44494 C14.3049855,18.1937614 14.7715072,18.2266822 15.1737899,18.5184729" id="Fill-40" fill="#093A4B"></path>
                        <path d="M15.1627681,19.4593449 C15.1595072,19.4864692 15.1529855,19.5124788 15.1424783,19.5370022 L15.064942,19.64327 L13.4403043,21.8656061 L12.4877681,21.1024096 L14.1533478,18.9603318 C14.1533478,18.9603318 14.2413551,18.8470413 14.2413913,18.8470042 C14.2678768,18.8129687 14.3244348,18.8008557 14.3638551,18.7916408 C14.5102319,18.7574568 14.7018986,18.8024162 14.8711014,18.9254046 C15.074,19.0725447 15.1848696,19.2869383 15.1627681,19.4593449" id="Fill-42" fill="#001C26"></path>
                        <path d="M15.0979457,19.5483349 C15.0946848,19.5754592 15.088163,19.6014689 15.0776558,19.6259922 L15.0001196,19.7322601 L13.3754819,21.9545962 L13.1399384,22.2738085 L12.228308,21.4293505 L12.4229457,21.1913997 L14.0885254,19.0493218 C14.0885254,19.0493218 14.1765326,18.9360314 14.1765688,18.9359942 C14.2030543,18.9019588 14.2596123,18.8898457 14.2990326,18.8806309 C14.4454094,18.8464468 14.6370761,18.8914063 14.806279,19.0143946 C15.0091775,19.1615348 15.1200471,19.3759283 15.0979457,19.5483349" id="Fill-44" fill="#093A4B"></path>
                        <path d="M12.9403261,21.4785719 C13.2631522,21.7127328 13.4121377,22.0659805 13.2731522,22.2675179 C13.1341304,22.4690925 12.7597464,22.4426741 12.4368841,22.2085132 C12.1140942,21.9743524 11.9650725,21.6211046 12.1040942,21.4195672 C12.2431159,21.2179927 12.6175,21.244411 12.9403261,21.4785719" id="Fill-46" fill="#FCDD00"></path>
                        <path d="M16.4779783,23.6558259 L16.4493551,23.6517386 C16.426529,23.6483946 16.4037029,23.6450505 16.3812391,23.6413348 C16.0348623,23.5859715 15.6598623,23.4945662 15.3899348,23.2656816 C15.285587,23.1776205 15.1968188,23.0687516 15.1316014,22.9338732 C15.0171087,22.6968141 14.9627609,22.4356032 14.9163841,22.1766217 L15.2319638,22.1766217 C15.2102246,22.3605469 15.1692826,22.9401898 15.4714565,23.2314975 C15.4714565,23.2314975 15.7486304,23.5532737 16.4779783,23.6558259" id="Fill-48" fill="#001C26"></path>
                        <path d="M18.6055217,23.0163608 L18.391029,25.3739469 C18.2772609,25.8101654 17.9178406,25.7548021 17.9178406,25.7548021 L15.9537101,25.6072904 C15.8924783,25.593914 15.8355942,25.5771935 15.7834203,25.5578721 C15.2377681,25.3561118 15.1631304,24.870475 15.1631304,24.870475 L14.8595072,22.1766217 L14.9163913,22.1766217 C14.9279855,22.2412742 14.939942,22.3062983 14.9533478,22.3709507 C14.9566087,22.3869281 14.9602319,22.403277 14.9638551,22.4192543 C14.9783478,22.4857646 14.9946522,22.5519034 15.0131304,22.617299 C15.0171159,22.6310469 15.0211014,22.6447949 15.0254493,22.6585428 C15.0301594,22.6741486 15.0348696,22.6897543 15.0403043,22.7053601 C15.0453768,22.7209659 15.0504493,22.7365717 15.0562464,22.7521774 C15.0616812,22.7674116 15.0671159,22.7830174 15.0732754,22.7982516 C15.0906667,22.8439542 15.1102319,22.8892853 15.1316087,22.9338732 C15.1968261,23.0687516 15.2855942,23.1776205 15.389942,23.2656816 C15.6598696,23.4945662 16.0348696,23.5859715 16.3812464,23.6413348 C16.4037101,23.6450505 16.4265362,23.6483946 16.4493623,23.6517386 C16.925087,23.7238224 17.4475507,23.7572634 17.9084203,23.6049213 C18.2171159,23.5027407 18.4573333,23.2890903 18.6055217,23.0163608" id="Fill-50" fill="#093A4B"></path>
                        <path d="M18.77175,22.3828483 C18.7659529,22.6102467 18.7076196,22.8272412 18.6054457,23.0163683 L18.7076196,21.8905234 C18.754721,22.0495536 18.7757355,22.2167583 18.77175,22.3828483" id="Fill-52" fill="#3E3C38"></path>
                        <path d="M15.7834167,29.4288361 C15.2377645,29.2270758 15.1631268,28.7414391 15.1631268,28.7414391 L14.8595036,26.0475858 L14.9163877,26.0475858 C14.9279819,26.1122382 14.9399384,26.1772623 14.9533442,26.2419148 C14.9569674,26.2582637 14.9602283,26.274241 14.9638514,26.2902183 C14.9783442,26.3567286 14.9946486,26.4228674 15.0131268,26.488263 C15.0171123,26.5020109 15.0210978,26.5157589 15.0254457,26.5295068 C15.0301558,26.5451126 15.0352283,26.5607184 15.0403007,26.5763241 C15.0453732,26.5919299 15.050808,26.6075357 15.0562428,26.6231414 C15.0616775,26.6383757 15.0674746,26.6539814 15.0732717,26.6692156 C15.090663,26.7149182 15.1102283,26.7602493 15.1316051,26.8048372 C15.1968225,26.9397157 15.2855906,27.0485845 15.3899384,27.1366456 C15.3660254,27.4253524 15.3859529,27.7200042 15.4105906,28.0057384 C15.4511703,28.4768841 15.5377645,29.0126822 15.7834167,29.4288361" id="Fill-54" fill="#001C26"></path>
                        <path d="M21.5091159,20.3630602 C21.4382101,19.9518482 21.5071232,19.4857558 21.7188623,19.1260799 C21.8821232,18.8486688 22.1627754,18.6473915 22.4669058,18.5660557 C22.6085725,18.528156 22.7718333,18.5374823 22.8359275,18.6943946 C22.8642609,18.7637659 22.8635725,18.842798 22.8467971,18.9160337 C22.7885725,19.1700733 22.6058188,19.3950565 22.4453478,19.5896085 C22.278029,19.7925578 22.0981739,19.9874813 21.9644058,20.2165889 C21.9418696,20.2551575 21.9207101,20.2946178 21.9025942,20.3355272 C21.8915797,20.3604221 21.8815435,20.3860602 21.8661087,20.4083541 C21.837558,20.4496722 21.7922319,20.4764622 21.7447681,20.4903587 C21.6502029,20.5180404 21.5407464,20.494706 21.4710725,20.4235883 C21.438971,20.3908534 21.4151304,20.3412493 21.4329565,20.2985564 L21.5091159,20.3630602 Z" id="Fill-56" fill="#231E18"></path>
                        <path d="M23.2714746,21.0459725 C23.3958587,21.0416251 23.5383949,21.0227124 23.6071993,20.9163331 C23.6456775,20.8568825 23.6519457,20.7816404 23.6496993,20.7102998 C23.6374891,20.3223106 23.3881775,19.9526767 23.0385036,19.8040875 C22.7759312,19.6925434 22.4720906,19.7027986 22.2056051,19.8041618 C21.9391196,19.905525 21.708721,20.0929801 21.5272355,20.3173316 C21.458721,20.4020486 21.3960761,20.4928222 21.3155326,20.565612 C21.1683587,20.6987069 20.9747355,20.7607956 20.7988659,20.8500086 C20.6926703,20.9038856 20.5912935,20.9676092 20.482163,21.0154297 C20.6215833,20.9554218 20.7965833,20.9644881 20.9454964,20.9592861 C21.1325978,20.9527837 21.3199167,20.9562393 21.5069094,20.9645995 C21.8866196,20.9815058 22.2650978,21.0190339 22.644663,21.0379466 C22.8533949,21.0483505 23.0625616,21.0532923 23.2714746,21.0459725" id="Fill-58" fill="#231E18"></path>
                        <path d="M24.7957428,17.6301442 C24.7515399,17.6498372 24.70625,17.6658145 24.6605978,17.6784477 C24.4287138,17.7419855 24.1884964,17.7512747 23.9475543,17.7523894 C23.7316123,17.7538756 23.515308,17.7483021 23.3029891,17.7694814 C23.2508152,17.7746833 23.1986413,17.7821146 23.1468297,17.7917754 C22.5048007,17.911048 22.0595109,18.3925975 21.7769022,18.9703826 C21.705163,19.1167796 21.6424819,19.268007 21.5859601,19.4210922 C21.3986413,19.9293944 21.0591486,20.1991513 20.5493659,20.335516 C20.0663949,20.4651926 19.6537138,20.5172118 19.1754529,20.3704432 C18.9156703,20.2909281 18.6692935,20.1623663 18.455163,19.9907028 C18.3435688,19.9011554 18.240308,19.7997179 18.1497283,19.6871334 C18.0874094,19.6094761 17.7656703,19.065132 17.8084239,18.8425639 C17.8533514,18.6095921 17.9580616,18.3933407 18.0750906,18.1886078 C18.2134964,17.9467184 18.372192,17.7144896 18.5725543,17.5238763 C18.5816123,17.5153303 18.5906703,17.5067843 18.5997283,17.4989814 C18.6678442,17.4926648 18.7359601,17.4848619 18.8037138,17.4718571 C19.1609601,17.4038605 19.4808877,17.2102746 19.8069746,17.0456709 C20.4895833,16.7012292 21.2609601,16.2977086 22.0019022,16.4749455 C22.2884964,16.5433137 22.9203804,16.7053164 23.1881341,16.8309057 C23.4685688,16.9628117 23.705163,17.0835706 23.939221,17.2035864 C24.2026268,17.339208 24.4631341,17.4740865 24.7790761,17.6223413 C24.7845109,17.6249422 24.7899457,17.6275432 24.7957428,17.6301442" id="Fill-60" fill="#042D3B"></path>
                        <path d="M23.1858116,21.0162026 L21.9659203,20.5320521 C21.7420072,20.4245953 21.645413,20.1513456 21.7501957,19.9217179 L22.244,18.839532 C22.3487464,18.6099042 22.6151957,18.5108447 22.8391087,18.6183016 L24.0590362,19.4368614 C24.282913,19.5443183 24.3795072,19.8175679 24.2747246,20.0471585 C24.2624783,20.065774 24.2501957,20.0843523 24.237913,20.1029306 C24.2072609,20.1493392 24.1766449,20.1957478 24.1459565,20.2421564 C24.1061739,20.3024615 24.0663913,20.3626924 24.0266087,20.4229604 C23.962442,20.5200877 23.9006667,20.6188871 23.8371159,20.7164232 C23.7689638,20.8209818 23.6996884,20.9389169 23.5896884,21.0043125 C23.4738913,21.0731265 23.3276232,21.0674787 23.2046884,21.0233367 C23.1983478,21.0210701 23.1920435,21.0186921 23.1858116,21.0162026" id="Fill-62" fill="#042D3B"></path>
                        <path d="M22.7105145,19.5381763 L22.5326522,19.4877177 C22.5034493,19.4793946 22.4922174,19.4430183 22.5114203,19.4190151 L22.5625797,19.3551801 C22.573087,19.3420638 22.5901522,19.3364903 22.6061304,19.3410234 L22.7839565,19.3915192 C22.8131594,19.3998052 22.8244275,19.4361443 22.8051884,19.4601846 L22.7540652,19.5240197 C22.743558,19.5371731 22.7264565,19.5427094 22.7105145,19.5381763" id="Fill-64" fill="#DDB200"></path>
                        <path d="M23.093942,19.6626881 L22.9160797,19.6122294 C22.8868768,19.6039435 22.8756449,19.5675672 22.8948841,19.5435269 L22.9460072,19.4796918 C22.9565145,19.4665756 22.9735797,19.4610021 22.989558,19.4655352 L23.1674203,19.516031 C23.1966232,19.5243169 23.2078551,19.5606932 23.1886159,19.5846964 L23.137529,19.6485686 C23.1269855,19.6616848 23.1099203,19.6672212 23.093942,19.6626881" id="Fill-66" fill="#DDB200"></path>
                        <path d="M23.4773841,19.7872221 L23.2995217,19.7367635 C23.2703188,19.7284404 23.259087,19.6920641 23.2783261,19.6680609 L23.3294493,19.6042259 C23.3399565,19.5910725 23.3570217,19.5855361 23.373,19.5900692 L23.5508623,19.6405279 C23.5800652,19.6488138 23.5912971,19.6851901 23.572058,19.7092304 L23.520971,19.7730655 C23.5104275,19.7862189 23.4933623,19.7917552 23.4773841,19.7872221" id="Fill-68" fill="#DDB200"></path>
                        <path d="M23.8608261,19.9117376 L23.6829638,19.8612789 C23.6537609,19.8529559 23.642529,19.8166167 23.6617681,19.7925764 L23.7128913,19.7287414 C23.7233986,19.7156251 23.7404638,19.7100516 23.756442,19.7145847 L23.9343043,19.7650805 C23.9635072,19.7733664 23.9747391,19.8097427 23.9555,19.8337459 L23.9043768,19.8975809 C23.8938696,19.9107344 23.8768043,19.9162707 23.8608261,19.9117376" id="Fill-70" fill="#DDB200"></path>
                        <path d="M22.5810688,19.7872221 L22.4032065,19.7367635 C22.3740036,19.7284404 22.3627717,19.6920641 22.3820109,19.6680609 L22.4331341,19.6042259 C22.4436413,19.5910725 22.4607065,19.5855361 22.4766848,19.5900692 L22.6545471,19.6405279 C22.68375,19.6488138 22.6949819,19.6851901 22.6757428,19.7092304 L22.6246558,19.7730655 C22.6141123,19.7862189 22.5970471,19.7917552 22.5810688,19.7872221" id="Fill-72" fill="#DDB200"></path>
                        <path d="M22.9645109,19.9117376 L22.7866486,19.8612789 C22.7574457,19.8529559 22.7462138,19.8166167 22.7654529,19.7925764 L22.8165761,19.7287414 C22.8270833,19.7156251 22.8441486,19.7100516 22.8601268,19.7145847 L23.0379891,19.7650805 C23.067192,19.7733664 23.0784239,19.8097427 23.0591848,19.8337459 L23.0080616,19.8975809 C22.9975543,19.9107344 22.9804891,19.9162707 22.9645109,19.9117376" id="Fill-74" fill="#DDB200"></path>
                        <path d="M23.3479529,20.0362679 L23.1700906,19.9858093 C23.1408877,19.9774862 23.1296558,19.9411099 23.1488949,19.9171067 L23.2000181,19.8532717 C23.2105254,19.8401183 23.2275906,19.8345819 23.2435688,19.839115 L23.4214312,19.8895737 C23.4506341,19.8978596 23.4618659,19.9342359 23.4426268,19.9582762 L23.3915036,20.0221113 C23.3809964,20.0352647 23.3639312,20.040801 23.3479529,20.0362679" id="Fill-76" fill="#DDB200"></path>
                        <path d="M23.7313949,20.1607834 L23.5535326,20.1103248 C23.5243297,20.1020017 23.5130978,20.0656254 23.532337,20.0416222 L23.5834601,19.9777872 C23.5939674,19.9646709 23.6110326,19.9590974 23.6270109,19.9636305 L23.8048732,20.0141263 C23.8340761,20.0224122 23.845308,20.0587514 23.8260688,20.0827917 L23.7749457,20.1466268 C23.7644384,20.1597802 23.7473732,20.1653165 23.7313949,20.1607834" id="Fill-78" fill="#DDB200"></path>
                        <path d="M22.4516377,20.0362679 L22.2737754,19.9858093 C22.2445725,19.9774862 22.2333406,19.9411099 22.2525797,19.9171067 L22.3037029,19.8532717 C22.3142101,19.8401183 22.3312754,19.8345819 22.3472536,19.839115 L22.5251159,19.8895737 C22.5543188,19.8978596 22.5655507,19.9342359 22.5463116,19.9582762 L22.4951884,20.0221113 C22.4846812,20.0352647 22.4676159,20.040801 22.4516377,20.0362679" id="Fill-80" fill="#DDB200"></path>
                        <path d="M22.8350797,20.1607834 L22.6572174,20.1103248 C22.6280145,20.1020017 22.6167826,20.0656254 22.6360217,20.0416222 L22.6871449,19.9777872 C22.6976522,19.9646709 22.7147174,19.9590974 22.7306957,19.9636305 L22.908558,20.0141263 C22.9377609,20.0224122 22.9489928,20.0587514 22.9297536,20.0827917 L22.8786304,20.1466268 C22.8681232,20.1597802 22.851058,20.1653165 22.8350797,20.1607834" id="Fill-82" fill="#DDB200"></path>
                        <path d="M23.2185217,20.2852989 L23.0406594,20.2348402 C23.0114565,20.2265543 23.0002246,20.190178 23.0194638,20.1661377 L23.070587,20.1023026 C23.0810942,20.0891864 23.0981594,20.0836129 23.1141377,20.088146 L23.292,20.1386418 C23.3212029,20.1469277 23.3324348,20.183304 23.3131957,20.2073072 L23.2620725,20.2711794 C23.2515652,20.2842957 23.2345,20.289832 23.2185217,20.2852989" id="Fill-84" fill="#DDB200"></path>
                        <path d="M23.6019638,20.4098292 L23.4241014,20.3593706 C23.3948986,20.3510475 23.3836667,20.3146712 23.4029058,20.290668 L23.454029,20.226833 C23.4645362,20.2136795 23.4816014,20.2081432 23.4975797,20.2126763 L23.675442,20.263135 C23.7046449,20.2714209 23.7158768,20.3077972 23.6966377,20.3318375 L23.6455145,20.3956726 C23.6350072,20.408826 23.617942,20.4143623 23.6019638,20.4098292" id="Fill-86" fill="#DDB200"></path>
                        <path d="M22.3222101,20.2852989 L22.1443478,20.2348402 C22.1151449,20.2265543 22.103913,20.190178 22.1231522,20.1661377 L22.1742754,20.1023026 C22.1847826,20.0891864 22.2018478,20.0836129 22.2178261,20.088146 L22.3956884,20.1386418 C22.4248913,20.1469277 22.4361232,20.183304 22.4168841,20.2073072 L22.3657609,20.2711794 C22.3552536,20.2842957 22.3381884,20.289832 22.3222101,20.2852989" id="Fill-88" fill="#DDB200"></path>
                        <path d="M22.7056522,20.4098292 L22.5277899,20.3593706 C22.498587,20.3510475 22.4873551,20.3146712 22.5065942,20.290668 L22.5577174,20.226833 C22.5682246,20.2136795 22.5852899,20.2081432 22.6012681,20.2126763 L22.7791304,20.263135 C22.8083333,20.2714209 22.8195652,20.3077972 22.8003261,20.3318375 L22.7492029,20.3956726 C22.7386957,20.408826 22.7216304,20.4143623 22.7056522,20.4098292" id="Fill-90" fill="#DDB200"></path>
                        <path d="M23.0890942,20.5343447 L22.9112319,20.483886 C22.882029,20.475563 22.8707971,20.4392238 22.8900362,20.4151835 L22.9411594,20.3513485 C22.9516667,20.3382322 22.9687319,20.3326587 22.9847101,20.3371918 L23.1625725,20.3876876 C23.1917754,20.3959735 23.2030072,20.4323498 23.1837681,20.456353 L23.1326449,20.5202252 C23.1221377,20.5333415 23.1050725,20.5388778 23.0890942,20.5343447" id="Fill-92" fill="#DDB200"></path>
                        <path d="M23.4725362,20.6588788 L23.2946739,20.6084201 C23.265471,20.600097 23.2542391,20.5637207 23.2734783,20.5397175 L23.3246014,20.4758825 C23.3351087,20.4627291 23.3521739,20.4571927 23.3681522,20.4617258 L23.5459783,20.5121845 C23.5752174,20.5204704 23.5864493,20.5568467 23.5672101,20.5808871 L23.516087,20.6447221 C23.5055797,20.6578755 23.4884783,20.6634119 23.4725362,20.6588788" id="Fill-94" fill="#DDB200"></path>
                        <path d="M15.0305254,31.619239 C15.0294384,31.9216937 14.9765399,31.9830021 14.8196558,32.095215 C14.7863225,31.0734086 14.7261775,30.0523453 14.6587862,29.0320251 C14.5917572,28.0187647 14.5747283,26.9817241 14.4519022,25.9740371 C14.3761775,24.8307286 14.2830616,23.6889064 14.1605978,22.5493135 C14.098279,21.9689275 14.0294384,21.3892846 13.9540761,20.8103848 C13.9163949,20.5209349 13.8772645,20.2318566 13.8363225,19.9427782 C13.832337,19.9145392 13.8276268,19.8855571 13.8229167,19.8565749 C13.8794384,19.8227624 13.9399457,19.7963812 14.0055254,19.7796608 C14.0457428,19.7692569 14.0881341,19.7629403 14.1283514,19.7729726 C14.3740036,19.8339094 14.3935688,20.1876402 14.4134964,20.3931162 C14.4645833,20.9099645 14.5131341,21.4271843 14.5598732,21.9444041 C14.8160326,24.8010034 15.0026268,27.6635476 15.0283514,30.5335232 C15.0316123,30.8954285 15.0319746,31.2573338 15.0305254,31.619239" id="Fill-96" fill="#093A4B"></path>
                        <path d="M21.7890723,16.4824869 C21.791653,16.4384712 21.8019756,16.3950585 21.8187498,16.3534546 C21.8084272,16.3962644 21.7981046,16.4396771 21.7890723,16.4824869" id="Fill-98" fill="#3E3C38"></path>
                        <path d="M27.6330471,5.62335379 C27.568192,5.97894243 27.3834094,6.28511279 27.0819601,6.4772124 C26.8508007,6.62472409 26.5848587,6.69903729 26.3214529,6.76257507 C26.2497138,6.78041024 26.1779746,6.79675914 26.1069601,6.81385118 C25.9399312,6.8539803 25.7725399,6.89299473 25.6047862,6.93126602 C25.4504384,6.96656479 25.2960906,7.00074886 25.1417428,7.0353045 C25.1145688,7.04124955 25.0877572,7.04756618 25.0605833,7.05351123 C24.7710906,7.11779214 24.4163804,7.25675782 24.1178297,7.20659641 C24.1018877,7.20399545 24.086308,7.20065136 24.0710906,7.19656413 C23.8330471,7.13376948 23.6482645,6.9074858 23.6410181,6.65259154 C23.6348587,6.43596858 23.7026123,6.19184973 23.760221,5.98414435 C23.8207283,5.76566356 23.9069601,5.55461408 24.0189167,5.35842725 C24.1344964,5.15555223 24.2859457,4.97645743 24.4605833,4.82262911 C24.7663804,4.55287221 25.1450036,4.36002947 25.5326848,4.25004594 C25.6508007,4.21623344 25.7696413,4.19059539 25.8873949,4.17238865 C26.0486268,4.1478653 26.2123949,4.13486049 26.3758007,4.13931928 C26.4392065,4.14117711 26.5026123,4.1456359 26.5660181,4.15306722 C26.6714529,4.16570047 26.77725,4.18799443 26.8786993,4.22180693 C27.0870326,4.29017507 27.2779746,4.40721835 27.4149312,4.58817098 C27.635221,4.87873557 27.6979022,5.26962298 27.6330471,5.62335379" id="Fill-100" fill="#FFFEFD"></path>
                        <path d="M25.9881232,24.5104276 C25.951529,26.8145082 25.9616739,29.1163595 26.142471,31.4148666 C26.1739928,31.8150431 26.1942826,32.2557204 26.0718188,32.6239423 C26.0642101,32.6098228 26.0569638,32.5957033 26.0500797,32.5815837 C25.7000797,31.8756084 25.6750797,30.955611 25.6341377,30.1775519 C25.5895725,29.3352118 25.6040652,28.4913855 25.5989928,27.6479307 C25.5906594,26.1936215 25.633413,24.7393123 25.6906594,23.2861177 C25.7250797,22.4207406 25.7805145,21.555735 25.7801522,20.6888716 C25.7801522,20.1404402 25.7591377,19.5641413 25.5305145,19.0580685 C25.4172174,18.8072243 25.2713478,18.5665982 25.1719638,18.3052758 C25.1300435,18.1951065 25.0901159,18.0904364 25.0971449,17.9711637 C25.1003696,17.9160976 25.1157681,17.7897652 25.1982681,17.8352449 C25.3370362,17.9117875 25.4743551,17.9968761 25.6026159,18.0916254 C25.8073261,18.2428527 25.9899348,18.4186034 26.1207319,18.6274235 C26.3551522,19.0012189 26.2341377,19.5314435 26.2073261,19.9461112 C26.1743551,20.4614732 26.1428333,20.9768352 26.1142101,21.4921972 C26.058413,22.4972832 26.0040652,23.5038554 25.9881232,24.5104276" id="Fill-102" fill="#042D3B"></path>
                        <path d="M25.532692,4.25004966 C25.3131268,5.16224413 25.1816051,6.09673256 25.14175,7.03530821 C25.1145761,7.04125327 25.0877645,7.04756989 25.0605906,7.05351495 C24.7710978,7.11779586 24.4163877,7.25676154 24.117837,7.20660013 C24.1018949,7.20399917 24.0863152,7.20065507 24.0710978,7.19656785 C24.1475471,6.39732943 24.2779819,5.60366451 24.4605906,4.82263283 C24.7663877,4.55287593 25.1450109,4.36003319 25.532692,4.25004966" id="Fill-104" fill="#F7F7F7"></path>
                        <path d="M26.8787029,4.22181808 C26.6580507,5.06192875 26.4602246,5.90835604 26.3214565,6.76258622 C26.2497174,6.78042139 26.1779783,6.79677029 26.1069638,6.81386232 C25.9399348,6.85399145 25.7725435,6.89300588 25.6047899,6.93127717 C25.7710942,5.97783888 26.0297899,5.04112105 26.3758043,4.13933043 C26.4392101,4.14118826 26.5026159,4.14564705 26.5660217,4.15307837 C26.6714565,4.16571161 26.7772536,4.18800557 26.8787029,4.22181808" id="Fill-106" fill="#F7F7F7"></path>
                        <path d="M10.4168696,15.3247668 C10.4168696,15.3247668 9.95672464,15.8520189 8.60346377,16.5776873 C8.60346377,16.5776873 7.99295652,16.9106104 7.57918841,16.8630499 C7.57918841,16.8630499 6.91107246,16.8500451 6.47556522,16.3699819 C6.47556522,16.3699819 5.9425942,15.8427298 5.88426087,15.2066088 C5.88426087,15.2066088 5.81433333,14.7986294 6.04984058,14.4174027 C6.0733913,14.3787598 6.1002029,14.3408601 6.13063768,14.3033319 C6.62121739,13.6961931 7.28063768,13.2127858 8.06071014,13.1224952 C8.42628986,13.0801367 8.79984058,13.1291834 9.14368116,13.2596031 C9.56868116,13.4208627 9.93389855,13.7110557 10.2088986,14.0785345 C10.2367971,14.1160627 10.2643333,14.1550771 10.2904203,14.1955778 C10.5088986,14.5311019 10.6523768,14.959889 10.4168696,15.3247668" id="Fill-108" fill="#FFFEFD"></path>
                        <path d="M10.4168696,15.3247668 C10.4168696,15.3247668 9.95672464,15.8520189 8.60346377,16.5776873 C8.60346377,16.5776873 7.99295652,16.9106104 7.57918841,16.8630499 C7.57918841,16.8630499 6.91107246,16.8500451 6.47556522,16.3699819 C6.47556522,16.3699819 5.9425942,15.8427298 5.88426087,15.2066088 C5.88426087,15.2066088 5.81433333,14.7986294 6.04984058,14.4174027 C6.36723188,15.2407929 7.356,15.6353959 8.20781159,15.4830539 C9.02013043,15.3377716 9.7136087,14.8045744 10.2904203,14.1955778 C10.5088986,14.5311019 10.6523768,14.959889 10.4168696,15.3247668" id="Fill-110" fill="#EDEDED"></path>
                        <path d="M20.5156051,24.9432611 L17.881221,24.3050594 C17.7665471,24.2772663 17.6955688,24.1594427 17.7226703,24.0418421 L18.7074167,19.7669383 C18.7344819,19.6493749 18.8494094,19.5765851 18.9640471,19.6043782 L21.5984312,20.2425799 C21.7131051,20.2703359 21.7840833,20.3881967 21.7569819,20.5057601 L20.7722355,24.7806638 C20.7451703,24.8982645 20.630279,24.9710542 20.5156051,24.9432611" id="Fill-112" fill="#FF4863"></path>
                        <path d="M20.3845797,24.5808765 L18.1565362,24.0411026 C18.0418623,24.0133467 17.9708841,23.8954859 17.9979493,23.7779225 L18.8384565,20.1293304 C18.8655217,20.0117669 18.980413,19.9389771 19.095087,19.9667331 L21.3231304,20.506507 C21.4377681,20.5343001 21.5087826,20.6521237 21.4816812,20.7697243 L20.6412101,24.4182793 C20.6141449,24.5358799 20.4992536,24.6086697 20.3845797,24.5808765" id="Fill-114" fill="#FFFEFD"></path>
                        <path d="M24.8316014,13.7781234 C24.8058768,13.8821619 24.7276159,13.9624201 24.6497174,14.0341324 C24.143558,14.4997045 23.5312391,14.820366 22.9051522,15.0808337 C22.7468188,15.1466009 22.5870362,15.2086524 22.426529,15.2688461 C22.2783406,15.324581 22.0772536,15.3591366 21.9442826,15.4449684 C21.9069638,15.4691202 21.8906594,15.4869553 21.883413,15.5111071 C21.875442,15.5363736 21.8772536,15.5686998 21.8736304,15.6225769 C21.8660217,15.7284732 21.8587754,15.8347411 21.8511667,15.941009 C21.8370362,16.1449987 21.8225435,16.3489884 21.808413,16.5529781 C21.7779783,16.9869672 21.7743551,17.4373051 21.7500797,17.8772393 C21.726529,18.3067695 21.7152971,18.7979797 21.5421087,19.1962985 C21.168558,20.0561021 20.1845,20.3277169 19.3225435,20.2184765 C19.1689203,20.1987835 19.0189203,20.1672004 18.8772536,20.1248418 C18.6008043,20.0419826 18.3377609,19.9007876 18.1268913,19.6982841 C18.0609493,19.6343748 17.843558,19.3761364 17.7069638,19.3657326 C17.6877609,19.3642463 17.6703696,19.3675904 17.6551522,19.3768795 C17.2859493,19.6039063 16.9167464,19.8309332 16.5475435,20.05796 C16.2580507,19.4798033 15.9645725,18.8957016 15.5486304,18.4052345 C15.1326884,17.915139 14.575442,17.5209075 13.9471812,17.436562 C13.9446449,17.4038642 13.9417464,17.3707948 13.9392101,17.338097 C13.8939203,16.7907803 13.8489928,16.2434637 13.8037029,15.696147 C13.7957319,15.5995398 13.7877609,15.5025611 13.7797899,15.4055824 C13.7468188,15.0020617 13.7145725,14.5862794 13.8330507,14.1998508 C13.9160217,13.9286076 14.0692826,13.6856035 14.2373986,13.4593198 C15.2700072,12.066319 16.8663841,11.2198917 18.4975435,10.7078737 C18.9489928,10.5659355 19.4210942,10.4451766 19.8888478,10.509086 C20.5062391,10.5934314 21.050442,10.9898923 21.6667464,11.0816691 C21.7453696,11.0931877 21.8243551,11.0998759 21.9029783,11.1021052 C22.1268913,11.1084219 22.3500797,11.0786966 22.5718188,11.0292783 C22.6113116,11.0207323 22.6508043,11.0114432 22.6902971,11.0014109 C22.9623986,10.9330427 23.2316014,10.8390365 23.4964565,10.7498607 C23.5613116,10.7279383 23.6312391,10.7063875 23.6964565,10.726452 C23.7156594,10.7323971 23.7337754,10.7416863 23.750442,10.7528332 C23.7732681,10.7680674 23.7939203,10.7866457 23.8142101,10.805224 C24.5366739,11.4744144 24.8863116,12.5404371 24.7055145,13.5209998 C24.8080507,13.5436653 24.8576884,13.6744565 24.8316014,13.7781234" id="Fill-116" fill="#093A4B"></path>
                        <path d="M23.0584167,7.9367347 L23.0413877,7.95717083 L22.2797935,8.87679662 C22.0395761,9.14989761 22.0540688,9.41705355 22.0540688,9.41705355 C22.0511703,9.43377402 22.0511703,9.45792581 22.0529819,9.48839422 C22.067837,9.70761814 22.1931993,10.2296683 22.1931993,10.2296683 C22.1913877,10.230783 22.1899384,10.2315262 22.1881268,10.2322693 C22.0768949,10.2946924 21.9301558,10.3065825 21.9055181,10.3084403 L21.9018949,10.3084403 C21.8018949,9.95470952 21.7663877,9.70315935 21.7580543,9.53186744 C21.7471848,9.30892785 21.7823297,9.22160985 21.7823297,9.22160985 C21.8518949,8.80099716 22.700808,7.88694486 22.8377645,7.74166256 C22.8500833,7.72865776 22.8566051,7.72196957 22.8566051,7.72196957 L23.0584167,7.9367347 Z" id="Fill-118" fill="#001C26"></path>
                        <path d="M23.7558804,10.7546836 C23.3913877,10.8858464 23.032692,11.0393032 22.6533442,11.1117585 C22.5732717,11.1273643 22.4921123,11.1392544 22.4098659,11.1463142 C21.924721,11.1886727 21.4370399,11.10024 20.9787065,10.9393519 C20.5779819,10.7985284 20.2073297,10.5986259 19.7761703,10.5662997 C19.3797935,10.536946 18.990663,10.6394982 18.6131268,10.7539405 C18.2203732,10.8732132 17.8352283,11.0381885 17.4696486,11.2165401 C16.4562428,11.711466 15.4939239,12.4085238 14.8160254,13.3366956 C14.6602283,13.550346 14.499721,13.7710562 14.525808,14.0519601 C14.5624022,14.4439622 14.79175,14.7746559 14.9066051,15.1425062 C15.0171123,15.4958655 15.0410254,15.907189 14.8540688,16.2389974 C14.7207355,16.4753134 14.4562428,16.7874288 14.233779,17.0330339 C14.2547935,17.2544872 14.275808,17.4759406 14.3297935,17.692192 C14.3671123,17.8430478 14.4203732,17.9901879 14.442837,18.1440162 C14.4649384,18.2937573 14.4526196,18.4446131 14.3816051,18.5794915 C14.3710978,18.5995561 14.3573297,18.6185059 14.3381268,18.6303961 C14.2971848,18.655291 14.2384891,18.6430293 14.1935616,18.6367127 C14.1421123,18.6296529 14.0913877,18.6173912 14.04175,18.602157 C13.9424746,18.5716886 13.8471848,18.528587 13.7537065,18.4832559 C13.7069674,18.4602188 13.6642138,18.4401543 13.6297935,18.399282 C13.5852283,18.3461481 13.5598659,18.2792662 13.5290688,18.2175863 C13.4968225,18.1529338 13.4638514,18.0890244 13.4319674,18.0243719 C13.3696486,17.8980395 13.3116775,17.7691061 13.2732717,17.633113 C13.2468225,17.5387352 13.2308804,17.4343252 13.2580543,17.3384612 C13.2830543,17.2504 13.3319674,17.171628 13.3852283,17.0988011 C13.4145761,17.0594151 13.4413877,17.0196575 13.4671123,16.9791569 C13.5149384,16.9022427 13.557692,16.8227276 13.5975471,16.7383821 C13.6377645,16.6532935 13.6547935,16.5262179 13.7421123,16.475685 C13.7801558,16.4537626 13.825808,16.444845 13.8700109,16.4348127 C13.849721,16.1892076 13.8294312,15.9436025 13.8091413,15.6979974 C13.8011703,15.6013902 13.7931993,15.5044115 13.7852283,15.4074328 C13.7522572,15.0039121 13.7200109,14.5881298 13.8384891,14.2017012 C13.9214601,13.930458 14.074721,13.6874539 14.242837,13.4611702 C15.2754457,12.0681694 16.8718225,11.2217421 18.5029819,10.7097241 C18.9544312,10.5677859 19.4265326,10.447027 19.8942862,10.5109364 C20.5116775,10.5952818 21.0558804,10.9917427 21.6721848,11.0835195 C21.750808,11.0950381 21.8297935,11.1017263 21.9084167,11.1039556 L21.8134891,10.5488361 C21.8134891,10.5488361 21.7790688,10.4024391 21.9055181,10.3084329 C21.9301558,10.3065751 22.0768949,10.294685 22.1881268,10.2322619 C22.3602283,10.2482392 22.3960978,10.4083841 22.3960978,10.4083841 L22.5772572,11.0311287 C22.61675,11.0225827 22.6562428,11.0132936 22.6957355,11.0032613 C22.967837,10.9348931 23.2370399,10.8408869 23.5018949,10.7517111 C23.56675,10.7297887 23.6366775,10.7082379 23.7018949,10.7283024 C23.7210978,10.7342475 23.7392138,10.7435367 23.7558804,10.7546836" id="Fill-120" fill="#FCDD00"></path>
                        <path d="M24.8370326,13.7799738 C24.811308,13.8840123 24.7330471,13.9642705 24.6551486,14.0359828 C24.1489891,14.5015549 23.5366703,14.8222164 22.9105833,15.0826841 C22.75225,15.1484513 22.5924674,15.2105028 22.4319601,15.2706965 C22.2837717,15.3264314 22.0826848,15.360987 21.9497138,15.4468188 C21.9123949,15.4709706 21.8960906,15.4888057 21.8888442,15.5129575 C21.8913804,15.4750578 21.8939167,15.4367865 21.8960906,15.3985152 C21.9884819,13.9984546 22.1479022,12.4382491 22.653337,11.1117585 C22.6674674,11.0753451 22.6812355,11.0393032 22.6957283,11.0032613 C22.9678297,10.9348931 23.2370326,10.8408869 23.5018877,10.7517111 C23.5323225,10.7416788 23.5638442,10.731275 23.5953659,10.7257015 C23.6312355,10.7186417 23.6671051,10.717527 23.7018877,10.7283024 C23.7210906,10.7342475 23.7392065,10.7435367 23.7558732,10.7546836 C23.7786993,10.7699178 23.7993514,10.7884961 23.8196413,10.8070744 C24.5421051,11.4762648 24.8917428,12.5422875 24.7109457,13.5228502 C24.8134819,13.5455157 24.8631196,13.6763069 24.8370326,13.7799738" id="Fill-122" fill="#001C26"></path>
                        <path d="M24.8370326,13.7799738 C24.811308,13.8840123 24.7330471,13.9642705 24.6551486,14.0359828 C24.1489891,14.5015549 23.5366703,14.8222164 22.9105833,15.0826841 C22.75225,15.1484513 22.5924674,15.2105028 22.4319601,15.2706965 C22.2837717,15.3264314 22.0826848,15.360987 21.9497138,15.4468188 C21.9123949,15.4709706 21.8960906,15.4888057 21.8888442,15.5129575 C21.8913804,15.4750578 21.8939167,15.4367865 21.8960906,15.3985152 C22.1848587,13.7535926 22.7620326,12.1621755 23.5953659,10.7257015 C23.6312355,10.7186417 23.6671051,10.717527 23.7018877,10.7283024 C23.7210906,10.7342475 23.7392065,10.7435367 23.7558732,10.7546836 C23.7786993,10.7699178 23.7993514,10.7884961 23.8196413,10.8070744 C24.5421051,11.4762648 24.8917428,12.5422875 24.7109457,13.5228502 C24.8134819,13.5455157 24.8631196,13.6763069 24.8370326,13.7799738" id="Fill-124" fill="#001C26"></path>
                        <path d="M19.3225507,20.2184765 C19.1689275,20.1987835 19.0189275,20.1672004 18.8772609,20.1248418 C18.6008116,20.0419826 18.3377681,19.9007876 18.1268986,19.6982841 C18.0609565,19.6343748 17.8435652,19.3761364 17.706971,19.3657326 C17.6797971,18.6110821 17.6417536,17.7672557 17.0816087,17.2871925 C16.775087,17.0244953 16.4689275,16.9252872 16.1584203,16.667792 C16.9185652,16.4768071 17.7464638,16.7967254 18.2975507,17.3667076 C18.8482754,17.9366898 19.1468261,18.7236665 19.2616812,19.5173315 C19.2953768,19.7499318 19.3145797,19.9840183 19.3225507,20.2184765" id="Fill-126" fill="#001C26"></path>
                        <path d="M20.4555217,12.7280854 C20.4203768,12.8573904 20.4044348,12.9922688 20.4087826,13.1264041 C20.4098696,13.1631891 20.4171159,13.2029467 20.4258116,13.2441905 C20.4450145,13.3359673 20.4707391,13.4336892 20.4508116,13.5128327 C20.4392174,13.5589069 20.4033478,13.5938341 20.3685652,13.6254172 C20.0591449,13.9089221 19.7225507,14.1749633 19.3707391,14.4075636 C19.2711014,14.4729592 19.1598696,14.5669654 19.0392174,14.5829427 C18.9736377,14.5918603 18.9076957,14.5751399 18.8432029,14.5599057 C18.5301594,14.485964 18.2040725,14.4673857 17.8866812,14.5208912 C17.4526232,14.5937182 17.0522609,14.787304 16.6261739,14.8905994 C16.4142174,14.942247 16.2682029,14.8965444 16.1370435,14.7152202 C16.0200145,14.5532175 15.9254493,14.3488562 15.8852319,14.1508115 C15.8685652,14.0668376 15.8678406,13.9769186 15.897913,13.897032 C15.8997246,13.89183 15.9015362,13.8869997 15.9037101,13.8821693 C15.9797971,13.6978726 16.172913,13.5336404 16.3134928,13.4043355 C16.4156667,13.3099577 16.522913,13.2211534 16.6312464,13.134207 C16.6946522,13.083674 16.7587826,13.0338842 16.8225507,12.9837228 C17.1605942,12.7195394 17.5113188,12.472448 17.8743623,12.2461643 C18.5551594,11.8214644 19.2707391,11.3666677 20.1055217,11.5331292 C20.3921159,11.5903504 20.8975507,11.7181691 20.7428406,12.123176 C20.6620435,12.3353402 20.5163913,12.5047742 20.4555217,12.7280854" id="Fill-128" fill="#FFFEFD"></path>
                        <path d="M20.4508007,13.5128179 C20.4392065,13.558892 20.403337,13.5938193 20.3685543,13.6254024 C20.0591341,13.9089072 19.7225399,14.1749484 19.3707283,14.4075487 C19.2710906,14.4729444 19.1598587,14.5669505 19.0392065,14.5829279 C18.9736268,14.5918455 18.9076848,14.575125 18.843192,14.5598908 C18.5301486,14.4859492 18.2040616,14.4673709 17.8866703,14.5208764 C17.4526123,14.5937033 17.05225,14.7872892 16.626163,14.8905845 C16.4142065,14.9422322 16.268192,14.8965296 16.1370326,14.7152054 C16.0200036,14.5532026 15.9254384,14.3488413 15.885221,14.1507966 C15.8685543,14.0668227 15.8678297,13.9769038 15.8979022,13.8970171 C15.8997138,13.8918152 15.9015254,13.8869848 15.9036993,13.8821544 C15.9797862,13.6978577 16.1729022,13.5336256 16.3134819,13.4043206 C16.4156558,13.3099428 16.5229022,13.2211386 16.6312355,13.1341921 C16.8120326,13.4730603 17.1250761,13.7379869 17.4873949,13.8468557 C17.9323225,13.9798763 18.4120326,13.8840123 18.851163,13.7320418 C19.2899312,13.5804429 19.7127572,13.3727375 20.1663804,13.2757588 C20.2500761,13.257552 20.3388442,13.2449188 20.4258007,13.2441757 C20.4450036,13.3359525 20.4707283,13.4336743 20.4508007,13.5128179" id="Fill-130" fill="#EDEDED"></path>
                        <path d="M29.6885145,36.3174976 C26.8812681,38.136313 23.5548188,39.1889594 19.9885145,39.1889594 C17.4439493,39.1889594 15.0211232,38.6531613 12.8222101,37.6848604 C12.0703986,37.3545382 11.3450362,36.9733115 10.6497464,36.5452675 C10.7330797,36.395898 10.8211232,36.2498726 10.9127899,36.1071912 C11.4620652,35.2507316 12.1461232,34.5049987 12.8751087,33.7867617 C13.9059058,32.7712719 14.9812681,31.8025994 15.975471,30.7484667 C16.4030072,30.2947847 16.8156884,29.8254968 17.2030072,29.3346582 C17.5479348,28.897325 17.8627899,28.4265509 18.1903261,27.9698964 C18.4272826,27.6395742 18.6790942,27.3081373 19.0026449,27.0617891 C19.025471,27.0443255 19.0482971,27.0279766 19.0714855,27.0119993 C19.2356159,26.8990432 19.4098913,26.8198997 19.5928623,26.7686236 C19.7975725,26.711774 20.0124275,26.6905947 20.234529,26.698026 L20.2356159,26.698026 C20.684529,26.6831634 21.1040942,26.7849725 21.4678623,27.0617891 C21.791413,27.3081373 22.0428623,27.6395742 22.2798188,27.9698964 C22.6077174,28.4265509 22.9225725,28.897325 23.2675,29.3346582 C23.6544565,29.8254968 24.0671377,30.2947847 24.4950362,30.7484667 C25.4888768,31.8025994 26.5646014,32.7712719 27.5950362,33.7867617 C28.3240217,34.5049987 29.008442,35.2507316 29.5577174,36.1071912 C29.6022826,36.1766741 29.6457609,36.2465285 29.6885145,36.3174976" id="Fill-132" fill="#FFD200"></path>
                        <path d="M16.1559058,32.7942978 C14.8946739,34.3455858 13.7363406,35.9511224 12.8222101,37.6848492 C12.0703986,37.3545271 11.3450362,36.9733004 10.6497464,36.5452564 C10.7330797,36.3958868 10.8211232,36.2498614 10.9127899,36.1071801 C11.4620652,35.2507205 12.1461232,34.5049876 12.8751087,33.7867506 C13.9059058,32.7712607 14.9812681,31.8025882 15.975471,30.7484556 C16.4030072,30.2947735 16.8156884,29.8254857 17.2030072,29.334647 C17.5479348,28.8973139 17.8627899,28.4265398 18.1903261,27.9698852 C18.4272826,27.6395631 18.6790942,27.3081262 19.0026449,27.061778 C19.025471,27.0443144 19.0482971,27.0279655 19.0714855,27.0119881 C19.1011957,29.3528538 17.5457609,31.0847228 16.1559058,32.7942978" id="Fill-134" fill="#FFC526"></path>
                    </g>
                </g>
            </g>
        </g>
    </g>
</svg>