<svg xmlns="http://www.w3.org/2000/svg" width="100" height="100" viewBox="0 0 100 100">
    <g fill="none">
        <path fill="#395FBC" d="M99.601 62.438L99.851 12.705 87.708 12.705 87.708 63.689 83.099 65.906 83.867 0.882 54.673 0.882 55.441 65.906 50.832 65.906 50.832 29.699 30.857 30.438 32.394 74.034 28.919 72.689 28.919 22.865 8.231 22.865 10.114 76.989 99.479 77.459z"/>
        <path fill="#2643AD" d="M33.162 36.72v-4.065h3.458l-3.458 4.065zm12.292-.37v-3.694h3.457l-3.457 3.694zm-6.145 0v-3.694h3.456l-3.456 3.694zm-6.147 6.28v-4.064h3.458l-3.458 4.065zm13.06-.369h-.768v-3.695h3.457l-2.689 3.695zm-6.145 0h-.768v-3.695h3.457l-2.689 3.695zm-6.146 6.281h-.769v-4.064h3.458l-2.689 4.064zm12.291-.37h-.768v-3.694h3.457v.738h-2.688v2.956zm-6.145 0h-.768v-3.694h3.457v.738h-2.689v2.956zm-6.146 5.542h-.769V49.65h3.458v.739H33.93v3.325zm12.291-.37h-.768V49.65h3.457v.739h-2.688v2.955zm-6.145 0h-.768V49.65h3.457v.739h-2.689v2.955zM10.58 32.32l-.349-3.691 16.514-1.513-.033 4.063-16.132 1.141zm48.703-19.23l-.33-8.136 21.45-.376-.378 8.127-20.742.385zm0 22.167l-.33-8.136 21.45-.376-.378 8.127-20.742.385zm-48.935 4.447l-.342-4.43L26.52 34.01l-.04 3.817-16.132 1.876zm.77 5.92l-.39-3.7 15.79-1.261-.038 3.816-15.363 1.145zm-.233 6.644l-.381-4.438 15.789-1.01-.045 4.309-15.363 1.139zm.768 6.65l-.381-4.438 15.789-1.01-.044 4.309-15.364 1.139zm.768 7.387l-.415-5.181 15.06-.758-.05 4.803-14.595 1.136zm48.4-47.318h-.77v-4.064h4.455l-3.686 4.064zm16.286-.37h-.769v-3.694h4.456l-3.687 3.694zm-8.144 0h-.769v-3.694h4.456l-3.687 3.694zm-8.143 6.281h-.77v-4.064h4.456l-3.686 4.064zm16.287-.37h-.769v-3.694h4.456l-3.687 3.694zm-8.144 0h-.769v-3.694h4.456l-3.687 3.694zM60.82 41.153h-.77v-4.064h4.456l-3.686 4.064zm16.287-.37h-.769v-3.694h4.456l-3.687 3.694zm-8.144 0h-.769v-3.694h4.456l-3.687 3.694zm-8.143 6.28h-.77V43h4.456l-3.686 4.064zm34.57-26.969l-3.84.37v-4.065h4.455l-.615 3.695zm0 5.911l-3.84.37V22.31h4.455l-.615 3.694zm0 5.912l-3.84.369v-4.064h4.455l-.615 3.695zm0 5.91l-3.84.37v-4.064h4.455l-.615 3.695zm0 6.651l-3.84.37v-4.065h4.455l-.615 3.695zm0 5.91l-3.84.37v-4.063h4.455l-.615 3.694zm0 5.912l-3.84.37v-4.064h4.455L95.39 56.3zm-18.283-9.605h-.769V43h4.456v.738h-3.687v2.957zm-8.144 0h-.769V43h4.456l-3.687 3.695z"/>
        <path fill="#2643AD" d="M99.464 79.926l.048-.007.083-16.35a.645.645 0 00-.36-.197c-1.426-.192-2.068 2.643-2.354 4.929-.164-1.536-.947-3.134-3.518-3.134-4.945 0-4.945 10.345-4.945 10.345s0-5.912-4.945-5.912-9.066 6.65-9.066 6.65-1.648-4.433-6.592-5.172c-4.946-.738-6.593 5.911-6.593 5.911s1.647-6.65 0-7.388c-1.65-.74-3.297 3.694-3.297 2.955.824-6.65-2.473-11.822-7.417-11.083C45.563 62.21 33.2 69.6 33.2 69.6s-3.296-5.91-6.593-3.694c-2.752 1.852-.913 6.268-.228 7.677-.388-.647-1.31-1.766-3.069-1.766-2.472 0-4.12 3.695-4.12 3.695s1.648-3.695 0-5.912c-4.12-5.172-7.417 2.217-7.417 2.217s-.824-8.128-5.77-5.172c-4.943 2.955 0 10.344 0 10.344-.823-1.477-5.047-2.584-5.768 0-.824 2.956 5.769 2.956 5.769 2.956h93.46v-.019z"/>
        <path fill="#23303D" d="M48.903 2.36c-.597 0-1.11.316-1.377.777-.064-.016-.126-.038-.196-.038H26.982c-4.017 0-7.286 3.072-7.286 6.85v69.055c0 .409.352.74.786.74.435 0 .787-.331.787-.74V9.948c0-2.961 2.562-5.371 5.713-5.371h3.667v5.137c0 .408.351.74.785.74.435 0 .786-.332.786-.74V4.577h9.434v5.137c0 .409.352.74.786.74.434 0 .786-.331.786-.74V4.577h4.105c.07 0 .132-.022.197-.038.272.477.8.775 1.376.777.867 0 1.571-.661 1.572-1.478 0-.817-.705-1.478-1.572-1.478"/>
        <path fill="#FFC300" d="M42.243 27.075c6.625-.183 7.629-8.04 4.885-12.674-2.632-4.444-7.713-7.838-13.145-5.954-5.57 1.569-9.128 8.496-7.835 13.797 1.644 6.745 10.793 4.976 16.095 4.83"/>
        <path fill="#FFE631" d="M44.691 11.298c-2.792-2.72-6.651-4.258-10.708-2.852-5.57 1.57-9.127 8.497-7.835 13.798.486 1.994 1.63 3.24 3.135 4.008l.035-.018 15.369-14.922.004-.014z"/>
        <path fill="#303D51" d="M36.792 13.565c-.047.386-.21 3.162-.19 3.158 2.483-.012 2.871-3.257.19-3.158m2.963 4.452c-1.255-.179-2.604.19-3.114.316 0 0-.32 3.823-.359 3.819 6.516.751 6.156-3.752 3.473-4.135m.095-1.757c2.423.295 4.24 2.456 3.26 4.955-1.428 3.633-6.445 2.994-9.686 2.661-1.244-.127-1.091-2.044.15-1.893.248.027.506.053.772.08l.631-7.97c0-.012.006-.016.006-.022-.453.22-.838.594-1.104 1.142-.536 1.097-2.369.466-1.828-.642 1.21-2.476 4.748-3.794 7.151-2.065 1.498 1.08 1.277 2.626.649 3.754"/>
        <path fill="#455A6B" d="M36.602 16.723c-.02.005.143-2.772.19-3.158 2.681-.098 2.293 3.146-.19 3.158m2.6-4.217c-2.403-1.73-5.942-.412-7.15 2.066-.543 1.107 1.29 1.738 1.828.642.265-.548.649-.922 1.103-1.143 0 .006-.006.011-.006.021l-.57 7.202 2.16-2.098.073-.863c.221-.055.6-.153 1.056-.234l2.378-2.308c.43-1.06.427-2.347-.872-3.285"/>
        <path fill="#152E8B" d="M84.646 99.461c-3.937.285-27.286 1.7-18.867-2.956 13.364-7.389-6.528-18.035 11.005-19.212 22.012-1.477 5.503 14.778 13.365 16.995 10.487 2.957 4.716 4.434-5.504 5.173"/>
        <path fill="#152E8B" d="M50.843 99.461c-3.937.285-27.286 1.7-18.867-2.956 13.364-7.389-6.528-18.035 11.006-19.212 22.01-1.477 5.502 14.778 13.364 16.995 10.487 2.957 4.716 4.434-5.503 5.173"/>
        <path fill="#FFC300" d="M88.49 68.813l-18.807 3.649-3.271-14.904c-.358-1.628.467-3.451 2.067-4.158 0 0 3.682-2.237 6.207-2.748 2.524-.511 6.91.392 6.91.392 1.766.053 3.264 1.238 3.623 2.866l3.27 14.904v-.001z"/>
        <path fill="#303D51" d="M88.688 69.653L69.881 73.3l-3.27-14.902c-.358-1.628.505-3.452 2.105-4.16 0 0 3.656-2.235 6.181-2.746 2.525-.512 6.898.391 6.898.391 1.766.054 3.264 1.239 3.623 2.867l3.27 14.903z"/>
        <path fill="#7D879D" d="M80.24 65.313L75.345 66.267 72.519 53.464 77.413 52.51z"/>
        <path fill="#1E2A3A" d="M91.803 80.669c-.034.409-.074.818-.119 1.226-.082.774-.165 1.547-.249 2.32-.069.65-.23 1.423-.873 1.672-.556.216-1.214-.111-1.541-.586-.329-.475-.408-1.058-.496-1.618a32.845 32.845 0 00-.425-2.22c-.109-.477-.235-.967-.55-1.357-.411-.507-.84-.38-1.377-.565l-.029-.01c-.464-.175-1.003-.728-1.185-1.146-.114-.262-.14-.55-.162-.834-.055-.691-.085-1.42.24-2.043.3-.575.883-.996 1.529-1.196.646-.202 1.351-.197 2.018-.07.775.148 1.53.472 2.057 1.024.298.313.513.69.682 1.08.586 1.357.599 2.846.48 4.323"/>
        <path fill="#4A5368" d="M86.005 97.03c-.967 1.093-2.891 1.04-3.75.955a.83.83 0 01-.638-.402c-1.588-2.746-2.543-7.306-2.838-8.865a.762.762 0 01.414-.816c1.036-.536 3.377-1.654 4.501-1.424.102.02.194.053.274.098 1.07.592 1.989 7.892 2.215 9.821a.74.74 0 01-.178.634"/>
        <path fill="#1E2A3A" d="M86.102 96.916c-.399.21-1.017-2.53-1.089-2.825a70.997 70.997 0 01-.984-4.629 23.528 23.528 0 01-.296-2.21c-.02-.247-.042-.512-.039-.774.102.02.194.052.274.097 1.07.594 1.989 7.893 2.215 9.822l.002.015c.01.101.027.447-.083.504"/>
        <path fill="#515E75" d="M93.983 85.464a8.994 8.994 0 01-1.22 2.022c-.384.493-.926 1.335-1.613 1.469-.36.069-.737-.06-1.025-.275a2.604 2.604 0 01-.798-1.018c-.447-1.023-.16-2.185.131-3.257l.625-2.291c.126-.463.253-.928.456-1.367.256-.555.742-1.192 1.477-1.133 1.771.144 2.412 1.904 2.46 3.342.03.878-.158 1.718-.492 2.508"/>
        <path fill="#515E75" d="M93.989 85.466a7.539 7.539 0 01-.287.6c-.344.126-.726.176-1.019-.015-.18-.118-.29-.306-.4-.486a12.062 12.062 0 00-1.318-1.798c-.423-.47-.306-.902-.008-1.424a9.368 9.368 0 00.95-2.343c.032-.126.066-.259.109-.386.576.047 1.124.333 1.517.738.44.45.703 1.034.842 1.63.266 1.16.081 2.384-.385 3.484"/>
        <path fill="#1E2A3A" d="M84.35 84.068c.367-1.695.373-3.447.778-5.134.083-.342.216-.72.551-.874.425-.193.914.08 1.296.341.771.527 1.35 1.238 1.76 2.044.698 1.371 1.212 3.128.482 4.577-.072.142-.183.293-.333.37-.435.218-.532-.397-.889-.437-.25-.027-.406.3-.525.458-.993 1.318-2.44 2.621-4.168 2.983-1.12.235-.316-1.066-.038-1.436.608-.812.879-1.926 1.087-2.893m-16.974-6.91a.947.947 0 00-.405.226c-.132.136-.15.343-.1.521.052.178.164.334.278.484.956 1.278 2.037 2.47 3.117 3.657.118.13.248.266.422.305.134.03.273 0 .407-.032 1.181-.276 2.353-.605 3.528-.916.323-.085.564-.188.57-.545.004-.167-.047-.331-.096-.493-.227-.76-.286-1.542-.518-2.298a2.681 2.681 0 00-1.175-1.524c-.729-.446-1.515-.778-2.4-.61-.6.112-1.185.363-1.755.568-.622.225-1.24.455-1.873.656"/>
        <path fill="#303D51" d="M73.543 88.625c.074.67.085 1.35.028 2.024a.384.384 0 000 .084c.004.036-.33-.084-.354-.094-1.504-.602-2.009-2.355-2.03-3.756-.007-.53.03-1.087.264-1.577.057-.117.545-.917.742-.644.137.188.296.372.367.512.539 1.073.853 2.273.983 3.45"/>
        <path fill="#F1718A" d="M74.184 83.875l.11.234a9.29 9.29 0 00-.162-.21l.042-.02a.023.023 0 01.01-.004"/>
        <path fill="#1E2A3A" d="M79.467 89.869c-.118.087-.27.12-.416.15-.372.077-.745.148-1.12.212a3.332 3.332 0 00.095-2.04c.48.215.984.359 1.508.41.027.087.052.175.077.262.098.347.157.783-.144 1.006M68.05 97.702c-.886.15-2.32.486-1.693.711.738.264 2.41 0 2.49-.103.084-.11.151-.323.214-.531.918-2.995 3.538-10.861 3.445-11.332-.017-.083-.414-.252-.414-.252-1.128 2.666-3.917 11.486-4.042 11.507m4.983-11.717c-.265-.257-1.652-2.912-1.506-3.987.036-.274.117-.54.167-.81.574-.206 1.218-.565 1.792-.77.251-.09.515-.18.785-.159.569.046.948.569 1.17 1.064.413.927.574 1.936.468 2.936-.078.732-.354 1.517-1.022 1.9-.623.356-1.887-.091-1.854-.174m12.677 2.356c.526.547.92 1.161 1.263 1.71.2-.212.52-.396.827-.494-.425-.694-.853-1.394-1.425-1.988-.214-.224-.452-.433-.738-.568-.285-.136-.624-.192-.929-.1-.304.092-.56.35-.58.65-.026.35.233.575.555.55.31-.022.698-.103 1.027.24"/>
        <path fill="#1E2A3A" d="M87.492 89.543c.099-.074.203-.13.318-.127.662.027 1.02 1.007.656 1.474-.31.397-1.068.21-1.384-.08-.184-.168-.34-.502-.228-.743.057-.12.193-.18.3-.249.125-.077.222-.188.338-.275m-.762-1.51c-.01.075-.021.152-.002.226.042.156.207.247.338.35.126.101.23.228.3.368.048-.177.083-.356.103-.537.114-1.118.057-2.305-.707-3.168.025.029-.136.31-.155.349-.062.121-.14.235-.203.355-.111.21.075.384.158.583.193.466.23.98.168 1.474"/>
        <path fill="#515E75" d="M77.931 90.232c-.745.13-1.494.239-2.246.325-.567.066-1.136.121-1.706.161a4.11 4.11 0 01-.408.016.39.39 0 010-.085c.057-.675.046-1.353-.028-2.024-.13-1.178-.444-2.378-.983-3.451-.071-.141-.23-.324-.367-.512.437-.11.934-.106 1.324-.307.233-.12.382-.335.615-.455.056.069.11.139.163.21.199.416.413.825.645 1.228.035.059.07.118.107.177.114.184 1.198-.083 1.332.094.67.89.617 2.124 1.647 2.583.183.674.15 1.384-.095 2.04"/>
        <path fill="#515E75" d="M76.385 73.426c1.708-.568 3.557-.854 5.339-.556.788.132 1.583.397 2.212.873.576.436.818-.52 1.007.165.208.752.86 6.074.763 6.955-.183 1.687-.05 2.765-.758 4.334a7.002 7.002 0 01-1.326 1.973c-.351.37-.767.68-1.229.918-.375.191-.78.326-1.2.398-.406.07-1.244.157-1.66.115a4.849 4.849 0 01-1.507-.41c-2.256-1.005-2.848-3.36-3.733-5.474-.502-1.201-1.433-5.861-1.319-7.258.39-.666.334-.761 1.01-1.167 1.525-.914 3.352-1.311 5.16-1.398"/>
        <path fill="#C9D6E2" d="M86.418 85.61l-11.023 1.778a.942.942 0 01-.67-.143.84.84 0 01-.367-.547l-1.05-5.755c-.084-.46.244-.896.733-.975l11.024-1.777c.488-.078.952.23 1.037.69l1.05 5.755a.805.805 0 01-.152.63.905.905 0 01-.582.345"/>
        <path fill="#FF4C5A" d="M80.598 78.034l-2.824.456a.817.817 0 01-.759-.247.708.708 0 01-.136-.744.78.78 0 01.628-.47l2.824-.456a.815.815 0 01.74.256c.18.204.23.483.132.731a.778.778 0 01-.605.474"/>
        <path fill="#303D51" d="M91.803 80.669c-.034.409-.074.818-.119 1.226-.082.774-.165 1.547-.249 2.32-.069.65-.23 1.423-.873 1.672-.556.216-1.214-.111-1.541-.586-.329-.475-.408-1.058-.496-1.618a32.845 32.845 0 00-.425-2.22c-.109-.477-.235-.967-.55-1.357-.411-.507-.702-.338-1.238-.523-.01-.003 1.166-.969 3.057-.548.983.219 1.773.908 2.434 1.634"/>
        <path fill="#FFC300" d="M91.467 71.72c-.184 1.244-1.341 2.21-2.524 2.704-.682.284-1.436.32-2.142.539-1.764.545-11.189 1.932-14.817 1.91-1.365-.01-2.687-.097-3.773-.982-1.751-1.697-2.16-5.304-.841-7.71l.014-.027c1.091-1.966 3.42-3.266 5.562-4.015 3.504-1.224 7.272-1.247 10.957-1.044 1.433.08 3.03.028 4.241.83.235.155.457.33.667.523.84.768 1.467 1.795 1.852 2.843.508 1.384 1.003 3.081.804 4.429"/>
        <path fill="#7D879D" d="M81.596 59.16c-2.072-.034-6.475.125-9.826 1.498-4.802 1.967-2.946 5.758-2.946 5.758 3.272-1.69 13.825-3.234 17.646-3.12 0 0 .401-4.051-4.874-4.136"/>
        <path fill="#EDA420" d="M91.467 71.72c-.184 1.244-1.341 2.21-2.524 2.704-.682.284-1.406.443-2.142.539-.324-.423-.529-.992-.556-1.75-.015-.437-.021-1.206-.046-1.643-.154-2.679.676-5.232 2.612-7.123.84.769 1.467 1.796 1.852 2.844.508 1.384 1.003 3.081.804 4.429m-19.483 5.153c-1.362.082-2.688-.097-3.773-.98-1.75-1.7-2.16-5.306-.841-7.713.2.339 2.945 2.427 3.605 3.772.449.92.786 1.885 1.005 2.877.147.662.206 1.412.004 2.043"/>
        <path fill="#FF4C5A" d="M83.974 73.6l-2.018.598-5.515.864s-4.007-4.46-3.79-4.4c.422.116 1.514.157 1.95.212.893.111 1.8.106 2.698.036a17.864 17.864 0 002.91-.484c1.102-.275 2.194-.644 3.162-1.204.285-.165.628 4.373.603 4.378"/>
        <path fill="#ECD9B1" d="M86.246 73.214c.03.657-3.7 1.156-3.7 1.156a.466.466 0 01-.368-.081.41.41 0 01-.17-.319v-.004a8.528 8.528 0 011.307-4.657c.037-.057.1-.092.149-.141.717-.718 2.397-1.843 3.583-2.246 0 0-.312.621-.663 2.094 0 0-.239 1.987-.138 4.198m-14.176 2.23c.891.269 3.737-.033 3.737-.033.711-.043 1.072-.325.984-.573l-.003-.004a8.94 8.94 0 00-2.893-3.975c-.055-.043-.126-.054-.19-.087-.82-.408-3.215-1.236-4.612-.997.374.279 1.6 1.583 1.704 1.86 0 0 1 1.665 1.273 3.81"/>
        <path fill="#1E2A3A" d="M70.905 81.714c-.014.049-.07.074-.12.09-.743.252-3.864.828-4.58.522-.168-.072-.787-.991-.753-1.037l.004-.001a53.06 53.06 0 002.004-.498l.18-.047.103-.027c.327-.085.654-.171.982-.253.355-.088.724-.185 1.073-.026.485.223.831.734 1.078 1.167.02.033.04.072.03.11"/>
        <path fill="#FFC300" d="M68.824 66.416c1.703-1.968 2.01-3.799 2.01-3.799.53-1.716 1.615-2.805 3.564-3.136l3.771-.703c3.334-.549 6.593 4.743 9.183 4.85-.914.72-2.59.395-3.17.151-1.988-.243-3.483-4.01-6.32-3.647l-3.24.67c-1.51.324-1.737 1.058-2.2 2.413 0 0-.907 2.51-1.514 2.671-1.028 1.21-.77.98-2.084.53"/>
        <path fill="#FF4C5A" d="M82.465 85.536c2.192-.424 2.056-2.99.865-4.32-1.142-1.275-3.035-2.08-4.728-1.179-1.758.808-2.526 3.219-1.778 4.842.952 2.064 3.887.995 5.641.657"/>
        <path fill="#FFF" d="M79.701 81.427c.706.108.508.557.064.863a.39.39 0 00-.062.053c-.029-.275-.056-.55-.087-.824a.37.37 0 00-.027-.105c.036.004.074.007.112.013m1.61 1.303c.618.063.592.69.209 1.024-.408.353-1.006.545-1.605.647l-.161-1.566a.355.355 0 00.359.058 2.738 2.738 0 011.198-.163m-2.762-.673a.865.865 0 01.336-.479v.008l.3 2.904-.293.019c-.474.022-.403.71.072.689 1.273-.06 3.262-.415 3.556-1.808.223-1.072-.741-1.37-1.669-1.327.16-.444.007-.903-.626-1.199a1.734 1.734 0 00-2.402 1.075c-.128.432.6.545.726.118"/>
        <path fill="#303D51" d="M72.672 54.37s.525 1.006 2.715.629c2.188-.378 2.156-1.799 2.156-1.799l-.043-1.484-5.248 1.347.42 1.307z"/>
        <path fill="#515E75" d="M82.17 56.957l-3.035-.63c-.52-.11-.86-.543-.76-.967l.677-1.77c.182-.536.656-.833 1.176-.723l3.133.933c.521.109.685.605.585 1.029l-.05.107-.12.267-.157.347c-.083.185-.162.373-.244.56-.09.2-.177.419-.37.57-.145.115-.529.362-1.061.231l.225.047"/>
        <path fill="#DBB127" d="M80.658 53.794l-.54-.14a.124.124 0 01-.088-.08.115.115 0 01.023-.113l.157-.177a.131.131 0 01.132-.04l.542.141a.125.125 0 01.086.08.115.115 0 01-.023.113l-.155.177a.131.131 0 01-.134.039m1.364.351l-.542-.142a.125.125 0 01-.088-.08.115.115 0 01.024-.112l.156-.177a.131.131 0 01.133-.04l.541.142c.088.024.122.124.064.192l-.157.177a.131.131 0 01-.132.04m1.199.43l-.54-.143a.124.124 0 01-.087-.08.115.115 0 01.023-.112l.155-.177a.131.131 0 01.134-.04l.54.141c.042.011.075.041.088.08a.115.115 0 01-.024.113l-.156.177a.133.133 0 01-.132.04m-2.958-.085l-.54-.143a.125.125 0 01-.087-.08.115.115 0 01.022-.112l.157-.177a.131.131 0 01.132-.04l.54.142a.125.125 0 01.088.08.115.115 0 01-.023.112l-.157.177a.13.13 0 01-.132.04m1.363.35l-.54-.141a.124.124 0 01-.087-.08.115.115 0 01.022-.112l.156-.178a.133.133 0 01.133-.04l.54.143c.041.01.074.04.087.08a.115.115 0 01-.023.111l-.156.178a.132.132 0 01-.132.04m1.199.429l-.54-.142a.125.125 0 01-.088-.08.115.115 0 01.023-.113l.156-.177a.133.133 0 01.133-.039l.541.142c.041.01.074.04.087.08a.114.114 0 01-.023.111l-.156.178a.133.133 0 01-.133.04m-2.957-.086l-.541-.142a.125.125 0 01-.087-.08.115.115 0 01.023-.112l.157-.178a.133.133 0 01.132-.038l.54.141c.088.024.122.125.065.191l-.157.178a.13.13 0 01-.132.04m1.362.35l-.54-.142a.124.124 0 01-.087-.08.114.114 0 01.023-.111l.156-.178a.133.133 0 01.132-.04l.54.142c.042.011.075.041.088.08a.114.114 0 01-.023.112l-.156.178a.132.132 0 01-.133.04m1.2.429l-.54-.143a.124.124 0 01-.088-.079.115.115 0 01.023-.112l.155-.178a.133.133 0 01.134-.04l.54.143c.089.023.122.125.064.191l-.156.178a.13.13 0 01-.132.039m-2.958-.086l-.54-.142a.124.124 0 01-.088-.079.114.114 0 01.024-.112l.155-.178a.132.132 0 01.133-.04l.54.143c.042.01.075.04.088.08a.114.114 0 01-.023.111l-.156.178a.133.133 0 01-.133.039m1.363.35l-.541-.141a.124.124 0 01-.088-.08.114.114 0 01.024-.112l.157-.177a.133.133 0 01.131-.04l.542.142a.125.125 0 01.086.08.115.115 0 01-.022.112l-.157.177a.131.131 0 01-.132.04m1.2.429l-.542-.142a.124.124 0 01-.086-.08.115.115 0 01.022-.112l.157-.177a.133.133 0 01.132-.04l.54.142a.125.125 0 01.087.08.115.115 0 01-.022.112l-.157.177a.13.13 0 01-.131.04"/>
        <path fill="#FFC300" d="M78.518 40.2s-1.67.766-2.263.829c-.592.063-2.59-.141-3.983.59-1.302.683-5.527 3.291-6.151 5.366-.623 2.075-.385 2.48-.802 3.433-.417.954-1.614 2.045-1.387 2.664.225.617.969 1.43.969 1.43s14.798-14.278 14.78-14.436c0 0-.321-.246-1.163.123"/>
        <path fill="#7D879D" d="M80.289 42.559l5.993-3.48a.823.823 0 00.391-.508.778.778 0 00-.107-.62c-.254-.386-.792-.506-1.202-.268l-5.992 3.48.918 1.395h-.001z"/>
        <path fill="#303D51" d="M81.035 42.904s.095-.072.582-.304c.547-.262-1.004-2.587-1.407-2.376l-.582.304 1.407 2.376z"/>
        <path fill="#7D879D" d="M64.716 53.926s1.937-3.31 2.004-3.693c.07-.383-.628-1.914.786-3.885 1.415-1.97 3.917-3.895 5.316-4.58 1.398-.684 3.21-.288 4.16-.443.95-.154 2.699-1.25 2.699-1.25s1.183.838 1.392 2.101c.208 1.263.228 1.85.228 1.85s-2.223.986-2.665 1.567c-.442.583-1.484 2.906-1.131 6.295-.044.113.274 1.46-1.633 2.457-1.018.535-2.967.299-3.348-.41-.456-.85-.43-.921-1.03-1.18-.225.024-1.855 3.27-2.272 4.064-.081.277-2.606.117-3.1-.205-.495-.322-1.783-2.038-1.406-2.688"/>
        <path fill="#303D51" d="M74.811 42.05c-1.927.011-4.001 1.93-4.001 1.93s-2.817 2.178-2.994 3.995c-.017.61.52 2.425 1.685 2.595.623.09 2.898-.005 5.542-2.329 2.672-2.296 2.503-4.298 2.428-4.842-.122-.887-2.017-1.313-2.66-1.349"/>
        <path fill="#8C99AC" d="M74.457 43.047c-.49-.076-.741.114-1.04.34-.345.26-1.959 1.656-1.959 1.656s-1.57 1.362-1.87 1.67c-.259.263-.478.486-.436.955.045.468.33 2.334 1.428 2.19 2.979-.388 5.857-3.442 6.076-5.299.123-1.043-1.71-1.436-2.2-1.512"/>
        <path fill="#7D879D" d="M67.552 56.54l-3.779 6.567c-.217.382-.723.526-1.129.322l-.448-.225c-.405-.204-.559-.678-.343-1.06l3.78-6.568 1.92.964z"/>
        <path fill="#303D51" d="M68.275 56.827c-.148.26-.088.114-.36.694-.098.207-.477.184-.944.042.128-.3.086-.857-.601-1.186-.913-.438-1.308.203-1.308.203-.27-.215-.424-.411-.362-.533.251-.483.086-.175.362-.695.463-.684 3.44.433 3.213 1.475"/>
        <path fill="#FFC300" d="M55.198 68.813l-18.806 3.649-3.272-14.904c-.357-1.628.467-3.451 2.067-4.158 0 0 3.683-2.237 6.207-2.748 2.525-.511 6.911.392 6.911.392 1.767.053 3.264 1.238 3.623 2.866l3.27 14.904v-.001z"/>
        <path fill="#303D51" d="M55.397 69.653L36.59 73.3l-3.27-14.902c-.359-1.628.505-3.452 2.105-4.16 0 0 3.656-2.235 6.181-2.746 2.525-.512 6.897.391 6.897.391 1.767.053 3.265 1.239 3.623 2.867l3.271 14.903z"/>
        <path fill="#7D879D" d="M46.949 65.313L42.054 66.267 39.228 53.464 44.123 52.51z"/>
        <path fill="#4A5368" d="M52.715 97.03c-.969 1.093-2.892 1.04-3.75.955a.829.829 0 01-.638-.402c-1.589-2.746-2.545-7.306-2.839-8.865a.763.763 0 01.414-.816c1.036-.536 3.377-1.654 4.5-1.424.102.02.195.053.274.098 1.07.592 1.99 7.892 2.216 9.821l.002.015.006.075a.74.74 0 01-.185.544"/>
        <path fill="#1E2A3A" d="M52.812 96.916c-.4.21-1.018-2.53-1.09-2.825a70.535 70.535 0 01-.985-4.629 23.526 23.526 0 01-.295-2.21c-.02-.247-.042-.512-.039-.774.102.02.194.052.274.097 1.07.594 1.99 7.893 2.215 9.822l.002.015c.009.101.027.447-.083.504"/>
        <path fill="#515E75" d="M60.692 85.464a8.962 8.962 0 01-1.218 2.022c-.387.493-.927 1.335-1.615 1.469-.36.069-.737-.06-1.025-.275a2.61 2.61 0 01-.798-1.018c-.447-1.023-.16-2.185.132-3.257.208-.764.415-1.528.624-2.291.126-.463.254-.928.457-1.367.256-.555.741-1.192 1.476-1.133 1.77.144 2.411 1.904 2.46 3.342.03.878-.159 1.718-.493 2.508"/>
        <path fill="#515E75" d="M60.698 85.466a7.546 7.546 0 01-.287.6c-.344.126-.725.176-1.019-.015-.18-.118-.29-.306-.399-.486a12.062 12.062 0 00-1.32-1.798c-.422-.47-.305-.902-.006-1.424a9.338 9.338 0 00.95-2.343c.032-.126.064-.259.108-.386.577.047 1.123.333 1.517.738.44.45.703 1.034.841 1.63.268 1.16.082 2.384-.385 3.484"/>
        <path fill="#1E2A3A" d="M34.087 77.156a.947.947 0 00-.406.227c-.13.136-.151.343-.1.521.052.178.165.334.278.484.956 1.278 2.037 2.47 3.117 3.657.117.13.247.266.422.305.134.03.273 0 .406-.032 1.183-.276 2.354-.605 3.529-.916.323-.085.564-.188.57-.545.005-.167-.047-.331-.096-.493-.227-.76-.287-1.542-.518-2.298a2.67 2.67 0 00-1.176-1.524c-.728-.446-1.514-.778-2.399-.61-.6.112-1.185.363-1.755.568-.622.225-1.241.455-1.872.656"/>
        <path fill="#303D51" d="M40.252 88.625c.074.67.085 1.35.028 2.024a.384.384 0 000 .084c.005.036-.33-.084-.353-.094-1.504-.602-2.01-2.355-2.03-3.756-.008-.53.028-1.087.264-1.577.056-.117.544-.917.742-.644.136.188.295.372.366.512.54 1.073.853 2.273.983 3.45"/>
        <path fill="#F1718A" d="M40.892 83.875l.11.234a9.29 9.29 0 00-.161-.21l.043-.02a.084.084 0 01.008-.004"/>
        <path fill="#1E2A3A" d="M46.176 89.869c-.118.087-.27.12-.417.15a34.91 34.91 0 01-1.12.212 3.332 3.332 0 00.096-2.04c.474.217.984.355 1.508.41l.077.262c.098.347.157.783-.144 1.006m-11.418 7.833c-.886.15-2.32.486-1.693.711.739.264 2.41 0 2.49-.103.085-.11.151-.323.215-.531.916-2.995 3.537-10.861 3.444-11.332-.017-.083-.414-.252-.414-.252-1.128 2.666-3.917 11.486-4.042 11.507m4.982-11.717c-.263-.257-1.651-2.912-1.506-3.987.037-.274.117-.54.168-.81.573-.206 1.218-.565 1.792-.77.252-.09.516-.18.784-.159.57.046.949.569 1.171 1.064.413.927.574 1.936.468 2.936-.079.732-.354 1.517-1.022 1.9-.624.356-1.887-.091-1.855-.174m13.703 1.994a6.291 6.291 0 00-.36-.41 3.02 3.02 0 00-.545-.446c.245-.197.478-.407.7-.628.01.022.024.041.032.063.188.45.226.944.173 1.422m4.589-11.636c-.169-.389-.384-.765-.682-1.077-.528-.553-1.284-.877-2.057-1.024-.667-.128-1.372-.133-2.018.069-.646.201-1.23.621-1.529 1.196-.324.623-.294 1.352-.24 2.043.023.283.048.572.162.834.05.114.129.237.224.361a2.95 2.95 0 00-.054.188c-.406 1.687-.413 3.44-.777 5.134-.208.966-.48 2.08-1.088 2.89-.278.372-1.08 1.672.037 1.437a5.143 5.143 0 001.08-.364c.09.052.196.077.302.07.31-.023.696-.103 1.027.24.505.526.887 1.112 1.22 1.644-.027.026-.06.048-.075.082-.113.241.043.575.227.744.316.29 1.074.476 1.383.08.364-.467.007-1.448-.654-1.475-.03 0-.059.012-.087.02a33.549 33.549 0 00-.341-.544c.035-.145.071-.297.087-.452.09-.894.065-1.827-.336-2.608.117-.14.23-.279.336-.42.119-.157.275-.484.525-.457.357.039.454.655.889.436.048-.025.088-.067.128-.105.004.005.005.01.008.015.328.475.986.802 1.543.586.643-.25.803-1.021.872-1.672l.25-2.32c.043-.405.086-.815.118-1.226.119-1.477.105-2.966-.48-4.325"/>
        <path fill="#515E75" d="M44.64 90.232c-.745.13-1.494.239-2.246.325-.567.066-1.137.121-1.706.161a4.415 4.415 0 01-.408.016.39.39 0 010-.085c.057-.675.046-1.353-.029-2.024-.13-1.178-.443-2.378-.982-3.451-.071-.141-.23-.324-.366-.512.435-.11.933-.106 1.322-.307.234-.12.383-.335.616-.455.055.069.11.139.162.21.2.416.414.825.646 1.228l.107.177c.115.184 1.198-.083 1.333.094.67.89.616 2.124 1.646 2.583.183.674.15 1.384-.095 2.04"/>
        <path fill="#515E75" d="M43.094 73.426c1.708-.568 3.557-.854 5.339-.556.788.132 1.582.397 2.212.873.577.436.817-.52 1.007.165.208.752.86 6.074.763 6.955-.184 1.687-.051 2.765-.759 4.334a7.002 7.002 0 01-1.325 1.973c-.351.37-.767.68-1.228.918-.376.191-.78.326-1.2.398-.406.07-1.245.157-1.66.115a4.849 4.849 0 01-1.508-.41c-2.255-1.005-2.847-3.36-3.733-5.474-.502-1.201-1.433-5.861-1.32-7.258.39-.666.334-.761 1.01-1.167 1.526-.914 3.352-1.311 5.161-1.398"/>
        <path fill="#C9D6E2" d="M52.983 85.634l-10.735 1.73c-.568.092-1.108-.267-1.206-.801l-1.001-5.485a.936.936 0 01.177-.733c.16-.212.403-.356.676-.4l10.736-1.73c.568-.092 1.107.267 1.205.801l1 5.485a.936.936 0 01-.176.732c-.16.213-.403.357-.676.4"/>
        <path fill="#FF4C5A" d="M47.306 78.034l-2.824.456a.817.817 0 01-.758-.247.708.708 0 01-.136-.744.78.78 0 01.627-.47l2.824-.456a.815.815 0 01.74.256c.18.204.23.483.133.731a.778.778 0 01-.606.474"/>
        <path fill="#303D51" d="M58.512 80.669c-.034.409-.074.818-.119 1.226l-.25 2.32c-.068.65-.228 1.423-.871 1.672-.557.216-1.215-.111-1.543-.586-.328-.475-.408-1.058-.495-1.618a33.337 33.337 0 00-.425-2.22c-.11-.477-.235-.967-.55-1.357-.412-.507-.702-.338-1.238-.523-.01-.003 1.165-.969 3.057-.548.983.219 1.773.908 2.434 1.634"/>
        <path fill="#FFC300" d="M58.176 71.72c-.184 1.244-1.34 2.21-2.524 2.704-.682.284-1.436.32-2.142.539-1.764.545-11.188 1.932-14.817 1.91-1.366-.01-2.687-.097-3.773-.982-1.751-1.697-2.16-5.304-.841-7.71l.014-.027c1.091-1.966 3.42-3.266 5.563-4.015 3.502-1.224 7.27-1.247 10.956-1.044 1.433.08 3.03.028 4.24.83.236.155.458.33.668.523.839.768 1.466 1.795 1.851 2.843.509 1.384 1.004 3.081.805 4.429"/>
        <path fill="#7D879D" d="M48.305 59.16c-2.073-.034-6.476.125-9.827 1.498-4.8 1.967-2.945 5.758-2.945 5.758 3.271-1.69 13.825-3.234 17.645-3.12 0 0 .402-4.051-4.873-4.136"/>
        <path fill="#EDA420" d="M58.176 71.72c-.184 1.244-1.34 2.21-2.524 2.704-.682.284-1.406.443-2.142.539-.324-.423-.529-.992-.556-1.75-.016-.437-.021-1.206-.047-1.643-.152-2.679.676-5.232 2.613-7.123.839.769 1.466 1.796 1.851 2.844.509 1.384 1.004 3.081.805 4.429m-19.483 5.153c-1.362.082-2.687-.097-3.773-.98-1.751-1.7-2.16-5.306-.841-7.713.2.339 2.945 2.427 3.604 3.772.45.92.788 1.885 1.007 2.877.145.662.205 1.412.003 2.043"/>
        <path fill="#FF4C5A" d="M50.682 73.6l-2.017.598-5.514.864s-4.008-4.46-3.792-4.4c.422.116 1.515.157 1.951.212.894.111 1.8.106 2.697.036a17.864 17.864 0 002.911-.484c1.103-.275 2.194-.644 3.162-1.204.286-.165.628 4.373.602 4.378"/>
        <path fill="#ECD9B1" d="M52.954 73.214c.03.657-3.698 1.156-3.698 1.156a.466.466 0 01-.37-.08.41.41 0 01-.168-.32v-.004a8.528 8.528 0 011.307-4.657c.036-.057.1-.092.148-.141.717-.718 2.398-1.843 3.583-2.246 0 0-.312.621-.663 2.094 0 0-.24 1.987-.138 4.198m-14.177 2.23c.893.269 3.737-.033 3.737-.033.712-.043 1.073-.325.984-.573a8.947 8.947 0 00-2.895-3.98c-.055-.042-.127-.053-.19-.086-.82-.408-3.216-1.236-4.612-.997.373.279 1.6 1.583 1.704 1.86 0 0 1 1.665 1.272 3.81"/>
        <path fill="#1E2A3A" d="M37.615 81.714c-.015.049-.072.074-.122.09-.742.252-3.863.828-4.579.522-.168-.072-.788-.991-.753-1.037l.003-.001a51.123 51.123 0 002.005-.498l.18-.047.103-.027c.327-.085.654-.171.982-.253.354-.088.724-.185 1.073-.026.485.223.832.734 1.078 1.167.02.033.04.072.029.11"/>
        <path fill="#FFC300" d="M35.532 66.416c1.703-1.968 2.01-3.799 2.01-3.799.532-1.716 1.616-2.805 3.564-3.136l3.773-.703c3.333-.549 6.593 4.743 9.182 4.85-.914.72-2.589.395-3.17.151-1.989-.243-3.483-4.01-6.321-3.647l-3.24.67c-1.509.324-1.736 1.058-2.199 2.413 0 0-.907 2.51-1.514 2.671-1.029 1.21-.77.98-2.084.53"/>
        <path fill="#FF4C5A" d="M49.175 85.536c2.191-.424 2.053-2.99.864-4.32-1.143-1.275-3.035-2.08-4.728-1.179-1.757.808-2.525 3.219-1.778 4.842.951 2.064 3.887.995 5.64.657"/>
        <path fill="#FFF" d="M46.41 81.427c.706.108.509.557.065.863a.39.39 0 00-.063.053c-.029-.275-.056-.55-.086-.824a.37.37 0 00-.028-.105c.035.004.074.007.112.013m1.61 1.303c.618.063.591.69.208 1.024-.406.353-1.005.545-1.603.647-.053-.522-.109-1.046-.163-1.566a.355.355 0 00.36.058 2.74 2.74 0 011.197-.163m-2.76-.673a.857.857 0 01.336-.479c0 .002-.003.004-.002.008l.301 2.904-.294.019c-.473.022-.402.71.073.689 1.273-.06 3.261-.415 3.556-1.808.224-1.072-.742-1.37-1.668-1.327.16-.444.005-.903-.626-1.199a1.736 1.736 0 00-2.403 1.075c-.128.432.6.545.727.118"/>
        <path fill="#303D51" d="M39.381 54.37s.526 1.006 2.715.629c2.188-.378 2.156-1.799 2.156-1.799l-.042-1.484-5.25 1.347.421 1.307z"/>
        <path fill="#515E75" d="M48.879 56.957l-3.035-.63c-.52-.11-.861-.543-.76-.967l.677-1.77c.182-.536.655-.833 1.176-.723l3.133.933c.52.109.685.605.584 1.029l-.048.107-.121.267-.157.347c-.084.185-.161.373-.245.56-.09.2-.176.419-.369.57-.145.115-.53.362-1.062.231l.227.047"/>
        <path fill="#DBB127" d="M47.367 53.794l-.54-.14a.124.124 0 01-.087-.08.115.115 0 01.023-.113l.156-.177a.131.131 0 01.133-.04l.54.141c.042.011.075.041.088.08a.115.115 0 01-.024.113l-.156.177a.131.131 0 01-.133.039m1.363.351l-.541-.142a.125.125 0 01-.087-.08.115.115 0 01.023-.112l.157-.177a.131.131 0 01.132-.04l.54.142c.042.011.075.04.088.08a.114.114 0 01-.023.112l-.156.177a.133.133 0 01-.133.04m1.2.43l-.542-.143a.125.125 0 01-.086-.08.115.115 0 01.022-.112l.157-.177a.131.131 0 01.133-.04l.54.141a.125.125 0 01.087.08.115.115 0 01-.023.113l-.156.177a.132.132 0 01-.132.04m-2.958-.085l-.54-.143a.124.124 0 01-.088-.08.115.115 0 01.023-.112l.157-.177a.131.131 0 01.132-.04l.541.142a.125.125 0 01.087.08.115.115 0 01-.023.112l-.157.177a.133.133 0 01-.132.04m1.362.35l-.54-.141a.124.124 0 01-.087-.08.115.115 0 01.023-.112l.156-.178a.133.133 0 01.133-.04l.54.143c.089.024.122.125.064.191l-.157.178a.132.132 0 01-.132.04m1.2.429l-.54-.142a.124.124 0 01-.088-.08.115.115 0 01.024-.113l.155-.177a.133.133 0 01.133-.039l.54.142c.042.01.075.04.088.08a.114.114 0 01-.023.111l-.156.178a.133.133 0 01-.133.04m-2.957-.086l-.541-.142a.125.125 0 01-.087-.08.115.115 0 01.023-.112l.156-.178a.133.133 0 01.133-.038l.54.141c.042.01.075.04.088.08a.114.114 0 01-.024.111l-.156.178a.13.13 0 01-.132.04m1.362.35l-.54-.142a.124.124 0 01-.087-.08.115.115 0 01.023-.111l.156-.178a.133.133 0 01.132-.04l.54.142c.042.011.074.041.087.08a.115.115 0 01-.023.112l-.156.178a.13.13 0 01-.132.04m1.2.429l-.541-.143a.124.124 0 01-.087-.079.115.115 0 01.022-.112l.157-.178a.133.133 0 01.132-.04l.542.143c.04.01.074.04.086.08a.114.114 0 01-.023.111l-.155.178a.133.133 0 01-.134.039m-2.957-.086l-.54-.142a.124.124 0 01-.088-.079.115.115 0 01.023-.112l.157-.178a.132.132 0 01.133-.04l.54.143c.089.023.121.125.064.191l-.157.178a.13.13 0 01-.132.039m1.363.35l-.54-.141a.124.124 0 01-.088-.08.114.114 0 01.024-.112l.155-.177a.133.133 0 01.133-.04l.54.142c.042.01.075.04.088.08a.115.115 0 01-.024.112l-.156.177a.131.131 0 01-.132.04m1.2.429l-.541-.142a.124.124 0 01-.087-.08.115.115 0 01.022-.112l.157-.177a.133.133 0 01.132-.04l.54.142a.125.125 0 01.087.08.115.115 0 01-.022.112l-.157.177a.13.13 0 01-.132.04"/>
        <path fill="#FFC300" d="M45.227 40.2s-1.671.766-2.263.829c-.591.063-2.59-.141-3.983.59-1.302.683-5.527 3.291-6.15 5.366-.624 2.075-.386 2.48-.803 3.433-.417.954-1.615 2.045-1.388 2.664.225.617.97 1.43.97 1.43s14.798-14.278 14.78-14.436c0 0-.321-.246-1.163.123"/>
        <path fill="#7D879D" d="M46.998 42.559l5.993-3.48a.823.823 0 00.39-.508.778.778 0 00-.107-.62c-.253-.386-.79-.505-1.2-.268l-5.993 3.48.917 1.395z"/>
        <path fill="#303D51" d="M47.743 42.904s.096-.072.582-.304c.549-.262-1.002-2.587-1.407-2.376l-.582.304 1.407 2.376z"/>
        <path fill="#7D879D" d="M31.424 53.926s1.938-3.31 2.005-3.693c.069-.383-.628-1.914.787-3.885 1.414-1.97 3.916-3.895 5.315-4.58 1.398-.684 3.212-.288 4.16-.443.95-.154 2.698-1.25 2.698-1.25s1.184.838 1.393 2.101c.208 1.263.228 1.85.228 1.85s-2.223.986-2.666 1.567c-.442.583-1.482 2.906-1.13 6.295-.045.113.275 1.46-1.632 2.457-1.02.535-2.969.299-3.349-.41-.455-.85-.43-.921-1.03-1.18-.225.024-1.854 3.27-2.272 4.064-.081.277-2.606.117-3.1-.205-.495-.322-1.783-2.038-1.406-2.688"/>
        <path fill="#303D51" d="M41.52 42.05c-1.928.011-4.001 1.93-4.001 1.93s-2.818 2.178-2.994 3.995c-.017.61.52 2.425 1.685 2.595.622.09 2.897-.005 5.542-2.329 2.672-2.296 2.503-4.298 2.428-4.842-.122-.887-2.017-1.313-2.66-1.349"/>
        <path fill="#8C99AC" d="M41.165 43.047c-.49-.076-.74.114-1.039.34-.345.26-1.958 1.656-1.958 1.656s-1.571 1.362-1.87 1.67c-.26.263-.478.486-.436.955.043.468.33 2.334 1.427 2.19 2.978-.388 5.857-3.442 6.076-5.299.123-1.043-1.71-1.436-2.2-1.512"/>
        <path fill="#7D879D" d="M34.261 56.54l-3.78 6.567c-.217.382-.722.526-1.128.322l-.448-.225c-.406-.204-.559-.679-.342-1.06l3.78-6.568 1.918.964z"/>
        <path fill="#303D51" d="M34.984 56.827c-.148.26-.088.114-.361.694-.097.207-.476.184-.944.042.13-.3.087-.857-.6-1.186-.913-.438-1.308.203-1.308.203-.27-.215-.424-.411-.36-.533.249-.483.085-.175.36-.695.464-.684 3.441.433 3.213 1.475"/>
    </g>
</svg>
