<svg xmlns="http://www.w3.org/2000/svg" width="20" height="20" viewBox="0 0 20 20">
    <path fill="#FF9E00" fill-rule="evenodd" d="M16.667 2.5c1.38 0 2.5 1.12 2.5 2.5v10c0 1.38-1.12 2.5-2.5 2.5H3.333c-1.38 0-2.5-1.12-2.5-2.5V5c0-1.38 1.12-2.5 2.5-2.5zm0 1.667H3.333c-.46 0-.833.373-.833.833v10c0 .46.373.833.833.833h13.334c.46 0 .833-.373.833-.833V5c0-.46-.373-.833-.833-.833zm-3.323 6.291c2.024 0 2.868.922 2.914 1.514l.002.052-.008 1.645c0 .275-.224.498-.5.498h-4.825c-.276 0-.5-.224-.5-.5v-1.542c0-.689.786-1.612 2.741-1.664l.176-.003zM7.917 9.167c.46 0 .833.373.833.833 0 .46-.373.833-.833.833H4.583c-.46 0-.833-.373-.833-.833 0-.46.373-.833.833-.833h3.334zm5.416-3.75c1.15 0 2.084.932 2.084 2.083 0 1.116-.877 2.027-1.98 2.08l-.104.003c-1.15 0-2.083-.932-2.083-2.083 0-1.116.877-2.027 1.98-2.08l.103-.003zM8.75 6.667c.46 0 .833.373.833.833 0 .46-.373.833-.833.833H4.583c-.46 0-.833-.373-.833-.833 0-.46.373-.833.833-.833H8.75z"/>
</svg>
