<svg xmlns="http://www.w3.org/2000/svg" width="24" height="24" viewBox="0 0 24 24">
    <g fill="none" fill-rule="evenodd" transform="matrix(-1 0 0 1 24 0)">
        <circle cx="12" cy="12" r="10" fill="#FFF"/>
        <path fill="#FFC300" d="M12.01 20a7.98 7.98 0 0 0 5.651-2.348c3.12-3.117 3.12-8.197 0-11.314-3.12-3.117-8.202-3.117-11.322 0-3.119 3.117-3.119 8.197 0 11.314A8.063 8.063 0 0 0 12.011 20"/>
        <path fill="#FFF" d="M8.469 13.398h4.05a.897.897 0 0 0 .887-.885v-5.06a.897.897 0 0 0-.886-.885.897.897 0 0 0-.886.885v4.174H8.469a.897.897 0 0 0-.886.886c0 .48.405.885.886.885"/>
    </g>
</svg>
