<svg xmlns="http://www.w3.org/2000/svg" width="20" height="20" viewBox="0 0 20 20">
    <path fill="#7A7A7A" fill-rule="evenodd" d="M15.333 2.5c.829 0 1.334.838 1.334 1.667V6.32c0 .27-.219.489-.488.489-.13 0-.254-.052-.346-.143l-.247-.248C15.21 6.044 15 5.535 15 5.005v-.838H5v11.666h10V14.75c0-.63.296-1.222.8-1.6l.067-.05c.22-.166.534-.12.7.1.065.087.1.192.1.3v2.75c0 .828-.839 1.25-1.667 1.25H5c-.828 0-1.667-.838-1.667-1.667V4.167C3.333 2.917 4.172 2.5 5 2.5h10.333zm-3.156 3.508l.079.07 3.347 3.347.016.018-.018-.019.048.055.028.034c.042.06.077.124.103.193l.014.042c.008.025.015.05.021.077l.004.021c.005.027.009.054.011.081l.003.048V10.046l-.002.016v-.017l-.002.039c-.003.027-.007.055-.012.081l-.007.03-.017.063c-.01.028-.02.055-.032.082l-.014.03-.016.03-.017.03c-.015.025-.03.048-.048.07l-.007.01-.013.017-.046.052-3.344 3.344c-.326.325-.853.325-1.179 0-.3-.3-.323-.774-.069-1.1l.07-.079 1.909-1.91H7.5c-.46 0-.833-.374-.833-.834 0-.427.321-.78.736-.828l.097-.005h5.488l-1.91-1.911c-.301-.3-.324-.773-.07-1.1l.07-.079c.3-.3.773-.323 1.1-.069z"/>
</svg>
