<svg xmlns="http://www.w3.org/2000/svg" xmlns:xlink="http://www.w3.org/1999/xlink" width="360" height="640" viewBox="0 0 360 640">
    <defs>
        <filter id="prefix__b" width="103.3%" height="101.9%" x="-1.7%" y="-.9%" filterUnits="objectBoundingBox">
            <feOffset in="SourceAlpha" result="shadowOffsetOuter1"/>
            <feGaussianBlur in="shadowOffsetOuter1" result="shadowBlurOuter1" stdDeviation="2"/>
            <feColorMatrix in="shadowBlurOuter1" values="0 0 0 0 0 0 0 0 0 0 0 0 0 0 0 0 0 0 0.156277316 0"/>
        </filter>
        <path id="prefix__a" d="M0 0H360V640H0z"/>
    </defs>
    <g fill="none" fill-rule="evenodd">
        <mask id="prefix__c" fill="#fff">
            <use xlink:href="#prefix__a"/>
        </mask>
        <use fill="#000" filter="url(#prefix__b)" xlink:href="#prefix__a"/>
        <use fill="#1E1E76" xlink:href="#prefix__a"/>
        <g fill="#000" mask="url(#prefix__c)">
            <g>
                <path d="M397.93 281.256c-1.977-1.91-2.818-4.775-2.605-7.445l11.762-78.049-83.356-2.875c-3.85-.129-7.25-2.766-8.425-6.475-1.176-3.707.183-7.657 3.334-9.729l105.015-64.18c3.39-2.23 7.986-1.73 11.025 1.205l26.925-.277-11.133-10.752c-3.486-3.366-3.804-8.716-.763-12.069l.172-.184 12.454-12.897c3.225-3.339 8.717-3.266 12.267.163l36.48 35.228 52.985-.548.01 51.725 37.384 36.1c3.485 3.367 3.804 8.717.763 12.07l-.173.184-12.454 12.897c-3.224 3.339-8.716 3.266-12.267-.163l-13.242-12.788.004 26.282c2.972 2.87 3.674 7.305 1.731 10.74l-.133.228-60.243 106.95c-1.96 3.221-5.847 4.707-9.594 3.662-3.745-1.044-6.48-4.374-6.745-8.217l-5.741-83.224-77.883 14.78c-2.663.314-5.566-.422-7.554-2.342zm-127.37-68.593c-7.671-7.408-7.887-19.68-.478-27.351 7.409-7.672 19.68-7.884 27.35-.476 7.673 7.41 7.888 19.679.48 27.35-7.41 7.673-19.68 7.886-27.352.477zm200.873 194.078c-7.673-7.41-7.888-19.68-.48-27.351 7.409-7.672 19.678-7.887 27.351-.477 7.673 7.41 7.888 19.679.479 27.351-7.41 7.673-19.678 7.887-27.35.477zM360.24 322.857c-7.672-7.409-7.886-19.679-.477-27.35 7.408-7.672 19.677-7.886 27.35-.477 7.672 7.41 7.888 19.68.48 27.351-7.41 7.672-19.68 7.886-27.353.476zM237.974 691.033c1.948-1.315 4.487-1.52 6.673-.882l62.867 23.23 17.51-68.793c.805-3.178 3.619-5.55 6.92-5.887 3.301-.339 6.344 1.472 7.498 4.448l36.653 109.448c1.242 3.202-.007 6.936-3.003 8.957l-118.325 82.971c-2.994 2.02-6.92 1.786-9.424-.562l-89.61-76.545c-2.329-2.184-2.861-5.671-1.311-8.606 1.548-2.933 4.817-4.632 8.065-4.19l70.352 9.573 1.815-67.287c.22-2.268 1.36-4.553 3.32-5.875zm80.758-94.188c7.521-5.073 17.744-3.12 22.785 4.354s3.022 17.683-4.499 22.756c-7.522 5.073-17.743 3.12-22.784-4.354-5.042-7.474-3.023-17.683 4.498-22.756zm-198.511 133.26c7.522-5.074 17.744-3.121 22.785 4.353s3.024 17.682-4.499 22.756c-7.522 5.074-17.742 3.121-22.784-4.354-5.042-7.474-3.024-17.682 4.498-22.755zm89.624-77.223c7.521-5.074 17.743-3.12 22.784 4.354s3.023 17.682-4.498 22.756c-7.522 5.073-17.744 3.12-22.785-4.353-5.042-7.474-3.023-17.684 4.499-22.757z" opacity=".15" transform="translate(-183.006 -150.695)"/>
            </g>
        </g>
        <g mask="url(#prefix__c)">
            <g>
                <path fill="#32328F" d="M147.515 151.334c6.304-6.876 13.476-10.148 23.447-18.038 7.388-5.848 11.655-12.04 13.597-14.37-2.23-4.68-6.802-12.054-6.992-12.816-.418-1.668 3.546-16.664 17.26-20.091 1.235.313 7.002 7.968 10.688 15.912 3.353 7.223 8.548 17.879 7.407 23.21-1.166 5.436-5.44 13.98-19.064 29.39-18.66 21.104-36.147 39.049-36.147 39.049l-10.196-42.246zM145.08 118.309s11.133-17.53-10.736-19.947c2.317-6.651-2.024-12.773-8.145-11.28-6.12 1.494-6.53 6.457-12.137 5.457s-9.583 1.517-10.878 6.022c-1.294 4.506-.684 10.167-5.709 14.211-5.023 4.044-7.128 12.787 1.48 17.494-3.953 5.977 5.27 13.5 11.823 10.505.634 6.277 7.981 10.42 14.168 1.629 13.469-17.876 20.133-24.091 20.133-24.091" transform="matrix(-1 0 0 1 400.742 271.88)"/>
                <path fill="#44A" d="M141.826 142.45l-1.463 14.69s-14.308 6.393-23.15-2.192c2.193-8.038 1.91-15.86 1.91-15.86l22.703 3.362z" transform="matrix(-1 0 0 1 400.742 271.88)"/>
                <path fill="#35358E" d="M141.849 143.665l-.504 3.698s-12.781 5.983-22.53-1.569c.094-.875.157-1.83.168-2.857.009-.838-.015-1.625-.065-2.36l22.931 3.088z" transform="matrix(-1 0 0 1 400.742 271.88)"/>
                <path fill="#44A" d="M118.826 101.672c10.193-5.01 18.131 3.436 28.747 22.6 2.88 5.198 2.608 14.913-2.462 18.528-5.977 4.262-15.611 5.006-24.598.087-3.606-1.975-4.005-2.706-7.808-8.009-12.58-17.543-7.047-26.734 6.12-33.206" transform="matrix(-1 0 0 1 400.742 271.88)"/>
                <path fill="#32328F" d="M133.37 101.782s1.571 6.065-2.092 7.534c-1.504.72-2.72-6.324-2.72-6.324-1.276 8.2-8.76 15.697-15.786 16.344 6.012 5.397 4.6 14.567-.282 18.276-11.509-10.07-13.998-26.477-2.127-35.957 11.868-9.477 23.007.127 23.007.127" transform="matrix(-1 0 0 1 400.742 271.88)"/>
                <path fill="#35358E" d="M131.822 117.125c3.855 5.715 11.09 6.474 11.583 8.618.345 1.504-2.584 2.932-5.499 1.65-5.026-2.211-9.005-8.446-9.005-8.446l2.921-1.822z" transform="matrix(-1 0 0 1 400.742 271.88)"/>
                <path fill="#44A" d="M87.77 164.291c-7.874 7.87-.984 37.388 4.923 51.163 5.906 13.775.49 24.107-3.94 42.31 20.672 15.25 49.428 13.78 61.731-1.47 4.431-22.63 17.105-52.32 21.026-72.405 3.937-20.17.418-38.294-11.393-36.817-11.811 1.474-15.75 7.379-37.403 6.395-9.945-.452-27.069 2.952-34.944 10.824z" transform="matrix(-1 0 0 1 400.742 271.88)"/>
                <path fill="#32328F" d="M144.368 150.461c-.705.375-.79.984-.761 1.145.407-.113.744-.17.91-.212.797 4.275 3.705 16.87-5.816 26.612-19.864-5.148-25.482-20.368-26.543-23.865.351-.066.456-.079.741-.118-.064-.228-.299-.742-.988-.668-8.798 1.395-18.744 5.54-24.14 10.936-7.875 7.87-.984 37.388 4.921 51.163 5.705 13.305.848 23.4-3.483 40.476-.083.332-.677.622-.761.958-.068.276-14.07-.176-13.974.09 27.138 14.768 51.484 17.576 73.04 8.427 15.887-10.742 29.712-17.406 41.476-19.991-15.936-5.646-35.214 11.516-34.274 10.35.553-2.137.304-3.887.954-6.103 8.04-27.373 19.362-58.686 18.972-79.08-.393-20.549-2.712-24.986-14.525-23.51-6.026.754-10.422 1.834-15.75 3.39z" transform="matrix(-1 0 0 1 400.742 271.88)"/>
                <path fill="#32328F" d="M58.242 234.149c-6.294-11.364 15.193-58.647 29.53-69.86 7.146-5.589 18.209 8.365 20.67 17.712 2.46 9.347-13.29 26.075-20.67 38.865 0 0 5.016 2.156 8.537 4.033 0 0 3.286 10.327-11.74 23.238-21.133-3.521-26.327-13.988-26.327-13.988" transform="matrix(-1 0 0 1 400.742 271.88)"/>
                <path fill="#44A" d="M93.022 225.837c-5.829 2.28-11.348 12.386-9.763 20.234 15.81 1.961 26.67 2.455 33.085 3.441 4.442 0 7.202-7.537 4.91-12.363-14.222-2.245-21.281-9.029-28.232-11.312" transform="matrix(-1 0 0 1 400.742 271.88)"/>
                <path fill="#44A" d="M136.476 235.387l.05-.034s.637-2.57-1.83-3.538c-.966-.38-4.38-2.383-6.605-1.585-3.408 1.223-5.958 5.18-10.334 6.377-.628.767-2.325 3.045-2.552 6.455-.22 3.306 1.07 5.728 1.582 6.587 6.59 2.11 13.17 4.1 16.262 2.602 3.091-1.498 3.69-3.03 4.218-5.007 2.402 1.245 3.663-2.023 2.766-5.401 0 0 2.14 1.612 2.406-1.154.39-3.46-3.374-5.057-5.963-5.302" transform="matrix(-1 0 0 1 400.742 271.88)"/>
                <path fill="#35358E" d="M136.538 235.397c-2.102-.431-5.63.269-6.916-.863 1.677.33 2.556-.006 3.779-.312 1.222-.305 2.052-.194 3.144.262.037.482-.007.913-.007.913" transform="matrix(-1 0 0 1 400.742 271.88)"/>
                <path fill="#44A" d="M166.215 63.835c6.902 4.387 15.641 10.288 29.077 26.205-3.981 14.674-13.063 13.739-13.063 13.739-6.519-11.318-14.082-26.613-20.902-32.457-.324-7.142 4.888-7.487 4.888-7.487" transform="matrix(-1 0 0 1 400.742 271.88)"/>
                <path fill="#44A" d="M168.814 68.035c.033 3.075.241 7.896-4.155 6.107-.77 2.678-6.29 3.612-7.027 2.159-.58 1.6-4.807 3.425-6.141.37-1.076 2.675-5.84 1.396-5.625-1.167-3.646 2.34-5.281-1.466-3.822-5.745.942-2.76 2.427-5.996 4.538-8.34 1.77-1.963 8.494-1.67 18.001 1.724 2.762.942 4.2 2.034 4.231 4.892" transform="matrix(-1 0 0 1 400.742 271.88)"/>
                <path fill="#44A" d="M145.733 74.154c-1.014 1.517-.802 4.813 2.365 5.72 3.165.907 3.369 2.3 4.428 1.823 1.057-.476 3.046-2.33-.41-7.025-3.282-4.46-6.383-.518-6.383-.518" transform="matrix(-1 0 0 1 400.742 271.88)"/>
                <path fill="#35358E" d="M145.693 75.185c.272-2.234 1.467-8.214 4.362-10.761-2.172.357-6.387 7.724-4.362 10.761M149.974 76.056c.273-2.234 1.466-8.213 4.362-10.76-2.174.355-6.389 7.721-4.362 10.76M154.67 76.508c.273-2.234 1.468-8.213 4.362-10.76-2.172.355-6.389 7.721-4.362 10.76" transform="matrix(-1 0 0 1 400.742 271.88)"/>
                <path fill="#44A" d="M203.993 60.081L204.625 52.16 198.124 55.579zM179.44 30.192c.202-.796-.279-1.605-1.076-1.807-.794-.202-1.604.279-1.806 1.074-.204.795.279 1.605 1.074 1.807.796.202 1.606-.279 1.808-1.074M127.582 35.153L124.744 37.788 129.434 46.055 133.542 43.579zM195.446 217.025L192.368 214.673 185.01 220.692 188.145 224.321zM209.441 159.582L206.483 162.081 210.781 170.557 215.002 168.278zM210.953 202.993L213.708 204.36 215.453 202.114 215.262 205.13 219.307 207.137 215.091 207.853 214.887 211.065 213.457 208.13 210.369 208.654 212.424 206.011zM117.925 7.154L114.245 3.919 119.018 4.776 120.974.52 121.994 5.211 128.5 6.163 122.779 8.814 124.11 14.94 120.193 10.01 115.643 12.119zM58.797 142.675L56.546 145.825 62.802 152.982 66.329 149.733zM74.804 65.444L72.553 68.594 78.809 75.751 82.336 72.5zM82.565 104.298L79.899 104.944 78.891 102.339 78.396 105.307 74.482 106.256 77.949 107.988 77.421 111.152 79.292 108.66 81.829 109.929 80.64 106.861z" transform="matrix(-1 0 0 1 400.742 271.88)"/>
            </g>
        </g>
    </g>
</svg>
