<svg xmlns="http://www.w3.org/2000/svg" xmlns:xlink="http://www.w3.org/1999/xlink" width="218" height="146" viewBox="0 0 218 146">
    <defs>
        <path id="a" d="M2.862.563c-.1 0-.183.082-.183.183v1.459c0 .1.082.181.183.181h.184a.182.182 0 0 0 .183-.181V.745a.183.183 0 0 0-.183-.182h-.184zm-.824.365a.182.182 0 0 0-.183.183v1.094c0 .1.082.181.183.181h.184c.1 0 .183-.081.183-.181V1.11a.183.183 0 0 0-.183-.183h-.184zm-.824.365c-.1 0-.183.081-.183.182v.73c0 .1.082.181.183.181h.183c.101 0 .183-.081.183-.181v-.73a.182.182 0 0 0-.183-.182h-.183zm-.824.273a.183.183 0 0 0-.183.183v.456c0 .1.082.181.183.181h.183a.182.182 0 0 0 .183-.181v-.456a.183.183 0 0 0-.183-.183H.39z"/>
        <path id="b" d="M.12 1.08l.258.257c.278-.254.648-.409 1.054-.409.408 0 .777.155 1.055.41l.26-.259A1.921 1.921 0 0 0 1.431.563C.925.563.463.76.12 1.08zm.453.45l.26.259a.917.917 0 0 1 1.2 0l.259-.258a1.282 1.282 0 0 0-1.72 0zm.455.453l.404.403.406-.403a.639.639 0 0 0-.81 0z"/>
        <path id="c" d="M3.528 0C1.58 0 0 1.831 0 4.09c0 2.26 1.58 4.092 3.528 4.092h39.51c1.948 0 3.527-1.832 3.527-4.091 0-2.26-1.58-4.091-3.527-4.091H3.528z"/>
        <path id="d" d="M.396 3.166c-.18.937 1.291 1.06 1.47.131.088-.464.296-.819.586-1.072.002.004-.002.009 0 .017.369 2.041.735 4.078 1.103 6.12l-.583.088c-.941.126-.68 1.576.263 1.453 2.53-.334 6.436-1.412 6.783-4.418.26-2.315-1.719-2.793-3.557-2.55.24-.97-.147-1.92-1.46-2.444A3.363 3.363 0 0 0 3.753.246C2.123.246.718 1.489.396 3.166zm3.505-1.185a.836.836 0 0 0-.074-.22c.073.003.15.005.228.01 1.427.117 1.11 1.098.277 1.823-.046.038-.08.08-.117.124a270.64 270.64 0 0 0-.314-1.737zm1.227 2.84c.748-.352 1.535-.569 2.362-.546 1.246.037 1.3 1.371.593 2.144-.75.817-1.91 1.323-3.086 1.637-.197-1.103-.398-2.204-.594-3.302a.687.687 0 0 0 .411.141c.101 0 .206-.023.314-.074z"/>
    </defs>
    <g fill="none" fill-rule="evenodd">
        <path fill="#ECF0F9" d="M96.605 145.617c37.056 0 67.449-.932 67.838-4.034.389-3.102-29.75-2.163-68.516-2.163-38.766 0-68.52 2.352-68.52 3.983 0 1.63 32.142 2.214 69.198 2.214z"/>
        <path fill="#EDEFF4" d="M200.488 97.363c-.504-7.795-2.858-13.484-2.737-19.465.304-15.086 6.691-16.546 5.17-19.496-1.724-3.346-12.013-2.078-13.686 18.198-.713 8.645-5.627 13.788-6.304 21.087-1.729 18.641 18.773 18.491 17.557-.324"/>
        <path fill="#C8CCDB" fill-rule="nonzero" d="M189.566 111.863c.07.025.202.04.463.07a.402.402 0 0 1-.325.02l-.138-.09zm-.13-.287c-.271-25.002 2.226-40.372 6.582-48.174 1.352-2.423 2.814-3.963 4.31-4.78 1.01-.552 1.891-.706 2.555-.635.053.005.093.012.12.017a.406.406 0 1 1-.163.796.769.769 0 0 0-.044-.006c-.505-.054-1.22.072-2.078.54-1.354.74-2.71 2.168-3.99 4.464-4.267 7.643-6.744 22.862-6.48 47.686.01.03.011.04.017.076.01.055.017.128.024.222.012.168.022.414.031.738.017.606.028 1.486.034 2.617.011 1.986.007 4.703-.01 7.967a2128.904 2128.904 0 0 1-.085 11.083l-.005.45a.406.406 0 0 1-.812-.008l.004-.45a2193.298 2193.298 0 0 0 .049-5.485c.015-1.936.027-3.82.036-5.594.017-3.262.021-5.976.01-7.959-.006-1.125-.017-2-.033-2.599a17.346 17.346 0 0 0-.039-.81.406.406 0 0 1-.032-.156z"/>
        <path fill="#DCDFEA" d="M190.91 106.609c0-7.462-5.507-6.045-6.267-14.156-.433-4.617 1.216-13.787-4.41-18.329-5.627-4.542-6.691-1.136-4.866 1.946 2.107 3.56 4.258 9.895.303 17.033-1.798 3.129-6.99 7.158-4.41 15.57 3.36 10.954 19.65 10.716 19.65-2.064"/>
        <path fill="#C8CCDB" d="M201.643 101.52c-.106 0-.211.005-.319.017-4.95.533-2.535 7.022-3.842 8.88-.667.949-5.51 3.827-4.49 8.74.729 3.514 3.846 5.46 5.92 5.788.33.053.726.088 1.165.088 2.216 0 5.515-.885 6.59-4.911.92-3.45-.96-6.7-.578-9.076.739-4.602-1.351-9.526-4.446-9.526m0 .847c.71 0 1.38.363 1.99 1.079 1.396 1.641 2.064 4.71 1.621 7.465-.186 1.16.075 2.412.352 3.737.355 1.7.723 3.457.243 5.255-.994 3.726-4.043 4.283-5.772 4.283-.36 0-.717-.027-1.032-.076-1.663-.265-4.554-1.889-5.225-5.127-.719-3.46 1.87-5.765 3.416-7.142.435-.388.75-.67.937-.936.592-.84.611-2.087.632-3.529.045-2.94.242-4.742 2.61-4.996.077-.009.153-.013.228-.013"/>
        <path fill="#C8CCDB" fill-rule="nonzero" d="M200.919 104.424a.406.406 0 0 1 .81.05 163.543 163.543 0 0 1-.098 1.39 233.36 233.36 0 0 1-.305 3.662c-.345 3.787-.775 7.574-1.294 11.11-.737 5.017-1.594 9.107-2.582 11.954a.406.406 0 0 1-.768-.267c.968-2.787 1.816-6.834 2.546-11.805.517-3.52.945-7.292 1.289-11.065a232.55 232.55 0 0 0 .402-5.03zM180.812 129.143a.406.406 0 0 1-.81-.062c2.808-36.808 1.265-51.19-3.431-54.797a.406.406 0 1 1 .495-.644c5.02 3.857 6.578 18.379 3.746 55.503z"/>
        <path fill="#DCDFEA" d="M176.376 83.305c.615-.387-1.318-6.302-2.856-5.538-1.535.765 1.918 6.13 2.856 5.538"/>
        <path fill="#EDEFF4" d="M217.235 134.701c2.51-.16-1.769-4.23-5.772-6.503-4.758-2.7-12.363 2.698-17.474 2.253-5.11-.444-17.154-8.233-23.435-6.21-5.275 1.698-5.321 9.226-.202 10.213 6.38 1.23 42.24.545 46.883.247"/>
        <g>
            <path fill="#DCDFEA" d="M17.071 140.527c2.819-1.615 6.888-8.731 5.995-12.243-4.943 0-11.89 5.951-11.89 12.147 0 1.387 3.258 1.609 5.895.096"/>
            <path fill="#EDEFF4" d="M13.35 140.85c3.661-3.9-7.732-12.537-12.457-9.667-1.596 1.587 2.736 1.373 4.169 5.27 1.667 4.535 6.132 6.695 8.288 4.397"/>
            <path fill="#C8CCDB" fill-rule="nonzero" d="M12.39 140.764c-.169-.144-.301-.506-.458-1.253-.032-.152-.207-1.04-.266-1.324a19.59 19.59 0 0 0-.409-1.627 13.574 13.574 0 0 0-1.793-3.802c-1.545-2.271-2.683-4.466-3.123-6.234-.524-2.1-.048-3.411 1.607-3.899 3.606-1.063 6.438 1.882 7.57 7 1.058 4.782.164 9.661-2.158 10.938-.546.3-.822.329-.97.201zm1.308.416c2.674-1.47 3.624-6.655 2.507-11.706-1.209-5.463-4.354-8.733-8.456-7.524-2.076.612-2.695 2.319-2.09 4.744.465 1.866 1.636 4.126 3.224 6.46a12.876 12.876 0 0 1 1.701 3.609c.15.499.273.997.394 1.57.059.276.233 1.164.266 1.323.19.905.356 1.357.688 1.642.426.366.993.307 1.766-.118z"/>
            <path fill="#EDEFF4" d="M2.792 135.781c.37-.484-1.667-2.34-2.594-1.645-.926.696 2.224 2.13 2.594 1.645"/>
        </g>
        <g>
            <path fill="#DCDFEA" d="M127.538 135.222H82.245c-7.047 0-12.76-5.725-12.76-12.787V13.415c0-7.062 5.713-12.787 12.76-12.787h45.293c7.048 0 12.76 5.725 12.76 12.787v109.02c0 7.062-5.712 12.787-12.76 12.787"/>
            <path fill="#F4F4F4" d="M125.02 132.324H84.763c-7.047 0-12.76-4.493-12.76-11.663l.25-106.797c0-7.169 5.463-10.425 12.51-10.425h8.058c0 1.945 1.558 4.042 3.469 4.03h18.251c1.895-.012 3.424-2.102 3.424-4.03h7.053c7.048 0 12.76 3.256 12.76 10.425V120.66c0 7.17-5.712 11.663-12.76 11.663"/>
            <path fill="#FFF" fill-rule="nonzero" d="M127.256 57.505l-1.416 5.483a.475.475 0 0 1-.46.356h-2.017l-5.695 17.604a.473.473 0 0 1-.119.191l-10.768 10.589a.477.477 0 0 1-.54.09L82.117 80.327a.473.473 0 0 1-.224-.632.477.477 0 0 1 .635-.223l8.266 3.938-.127.107a.472.472 0 0 0-.056.668c.17.2.47.224.67.055l.454-.382 14.615 6.962 10.448-10.273 5.534-17.106.748-.101a.474.474 0 0 0-.052-.943h1.982l2.376-9.2-23.245-7.637a.475.475 0 0 1-.257-.202l-.169-.277a93.489 93.489 0 0 1-2.164-3.769c-1.019-1.896-1.603-3.222-1.625-3.842-.295-1.693-.301-3.416-.074-5.134L88.534 30.05l-7.826 6.944 1.964 10.587a.472.472 0 0 1-.003.187l-1.718 7.834 3.106 2.227a.472.472 0 0 1 .163.56l-2.228 5.567a.476.476 0 0 1-.884-.35L83.2 58.38l-3.058-2.192a.473.473 0 0 1-.187-.486l1.765-8.043-1.995-10.756a.472.472 0 0 1 .151-.44l8.203-7.28c.112-.099.265-.14.411-.11L100 31.4a23.03 23.03 0 0 1 1.057-3.83 23.166 23.166 0 0 1 1.165-2.651l-7.857-6.071a.473.473 0 0 1-.184-.374v-5.709a.475.475 0 0 1 .952 0v5.477l7.992 6.176c.189.145.24.408.12.613a15.844 15.844 0 0 0-.399.76c-.305.622-.61 1.329-.896 2.105a21.695 21.695 0 0 0-1.078 4.062.473.473 0 0 1-.024.153c-.264 1.754-.278 3.519.024 5.26.019.472.587 1.76 1.52 3.495.117.22.24.446.368.676a89.088 89.088 0 0 0 1.846 3.174l23.502 7.72a.473.473 0 0 1 .312.568l-.926 3.584 6.538 1.833c.252.07.4.332.33.583l-2.35 8.381 3.183 2.424a.473.473 0 0 1 .187.368l.24 13.983-.134 4.967a.475.475 0 0 1-.95-.025l.132-4.947-.236-13.733-3.255-2.48a.472.472 0 0 1-.17-.503l2.308-8.234-6.06-1.699zm-4.288 4.894a.487.487 0 0 0-.016.002l-15.684 2.118a.476.476 0 0 0-.338.217l-6.898 10.882-9.238 7.792z" opacity=".5"/>
            <g fill="#030303">
                <path d="M80.493 10.988a.682.682 0 0 0 .343.096c.195 0 .31-.103.31-.252 0-.137-.08-.216-.28-.293-.241-.085-.391-.21-.391-.418 0-.229.19-.4.48-.4.15 0 .26.035.327.073l-.053.155a.588.588 0 0 0-.281-.07c-.203 0-.28.12-.28.22 0 .139.09.206.295.285.25.096.378.217.378.433 0 .228-.17.425-.518.425a.767.767 0 0 1-.378-.094l.048-.16zM81.791 10.646h.005c.026-.037.063-.082.094-.12l.313-.365h.232l-.41.435.467.624h-.235l-.367-.508-.099.11v.398h-.19V9.666h.19v.98zM83.31 10.588c.002-.123-.05-.314-.268-.314-.196 0-.281.18-.296.314h.564zm-.567.137c.005.26.171.368.365.368a.701.701 0 0 0 .295-.055l.032.138a.868.868 0 0 1-.353.066c-.328 0-.524-.215-.524-.535 0-.318.19-.57.5-.57.347 0 .439.304.439.498 0 .04-.005.07-.007.09h-.747zM83.974 9.857v.304h.277v.146h-.277v.571c0 .132.037.206.145.206.05 0 .088-.006.112-.013l.009.144a.48.48 0 0 1-.172.026c-.09 0-.162-.028-.208-.08-.055-.057-.075-.151-.075-.276v-.578h-.165v-.146h.165v-.253l.189-.05zM85.23 11.18a.71.71 0 0 1-.304.061c-.321 0-.53-.216-.53-.54 0-.325.224-.562.571-.562.115 0 .216.028.268.055l-.043.148a.458.458 0 0 0-.225-.05c-.244 0-.376.18-.376.4 0 .246.159.396.37.396.11 0 .182-.028.237-.052l.033.144zM85.462 9.666h.193v.661h.005a.4.4 0 0 1 .336-.19c.143 0 .371.087.371.453v.63h-.193v-.608c0-.17-.064-.315-.246-.315a.277.277 0 0 0-.273.284v.638h-.193V9.666z"/>
            </g>
            <use fill="#000" transform="translate(76.483 8.84)" xlink:href="#a"/>
            <path fill="#FFF" d="M75.918 127.039h59.094V89.113H75.918z"/>
            <use fill="#FFF" transform="translate(84.095 15.787)" xlink:href="#c"/>
            <path fill="#030303" d="M123.107 11.141V9.629l-.367.138v-.191l.367-.161h.218v1.726zM124.772 11.02c.153 0 .264-.076.333-.226a1.25 1.25 0 0 0 .101-.517c0-.193-.034-.365-.101-.516-.069-.15-.18-.226-.333-.226-.152 0-.262.075-.33.226-.069.15-.102.323-.102.516 0 .194.033.366.102.517.068.15.178.225.33.225m0 .174a.568.568 0 0 1-.477-.246c-.121-.164-.182-.388-.182-.67 0-.281.06-.504.182-.668a.567.567 0 0 1 .477-.246c.197 0 .357.082.479.246.121.164.182.387.182.668 0 .282-.06.506-.182.67a.57.57 0 0 1-.479.246M126.362 11.02c.153 0 .264-.076.332-.226a1.25 1.25 0 0 0 .102-.517c0-.193-.034-.365-.102-.516-.068-.15-.179-.226-.332-.226-.152 0-.263.075-.33.226-.069.15-.103.323-.103.516 0 .194.034.366.102.517.068.15.179.225.33.225m0 .174a.568.568 0 0 1-.476-.246c-.121-.164-.182-.388-.182-.67 0-.281.06-.504.182-.668a.567.567 0 0 1 .477-.246c.197 0 .357.082.478.246.122.164.183.387.183.668 0 .282-.061.506-.183.67a.57.57 0 0 1-.478.246M128.63 10.624c0 .105.019.191.058.26.038.068.089.101.15.101.062 0 .112-.033.15-.102a.523.523 0 0 0 .057-.26.53.53 0 0 0-.057-.26c-.038-.068-.088-.102-.15-.102-.061 0-.112.034-.15.103a.522.522 0 0 0-.059.26zm-.197 0c0-.159.039-.285.117-.378a.362.362 0 0 1 .289-.14c.115 0 .211.046.29.138.077.094.116.22.116.38a.57.57 0 0 1-.117.378.364.364 0 0 1-.29.14.364.364 0 0 1-.288-.14.57.57 0 0 1-.117-.378zm-.955.517l1.284-1.726h.206l-1.263 1.726h-.227zm-.05-1.21c0 .106.02.193.057.261.038.069.088.103.152.103.06 0 .111-.034.15-.103a.52.52 0 0 0 .058-.26c0-.104-.02-.19-.059-.258-.038-.07-.089-.103-.15-.103-.064 0-.113.034-.151.103a.53.53 0 0 0-.056.258zm-.197 0a.57.57 0 0 1 .117-.377.364.364 0 0 1 .29-.14c.113 0 .21.047.289.14.077.094.116.22.116.378 0 .16-.039.286-.116.379a.365.365 0 0 1-.29.14.363.363 0 0 1-.29-.14.57.57 0 0 1-.116-.38z"/>
            <path fill="#000" d="M121.116 9.572v.61l.364-.32-.364-.29zm0 .878v.609l.364-.29-.364-.32zm-.165.946v-.855l-.434.38-.112-.117.546-.478v-.021l-.546-.478.112-.116.434.38v-.855l.78.621-.523.459.524.458-.781.622z"/>
            <path fill="#030303" d="M102.73 9.387a.296.296 0 0 0-.236.114.424.424 0 0 0-.095.282c0 .113.033.203.1.268.068.064.15.097.246.097a.33.33 0 0 0 .257-.112.412.412 0 0 0 .052-.462.332.332 0 0 0-.135-.14.386.386 0 0 0-.189-.047zm.432.688a.658.658 0 0 1-.156.147.69.69 0 0 1-.154.074.52.52 0 0 1-.165.025.476.476 0 0 1-.375-.159.564.564 0 0 1-.14-.384.57.57 0 0 1 .073-.288.513.513 0 0 1 .203-.202.576.576 0 0 1 .284-.072c.118 0 .23.034.335.1a.615.615 0 0 1 .237.303c.053.135.08.3.08.5 0 .283-.06.508-.182.675a.603.603 0 0 1-.52.252c-.154 0-.27-.032-.347-.097-.078-.064-.116-.138-.116-.22v-.01h.215v.01c0 .035.02.067.061.098.04.032.102.047.182.047a.407.407 0 0 0 .255-.082.55.55 0 0 0 .17-.27c.041-.125.062-.254.062-.387l-.002-.06zM103.8 10.994h.34v-.293h-.34v.293zm0-.95h.34V9.75h-.34v.293zM105.309 10.295V9.54l-.63.754h.63zm.217.699h-.217v-.526h-.868v-.173l.868-1.027h.217v1.027h.253v.173h-.253v.526zM106.623 10.994V9.482l-.367.138v-.192l.367-.16h.218v1.726zM108.483 10.346h.657l-.316-.803-.341.803zm-.276.648h-.219l.742-1.726h.237l.684 1.726h-.255l-.187-.476h-.798l-.204.476zM110.058 10.994h-.2V9.267h.231l.56 1.233.517-1.233h.228v1.727h-.207V9.965l.006-.31h-.006l-.118.31-.32.77h-.237l-.348-.774-.106-.279h-.006l.006.28z"/>
        </g>
        <g>
            <path fill="#667A9E" d="M145.363 83.506c-.603-1.087-18.677 5.337-18.677 5.337s-8.524 1.566-15.21-1.39c-4.612-1.414-3.382 3.867-3.382 3.867l11.99 1.983s27.86-8.106 25.279-9.797"/>
            <path fill="#EDA420" d="M152.663 78.35c-.092.31-.3.562-.46.83-.15.26-.31.51-.476.763-.075.126-.16.243-.251.36-.117.176-.242.352-.368.52l-.016.017c-.126.176-.26.343-.394.51-.074.101-.158.194-.233.285a5.032 5.032 0 0 1-.343.402c-.46.52-.945 1.023-1.463 1.484-.126.117-.251.234-.385.343-.259.226-.526.444-.794.654a17.471 17.471 0 0 1-1.789 1.248c-.284-.553-.568-1.114-.844-1.667.041.025.1 0 .142-.025a.563.563 0 0 0 .117-.067c.15-.084.292-.168.426-.268.059-.043.117-.084.176-.134.034-.034.075-.059.109-.093.309-.234.601-.511.885-.796.017-.008.026-.024.034-.024.225-.227.451-.445.669-.67.476-.478.936-.973 1.404-1.45.135-.143.268-.277.402-.41.81-.822 1.605-1.862 2.75-2.214.033-.009.067-.016.092-.025.05-.016.117-.033.175-.042.05-.008.092-.016.143-.016.042 0 .091.008.133.025a.27.27 0 0 1 .1.042c.092.067.126.192.059.419"/>
            <path fill="#EDA420" d="M153.223 77.756c-.293.737-.777 1.4-1.237 2.044a6.67 6.67 0 0 1-.878 1.023c.125-.168.251-.344.368-.52.092-.117.176-.235.25-.36.168-.252.327-.503.477-.763.159-.268.368-.52.46-.829.067-.226.033-.353-.058-.42a.27.27 0 0 0-.1-.041.38.38 0 0 0-.134-.026c-.05 0-.093.01-.142.017a1.1 1.1 0 0 0-.176.043l-.092.025c-1.145.35-1.94 1.39-2.75 2.212-.135.134-.268.268-.402.41-.468.478-.927.972-1.404 1.45-.218.226-.443.444-.669.67-.008 0-.016.017-.033.026-.284.276-.577.544-.886.796-.033.033-.076.058-.11.092-.058.05-.116.092-.174.134-.134.1-.277.184-.427.267a.985.985 0 0 1-.267.085l-.293-.051s1.898-1.29 3.804-3.385l.25-.252 2.115-2.103s.451-.385.978-.687c.126-.075.26-.143.402-.201l.175-.075a1.45 1.45 0 0 1 .176-.059c.008-.009.008-.009.016-.009.026-.008.042-.016.067-.016a.848.848 0 0 1 .2-.025s.051-.008.152-.034c.016 0 .041 0 .066.009.142.008.26.075.31.226a.492.492 0 0 1-.034.327"/>
            <path fill="#FFD464" d="M99.018 122.613s-.405-4.22 2.767-7.363l.727-3.888c-.011.057-.551.195-.609.216-.35.125-.702.247-1.054.368-.072.025-.244.291-.293.39-.798 1.606-1.758 3.139-2.35 4.835-.575 1.648-.94 3.381-1.176 5.112-.066.49-.12.981-.16 1.474-.076.91.602.499 1.015.12.416-.383.787-.82 1.133-1.264"/>
            <path fill="#9399A7" d="M70.437 120.571c-2.534-.694-4.19-3.234-5.35-5.648-.937-1.953-1.742-3.966-2.545-5.977-1.495-3.742-3.007-7.548-3.378-11.562-.154-1.667-.11-3.347-.26-5.015-.11-1.19-.318-2.383-.193-3.57.189-1.783 1.108-3.396 2.057-4.914 2.277-3.64 4.846-7.085 7.434-10.508.31-.412.655-.847 1.149-.996.815-.246 1.609.377 2.28.904.198.155 8.74-14.258 9.874-13.232.706.636 1.44 1.244 2.197 1.818.257.194.52.39.705.651.408.579.355 1.364.177 2.049-.295 1.141-.88 2.18-1.46 3.205l-.995 1.754c-1.333 2.35-10.945 20.81-11.854 23.751-1.57 5.083 2.234 13.097 5.016 18.868.078.162.151.326.22.491.646 1.333 2.696 4.904 6.079 4.722 6.428-.345 8.746-.865 15.146-1.556 3.674-.397 7.346-.81 11.016-1.238 5.387-.627 10.882-1.283 16.195-.198 1.147.235 2.45.706 2.8 1.826.32 1.019-.321 2.085-1.05 2.866-2.502 2.682-6.24 3.897-9.893 4.2-3.653.3-7.316-.206-10.974-.428-11.204-.684-22.505 1.285-33.641-.124-.955-.12-1.077-.97-.752-2.139zM46.698 120.164a6.285 6.285 0 0 1 4.678 1.419c2.172.504 4.269.919 4.269.919s.332-.178.739-.378c-1.612-3.374-5.05-5.705-9.03-5.705-.219 0-.436.007-.65.02.046 1.622.083 3.604-.006 3.725zm6.17 9.356c-.279.502-.63.974-1.056 1.4a6.273 6.273 0 0 1-3.839 1.82c-1.601 1.297-2.952 2.574-3.72 3.25.976.32 2.018.492 3.1.492 4.685 0 8.619-3.228 9.708-7.586-1.224-.397-2.688-.073-4.193.624zm-11.421-.852a6.36 6.36 0 0 1-.331-3.147c-.653-1.434-1.924-1.215-1.924-1.215l2.029-5.783a10.024 10.024 0 0 0-3.875 7.927c0 1.857.504 3.597 1.381 5.088 1.9-.38 2.506-1.24 2.702-2.687l.018-.183zm5.906-18.909c9.196 0 16.652 7.473 16.652 16.691 0 9.22-7.456 16.692-16.652 16.692-9.196 0-16.651-7.473-16.651-16.692 0-9.218 7.455-16.691 16.651-16.691zM138.172 117.4c.641 1.563 1.678 4.137 1.612 4.272 1.077.384 9.197-.954 9.197-.954s.476-.54.933-.999a9.972 9.972 0 0 0-7.42-3.3 9.946 9.946 0 0 0-4.322.981zm14.327 8.812c-3.794.222-7.344 7.029-8.995 10.22 5.053-.508 8.998-4.783 8.998-9.982 0-.08 0-.159-.003-.238zm-15.649 8.523c1.147-.899 1.316-1.834 1.035-3.08-1.271-4.883-3.683-3.472-3.683-3.472l-.14-7.135a10.002 10.002 0 0 0-1.574 5.402c0 3.442 1.728 6.478 4.362 8.285zm5.645-24.976c9.196 0 16.651 7.473 16.651 16.691 0 9.22-7.455 16.692-16.651 16.692-9.197 0-16.652-7.473-16.652-16.692 0-9.218 7.455-16.691 16.652-16.691z"/>
            <path fill="#B4BAC8" d="M50.516 122.634c-1.052 3.051-1.817 5.223-1.887 5.285-.898 2.048-3.719 1.05-2.621-1.646.159-.459.813-2.285 1.7-4.757-.836-.639-1.32-1.489-.946-2.41.628-1.809 8.3-24.245 8.3-24.245l6.74 1.925s-8.73 24.848-8.968 25.06c-.31.706-1.255.92-2.318.788z"/>
            <path fill="#F9F8E5" d="M62.913 61.375c-1.123 2.111-1.081 4.418-.415 5.352 1.011 1.417 3.137 1.447 4.698 1.492.578.016 1.157.006 1.735-.01a25.14 25.14 0 0 0 1.714-.107c.072-.009.832-.125.835-.115-.186-.609-.476-.458.128-.654 4.466-1.45 8.711-5.997 8.657-6.371-.061-.42-7.921-4.262-8.543-4.77-.36-.296-.814-.458-1.273-.535-.658-.11-1.35-.047-1.959.225-.668.298-1.457.575-2.004 1.063-1.395 1.246-2.674 2.743-3.573 4.43"/>
            <path fill="#B4BAC8" d="M124.515 117.423c-.224-.493-.388-.968-.441-1.22-.086-.403.11-.806.301-1.19.307-.607.638-1.243 1.292-1.664.469-.302 1.063-.466 1.643-.624l4.04-1.095c3.754-1.02 7.607-2.05 11.591-2.004.522.007 1.059.034 1.53.207.366.133.687.327.969.548 2.674 2.104 3.683 7.613-1.191 8.466-2.653.465-5.425-.107-8.036-.48-1.692-.244-4.422.136-6.87.423.365.093.731.178 1.1.254 2.345.484 4.74.752 7.136.743 3.388-.011 7.023-.715 9.562 2.112 2.108 2.346 2.561 5.854 1.169 8.675-1.5 3.04-4.908 4.08-8.034 3.138-1.859-.561-3.548-1.702-5.41-2.329-1.915-.644-19.805-5.823-19.183-8.12.655-2.425 2.583-5.625 5.177-6.596.85-.317 2.967.588 3.049.608.202.047.404.097.606.148zm.08.02l.279.074a.848.848 0 0 0-.41-.266l.131.193z"/>
            <path fill="#19363A" d="M62.632 80.95l-9.82 9.707c.268-.3.541-.58.807-.844 2.98-2.972 5.98-5.922 8.984-8.872l.03.009"/>
            <path fill="#FFF" d="M62.632 80.95l-9.82 9.707-1.312 1.297c-.147-.343-.05-.938-.017-1.292.336-3.622 3.544-5.853 6.268-7.76.75-.527 1.491-1.069 2.31-1.482.497-.25 1.025-.455 1.58-.523.267-.034.54-.036.807.003.021.004.079.019.155.04l.03.01"/>
            <path fill="#FFC300" d="M76.533 71.391c-1.308 1.864-2.978 2.54-4.285 4.404-.777-.716.403-.996-.26-1.82-.155-.194-.378-.323-.593-.448-1.353-.781-4.686-1.182-6.04-1.963-.012-.005 1.498-1.517 5.532-.565l-.006-1.261c0-.121-.004-.25-.077-.349-.09-.12-.255-.146-.403-.165-1.225-.156-4.204-.45-6.688-1.536 5.111.14 12.302-2.581 12.47-7.467.066-1.893-10.02-2.033-10.699-2.197-.002-.005-.002-.01-.003-.016-.046-.335 1.046-1.115 1.282-1.332.491-.449.986-.89 1.507-1.3 9.737-7.688 18.281 5.876 18.491 6.172.46.655.401 1.542.2 2.315-.335 1.29-.995 2.463-1.65 3.622-.374.66-.749 1.322-1.125 1.981-1.142.376-2.346.578-3.537.655a17.723 17.723 0 0 1-3.218-.092l-.898 1.362z"/>
            <path fill="#FFC300" d="M126.707 112.958c-8.591 5.347-28.106 8.007-33.69 8.595-3.404.358-6.82.569-10.238.748-9.292-.013-11.011-3.757-11.827-5.2-.11-.192-.489-.806-.57-.926-.006-.005-.009-.012-.012-.017-.19-.31-.385-.617-.576-.92a65.273 65.273 0 0 1-3.687-6.684c0-.352-.463-.985-.61-1.313a70.492 70.492 0 0 1-.62-1.41c-.843-1.97-1.803-3.984-2.437-6.067a17.086 17.086 0 0 1-.539-2.297 8.885 8.885 0 0 1-.098-1.952c.05-.824.218-1.627.493-2.43.081-.241.173-.483.275-.725.7-1.668 1.798-3.145 2.704-4.705 1.319-2.27 2.637-4.54 3.958-6.808l.833-1.434c.195-.267.38-.539.578-.802 2.618-3.482 5.737-6.812 9.797-8.376.65-.25 1.66-.368 1.902-1.023.13-.352-.185-.908-.311-1.26-.528-1.47-2.206-2.23-3.762-2.287-1.944-.072-3.872.714-5.338 1.995-1.398 1.222-2.387 2.869-2.979 4.634-.646-.36-1.211-.773-2.007-1.035-.503-.165-.666-.239-1.196-.237l-1.288.364c-2.775 2.521-29.79 31.395-31.358 33.752-.003.006-.006.009-.01.014a2.75 2.75 0 0 0-.082.122l-.001.003c-.16.264-.252.572-.252.902 0 .96.937 1.855 10.048-1.279 12.729-4.378 22.53 20.27 26.468 22.541 4.674 2.896 44.88-1.582 45.882-2.002 1.681-.705 11.116-9.041 12.593-10.112-2.125.452-1.641-.966-2.043-2.369"/>
            <path fill="#9399A7" d="M145.92 123.444a5.15 5.15 0 0 1 0 7.27 5.12 5.12 0 0 1-7.254 0 5.15 5.15 0 0 1 0-7.27 5.12 5.12 0 0 1 7.253 0"/>
            <path fill="#4C6971" d="M127.23 95.294c.003.465.001.954.325 1.356.438.545 1.388.795 2.267.772.88-.023 1.715-.27 2.526-.513 1.883-.565 3.851-1.175 5.104-2.325.77-.706 1.206-1.563 1.61-2.41.33-.685.648-1.394.6-2.12-.03-.43-.206-.876-.636-1.179-.485-.341-1.207-.447-1.887-.452-1.905-.014-3.68.63-5.403 1.206-.97.325-1.968.634-3.017.8-.721.115-1.554.011-1.808.597-.237.546.13 1.373.19 1.93.081.779.124 1.559.13 2.338"/>
            <path fill="#4C6971" d="M164.571 101.75c-.503.49-1.174.785-1.667 1.287-.559.567-.802 1.385-1.332 1.981-1.522 1.711-3.243 1.933-4.936 2.188-1.026.155-2.05.328-3.068.519-8.965 1.66-17.68 4.621-26.107 8.129-.565.234-1.158.478-1.77.424-.525-.049-1.002-.314-1.48-.542-2.358-1.128-4.987-1.406-7.569-1.296-2.712.114-5.38.75-8.011 1.373-1.247.292-2.494.59-3.75.837-.003 0-.006 0-.007.002-1.757.346-3.525.623-5.287.937-.335.06-.682.103-1.023.071l-.05-.006c-.27-.033-.531-.123-.732-.312a.86.86 0 0 1-.195-.244.297.297 0 0 1-.022-.174c.012-.074.046-.146.075-.217.061-.147.122-.294.185-.438a29.888 29.888 0 0 1 1.12-2.306c.202-.376.412-.748.628-1.116.22-.37.443-.732.674-1.091.234-.36.473-.716.717-1.067a35.466 35.466 0 0 1 3.26-3.985 37.058 37.058 0 0 1 1.838-1.816 39.51 39.51 0 0 1 5.085-3.979c.359-.236.72-.467 1.087-.692l.027-.017c3.287-2.02 6.82-3.597 10.345-5.166 4.87-2.17 9.753-4.345 14.82-6.009a99.164 99.164 0 0 1 4.517-1.35c2.557-.701 5.138-1.323 7.717-1.945.807-.192 1.64-.388 2.457-.25.882.149 1.651.666 2.378 1.187a64.825 64.825 0 0 1 10.102 8.97c.35.385.717.821.734 1.343.016.523-.311.955-.656 1.384-.391.484-.804.96-.763 1.552.336-.017 1.162 1.342.66 1.834"/>
            <path fill="#FFC300" d="M165.33 96.98c.017.523-.31.955-.655 1.384-10.759.275-21.499 1.361-31.95 3.882-10.052 2.422-19.84 6.197-28.658 11.644-2.047 1.263-4.322 2.415-5.554 3.764-.269-.033-.53-.123-.73-.312a.85.85 0 0 1-.196-.244.297.297 0 0 1-.022-.173c.012-.075.046-.147.074-.218.062-.147.123-.294.186-.438a30.989 30.989 0 0 1 1.748-3.422 35.195 35.195 0 0 1 1.392-2.158 35.444 35.444 0 0 1 4.163-4.908 38.222 38.222 0 0 1 2.892-2.583 40.972 40.972 0 0 1 2.062-1.56 42.022 42.022 0 0 1 2.18-1.438c3.286-2.02 6.82-3.597 10.343-5.165 4.872-2.172 9.753-4.345 14.82-6.01 1.495-.488 3.002-.933 4.518-1.35 2.557-.702 5.138-1.323 7.717-1.945.807-.192 1.64-.388 2.457-.25.882.148 1.651.666 2.379 1.186a64.862 64.862 0 0 1 10.1 8.971c.35.385.717.821.735 1.343"/>
            <path fill="#FFC300" d="M165.351 97c.017.523-.311.955-.656 1.384h-.007a192.405 192.405 0 0 0-6.468.27.546.546 0 0 0-.08-.276 14.705 14.705 0 0 0-.462-.709c-2.066-2.969-5.031-5.04-8.253-6.7-2.433-1.257-5.014-2.279-7.462-3.274 2.558-.701 5.138-1.322 7.717-1.944.808-.193 1.64-.388 2.457-.251.882.148 1.651.666 2.379 1.187a64.844 64.844 0 0 1 10.101 8.97c.35.386.717.822.734 1.343M97.005 102.562c.651 1.889 1.323 3.86 1.065 5.842-.293 2.264-1.091 2.793-1.838 4.95-.31.897-.519 1.9-.186 2.787.23.617 1.713 1.368 2.14 1.445 1.676-5.161 3.862-8.631 7.858-12.292 3.591-3.292 7.999-5.526 12.345-7.72 1.8-.907 3.601-1.815 5.433-2.656 1.118-.512 2.26-1.005 3.247-1.737.988-.734 1.827-1.745 2.093-2.949-1.511.67-3.1.862-4.48 1.386-.928.352-1.997.071-2.977.064-5.754-.042-13.896-2.984-19.484-1.608-2.566.631-5.278 1.547-7.335 3.274-1.847 1.55 1.443 7.254 2.119 9.214"/>
            <path fill="#B4BAC8" d="M150.296 107.946c-.023.131.61.6.705.692a144.492 144.492 0 0 1 10.63 11.378c.314.374.634.757 1.052 1.01.448.27.974.37 1.488.465l1.807.335c-1.567-3.062-6.55-14.489-7.841-16.651-.17-.284-.776-.319-1.076-.457-.227-.106-.487-.102-.738-.097-2.015.043-6.004 3.193-6.027 3.325"/>
            <path fill="#FFC300" d="M164.571 101.75c-.503.49-1.174.785-1.667 1.287-.559.567-.802 1.385-1.332 1.981-1.522 1.711-3.243 1.933-4.936 2.188a123 123 0 0 0-1.64.263 32.83 32.83 0 0 0-.587.102l-.151.028c-.23.038-.46.081-.69.124v.002c-8.965 1.66-17.68 4.621-26.107 8.129-.565.234-1.317.89-1.928.837-.525-.048-1.003-.314-1.48-.542-2.358-1.128-4.829-1.819-7.41-1.71-2.713.115-5.38.752-8.012 1.374-1.247.292-2.494.59-3.75.837-.003 0-.006 0-.007.002-1.757.346-3.525.623-5.287.937-.335.06-.682.103-1.023.071l-.05-.006c1.23-1.35 3.506-2.5 5.553-3.765 8.819-5.446 18.607-9.22 28.658-11.643 8.353-2.015 16.891-3.114 25.474-3.613 2.157-.126 4.316-.213 6.476-.269-.391.484-.804.96-.763 1.552.336-.017 1.162 1.342.66 1.834"/>
            <path fill="#E2E2E1" d="M154.258 107.598l-.69.126v-.002c.23-.042.46-.084.69-.124"/>
            <path fill="#FFC300" d="M164.585 101.77c-.503.49-1.174.785-1.667 1.288-.56.567-.802 1.385-1.333 1.98-1.522 1.712-3.243 1.934-4.935 2.189-.547.084-1.094.17-1.64.263l-.587.101c-.05.009-.1.02-.152.028-.229.04-.46.083-.69.126v-.002c1.226-2.584 2.893-5.753 3.9-7.614.278-.516.508-.93.662-1.206a.539.539 0 0 0 .07-.27h.007a167.802 167.802 0 0 1 4.039-.192c.81-.031 1.619-.056 2.43-.077-.388.479-.796.952-.764 1.535v.017c.337-.017 1.162 1.342.66 1.834"/>
            <path fill="#F9F8E5" d="M165.351 97c.017.523-.311.955-.656 1.384h-.007c-.387.479-.795.952-.762 1.535-1.905 1.07-4.208 1.303-6.377.238a.504.504 0 0 0-.068-.028c.278-.516.507-.93.663-1.206a.539.539 0 0 0 .07-.27h.006a.546.546 0 0 0-.08-.275 14.705 14.705 0 0 0-.462-.709c-2.066-2.969-5.031-5.04-8.253-6.7a24.047 24.047 0 0 1 4.85.44c1.743.342 3.508 1.095 5.31.735a3.76 3.76 0 0 0 1.119-.416 64.256 64.256 0 0 1 3.893 3.91c.35.384.737.84.754 1.362"/>
            <path fill="#B4BAC8" d="M85.595 65.12c-.403 1.662-1.915 2.723-3.376 2.371-1.46-.351-2.318-1.983-1.914-3.643.404-1.661 1.916-2.722 3.376-2.371 1.46.352 2.318 1.983 1.914 3.644"/>
            <path fill="#9399A7" d="M90.774 65.414s-4.339-1.677-6.385-2.636c-2.149-1.006-4.187 2.321-1.765 3.712 1.454.787 5.763 2.747 5.763 2.747l2.387-3.823z"/>
            <path fill="#B4BAC8" d="M91.472 68.397c-.613 1.094-1.868 1.556-2.803 1.035-.934-.522-1.194-1.832-.58-2.924.613-1.093 1.868-1.557 2.802-1.035.935.522 1.195 1.831.58 2.924"/>
            <path fill="#566782" d="M131.741 88.77c4.582-1.645 9.06-3.563 13.622-5.264.408-.153.816-.311 1.23-.452.485-.167.933.397 1.157.77.212.353.289.845-.002 1.179a1.513 1.513 0 0 1-.413.311c-.825.464-1.776.691-2.646 1.057-.943.399-2.057 1.009-3.002 1.406-2.582 1.086-4.989 1.984-7.6 2.996a67.235 67.235 0 0 1-4.144 1.435c-.583.178-1.17.357-1.759.513-1.821.51-3.666 1.05-5.513 1.451-5.321 1.156-10.716.074-15.906-1.204a112.641 112.641 0 0 1-7.58-2.153c-.838-.276-1.799-.51-2.576-.932.242.131 1.799-.309 2.152-.457a35.2 35.2 0 0 1 3.144-1.143c1.745-.54 3.204-1.025 4.887-.167 3.712 1.891 9.039 3.25 13.203 3.32 2.412.04 9.857-1.989 11.746-2.666"/>
            <path fill="#4C6971" d="M152.446 76.64a1.365 1.365 0 0 0-.176.058l.034-.016c.05-.017.1-.033.142-.042"/>
            <path fill="#FFC300" d="M155.84 78.1s-.326 1.457-2.91 6.292c0 0-.108.897-1.345 1.642l-14.638 4.198c.008-.016.025-.033.034-.05.083-.118.175-.217.284-.31.351-.327.769-.553 1.203-.746.201-.092.402-.176.603-.26.083-.032.175-.075.267-.109.786-.326 1.572-.644 2.35-.98.667-.293 1.336-.585 1.988-.913a23.502 23.502 0 0 0 2.015-1.098c.167-.1.335-.2.493-.31.444-.293.878-.603 1.296-.938.267-.21.535-.428.794-.654.134-.109.26-.226.385-.343a17.584 17.584 0 0 0 1.463-1.484c.125-.133.234-.26.342-.402.076-.092.16-.184.234-.284.134-.168.268-.335.393-.512l.017-.016c.335-.31.627-.67.877-1.023.46-.645.945-1.307 1.238-2.044a.487.487 0 0 0 .033-.327c-.05-.15-.166-.218-.309-.226-.025-.009-.05-.009-.067-.009.017 0 .033-.008.059-.008h.008c.435-.092 1.447-.268 2.283-.251 0 0 1.011.125.61 1.165"/>
            <path fill="#4C6971" d="M152.88 76.557c-.1.025-.15.033-.15.033a.853.853 0 0 0-.2.025c.108-.033.225-.058.35-.058"/>
            <path fill="#B4BAC8" d="M149.371 83.176h.004c.003.11.004.22 0 .329-.005.704-.036 1.43-.326 2.073-.665 1.48-2.615 2.06-4.198 2.392-1.763.37-3.545.649-5.3 1.06-1.865.436-3.677 1.055-5.468 1.744-.604.234-1.207.475-1.81.72l-.858.35c-3.26 1.34-6.506 2.727-9.939 3.464a85.691 85.691 0 0 1-.54.116c-4.084.9-8.243 1.426-12.347 2.221l-.595.116c-2.335.476-4.638 1.042-6.896 1.806-.713.257-1.424.52-2.15.755-1.755.569-3.504.523-5.03-.587l-.078-.057a8.909 8.909 0 0 0-.43-.359l-.011-.008a5.535 5.535 0 0 1-1.365-1.94l-.007-.021c-.642-1.904.283-3.698.283-3.698s2.565-6.316 4.776-7.237c.02-.01.036-.022.054-.033l.04-.022c1.771-.964 3.816-.95 5.775-1.015 3.678-.125 7.373-.163 11.04-.459a36.29 36.29 0 0 0 6.5-1.123c1.564-.42 3.084-.99 4.636-1.453 1.578-.472 3.207-.706 4.832-.97 2.943-.473 5.895-.888 8.84-1.336 1.627-.249 3.23-.662 4.856-.918.965-.153 1.959-.317 2.94-.306 1.112.013 1.834.843 2.261 1.857.071.165.133.333.187.505a7.38 7.38 0 0 1 .331 2.027 9.402 9.402 0 0 1-.007.007z"/>
            <path fill="#9399A7" d="M149.046 81.142c-2.756 1.928-7.125 1.598-10.31 2.083-3.86.587-7.768 1.403-11.515 2.302-3.84.92-7.722 1.735-11.664 2.04-1.39.104-2.78.123-4.17.098-2.566-.05-5.133-.253-7.7-.338a24.708 24.708 0 0 0-3.715.15c-.782.087-2.206.332-2.714-.485a1.02 1.02 0 0 1-.173-.578c.032-.02.07-.028.094-.054 2.477-2.63 45.654-8.023 49.42-7.58 1.284.15 2.057 1.132 2.447 2.362"/>
            <path fill="#15D48F" d="M141.889 91.196a1.176 1.176 0 1 1 2.325-.36 1.177 1.177 0 0 1-2.325.36"/>
            <path fill="#FF4C5A" d="M135.613 107.08c4.178-1.223 3.48-6.508.95-9.068-2.428-2.456-6.233-3.82-9.365-1.688-3.27 1.95-4.355 7.054-2.632 10.29 2.19 4.12 7.703 1.444 11.047.466"/>
        </g>
        <g transform="translate(125.795 97.078)">
            <mask id="e" fill="#fff">
                <use xlink:href="#d"/>
            </mask>
            <path fill="#FFF" d="M1.998 10.604l9.192-2.387-2.49-9.61L-.49.994z" mask="url(#e)"/>
        </g>
        <g fill="#FF4C5A">
            <path d="M158.493 98.71s-11.454.636-18.175 2.05c-.429-2.027-1.484-2.905-1.484-2.905s8.224-1.883 17.692-1.883c1.45 1.26 1.967 2.739 1.967 2.739M103.795 116.89s7.582-7.708 18.095-11.312c-.462-1.967 0-3.542 0-3.542s-14.596 5.084-23.235 15.621c.456.18 5.14-.767 5.14-.767M41.033 97.375S61.327 86.66 64.42 89.343c0 0 2.006-3.454 2.585-4.474-7.465-1.194-18.124 4.056-21.02 7.158a8168.96 8168.96 0 0 0-4.95 5.348"/>
        </g>
    </g>
</svg>
