<svg xmlns="http://www.w3.org/2000/svg" width="40" height="40" viewBox="0 0 40 40">
    <g fill="none" fill-rule="evenodd">
        <path fill="#141414" d="M39.333 20.01c0 10.677-8.656 19.333-19.333 19.333C9.323 39.343.667 30.687.667 20.009.667 9.332 9.323.676 20 .676c10.677 0 19.333 8.656 19.333 19.333"/>
        <path fill="#FFC300" d="M32.829 12.918c-.282-.193-.675-.108-.877.189l-2.056 3.018a17.683 17.683 0 0 0-16.366-2.219c-1.418.518-2.627 1.124-3.754 1.891L7.805 12.83a.626.626 0 0 0-.866-.187.626.626 0 0 0-.164.87l2.005 3.02c-.173.138-.346.28-.518.43a.8.8 0 1 0 1.045 1.21c1.42-1.224 2.893-2.077 4.772-2.764 2.736-1 5.686-1.242 8.531-.699a16.193 16.193 0 0 1 7.491 3.604.797.797 0 0 0 1.128-.086.8.8 0 0 0-.087-1.128 17.602 17.602 0 0 0-.264-.222l2.095-3.075c.203-.297.138-.693-.144-.885"/>
        <path fill="#888E99" d="M31.05 12.055c-1.709-1.09-3.375-1.892-5.323-2.455l-.933 3.17c1.63.474 3.035 1.16 4.467 2.072l1.789-2.787zM19.906 11.938c1.612.074 2.514.246 4.07.634l.892-3.19c-1.644-.517-2.977-.73-5.004-.643l.042 3.199z"/>
        <path fill="#FF2751" d="M15.011 12.599c-.209.063-.704.19-.921.265l-.887-3.088c.28-.096.74-.244 1.008-.324l.8 3.147z"/>
        <path fill="#888E99" d="M15.85 12.367c.857-.186 2.234-.338 3.166-.401l-.157-3.246c-1.114.072-2.646.256-3.668.488"/>
        <path fill="#FF2751" d="M12.236 10.093a22.587 22.587 0 0 0-3.675 1.772l1.876 2.738a19.247 19.247 0 0 1 2.748-1.328l-.949-3.182z"/>
        <path fill="#9EA8B7" d="M10.41 13.432a.479.479 0 0 1 .655.1L23.62 29.864c.142.184.1.45-.09.582l-1.305.902a.406.406 0 0 1-.57-.111l-11.37-17.15a.48.48 0 0 1 .125-.656"/>
        <path fill="#636973" d="M22.014 28.649c-1.06 1.179-2.91 1.246-4.13.149-1.219-1.097-1.348-2.943-.287-4.122 1.06-1.18 2.909-1.246 4.129-.149 1.22 1.097 1.349 2.942.288 4.122"/>
        <path fill="#FF2751" d="M11.055 20.975H8.662v1.287h2.204c.161 0 .283.037.363.109a.374.374 0 0 1 .12.288c0 .12-.04.216-.119.292-.078.075-.2.112-.364.112H8.662v1.492h2.475c.167 0 .293.039.378.116a.4.4 0 0 1 .127.31.392.392 0 0 1-.127.301c-.085.078-.211.117-.378.117H8.25c-.231 0-.397-.052-.498-.154-.102-.103-.153-.269-.153-.497v-3.942c0-.152.023-.276.068-.373a.422.422 0 0 1 .213-.211.899.899 0 0 1 .37-.066h2.804c.17 0 .296.037.377.113a.378.378 0 0 1 .125.294.383.383 0 0 1-.125.299c-.081.075-.207.113-.377.113"/>
        <path fill="#9EA8B7" d="M31.484 20.837h-1.942v1.245h1.623c.15 0 .263.033.337.1a.35.35 0 0 1 .11.271.34.34 0 0 1-.112.27c-.075.066-.186.098-.335.098h-1.623v1.604c0 .203-.046.354-.138.453a.463.463 0 0 1-.353.147.463.463 0 0 1-.357-.15c-.092-.099-.138-.249-.138-.45V20.68c0-.142.021-.257.063-.347a.392.392 0 0 1 .198-.196.834.834 0 0 1 .343-.061h2.324c.157 0 .274.035.35.105a.35.35 0 0 1 .115.273.355.355 0 0 1-.116.277c-.075.07-.192.105-.35.105"/>
    </g>
</svg>
