<svg xmlns="http://www.w3.org/2000/svg" width="40" height="40" viewBox="0 0 40 40">
    <g fill="none" fill-rule="evenodd">
        <path fill="#141414" d="M39.333 20.01c0 10.677-8.656 19.333-19.333 19.333C9.323 39.343.667 30.687.667 20.009.667 9.332 9.323.676 20 .676c10.677 0 19.333 8.656 19.333 19.333"/>
        <path fill="#FFC300" d="M33.533 18.57c.667 6.698-4.096 13.08-12.715 13.08-3.024 0-4.243-3.98-3.195-9.153a7.37 7.37 0 0 0-.824-5.13c-1.146-2.02-5.712-3.868-4.218-5.51 1.563-1.717 3.72-2.77 6.5-3.273 7.166-1.294 13.654 1.963 14.452 9.986"/>
        <path fill="#FF2751" d="M28.305 17.692c1.288 3.51 4.422 3.74 5.231 3.241.4-5.114-1.569-8.12-3.118-9.663-.928-.15-3.4 2.917-2.113 6.422"/>
        <path fill="#757A83" d="M11.338 12.689s.324 2.721 4.226 4.025c1.368 2.056 1.21 5.302.755 7.743-.549 2.94-.583 6.632 3.534 7.351 2.78.425 4.392-.555 4.392-.555-.636.188-3.877.522-5.764-1.732-1.533-1.83.137-5.064 0-8.625-.27-6.975-5.2-9.16-5.9-9.17-.566-.007-1.292.434-1.243.963"/>
        <path fill="#9EA8B7" d="M11.413 13.022s-4.61.72-4.118 2.646c.858 1.993 5.827 1.833 8.681 1.634.025.067-1.167-3.137-4.563-4.28"/>
    </g>
</svg>
