<?xml version="1.0" encoding="UTF-8"?>
<svg width="102px" height="89px" viewBox="0 0 102 89" version="1.1" xmlns="http://www.w3.org/2000/svg" xmlns:xlink="http://www.w3.org/1999/xlink">
    <!-- Generator: Sketch 56 (81588) - https://sketch.com -->
    <title>Group 20</title>
    <desc>Created with Sketch.</desc>
    <defs>
        <path d="M0.969173641,0.613878386 C0.69569223,0.860677602 1.12207303,1.23988876 1.39312195,0.995515937 L1.39312195,0.995515937 C1.52795142,0.872809586 1.67494333,0.812149666 1.82332524,0.801057567 L1.82332524,0.801057567 C1.82263024,0.802790707 1.82054525,0.803830592 1.81950275,0.806603616 L1.81950275,0.806603616 C1.45879919,1.52065753 1.09879062,2.23332493 0.738087061,2.94737884 L0.738087061,2.94737884 C0.669282335,2.91028963 0.601867603,2.8742403 0.537232861,2.83888424 L0.537232861,2.83888424 C0.217534134,2.65933087 -0.038919845,3.1664478 0.280778882,3.34773431 L0.280778882,3.34773431 C1.14083796,3.83197378 2.59824715,4.40633656 3.40444394,3.56091059 L3.40444394,3.56091059 C4.02264398,2.90855649 3.52224597,2.30195729 2.89744346,1.95047639 L2.89744346,1.95047639 C3.19663977,1.70749008 3.29845687,1.32515927 3.014203,0.858597833 L3.014203,0.858597833 C2.76052901,0.442644099 2.34492066,0.242639678 1.92027735,0.242639678 L1.92027735,0.242639678 C1.5828562,0.242639678 1.24022256,0.369158939 0.969173641,0.613878386 L0.969173641,0.613878386 Z M2.32824073,1.06241516 C2.34283567,1.03433829 2.34978564,1.00591478 2.35604062,0.977837904 L2.35604062,0.977837904 C2.37793303,0.995515937 2.40121544,1.0135406 2.42415035,1.0332984 L2.42415035,1.0332984 C2.8383687,1.4007242 2.5120675,1.62915213 2.08603419,1.65930877 L2.08603419,1.65930877 C2.06344678,1.66000203 2.04259687,1.66520145 2.02139945,1.67005424 L2.02139945,1.67005424 C2.12425904,1.46797005 2.22677113,1.26553924 2.32824073,1.06241516 L2.32824073,1.06241516 Z M1.2548175,3.18759212 C1.45011173,2.80248829 1.64401595,2.4166912 1.83861518,2.0333205 L1.83861518,2.0333205 C1.86537257,2.12275056 1.9331348,2.19866211 2.04746185,2.22153957 L2.04746185,2.22153957 C2.3602106,2.28670565 2.65349943,2.40247944 2.90404594,2.60179061 L2.90404594,2.60179061 C3.28038694,2.90231718 2.98709811,3.32555011 2.58921219,3.40007515 L2.58921219,3.40007515 C2.49677756,3.41705993 2.40156294,3.42468575 2.30495832,3.42468575 L2.30495832,3.42468575 C1.96058719,3.42468575 1.59571365,3.32485685 1.2548175,3.18759212 L1.2548175,3.18759212 Z" id="path-1"></path>
    </defs>
    <g id="Group-20" stroke="none" stroke-width="1" fill="none" fill-rule="evenodd">
        <g>
            <path d="M51,0 C68.530257,4.62962963 77.8641066,15.4882813 79.0015487,32.5759549 C80.7077119,58.2074653 85.3998951,72.0477535 102,78.077936 C101.937434,78.055208 101.937434,81.695896 102,89 L-9.09494702e-13,89 L-9.09494702e-13,0 L51,0 Z" id="Path" fill="#FFD0D0"></path>
            <g id="update_app-copy" transform="translate(12.001549, 11.000000)">
                <g id="Group-797">
                    <g id="Group-707" transform="translate(0.000000, 1.995193)">
                        <path d="M53.1129866,53.4119951 C53.1645957,54.4484131 41.2533856,54.65639 26.6236939,54.65639 C11.9943496,54.65639 0.0880045619,54.6428715 0.13477872,53.4119951 C0.179396698,52.2435117 11.9943496,52.1672535 26.6236939,52.1672535 C41.2533856,52.1672535 53.0443612,52.0480135 53.1129866,53.4119951" id="Fill-635" fill-opacity="0.2" fill="#000000"></path>
                        <path d="M11.9907357,29.1842499 C13.4537048,29.3433522 14.9385664,29.5898048 16.3647007,29.8712668 C17.8259324,30.1596614 19.3014116,30.4064606 20.7907906,30.4542953 C21.315861,30.4705868 21.8388464,30.4529088 22.3618319,30.4185926 C23.327183,30.3534265 24.2901017,30.2293337 25.2544103,30.1506491 C25.7367384,30.1114801 26.1773667,30.1100936 26.6558723,30.1430233 C26.9519411,30.1624344 27.4919539,30.2324533 27.6691782,29.9066229 C27.7133106,29.8258585 27.729643,29.7496003 27.724083,29.6802747 L27.7237355,29.6802747 C27.7119206,29.6733422 27.6980206,29.6702225 27.6882907,29.6612102 C27.6882907,29.6612102 27.6882907,29.6612102 27.6879432,29.6608636 C26.7104295,28.6861453 10.3647896,27.3637591 8.95464025,27.6025858 C8.53555692,27.6736446 8.27319547,27.981797 8.12967854,28.3800727 C8.10882862,28.4379596 8.0900637,28.4979262 8.07407876,28.5589328 L8.07373126,28.5610126 C9.1443745,29.2587749 10.7835255,29.0528778 11.9907357,29.1842499" id="Fill-637" fill="#474959"></path>
                        <path d="M8.09833416,29.2699017 C8.20779623,29.3794362 8.32038578,29.4855044 8.43957781,29.5853333 C8.32038578,29.492437 8.20779623,29.3825558 8.09833416,29.2699017 L8.09833416,29.2699017 Z M8.92885586,29.79435 C8.92885586,29.79435 8.19806627,29.2830736 7.46414919,28.4535925 L7.36754457,28.353417 L6.55335532,27.5204696 C6.55335532,27.5204696 6.37960601,27.3679533 6.17701431,27.2483666 C6.12871201,27.2182099 6.07728221,27.1918662 6.02237743,27.1686421 C5.99979002,27.1585899 5.97720261,27.1485377 5.9549627,27.1388321 C5.93237529,27.1287799 5.90978788,27.1221939 5.88720047,27.1152614 C5.88407298,27.1121417 5.88407298,27.1121417 5.88094549,27.1121417 C5.87121553,27.1090221 5.86461306,27.1055558 5.8548831,27.1055558 C5.8295157,27.0986232 5.8034533,27.0958502 5.7777384,27.0958502 C5.7777384,27.0958502 5.75862598,27.0923839 5.72005363,27.0819851 C5.71345116,27.0819851 5.7037212,27.0819851 5.69433874,27.0854513 C5.63943396,27.0889176 5.59425914,27.1152614 5.57514671,27.175228 C5.56228926,27.2182099 5.57167173,27.2650047 5.58800416,27.3045203 C5.70059371,27.5967278 5.88720047,27.8591253 6.06407726,28.1145902 C6.16068188,28.2539347 6.27361893,28.3967455 6.40219342,28.5197985 C6.40532091,28.5229181 6.40532091,28.5229181 6.40879589,28.5260378 C6.4567507,28.5960567 6.50852799,28.6622626 6.55995779,28.7284686 C6.58880018,28.7686775 6.62111755,28.8050734 6.64995993,28.841816 C6.69200726,28.8983164 6.7337071,28.9478842 6.78200941,29.0012649 C6.9588862,29.2068154 7.14584046,29.4061266 7.34530466,29.5884529 C7.39360697,29.6352477 7.44190928,29.6813493 7.49333907,29.7246778 C7.59307118,29.8141078 7.69593077,29.9004182 7.79913786,29.983609 C7.96002971,30.1163676 8.12717655,30.2394205 8.29779837,30.3555409 C8.35895813,30.3985228 8.42359287,30.4383851 8.48788011,30.4782473 C8.59734218,30.2591783 8.70645674,30.0366431 8.81279132,29.8175741 C8.79680638,29.8272797 8.77421897,29.8175741 8.75823404,29.8078685 C8.7422491,29.800936 8.72591666,29.7912304 8.71305922,29.7811782 C8.74537659,29.7974697 8.78082145,29.8078685 8.81591881,29.8141078 L8.92885586,29.79435 Z" id="Fill-639" fill="#ECA422"></path>
                        <path d="M42.4961102,46.5958999 C42.4961102,44.4010507 44.2210933,42.6218086 46.3491748,42.6218086 C48.4769089,42.6218086 50.201892,44.4010507 50.201892,46.5958999 C50.201892,48.7904025 48.4769089,50.5696446 46.3491748,50.5696446 C44.2210933,50.5696446 42.4961102,48.7904025 42.4961102,46.5958999 M39.9378254,46.5958999 C39.9378254,50.2476271 42.8081639,53.2081778 46.3491748,53.2081778 C49.8898382,53.2081778 52.7601768,50.2476271 52.7601768,46.5958999 C52.7601768,42.9438261 49.8898382,39.9832754 46.3491748,39.9832754 C42.8081639,39.9832754 39.9378254,42.9438261 39.9378254,46.5958999" id="Fill-641" fill="#474959"></path>
                        <path d="M12.9745042,43.9707812 L12.9112595,47.2821196 C12.9112595,47.2821196 11.9827432,46.7230084 11.4931176,48.6575399 C11.3544657,49.2911761 11.5007626,49.7223815 12.3642967,50.1802772 C12.0786528,50.1324425 11.0281645,51.5182617 9.69376981,51.1910448 C9.54782039,51.2593305 7.70434023,46.3895522 5.72672561,46.5011664 C5.62039103,46.4602643 5.77468042,45.1409977 6.54334736,43.6889726 C6.5829622,43.5790915 7.22096966,44.3246885 7.22096966,44.3246885 C7.22096966,44.3246885 10.3474147,44.8550295 10.7619806,44.7021665 C10.7254932,44.6259084 11.5706098,42.5426734 11.5706098,42.5426734 L12.9745042,43.9707812 Z" id="Fill-643" fill="#3A3B44"></path>
                        <path d="M48.6299473,47.5467355 C48.6271673,47.5190052 48.6254298,47.4933547 48.6229973,47.4666644 C48.7654717,47.0708151 48.8068241,46.6461956 48.7484443,46.2333616 C48.9989908,45.659692 49.4913963,45.7463491 49.4913963,45.7463491 L48.4259656,42.6218433 L46.6259227,41.7913223 C46.6259227,41.7913223 46.5418281,44.0475247 46.6022928,44.1061048 C45.9705404,44.0385124 45.3189804,44.2253449 44.80225,44.6666025 C43.9654733,44.8669535 43.1568441,45.0316019 43.1568441,45.0316019 C43.1568441,45.0316019 42.3061674,44.5636539 42.3061674,44.6804676 C42.0792508,46.3182854 42.3826171,47.6098218 42.4962492,47.6098218 C42.9903922,47.3865933 43.6009473,47.5138058 44.2299198,47.8139857 C44.3369494,48.0115638 44.4696938,48.1983963 44.6323232,48.3661643 C45.045499,48.7925169 45.5705694,49.0323836 46.1098873,49.0871508 C47.0422261,49.8639444 47.7535558,50.6223667 47.8046381,50.5696792 C49.1657901,50.3942854 49.6793931,48.716952 49.9626045,48.6583718 C48.9986433,48.5412115 48.7150844,48.1900773 48.6299473,47.5467355" id="Fill-645" fill="#3A3B44"></path>
                        <path d="M46.8671563,46.5251531 C46.8059965,46.3438666 46.55406,45.6197605 46.2124689,44.6408827 C46.5342526,44.3878442 46.7208594,44.0509216 46.5766474,43.6862689 C46.3347884,42.9694419 43.3807027,34.0812039 43.3807027,34.0812039 L40.7859305,34.8441324 C40.7859305,34.8441324 44.1472846,44.6873309 44.2390242,44.7715615 C44.3578688,45.0509437 44.7220473,45.1358676 45.1314007,45.0838734 C45.5358891,46.292219 45.8309154,47.1532432 45.8576728,47.1775072 C46.2034339,47.9889636 47.2897146,47.5938076 46.8671563,46.5251531" id="Fill-647" fill="#474959"></path>
                        <path d="M5.86555131,46.5958999 C5.86555131,44.4010507 7.59053444,42.6218086 9.71861596,42.6218086 C11.84635,42.6218086 13.5713331,44.4010507 13.5713331,46.5958999 C13.5713331,48.7904025 11.84635,50.5696446 9.71861596,50.5696446 C7.59053444,50.5696446 5.86555131,48.7904025 5.86555131,46.5958999 M3.30726649,46.5958999 C3.30726649,50.2476271 6.17760506,53.2081778 9.71861596,53.2081778 C13.2592794,53.2081778 16.1296179,50.2476271 16.1296179,46.5958999 C16.1296179,42.9438261 13.2592794,39.9832754 9.71861596,39.9832754 C6.17760506,39.9832754 3.30726649,42.9438261 3.30726649,46.5958999" id="Fill-649" fill="#3A3B44"></path>
                        <path d="M40.3581945,20.8154341 C40.7908302,21.6515011 40.7748453,22.565906 40.5180438,22.9354116 C40.1288454,23.4966025 39.3104861,23.5087345 38.709661,23.5260659 C38.4869144,23.5329985 38.2641678,23.5288389 38.0414212,23.5225996 C37.9559365,23.5198266 37.8707994,23.5163603 37.7856622,23.5118542 C37.7154675,23.5083879 37.6452728,23.5038817 37.575078,23.4983357 C37.5104433,23.4938295 37.4458085,23.4875902 37.3815213,23.4799644 C37.3537214,23.4768447 37.0611276,23.4307432 37.0600851,23.4349027 C37.1313223,23.1933029 37.2432169,23.252923 37.0107403,23.1756249 C35.2913171,22.6012621 33.6570311,20.7998358 33.6778811,20.651479 C33.7011635,20.4850975 36.7275289,18.9630534 36.966608,18.7616625 C37.1056074,18.6448488 37.2800517,18.580376 37.4569285,18.5502194 C37.7099075,18.5065442 37.9764389,18.5311548 38.2110005,18.6389562 C38.468497,18.757503 38.7722108,18.8666908 38.9824474,19.0604559 C39.5200278,19.5540544 40.0124333,20.1467884 40.3581945,20.8154341" id="Fill-651" fill="#F8F6E4"></path>
                        <path d="M12.655709,48.5497386 C11.9388194,48.7979243 11.288302,49.250274 10.5728023,49.4724626 C9.3694146,49.8457811 8.05725983,49.4336403 7.47936963,48.2294542 C6.94352676,47.1119252 7.11797107,45.7219464 7.92938034,44.7926365 C8.90724144,43.6730277 10.3069659,43.9510234 11.6114757,43.9562228 C12.5340845,43.9596891 13.4556508,43.8532743 14.3587997,43.6612423 C15.2080864,43.4813423 16.0281831,43.1634843 16.8743422,42.9603603 C16.9059646,42.9530811 17.7211963,42.5939744 18.0481925,42.720147 C19.0469036,43.1042109 19.7888131,44.3721766 20.0414446,45.3333763 C20.2808712,46.2429285 13.3927536,48.2949669 12.655709,48.5497386" id="Fill-653" fill="#5B6072"></path>
                        <path d="M16.6605958,42.9515559 C16.2095426,43.1071919 15.7046271,43.0517314 15.226469,43.0645567 C14.1964831,43.0919403 13.1567673,43.2423769 12.1372063,43.3928135 C11.1318928,43.541517 10.0647246,43.7675185 9.04342615,43.583459 C7.16693362,43.2458432 7.55508958,41.063126 8.58472798,40.2294854 C8.69314755,40.1421351 8.81650955,40.0651836 8.95759399,40.0124962 C9.13898827,39.9442104 9.34574995,39.933465 9.54660415,39.9306919 C11.080463,39.911974 12.5642821,40.3206486 14.0091814,40.7241237 C14.5276493,40.8686676 15.0461172,41.0135581 15.5649327,41.1584487 C15.7880268,41.2208418 16.0166809,41.2853146 16.1973802,41.4052479 C16.4493167,41.5723227 16.5765012,41.8239747 16.6946507,42.0648812 C16.7686679,42.2163577 16.8437276,42.3764999 16.8107152,42.5362954 C16.7606754,42.7792817 16.4792015,42.947743 16.2060676,43.070796 L16.6605958,42.9515559 Z" id="Fill-655" fill="#474959"></path>
                        <path d="M41.9759048,31.679383 C41.903625,30.9733016 41.5498715,30.334466 41.1839554,29.7327196 C40.3075639,28.2910932 39.3185828,26.9260717 38.3219568,25.5697159 C38.2024173,25.4068007 38.0696728,25.2345265 37.8795911,25.1752531 C37.5657998,25.0778506 37.2603485,25.3246499 37.0021571,25.5336666 C36.9257074,25.5950198 33.6369805,19.8853615 33.2001747,20.291263 C32.9287783,20.5436083 32.6459144,20.7845148 32.3543631,21.0119029 C32.2556735,21.0888543 32.1542039,21.1658058 32.0829667,21.2697942 C31.9258973,21.4989154 31.9460522,21.8098408 32.0148569,22.0815972 C32.1288365,22.5332537 32.3536681,22.9450479 32.5767622,23.351296 C32.7042942,23.582497 32.8318262,23.8147378 32.9600532,24.0462854 C33.4733086,24.9766352 37.1741689,32.2904884 37.5237525,33.4551589 C38.1287476,35.4690682 36.6636934,38.6438351 35.5927027,40.9298475 C35.5791502,40.9593108 35.5683778,40.9898141 35.5555203,41.0196241 C35.378296,41.425179 34.5707092,43.0730491 33.1675098,42.9954044 C30.6926247,42.8581396 29.8002482,42.6522425 27.3357881,42.3784063 C25.9214687,42.2210372 24.5078443,42.0577753 23.0949149,41.8886208 C21.0206957,41.6397418 19.4044796,40.2816529 17.3587553,40.712165 C16.916737,40.8050613 15.9162885,42.0896651 15.7811116,42.5330025 C15.6580971,42.9371709 15.9055161,43.3590173 16.1856,43.6682095 C17.1492136,44.731318 18.5885529,45.2127844 19.9948798,45.3323711 C21.4008592,45.4512646 22.8113561,45.2509135 24.219768,45.1625233 C28.5336158,44.8918068 32.884646,45.67172 37.1724314,45.1139954 C37.5397374,45.0661607 37.5856072,44.7285449 37.4601602,44.2654498 C38.4359364,43.9902271 39.0749863,42.9856988 39.5211745,42.0290052 C39.8822256,41.2553313 40.1918469,40.45774 40.5011206,39.6608419 C41.0769258,38.1786601 41.6586385,36.6704812 41.801808,35.0808447 C41.8612302,34.4201715 41.8438553,33.7542989 41.9022351,33.0939724 C41.9439349,32.6229048 42.0242071,32.1497574 41.9759048,31.679383" id="Fill-657" fill="#3A3B44"></path>
                        <path d="M8.39985871,45.4043658 C7.62875928,46.1998773 7.62875928,47.4893339 8.39985871,48.2848454 C9.17095814,49.0800103 10.4212582,49.0800103 11.1923576,48.2848454 C11.963457,47.4893339 11.963457,46.1998773 11.1923576,45.4043658 C10.4212582,44.6088542 9.17095814,44.6088542 8.39985871,45.4043658" id="Fill-659" fill="#3A3B44"></path>
                        <path d="M6.71480317,39.2645767 C6.72383814,39.3165709 6.48024161,39.5027102 6.44340675,39.5394528 C5.00198249,40.9644409 3.63492294,42.4695002 2.35056805,44.0463115 C2.22998603,44.1950149 2.10662402,44.3464914 1.94573216,44.4463203 C1.77337285,44.553775 1.57078116,44.5932906 1.37270695,44.6307265 C1.14092537,44.6750949 0.909143792,44.7194633 0.677362215,44.7634851 C1.28061981,43.5506333 3.19846468,39.0236701 3.69608269,38.1671521 C3.76141243,38.0548446 3.9949315,38.0409794 4.11030104,37.9862122 C4.1978707,37.9442702 4.2979503,37.9456567 4.39455491,37.9477365 C5.17017182,37.9643746 6.70611571,39.2129291 6.71480317,39.2645767" id="Fill-661" fill="#474959"></path>
                        <path d="M51.4861079,38.2080889 C51.4861079,38.2073956 51.4861079,38.2067023 51.4854129,38.2067023 C51.4756829,38.1904108 51.465258,38.1741193 51.454138,38.1578278 C51.452748,38.1560946 51.451358,38.1547081 51.449968,38.1526284 C50.8463629,37.2188122 40.4453819,25.7800845 39.3768236,24.7814489 L39.2986364,24.7585715 C39.0703298,24.6129877 38.4931346,24.3724278 37.4332638,24.5966962 C37.388784,24.5010268 37.3404817,24.4077838 37.2897469,24.3159274 C37.2900944,24.2531877 37.2904419,24.1911413 37.2904419,24.1284016 C37.2904419,24.0802203 37.2921794,24.0292659 37.3203268,23.990097 C37.3547292,23.9433022 37.4186689,23.9322101 37.4753112,23.9249309 C37.9468668,23.8628844 39.0939597,23.7464174 40.0502759,23.3159053 C38.0827388,23.3713658 35.3138698,22.2933524 35.249235,20.3584742 C35.2242151,19.608371 39.1075122,19.5525639 39.3681361,19.488091 L39.3684836,19.4877444 C39.402191,19.3591454 38.9685127,19.0412874 38.8760781,18.9535905 C38.6866914,18.7757703 38.4966096,18.6014163 38.2957554,18.4385011 C34.5469403,15.3926799 31.2571709,20.7664555 31.1768988,20.8839625 C30.999327,21.1432403 31.0222619,21.4943746 31.0997541,21.8007938 C31.2286761,22.3117236 31.4826975,22.7765519 31.734634,23.2358342 C31.878846,23.4971918 32.0230579,23.7592426 32.1679648,24.0206002 C32.5839207,24.1616779 33.0210739,24.2389759 33.4557947,24.2729455 C33.5100045,24.2899303 33.5628243,24.3069151 33.6100841,24.3252863 C35.1731328,24.9447108 36.3737406,26.2639774 37.3818341,27.6432106 C37.4579363,27.7478923 37.529521,27.8556937 37.6042332,27.9610686 C37.7112627,28.1503276 37.8182923,28.3399331 37.9253219,28.5295387 C38.4333649,29.4283454 38.9410603,30.3271521 39.4487558,31.2263054 C39.7979919,31.8443434 40.2205503,32.429105 40.4898617,33.0904714 C40.5294765,33.1864874 40.5645739,33.2821568 40.5961963,33.3771329 C40.7021833,33.6956841 40.7668181,34.0135421 40.7859305,34.3400658 C40.8008729,34.5917178 40.789058,34.8482226 40.7477057,35.1130464 C40.7007933,35.420159 40.6288611,35.7238052 40.540249,36.0232919 C40.2963049,36.8486134 39.9269139,37.6468979 39.6023502,38.4268112 C39.5245105,38.6136438 39.4456283,38.799783 39.3636187,38.9855757 C39.3066289,39.1155613 39.1287096,39.3661734 39.1287096,39.5055179 C38.7061513,40.4157633 38.2318157,41.3010515 37.7091778,42.1541033 C37.635508,42.27369 37.5601008,42.3953565 37.4874736,42.5184094 C37.4860836,42.5201426 37.4846936,42.5229156 37.4829562,42.5249954 C37.4516813,42.5721368 37.3057319,42.8158164 37.2629895,42.8920745 C36.9491983,43.4633177 36.2872134,44.9465394 32.7093677,44.9517388 C31.3940854,44.8810266 30.0784556,44.7974893 28.7683859,44.6557184 C27.0791951,44.4723521 22.08147,43.7829088 18.4118846,42.4688416 C18.1314532,42.3686661 18.1154683,41.9669241 18.3861697,41.8404048 C18.8257554,41.6358943 19.2788936,41.4414359 19.7212594,41.4608471 C20.7654927,41.5062553 26.6948616,42.7353986 26.7011166,42.7340121 C26.7438589,42.7288127 27.5128734,42.7561963 27.601833,42.5118235 C27.7297125,42.1596493 27.6497878,41.7627601 27.5302483,41.4071197 C27.2425194,40.553028 26.9356782,40.3429714 26.8223936,39.4462445 C26.7233565,38.6614784 26.981548,37.8805253 27.2327895,37.1321552 C27.4930659,36.3553616 28.7596984,34.0956929 28.0483687,33.4814679 C27.2560719,32.7979173 26.212186,32.434651 25.2242475,32.1843855 C23.072536,31.6394861 19.9380985,32.8048499 17.7227948,32.8218346 C17.3454113,32.8246077 16.933973,32.9355286 16.5770919,32.7961841 C16.0457665,32.5885539 15.433474,32.5126424 14.8521088,32.2478185 C14.9428059,32.6710514 15.2082949,33.0343177 15.5332061,33.3140465 C14.2641411,32.7490427 12.9836087,32.2131557 11.6704114,31.7694717 C11.1039887,31.5788262 10.532701,31.4055122 9.95828576,31.2422503 C9.72476669,31.1368754 9.49124762,31.0304605 9.26363602,30.9129536 C8.99953708,30.780195 8.73891311,30.6373843 8.48767161,30.478282 C8.42338437,30.4384197 8.35909713,30.3985575 8.29793737,30.3555756 C8.12731555,30.2394552 7.96016871,30.1164022 7.79892936,29.983297 C7.69606977,29.9004529 7.59286268,29.8141425 7.49313057,29.7243658 C7.44170078,29.6813839 7.39339847,29.6352824 7.34544366,29.5884876 C7.14563196,29.4058146 6.9590252,29.20685 6.78180091,29.000953 C6.7338461,28.9479188 6.69179877,28.898351 6.65009893,28.8418506 C6.62125655,28.8051081 6.58893917,28.7687121 6.55974929,28.7285033 C6.5083195,28.6622973 6.4568897,28.5960913 6.40858739,28.5260724 C6.40545991,28.5229528 6.40545991,28.5229528 6.40233242,28.5198331 C6.27341043,28.3967802 6.16082088,28.2539694 6.06421626,28.1146249 C5.88733947,27.85916 5.70073271,27.5967625 5.58779566,27.304555 C5.57181072,27.2650394 5.56208076,27.2182446 5.57493821,27.1752627 C5.59439813,27.115296 5.63922546,27.0889523 5.69413024,27.085486 C5.7038602,27.0820197 5.71359016,27.0820197 5.71984514,27.0820197 C5.71359016,27.0820197 5.70698769,27.0792467 5.69725773,27.0792467 L5.69413024,27.0792467 C5.5266359,27.0425041 5.13743745,26.9728319 4.81530624,26.9790712 C4.81530624,26.9790712 4.42610779,27.0289856 4.58074467,27.4407798 C4.58074467,27.4407798 4.70584417,28.0186089 5.70073271,29.9337292 C5.70073271,29.9337292 5.72644761,30.1451723 5.95649169,30.3777598 C5.64096295,30.4481253 5.36226906,30.6401573 5.09817011,30.8349623 C3.68628323,31.8751933 2.38073093,33.0689805 1.2089656,34.3885937 C1.07413614,34.5411101 0.933051697,34.7137309 0.926201594,34.9203212 C0.919846749,35.1272582 1.04633625,35.2988391 1.17873322,35.4690335 C1.18116571,35.4714599 1.1835982,35.4745796 1.18568319,35.4773526 C1.18151321,35.4773526 1.17769072,35.477006 1.17386824,35.477006 C1.32294514,35.6666115 1.47966702,35.8537907 1.46750457,36.084645 C1.41850726,36.0870714 1.34588005,36.1598633 1.2833303,36.2610788 C1.17352074,36.4343928 1.09116357,36.6950572 1.21383058,36.8181101 C1.40738731,37.0125685 1.66557878,37.1293822 1.85531302,37.3283467 C2.07041467,37.5529617 2.16423929,37.877059 2.36822098,38.1131128 C2.95445115,38.7911173 3.61713101,38.8791609 4.26869091,38.9803763 C4.47927508,39.0129593 4.68985924,39.0476221 4.8997484,39.0840181 C4.9751556,39.09719 5.0502153,39.1107085 5.12597,39.1245736 C5.14508242,39.1276932 5.16488985,39.1318528 5.18434977,39.1353191 C5.27261442,39.1516106 5.36157406,39.1685954 5.44983871,39.1852335 L5.44983871,39.1845403 L5.44532123,39.174488 C5.44879621,39.1751813 5.4519237,39.1758745 5.45539869,39.1765678 L5.45539869,39.1772611 C8.73300564,39.8018849 11.9247804,40.8920303 15.0164756,42.1901526 C15.0891028,42.2206559 15.2875245,42.399516 15.4998462,42.5946676 C15.7569952,42.8314146 16.0329091,43.0903458 16.1329887,43.1426867 C17.4374985,44.2768538 19.3994757,45.9964759 19.8585213,46.1947472 C20.2445923,46.3611287 35.7246132,48.135518 37.523961,46.9881789 C39.0400975,46.088679 42.8135849,36.3238184 47.7143579,38.0583455 C51.2223564,39.2996208 51.58306,38.9453669 51.58306,38.5647692 C51.58306,38.4337438 51.5476151,38.3117307 51.4861079,38.2080889" id="Fill-663" fill="#FFCF48"></path>
                        <path d="M0.918630504,34.9283283 C0.912028031,35.1356119 1.03817003,35.3071929 1.171262,35.4770406 L1.17369449,35.4770406 C1.32311889,35.6666462 1.47984077,35.854172 1.46767832,36.0850263 C2.2005529,36.5092991 3.08702187,36.6011556 3.92275604,36.1793092 C3.93179101,36.174803 3.94082597,36.1706435 3.94881844,36.1678705 C3.84144137,35.9633599 3.75317672,35.7997514 3.69340695,35.6902169 C3.67533703,35.6572872 3.66664956,35.6205447 3.66664956,35.5838021 L3.66421707,35.5838021 C3.66491207,35.545673 3.67533703,35.5075439 3.69479695,35.4742676 C3.75178672,35.3785982 3.81120899,35.284662 3.87271624,35.1938455 C4.66848807,34.0177363 5.80967353,33.1972675 7.05024359,32.5390208 C6.42474608,32.5331281 5.79924857,32.5892818 5.18556601,32.7126814 C5.18487102,32.7133747 5.18382852,32.7133747 5.18313352,32.7133747 C4.5117662,32.8489063 3.8324064,33.1470065 3.13810417,33.0048889 C3.03176959,32.983398 2.84898532,32.9279375 2.70755338,32.8395473 C2.18456796,33.3359188 1.68972993,33.8475419 1.20913935,34.3886284 C1.07430988,34.5411447 0.925232978,34.721738 0.918630504,34.9283283" id="Fill-665" fill="#F8F6E4"></path>
                        <path d="M33.6622089,21.7947278 C33.506877,21.1371743 32.9248168,20.7167144 32.3622165,20.8557123 C32.0161079,20.941676 31.7582639,21.2200184 31.6474119,21.574619 C31.8107362,21.5018271 31.9618981,21.4328481 32.0897776,21.3711483 C32.9171718,20.9725259 33.7018237,22.2907526 32.7691374,22.8415447 C32.6353505,22.9160698 32.4383187,23.0172852 32.2159196,23.1285528 C32.4313688,23.2533389 32.6801778,23.2990938 32.9251643,23.2384339 C33.4877646,23.0990894 33.8175407,22.452628 33.6622089,21.7947278" id="Fill-667" fill="#3A3B44"></path>
                        <path d="M32.0898124,21.3712523 C31.9619329,21.4329521 31.810771,21.5019311 31.6474466,21.574723 C30.9149196,21.8998601 29.935321,22.2939763 29.6903344,22.3917254 C30.0343581,22.2693657 30.4513564,22.4558516 30.6654155,22.8485813 C30.8759997,23.2343784 30.8190099,23.6877679 30.5496985,23.9283278 L30.5503935,23.9297143 C30.5503935,23.9297143 31.5105322,23.4808309 32.2159544,23.1283102 C32.438006,23.0173892 32.6353852,22.9161737 32.7691722,22.8413021 C33.7018585,22.29051 32.9172066,20.9726299 32.0898124,21.3712523" id="Fill-669" fill="#3A3B44"></path>
                        <path d="M30.6653808,22.8484773 C30.4513217,22.4557476 30.0343233,22.2692617 29.6902997,22.3919681 C29.6732723,22.3978607 29.6562448,22.4047933 29.6392174,22.4120725 C29.6371324,22.4131124 29.6346999,22.4144989 29.6322674,22.4158854 C29.61663,22.422818 29.60134,22.4300971 29.5863976,22.4384162 C29.2267365,22.6453532 29.1266569,23.1639089 29.362956,23.597194 C29.599255,24.0301325 30.0822781,24.2134988 30.4419392,24.0072551 C30.4812065,23.9843776 30.5166514,23.9576872 30.5496638,23.9282238 C30.8189752,23.6876639 30.875965,23.2342744 30.6653808,22.8484773" id="Fill-671" fill="#3A3B44"></path>
                        <path d="M29.6464801,32.3987057 C29.6464801,32.3987057 28.5723619,29.9979594 27.7241178,29.6801014 C27.7296777,29.749427 27.7133453,29.8256852 27.669213,29.9067962 C27.4919887,30.2326266 26.9519758,30.1626077 26.655907,30.1428499 C26.1774014,30.1099203 25.7367732,30.1113068 25.2544451,30.1508224 C24.2901364,30.2291603 23.3268703,30.3535998 22.3618666,30.4184193 C21.8388812,30.4530821 21.3158958,30.4707601 20.7908254,30.4544686 C19.3014463,30.4066339 17.8259672,30.1598347 16.3647355,29.8714401 C14.9386012,29.5896315 13.4537396,29.3435255 11.9907704,29.1844232 C10.7835602,29.0530512 9.14440925,29.2586016 8.07376601,28.5611859 L8.07411351,28.5591061 C8.07411351,28.5597994 8.07376601,28.5604926 8.07341851,28.5611859 C8.01225876,28.7961997 7.98515386,29.0402259 7.98258505,29.2492427 C7.98258505,29.2845987 7.98258505,29.3185683 7.98341637,29.3518446 C7.98445887,29.3528845 7.98550136,29.3535777 7.98619636,29.3546176 L7.98480637,29.3546176 C7.98584886,29.3975995 7.98723886,29.4395415 7.99001885,29.4818301 C8.00461379,29.7542798 8.02859119,30.0357419 8.14847821,30.2794214 C8.42439212,30.8402657 9.41163568,31.2894957 9.96693847,31.5498134 C14.0323248,33.4555748 28.2877605,35.5252913 29.1457346,34.7838537 C29.1551171,34.7755347 29.1644995,34.7679088 29.173882,34.7599364 C29.2371267,34.6971967 29.290989,34.6472823 29.3295614,34.6136593 C29.3309514,34.6122728 29.3319939,34.6115796 29.3333839,34.610193 C29.543968,34.3904308 29.7131998,34.1245671 29.8139744,33.834786 C29.8143219,33.8320129 29.8157119,33.8285467 29.8164069,33.8261203 C30.0252536,33.0770569 29.6464801,32.3987057 29.6464801,32.3987057" id="Fill-673" fill="#3A3B44"></path>
                        <path d="M48.7887541,35.0535651 C48.7887541,35.0535651 40.9922752,30.7973185 39.8045249,31.8631999 C39.8045249,31.8631999 39.033773,30.4912459 38.8117214,30.0860376 C41.6792799,29.6118503 45.7742036,31.6971651 46.8865467,32.9290814 C47.5888414,33.7121143 48.7887541,35.0535651 48.7887541,35.0535651" id="Fill-675" fill="#FC223C"></path>
                        <path d="M23.0080403,8.96404561 C21.7083955,8.84237915 18.3779687,6.24960087 20.3680933,2.2796691 C22.2609183,-1.49649755 28.4908735,-0.313455802 28.5635022,3.98681256 C28.5645432,4.05648481 28.0432952,3.99339849 27.717689,4.07138981 C26.0034784,4.4817975 23.7572473,9.03406449 23.0080403,8.96404561" id="Fill-677" fill="#FFCF48"></path>
                        <path d="M27.0051084,18.1811991 C27.3039572,17.6442721 28.7182766,13.6133338 26.8893913,11.465626 C26.0300273,10.456245 22.456699,8.42777726 18.6408167,10.9657883 C16.1541166,12.9419152 13.7449087,17.7004259 14.2665041,25.5252089 C14.2359242,25.5030247 16.8379939,26.3415181 22.588401,24.2374854 C22.8278275,23.8516884 23.6291593,22.9858113 24.5896455,20.8980702 C24.5903405,20.8987635 28.1810437,21.6831829 31.110457,21.016617 C31.8822515,19.9427631 32.24782,19.476895 32.24782,19.476895 C29.5706907,18.7825989 28.598042,18.0276428 27.0051084,18.1811991" id="Fill-679" fill="#70D5E0"></path>
                        <path d="M28.1373631,3.98670857 C28.1373631,3.98670857 28.9602398,7.33894904 27.543488,9.81456701 C27.0587274,10.2017506 25.6770729,9.86760111 25.6770729,9.86760111 C25.6770729,9.86760111 25.3486867,11.9470232 25.0877153,12.916542 C24.9852032,12.9498183 22.8630291,13.1415036 21.9522352,9.89602462 C22.1958318,9.65303831 22.6020577,9.28803891 22.9266214,9.00484374 C23.0576283,8.89010984 23.6966783,7.96045324 24.1525965,6.84708375 C24.5786298,5.80685278 24.4208654,4.42588638 24.5536099,4.19503206 C24.6536895,4.11704074 27.7050748,4.07787176 28.1373631,3.98670857" id="Fill-681" fill="#F5FCFF"></path>
                        <path d="M17.5486633,16.8481713 C17.5486633,16.8481713 16.8463686,21.7033913 19.1068471,22.4150188 C21.4128479,23.1408581 24.65779,23.7401781 28.1869859,23.2822824 C28.1869859,23.3900837 29.2843865,23.8684305 29.3031515,23.3661664 C29.3379013,22.4278441 30.9572449,22.0157032 30.9572449,23.618165 C30.9572449,23.8708569 32.1168478,23.4368785 32.2426423,22.9928479 C32.4987487,22.1862443 31.8913212,21.2857044 31.1608791,21.0690619 C30.5875064,20.8992141 29.67011,21.164038 29.1485146,21.164038 C28.7680036,21.164038 25.5974262,20.8863889 24.2307142,20.2787498 C23.5002721,19.9543059 22.6144981,19.2482244 21.6870243,19.3646914 C21.7728565,19.2381722 22.135645,16.0037853 22.135645,16.0037853 L17.5486633,16.8481713 Z" id="Fill-683" fill="#F5FCFF"></path>
                        <path d="M18.1654386,14.3364694 C16.8195764,15.9469036 16.3466308,21.7231144 18.4170276,22.8208857 C20.442597,23.8947396 22.0904354,23.8219477 22.8038501,23.8462116 C22.8038501,23.8798346 23.0828915,23.6219432 23.2382234,23.2649163 C23.5346397,22.5820589 26.8633289,20.8107893 28.469815,21.0776929 C29.4462862,21.2572463 30.0693512,20.9719713 31.0715372,21.0485761 C30.6604463,20.6128646 29.1894847,21.0520424 27.7654353,20.5768153 C27.4363542,20.486692 27.0721756,20.3518536 26.6833247,20.2007238 C25.2627503,19.6478519 23.5103148,18.8717516 21.9135587,19.2169932 C22.0046033,19.0818082 23.0404967,13.6799557 21.2234264,12.2719523 C19.7614997,11.1395183 18.8785057,14.4317921 18.1654386,14.3364694" id="Fill-685" fill="#5CB8C4"></path>
                        <path d="M17.8569641,14.5926969 C17.4000034,15.9528656 16.9479077,21.6899075 19.1531339,22.5578643 C22.0328549,23.6920315 24.9289084,23.5641257 28.2642001,23.5641257 C28.2384852,23.2563199 28.2642001,21.9491853 28.8295804,21.0777622 C28.4184895,21.1800175 26.1055387,20.5137983 24.7228417,20.0389178 C23.9670322,19.7789467 22.380701,19.5539851 21.4532272,19.6701055 C21.5390594,19.5435862 22.4654907,13.5368677 20.9243343,11.8900375 C19.995123,10.8976412 18.3142722,13.2321815 17.8569641,14.5926969" id="Fill-687" fill="#70D5E0"></path>
                        <path d="M26.3184164,12.4032551 C26.3184164,12.4032551 26.2496116,16.6276119 24.4033515,19.7240408 C24.3515742,19.7333998 24.9499668,19.8613055 24.9499668,19.8613055 C24.9499668,19.8613055 27.1465056,16.3769998 26.3184164,12.4032551" id="Fill-689" fill="#5CB8C4"></path>
                        <path d="M23.572378,8.6617859 C23.6085179,8.74324351 24.4477271,10.1245565 25.5503402,10.5588816 C25.5722326,10.4441477 25.6771772,9.8677051 25.6771772,9.8677051 C25.6771772,9.8677051 23.9473291,9.07704638 23.572378,8.6617859" id="Fill-691" fill="#A4DEF8"></path>
                        <path d="M25.5884608,6.1091125 C25.5839433,6.7947429 26.0127566,7.35558719 26.544082,7.35905347 L26.5496419,7.35905347 C26.7998409,7.35905347 27.03753,7.23530723 27.2189243,7.01034559 C27.408311,6.77533173 27.5139506,6.46024677 27.5160356,6.12263099 C27.5184681,5.78536184 27.4169985,5.46889037 27.2307392,5.23145012 C27.0507349,5.00198231 26.8126984,4.87442316 26.5604144,4.87303665 L26.5552019,4.87303665 C26.0259615,4.87303665 25.5929782,5.42590849 25.5884608,6.1091125 M26.5499894,7.58470837 L26.542692,7.58470837 C25.8859196,7.57985558 25.3559842,6.91744925 25.3608492,6.10772598 C25.3664092,5.29800271 25.9074645,4.64287558 26.5618044,4.64735864 C26.8849781,4.64980814 27.1862594,4.80787056 27.4100485,5.0931455 C27.6279301,5.37079462 27.7460797,5.73718053 27.7436472,6.12436413 C27.7412147,6.51154773 27.6178527,6.87620051 27.3968436,7.15072997 C27.1709695,7.43080549 26.8703832,7.58470837 26.5499894,7.58470837" id="Fill-693" fill="#D7312C"></path>
                        <path d="M28.9799778,5.10510417 C28.6272667,5.10510417 28.3270279,5.59384981 28.3232054,6.17410527 C28.3211204,6.47116556 28.3934001,6.74881468 28.5264921,6.95644492 C28.6477691,7.14639712 28.805186,7.25107881 28.9688578,7.25246532 L28.9716378,7.25246532 C29.3240014,7.25246532 29.6245877,6.76371969 29.6284102,6.1831176 C29.6318852,5.60147563 29.3365113,5.10787719 28.9827578,5.10510417 L28.9799778,5.10510417 Z M28.9719853,7.48505279 L28.9671203,7.48505279 C28.7183113,7.48297302 28.4889622,7.3384291 28.3214679,7.0770715 C28.1650935,6.83269868 28.0799563,6.51172105 28.0823888,6.17237213 L28.2168708,6.17341201 L28.0823888,6.17237213 C28.0872538,5.44271995 28.4809697,4.87251671 28.9796303,4.87251671 L28.9841477,4.87251671 C29.4852407,4.87632962 29.8740917,5.45277217 29.8692267,6.18519737 C29.8643617,6.91519617 29.4706458,7.48470616 28.9719853,7.48505279 L28.9719853,7.48505279 Z" id="Fill-695" fill="#D7312C"></path>
                        <path d="M28.1835109,6.2729636 C27.8634647,6.12703317 27.6900629,6.2358744 27.6831129,6.24003393 L27.532646,6.00813973 C27.544461,5.99982065 27.8266299,5.80501565 28.2919305,6.01715206 L28.1835109,6.2729636 Z" id="Fill-697" fill="#D7312C"></path>
                        <path d="M14.4655513,25.506595 C14.4655513,25.506595 13.3921281,30.8422415 22.2363154,30.6380775 C28.8606815,30.5625126 29.6284405,30.3080684 29.6284405,30.3080684 L28.3927976,43.2293489 L29.6234409,43.6068217 L29.5852161,43.6120211 L29.1755152,44.5922854 C29.1755152,44.5922854 33.5974351,45.0820709 34.498499,44.7555473 C34.5499288,44.7555473 33.3368112,44.2057951 32.4301873,43.7978138 C32.6581464,42.653941 34.1264282,31.3995848 34.2039203,29.4276175 C34.2855825,27.3447292 35.9670282,24.4323944 22.6425412,24.1561318 C19.5828159,25.3447196 14.4655513,25.506595 14.4655513,25.506595 Z" id="Fill-699" fill="#0D2E4E"></path>
                        <path d="M24.5534361,4.19489341 C24.5534361,4.19489341 25.2804032,2.37474919 28.1625568,2.73870871 C29.365597,2.89469136 29.9671171,4.03891076 29.9671171,4.03891076 L24.5534361,4.19489341 Z" id="Fill-701" fill="#FCB614"></path>
                        <path d="M10.1147644,32.59975 C10.1529892,32.3532974 9.98375741,32.1224431 9.73668589,32.084314 C9.48961437,32.0458383 9.2581803,32.2149928 9.21960795,32.4614454 C9.1813831,32.707898 9.35096243,32.9390989 9.59803394,32.9768814 C9.84510546,33.0150105 10.0765395,32.8462026 10.1147644,32.59975" id="Fill-703" fill="#15D48F"></path>
                        <path d="M12.5313045,38.6857424 C10.9227334,38.2174478 11.1913498,36.192793 12.165736,35.2114888 C13.1005072,34.2703935 14.5655614,33.7476783 15.7710341,34.5643341 C17.0307166,35.3116644 17.4477149,37.2673402 16.7846876,38.5075755 C15.9413084,40.08612 13.8187869,39.060794 12.5313045,38.6857424" id="Fill-705" fill="#FC223C"></path>
                    </g>
                    <g id="Group-710" transform="translate(12.452631, 36.519353)">
                        <mask id="mask-2" fill="white">
                            <use xlink:href="#path-1"></use>
                        </mask>
                        <g id="Clip-709"></g>
                        <polygon id="Fill-708" fill="#FFFFFF" mask="url(#mask-2)" points="-0.263890449 3.27636358 3.13151853 4.67431475 4.5951827 1.13697487 1.19977372 -0.260976305"></polygon>
                    </g>
                    <g id="Group-796" transform="translate(1.332675, 0.129292)">
                        <path d="M2.49403232,37.3229757 C2.49403232,37.3229757 6.8944073,37.5670019 9.47701701,38.1101681 C9.64138386,37.3316414 10.0465672,36.9947189 10.0465672,36.9947189 C10.0465672,36.9947189 6.88710982,36.271306 3.24949431,36.271306 C2.69210653,36.7551988 2.49403232,37.3229757 2.49403232,37.3229757" id="Fill-711" fill="#FC223C"></path>
                        <path d="M23.5086984,44.3063189 C23.5086984,44.3063189 20.595965,41.3454216 16.5562936,39.9609889 C16.7338654,39.2053396 16.5562936,38.6008202 16.5562936,38.6008202 C16.5562936,38.6008202 22.1642262,40.553723 25.483533,44.6012995 C25.3083937,44.6706251 23.5086984,44.3063189 23.5086984,44.3063189" id="Fill-713" fill="#FF4C5A"></path>
                        <path d="M26.6012623,4.55240735 C14.4329033,4.55240735 4.5330152,14.427149 4.5330152,26.5653722 C4.5330152,38.7032488 14.4329033,48.5783371 26.6012623,48.5783371 C38.7696214,48.5783371 48.6691619,38.7032488 48.6691619,26.5653722 C48.6691619,14.427149 38.7696214,4.55240735 26.6012623,4.55240735 M26.6012623,53.0845026 C11.9416857,53.0845026 0.0155331881,41.1878791 0.0155331881,26.5653722 C0.0155331881,11.9425187 11.9416857,0.0462418977 26.6012623,0.0462418977 C41.2604914,0.0462418977 53.186644,11.9425187 53.186644,26.5653722 C53.186644,41.1878791 41.2604914,53.0845026 26.6012623,53.0845026" id="Fill-715" fill="#E40015"></path>
                        <polygon id="Fill-717" fill="#E40015" points="14.7323428 48.4157685 11.1610996 45.6562621 41.1606551 7.02039951 44.7322459 9.77990591"></polygon>
                        <path d="M16.8066316,6.80514345 C16.8066316,6.80514345 16.1456892,3.50905674 18.9937879,1.81577841 C21.0766946,0.46808831 25.6275364,0.350928008 27.4532942,4.56315282 C27.4532942,4.56315282 21.346006,4.53195629 16.8066316,6.80514345" id="Fill-719" fill="#A80428"></path>
                        <path d="M47.456079,36.9191539 L47.4557315,36.9191539 C48.4593075,38.0477751 49.2804468,38.9860974 49.7405349,39.5393158 L50.3125177,38.6450153 L46.9942534,35.0591475 L46.4848204,35.8314349 C46.8107741,36.1953944 47.1245653,36.547222 47.4234142,36.8831046 C47.4425266,36.9045956 47.456079,36.9191539 47.456079,36.9191539" id="Fill-721" fill="#A80428"></path>
                        <path d="M43.452061,40.1697977 C43.6477027,40.7580256 43.8468194,41.356999 44.0386386,41.9337882 C44.3583374,41.8831805 44.6829011,41.8492109 45.0161522,41.8492109 C46.0305007,41.8492109 46.9857744,42.0984365 47.838536,42.5310284 C47.965373,42.4738348 48.604423,41.4221651 49.0283713,40.7070713 C48.4522186,40.5964969 47.6143994,40.3604432 46.3818218,39.924385 C45.3518359,39.5597322 44.3718898,39.7073958 43.452061,40.1697977" id="Fill-723" fill="#A80428"></path>
                        <path d="M41.5756032,42.8883327 C41.4661411,42.5718612 41.3545941,42.2488038 41.242352,41.9236666 C38.8880489,44.4474659 37.1175434,48.3043969 36.1911121,48.8538025 C34.9543646,49.6423814 27.2537952,49.0510339 22.4343369,48.5498096 C21.2222617,48.5186131 19.9834292,48.375109 18.7247892,48.1023127 C18.6167171,48.0839414 18.5472174,48.0697297 18.5256725,48.0607173 C18.5256725,48.0607173 24.7462452,51.0749954 35.5173123,50.7862542 C36.5785731,50.8219569 37.7103761,49.6042523 38.6131775,48.3016239 C38.6659973,46.0242772 39.8325501,44.0356717 41.5756032,42.8883327" id="Fill-725" fill="#A80428"></path>
                        <path d="M45.269305,45.9710698 C45.269305,45.9714164 45.269305,45.9721097 45.269305,45.9721097 L45.269305,45.9721097 L45.2689575,45.9721097 C45.2154427,46.1724607 45.0729683,46.3547871 44.8794115,46.5066102 C45.2213502,47.485488 45.4732867,48.2092475 45.5344464,48.3908806 C45.9570047,49.4595351 44.8710716,49.8546911 44.5249629,49.0432347 C44.4982056,49.0189708 44.2035267,48.1582932 43.7986908,46.9496009 C43.4014999,47.0005553 43.0487888,46.9201375 42.9195193,46.6601665 C42.3113968,46.7981244 41.8242037,46.8972601 41.8242037,46.8972601 C41.8242037,46.8972601 41.6984092,46.8282811 41.5434248,46.7495965 C41.3022608,47.2684988 41.1636088,47.8477144 41.1636088,48.4615928 C41.1636088,48.7971288 41.2080887,49.1215727 41.2841909,49.4324981 C41.7557465,49.2772087 42.3179992,49.4033813 42.8972794,49.6796439 C43.0039615,49.8775686 43.1370535,50.0644011 43.2996828,50.2321692 C43.7128587,50.6581751 44.2379291,50.8983884 44.7768994,50.9531556 C45.396837,51.4692849 45.9135674,51.9718956 46.2092887,52.2391459 C47.1093102,51.9368862 47.8612972,51.3018635 48.3342428,50.4748088 C47.6076232,50.3240256 47.3727141,49.9839834 47.2973069,49.4127403 C47.2945269,49.38501 47.2927894,49.3590129 47.2903569,49.3323226 C47.4328314,48.9368199 47.4741837,48.5122005 47.4158039,48.0993664 C47.6663504,47.5250036 48.1584085,47.6120073 48.1584085,47.6120073 L47.3796641,45.327728 C46.7885689,44.8525009 46.0609068,44.5533608 45.266525,44.5006733 C45.2564475,44.8646328 45.2474126,45.2705344 45.2477601,45.5655149 C45.3002324,45.7058993 45.3037073,45.8424707 45.269305,45.9710698" id="Fill-727" fill="#3A3B44"></path>
                        <path d="M47.8383623,42.5308551 C46.9859481,42.0986098 46.030327,41.8490376 45.016326,41.8490376 C44.6830748,41.8490376 44.3581636,41.8833538 44.0388124,41.9336149 C44.3651136,42.9145724 44.6677849,43.8251645 44.890879,44.4941567 C44.9329263,44.4927702 44.9739312,44.4879174 45.016326,44.4879174 C45.1007682,44.4879174 45.1831253,44.4951966 45.266525,44.5007426 C46.0609068,44.5534301 46.7885689,44.8525702 47.3796641,45.3274507 C48.284898,46.0546765 48.8693906,47.1867639 48.8693906,48.4613155 C48.8693906,49.1972069 48.6720114,49.8838772 48.3342428,50.4748782 C47.8612972,51.3019328 47.1093102,51.9369555 46.2092887,52.2392152 C45.8332952,52.3653879 45.4329768,52.4354068 45.016326,52.4354068 C43.2138507,52.4354068 41.7050117,51.1570423 41.2841909,49.4325674 C41.2080887,49.121642 41.1636088,48.7971981 41.1636088,48.4613155 C41.1636088,47.8477837 41.3022608,47.2685681 41.5434248,46.7496658 C41.7699939,46.2619601 42.0886501,45.8300615 42.4781961,45.477194 C42.2373796,44.7957232 41.9176808,43.8775053 41.5757422,42.8882287 C39.8326891,44.0355677 38.6657888,46.0241732 38.612969,48.3015199 C38.6119265,48.3555939 38.605324,48.4075881 38.605324,48.4613155 C38.605324,52.1137359 41.4756626,55.0742866 45.016326,55.0742866 C48.5569894,55.0742866 51.4276755,52.1137359 51.4276755,48.4613155 C51.4276755,45.8557119 49.9622738,43.6081753 47.8383623,42.5308551" id="Fill-729" fill="#3A3B44"></path>
                        <path d="M41.242352,41.9235973 C41.3545941,42.2487345 41.4661411,42.5717919 41.5756032,42.8882633 C41.9178893,43.87754 42.2372406,44.7957578 42.4780571,45.4772287 C42.7233911,46.1708316 42.887063,46.6200616 42.9061754,46.6377396 C42.9096504,46.6460587 42.9155579,46.6526446 42.9193803,46.6602704 C43.0489973,46.9202415 43.4017084,47.0003126 43.7985518,46.9497049 C44.2033877,48.1580505 44.4984141,49.0190748 44.5248239,49.0433387 C44.8709326,49.8547951 45.9572132,49.4596391 45.5346549,48.3909846 C45.4731477,48.2093515 45.2212112,47.485592 44.87962,46.5067142 C45.0728293,46.3548911 45.2156512,46.1725647 45.2688185,45.9722136 C45.269166,45.971867 45.269166,45.9715204 45.269166,45.9711738 C45.3035683,45.8425747 45.3004409,45.7060033 45.2476211,45.5656189 C45.2458836,45.5607661 45.2458836,45.5562599 45.2441461,45.5521004 C45.2010563,45.4252345 45.0721343,45.0387441 44.8910875,44.4941914 C44.6679934,43.8251991 44.3649746,42.9146071 44.0386734,41.9336495 C43.8468541,41.3568603 43.6477374,40.7582336 43.4520957,40.1696591 C42.6695288,40.563082 41.9310943,41.1852794 41.242352,41.9235973" id="Fill-731" fill="#5B6072"></path>
                        <path d="M38.7056816,25.1818408 C38.8940259,25.0969169 39.0625627,24.9787167 39.1855772,24.8012431 C39.4420312,24.4313909 39.4580161,23.5173326 39.0253803,22.6812656 C38.7630189,22.173802 38.4155203,21.7103602 38.0284068,21.3006458 C38.0363993,21.320057 38.0395268,21.3384283 38.0357043,21.3536799 L38.0357043,21.3540265 C37.8852374,21.3911158 36.5324253,21.4257786 35.4173022,21.5918134 L34.1923696,23.1745174 C34.9443566,24.5031429 37.0901606,25.2234362 38.7056816,25.1818408" id="Fill-733" fill="#F8F6E4"></path>
                        <path d="M38.620475,25.2211137 C38.6103975,25.2252733 38.60032,25.2287396 38.5902426,25.2332457 C38.60032,25.2294328 38.6103975,25.2249267 38.620475,25.2211137" id="Fill-735" fill="#F8F6E4"></path>
                        <path d="M18.1177439,47.8484076 C18.1302538,47.8411284 18.1438062,47.833156 18.1559687,47.8258768 C17.9832619,47.7003974 17.7712877,47.5350558 17.5332512,47.3423306 L18.1177439,47.8484076 Z" id="Fill-737" fill="#3A3B44"></path>
                        <path d="M31.3767968,46.8176743 C34.9542951,46.8121282 35.6166274,45.3292532 35.9304187,44.75801 C35.973161,44.6817518 36.1187629,44.4380723 36.1503853,44.3909309 C36.1521228,44.3888511 36.1535128,44.3860781 36.1549028,44.3839983 C36.22753,44.2612919 36.3025897,44.1396255 36.3766069,44.0200388 C36.8992448,43.166987 37.3735804,42.2816988 37.7961387,41.3714534 C37.7961387,41.2321089 37.974058,40.9814968 38.0310478,40.8511646 C38.11271,40.6657185 38.1919397,40.4795792 38.2697794,40.2927467 C38.5943431,39.5128334 38.9637341,38.7145489 39.2076781,37.8892274 C39.2962903,37.5897407 39.3682225,37.2860945 39.4151348,36.9789819 C39.4561396,36.7141581 39.4683021,36.4576533 39.4530121,36.2060013 C39.4342472,35.8791309 39.369265,35.5616196 39.2632779,35.2430684 C39.232003,35.1480923 39.1965582,35.0524229 39.1572908,34.9564069 C38.979719,34.5206954 38.7354275,34.1182601 38.489746,33.717558 C38.4845335,33.7220642 38.4768885,33.7248372 38.4716761,33.7289968 C38.4716761,33.7289968 38.2124421,33.2672881 37.9511231,32.8007267 C37.4986799,31.9982826 37.0455417,31.1968784 36.5924035,30.3954742 C36.4857215,30.2058686 36.3786919,30.0162631 36.2716623,29.8266575 C36.1969501,29.7216292 36.1253654,29.6134812 36.0492632,29.5091461 C35.0411697,28.1299129 33.840562,26.8106463 32.2771657,26.1912218 C32.2302534,26.1725039 32.1770861,26.1558658 32.1228763,26.138881 C32.0537241,26.133335 31.9845719,26.1250159 31.9150722,26.1170434 L31.8094326,26.2539615 C32.7111915,27.9735836 35.8692589,34.2489389 36.1910426,35.3210597 C36.7960377,37.334969 35.3309836,40.5097359 34.2599928,42.7957483 C34.2464404,42.8252117 34.2356679,42.855715 34.2228105,42.8851783 C34.0455862,43.2910799 33.2379994,44.9386033 31.8348,44.8609586 C31.6335983,44.8498665 31.4456015,44.8380811 31.2635123,44.8262958 C31.1835876,45.2304642 31.1259028,45.5219784 31.0974079,45.6637493 C32.0040318,46.0717306 33.2171495,46.6214828 33.1657197,46.6214828 C32.2650033,46.9480064 27.8427359,46.4578743 27.8427359,46.4578743 L28.2524367,45.4779566 L28.2906616,45.4727572 L26.4576064,45.1295954 L26.5906984,44.3118997 C26.4937462,44.3004609 26.3936666,44.2886756 26.2911546,44.2772368 C26.2828146,44.3105131 26.2807296,44.3448293 26.2689146,44.3774124 C26.1983724,44.5715241 25.7049244,44.5940549 25.4804403,44.5978678 C25.4814828,44.5989077 25.4825253,44.6002942 25.4835678,44.6009875 C25.3084285,44.6706597 23.5087331,44.3063536 23.5087331,44.3063536 C23.5087331,44.3063536 23.4687708,44.2664914 23.4037886,44.2037517 C21.7239802,43.8699488 19.4485593,43.433544 18.5857202,43.3430741 L17.6645014,44.5337416 C21.2621546,45.7181699 25.8345414,46.3479932 27.4354675,46.5216539 C28.7458848,46.6634248 30.061167,46.7469621 31.3767968,46.8176743" id="Fill-739" fill="#3A3B44"></path>
                        <path d="M25.4805445,44.5977639 C25.7050286,44.5939509 26.1984767,44.5714201 26.2690189,44.3773084 C26.2808338,44.345072 26.2829188,44.3104092 26.2912588,44.2771329 C26.373616,43.9509558 26.3058537,43.5953154 26.1974342,43.2732978 C25.9100528,42.4188595 25.602864,42.2088029 25.4895795,41.312076 C25.3905424,40.5269633 25.6490814,39.7460102 25.8999754,38.9979867 C26.0483573,38.5546494 26.5237354,37.6291523 26.7732394,36.8020976 C26.0539173,36.807297 25.0221939,36.7393579 23.7951762,36.6107589 L20.6979211,40.6136203 C22.3075347,41.5834858 24.0933301,42.9069119 25.4805445,44.5977639" id="Fill-741" fill="#FFE600"></path>
                        <path d="M22.4344759,48.5498096 C27.2539342,49.0510339 34.9545036,49.6423814 36.1912511,48.8538025 C37.1176824,48.3043969 38.8881879,44.4474659 41.242491,41.9236666 C41.9312333,41.1853487 42.6696678,40.5631513 43.4518872,40.1697284 C44.3720636,39.7073265 45.3516622,39.5596629 46.3819956,39.9243157 C47.6142256,40.3603738 48.4520448,40.5967742 49.028545,40.707002 C50.0925858,40.9104727 50.2503501,40.6775386 50.2503501,40.4307393 C50.2503501,40.2997139 50.2149053,40.1777008 50.153398,40.0737124 C50.153398,40.0730191 50.153398,40.0723259 50.152703,40.0723259 C50.1429731,40.056381 50.1325481,40.0400895 50.1214282,40.0237979 C50.1200382,40.0217182 50.1186482,40.0206783 50.1176057,40.0185985 C50.0644384,39.9364477 49.9320414,39.7693729 49.7405697,39.5392118 C49.2804815,38.9859934 48.4593423,38.0476711 47.4554188,36.9190499 C47.4470788,36.9145438 39.7277446,32.7016257 38.489607,33.7175927 C38.7352885,34.1182948 38.9799275,34.52073 39.1574993,34.9564416 C39.1967667,35.0524576 39.231864,35.1481269 39.2634864,35.243103 C39.3694735,35.5616543 39.4341082,35.8791656 39.4532206,36.2060359 C39.4681631,36.4576879 39.4563481,36.7138461 39.4149958,36.9790166 C39.3680835,37.2861291 39.2961513,37.5897753 39.2078866,37.889262 C38.9635951,38.7145836 38.5942041,39.5128681 38.2696404,40.2927814 C38.1918007,40.4796139 38.1129185,40.6657532 38.0309088,40.8511992 C37.973919,40.9815314 37.7963472,41.2321435 37.7963472,41.371488 C37.3734414,42.2817335 36.8991058,43.1670217 36.3768154,44.0200734 C36.3027982,44.1396601 36.227391,44.2613266 36.1547638,44.384033 C36.1533738,44.3861127 36.1523313,44.3888858 36.1502463,44.3909655 C36.1189714,44.4381069 35.973022,44.6817865 35.9302797,44.7580447 C35.6164884,45.3292878 34.9545036,46.8121629 31.3766578,46.8177089 C30.0613755,46.7469968 28.7457458,46.6634594 27.435676,46.5213419 C25.8344024,46.3476812 21.2620156,45.7182046 17.6643624,44.5337763 L16.3105078,46.2832084 L17.5333554,47.3425039 C17.771392,47.5348825 17.9830186,47.7005707 18.1557255,47.8257035 C18.3169648,47.9421705 18.4455393,48.0257079 18.5258115,48.0607173 C18.5470089,48.0697297 18.6165086,48.0839414 18.7245807,48.1023127 C19.2298437,48.1872366 20.6288731,48.3619372 22.4344759,48.5498096" id="Fill-743" fill="#FFE600"></path>
                        <path d="M47.4235184,36.8829313 C47.1246696,36.5470487 46.8105308,36.1955677 46.4845771,35.8316082 C46.1916358,35.5040447 45.890007,35.1688553 45.5821232,34.8267333 C46.2218682,35.5397474 47.2379541,36.6756477 47.4235184,36.8829313" id="Fill-745" fill="#FFE600"></path>
                        <path d="M38.0357738,21.3537146 C38.0395963,21.3384629 38.0361213,21.3200917 38.0284763,21.3006805 C37.9707915,21.1526703 37.6246829,20.8968587 37.5433682,20.8195607 C37.354329,20.6417404 37.1638998,20.4670399 36.9633931,20.3041247 C36.8466335,20.2094952 36.7302215,20.1228382 36.6148519,20.0441536 L35.4170242,21.5918481 C36.5321473,21.4258132 37.8853069,21.3911504 38.0357738,21.3540612 L38.0357738,21.3537146 Z" id="Fill-747" fill="#FFE600"></path>
                        <path d="M32.27727,26.1912565 C33.8406662,26.8106809 35.041274,28.1299475 36.0490199,29.5091808 C36.1254696,29.6135159 36.1967069,29.7216638 36.2717666,29.8266921 C36.3784486,30.0162977 36.4858257,30.2059033 36.5925078,30.3955089 C37.045646,31.1965664 37.4984367,31.9983173 37.9512274,32.8004147 C37.7621881,32.4627989 37.5721064,32.1217169 37.4789768,31.9518691 C40.3458403,31.4776818 44.4390265,33.5619567 45.5527596,34.793873 C42.3939972,31.2859965 38.6615145,27.2242083 38.044357,26.6470725 L37.9661698,26.6245416 C37.7375157,26.4789578 37.1603205,26.2383979 36.1004497,26.4626663 C36.0563174,26.366997 36.0080151,26.2734074 35.9569328,26.1815509 C35.9572803,26.1191579 35.9576278,26.0567648 35.9579753,25.9943717 C35.9579753,25.9461904 35.9593653,25.8952361 35.9875127,25.8560671 C36.0222626,25.8089257 36.0858548,25.7981802 36.1428446,25.7905544 C36.5938978,25.7316276 37.6614135,25.6193201 38.5902773,25.2331764 C38.6003548,25.2290169 38.6104322,25.225204 38.6205097,25.2210444 C38.6524796,25.2075259 38.6858394,25.1964338 38.7174618,25.1818754 C38.7136393,25.1822221 38.7094694,25.1818754 38.7056469,25.1818754 C37.0901258,25.2234708 34.9443218,24.5031776 34.1923348,23.1745521 L31.9151764,26.1170781 C31.9843286,26.1250505 32.0538284,26.1333696 32.1229806,26.1389157 C32.1771904,26.1555538 32.2300102,26.1725386 32.27727,26.1912565" id="Fill-749" fill="#FFE600"></path>
                        <path d="M19.9515983,41.5779744 L18.5859287,43.3430048 C19.4484203,43.4338213 21.7238412,43.8698795 23.4039971,44.2036824 C23.0530235,43.8653733 21.789866,42.6972366 19.9515983,41.5779744" id="Fill-751" fill="#FFE600"></path>
                        <path d="M27.8131985,36.6495119 C27.822581,36.6415395 27.8319634,36.6339137 27.8413459,36.6259412 L28.6120843,32.1783163 C28.4055632,32.1438212 27.1154213,32.3263201 27.2106359,32.3142341 C27.180056,32.3163139 27.1470436,32.318047 27.1154213,32.3201268 L23.795072,36.6106896 C25.0220896,36.7392886 26.053813,36.8075743 26.7731351,36.8020283 C27.3256579,36.7975221 27.696439,36.7503807 27.8131985,36.6495119 Z" id="Fill-753" fill="#3A3B44"></path>
                        <path d="M37.479081,31.9519384 C37.5722106,32.1217862 37.7622924,32.4628683 37.9513316,32.800484 C38.2123031,33.2673921 38.4718846,33.7291008 38.4718846,33.7291008 C38.477097,33.7245946 38.4843945,33.7218216 38.489607,33.717662 C39.7277446,32.701695 47.4470788,36.9142665 47.4554188,36.9191193 L47.4561138,36.9191193 C47.4561138,36.9191193 47.4425613,36.9045609 47.4234489,36.8830699 C47.2378846,36.6757863 46.2217987,35.539886 45.5820537,34.826872 C45.5730188,34.8164731 45.5629413,34.8050344 45.5539064,34.7949822 L45.5528639,34.7939423 C44.4391308,33.562026 40.3459446,31.4777512 37.479081,31.9519384" id="Fill-755" fill="#FC223C"></path>
                        <path d="M23.4038581,44.2037517 C23.4688403,44.2664914 23.5088026,44.3063536 23.5088026,44.3063536 C23.5088026,44.3063536 25.308498,44.6706597 25.4832898,44.6009875 C25.4825948,44.6002942 25.4815523,44.5989077 25.4805098,44.5978678 C24.0932953,42.9070159 22.3074999,41.5832432 20.6978863,40.6137243 L19.9514593,41.5780437 C21.789727,42.6973059 23.0528845,43.865096 23.4038581,44.2037517" id="Fill-759" fill="#FC223C"></path>
                        <path d="M21.6753652,10.8299464 C20.3903153,10.6011719 17.0452936,8.1155017 19.0354182,4.14556994 C20.9282432,0.369403286 27.1581984,1.55244503 27.2308271,5.85271339 C27.2318681,5.92238564 26.7106201,5.85929932 26.3850139,5.93729065 C24.6708033,6.34769833 22.8745829,11.0431227 21.6753652,10.8299464" id="Fill-761" fill="#FFE600"></path>
                        <path d="M26.804688,5.8526094 C26.804688,5.8526094 27.6275647,9.20484987 26.2108129,11.6804678 C25.7260523,12.0676514 24.3443978,11.7335019 24.3443978,11.7335019 C24.3443978,11.7335019 24.0160116,13.812924 23.7550402,14.7824428 C23.6525281,14.8157191 21.530354,15.0074045 20.6195601,11.7619255 C20.8631567,11.5189391 21.2693826,11.1539397 21.5939463,10.8707446 C21.7249532,10.7560107 22.3337708,10.7868606 22.789689,9.67383771 C23.2157223,8.63360674 23.0881903,6.29178722 23.2209348,6.0609329 C23.3210144,5.98294157 26.3723997,5.94377259 26.804688,5.8526094" id="Fill-763" fill="#F5FCFF"></path>
                        <path d="M22.2397029,10.5276867 C22.2758428,10.6091443 23.115052,11.9904574 24.2176651,12.4247824 C24.2395575,12.3100485 24.3445021,11.7336059 24.3445021,11.7336059 C24.3445021,11.7336059 22.6146539,10.9429472 22.2397029,10.5276867" id="Fill-765" fill="#A4DEF8"></path>
                        <path d="M26.1139303,7.98856649 C26.1118453,8.31023738 26.0117657,8.60937744 25.8321089,8.83295257 C25.6639196,9.04058281 25.4453429,9.15566334 25.2121714,9.15566334 C24.7190708,9.15219706 24.3211849,8.62289593 24.3257024,7.97574125 C24.3295249,7.33170622 24.7319283,6.80795114 25.2271138,6.80795114 C25.4575054,6.80933765 25.6764295,6.92753784 25.8432288,7.13967424 C26.0197581,7.36498252 26.1163628,7.66620235 26.1139303,7.98856649 M28.2260269,8.04887978 C28.2225519,8.58164719 27.948028,9.04890188 27.6387542,9.04890188 L27.6387542,9.11857413 L27.6366692,9.04890188 C27.4973223,9.04820863 27.3607553,8.95392578 27.2519882,8.78477126 C27.1261937,8.58892638 27.058084,8.32444913 27.060169,8.04056071 C27.0632965,7.5077933 27.3378204,7.04088523 27.6495266,7.04088523 C27.9601904,7.04261837 28.2298493,7.5140326 28.2260269,8.04887978 M27.6523066,6.66895327 L27.6470942,6.66895327 C27.1866585,6.66895327 26.8075375,7.10223841 26.7074579,7.73206169 C26.6209307,7.71577017 26.5375311,7.71230388 26.4579539,7.7199297 C26.4162541,7.41247057 26.3043595,7.13620796 26.1323477,6.91679237 C25.8950061,6.61418603 25.5746124,6.44641802 25.2298938,6.44364499 L25.2222488,6.44364499 C24.8869126,6.44364499 24.5710364,6.60344055 24.3316099,6.89391491 C24.0939208,7.18300276 23.9615238,7.56602682 23.9587029,7.97296822 C23.9531839,8.82047396 24.5143941,9.51442344 25.2170363,9.51996949 C25.558975,9.51996949 25.8790212,9.35601439 26.1181002,9.05964736 C26.3154795,8.81527454 26.4395365,8.48944411 26.4687263,8.13900309 C26.5177237,8.12999076 26.5903509,8.12860425 26.685913,8.1539081 C26.7012029,8.4658734 26.7873826,8.75773427 26.930552,8.98026952 C27.1109038,9.26207817 27.3611028,9.41840745 27.6394492,9.42048722 C28.1763345,9.42048722 28.6009779,8.81908745 28.6062323,8.05165281 C28.6110553,7.279712 28.191972,6.6731128 27.6523066,6.66895327" id="Fill-767" fill="#4A377B"></path>
                        <path d="M23.220761,6.06079424 C23.220761,6.06079424 23.9477281,4.24065003 26.8298817,4.60460955 C28.0329219,4.7605922 28.634442,5.90481159 28.634442,5.90481159 L23.220761,6.06079424 Z" id="Fill-769" fill="#4A377B"></path>
                        <path d="M32.2593043,27.0926976 L37.2243645,20.5518251 C37.2243645,20.5518251 36.8681784,20.166028 36.6325744,20.0436683 C36.5317998,20.0838772 31.7828837,26.3256096 31.7828837,26.3256096 L32.2593043,27.0926976 Z" id="Fill-771" fill-opacity="0.2" fill="#560019"></path>
                        <polygon id="Fill-773" fill-opacity="0.2" fill="#231F20" points="16.7409891 46.6338574 28.2643261 32.5256952 28.5465555 32.1801584 27.2528222 32.3080641 28.566367 32.1801584 32.333947 28.1069314 31.0190122 27.304834 16.3107858 46.2834164"></polygon>
                        <path d="M5.22074971,29.3864051 C5.22074971,29.3864051 6.57078183,35.315479 8.92994994,38.3145054 C10.7046254,40.7301567 13.1892405,42.9794265 13.1892405,42.9794265 L12.6881475,43.6664434 C12.6881475,43.6664434 8.82570036,40.8757405 6.34143275,35.3990163 C4.87985357,31.5878403 4.68977182,29.034231 4.68977182,29.034231 L5.22074971,29.3864051 Z" id="Fill-775" fill-opacity="0.2" fill="#231F20"></path>
                        <path d="M20.7280492,10.4850168 C20.7360417,10.4850168 21.7410077,10.4319827 22.1468861,9.79245385 C22.4794422,9.2777111 22.5093271,8.6069857 22.541297,7.89709133 C22.5718769,7.21874012 22.6031517,6.51751145 22.909993,5.90571283 C23.8899391,4.0595715 25.676777,3.85506092 26.7043304,3.92300003 C26.7043304,3.92300003 26.9500119,4.27517419 27.0341066,4.64606627 C26.2939345,4.53410539 24.4494119,4.48696397 23.5278456,6.22287755 C23.2908515,6.69533167 23.2640941,7.29430504 23.2355992,7.92794123 C23.2011969,8.69884215 23.1654045,9.49574018 22.7327687,10.1657723 C22.6208742,10.342206 22.4874347,10.4884831 22.3421803,10.6063367 C21.656218,11.1623281 20.7280492,10.4850168 20.7280492,10.4850168" id="Fill-795" fill="#E20026"></path>
                    </g>
                </g>
            </g>
        </g>
    </g>
</svg>