<svg xmlns="http://www.w3.org/2000/svg" xmlns:xlink="http://www.w3.org/1999/xlink" width="157" height="266" viewBox="0 0 157 266">
    <defs>
        <path id="prefix__a" d="M0.266 0.293L0.266 83.697 27.934 83.697 27.934 145.591 96.952 226.411 143.824 226.411 143.824 0.293z"/>
        <path id="prefix__c" d="M0.266 0.293L0.266 83.697 27.934 83.697 27.934 145.591 96.952 226.411 143.824 226.411 143.824 0.293"/>
        <path id="prefix__e" d="M0.266 0.293L0.266 83.697 27.934 83.697 27.934 145.591 96.952 226.411 143.824 226.411 143.824 0.293"/>
        <path id="prefix__g" d="M0.266 0.293L0.266 83.697 27.934 83.697 27.934 145.591 96.952 226.411 143.824 226.411 143.824 0.293"/>
        <path id="prefix__i" d="M0.266 0.293L0.266 83.697 27.934 83.697 27.934 145.591 96.952 226.411 143.824 226.411 143.824 0.293"/>
        <path id="prefix__k" d="M0.266 0.293L0.266 83.697 27.934 83.697 27.934 145.591 96.952 226.411 143.824 226.411 143.824 0.293"/>
        <path id="prefix__m" d="M0.266 0.293L0.266 83.697 27.934 83.697 27.934 145.591 96.952 226.411 143.824 226.411 143.824 0.293"/>
        <path id="prefix__o" d="M0.266 0.293L0.266 83.697 27.934 83.697 27.934 145.591 96.952 226.411 143.824 226.411 143.824 0.293"/>
        <path id="prefix__q" d="M0.266 0.293L0.266 83.697 27.934 83.697 27.934 145.591 96.952 226.411 143.824 226.411 143.824 0.293"/>
        <path id="prefix__s" d="M0.266 0.293L0.266 83.697 27.934 83.697 27.934 145.591 96.952 226.411 143.824 226.411 143.824 0.293"/>
        <path id="prefix__u" d="M0.266 0.293L0.266 83.697 27.934 83.697 27.934 145.591 96.952 226.411 143.824 226.411 143.824 0.293"/>
        <path id="prefix__w" d="M0.266 0.293L0.266 83.697 27.934 83.697 27.934 145.591 96.952 226.411 143.824 226.411 143.824 0.293"/>
        <path id="prefix__y" d="M0.266 0.293L0.266 83.697 27.934 83.697 27.934 145.591 96.952 226.411 143.824 226.411 143.824 0.293"/>
        <path id="prefix__A" d="M0.266 0.293L0.266 83.697 27.934 83.697 27.934 145.591 96.952 226.411 143.824 226.411 143.824 0.293"/>
        <path id="prefix__C" d="M0.266 0.293L0.266 83.697 27.934 83.697 27.934 145.591 96.952 226.411 143.824 226.411 143.824 0.293"/>
        <path id="prefix__E" d="M0.266 0.293L0.266 83.697 27.934 83.697 27.934 145.591 96.952 226.411 143.824 226.411 143.824 0.293"/>
        <path id="prefix__G" d="M0.266 0.293L0.266 83.697 27.934 83.697 27.934 145.591 96.952 226.411 143.824 226.411 143.824 0.293"/>
        <path id="prefix__I" d="M0.266 0.293L0.266 83.697 27.934 83.697 27.934 145.591 96.952 226.411 143.824 226.411 143.824 0.293"/>
        <path id="prefix__K" d="M0.058 0.198L44.245 0.198 44.245 54.376 0.058 54.376z"/>
    </defs>
    <g fill="none" fill-rule="evenodd">
        <g transform="translate(0 -8) translate(18)">
            <mask id="prefix__b" fill="#fff">
                <use xlink:href="#prefix__a"/>
            </mask>
            <path fill="#E9E9EE" fill-rule="nonzero" d="M27.246 221.04c-11.393 0-17.492-7.019-17.492-15.645V23.91c0-8.626 7.055-15.644 15.726-15.644h97.307c8.672 0 15.726 7.018 15.726 15.644v181.485c0 8.626-6.105 15.644-13.96 15.644H27.246z" mask="url(#prefix__b)"/>
            <mask id="prefix__d" fill="#fff">
                <use xlink:href="#prefix__c"/>
            </mask>
            <path fill="#FFF" fill-rule="nonzero" d="M122.787 13.086H25.48c-6.01 0-10.88 4.846-10.88 10.824v181.486c0 5.977 4.87 10.822 10.88 10.822h97.307c6.01 0 10.88-4.845 10.88-10.822V23.91c0-5.978-4.87-10.824-10.88-10.824" mask="url(#prefix__d)"/>
            <mask id="prefix__f" fill="#fff">
                <use xlink:href="#prefix__e"/>
            </mask>
            <path fill="#E9E9EE" fill-rule="nonzero" d="M92.539 18.24H55.728c-1.942 0-3.517-1.566-3.517-3.498v-2.325c0-1.932 1.575-3.498 3.517-3.498h36.811c1.942 0 3.517 1.566 3.517 3.498v2.325c0 1.932-1.575 3.499-3.517 3.499" mask="url(#prefix__f)"/>
            <mask id="prefix__h" fill="#fff">
                <use xlink:href="#prefix__g"/>
            </mask>
            <path fill="#E9E9EE" fill-rule="nonzero" d="M125.351 60.052H23.44c-1.482 0-2.683-1.195-2.683-2.669V34.17c0-1.474 1.201-2.67 2.683-2.67H125.35c1.481 0 2.683 1.196 2.683 2.67v23.213c0 1.474-1.202 2.669-2.683 2.669" mask="url(#prefix__h)"/>
            <mask id="prefix__j" fill="#fff">
                <use xlink:href="#prefix__i"/>
            </mask>
            <path fill="#E9E9EE" fill-rule="nonzero" d="M125.351 93.32H23.44c-1.482 0-2.683-1.194-2.683-2.668V67.438c0-1.473 1.201-2.668 2.683-2.668H125.35c1.481 0 2.683 1.195 2.683 2.668v23.214c0 1.474-1.202 2.669-2.683 2.669" mask="url(#prefix__j)"/>
            <mask id="prefix__l" fill="#fff">
                <use xlink:href="#prefix__k"/>
            </mask>
            <path fill="#E9E9EE" fill-rule="nonzero" d="M125.351 126.59H23.44c-1.482 0-2.683-1.195-2.683-2.669v-23.214c0-1.474 1.201-2.668 2.683-2.668H125.35c1.481 0 2.683 1.194 2.683 2.668v23.214c0 1.474-1.202 2.669-2.683 2.669" mask="url(#prefix__l)"/>
            <g>
                <mask id="prefix__n" fill="#fff">
                    <use xlink:href="#prefix__m"/>
                </mask>
                <path fill="#E9E9EE" fill-rule="nonzero" d="M125.351 159.859H23.44c-1.482 0-2.683-1.195-2.683-2.669v-23.214c0-1.473 1.201-2.668 2.683-2.668H125.35c1.481 0 2.683 1.195 2.683 2.668v23.214c0 1.474-1.202 2.669-2.683 2.669" mask="url(#prefix__n)"/>
            </g>
            <g>
                <mask id="prefix__p" fill="#fff">
                    <use xlink:href="#prefix__o"/>
                </mask>
                <path fill="#E9E9EE" fill-rule="nonzero" d="M125.351 193.127H23.44c-1.482 0-2.683-1.194-2.683-2.668v-23.214c0-1.473 1.201-2.668 2.683-2.668H125.35c1.481 0 2.683 1.195 2.683 2.668v23.214c0 1.474-1.202 2.668-2.683 2.668" mask="url(#prefix__p)"/>
            </g>
            <g>
                <mask id="prefix__r" fill="#fff">
                    <use xlink:href="#prefix__q"/>
                </mask>
                <path fill="#D8D8D8" fill-rule="nonzero" d="M105.656 42.09H57.422c-.387 0-.701-.311-.701-.696v-.463c0-.385.314-.697.7-.697h48.235c.386 0 .7.312.7.697v.463c0 .385-.314.697-.7.697" mask="url(#prefix__r)"/>
            </g>
            <g>
                <mask id="prefix__t" fill="#fff">
                    <use xlink:href="#prefix__s"/>
                </mask>
                <path fill="#D8D8D8" fill-rule="nonzero" d="M83.264 46.733H57.42c-.386 0-.7-.312-.7-.697v-.463c0-.385.314-.697.7-.697h25.843c.387 0 .7.312.7.697v.463c0 .385-.313.697-.7.697" mask="url(#prefix__t)"/>
            </g>
            <g>
                <mask id="prefix__v" fill="#fff">
                    <use xlink:href="#prefix__u"/>
                </mask>
                <path fill="#D8D8D8" fill-rule="nonzero" d="M105.656 175.936H57.422c-.387 0-.701-.312-.701-.697v-.463c0-.385.314-.697.7-.697h48.235c.386 0 .7.312.7.697v.463c0 .385-.314.697-.7.697" mask="url(#prefix__v)"/>
            </g>
            <g>
                <mask id="prefix__x" fill="#fff">
                    <use xlink:href="#prefix__w"/>
                </mask>
                <path fill="#D8D8D8" fill-rule="nonzero" d="M83.264 180.578H57.42c-.386 0-.7-.312-.7-.697v-.463c0-.385.314-.697.7-.697h25.843c.387 0 .7.312.7.697v.463c0 .385-.313.697-.7.697" mask="url(#prefix__x)"/>
            </g>
            <g>
                <mask id="prefix__z" fill="#fff">
                    <use xlink:href="#prefix__y"/>
                </mask>
                <path fill="#D8D8D8" fill-rule="nonzero" d="M105.656 143.72H57.422c-.387 0-.701-.312-.701-.697v-.463c0-.385.314-.697.7-.697h48.235c.386 0 .7.312.7.697v.463c0 .385-.314.697-.7.697" mask="url(#prefix__z)"/>
            </g>
            <g>
                <mask id="prefix__B" fill="#fff">
                    <use xlink:href="#prefix__A"/>
                </mask>
                <path fill="#D8D8D8" fill-rule="nonzero" d="M83.264 148.362H57.42c-.386 0-.7-.312-.7-.697v-.463c0-.385.314-.697.7-.697h25.843c.387 0 .7.312.7.697v.463c0 .385-.313.697-.7.697" mask="url(#prefix__B)"/>
            </g>
            <g>
                <mask id="prefix__D" fill="#fff">
                    <use xlink:href="#prefix__C"/>
                </mask>
                <path fill="#D8D8D8" fill-rule="nonzero" d="M105.656 106.995H57.422c-.387 0-.701-.312-.701-.697v-.463c0-.385.314-.697.7-.697h48.235c.386 0 .7.312.7.697v.463c0 .385-.314.697-.7.697" mask="url(#prefix__D)"/>
            </g>
            <g>
                <mask id="prefix__F" fill="#fff">
                    <use xlink:href="#prefix__E"/>
                </mask>
                <path fill="#D8D8D8" fill-rule="nonzero" d="M83.264 111.637H57.42c-.386 0-.7-.312-.7-.697v-.463c0-.385.314-.697.7-.697h25.843c.387 0 .7.312.7.697v.463c0 .385-.313.697-.7.697" mask="url(#prefix__F)"/>
            </g>
            <g>
                <mask id="prefix__H" fill="#fff">
                    <use xlink:href="#prefix__G"/>
                </mask>
                <path fill="#D8D8D8" fill-rule="nonzero" d="M105.656 74.78H57.422c-.387 0-.701-.313-.701-.698v-.463c0-.385.314-.697.7-.697h48.235c.386 0 .7.312.7.697v.463c0 .385-.314.697-.7.697" mask="url(#prefix__H)"/>
            </g>
            <g>
                <mask id="prefix__J" fill="#fff">
                    <use xlink:href="#prefix__I"/>
                </mask>
                <path fill="#D8D8D8" fill-rule="nonzero" d="M83.264 79.42H57.42c-.386 0-.7-.311-.7-.696v-.463c0-.385.314-.697.7-.697h25.843c.387 0 .7.312.7.697v.463c0 .385-.313.697-.7.697" mask="url(#prefix__J)"/>
            </g>
        </g>
        <g>
            <path fill="#98D5E6" fill-rule="nonzero" d="M66.248 168.395c7.752 4.038 28.225 7.366 29.403 9.424.295.735-.736.883-1.62 2.059-.883 1.176.736 2.647-.59 3.529-11.37 4.53-33.495 12.177-50.514 11.894-3.971-1.7-8.793-.85-8.793-.85s-.851 10.195.567 11.894c1.986 1.7 2.27 3.682 2.27 6.23 0 2.55-.568 7.08 2.836 14.16s6.24 8.214 6.807 6.797c.568-1.416-2.269-14.443 0-24.921l3.404-.283c1.135 5.38 3.971 7.646 4.822 7.363.851-.284 18.154-6.797 24.394-6.797 6.24 0 16.735 3.115 21.84-.566 5.107-3.682 9.645-9.629 15.318-11.894 5.673-2.266 13.048-8.214 11.63-16.143-1.419-7.93-27.798-29.736-51.908-41.064-11.913 3.398-17.87 4.814-17.87 4.814l8.004 24.354z" transform="translate(0 -8) translate(0 31)"/>
            <path fill="#7FC1D3" fill-rule="nonzero" d="M114.57 183.915c-4.643-2.163-8.977-6.181-12.072-8.345-3.095-2.163-16.096-4.326-20.12-5.562-4.024-1.236-12.072-6.181-13.93-6.181-1.273 0-1.09 3.2-.85 5.21 8.538 3.748 26.938 6.834 28.053 8.782.295.736-.736.882-1.62 2.059-.883 1.176.736 2.646-.589 3.529-4.917 1.959-11.846 4.5-19.502 6.73l4.588 18.782c.248-.015.484-.025.706-.025 6.24 0 16.736 3.115 21.84-.566 5.107-3.682 9.645-9.629 15.318-11.895 5.673-2.265 13.048-8.213 11.63-16.142-1.716 6.266-8.81 5.787-13.452 3.624M58.234 200.295s-3.714 1.854-5.881 2.472c-2.167.618-3.405-.927-4.334-2.782-.928-1.854-2.476.928-4.024 1.236-1.296.26-1.506-3.166-.995-5.92h-.073c-3.971-1.7-8.793-.85-8.793-.85s-.851 10.195.567 11.894c1.986 1.7 2.27 3.682 2.27 6.23 0 2.55-.568 7.08 2.836 14.16s6.24 8.214 6.807 6.797c.568-1.416-2.269-14.443 0-24.921l3.404-.283c1.135 5.38 3.971 7.646 4.822 7.363.39-.13 4.216-1.56 8.852-3.077l-5.458-12.32z" transform="translate(0 -8) translate(0 31)"/>
            <path fill="#98D5E6" fill-rule="nonzero" d="M30.915 145.23c1.968 7.35 17.133 37.97 20.167 45.71 3.033 7.739 10.448 21.199 11.796 25.236 1.348 4.039 12.47 25.574 13.48 26.247 1.012.673 16.178 1.01 20.896-2.019-2.359-4.038-2.696-7.74-2.359-12.114.337-4.374-5.055-15.142-10.11-22.545-5.056-7.402-13.482-29.948-14.83-36.34-1.348-6.394-3.37-28.603-3.37-28.603l-35.67 4.429z" transform="translate(0 -8) translate(0 31)"/>
            <g transform="translate(0 -8) translate(0 31) translate(53.01 188.503)">
                <mask id="prefix__L" fill="#fff">
                    <use xlink:href="#prefix__K"/>
                </mask>
                <path fill="#7FC1D3" fill-rule="nonzero" d="M36.484 47.186c-3.042-1.012-7.099-4.252-10.952-5.467-3.854-1.216-7.708-5.873-11.156-14.58C10.93 18.43 2.41.61.382.204c-1.258-.25 1.42 5.873 3.448 9.518 2.028 3.645 6.896 16.606 8.518 19.845 1.623 3.24 9.127 16.403 9.939 19.238.488 1.707 1.417 3.852 2.345 5.38 3.954.434 15.586.3 19.613-2.284-2.36-4.039-2.697-7.74-2.36-12.114-1.141 6.183-2.358 8.41-5.4 7.398" mask="url(#prefix__L)"/>
            </g>
            <path fill="#7FC1D3" fill-rule="nonzero" d="M69.468 161.505c1.196-.434 1.675-3.825.596-5.056.745-2.082 2.681-5.8 2.681-6.544 0-.744-5.064 5.651-4.32 6.395.745.743 1.186 1.663.894 2.826-.447 1.784-1.49 2.974.15 2.38" transform="translate(0 -8) translate(0 31)"/>
            <path fill="#CC4F5F" fill-rule="nonzero" d="M48.58 32.597c-.748.249-2.223-1.966-2.472-2.629-.249-.663-2.096-7.588-.935-12.89 1.162-5.302 3.913-8.536 5.407-8.536 1.493 0 5.642 1.74 6.721 4.557 1.079 2.816-.498 7.29-3.153 10.438-2.656 3.149-5.569 9.06-5.569 9.06" transform="translate(0 -8) translate(0 31)"/>
            <path fill="#FFB50B" fill-rule="nonzero" d="M79.63 65.356c1.339 5.384 1.339 10.76-.456 17.631-1.795 6.87-5.684 18.22-5.086 19.416.598 1.195-.897 3.883.299 4.78 1.197.895 8.976 10.454 9.574 13.74.598 3.286-2.693 10.455-6.582 12.246-8.976-17.922-13.164-23.299-8.676-37.338 4.488-14.04 10.926-30.475 10.926-30.475" transform="translate(0 -8) translate(0 31)"/>
            <path fill="#FFD76F" fill-rule="nonzero" d="M9.529 55.865c3.762-4.35 11.09-10.28 32.08-15.619 10.297.593 21.678 7.555 21.678 7.555 9.61 7.076 15.154 14.589 16.342 17.555 1.188 2.965-1.188 12.258-3.168 18.387-1.98 6.129-5.743 16.014-4.753 18.584.99 2.57-1.188 2.57-.396 5.339.792 2.768 7.525 12.455 7.92 17.2.397 4.746-1.98 10.48-1.98 10.48.397 2.174 1.189 3.36.397 4.151-.792.79-8.911 6.327-19.803 7.118-10.89.79-25.347.593-26.931-1.384-1.584-1.977-1.584-8.106-1.584-8.106-3.96-3.56-5.94-4.548-5.743-12.456.198-7.908-3.168-15.026-5.742-30.25-2.575-15.224-8.317-38.554-8.317-38.554" transform="translate(0 -8) translate(0 31)"/>
            <path fill="#CFF6FF" fill-rule="nonzero" d="M40.306 40.459c2.97-.989 6.47-3.599 7.362-5.971.89-2.372 1.532-8.122 1.532-8.122l14.78 2.06s-4.95 15.322-.693 19.375c-1.09 4.745-4.258 7.71-9.307 10.577-9.406-5.338-14.268-12.087-13.674-17.92" transform="translate(0 -8) translate(0 31)"/>
            <path fill="#8ECCE1" fill-rule="nonzero" d="M49.662 31.601s1.12 9.689 6.718 11.055c5.599 1.366 5.972.745 5.972.745s-.249 2.733.124 3.478c-5.35 1.74-8.957.249-10.948-3.975-1.99-4.223-2.861-10.31-1.866-11.303" transform="translate(0 -8) translate(0 31)"/>
            <path fill="#CFF6FF" fill-rule="nonzero" d="M57.69 44.565c6.139 1.642 13.62-5.753 17.635-16.91C79.34 16.497 72.88 11.44 67.119 9.873c-5.763-1.57-11.35-1.744-14.319 3.835-2.968 5.578-4.89 28.242 4.89 30.857" transform="translate(0 -8) translate(0 31)"/>
            <path fill="#8ECCE1" fill-rule="nonzero" d="M64.26 29.585l2.151.585c-1.565 4.296-1.366 7.587-1.174 9.568.26 2.673-1.76 3.32-3.129-1.366-.657-2.25 2.152-8.787 2.152-8.787" transform="translate(0 -8) translate(0 31)"/>
            <path fill="#F9B30B" fill-rule="nonzero" d="M29.301 76.708c.99.905-3.073 15.917-1.92 17.45 1.152 1.535 7.298 1.343 7.298 1.343-5.378 5.945-13.829 9.205-17.286 5.753C13.936 97.802 29.3 76.708 29.3 76.708M69.62 130.807c-4.128-.344-5.504 1.717-8.255.858-2.752-.858-2.58-4.98-8.428-2.404-5.848 2.576-11.008 4.98-15.308 3.09-4.3-1.888-8.427-8.585-6.363-12.706 1.109-2.215 4.127-2.404 9.116-4.809 4.987-2.404 7.051-8.414 11.35-10.818 4.3-2.404 11.868-8.414 11.525-10.475-.345-2.06-23.564 10.303-23.564 10.303l-16.905 12.996c.547 2.732.865 5.238.8 7.827-.198 7.908 1.782 8.897 5.743 12.456 0 0 0 6.129 1.584 8.106 1.584 1.977 16.04 2.175 26.931 1.384 10.892-.791 19.01-6.327 19.803-7.118.792-.79 0-1.977-.396-4.152 0 0 1.175-2.837 1.734-6.171-3.048 2.815-5.28 1.972-9.367 1.633" transform="translate(0 -8) translate(0 31)"/>
            <path fill="#CC4F5F" fill-rule="nonzero" d="M52.877 86.738c.561-2.615 2.806-13.821 3.741-14.382 1.87-1.12 12.908-.373 14.03.374 1.123.747-2.805 11.206-2.805 11.206l-14.966 2.802z" transform="translate(0 -8) translate(0 31)"/>
            <path fill="#FFD76F" fill-rule="nonzero" d="M26.559 45.387c-6.535 2.372-14.258 6.722-17.03 10.478-3.169 4.548-4.753 12.258-4.95 21.155-.2 8.897-4.952 24.319-4.555 31.832.396 7.513 2.178 16.607 10.693 14.828 8.515-1.78 11.881-4.547 15.445-4.745 3.565-.197 3.565-6.524 6.337-7.118 2.773-.592 5.347.594 7.13-2.372 1.781-2.966 8.91-6.722 8.712-7.71-4.356-.594-8.515-3.757-6.535-10.48-2.574.199-7.92 4.746-10.693 5.734-2.772.989-3.96 4.152-6.93 3.362-2.971-.791-4.753-.99-4.753-.99s7.129-16.804 8.515-19.968c1.386-3.163 13.07-26.295-1.386-34.006" transform="translate(0 -8) translate(0 31)"/>
            <path fill="#CFF6FF" fill-rule="nonzero" d="M41.806 91.256c2.466-1.996 4.122-5.085 5.514-8.275 1.944-4.453 1.334-7.638 2.224-7.993 1.349-.538 2.846 3.642 1.912 6.502-.691 2.117-.399 4.184 3.991 3.985 4.39-.2 12.971-3.786 14.168-3.587 1.198.2-.399 2.391-1.596 3.188-1.197.797-3.193 4.582-3.991 5.579 2.993-.399 4.59-2.391 5.188-1.395.6.996-5.388 4.98-7.183 5.38-1.797.398-11.818 5.822-13.692 7.094-5.865-.918-8.202-4.697-6.535-10.478M62.792 76.445c.113-.66.65-1.12 1.197-1.026.548.094.899.706.785 1.366-.114.661-.65 1.12-1.197 1.027-.548-.094-.899-.706-.785-1.367" transform="translate(0 -8) translate(0 31)"/>
            <path fill="#F9B30B" fill-rule="nonzero" d="M40.826 125.736c1.232.462 2.886-1.728 4.156-4.956 1.27-3.227 1.27-6.8.692-6.454-.577.346-1.962 5.187-2.77 6.454-.808 1.268-3.002 4.61-2.078 4.956M40.75 128.966c.738.406 2.031.305 1.477-.609-.554-.912-2.041-1.397-2.216-.811-.173.576.49 1.284.738 1.42M18.056 53.916c.7-.699 5.27-.112 7.372 1.76 2.874 2.563 3.59 6.753 2.922 6.882-.924.178-.044-2.892-4.462-6.266-2.48-1.894-6.12-2.088-5.832-2.376M53.672 60.37c-.195 0-.39-.053-.562-.157-13.828-8.315-14.903-16.664-14.903-19.025l2.1-.73c0 2.595.731 9.784 13.465 17.611 5.367-2.64 8.845-6.554 9.54-10.217l1.645 1.263c-1.147 6.44-6.836 9.383-10.885 11.178-.127.057-.265.076-.4.076" transform="translate(0 -8) translate(0 31)"/>
            <path fill="#8ECCE1" fill-rule="nonzero" d="M41.73 97.533c.77 1.345 8.374 2.306 12.416.768.577.48-5.805 3.433-5.805 3.433s-5.36-.55-6.61-4.201M59.535 92.824c.216.645 3.946-1.249 4.909-2.498.962-1.25 1.54-3.171 1.54-3.171l-1.348.768c-.712.996-1.682 2.182-2.79 3.076-1.14.917-2.408 1.533-2.31 1.825" transform="translate(0 -8) translate(0 31)"/>
            <path fill="#8ECCE1" fill-rule="nonzero" d="M59.577 88.581c0 .35 2.196.48 3.5.137 1.303-.342 3.36-1.37 4.664-3.22-1.921 1.097-4.067 2.142-5.282 2.398-1.304.274-2.882.343-2.882.685" transform="translate(0 -8) translate(0 31)"/>
            <path fill="#F9B30B" fill-rule="nonzero" d="M19.43 99.362c-1.82-.182-4.463.47-5.671 1.425-.865-.493 1.731-2.093 2.853-2.532 2.959-1.161 4.015-.528 4.015-.528l-1.197 1.635z" transform="translate(0 -8) translate(0 31)"/>
            <path fill="#F79258" fill-rule="nonzero" d="M33.867 143.7c-.22-.312-.414-.64-.579-.984l-.088-.195c-.03-.073-.059-.146-.086-.22-.065-.18-.122-.362-.172-.546-.05-.184-.093-.37-.127-.557-.014-.076-.026-.151-.037-.227l-.02-.174c-.034-.393-.033-.787-.002-1.18.038-.473-.445-.927-.908-.906-.524.023-.866.399-.908.906-.14 1.747.353 3.563 1.36 4.999.272.387.806.605 1.242.325.386-.249.617-.825.325-1.24M39.133 145.157c-.219-.373-.426-.753-.617-1.141-.09-.181-.177-.364-.26-.548l-.12-.271c-.008-.02-.07-.165-.078-.188-.32-.79-.58-1.6-.786-2.426-.115-.46-.658-.781-1.117-.633-.477.154-.756.622-.634 1.115.437 1.753 1.131 3.448 2.045 5.007.24.41.83.59 1.241.325.413-.266.582-.802.326-1.24M44.272 145.951c-.173-.347-.34-.698-.497-1.052l-.134-.304-.021-.048-.017-.042c-.074-.18-.148-.36-.218-.54-.284-.723-.535-1.457-.755-2.202-.136-.454-.644-.786-1.117-.633-.46.15-.779.629-.634 1.115.472 1.59 1.087 3.137 1.826 4.621.211.426.849.578 1.241.326.436-.281.552-.785.326-1.24M50.158 145.882l-.843-3.865c-.102-.464-.668-.779-1.117-.633-.489.157-.742.617-.634 1.114l.843 3.866c.101.464.668.778 1.117.633.488-.158.742-.618.634-1.115M56.603 145.604l-.594-3.822c-.032-.21-.241-.44-.416-.541-.195-.114-.482-.162-.7-.092-.512.166-.712.611-.634 1.115l.594 3.822c.032.21.242.44.416.542.195.114.481.162.7.091.512-.166.712-.611.634-1.115M63.508 140.58c-.041-.472-.389-.93-.908-.907-.457.02-.951.4-.908.906.061.708.083 1.418.057 2.127-.011.348-.034.695-.067 1.042-.016.166-.035.332-.055.498l-.005.046-.007.044-.051.33c-.076.466.12.998.634 1.115.437.099 1.036-.133 1.117-.633.245-1.514.325-3.04.193-4.569M68.46 138.518c-.45-.103-1.018.135-1.116.632-.3 1.524-.678 3.03-1.132 4.516-.138.453.166 1.008.635 1.115.49.111.968-.148 1.116-.633.454-1.486.831-2.993 1.132-4.516.09-.463-.132-1-.634-1.114M72.917 136.817c-.442-.1-1.027.134-1.116.633-.152.859-.36 1.707-.625 2.538-.132.416-.28.827-.44 1.232-.034.087-.07.173-.105.26-.042.101-.048.115-.017.042l-.075.171c-.088.2-.18.397-.275.594-.204.427-.131.999.326 1.24.406.214 1.023.131 1.242-.325.805-1.675 1.395-3.44 1.72-5.27.082-.466-.126-1-.635-1.115M76.274 134.869c-.518.023-.876.399-.908.906-.006.1-.013.199-.023.298l-.013.141c-.017.169-.054.338-.089.504-.079.378-.184.75-.314 1.114-.03.081-.06.163-.092.244-.01.027-.022.054-.033.08l-.02.048c-.08.17-.158.338-.246.504-.181.34-.388.668-.614.981-.278.385-.079 1.026.326 1.24.47.247.944.086 1.242-.325 1.018-1.409 1.583-3.1 1.691-4.829.03-.474-.438-.927-.907-.906M81.413 120.734c-.047-.169-.177-.351-.334-.434-.169-.088-.373-.133-.56-.073-.166.054-.362.165-.433.333l-.803 1.886c-.08.187-.13.353-.073.558.046.168.176.35.333.433.169.09.373.134.56.074.167-.054.362-.165.434-.334l.802-1.885c.08-.187.13-.353.074-.558M83.154 121.942c-.314-.166-.83-.11-.993.26-.323.734-.696 1.445-1.121 2.125-.206.33-.423.652-.652.966-.057.079-.116.157-.174.234l-.08.106-.052.064c-.128.162-.26.32-.394.478-.246.288-.305.746 0 1.025.27.249.764.308 1.027 0 1.1-1.288 2.018-2.715 2.7-4.266.152-.346.113-.794-.26-.992" transform="translate(0 -8) translate(0 31)"/>
            <path fill="#F9B30B" fill-rule="nonzero" d="M40.268 93.167c-.112-.346-.512-.65-.893-.507-1.714.646-3.33 1.511-4.796 2.61-.303.227-.49.637-.26.992.193.299.668.504.993.26 1.365-1.023 2.917-1.886 4.45-2.464.353-.133.635-.495.506-.891M40.887 97.722c-.2-.342-.652-.455-.993-.26-1.493.853-3.014 1.536-4.635 2.075-.372.124-.615.5-.507.892.1.363.52.631.893.507 1.728-.576 3.4-1.319 4.981-2.222.34-.195.458-.656.261-.992M43.642 101.16c-.297-.296-.726-.253-1.027 0-.339.286-.593.482-.962.739-.372.258-.757.499-1.15.721-.79.447-1.508.767-2.341 1.051-.371.127-.616.499-.507.893.099.36.52.633.893.506 1.87-.639 3.584-1.612 5.094-2.884.3-.252.261-.765 0-1.025M47.186 101.878c-.189-.323-.666-.478-.993-.26l-4.882 3.248c-.326.217-.467.64-.26.992.189.323.665.478.993.26l4.882-3.248c.326-.217.467-.64.26-.992" transform="translate(0 -8) translate(0 31)"/>
            <path fill="#CC4F5F" fill-rule="nonzero" d="M55.06 12.104c1.66 1.077 3.486.083 4.564.663 1.079.58.913 2.817 3.32 4.64 2.406 1.822 5.725-.58 7.8.745 2.074 1.326 2.406 5.882 5.393 6.711 2.987.828 8.05-.497 7.8-4.64-.249-4.142-2.157-3.23-3.568-5.302-1.41-2.071.25-7.787-3.651-10.19-3.9-2.403-7.302-1.409-9.708-.497-1.162-.414-4.913-5.086-10.29-4.06-5.643 1.077-6.33 4.891-5.891 8.616.165 1.409 4.232 3.314 4.232 3.314" transform="translate(0 -8) translate(0 31)"/>
            <path fill="#CC4F5F" fill-rule="nonzero" d="M57.3 13.099c-.617-1.614-2.242-2.871-3.798-3.654-.824 1.107-1.512 2.31-1.994 3.611-1.64 4.431-2.808 9.682.393 13.625.722-1.138 1.495-2.252 2.246-3.144 2.656-3.148 4.233-7.621 3.154-10.438" transform="translate(0 -8) translate(0 31)"/>
            <path fill="#CFF6FF" fill-rule="nonzero" d="M49.058 30.538c-1.798-1.113-1.689-6.873.314-7.76 2.002-.887 3.571.763 2.895 3.242-.676 2.48-1.87 5.347-3.209 4.518" transform="translate(0 -8) translate(0 31)"/>
        </g>
    </g>
</svg>
