<svg xmlns="http://www.w3.org/2000/svg" width="32" height="32" viewBox="0 0 32 32">
    <g fill="none" fill-rule="evenodd" transform="translate(2 2)">
        <circle cx="14" cy="14" r="14" stroke="#15D48F" stroke-width="1.7"/>
        <path fill="#15D48F" d="M13.898 7.644v12.4a.645.645 0 0 1-.985.547L8.77 18.026l.05-8.356 4.09-2.57c.429-.27.988.038.988.544zM7.566 9.902v8.068H5.311a.644.644 0 0 1-.644-.643v-6.782c0-.355.288-.643.644-.643h2.255zm14.695.988a.825.825 0 0 1 0 1.17l-2.013 2.007 2.013 2.008a.826.826 0 0 1-.586 1.412.827.827 0 0 1-.586-.242l-2.013-2.009-2.012 2.009a.828.828 0 0 1-1.173 0 .826.826 0 0 1 0-1.17l2.012-2.008-2.012-2.007a.825.825 0 0 1 0-1.17.83.83 0 0 1 1.173 0l2.012 2.007 2.013-2.007a.83.83 0 0 1 1.172 0z"/>
    </g>
</svg>
