<svg xmlns="http://www.w3.org/2000/svg" width="288" height="156" viewBox="0 0 288 156">
    <g fill="none" fill-rule="evenodd">
        <g>
            <path fill="#F7F7F7" d="M145.227 56.465L145.227 6.329 130.813 6.329 130.813 22.36 127.209 22.36 127.209 2.086 113.891 2.086 113.891 53.951 111.541 53.951 111.541 27.861 101.827 27.861 102.188 75.247zM183.65 78.321L184.252 24.679 174.295 24.679 174.295 53.832 171.806 53.832 171.806 10.901 162.606 10.901 162.606 62.998 160.983 62.998 160.983 39.553 154.273 39.553 154.489 66.477zM99.845 71.812L99.845 59.88 95.159 59.88 95.159 18.661 83.805 18.661 83.805 57.349 80.741 57.349 80.741 4.56 64.16 4.56 64.16 56.626 59.655 56.626 59.655 23.181 33.342 23.181 33.342 39.271 24.511 39.271 24.511 74.524z" transform="translate(0 34)"/>
            <path fill="#F2F2F2" d="M104.35 75.247s.541-9.22-6.307-9.22c-5.948.904-5.768 6.508-5.768 6.508s.721-8.135-4.145-8.135-3.785 7.774-3.785 7.774-.36-5.785-6.848-5.062c-6.488.723-7.21 5.604-7.21 5.604s-3.243-5.966-6.127-4.158c-2.883 1.808-2.523 3.797-2.523 3.797s-4.506-4.52-8.65-.904c-2.704 2.53-1.864 5.186-1.864 5.186l53.227-1.39z" transform="translate(0 34)"/>
            <path fill="#F7F7F7" d="M267.454 75.999L267.454 30.411 249.839 30.411 249.839 65.574 246.14 65.574 246.14 9.207 229.934 9.207 229.934 27.23 225.883 27.23 225.883 4.436 210.91 4.436 210.91 62.747 208.268 62.747 208.268 33.415 197.347 33.415 197.699 77.236z" transform="translate(0 34)"/>
            <path fill="#F2F2F2" d="M184.01 71.812c3.965-.542 4.325 2.17 4.325 2.17s3.064-7.232 10.093-3.074c2.884 1.989 3.064 5.062 3.064 5.062s1.802-7.05 4.866-6.689c3.064.362 3.244 6.147 3.244 6.147s1.793-3.544 5.407-3.797c7.75-.542 9.011 4.7 9.011 4.7s3.424-3.434 7.75-.541c1.71 1.143 1.081 2.53 1.081 2.53l-50.823-.542s-1.803-4.881 1.982-5.966" transform="translate(0 34)"/>
            <path fill="#EAEAEA" d="M39.87 33.354c8.893-25.448 22.973-13.219 21.897-4.199-1.076 9.02 2.751 9.817 7.564 13.355 6.509 4.785 3.687 20.882-8.057 24.687-15.912 5.155-29.729-10.02-21.404-33.843" transform="translate(0 34)"/>
            <path fill="#F3F3F3" d="M56.483 94.89l13.325-5.71 6.875-3.062 6.88-3.052c9.168-4.083 18.364-8.1 27.548-12.144l27.595-12.035.428-.186.429.187 28.23 12.339 14.095 6.217 7.047 3.11 7.038 3.131 14.071 6.271 14.054 6.311c9.357 4.237 23.263 9.95 28.037 12.787 4.774 2.837-18.987-7.84-28.464-11.8l-14.196-5.982-14.179-6.023-7.087-3.015-7.078-3.037-14.304-6.79-28.122-11.534.43-.445-27.569 11.978c-9.228 3.941-18.095 8.295-27.34 12.197l-6.93 2.937-6.933 2.927-13.88 5.826c-9.264 3.859-27.827 12.761-27.827 11.496 9.113-4.209 18.678-8.773 27.827-12.899z" transform="translate(0 34)"/>
            <path fill="#EAEAEA" d="M60.983 83.62c-2.062.161-5.58-1.215-4.918-5.15.486-2.004 3.962-8.386 8.357-7.964 4.359.418 4.145 12.524-3.44 13.115" transform="translate(0 34)"/>
            <path fill="#E2E2E2" d="M52.312 29.385s-2.12 18.18-2.043 21.689c-.177-.034-3.442-4.144-4.625-8.597l-.42.288s2.167 7.03 5.31 9.83l.828 44.83 2.582-1.328s-.166-2.943-.297-5.32c-.018-.32 4.737-2.806 6.658-9.28.04-.136 3.667-3.368 2.779-4.108-.13-.107-2.478 2.622-2.569 2.485.02-1.085.05-2.712-.674-2.544-.146 7.953-6.493 11.924-6.519 11.453-.578-10.657-1.358-29.764-1.404-35.743.046-5.142.47-14.26.47-14.26s5.525-5.03 6.201-7.66c-.288-.423-4.95 5.873-6.29 6.172.31-.677.013-7.907.013-7.907" transform="translate(0 34)"/>
            <path fill="#F7F7F7" d="M7.525 12.675c0-2.084-1.685-3.774-3.762-3.774C1.685 8.901 0 10.591 0 12.675h7.525zM268.356 18.584c0-2.55-2.06-4.617-4.603-4.617-2.542 0-4.603 2.067-4.603 4.617h9.206zM256.741 18.584c0-1.726-1.395-3.126-3.116-3.126s-3.116 1.4-3.116 3.126h6.232zM55.645 12.675c0-2.084-1.684-3.774-3.762-3.774-1.1 0-2.086.476-2.775 1.23-.334-2.207-1.48-4.973-5.09-5.217-4.757-.321-5.44 3.716-5.519 4.371.09-.954.541-9.104-10.121-9.104-8.494.406-8.764 8.52-8.764 8.52-1.792-2.978-9.303-2.299-8.36 4.193h37.933s.01-.08.02-.219h6.438zM202.573 15.086c0-1.515-1.223-2.742-2.733-2.742-.798 0-1.515.346-2.014.894-.244-1.604-1.076-3.612-3.698-3.79-3.455-.233-3.95 2.7-4.008 3.175.065-.693.646-6.182-7.098-6.182-6.17.294-6.371 6.87-6.053 8.803h20.914s.007-.058.014-.158h4.676z" transform="translate(0 34)"/>
            <path fill="#F7F7F7" d="M288 18.474c0-1.19-.962-2.155-2.148-2.155-.627 0-1.19.272-1.583.703-.192-1.26-.846-2.84-2.907-2.979-2.715-.183-3.104 2.122-3.15 2.496.052-.545.508-4.86-5.578-4.86-4.85.232-5.008 5.4-4.757 6.92h16.436s.006-.046.012-.125H288z" transform="translate(0 34)"/>
            <path fill="#EAEAEA" d="M195.058 66.837s10.572-8.78 3.396-20.09C190.443 34.12 187.391 48.853 182.05 50c-9.443 2.03.834 24.883 13.008 16.837" transform="translate(0 34)"/>
            <path fill="#E2E2E2" d="M185.632 54.818s.901 4.158 3.605 6.328c.36 0-.379 19.66-.379 19.66l1.411.747.41-21.853s2.883-5.424 2.703-9.04c0-.18-3.785 9.04-3.785 9.04s-2.163-1.628-3.965-4.882" transform="translate(0 34)"/>
            <path fill="#EDEDED" d="M220.065 85.38s-4.505-16.09 11.354-16.994c15.72-.896 12.616 15.91 12.616 15.91l-23.97 1.084z" transform="translate(0 34)"/>
            <path fill="#F2F2F2" d="M242.866 86.826s-2.464-8.798 6.21-9.293c8.596-.49 6.898 8.7 6.898 8.7l-13.108.593zM17.068 74.795s-2.464-8.799 6.21-9.293c8.596-.49 6.898 8.7 6.898 8.7l-13.108.593z" transform="translate(0 34)"/>
            <path fill="#F2F2F2" d="M10.295 75.156s-1.539-5.493 3.876-5.802c5.367-.305 4.307 5.432 4.307 5.432l-8.183.37z" transform="translate(0 34)"/>
        </g>
        <g>
            <path fill="#FFCE00" d="M76.574 33.892C76.331 14.542 61.871.806 43 .177c-.333-.119-4.93.095-5.262.214C19.375 1.543 5.562 14.863 5.319 34.213 5.234 40.98 6.481 48.448 7.954 52.73c1.215 3.528 3.355 9.237 6.51 8.99 2.052-.16 2.79-1.403 2.504-2.015l26.552-.788 22.13.788c-.285.612-.6 1.855 1.452 2.015 3.155.247 5.521-5.462 6.736-8.99 1.473-4.282 2.821-12.072 2.736-18.838" transform="translate(101)"/>
            <path fill="#9ED7FF" d="M57.373 91.951s9.178-2.182 11.144 6.548c1.187 5.268-4.807 25.536-4.807 25.536l-6.337-32.084zM26.719 91.951S17.542 89.77 15.575 98.5c-1.187 5.268 4.807 25.536 4.807 25.536l6.337-32.084z" transform="translate(101)"/>
            <path fill="#FFB000" d="M14.108 56.376C1.435 23.637 21.394 6.022 22.193 5.086l-.161-.18C12.025 10.526 5.486 20.953 5.319 34.212 5.234 40.98 6.481 48.448 7.954 52.73c1.215 3.528 3.355 9.237 6.51 8.99 1.422-.11 2.212-.741 2.468-1.322l-2.824-4.022z" transform="translate(101)"/>
            <path fill="#78BCEC" d="M55.69 82.026c0 .218 1.311 5.238 5.9 5.893 4.589.655 10.488-6.548 10.707-8.73.218-2.183-16.607 2.837-16.607 2.837M10.677 81.153c.219.218 3.278 9.167 9.396 7.64 7.661-1.914 5.463-10.695 5.463-10.695l-14.859 3.055z" transform="translate(101)"/>
            <path fill="#9ED7FF" d="M68.364 50.823c0 13.982-12.516 19.2-26.877 19.2-14.36 0-27.314-4.796-27.314-18.778 0-13.983 7.635-31.365 27.314-31.859 16.825-.422 26.877 17.454 26.877 31.437" transform="translate(101)"/>
            <path fill="#505B6D" d="M77.75 59.254c-1.678.186-3.286.85-4.595 1.684l.01-.018-.392.272c-.047.033-.096.066-.142.1l-13.226 9.207 1.46.833 9.218-6.32c.406 1.563 3.544 2.78 7.355 2.78 4.087 0 6.984-.833 7.4-3.124.94-5.159-3.335-5.83-7.087-5.414" transform="translate(101)"/>
            <path fill="#2E3B4C" d="M56.564 70.895s2.84-2.4 4.589-.655c1.967 1.965-1.093 5.02-1.093 5.02l-3.496-4.365z" transform="translate(101)"/>
            <path fill="#505B6D" d="M6.858 61.146c1.627.131 3.199.725 4.488 1.494l-.01-.017.386.251c.046.03.094.06.14.092l13.04 8.51-1.385.847-9.086-5.837c-.348 1.521-3.343 2.787-7.024 2.897C3.459 69.5.637 68.78.169 66.58c-1.057-4.956 3.052-5.728 6.689-5.434" transform="translate(101)"/>
            <path fill="#2E3B4C" d="M27.753 71.76s-2.911-2.315-4.606-.517c-1.907 2.022 1.242 4.985 1.242 4.985l3.364-4.468z" transform="translate(101)"/>
            <path fill="#39475B" d="M61.914 74.746l13.03 1.48c1.656.187 2.823 1.713 2.57 3.358-.232 1.505-1.578 2.582-3.099 2.479l-13.48-.91.979-6.407zM22.598 74.746l-13.031 1.48c-1.656.187-2.823 1.713-2.57 3.358.232 1.505 1.578 2.582 3.099 2.479l13.48-.91-.978-6.407z" transform="translate(101)"/>
            <path fill="#9ED7FF" d="M63.557 75.042l3.646.366s2.778 2.607.112 6.031c-.306.082-1.945.023-1.945.023s1.065 1.875 4.652.456c.18.216 1.62 1.636 4.241.326.219 0 2.318.561 4.37-1.746 1.749-1.964 1.093-3.71.656-4.801-.437-1.092-1.966-3.274-3.496-3.056-1.311.218-1.093-.436-2.185-.655-1.093-.218-1.748.437-2.622.437-.874 0-1.53-.437-2.84-.655-1.312-.218-1.967.218-3.06 1.091-1.092.873-1.53 2.183-1.53 2.183" transform="translate(101)"/>
            <path fill="#08C" d="M70.986 74.387s2.403 1.528 2.403 3.71c0 1.76-1.53 3.274-3.496 3.93 0 0 2.404-1.092 2.622-3.93.08-1.034-.874-2.619-1.53-3.71M74.919 74.824s2.404 1.527 2.404 3.71c0 1.76-1.53 3.274-3.497 3.929 0 0 2.404-1.092 2.623-3.929.08-1.034-.874-2.619-1.53-3.71" transform="translate(101)"/>
            <path fill="#9ED7FF" d="M21.657 75.042l-2.895.436s-2.403 2.401 0 5.893c.306.082 1.311 0 1.311 0s-2.622 2.838-5.681.655c-.18.217-1.093 1.31-3.715 0-.218 0-2.044.78-4.097-1.528-1.748-1.964-.799-4.187-.273-5.238.437-.873 2.404-2.837 4.206-2.619 1.312.218 1.093-.436 2.186-.655 1.092-.218 1.474.437 2.349.437.874 0 .437-.218 1.748-.437 1.31-.218 2.185.437 3.277 1.31.874.873 1.584 1.746 1.584 1.746" transform="translate(101)"/>
            <path fill="#08C" d="M14.228 74.387s-2.403 1.528-2.403 3.71c0 1.76 1.037 3.274 2.567 3.93 0 0-1.475-1.092-1.693-3.93-.08-1.034.874-2.619 1.53-3.71M10.295 74.824s-2.404 1.527-2.404 3.71c0 1.76.82 2.837 2.786 3.492 0 0-1.966-1.091-1.912-3.492.024-1.037.874-2.619 1.53-3.71" transform="translate(101)"/>
            <path fill="#FFCE00" d="M63.338 74.605c-2.404-1.964-2.185-1.31-5.244-3.492-2.859-2.04-6.992-4.801-15.624-4.524-8.194-.059-12.764 2.485-15.623 4.524-3.06 2.183-2.84 1.528-5.244 3.492-2.185 1.746-1.748 6.33.874 7.64 8.085.872 10.488 6.984 10.488 6.984h19.229s1.311-5.893 10.27-6.985c2.622-1.31 3.06-5.893.874-7.639" transform="translate(101)"/>
            <path fill="#FFB000" d="M31.873 87.7l21.195-.217s-1.966-3.71-10.925-3.493c-8.96.219-10.27 3.71-10.27 3.71" transform="translate(101)"/>
            <path fill="#FFCE00" d="M22.695 133.971c-1.092-1.487-6.118-24.28-1.31-39.504 3.058-8.342 21.413-8.294 21.413-8.294s12.455-1.736 19.229 7.857c5.681 8.134 2.185 37.337 1.311 38.857-.874 1.52-4.152 9.385-20.977 9.593-13.905.173-18.573-7.022-19.666-8.509" transform="translate(101)"/>
            <path fill="#825E17" d="M32.001 136.372c2.078 5.893 18.143 9.167 22.968.436 2.337-4.228 2.029-12.004 2.029-12.004l-27.506-.218s.724 6.723 2.51 11.786" transform="translate(101)"/>
            <path fill="#505B6D" d="M43.873 154.705h-1.066c-3.557 0-6.026-4.801-6.678-10.476-.846-7.36.238-26.627.238-26.627l14.734-.218s.843 20.516-.299 29.028c-.715 5.333-3.372 8.293-6.929 8.293" transform="translate(101)"/>
            <path fill="#3D3F4F" d="M50.473 135.062c0 8.077-.18 12.223-.893 12.223-.713 0-.695-4.583-.695-12.66 0-8.075.081-13.968.794-13.968.713 0 .794 6.33.794 14.405" transform="translate(101)"/>
            <path fill="#FFCE00" d="M43.46 133.098c10.633-.218 13.816-7.821 13.759-9.178-.263-6.215-3.862-14.38-15.235-14.176-10.52.19-12.776 9.167-12.492 14.842.053 1.066 2.71 8.949 13.968 8.512" transform="translate(101)"/>
            <path fill="#FFB000" d="M42.939 115.638c-11.623.422-13.447 10.258-13.447 10.258s0-11.786 12.304-12.877c13.038-1.157 16.276 10.665 15.007 12.44 0 0-1.869-10.258-13.864-9.821M52.194 87.046s1.748-9.385 12.455-8.075c0 .218-.437 1.964-1.092 2.4-.219.219-6.774-1.527-11.363 5.675M32.747 87.046s-1.748-9.385-12.455-8.075c0 .218.437 1.964 1.092 2.4.219.219 6.774-1.527 11.363 5.675" transform="translate(101)"/>
            <path fill="#FFF" d="M31.436 73.078c2.84-3.929 17.48-5.02 22.506 0 2.404 2.837-2.403 7.639-4.589 7.857-3.074.307-9.614.218-12.673.436-1.462.105-8.085-4.365-5.244-8.293" transform="translate(101)"/>
            <path fill="#FF4C5A" d="M43.017 95.34c-3.067 0-7.211 1.964-8.74 6.547-1.948 5.835 3.932 7.203 8.74 6.985 4.807-.219 10.427-2.305 7.648-7.858-1.967-3.928-5.463-5.674-7.648-5.674M27.416 2.4s-.836 5.697 14.11 4.627c10.735-.857 11.759-4.64 11.788-5.138-.364-.138-12.84-4.495-25.898.512" transform="translate(101)"/>
            <path fill="#39475B" d="M68.8 59.11c2.186-4.745 4.59-38.85-17.917-43.87-.218.222 8.959 13.532 8.959 13.532s8.74 11.13 5.681 32.083c-.08.213 1.748 2.344 3.278-1.746M12.862 57.8S3.03 20.04 33.84 16.55c.219.22-12.236 11.785-12.236 11.785-.673.747-8.304 13.969-4.807 32.52.08.212-2.623 1.528-3.934-3.055" transform="translate(101)"/>
            <path fill="#FFF" d="M55.44 39.682c-1.242 3.654-5.11 5.647-8.64 4.45-3.53-1.196-5.387-5.128-4.145-8.783 1.241-3.654 5.11-5.647 8.64-4.45 3.53 1.196 5.385 5.128 4.144 8.783" transform="translate(101)"/>
            <path fill="#203D4F" d="M55.387 39.664c.282-.846.381-1.753.277-2.63-.096-.876-.393-1.715-.814-2.457-.421-.745-.972-1.394-1.604-1.927-.631-.535-1.359-.944-2.139-1.2-.78-.257-1.604-.358-2.425-.307-.82.055-1.632.28-2.378.649-1.489.746-2.71 2.053-3.366 3.653-.32.802-.496 1.674-.472 2.55.02.874.224 1.75.608 2.537.387.787.945 1.484 1.62 2.018.674.535 1.447.917 2.251 1.152 1.611.471 3.345.358 4.924-.314.786-.337 1.533-.824 2.143-1.464.616-.632 1.089-1.415 1.375-2.26m.104.035c-.296.856-.72 1.667-1.265 2.406-.55.733-1.228 1.397-2.033 1.898-.803.5-1.728.84-2.692.935-.961.1-1.948-.035-2.848-.375-.9-.344-1.71-.892-2.365-1.569-.655-.678-1.17-1.468-1.534-2.314-.741-1.687-.886-3.619-.383-5.427.26-.898.677-1.768 1.269-2.52.587-.753 1.337-1.385 2.182-1.854.844-.47 1.79-.774 2.763-.872.973-.102 1.972.02 2.897.34.924.323 1.78.845 2.478 1.522.698.678 1.22 1.516 1.55 2.404.33.891.463 1.83.452 2.748-.018.919-.18 1.82-.471 2.678" transform="translate(101)"/>
            <path fill="#FFF" d="M41.962 38.65c-.599 3.413-3.324 5.682-6.76 4.955-4.22-.893-4.252-4.127-3.632-6.775.79-3.374 3.411-5.771 6.28-5.269 2.87.503 4.711 3.677 4.112 7.09" transform="translate(101)"/>
            <path fill="#203D4F" d="M41.908 38.64c.123-.742.11-1.508-.053-2.234-.155-.728-.461-1.412-.857-2.008-.396-.597-.888-1.105-1.438-1.499-.548-.395-1.17-.666-1.825-.765-.654-.105-1.318-.04-1.951.168-.633.21-1.225.578-1.742 1.043-.516.469-.953 1.035-1.321 1.65-.365.618-.667 1.284-.878 1.99-.209.712-.365 1.445-.372 2.184-.009.733.116 1.484.477 2.115.19.309.411.595.683.828.271.234.576.425.901.571.168.066.325.148.498.199l.516.149c.355.064.708.156 1.059.178 1.4.156 2.788-.133 3.977-.93.59-.397 1.123-.924 1.52-1.553.407-.625.675-1.344.806-2.085m.108.019c-.139.75-.353 1.488-.666 2.198-.32.706-.744 1.39-1.326 1.957-.578.566-1.31 1.008-2.112 1.224-.801.224-1.652.229-2.448.068-.2-.036-.398-.083-.587-.15-.19-.064-.382-.118-.568-.191l-.55-.252c-.18-.085-.349-.205-.522-.305-.674-.442-1.248-1.046-1.6-1.76-.36-.71-.502-1.498-.537-2.274-.029-.778.036-1.556.16-2.322.13-.77.34-1.544.686-2.267.34-.724.804-1.4 1.381-1.984.575-.584 1.275-1.072 2.072-1.374.794-.308 1.688-.395 2.533-.243.845.15 1.643.54 2.283 1.083.642.546 1.115 1.25 1.425 1.992.311.746.458 1.533.51 2.305.045.775-.003 1.542-.134 2.295" transform="translate(101)"/>
            <path fill="#43775B" d="M52.26 37.638c0 2.042-1.506 3.697-3.364 3.697-1.858 0-3.365-1.655-3.365-3.697 0-2.041 1.507-3.697 3.365-3.697 1.858 0 3.364 1.656 3.364 3.697" transform="translate(101)"/>
            <path fill="#71BC8A" d="M45.59 38.38s.372-1.376 1.334-.505c-.094.265 1.972 1.981 1.972 1.981s.731 1.29-.812 1.385c-.87-.276-2.216-1.015-2.494-2.86" transform="translate(101)"/>
            <path fill="#000" d="M50.731 37.638c0 1.114-.822 2.016-1.835 2.016-1.014 0-1.835-.902-1.835-2.016 0-1.114.821-2.016 1.835-2.016 1.013 0 1.835.902 1.835 2.016" transform="translate(101)"/>
            <path fill="#FFF" d="M54.096 37.638c0 .557-.959 1.008-2.142 1.008-1.182 0-2.14-.451-2.14-1.008 0-.557.958-1.008 2.14-1.008 1.183 0 2.142.451 2.142 1.008" transform="translate(101)"/>
            <path fill="#43775B" d="M40.74 37.638c0 2.025-1.493 3.666-3.336 3.666-1.842 0-3.336-1.641-3.336-3.666s1.494-3.666 3.336-3.666c1.843 0 3.337 1.641 3.337 3.666" transform="translate(101)"/>
            <path fill="#71BC8A" d="M34.126 38.374s.369-1.365 1.323-.5c-.094.262 1.955 1.964 1.955 1.964s.726 1.28-.805 1.373c-.863-.273-2.198-1.007-2.473-2.837" transform="translate(101)"/>
            <path fill="#000" d="M39.24 37.638c0 1.114-.822 2.016-1.836 2.016-1.013 0-1.835-.902-1.835-2.016 0-1.114.822-2.016 1.835-2.016 1.014 0 1.835.902 1.835 2.016" transform="translate(101)"/>
            <path fill="#FFF" d="M41.422 37.606c0 .556.223 1.04-.96 1.04-1.182 0-2.14-.451-2.14-1.008 0-.557.958-1.008 2.14-1.008 1.183 0 .96.419.96.976" transform="translate(101)"/>
            <path fill="#000" fill-opacity=".3" d="M19.418 32.919s34.228.479 42.827 0c.157-.02-3.059-5.457-3.059-5.457l-37.09-.057s-2.169 3.269-2.678 5.514" transform="translate(101)"/>
            <path fill="#5D6D84" d="M13.081 32.482c9.166-3.77 33.707-4.734 47.236-2.529 2.919.476 5.762 1.1 7.391 1.874 0-3.153-5.463-19.206-29.28-17.679-18.54 1.19-24.473 14.624-25.347 18.334" transform="translate(101)"/>
            <path fill="#000" d="M52.053 29.277c-.862-.436-1.507-.695-3.732-1.228-1.017-.279-1.204-2.243.287-2.368 2.02-.168 4.817.865 4.972 2.184.162 1.371-.91 1.723-1.527 1.412M37.839 28.407c-1.04.329-1.889.632-3.738 1.387-1.326.437-2.696-.834-1.15-2.212 1.264-1.128 4.394-2.19 5.132-1.386.935 1.017.415 2.003-.244 2.211" transform="translate(101)"/>
            <path fill="#08C" d="M37.152 57.749c-.272.33-.784-.035-.555-.397 2.785-4.403 7.534-10.452 12.755-10.75 4.143-.237 6.154 2.779 7.124 5.54.145.413-.44.668-.654.287-1.148-2.04-3.037-4.062-5.998-3.943-4.422.176-9.494 5.387-12.672 9.263" transform="translate(101)"/>
            <path fill="#08C" d="M47.15 51.655c1.488-1.167 4.067-2.635 5.458-.22.094.164-.086.35-.254.266-.856-.433-2.43-.854-5.004.28-.207.091-.378-.186-.2-.326M32.9 45.786s5.29 2.275 8.74-5.561c-.095.198-1.38 9.1-8.74 5.561M50.6 45.463s-6.119 2.619-7.867-4.802c.122.198 2.185 5.238 7.866 4.802" transform="translate(101)"/>
            <path fill="#FFEF5A" d="M48.633 88.896c-.163.405 2.54.99 4.37 1.964.205.11.405.225.599.347 2.845 1.777 5.375 5.052 5.738 8.383 1.092 10.04 1.31 15.715 1.092 20.953 1.53-.655 2.185-3.929 2.622-6.766 0 0 .219-6.111-1.127-14.427-.594-3.67-2.725-6.924-6.038-8.62-3.438-1.76-6.985-2.51-7.256-1.834M47.103 115.96l-.655 16.805s2.321-.251 4.766-1.435c.082-.185.26-13.624.26-13.624s-.656-.873-4.37-1.746M47.977 66.852c.437.655 1.093 2.62 1.311 3.71.656.219 3.278 1.31 4.37 2.183-.218-1.746-1.966-5.02-1.966-5.02s-2.622-.873-3.715-.873" transform="translate(101)"/>
            <path fill="#FFB000" d="M27.437 72.09s-1.187 6.744 1.81 9.36c-.123.287-2.902-.247-2.902-.247s-1.748-5.207 1.092-9.113M58.247 72.308s.28 6.526-2.717 9.143c.124.286 2.903-.248 2.903-.248s2.436-4.53-.186-8.895" transform="translate(101)"/>
            <path fill="#FFEF5A" d="M59.777 10.978c3.714 2.838 8.731 6.853 12.018 15.06 1.31 3.274 2.798 1.948 1.966-.873-1.916-6.5-5.052-11.912-11.433-16.576-2.37-1.732-6.053-.286-2.551 2.39" transform="translate(101)"/>
            <path fill="#7E92A8" d="M45.574 14.252s8.522 5.02 11.144 15.278c-.065-.094 4.807.655 4.807.655s-1.967-10.04-11.581-15.278c-1.53-.436-4.37-.655-4.37-.655" transform="translate(101)"/>
        </g>
    </g>
</svg>
