<svg xmlns="http://www.w3.org/2000/svg" width="288" height="156" viewBox="0 0 288 156">
    <g fill="none" fill-rule="evenodd">
        <g>
            <path fill="#F7F7F7" d="M145.227 56.465L145.227 6.329 130.813 6.329 130.813 22.36 127.209 22.36 127.209 2.086 113.891 2.086 113.891 53.951 111.541 53.951 111.541 27.861 101.827 27.861 102.188 75.247zM183.65 78.321L184.252 24.679 174.295 24.679 174.295 53.832 171.806 53.832 171.806 10.901 162.606 10.901 162.606 62.998 160.983 62.998 160.983 39.553 154.273 39.553 154.489 66.477zM99.845 71.812L99.845 59.88 95.159 59.88 95.159 18.661 83.805 18.661 83.805 57.349 80.741 57.349 80.741 4.56 64.16 4.56 64.16 56.626 59.655 56.626 59.655 23.181 33.342 23.181 33.342 39.271 24.511 39.271 24.511 74.524z" transform="translate(0 34)"/>
            <path fill="#F2F2F2" d="M104.35 75.247s.541-9.22-6.307-9.22c-5.948.904-5.768 6.508-5.768 6.508s.721-8.135-4.145-8.135-3.785 7.774-3.785 7.774-.36-5.785-6.848-5.062c-6.488.723-7.21 5.604-7.21 5.604s-3.243-5.966-6.127-4.158c-2.883 1.808-2.523 3.797-2.523 3.797s-4.506-4.52-8.65-.904c-2.704 2.53-1.864 5.186-1.864 5.186l53.227-1.39z" transform="translate(0 34)"/>
            <path fill="#F7F7F7" d="M267.454 75.999L267.454 30.411 249.839 30.411 249.839 65.574 246.14 65.574 246.14 9.207 229.934 9.207 229.934 27.23 225.883 27.23 225.883 4.436 210.91 4.436 210.91 62.747 208.268 62.747 208.268 33.415 197.347 33.415 197.699 77.236z" transform="translate(0 34)"/>
            <path fill="#F2F2F2" d="M184.01 71.812c3.965-.542 4.325 2.17 4.325 2.17s3.064-7.232 10.093-3.074c2.884 1.989 3.064 5.062 3.064 5.062s1.802-7.05 4.866-6.689c3.064.362 3.244 6.147 3.244 6.147s1.793-3.544 5.407-3.797c7.75-.542 9.011 4.7 9.011 4.7s3.424-3.434 7.75-.541c1.71 1.143 1.081 2.53 1.081 2.53l-50.823-.542s-1.803-4.881 1.982-5.966" transform="translate(0 34)"/>
            <path fill="#EAEAEA" d="M39.87 33.354c8.893-25.448 22.973-13.219 21.897-4.199-1.076 9.02 2.751 9.817 7.564 13.355 6.509 4.785 3.687 20.882-8.057 24.687-15.912 5.155-29.729-10.02-21.404-33.843" transform="translate(0 34)"/>
            <path fill="#F3F3F3" d="M56.483 94.89l13.325-5.71 6.875-3.062 6.88-3.052c9.168-4.083 18.364-8.1 27.548-12.144l27.595-12.035.428-.186.429.187 28.23 12.339 14.095 6.217 7.047 3.11 7.038 3.131 14.071 6.271 14.054 6.311c9.357 4.237 23.263 9.95 28.037 12.787 4.774 2.837-18.987-7.84-28.464-11.8l-14.196-5.982-14.179-6.023-7.087-3.015-7.078-3.037-14.304-6.79-28.122-11.534.43-.445-27.569 11.978c-9.228 3.941-18.095 8.295-27.34 12.197l-6.93 2.937-6.933 2.927-13.88 5.826c-9.264 3.859-27.827 12.761-27.827 11.496 9.113-4.209 18.678-8.773 27.827-12.899z" transform="translate(0 34)"/>
            <path fill="#EAEAEA" d="M60.983 83.62c-2.062.161-5.58-1.215-4.918-5.15.486-2.004 3.962-8.386 8.357-7.964 4.359.418 4.145 12.524-3.44 13.115" transform="translate(0 34)"/>
            <path fill="#E2E2E2" d="M52.312 29.385s-2.12 18.18-2.043 21.689c-.177-.034-3.442-4.144-4.625-8.597l-.42.288s2.167 7.03 5.31 9.83l.828 44.83 2.582-1.328s-.166-2.943-.297-5.32c-.018-.32 4.737-2.806 6.658-9.28.04-.136 3.667-3.368 2.779-4.108-.13-.107-2.478 2.622-2.569 2.485.02-1.085.05-2.712-.674-2.544-.146 7.953-6.493 11.924-6.519 11.453-.578-10.657-1.358-29.764-1.404-35.743.046-5.142.47-14.26.47-14.26s5.525-5.03 6.201-7.66c-.288-.423-4.95 5.873-6.29 6.172.31-.677.013-7.907.013-7.907" transform="translate(0 34)"/>
            <path fill="#F7F7F7" d="M7.525 12.675c0-2.084-1.685-3.774-3.762-3.774C1.685 8.901 0 10.591 0 12.675h7.525zM268.356 18.584c0-2.55-2.06-4.617-4.603-4.617-2.542 0-4.603 2.067-4.603 4.617h9.206zM256.741 18.584c0-1.726-1.395-3.126-3.116-3.126s-3.116 1.4-3.116 3.126h6.232zM55.645 12.675c0-2.084-1.684-3.774-3.762-3.774-1.1 0-2.086.476-2.775 1.23-.334-2.207-1.48-4.973-5.09-5.217-4.757-.321-5.44 3.716-5.519 4.371.09-.954.541-9.104-10.121-9.104-8.494.406-8.764 8.52-8.764 8.52-1.792-2.978-9.303-2.299-8.36 4.193h37.933s.01-.08.02-.219h6.438zM202.573 15.086c0-1.515-1.223-2.742-2.733-2.742-.798 0-1.515.346-2.014.894-.244-1.604-1.076-3.612-3.698-3.79-3.455-.233-3.95 2.7-4.008 3.175.065-.693.646-6.182-7.098-6.182-6.17.294-6.371 6.87-6.053 8.803h20.914s.007-.058.014-.158h4.676z" transform="translate(0 34)"/>
            <path fill="#F7F7F7" d="M288 18.474c0-1.19-.962-2.155-2.148-2.155-.627 0-1.19.272-1.583.703-.192-1.26-.846-2.84-2.907-2.979-2.715-.183-3.104 2.122-3.15 2.496.052-.545.508-4.86-5.578-4.86-4.85.232-5.008 5.4-4.757 6.92h16.436s.006-.046.012-.125H288z" transform="translate(0 34)"/>
            <path fill="#EAEAEA" d="M195.058 66.837s10.572-8.78 3.396-20.09C190.443 34.12 187.391 48.853 182.05 50c-9.443 2.03.834 24.883 13.008 16.837" transform="translate(0 34)"/>
            <path fill="#E2E2E2" d="M185.632 54.818s.901 4.158 3.605 6.328c.36 0-.379 19.66-.379 19.66l1.411.747.41-21.853s2.883-5.424 2.703-9.04c0-.18-3.785 9.04-3.785 9.04s-2.163-1.628-3.965-4.882" transform="translate(0 34)"/>
            <path fill="#EDEDED" d="M220.065 85.38s-4.505-16.09 11.354-16.994c15.72-.896 12.616 15.91 12.616 15.91l-23.97 1.084z" transform="translate(0 34)"/>
            <path fill="#F2F2F2" d="M242.866 86.826s-2.464-8.798 6.21-9.293c8.596-.49 6.898 8.7 6.898 8.7l-13.108.593zM17.068 74.795s-2.464-8.799 6.21-9.293c8.596-.49 6.898 8.7 6.898 8.7l-13.108.593z" transform="translate(0 34)"/>
            <path fill="#F2F2F2" d="M10.295 75.156s-1.539-5.493 3.876-5.802c5.367-.305 4.307 5.432 4.307 5.432l-8.183.37z" transform="translate(0 34)"/>
        </g>
        <g>
            <path fill="#F2DB79" d="M12.299 110.551s6.839 5.407 16.585 2.644c.279.4-9.128 6.638-16.585-2.644" transform="translate(83)"/>
            <path fill="#FFCE00" d="M94.365 33.952C94.122 14.568 79.673.807 60.817.177c-.333-.119-4.926.096-5.259.214C37.212 1.546 23.41 14.89 23.167 34.273c-.085 6.778 1.16 14.261 2.633 18.55 1.213 3.535 3.352 9.254 6.505 9.006 2.05-.16 2.787-1.405 2.501-2.019l26.531-.79 22.113.79c-.286.614-.6 1.859 1.45 2.02 3.153.247 5.517-5.472 6.73-9.007 1.473-4.289 2.82-12.093 2.735-18.871" transform="translate(83)"/>
            <path fill="#FFB000" d="M31.949 56.475c-12.663-32.796 7.28-50.443 8.078-51.38l-.16-.181c-10 5.632-16.534 16.077-16.7 29.36-.085 6.777 1.16 14.26 2.633 18.549 1.213 3.535 3.352 9.254 6.505 9.007 1.42-.112 2.21-.744 2.466-1.325l-2.822-4.03z" transform="translate(83)"/>
            <path fill="#9ED7FF" d="M16.03 105.678s-1.048-2.916 1.47-3.997c2.94-1.262 1.958 1.98 3.587 3.21 3.616 2.73 7.756 6.677 10.067 9.202 1.05-1.052 9.363-9.026 10.06-10.89.233-.466.233 7.223.233 7.223s-6.774 7.693-8.402 9.557c-.892 1.02-1.74 5.77-5.462 4.838-3.723-.932-11.554-19.143-11.554-19.143" transform="translate(83)"/>
            <path fill="#476172" d="M11.434 106.698s-1.86 4.893 4.188 12.349c5.2 6.41 10.238 8.753 12.591 7.878.436-.162 2.02-1.915 2.067-2.287.232-1.864-1.63-7.222-7.213-13.98-5.584-6.756-8.608-9.785-11.633-3.96" transform="translate(83)"/>
            <path fill="#304956" d="M28.929 126.288c1.175-2.729-2.39-7.925-7.025-13.532-4.676-5.658-8.717-8.927-10.286-6.446-.532.885-2.045 5.28 4.004 12.736 5.242 6.46 11.33 9.983 13.307 7.242" transform="translate(83)"/>
            <path fill="#476172" d="M21.281 105.258c-.21 1.052-1.05 3.576-1.05 3.576s3.598 4.838 4.831 4.838c.63 0 1.891-2.945 1.47-4.207-.387-1.164-5-5.462-5.25-4.207" transform="translate(83)"/>
            <path fill="#9ED7FF" d="M102.433 105.258s1.047-2.917-1.47-3.997c-2.941-1.262-1.958 1.979-3.587 3.21-3.616 2.73-7.757 6.677-10.067 9.201-1.05-1.052-9.363-9.025-10.061-10.89-.233-.465-.233 7.223-.233 7.223s6.774 7.693 8.403 9.557c.891 1.02 1.739 5.77 5.462 4.839 3.722-.933 11.553-19.143 11.553-19.143" transform="translate(83)"/>
            <path fill="#476172" d="M107.028 106.277s1.862 4.893-4.188 12.349c-5.2 6.41-10.237 8.753-12.59 7.878-.436-.162-2.02-1.915-2.067-2.287-.233-1.864 1.629-7.222 7.212-13.979 5.584-6.757 8.609-9.785 11.633-3.96" transform="translate(83)"/>
            <path fill="#304956" d="M89.534 125.868c-1.175-2.73 2.39-7.925 7.025-13.533 4.675-5.657 8.717-8.926 10.285-6.446.532.885 2.046 5.281-4.004 12.737-5.241 6.46-11.33 9.982-13.306 7.242" transform="translate(83)"/>
            <path fill="#476172" d="M97.182 104.837c.21 1.052 1.05 3.576 1.05 3.576s-3.598 4.838-4.832 4.838c-.63 0-1.89-2.945-1.47-4.207.387-1.164 5.001-5.462 5.252-4.207" transform="translate(83)"/>
            <path fill="#78BCEC" d="M73.497 82.17c0 .22 1.31 5.248 5.895 5.904 4.585.656 10.48-6.559 10.699-8.745.218-2.187-16.594 2.842-16.594 2.842M28.52 81.296c.219.219 3.276 9.183 9.389 7.653 7.655-1.917 5.458-10.714 5.458-10.714l-14.846 3.061z" transform="translate(83)"/>
            <path fill="#9ED7FF" d="M86.16 50.912c0 14.008-12.505 19.234-26.854 19.234-14.35 0-27.292-4.804-27.292-18.811s7.629-31.42 27.292-31.914c16.811-.423 26.855 17.484 26.855 31.491" transform="translate(83)"/>
            <path fill="#505B6D" d="M95.54 59.358c-1.677.187-3.284.851-4.592 1.687l.01-.018-.391.273-.143.1-13.215 9.223 1.458.834 9.211-6.33c.406 1.566 3.541 2.784 7.35 2.784 4.084 0 6.978-.834 7.395-3.129.938-5.168-3.333-5.84-7.083-5.424" transform="translate(83)"/>
            <path fill="#2E3B4C" d="M74.37 71.02s2.839-2.405 4.586-.656c1.965 1.968-1.092 5.029-1.092 5.029l-3.493-4.373z" transform="translate(83)"/>
            <path fill="#505B6D" d="M24.704 61.254c1.626.132 3.196.726 4.485 1.496l-.01-.017.385.252c.047.03.094.06.14.092l13.03 8.526-1.384.848-9.08-5.848c-.346 1.524-3.339 2.792-7.017 2.902-3.945.119-6.764-.604-7.233-2.808-1.055-4.964 3.05-5.738 6.684-5.443" transform="translate(83)"/>
            <path fill="#2E3B4C" d="M45.582 71.887s-2.908-2.32-4.602-.519c-1.905 2.026 1.241 4.994 1.241 4.994l3.361-4.475z" transform="translate(83)"/>
            <path fill="#39475B" d="M79.716 74.878l13.02 1.482c1.655.188 2.82 1.716 2.567 3.364-.231 1.508-1.576 2.587-3.096 2.484l-13.47-.912.979-6.418zM40.431 74.878l-13.02 1.482c-1.655.188-2.82 1.716-2.568 3.364.232 1.508 1.577 2.587 3.097 2.484l13.47-.912-.979-6.418z" transform="translate(83)"/>
            <path fill="#9ED7FF" d="M81.357 75.174l3.644.367s2.775 2.612.112 6.042c-.306.082-1.944.023-1.944.023s1.065 1.878 4.648.456c.18.217 1.619 1.64 4.239.328.218 0 2.315.561 4.366-1.75 1.747-1.967 1.092-3.716.655-4.81-.436-1.093-1.965-3.28-3.493-3.06-1.31.218-1.092-.438-2.183-.657-1.092-.218-1.747.438-2.62.438-.874 0-1.529-.438-2.839-.656-1.31-.219-1.965.218-3.056 1.093-1.092.875-1.529 2.186-1.529 2.186" transform="translate(83)"/>
            <path fill="#08C" d="M88.78 74.518s2.402 1.53 2.402 3.717c0 1.763-1.528 3.28-3.493 3.936 0 0 2.402-1.093 2.62-3.936.08-1.036-.873-2.623-1.528-3.717M92.71 74.956s2.402 1.53 2.402 3.717c0 1.762-1.528 3.28-3.493 3.935 0 0 2.402-1.093 2.62-3.935.08-1.037-.873-2.624-1.528-3.717" transform="translate(83)"/>
            <path fill="#9ED7FF" d="M39.492 75.174l-2.893.438s-2.402 2.405 0 5.903c.306.082 1.31 0 1.31 0s-2.62 2.842-5.677.656c-.18.217-1.091 1.312-3.711 0-.219 0-2.043.78-4.094-1.53-1.747-1.968-.799-4.195-.273-5.248.437-.875 2.402-2.842 4.203-2.624 1.31.219 1.092-.437 2.183-.656 1.092-.218 1.474.438 2.347.438.874 0 .437-.219 1.747-.438 1.31-.218 2.183.438 3.275 1.312.873.875 1.583 1.75 1.583 1.75" transform="translate(83)"/>
            <path fill="#08C" d="M32.069 74.518s-2.402 1.53-2.402 3.717c0 1.763 1.037 3.28 2.565 3.936 0 0-1.473-1.093-1.692-3.936-.08-1.036.874-2.623 1.529-3.717M28.139 74.956s-2.402 1.53-2.402 3.717c0 1.762.819 2.842 2.784 3.498 0 0-1.965-1.093-1.91-3.498.023-1.04.873-2.624 1.528-3.717" transform="translate(83)"/>
            <path fill="#FFCE00" d="M81.139 74.737c-2.402-1.968-2.183-1.312-5.24-3.498-2.856-2.043-6.987-4.81-15.61-4.532-8.188-.06-12.755 2.489-15.612 4.532-3.056 2.186-2.838 1.53-5.24 3.498-2.183 1.75-1.746 6.34.874 7.653 8.078.874 10.48 6.996 10.48 6.996h19.213s1.31-5.903 10.262-6.996c2.62-1.312 3.056-5.904.873-7.653" transform="translate(83)"/>
            <path fill="#FFB000" d="M49.699 87.856l21.178-.22s-1.965-3.716-10.916-3.497c-8.952.218-10.262 3.717-10.262 3.717" transform="translate(83)"/>
            <path fill="#FFCE00" d="M40.529 134.208c-1.092-1.49-6.113-24.324-1.31-39.575 3.057-8.356 21.397-8.308 21.397-8.308s12.445-1.739 19.213 7.871c5.677 8.148 2.183 37.403 1.31 38.926-.873 1.523-4.148 9.401-20.96 9.61-13.894.173-18.558-7.035-19.65-8.524" transform="translate(83)"/>
            <path fill="#825E17" d="M49.827 136.613c2.076 5.903 18.128 9.183 22.95.437 2.335-4.236 2.027-12.025 2.027-12.025l-27.484-.219s.724 6.735 2.507 11.807" transform="translate(83)"/>
            <path fill="#505B6D" d="M61.69 154.978h-1.066c-3.554 0-6.02-4.81-6.672-10.494-.846-7.373.237-26.675.237-26.675l14.723-.218s.842 20.552-.299 29.08c-.714 5.341-3.37 8.307-6.923 8.307" transform="translate(83)"/>
            <path fill="#3D3F4F" d="M68.285 135.3c0 8.091-.181 12.245-.893 12.245-.713 0-.695-4.591-.695-12.682 0-8.09.082-13.993.794-13.993.712 0 .794 6.34.794 14.43" transform="translate(83)"/>
            <path fill="#FFCE00" d="M61.277 133.333c10.624-.219 13.805-7.835 13.748-9.195-.263-6.226-3.86-14.406-15.223-14.2-10.512.19-12.766 9.183-12.482 14.868.053 1.067 2.708 8.964 13.957 8.527" transform="translate(83)"/>
            <path fill="#FFB000" d="M60.756 115.842c-11.614.423-13.436 10.276-13.436 10.276s0-11.807 12.294-12.9c13.028-1.158 16.263 10.685 14.995 12.463 0 0-1.867-10.277-13.853-9.84M70.004 87.2s1.747-9.402 12.445-8.09c0 .219-.437 1.968-1.092 2.405-.218.219-6.768-1.53-11.353 5.685M50.572 87.2s-1.746-9.402-12.445-8.09c0 .219.437 1.968 1.092 2.405.218.219 6.768-1.53 11.353 5.685" transform="translate(83)"/>
            <path fill="#FFF" d="M49.262 73.207c2.839-3.936 17.467-5.03 22.489 0 2.401 2.842-2.402 7.652-4.585 7.87-3.073.308-9.607.22-12.664.438-1.46.104-8.078-4.373-5.24-8.308" transform="translate(83)"/>
            <path fill="#FF4C5A" d="M60.834 95.508c-3.065 0-7.205 1.968-8.733 6.56-1.946 5.844 3.93 7.214 8.733 6.996 4.803-.219 10.419-2.31 7.642-7.871-1.965-3.936-5.459-5.685-7.642-5.685M45.246 2.405S44.41 8.11 59.344 7.039c10.727-.858 11.75-4.648 11.779-5.147-.363-.138-12.83-4.503-25.877.513" transform="translate(83)"/>
            <path fill="#39475B" d="M86.597 59.214c2.184-4.753 4.585-38.919-17.903-43.947-.218.223 8.952 13.555 8.952 13.555s8.733 11.151 5.676 32.14c-.08.214 1.747 2.348 3.275-1.748M30.704 57.902s-9.825-37.825 20.96-41.323c.218.221-12.227 11.806-12.227 11.806-.672.748-8.296 13.993-4.803 32.578.08.212-2.62 1.53-3.93-3.061" transform="translate(83)"/>
            <path fill="#FFF" d="M72.087 39.61c-1.104 3.258-4.544 5.035-7.685 3.968-3.14-1.067-4.79-4.573-3.686-7.832 1.104-3.26 4.544-5.036 7.685-3.97 3.14 1.067 4.79 4.574 3.686 7.833" transform="translate(83)"/>
            <path fill="#203D4F" d="M72.036 39.592c.25-.755.334-1.564.235-2.343-.09-.78-.364-1.523-.744-2.176-.38-.656-.87-1.224-1.43-1.692-.557-.47-1.197-.828-1.884-1.052-.685-.226-1.41-.315-2.13-.272-.722.047-1.437.243-2.095.566-.659.325-1.255.78-1.764 1.325-.506.547-.934 1.184-1.225 1.894-.288.709-.45 1.483-.43 2.262.015.777.195 1.556.537 2.256.345.698.844 1.314 1.446 1.782.6.47 1.286.801 1.996 1.006 1.423.406 2.942.312 4.345-.268.699-.291 1.367-.715 1.913-1.28.552-.56.975-1.256 1.23-2.008m.103.035c-.264.763-.637 1.489-1.119 2.153-.486.659-1.085 1.26-1.802 1.717-.715.455-1.544.765-2.408.852-.862.093-1.748-.03-2.554-.34-.805-.312-1.528-.81-2.11-1.421-.581-.613-1.037-1.323-1.36-2.08-.657-1.51-.793-3.235-.353-4.859.226-.806.595-1.59 1.122-2.267.524-.68 1.195-1.25 1.952-1.673.756-.425 1.604-.7 2.478-.79.874-.094 1.772.016 2.603.305.83.292 1.598.763 2.222 1.375.625.612 1.088 1.37 1.376 2.17.289.803.398 1.646.382 2.466-.022.822-.169 1.627-.429 2.392" transform="translate(83)"/>
            <path fill="#FFF" d="M60.1 38.69c-.533 3.042-2.957 5.066-6.013 4.418-3.754-.797-3.782-3.68-3.231-6.042.702-3.008 3.034-5.147 5.587-4.699 2.552.449 4.19 3.28 3.657 6.322" transform="translate(83)"/>
            <path fill="#203D4F" d="M60.046 38.68c.11-.662.092-1.344-.056-1.99-.148-.646-.426-1.251-.784-1.774-.357-.524-.796-.966-1.279-1.31-.483-.344-1.026-.58-1.598-.665-.571-.091-1.15-.035-1.704.146-.554.183-1.075.503-1.53.913-.457.41-.844.91-1.173 1.453-.326.544-.6 1.132-.792 1.759-.19.631-.334 1.283-.342 1.94-.014.652.1 1.319.421 1.878.318.56.834.973 1.409 1.227.149.056.287.128.44.17l.458.128c.315.054.627.134.937.15 1.235.13 2.445-.12 3.505-.81.526-.344 1.004-.806 1.365-1.361.363-.554.607-1.194.723-1.854m.107.019c-.124.67-.31 1.33-.586 1.966-.276.635-.65 1.252-1.167 1.768-.513.514-1.169.917-1.89 1.113-.72.203-1.485.21-2.198.06-.18-.035-.357-.078-.525-.14-.17-.058-.342-.107-.508-.174l-.49-.23c-.162-.078-.312-.187-.466-.279-.604-.4-1.107-.952-1.425-1.588-.32-.639-.444-1.344-.48-2.037-.028-.696.024-1.393.13-2.079.112-.69.294-1.386.6-2.037.3-.652.715-1.26 1.231-1.787.515-.528 1.144-.97 1.862-1.244.714-.28 1.523-.359 2.285-.22.762.136 1.48.49 2.055.983.578.494.997 1.133 1.267 1.803.271.674.396 1.38.433 2.072.038.694-.012 1.378-.128 2.05" transform="translate(83)"/>
            <path fill="#43775B" d="M68.039 37.787c0 1.46-1.075 2.645-2.402 2.645-1.326 0-2.401-1.184-2.401-2.645s1.075-2.646 2.401-2.646c1.327 0 2.402 1.185 2.402 2.646" transform="translate(83)"/>
            <path fill="#71BC8A" d="M63.277 38.318s.266-.985.953-.361c-.067.189 1.407 1.417 1.407 1.417s.522.924-.58.991c-.62-.197-1.581-.726-1.78-2.047" transform="translate(83)"/>
            <path fill="#000" d="M66.947 37.787c0 .797-.586 1.443-1.31 1.443-.723 0-1.31-.646-1.31-1.443s.587-1.443 1.31-1.443c.724 0 1.31.646 1.31 1.443" transform="translate(83)"/>
            <path fill="#FFF" d="M69.349 37.787c0 .398-.684.721-1.528.721s-1.529-.323-1.529-.721c0-.399.685-.722 1.529-.722.844 0 1.528.323 1.528.722" transform="translate(83)"/>
            <path fill="#43775B" d="M58.412 37.787c0 1.449-1.066 2.623-2.381 2.623-1.316 0-2.382-1.174-2.382-2.623 0-1.45 1.066-2.624 2.382-2.624 1.315 0 2.381 1.175 2.381 2.624" transform="translate(83)"/>
            <path fill="#71BC8A" d="M53.69 38.313s.264-.976.945-.358c-.067.188 1.396 1.406 1.396 1.406s.517.916-.575.983c-.616-.196-1.57-.72-1.766-2.03" transform="translate(83)"/>
            <path fill="#000" d="M57.34 37.787c0 .797-.586 1.443-1.31 1.443-.723 0-1.31-.646-1.31-1.443s.587-1.443 1.31-1.443c.724 0 1.31.646 1.31 1.443" transform="translate(83)"/>
            <path fill="#FFF" d="M59.742 37.787c0 .398-.684.721-1.528.721s-1.528-.323-1.528-.721c0-.399.684-.722 1.528-.722s1.528.323 1.528.722" transform="translate(83)"/>
            <path fill="#9ED7FF" d="M63.863 43.644c1.689-1.991 6.261-4.489 10.418-2.824-.104 1.77-1.66 2.93-3.949 3.955-2.09.936-4.884 1.144-6.469-1.131M57.996 42.967c-1.391-1.64-5.157-3.698-8.581-2.326.085 1.457 1.019 2.642 2.904 3.486 1.722.771 4.371.714 5.677-1.16" transform="translate(83)"/>
            <path fill="#9B426A" d="M46.642 51.124c0-2.851.437-5.029 3.057-6.56 2.62-1.53 5.022-1.311 7.205.22 2.183 1.53 5.895 5.247 10.917.437 3.056-2.624 6.55-1.968 7.86 2.186 1.528 3.935 0 15.523-14.192 16.617-13.1.218-14.847-10.932-14.847-12.9" transform="translate(83)"/>
            <path fill="#682745" d="M67.82 60.963c1.31-6.56-2.838-8.527-4.366-8.965-1.528-.437-4.148.219-3.93 1.53.218 1.313 2.183 2.843-.873 2.625-3.057-.22-1.31-2.187-1.092-2.624.218-.437 0-3.498-4.803-.875-3.418 1.867-3.188 5.06-2.77 6.748 2.186 2.578 5.75 4.718 11.503 4.622 2.095-.162 3.911-.553 5.485-1.113.407-.565.7-1.214.847-1.948" transform="translate(83)"/>
            <path fill="#E06396" d="M64.546 56.371c-2.62 0-2.839 2.405-2.839 2.405-6.146-2.335-7.555 3.441-7.62 3.794 1.937.931 4.364 1.504 7.402 1.454 4.344-.335 7.5-1.654 9.746-3.435-1.231-2.687-4.364-4.218-6.69-4.218" transform="translate(83)"/>
            <path fill="#FFF" d="M69.13 48.937c.982-1.375-.008-3.97-.307-4.481-.329.219-.663.473-1.002.765-5.022 4.81-8.734 1.093-10.917-.438-.477-.334-.997-.601-1.543-.806l-.094-.003s-2.293 3.433-.765 5.62c1.529 1.967 5.24 2.186 7.642 2.186 2.838 0 5.895-1.312 6.987-2.843" transform="translate(83)"/>
            <path fill="#08C" d="M63.343 44.22s5.237-4.226 11.437-2.811c-.024-.437-1.415-1.894-5.304-1.026-4.393.981-6.133 3.837-6.133 3.837M58.321 43.345s-4.255-3.372-9.495-1.841c-.024-.437 1.55-1.585 4.585-1.093 3.429.555 4.91 2.934 4.91 2.934" transform="translate(83)"/>
            <path fill="#000" fill-opacity=".3" d="M37.254 32.977s34.2.48 42.793 0c.156-.02-3.056-5.466-3.056-5.466l-37.062-.058s-2.166 3.275-2.675 5.524" transform="translate(83)"/>
            <path fill="#5D6D84" d="M30.922 32.54c9.159-3.777 33.68-4.743 47.198-2.534 2.917.477 5.758 1.101 7.386 1.877 0-3.159-5.459-19.24-29.257-17.71-18.525 1.192-24.453 14.65-25.327 18.366" transform="translate(83)"/>
            <path fill="#000" d="M51.832 31.153s1.765-2.271 5.042-1.514c1.122.277 1.26-2.272-1.765-2.777-2.835-.473-4.537 2.02-4.537 3.534 0 1.514 1.26.757 1.26.757M69.256 28.89s-1.461-2.114-4.25-1.084c-.98.435-1.788-2.014.557-2.883 2.198-.814 4.332 1.091 4.591 3.018.219 1.628-.898.95-.898.95" transform="translate(83)"/>
            <path fill="#FF4C5A" d="M109.85 86.233c-2.15-1.156-8.33-14.022-2.136-16.686 5.076-2.183 6.6 5.879 6.6 5.879s5.929-6.096 8.544-.846c3.095 6.214-10.336 13.09-13.008 11.653" transform="translate(83)"/>
            <path fill="#FC5E7D" d="M11.516 49.97c-1.842.435-12-3.975-9.752-8.778 1.842-3.936 6.84.049 6.84.049s.343-6.7 4.542-4.95c4.97 2.072.658 13.14-1.63 13.68" transform="translate(83)"/>
            <path fill="#F9A0AD" d="M117.43 91.505c-.298-1.209 2.453-7.941 5.573-6.507 2.556 1.175.032 4.505.032 4.505s4.325.162 3.235 2.945c-1.29 3.294-8.471.559-8.84-.943M8.857 62.641c-1.047.646-8.398.12-8.108-3.234.238-2.749 4.275-1.4 4.275-1.4s-1.335-4.095 1.687-3.922c3.578.206 3.448 7.754 2.146 8.556" transform="translate(83)"/>
            <path fill="#FFEF5A" d="M66.446 89.053c-.163.406 2.539.992 4.366 1.968.205.109.405.225.599.347 2.842 1.78 5.37 5.06 5.733 8.398 1.092 10.058 1.31 15.742 1.092 20.99 1.528-.656 2.183-3.936 2.62-6.778 0 0 .218-6.122-1.127-14.453-.593-3.677-2.722-6.936-6.033-8.635-3.435-1.764-6.98-2.515-7.25-1.837M64.917 116.164L64.262 133s2.32-.252 4.763-1.438c.082-.185.259-13.649.259-13.649s-.655-.874-4.367-1.749M65.79 66.97c.437.656 1.092 2.624 1.31 3.717.656.219 3.276 1.312 4.367 2.186-.218-1.749-1.965-5.028-1.965-5.028s-2.62-.875-3.711-.875" transform="translate(83)"/>
            <path fill="#FFB000" d="M45.267 72.217s-1.186 6.756 1.809 9.377c-.124.287-2.9-.247-2.9-.247s-1.747-5.217 1.091-9.13M76.052 72.436s.28 6.537-2.715 9.158c.124.287 2.9-.247 2.9-.247s2.435-4.538-.185-8.911" transform="translate(83)"/>
            <path fill="#FFEF5A" d="M77.58 10.998c3.712 2.842 8.725 6.865 12.009 15.086 1.31 3.28 2.796 1.951 1.965-.874-1.915-6.512-5.048-11.933-11.424-16.606-2.369-1.735-6.049-.286-2.55 2.394" transform="translate(83)"/>
            <path fill="#7E92A8" d="M63.389 14.277s8.515 5.03 11.135 15.305c-.064-.094 4.803.656 4.803.656s-1.965-10.057-11.571-15.305c-1.529-.437-4.367-.656-4.367-.656" transform="translate(83)"/>
        </g>
    </g>
</svg>
