<svg xmlns="http://www.w3.org/2000/svg" width="110" height="72" viewBox="0 0 110 72">
    <g fill="none" fill-rule="evenodd">
        <path fill="#46C0C6" d="M55.394 0H0v72h86.135c12.695-9.612 8.826-29.23-4.246-38.376C64.622 21.542 71.464 6.847 55.394 0z" opacity=".6"/>
        <path fill="#1DA7B5" d="M61.112 33.482H23.03a2.955 2.955 0 0 0-2.955 2.955v.248c-.004.085-.021.167-.018.254l.018.662V61.276h.057a3.261 3.261 0 0 0 3.21 2.711h33.662a3.302 3.302 0 0 0 3.246-2.71h.862a2.978 2.978 0 0 0 2.978-2.979V36.46a2.978 2.978 0 0 0-2.978-2.978"/>
        <path fill="#1E1535" d="M61.064 58.323H20.075V33.531a3.001 3.001 0 0 1 3.002-3.002h37.987a3.024 3.024 0 0 1 3.025 3.024v21.745a3.025 3.025 0 0 1-3.025 3.025"/>
        <path fill="#D4AC2A" d="M25.636 39.882l-2.937-20.265a1.947 1.947 0 0 1 1.62-2.202l16.063-2.473a1.947 1.947 0 0 1 2.235 1.654l1.664 8.106-18.645 15.18z"/>
        <path fill="#F8D35A" d="M27.637 38.232l-2.03-11.95s5.163-3.854 2.098-7.467l10.524-1.808s-.36 5.18 3.955 5.063c.377 1.286.574 3.901.574 3.901l-15.12 12.261z"/>
        <path fill="#D4AC2A" d="M26.947 34.61l11.947-20.016a2.216 2.216 0 0 1 3.01-.783l15.97 9.342a2.217 2.217 0 0 1 .789 3.066l-4.348 8.357-27.368.034z"/>
        <path fill="#F8D35A" d="M29.9 34.588l6.78-12.016s7.33.3 7.213-5.093l10.597 5.954s-4.035 4.32-.138 7.313c-.59 1.406-2.292 3.86-2.292 3.86l-22.16-.018z"/>
        <path fill="#D4AC2A" d="M32.49 39.477c0-4.06 3.96-9.581 8.022-9.581a7.352 7.352 0 0 1 7.35 7.352c0 4.06-2.952 9.984-7.012 9.984s-8.36-3.695-8.36-7.755"/>
        <path fill="#4A377B" d="M57.004 61.034H23.343a3.268 3.268 0 0 1-3.268-3.268V34.648l-.018-.662c-.18-2.903 1.419-3.564 3.244-3.457l-.01.04c-.59 4.517 1.902 4.117 4.54 4.08h29.173a3.306 3.306 0 0 1 3.306 3.305v19.774a3.306 3.306 0 0 1-3.306 3.306"/>
        <path fill="#1E1535" d="M64.09 52.03H53.11a1.96 1.96 0 0 1-1.96-1.962V45.73a1.96 1.96 0 0 1 1.96-1.96H64.09v8.26z"/>
        <path fill="#4A377B" d="M57.752 47.633a2.206 2.206 0 1 1-4.398.347 2.206 2.206 0 0 1 4.398-.347"/>
        <g fill="#EBFFFF">
            <path fill-rule="nonzero" d="M19.927 14.187a.863.863 0 1 0-1.65.505.863.863 0 0 0 1.65-.505zm.956-.294a1.863 1.863 0 1 1-3.562 1.093 1.863 1.863 0 0 1 3.562-1.093zM17.5 42.17a.378.378 0 1 0-.755 0 .378.378 0 0 0 .756 0zm1 0a1.378 1.378 0 1 1-2.755.001 1.378 1.378 0 0 1 2.756 0zM36.325 4.364a.378.378 0 1 0-.756 0 .378.378 0 0 0 .756 0zm1 0a1.378 1.378 0 1 1-2.756 0 1.378 1.378 0 0 1 2.756 0zM28.09 28.647a.379.379 0 1 0-.757.001.379.379 0 0 0 .757-.001zm1 0a1.379 1.379 0 1 1-2.757-.001 1.379 1.379 0 0 1 2.757.001zM31.861 12.106a.5.5 0 1 1 0-1h3.207a.5.5 0 1 1 0 1h-3.207z"/>
            <path fill-rule="nonzero" d="M32.965 10.002a.5.5 0 1 1 1 0v3.208a.5.5 0 1 1-1 0v-3.207z"/>
            <path d="M46.011 14.622c.644 0 .645-1 0-1-.643 0-.645 1 0 1M61.746 7.643c.645 0 .645-1 0-1-.644 0-.645 1 0 1M77.004 55.015c.644 0 .645-1 0-1-.643 0-.645 1 0 1M85.975 16.681c.644 0 .645-1 0-1-.644 0-.645 1 0 1M8.997 21.847c.643 0 .644-1 0-1s-.645 1 0 1M25.434 42.54c.644 0 .645-1 0-1-.643 0-.645 1 0 1M20.563 6.278c.644 0 .645-1 0-1-.643 0-.645 1 0 1M22 50.837c.642 0 .644-1 0-1-.645 0-.646 1 0 1M19.127 26.83c.643 0 .645-1 0-1-.644 0-.645 1 0 1M62.958 22.537c.965 0 .967-1.5 0-1.5-.965 0-.967 1.5 0 1.5M72.306 27.9l-.518-.519a.2.2 0 0 1 0-.283l.518-.517a.2.2 0 0 1 .283 0l.517.517a.2.2 0 0 1 0 .283l-.517.518a.2.2 0 0 1-.283 0M73.016 28.327l.518-.518a.2.2 0 0 1 .283 0l.517.518a.2.2 0 0 1 0 .283l-.517.518a.202.202 0 0 1-.283 0l-.518-.518a.2.2 0 0 1 0-.283M71.788 29.555l.518-.518a.2.2 0 0 1 .283 0l.517.518a.2.2 0 0 1 0 .283l-.517.517a.2.2 0 0 1-.283 0l-.518-.517a.2.2 0 0 1 0-.283M70.56 28.327l.518-.518a.2.2 0 0 1 .283 0l.517.518a.2.2 0 0 1 0 .283l-.517.518a.202.202 0 0 1-.283 0l-.518-.518a.2.2 0 0 1 0-.283"/>
        </g>
    </g>
</svg>
