<?xml version="1.0" encoding="UTF-8"?>
<svg width="53px" height="24px" viewBox="0 0 53 24" version="1.1" xmlns="http://www.w3.org/2000/svg" xmlns:xlink="http://www.w3.org/1999/xlink">
    <!-- Generator: sketchtool 58 (101010) - https://sketch.com -->
    <title>3CCEB092-0009-4EE6-BEE8-DBAB978CCA83</title>
    <desc>Created with sketchtool.</desc>
    <g id="Final-Designs" stroke="none" stroke-width="1" fill="none" fill-rule="evenodd">
        <g id="6-1-Fare-Estimate_Pay-with-PAR" transform="translate(-24.000000, -440.000000)">
            <g id="Estimate-Card" transform="translate(0.000000, 339.000000)">
                <g id="Offer-Section" transform="translate(24.000000, 84.000000)">
                    <g id="Group-2-Copy" transform="translate(0.000000, 17.000000)">
                        <g id="Group-25">
                            <path d="M39.6043257,24 L0.75684,24 C0.338897143,24 -0.000302857143,23.66475 -0.000302857143,23.25 L-0.000302857143,0.75 C-0.000302857143,0.33525 0.338897143,0 0.75684,0 L51.7367829,0 C52.3084257,0 52.6748829,0.60375 52.4045829,1.10325 L40.2721257,23.60325 C40.1403829,23.84775 39.8837114,24 39.6043257,24" id="Fill-1" fill="#FDDF00"></path>
                            <path d="M15.9687486,0 L0.756991429,0 C0.338291429,0 -0.000151428571,0.33525 -0.000151428571,0.75 L-0.000151428571,23.25 C-0.000151428571,23.66475 0.338291429,24 0.756991429,24 L29.77222,24 L15.9687486,0 Z" id="Fill-4" fill="#FEC200"></path>
                            <path d="M12.9283657,11.3298 C12.9283657,10.41405 12.7807229,9.6453 12.48468,9.03705 C12.2113514,8.48055 11.8191514,8.2023 11.3164086,8.2023 C10.96888,8.2023 10.6728371,8.35605 10.4214657,8.67105 C10.1776657,8.98605 10.05198,9.36705 10.05198,9.8283 C10.16328,9.7623 10.2738229,9.73305 10.3851229,9.73305 C10.61378,9.73305 10.7841371,9.8208 10.8802943,10.0038 C10.9764514,10.18005 11.0279371,10.36305 11.0279371,10.54605 C11.0279371,10.67055 11.0135514,10.80255 10.9764514,10.9488 C11.1021371,11.00055 11.2353943,11.04405 11.3906086,11.0808 C11.6344086,11.1393 11.7381371,11.3298 11.7381371,11.49855 C11.7381371,11.66655 11.67908,11.78355 11.5602086,11.86455 C11.4791943,11.91555 11.3906086,11.9448 11.3088371,11.9448 C11.1982943,11.9448 11.00598,11.8938 10.7326514,11.79855 C10.6364943,12.42105 10.5842514,12.9558 10.5842514,13.3878 C10.5842514,14.03955 10.68798,14.5083 10.8878657,14.80905 C11.04308,15.03555 11.2202514,15.1533 11.4277086,15.1533 C12.0705229,15.1458 12.9503229,13.8198 12.9283657,11.3298 M9.32739429,15.10905 C8.90642286,14.4573 8.69139429,13.43955 8.69139429,12.04755 C8.69139429,11.6523 8.73606571,11.2788 8.81708,10.93455 C8.89885143,10.5903 9.07602286,10.3263 9.33496571,10.1433 C9.30543714,9.97455 9.29029429,9.79155 9.29029429,9.5943 C9.27590857,8.47305 10.2223371,7.30905 11.3164086,7.3308 C13.3349514,7.3308 13.9929086,9.8208 13.9929086,11.37405 C13.9785229,12.9408 13.19488,16.1493 11.1097086,16.1268 C10.36998,16.1268 9.77865143,15.79005 9.32739429,15.10905" id="Fill-7" fill="#000000"></path>
                            <path d="M19.2871543,7.279575 C19.48704,6.759825 19.5831971,6.320325 19.5831971,5.961075 C19.5831971,5.565825 19.5014257,5.367825 19.3462114,5.367825 C18.8805686,5.367825 18.5178971,6.583575 18.2665257,9.015075 C18.6662971,8.590575 19.0062543,8.012325 19.2871543,7.279575 M16.6545686,17.679825 C16.4478686,17.467575 16.3146114,17.123325 16.2479829,16.647075 C16.1298686,15.826575 16.0708114,14.640075 16.0708114,13.087575 C16.0708114,12.655575 16.0783829,12.201075 16.0927686,11.725575 C15.7747686,11.762325 15.4499543,11.805825 15.1319543,11.864325 L15.0577543,11.871825 C14.9911257,11.871825 14.9244971,11.857575 14.86544,11.820825 C14.7102257,11.739825 14.6292114,11.607825 14.6292114,11.424825 C14.6292114,11.249325 14.7177971,11.124825 14.8873971,11.044575 C15.3310829,10.854075 15.7528114,10.648575 16.1450114,10.421325 C16.2260257,9.154575 16.3592829,8.114325 16.5584114,7.301325 C16.8324971,6.122325 17.29814,5.295075 17.9485257,4.803825 C18.3036257,4.540575 18.73974,4.408575 19.2651971,4.408575 C20.0041686,4.408575 20.4478543,4.891575 20.4478543,5.770575 C20.4478543,6.393075 20.25554,7.081575 19.8784829,7.851075 C19.4347971,8.744325 18.8654257,9.462075 18.1703686,9.996825 C18.1484114,10.231575 18.1264543,10.480575 18.1044971,10.751325 C18.49594,10.758825 18.8805686,10.773075 19.2424829,10.809825 C19.48704,10.839075 19.65664,11.029575 19.65664,11.263575 C19.65664,11.520075 19.44994,11.681325 19.2129543,11.681325 C18.8358971,11.644575 18.4444543,11.630325 18.0446829,11.622825 C18.00834,12.333075 17.9931971,13.080075 17.9931971,13.857075 C17.9931971,15.123825 18.0522543,16.215075 18.1703686,17.130825 L18.1703686,17.277075 C18.1703686,17.467575 18.0969257,17.628825 17.9560971,17.753325 C17.7789257,17.921325 17.5646543,18.002325 17.3200971,18.002325 C17.09144,18.002325 16.8695971,17.892075 16.6545686,17.679825" id="Fill-9" fill="#000000"></path>
                            <path d="M25.0396986,7.279575 C25.2395843,6.759825 25.3357414,6.320325 25.3357414,5.961075 C25.3357414,5.565825 25.25397,5.367825 25.0987557,5.367825 C24.6331129,5.367825 24.2704414,6.583575 24.01907,9.015075 C24.4188414,8.590575 24.7587986,8.012325 25.0396986,7.279575 M22.4071129,17.679825 C22.2004129,17.467575 22.0671557,17.123325 22.0005271,16.647075 C21.8824129,15.826575 21.8233557,14.640075 21.8233557,13.087575 C21.8233557,12.655575 21.8309271,12.201075 21.8453129,11.725575 C21.5273129,11.762325 21.2024986,11.805825 20.8844986,11.864325 L20.8102986,11.871825 C20.74367,11.871825 20.6770414,11.857575 20.6179843,11.820825 C20.46277,11.739825 20.3817557,11.607825 20.3817557,11.424825 C20.3817557,11.249325 20.4703414,11.124825 20.6399414,11.044575 C21.0836271,10.854075 21.5053557,10.648575 21.8975557,10.421325 C21.97857,9.154575 22.1118271,8.114325 22.3109557,7.301325 C22.5850414,6.122325 23.0506843,5.295075 23.70107,4.803825 C24.05617,4.540575 24.4922843,4.408575 25.0177414,4.408575 C25.7567129,4.408575 26.2003986,4.891575 26.2003986,5.770575 C26.2003986,6.393075 26.0080843,7.081575 25.6310271,7.851075 C25.1873414,8.744325 24.61797,9.462075 23.9229129,9.996825 C23.9009557,10.231575 23.8789986,10.480575 23.8570414,10.751325 C24.2484843,10.758825 24.6331129,10.773075 24.9950271,10.809825 C25.2395843,10.839075 25.4091843,11.029575 25.4091843,11.263575 C25.4091843,11.520075 25.2024843,11.681325 24.9654986,11.681325 C24.5884414,11.644575 24.1969986,11.630325 23.7972271,11.622825 C23.7608843,12.333075 23.7457414,13.080075 23.7457414,13.857075 C23.7457414,15.123825 23.8047986,16.215075 23.9229129,17.130825 L23.9229129,17.277075 C23.9229129,17.467575 23.84947,17.628825 23.7086414,17.753325 C23.53147,17.921325 23.3171986,18.002325 23.0726414,18.002325 C22.8439843,18.002325 22.6221414,17.892075 22.4071129,17.679825" id="Fill-11" fill="#000000"></path>
                            <path d="M29.2838629,10.758525 C29.6684914,10.157775 29.8608057,9.630525 29.8608057,9.169275 C29.8608057,8.729775 29.7275486,8.510025 29.4610343,8.510025 C29.1066914,8.510025 28.7515914,8.854275 28.3964914,9.535275 C28.07092,10.157775 27.8937486,10.934025 27.86422,11.871525 C28.4926486,11.615775 28.9658629,11.249025 29.2838629,10.758525 M26.6883771,15.050775 C26.1932057,14.281275 25.9418343,13.146525 25.9418343,11.645025 C25.9418343,10.838775 26.06752,10.055775 26.3264629,9.293775 C26.62932,8.385525 27.1025343,7.733775 27.7385343,7.345275 C28.0784914,7.140525 28.4782629,7.037775 28.9439057,7.037775 C29.45422,7.037775 29.8827629,7.220775 30.2302914,7.580025 C30.57782,7.938525 30.7481771,8.465775 30.7481771,9.161775 C30.7481771,10.795275 29.7941771,12.011025 27.8793629,12.794775 C27.9157057,13.388025 28.0194343,13.886025 28.1746486,14.303775 C28.3821057,14.867775 28.6773914,15.146025 29.0695914,15.146025 C29.3133914,15.146025 29.5276629,14.969775 29.7199771,14.618025 C29.9198629,14.259525 30.01602,13.820025 30.01602,13.285275 L30.01602,13.131525 C30.01602,12.890025 30.1931914,12.670275 30.4597057,12.670275 C30.6883629,12.670275 30.8882486,12.831525 30.89582,13.087275 L30.9033914,13.337025 C30.9033914,14.024775 30.7481771,14.633025 30.4369914,15.167775 C30.0304057,15.856275 29.4466486,16.200525 28.66982,16.200525 C27.8490771,16.200525 27.1843057,15.819525 26.6883771,15.050775" id="Fill-13" fill="#000000"></path>
                            <path d="M32.5519943,15.717075 C32.3452943,15.489825 32.2415657,15.123825 32.2415657,14.618325 C32.2415657,12.457575 32.2044657,11.022075 32.1302657,10.311825 C32.0636371,9.601575 31.9530943,8.919825 31.8122657,8.275575 C31.79788,8.195325 31.7903086,8.121825 31.7903086,8.048325 C31.7903086,7.865325 31.8425514,7.711575 31.9530943,7.587075 C32.1083086,7.411575 32.3081943,7.323825 32.5595657,7.323825 C33.0252086,7.323825 33.5059943,7.689825 33.7051229,8.619825 C33.7868943,9.008325 33.8459514,9.543075 33.8830514,10.224075 C34.3486943,8.283075 34.9256371,7.213575 35.6055514,7.030575 C35.7607657,6.986325 35.91598,6.964575 36.06438,6.964575 C36.23398,6.964575 36.3967657,6.993825 36.55198,7.059825 C36.7518657,7.140075 36.8480229,7.279575 36.8480229,7.484325 C36.8480229,7.740825 36.6405657,7.953075 36.3672371,7.953075 C36.2271657,7.953075 36.0787657,7.909575 35.8940229,7.909575 C35.4427657,7.909575 34.9627371,9.249825 34.43728,11.922825 C34.2972086,12.648075 34.1859086,13.776075 34.1124657,15.314325 C34.0897514,15.804825 33.80128,16.046325 33.2614371,16.053825 C33.0032514,16.053825 32.7662657,15.944325 32.5519943,15.717075" id="Fill-15" fill="#000000"></path>
                            <path d="M4.00309,6.073275 L4.00233286,6.073275 C3.72900429,6.073275 3.49277571,6.221025 3.37163286,6.468525 C3.01426143,7.201275 3.90239,8.164275 6.01179,9.330525 C6.09356143,9.374775 6.18214714,9.397275 6.26997571,9.397275 C6.41837571,9.397275 6.56450429,9.335775 6.66823286,9.219525 C6.83253286,9.034275 6.84540429,8.760525 6.69776143,8.561025 C5.47346143,6.910275 4.56716143,6.073275 4.00309,6.073275" id="Fill-17" fill="#FFFFFF"></path>
                            <path d="M5.99505714,12.596175 C5.96098571,12.596175 5.92691429,12.599175 5.89284286,12.605925 C2.74161429,13.216425 2.51977143,13.823175 2.44632857,14.021925 C2.36152857,14.252925 2.40468571,14.498175 2.5652,14.693925 C2.67801429,14.833425 2.89228571,14.999175 3.26934286,14.999175 C4.20895714,14.999175 5.96098571,13.790175 6.30321429,13.548675 C6.50612857,13.403925 6.57957143,13.139925 6.4819,12.913425 C6.39634286,12.717675 6.20251429,12.596175 5.99505714,12.596175" id="Fill-19" fill="#FFFFFF"></path>
                            <path d="M38.3910043,13.28175 C38.34179,13.26675 38.2903043,13.26 38.24109,13.26 C38.0518043,13.26 37.8708471,13.36125 37.7762043,13.533 C37.6558186,13.74975 37.7050329,14.019 37.8935614,14.181 C38.6999186,14.8755 40.1627186,16.0395 40.8971471,16.0395 C41.2477043,16.0395 41.5255757,15.8265 41.6028043,15.4965 C41.7883043,14.7045 40.7086186,13.959 38.3910043,13.28175" id="Fill-21" fill="#FFFFFF"></path>
                            <path d="M38.3229371,10.1052 C38.3948657,10.1052 38.4667943,10.0902 38.5364514,10.0602 C41.4741657,8.77695 41.5566943,8.13795 41.5839514,7.92795 C41.6149943,7.68345 41.5188371,7.45395 41.3189514,7.29795 C41.1758514,7.1847 40.9964086,7.12545 40.80258,7.12545 C39.9152086,7.1262 38.4963229,8.5977 37.9269514,9.2307 C37.7611371,9.4152 37.7475086,9.68895 37.8943943,9.8892 C37.9958514,10.02795 38.1571229,10.1052 38.3229371,10.1052" id="Fill-23" fill="#FFFFFF"></path>
                        </g>
                    </g>
                </g>
            </g>
        </g>
    </g>
</svg>