<svg xmlns="http://www.w3.org/2000/svg" width="16" height="16" viewBox="0 0 16 16">
    <path fill="#131DF5" fill-rule="evenodd" d="M9.211 1.806l.662.614.918-.124c.94-.13 1.805.485 1.972 1.395l.155.85.803.41c.41.207.713.556.856.98.146.43.112.892-.096 1.3l-.392.768.392.769c.208.408.242.87.096 1.3-.143.424-.448.772-.856.98l-.803.41-.155.848c-.167.911-1.034 1.524-1.972 1.396l-.918-.124-.662.614c-.329.306-.759.474-1.21.474-.453 0-.884-.168-1.212-.474l-.662-.614-.918.124c-.942.13-1.808-.499-1.972-1.395l-.155-.85-.804-.41c-.408-.207-.712-.555-.856-.98-.145-.43-.111-.891.097-1.3L1.91 8l-.391-.768c-.208-.408-.242-.87-.097-1.3.144-.424.448-.773.857-.98l.803-.41.155-.85c.167-.91 1.032-1.525 1.972-1.395l.918.124.662-.614c.68-.63 1.744-.63 2.422 0zm.79 7.193c-.552 0-1 .449-1 1 0 .552.448 1 1 1 .55 0 1-.448 1-1 0-.551-.45-1-1-1zm.366-3.367c-.26-.26-.682-.26-.942 0L5.633 9.424c-.26.26-.26.682 0 .943.26.26.682.26.942 0l3.792-3.792c.26-.26.26-.683 0-.943zM6 4.999c-.551 0-1 .449-1 1 0 .552.449 1 1 1 .551 0 1-.448 1-1 0-.551-.449-1-1-1z"/>
</svg>
