<svg xmlns="http://www.w3.org/2000/svg" width="360" height="176" viewBox="0 0 360 176">
    <g fill="none" fill-rule="evenodd">
        <path fill="#F21942" d="M0 0h360v176H0z"/>
        <path fill="#C8A200" d="M130.103 140.31c5.618-.727 12.352-1.941 19.806-3.56l.018-.466a41.22 41.22 0 0 0-.039-3.68c-.286-2.093-.64-4.568-.91-6.453a36.754 36.754 0 0 0-.813-2.903c-25.225 3.789-50.636 3.793-70.985-4.312a538.903 538.903 0 0 1-10.553 13.475c10.702 3.726 36.824 11.345 63.476 7.899M257.075 97.341c.048.266.08.466.1.595.007.061.012.123.018.184l-.059.05c-.08.068-.233.195-.463.379 4.923-2.9 9.227-5.837 12.715-8.773 14.626-13.041 21.044-18.547 16.027-20.298-5.272-1.839-18.33 11.053-29.648 21.054 0 0-.045-.19-.113-.49.152.756.31 1.607.463 2.47.488 2.245.801 3.921.96 4.83"/>
        <path fill="#FFEC00" d="M160.422 107.615l-.28.038c.16.161.248.26.268.277.005.005.005.005 0 0-.156.08-.317.157-.48.239l1.082-.1c-.256-.227-.456-.382-.59-.454"/>
        <path fill="#FA0" d="M168.735 118.834c-2.901-5.58-6.239-9.443-7.724-10.764l-1.08.097c-2.36 1.16-5.404 2.436-8.869 3.706 1.447 1.737 3.522 4.842 5.25 9.792 3.285-.7 7.501-1.641 12.423-2.831M159.056 134.584c.002.02.002.04.005.059a470.348 470.348 0 0 0 14.022-3.628l-.043-.218a691.899 691.899 0 0 1-13.984 3.787"/>
        <path fill="#FFE500" d="M179.212 116.182c16.699-4.418 38.127-10.996 58.8-19.962.193-12.04 6.69-24.407 11.71-23.25-17.284-33.13-58.947-47.11-92.486-26.402-13.663 8.437-28.93 22.132-34.402 33.855 3.68-1.104 44.467 9.676 56.378 35.759M182.477 128.054c.009.093.018.184.03.277 19.65-5.799 40.331-13.148 57.503-21.135l-.096-.214c-12.054 5.54-30.826 13.114-57.437 21.072M257.193 98.12c-.005-.06-.012-.125-.016-.186-.023-.13-.055-.327-.102-.592.022.295.043.567.061.826l.057-.048"/>
        <path fill="#404966" d="M148.55 123.223s2.838-.509 7.76-1.558c-1.728-4.95-3.8-8.055-5.247-9.794-2.307.846-4.8 1.689-7.397 2.49 1.27 1.712 3.129 4.693 4.498 8.887.297.912.572 1.877.813 2.904l-.427-2.93"/>
        <path fill="#7E838C" d="M149.927 136.284l-.018.466.479-.105c-.032-.517-.237-2.116-.5-4.041.064 1.178.084 2.402.039 3.68M155.84 135.412c1.063-.248 2.139-.506 3.222-.768-.002-.02-.005-.04-.005-.06-1.062.276-2.134.553-3.217.828"/>
        <path fill="#404966" d="M160.144 107.652c.093-.011.186-.025.279-.038.134.075.334.227.588.456 1.485 1.322 4.822 5.184 7.724 10.764 3.213-.776 6.725-1.66 10.476-2.652C167.3 90.1 126.514 79.32 122.836 80.423c-3.095.929-6.176 4.648-4.875 7.536 0 0-.075.295-.156.817.479-.384.756-.593.756-.593 24.548 2.566 39.444 17.256 41.583 19.47"/>
        <path fill="#7E838C" d="M173.04 130.796l.042.22a531.021 531.021 0 0 0 9.425-2.684c-.012-.093-.02-.186-.03-.28a629.84 629.84 0 0 1-9.438 2.744"/>
        <path fill="#1C1C2D" d="M160.41 107.93c.003.004.005.004 0 0"/>
        <path fill="#1E1E3B" d="M151.063 111.872c3.465-1.27 6.51-2.543 8.866-3.703.164-.082.325-.16.481-.239-.02-.018-.109-.116-.265-.277-2.141-2.213-17.038-16.903-41.586-19.471 0 0-.277.209-.753.595-3.983 3.19-22.16 18.554-15.165 27.824 5.758 6.033 25.318 2.613 41.025-2.239 2.597-.803 5.09-1.643 7.397-2.49"/>
        <path fill="#FF3E3E" d="M238.013 96.221c5.792-2.51 11.527-5.21 17.078-8.103a164.71 164.71 0 0 0-2.675-9.55 69.956 69.956 0 0 0-2.579-5.571c-.036-.011-.075-.016-.113-.025-5.023-1.158-11.518 11.21-11.711 23.25M257.075 97.341c-.159-.908-.472-2.584-.96-4.83.49 2.757.922 5.598.922 5.598s-5.365 3.469-17.124 8.872c.032.073.064.143.095.216 6.058-2.817 11.68-5.712 16.663-8.648.23-.184.384-.311.463-.38a52.54 52.54 0 0 0-.059-.828"/>
        <path fill="#FF2751" d="M194.943 69.374a5.92 5.92 0 0 0-2.854 7.874 5.921 5.921 0 1 0 10.728-5.02 5.921 5.921 0 0 0-7.874-2.854M193.419 85.713c-6.033-2.187-9.164-8.875-6.977-14.908a2.162 2.162 0 0 0-1.204-2.75c-1.124-.408-2.307.146-2.715 1.272-2.963 8.18 1.305 17.305 9.52 20.341.51.184 1.096.166 1.582-.064a2.103 2.103 0 0 0 1.065-1.176 2.09 2.09 0 0 0-1.271-2.715M201.418 63.796c6.035 2.186 9.164 8.875 6.978 14.907a2.086 2.086 0 0 0 1.271 2.716c.51.186 1.097.166 1.585-.062.486-.229.876-.665 1.062-1.176a15.898 15.898 0 0 0-9.45-20.372 2.089 2.089 0 0 0-2.717 1.271c-.409 1.124.145 2.307 1.271 2.716"/>
        <path fill="#FF2751" d="M204.013 56.637c9.99 3.562 15.205 14.71 11.574 24.73a2.089 2.089 0 0 0 1.272 2.718c.51.183 1.096.165 1.582-.062.488-.23.879-.667 1.063-1.178 4.448-12.272-1.875-25.786-14.045-30.195a2.089 2.089 0 0 0-2.718 1.272 2.09 2.09 0 0 0 1.272 2.715M189.378 96.859a2.114 2.114 0 0 0 1.585-.061c.488-.23.876-.668 1.064-1.179a2.09 2.09 0 0 0-1.273-2.715c-9.92-3.597-15.135-14.742-11.502-24.762.406-1.128-.148-2.31-1.274-2.717a2.088 2.088 0 0 0-2.715 1.271c-4.41 12.17 1.914 25.683 14.115 30.163"/>
        <path fill="#FFE500" d="M306.012 162.733a853 853 0 0 1-17.989 6.693l21.424-.03c-.07-3.32-5.529-9.89-12.349-16.824 2.275 2.405 7.847 8.362 8.914 10.16"/>
        <path fill="#FFE500" d="M283.846 103.237s13.135-21.928 15.823-29.098c2.688-7.173.565-12.115-10.151-13.53-8.87-1.171-29.135 19.045-34.818 25.606.04.043.255.908.484 1.855l.011-.007c.137.477.293 1.174.457 1.98l.113.488c11.318-10.001 24.376-22.893 29.648-21.054 5.017 1.75-1.401 7.259-16.027 20.298-3.488 2.938-7.792 5.874-12.715 8.773-4.983 2.936-10.605 5.83-16.663 8.648-17.17 7.985-37.85 15.337-57.5 21.136a531.021 531.021 0 0 1-9.425 2.683 472.055 472.055 0 0 1-17.242 4.396c-1.794.459-3.603.915-5.45 1.371 0-.03 0-.077-.004-.136-.16.034-.32.07-.479.105-7.451 1.618-14.188 2.833-19.805 3.56-26.652 3.444-52.774-4.173-63.474-7.902C56.392 145.042 42.304 159.572 24.364 176H359c-5.134-7.872-13.995-18.97-26.582-33.295-18.881-21.486-48.572-39.468-48.572-39.468z"/>
        <path fill="#FFE500" d="M254.694 86.223c0-.002.004-.005.007-.007-.005-.005-.007-.005-.007.007M332.418 142.388c-3.11-3.205-6.16-6.2-9.12-8.986a655.121 655.121 0 0 1 9.12 8.986"/>
        <path fill="#FFEDC5" d="M332.417 142.388a657.9 657.9 0 0 0-9.118-8.986c-.818-.788-1.29-1.237-1.29-1.237l-.011.02c-.29.459-5.2 7.98-13.06 3.14-9.829-7.747-25.674-7.955-33.639-7.485-1.857.108-2.643 2.35-1.248 3.544 5.006 4.28 14.256 12.369 22.046 20.18l.029-.012s.372.388.972 1.022c6.82 6.934 12.278 13.502 12.349 16.821 14.034 6.194 24.978 7.074 32.83 2.64 11.778-6.65 7.098-9.76 5.883-12.007-1.737-3.213-9.223-11.08-15.743-17.64z"/>
        <path fill="#FF3E3E" d="M296.126 151.552s-.012.004-.028.013c-.808.348-34.139 14.816-68.71 24.435H269.3c8.946-2.416 30.656-10.935 36.711-13.267-1.065-1.798-6.639-7.755-8.914-10.16l-.971-1.021z"/>
        <path fill="#535A76" d="M77.178 118.937a726.6 726.6 0 0 0 10.635-14.376C114.945 60.444 137.4 19.35 156.311 0H82.852C47.384 38.743 19.766 71.37 0 97.881V176h24.365c9.395-6.757 26.91-24.641 42.264-43.59a548.411 548.411 0 0 0 10.55-13.473z"/>
        <path fill="#FFC300" d="M239.172 162.741c6.524-.789 11.884-4.85 14.673-10.373-2.665 4.803-7.517 8.305-13.389 9-9.696 1.15-18.49-5.78-19.638-15.476-1.152-9.699 5.778-18.491 15.477-19.638 8.704-1.033 16.677 4.448 19.05 12.594-2.302-9.16-11.064-14.936-20.641-13.777-10.196 1.234-17.223 9.871-16.357 20.159 0 1.578.599 3.71 1.373 5.828 3.108 7.74 10.837 12.726 19.452 11.683z"/>
        <path fill="#334866" d="M236.294 126.253c-9.696 1.147-16.626 9.94-15.476 19.638 1.147 9.696 9.942 16.626 19.638 15.48 5.874-.698 10.726-4.2 13.388-9.004a17.605 17.605 0 0 0 1.5-13.52c-2.373-8.145-10.343-13.627-19.05-12.594"/>
        <path fill="#06FF6B" d="M238.906 130.048c-7.041.834-12.072 7.218-11.239 14.26.836 7.041 7.218 12.072 14.26 11.239 7.04-.836 12.072-7.22 11.238-14.262-.833-7.04-7.218-12.07-14.259-11.237"/>
        <path fill="#F21942" d="M255.538 89.56c-.103-.44-.23-.977-.355-1.49l-.093.048c.127.509.248 1.006.361 1.483l.087-.041"/>
        <path fill="#996B2E" d="M255.538 89.56c-.103-.44-.23-.977-.355-1.49l-.093.048c.127.509.248 1.006.361 1.483l.087-.041"/>
        <path fill="#1C1C2D" d="M255.451 89.6c.25 1.052.472 2.026.663 2.911a106.96 106.96 0 0 0-.463-2.47c-.032-.138-.07-.302-.114-.481a3.124 3.124 0 0 1-.086.04"/>
        <path fill="#996B2E" d="M255.451 89.6c.25 1.052.472 2.026.663 2.911a106.96 106.96 0 0 0-.463-2.47c-.032-.138-.07-.302-.114-.481a3.124 3.124 0 0 1-.086.04"/>
        <path fill="#1C1C2D" d="M149.888 132.605a37.428 37.428 0 0 0-.91-6.453c.27 1.883.624 4.36.91 6.453"/>
        <path fill="#996B2E" d="M149.888 132.605a37.428 37.428 0 0 0-.91-6.453c.27 1.883.624 4.36.91 6.453"/>
        <path fill="#FA0" d="M159.056 134.584a691.899 691.899 0 0 0 13.984-3.787c-.924-4.505-2.532-8.555-4.305-11.963a468.225 468.225 0 0 1-12.424 2.831c1.183 3.39 2.203 7.645 2.745 12.919"/>
        <path fill="#FFE500" d="M180.442 119.21a40.689 40.689 0 0 1 2.035 8.845c26.611-7.96 45.383-15.534 57.437-21.074-1.407-3.274-1.961-7-1.902-10.76-20.673 8.966-42.101 15.544-58.8 19.962.452.988.865 1.994 1.23 3.027"/>
        <path fill="#404966" d="M156.311 121.665c-4.922 1.049-7.76 1.558-7.76 1.558s.18 1.221.427 2.928a37.46 37.46 0 0 1 .91 6.453c.263 1.925.468 3.524.5 4.041 1.78-.388 3.596-.799 5.45-1.232 1.084-.275 2.156-.552 3.218-.83-.542-5.273-1.562-9.528-2.745-12.918M173.04 130.796a629.84 629.84 0 0 0 9.437-2.743 40.67 40.67 0 0 0-2.034-8.843 37.89 37.89 0 0 0-1.23-3.03 493.894 493.894 0 0 1-10.479 2.653c1.774 3.41 3.381 7.458 4.305 11.963"/>
        <path fill="#FF3E3E" d="M239.914 106.982c11.756-5.404 17.124-8.873 17.124-8.873s-.432-2.84-.922-5.6a189.48 189.48 0 0 0-1.024-4.391c-5.554 2.893-11.286 5.59-17.078 8.104-.062 3.76.492 7.486 1.9 10.76"/>
        <path fill="#FFE500" d="M255.65 90.042a29.775 29.775 0 0 0-.453-1.978l-.014.007a147.756 147.756 0 0 1 .468 1.97"/>
        <path fill="#996B2E" d="M255.65 90.042a29.775 29.775 0 0 0-.453-1.978l-.014.007a147.756 147.756 0 0 1 .468 1.97"/>
        <path fill="#FFE500" d="M150.387 136.646c.004.059.004.107.004.138 1.846-.458 3.656-.915 5.45-1.371-1.858.434-3.672.845-5.454 1.233"/>
        <path fill="#996B2E" d="M150.387 136.646c.004.059.004.107.004.138 1.846-.458 3.656-.915 5.45-1.371-1.858.434-3.672.845-5.454 1.233"/>
        <path fill="#FFE500" d="M267.573 57.246c.347.01.686-.143.908-.425.21-.27.283-.616.207-.941-.104-1-.507-9.682-.787-16.035h4.752c.883.001 1.675-.492 2.068-1.285.39-.792.3-1.72-.239-2.423l-10.584-13.816a2.295 2.295 0 0 0-1.795-.903 2.295 2.295 0 0 0-1.823.848l-11.27 13.817a2.29 2.29 0 0 0-.296 2.447 2.288 2.288 0 0 0 2.12 1.316l5.323-.174.742 16.564a1.11 1.11 0 0 0 1.117 1.062l9.557-.052z"/>
        <path fill="#996B2E" fill-opacity=".6" d="M159.056 134.584a691.899 691.899 0 0 0 13.984-3.787c-.924-4.505-2.532-8.555-4.305-11.963a468.225 468.225 0 0 1-12.424 2.831c1.183 3.39 2.203 7.645 2.745 12.919"/>
        <path fill="#90570B" fill-opacity=".6" d="M180.442 119.21a40.689 40.689 0 0 1 2.035 8.845c26.611-7.96 45.383-15.534 57.437-21.074-1.407-3.274-1.961-7-1.902-10.76-20.673 8.966-42.101 15.544-58.8 19.962.452.988.865 1.994 1.23 3.027M156.311 121.665c-4.922 1.049-7.76 1.558-7.76 1.558s.18 1.221.427 2.928a37.46 37.46 0 0 1 .91 6.453c.263 1.925.468 3.524.5 4.041 1.78-.388 3.596-.799 5.45-1.232 1.084-.275 2.156-.552 3.218-.83-.542-5.273-1.562-9.528-2.745-12.918"/>
        <path fill="#90570B" fill-opacity=".6" d="M173.04 130.796a629.84 629.84 0 0 0 9.437-2.743 40.67 40.67 0 0 0-2.034-8.843 37.89 37.89 0 0 0-1.23-3.03 493.894 493.894 0 0 1-10.479 2.653c1.774 3.41 3.381 7.458 4.305 11.963M239.914 106.982c11.756-5.404 17.124-8.873 17.124-8.873s-.432-2.84-.922-5.6a189.48 189.48 0 0 0-1.024-4.391c-5.554 2.893-11.286 5.59-17.078 8.104-.062 3.76.492 7.486 1.9 10.76"/>
    </g>
</svg>
