<svg xmlns="http://www.w3.org/2000/svg" width="360" height="176" viewBox="0 0 360 176">
    <g fill="none" fill-rule="evenodd">
        <path fill="#F21942" d="M0 0h360v176H0z"/>
        <path fill="#1C1C2D" d="M23.095 138.968c-1.692 8.841-3.031 24.98 5.893 37.186.073.101.15.202.223.3h42.243c-7.204-.835-13.476-1.668-18.445-2.48-26.915-4.4-30.906-21.956-29.914-35.006M330.633 3.343c-2.432-1.295-6.487-2.33-11.77-3.15l-8.678-.009c5.242 1.134 9.277 2.323 11.713 3.563 21.987 11.197 17.236 36.991 15.326 42.215-1.972 5.392-32.507 96.085-35.247 102.853-5.618 12.258-10.98 21.218-16.662 27.641h31.723c6.31-20.318 30.812-108.388 33.527-119.302 2.008-8.076 6.863-39.56-19.932-53.811"/>
        <path fill="#3B4056" d="M321.898 3.75c-2.437-1.244-6.472-2.432-11.713-3.564L88.915 0c-.094.094-.193.185-.289.278-3.845 3.768-7.307 8.38-10.138 14.028l-52.07 109.771s-2.689 6.519-3.324 14.893c-.989 13.05 3.002 30.604 29.917 35.005 4.969.813 11.238 1.643 18.445 2.481h213.859c5.683-6.422 11.046-15.383 16.662-27.641 2.74-6.768 33.275-97.458 35.247-102.85 1.91-5.227 6.664-31.02-15.326-42.215z"/>
        <path fill="#07071C" d="M96.551 35.967l38.44 4.396c1.421.17 2.791-.613 3.44-1.967l8.846-21.416c.97-2.93-2.27-4-5.094-4.378 1.077 1.562 1.204 3.664.348 6.137l-6.386 13.463c-1.064 2.177-3.623 3.402-5.473 3.043l-31.754-3.731c-1.575-.462-2.566-1.82-2.94-3.667l-2.07 4.508c-1.233 2.564-.045 3.287 2.643 3.612"/>
        <path fill="#F21942" d="M98.918 31.513l31.755 3.731c1.85.361 4.408-.866 5.472-3.043l6.386-13.463c.857-2.47.73-4.575-.347-6.137-.872-1.266-2.375-2.177-4.5-2.639 2.118.773 3.239 3.03 2.055 5.963l-5.408 11.283c-.625 1.303-1.943 2.058-3.308 1.894l-30.906-3.218c-3.044-.695-3.877-2.639-3.285-4.743l-.078.096c-.903 2.426-1.15 4.764-.776 6.61.374 1.847 1.365 3.204 2.94 3.666"/>
        <path fill="#3B4056" d="M247.94 52.056a12.064 12.064 0 0 1 .067-3.073c-.25-1.31-.239-2.8.093-4.403-.14-.927.055-1.957.52-2.987l5.041-11.01c.618-1.368 2.364-3.203 5.727-2.844l50.67 4.746c-6.763-4.36-17.21-5.182-22.512-5.683l-29.621-2.665c-2.71-.231-10.323 6.77-10.564 10.06l-.195 11.371a13.035 13.035 0 0 0-.072 2.917c.106 1.277.4 2.478.846 3.57"/>
        <path fill="#FFE500" d="M100.12 25.885l30.902 3.217c1.368.164 2.683-.591 3.309-1.894l5.41-11.283c1.181-2.932.06-5.19-2.057-5.963a4.902 4.902 0 0 0-1.181-.27l-28.635-2.48c-3.322-.333-5.05 1.377-5.662 2.654l-4.99 10.266a6.267 6.267 0 0 0-.385 1.01c-.591 2.104.242 4.047 3.288 4.743z"/>
        <path fill="#07071C" d="M190.917 25.184l-6.563 13.857c-1.064 2.18-3.622 3.405-5.47 3.047l-31.757-3.732c-1.637-.48-2.595-2.034-2.885-4.097l-2.133 4.546c-1.23 2.561-.044 3.288 2.644 3.612l38.441 4.393c1.42.172 2.79-.61 3.439-1.964l9.033-21.421c.97-2.927-2.274-3.999-5.094-4.378 1.074 1.565 1.201 3.664.345 6.137"/>
        <path fill="#F21942" d="M188.127 22.371l-5.408 11.283c-.625 1.305-1.944 2.058-3.311 1.894l-30.903-3.22c-3.047-.693-3.877-2.636-3.286-4.741l-.08.096c-.864 2.33-1.165 4.668-.898 6.576.29 2.06 1.248 3.617 2.886 4.097l31.757 3.732c1.847.358 4.406-.867 5.47-3.047l6.562-13.857c.857-2.473.73-4.572-.345-6.137-.874-1.269-2.377-2.18-4.5-2.639 2.115.773 3.236 3.03 2.056 5.963"/>
        <path fill="#FFE500" d="M145.22 27.587c-.592 2.104.238 4.05 3.287 4.743l30.9 3.218c1.368.163 2.686-.59 3.312-1.895l5.407-11.282c1.181-2.933.063-5.19-2.055-5.963a4.902 4.902 0 0 0-1.18-.27l-28.638-2.481c-3.322-.332-5.047 1.38-5.662 2.655l-4.99 10.265c-.161.337-.288.677-.382 1.01"/>
        <path fill="#07071C" d="M241.685 30.921l-6.376 14.052c-1.063 2.177-3.622 3.402-5.47 3.044l-31.757-3.732c-1.673-.493-2.784-2.019-3.142-4.141l-2.063 4.398c-1.23 2.561-.044 3.288 2.644 3.612l38.442 4.393c1.42.172 2.79-.61 3.438-1.964l9.033-21.421c.97-2.93-2.273-3.999-5.094-4.378 1.074 1.562 1.202 3.664.345 6.137"/>
        <path fill="#F21942" d="M194.941 40.143c.358 2.123 1.469 3.651 3.143 4.141l31.756 3.732c1.848.358 4.404-.864 5.47-3.044l6.376-14.052c.857-2.47.73-4.572-.347-6.134-.872-1.269-2.375-2.18-4.5-2.642 2.117.774 3.238 3.031 2.055 5.964l-5.408 11.282c-.625 1.303-1.943 2.058-3.308 1.892l-30.903-3.215c-3.047-.693-3.88-2.64-3.288-4.744l-.078.096c-1.015 2.518-1.285 4.853-.968 6.724"/>
        <path fill="#FFE500" d="M199.275 38.067l30.9 3.215c1.368.166 2.686-.589 3.312-1.891l5.408-11.283c1.18-2.932.062-5.19-2.056-5.963a4.902 4.902 0 0 0-1.18-.27L207.02 19.39c-3.322-.33-5.047 1.384-5.662 2.658l-4.988 10.265c-.163.338-.29.675-.384 1.01-.591 2.104.24 4.05 3.288 4.743"/>
        <path fill="#07071C" d="M81.587 70.289l39.036 4.463c1.443.174 2.834-.623 3.493-1.998l8.984-21.748c.986-2.974-2.307-4.061-5.172-4.445 1.092 1.588 1.222 3.72.35 6.233l-6.482 13.67c-1.082 2.21-3.68 3.456-5.556 3.09l-32.25-3.788c-1.598-.47-2.608-1.848-2.986-3.724l-2.102 4.578c-1.251 2.602-.044 3.342 2.685 3.669"/>
        <path fill="#F21942" d="M83.99 65.765l32.248 3.789c1.879.366 4.474-.877 5.556-3.09l6.485-13.67c.869-2.513.742-4.646-.35-6.234-.888-1.287-2.414-2.21-4.573-2.68 2.151.786 3.288 3.077 2.089 6.056l-5.49 11.457c-.637 1.326-1.973 2.091-3.364 1.923l-31.38-3.267c-3.094-.706-3.937-2.678-3.338-4.817l-.083.1c-.913 2.462-1.162 4.836-.786 6.71.379 1.878 1.386 3.254 2.987 3.723"/>
        <path fill="#FFE500" d="M85.21 60.048l31.381 3.267c1.391.17 2.727-.596 3.363-1.92l5.491-11.46c1.199-2.975.062-5.27-2.089-6.053a4.76 4.76 0 0 0-1.199-.275l-29.079-2.522c-3.373-.335-5.127 1.4-5.75 2.696L82.26 54.207a6.199 6.199 0 0 0-.387 1.025c-.599 2.138.244 4.113 3.338 4.816z"/>
        <path fill="#FFE500" d="M113.89 50.796l-4.733 3.337 3.059.408z"/>
        <path fill="#07071C" d="M130.538 76.837l39.035 4.463c1.443.174 2.834-.62 3.493-1.995l9.17-21.753c.987-2.974-2.304-4.062-5.171-4.446 1.095 1.589 1.222 3.722.35 6.233l-6.661 14.073c-1.082 2.213-3.68 3.456-5.558 3.093l-32.248-3.791c-1.663-.488-2.636-2.066-2.932-4.16l-2.164 4.616c-1.25 2.6-.044 3.34 2.686 3.667"/>
        <path fill="#F21942" d="M132.947 72.713l32.25 3.79c1.877.364 4.474-.879 5.556-3.09l6.664-14.075c.87-2.511.742-4.645-.353-6.233-.885-1.287-2.41-2.21-4.57-2.678 2.149.784 3.288 3.078 2.09 6.054l-5.494 11.46c-.633 1.323-1.972 2.089-3.36 1.92l-31.381-3.267c-3.096-.703-3.94-2.678-3.34-4.816l-.08.098c-.88 2.367-1.184 4.741-.911 6.677.293 2.094 1.266 3.674 2.93 4.16"/>
        <path fill="#FFE500" d="M134.348 66.595l31.38 3.267c1.389.166 2.728-.6 3.363-1.923l5.491-11.456c1.2-2.98.062-5.27-2.089-6.057a4.654 4.654 0 0 0-1.196-.272l-29.081-2.523c-3.374-.334-5.128 1.402-5.75 2.697l-5.069 10.426a6.199 6.199 0 0 0-.386 1.025c-.602 2.136.244 4.11 3.337 4.816"/>
        <path fill="#07071C" d="M182.093 82.663l39.036 4.463c1.442.174 2.833-.62 3.492-1.995l9.17-21.754c.987-2.973-2.303-4.06-5.17-4.445 1.094 1.588 1.221 3.721.35 6.233l-6.472 14.267c-1.082 2.214-3.677 3.457-5.556 3.093l-32.25-3.79c-1.697-.499-2.828-2.048-3.192-4.205l-2.091 4.466c-1.254 2.6-.047 3.34 2.683 3.667"/>
        <path fill="#F21942" d="M184.694 78.735l32.25 3.789c1.876.366 4.474-.877 5.556-3.09l6.472-14.268c.869-2.512.742-4.647-.35-6.233-.888-1.287-2.414-2.213-4.57-2.68 2.148.783 3.287 3.077 2.086 6.054l-5.491 11.459c-.636 1.323-1.975 2.089-3.36 1.923l-31.384-3.27c-3.093-.703-3.939-2.678-3.337-4.816l-.083.101c-1.027 2.553-1.302 4.925-.98 6.825.363 2.156 1.491 3.708 3.191 4.206"/>
        <path fill="#FFE500" d="M185.904 72.42l31.38 3.267c1.389.168 2.728-.597 3.364-1.92l5.49-11.46c1.2-2.976.063-5.27-2.088-6.054a4.76 4.76 0 0 0-1.2-.275l-29.078-2.522c-3.373-.335-5.128 1.404-5.75 2.699l-5.068 10.424a6.215 6.215 0 0 0-.39 1.025c-.599 2.138.247 4.113 3.34 4.816"/>
        <path fill="#FFE500" d="M213.819 68.744c1.183-2 .589-2.558-.114-3.197 0 0-2.273-1.144-3.394 1.82-1.088 2.882 2.117 3.726 3.508 1.377"/>
        <path fill="#07071C" d="M111.592 81.488c1.109 1.612 1.238 3.776.356 6.322l-6.576 13.864c-1.097 2.245-3.731 3.503-5.633 3.135l-32.71-3.843c-1.621-.475-2.641-1.871-3.025-3.776l-2.133 4.643c-1.269 2.639-.047 3.389 2.722 3.72l39.59 4.529c1.464.174 2.874-.633 3.543-2.027l9.11-22.06c1.002-3.015-2.337-4.117-5.244-4.507"/>
        <path fill="#F21942" d="M67.03 100.966l32.707 3.843c1.904.37 4.538-.89 5.636-3.135l6.575-13.865c.883-2.545.753-4.71-.355-6.321-.9-1.305-2.45-2.245-4.637-2.717 2.182.794 3.334 3.12 2.12 6.14l-5.571 11.622c-.644 1.342-2.001 2.118-3.41 1.95l-31.827-3.314c-3.137-.714-3.994-2.717-3.386-4.887l-.08.101c-.93 2.5-1.182 4.905-.8 6.807.384 1.905 1.406 3.3 3.028 3.776"/>
        <path fill="#FFE500" d="M68.268 95.167l31.827 3.314c1.407.169 2.767-.607 3.41-1.949l5.569-11.62c1.217-3.02.062-5.345-2.118-6.142a4.91 4.91 0 0 0-1.214-.278l-29.494-2.556c-3.42-.342-5.2 1.42-5.834 2.735l-5.138 10.572a6.65 6.65 0 0 0-.394 1.04c-.607 2.168.25 4.17 3.386 4.884z"/>
        <path fill="#07071C" d="M161.427 88.128c1.108 1.609 1.24 3.773.356 6.32l-6.758 14.273c-1.097 2.242-3.731 3.506-5.636 3.135l-32.706-3.843c-1.687-.496-2.673-2.097-2.972-4.22l-2.195 4.682c-1.269 2.639-.047 3.386 2.722 3.72l39.591 4.529c1.464.174 2.873-.633 3.542-2.027l9.3-22.062c1.002-3.015-2.337-4.118-5.244-4.507"/>
        <path fill="#F21942" d="M116.684 108.012l32.706 3.843c1.905.37 4.539-.89 5.634-3.135l6.76-14.272c.882-2.546.752-4.71-.356-6.321-.9-1.306-2.447-2.245-4.637-2.717 2.18.796 3.335 3.121 2.118 6.14l-5.57 11.62c-.643 1.344-2 2.12-3.409 1.95l-31.827-3.315c-3.137-.714-3.993-2.715-3.386-4.882l-.08.1c-.893 2.4-1.202 4.808-.927 6.77.3 2.125 1.287 3.726 2.974 4.219"/>
        <path fill="#FFE500" d="M118.104 101.807l31.827 3.314c1.409.168 2.766-.608 3.41-1.952l5.568-11.62c1.217-3.018.062-5.343-2.117-6.14a4.796 4.796 0 0 0-1.215-.277l-29.494-2.559c-3.42-.34-5.2 1.422-5.83 2.738l-5.141 10.572a6.4 6.4 0 0 0-.395 1.04c-.607 2.167.25 4.17 3.387 4.884"/>
        <path fill="#FFE500" d="M148.677 91.634c1.098-.989.807-2.577-.542-2.64 0 0-1.313-.01-1.752 1.225-.527 1.493 1.196 2.403 2.294 1.415M146.807 98.772c1.256-1.497.163-3.407-1.599-3.228 0 0-1.603.213-2.065 1.93-.54 2.012 2.408 2.798 3.664 1.298"/>
        <path fill="#07071C" d="M93.46 117.342c1.108 1.612 1.237 3.776.355 6.322l-6.575 13.864c-1.098 2.245-3.732 3.506-5.637 3.135l-32.706-3.843c-1.622-.475-2.642-1.871-3.026-3.776l-2.133 4.643c-1.269 2.639-.047 3.389 2.722 3.72l39.591 4.529c1.464.174 2.873-.633 3.542-2.027l9.11-22.06c1.003-3.015-2.337-4.118-5.243-4.507"/>
        <path fill="#7E838C" d="M48.897 136.82l32.707 3.844c1.904.371 4.538-.893 5.636-3.135l6.576-13.864c.882-2.549.752-4.713-.356-6.322-.9-1.308-2.45-2.244-4.637-2.72 2.182.797 3.334 3.123 2.12 6.143l-5.571 11.62c-.644 1.344-2.001 2.12-3.41 1.949l-31.827-3.314c-3.137-.713-3.994-2.714-3.386-4.883l-.08.098c-.93 2.5-1.182 4.907-.8 6.81.384 1.901 1.406 3.297 3.028 3.775"/>
        <path fill="#3B4056" d="M50.135 131.021l31.827 3.314c1.409.171 2.766-.607 3.41-1.949l5.571-11.62c1.214-3.02.062-5.345-2.12-6.142a4.91 4.91 0 0 0-1.214-.278l-29.495-2.556c-3.422-.34-5.2 1.422-5.83 2.735l-5.14 10.572a6.65 6.65 0 0 0-.395 1.04c-.608 2.17.249 4.17 3.386 4.884"/>
        <path fill="#07071C" d="M142.601 140.15a5.2 5.2 0 0 1 .41-1.446l5.592-11.986c-.56-1.707-3.064-2.434-5.309-2.735 1.108 1.609 1.238 3.773.356 6.319l-6.758 14.274c-1.097 2.242-3.731 3.504-5.636 3.135l-32.706-3.843c-1.685-.496-2.673-2.097-2.972-4.222l-2.195 4.684c-1.269 2.639-.047 3.386 2.722 3.718l37.458 4.285a740.277 740.277 0 0 0 7.943-10.751 33.59 33.59 0 0 1 1.095-1.433"/>
        <path fill="#F21942" d="M98.55 143.867l32.707 3.843c1.905.371 4.539-.893 5.634-3.135l6.76-14.274c.882-2.543.752-4.708-.356-6.32-.9-1.307-2.45-2.244-4.637-2.719 2.18.797 3.335 3.122 2.118 6.143l-5.57 11.62c-.643 1.341-2 2.12-3.409 1.949L99.97 137.66c-3.137-.714-3.993-2.714-3.386-4.884l-.08.099c-.893 2.4-1.202 4.81-.927 6.773.301 2.122 1.287 3.726 2.974 4.219"/>
        <path fill="#FFE500" d="M99.97 137.66l31.826 3.313c1.41.172 2.767-.607 3.41-1.948l5.571-11.62c1.215-3.021.063-5.346-2.12-6.143a4.77 4.77 0 0 0-1.214-.275l-29.494-2.558c-3.42-.34-5.2 1.422-5.83 2.735l-5.141 10.571c-.167.35-.296.696-.395 1.04-.607 2.17.25 4.171 3.386 4.885"/>
        <path fill="#FFE500" d="M124.913 133.828c1.69.789 3.257.192 4.578-1.702 1.318-1.897 2.257-4.842.012-5.514-1.53-.457-3.07.158-4.388 2.055-1.32 1.894-1.87 4.383-.202 5.161"/>
        <path fill="#07071C" d="M213.715 94.036c1.108 1.609 1.24 3.773.355 6.321l-6.565 14.47c-1.095 2.244-3.729 3.505-5.633 3.137l-32.707-3.846c-1.726-.506-2.87-2.078-3.238-4.263l-2.123 4.528c-1.269 2.639-.047 3.386 2.722 3.721l39.59 4.528c1.464.174 2.874-.633 3.543-2.026l9.3-22.063c1.002-3.015-2.338-4.118-5.244-4.507"/>
        <path fill="#F21942" d="M169.165 114.119l32.707 3.843c1.905.371 4.538-.89 5.633-3.135l6.566-14.472c.885-2.545.752-4.71-.356-6.318-.9-1.308-2.447-2.245-4.634-2.72 2.18.797 3.334 3.122 2.117 6.142l-5.571 11.62c-.644 1.342-2.001 2.12-3.407 1.95l-31.83-3.314c-3.137-.714-3.994-2.717-3.384-4.884l-.083.098c-1.043 2.593-1.32 4.998-.996 6.924.368 2.187 1.513 3.76 3.238 4.266"/>
        <path fill="#FFE500" d="M170.39 107.716l31.828 3.314c1.409.168 2.766-.607 3.41-1.952l5.568-11.62c1.217-3.018.065-5.343-2.117-6.142a5.001 5.001 0 0 0-1.215-.278l-29.494-2.556c-3.42-.34-5.197 1.422-5.83 2.735l-5.141 10.575a6.45 6.45 0 0 0-.392 1.038c-.61 2.17.247 4.17 3.384 4.886"/>
        <path fill="#FFE500" d="M199.539 98.084c.576-1.136.265-2.452-.695-2.937-.96-.486-2.206.041-2.782 1.175-.576 1.137-.195 2.489.765 2.974.96.485 2.136-.078 2.712-1.212"/>
        <path fill="#FF2751" d="M128.708 16.712l-4.56 8.743 4.147.763 6.706-13.85-3.597-.212s-3.376 2.353-6.2 2.161l-1.41 3.353s3.227.22 4.914-.958M180.931 29.913l-4.541-.794s2.237-1.464 4.614-3.343c2.839-2.244 3.142-6.298.311-7.738-2.745-1.398-5.955-.29-7.133 2.798l2.483.83s.773-2.089 2.421-1.653c2.216.584 1.412 2.873-1.541 4.705-2.774 1.72-6.509 4.06-6.87 6.7l8.66 1.152 1.596-2.657zM227.387 38.103c4.873-1.435 3.682-6.926 2.548-7.473 1.378.423 3.98-2.647 2.47-5.772-1.985-3.703-7.084-1.883-7.699 1.054l2.33 1.054s.921-1.63 2.486-1.072c1.562.56.979 3.786-2.387 3.238l-.818 1.617s2.33 1.054 1.378 3.109c-.952 2.055-3.68.968-3.526-1.155l-2.82.187c-.286.721.274 2.802 1.673 4.167 1.015.992 2.47 1.601 4.365 1.046M109.157 54.132l4.734-3.337-1.674 3.745-3.06-.408zm-.752 6.514l3.06.407 1.683-3.28 2.185.423 1.692-2.818-2.623-.415 3.768-8.423-3.065-.872-9.004 8.057-1.256 2.808 5.244.833-1.684 3.28zM159.319 66.517c4.056.379 5.906-3.137 6.261-5.418.356-2.279-.884-4.907-4.447-4.085l1.554-1.923 3.988.685 1.547-2.301-6.775-1.012-.776 1.15-4.24 5.687 3.186.32s1.064-.813 2.351-.348c1.65.594.851 3.015.07 3.786-.78.77-3.378 1.212-3.42-1.049l-2.971.055s-.288 4.084 3.672 4.453M210.31 67.367c1.121-2.966 3.395-1.82 3.395-1.82.703.637 1.297 1.197.114 3.198-1.391 2.348-4.596 1.502-3.509-1.378m.522 5.115c2.805.74 6.993-2.684 6.176-6.516-.818-3.836-4.414-2.974-4.414-2.974s1.39-2.349 3.09-2.351c2.102.101 1.21 2.128 1.21 2.128l2.501.207c.698-1.175-.412-5.485-4.422-4.785-3.098.54-6.085 4.277-7.172 7.157-1.393 3.69.228 6.394 3.03 7.134M94.843 94.981s5.634-8.475 8.488-10.727l.779-2.66-9.119-1.152-1.606 2.673 5.805.773s-6.477 7.608-7.66 10.714l3.313.38zM143.144 97.476c.461-1.72 2.065-1.93 2.065-1.93 1.762-.182 2.855 1.728 1.599 3.228-1.259 1.497-4.204.71-3.664-1.298m3.24-7.255c.437-1.235 1.75-1.225 1.75-1.225 1.349.062 1.642 1.648.542 2.639-1.098.986-2.82.075-2.291-1.414m2.4 10.089c1.858-2.216 1.443-4.827-.18-6.257a4.009 4.009 0 0 0 1.327-.799c2.709-2.439 1.99-6.347-1.334-6.503 0 0-3.241-.026-4.32 3.018-.483 1.363-.2 2.528.48 3.332-.976.257-3.426 1.191-4.256 4.277-1.22 4.543 5.441 6.32 8.283 2.932M196.828 99.297c-.96-.485-1.345-1.837-.766-2.974.576-1.134 1.822-1.663 2.782-1.175.96.485 1.271 1.8.695 2.937-.576 1.134-1.751 1.697-2.711 1.212m-4.674 7.904c3.887 1.694 6.687-.703 9.438-6.127 2.678-5.462.693-7.34-.252-7.943-.843-.537-4.297-2.174-7.24 1.062-2.945 3.233-1.593 8.643 3.392 7.805 0 0-2.055 3.322-3.797 2.712-1.294-.563-.267-2.224-.267-2.224l-2.626-.695s-2.03 3.939 1.352 5.41M125.116 128.666c1.318-1.894 2.857-2.512 4.385-2.055 2.248.672 1.308 3.62-.01 5.514-1.32 1.894-2.888 2.491-4.577 1.702-1.669-.778-1.119-3.267.202-5.161m-2.556 8.543c3.306 1.541 6.365.376 8.945-3.33 2.58-3.705 4.419-9.463.026-10.776-2.992-.893-5.995.31-8.577 4.016-2.579 3.706-3.656 8.572-.394 10.09"/>
        <path fill="#07071C" d="M196.067 157.22c-.87 1.933-2.706 3.052-4.614 2.805l-43.094-4.83c-.085-.004-5.99-6.155-6.073-6.162-.942 1.889-6.345 8.679-4.298 10.932 1.365 1.503 20.213 3.837 56.543 7.004 1.972.26 3.87-.918 4.767-2.963l11.664-26.544c1.292-2.94-2.154-4.16-5.753-4.775.33 2.18.125 4.58-.864 6.934l-8.278 17.599z"/>
        <path fill="#F21942" d="M194.612 149.238c-.867 1.928-2.696 3.04-4.598 2.797l-48.823-8.597c-1.382 5.8-.168 10.85 7.169 11.76 4.891.607 19.256 2.215 43.094 4.827 1.905.246 3.742-.872 4.611-2.805l8.28-17.6a12.844 12.844 0 0 0 .862-6.933c-.446-2.945-1.881-5.49-3.724-6.996 1.306 1.858 1.69 4.5.628 6.861l-7.499 16.686z"/>
        <path fill="#FFF" d="M151.464 147.933l38.55 4.103c1.9.243 3.732-.87 4.599-2.798l7.5-16.685c1.058-2.362.674-5.003-.629-6.861-.908-1.29-2.26-2.198-3.882-2.367l-42.199-4.36c-1.865-.191-3.64.917-4.492 2.803l-2.309 4.949-5.592 11.988c-.21.467-.343.953-.408 1.446-3.668 5.808 0 7.265 8.862 7.782z"/>
        <path fill="#FFF" d="M185.533 135.326l-3.459-.73-1.777 3.343 3.334.794z"/>
        <path fill="#07071C" d="M182.075 134.597l3.46.73-1.905 3.406-3.332-.794 1.777-3.342zM172.01 144.78l4.491.931 1.915-3.604 2.691.568-2.127 3.807 4.491.934 2.027-3.817 4.183.882 1.674-3.503-4.238-1.01 2.185-3.526 4.331.913 1.671-3.503-4.383-1.04 2.762-4.611-3.989-.896-2.831 4.539-2.935-.698 2.785-4.65-3.989-.893-2.854 4.577-4.176-.99-2.01 3.962 4.315.91-2.105 3.239-4.15-.989-2.01 3.965 4.287.903-2.011 3.6zM309.549 82.868c1.092-2.216.169-6.337-2.162-8.882.343 1.505.299 2.966-.215 3.993l-6.845 15.25c-.634 1.407-1.975 2.22-3.369 2.04L241.8 89.52c-2.452-.594-4.206-2.8-4.603-5.854l-.13.171c-1.549 5.686.639 10.25 4.386 11.166l57.46 6.062c1.45.187 2.849-.667 3.508-2.146l7.128-16.05zM294.897 111.025l-6.98 15.554c-.65 1.435-2.017 2.265-3.439 2.081l-56.258-5.862c-1.461-.355-2.673-1.274-3.514-2.595-.213 4.248 1.806 7.437 4.868 8.187l57.463 6.062c1.45.19 2.846-.667 3.508-2.146l7.126-16.05c1.152-2.33.062-6.775-2.546-9.269.34 1.526.29 3-.228 4.038M281.685 146.3c.138 1.188.018 2.296-.397 3.13l-7.048 15.701c-.654 1.448-2.034 2.284-3.47 2.1l-56.795-5.917a5.64 5.64 0 0 1-2.493-1.344c-.127 4.126 1.87 7.214 4.876 7.95l57.46 6.06c1.45.19 2.849-.664 3.51-2.146l7.126-16.05c1.183-2.398.003-7.04-2.769-9.484"/>
        <path fill="#7E838C" d="M228.22 122.797l56.259 5.865c1.422.181 2.79-.647 3.435-2.082l6.983-15.556c.52-1.038.569-2.512.229-4.035-.392-1.754-1.306-3.568-2.64-4.868.69 1.214.82 2.883.086 4.818l-5.605 12.417c-.649 1.435-2.016 2.263-3.438 2.081l-56.258-5.862c-2.079-.506-3.166-1.603-3.496-2.953-.69 3.047-.257 5.717.932 7.58.84 1.321 2.052 2.242 3.513 2.595"/>
        <path fill="#3B4056" d="M227.271 115.575l56.259 5.862c1.422.184 2.79-.646 3.435-2.079l5.608-12.42c.732-1.935.605-3.603-.088-4.818-.662-1.157-1.837-1.9-3.283-2.047l-53.902-5.05c-3.451-.371-5.244 1.513-5.88 2.917l-5.172 11.298c-.532 1.173-.721 2.351-.472 3.384.327 1.35 1.414 2.45 3.495 2.953"/>
        <path fill="#7E838C" d="M241.8 89.52l55.157 5.748c1.394.179 2.735-.633 3.371-2.04l6.843-15.25c.514-1.028.558-2.486.218-3.991-.39-1.71-1.28-3.472-2.58-4.739.678 1.189.802 2.824.084 4.723l-5.496 12.176c-.634 1.406-1.975 2.218-3.369 2.04l-55.158-5.748c-2.042-.493-3.106-1.57-3.428-2.896-.337 1.481-.407 2.872-.243 4.12.394 3.057 2.148 5.263 4.6 5.857"/>
        <path fill="#3B4056" d="M240.87 82.439l55.157 5.747c1.394.18 2.735-.633 3.371-2.04l5.494-12.175c.721-1.9.594-3.534-.083-4.723-.65-1.136-1.804-1.863-3.22-2.008l-52.85-4.954c-3.383-.36-5.14 1.485-5.763 2.862l-5.07 11.076c-.522 1.152-.708 2.31-.465 3.319.322 1.326 1.389 2.403 3.428 2.896"/>
        <path fill="#07071C" d="M317.468 42.78l-6.804 15.157c-.63 1.398-1.962 2.205-3.347 2.029l-54.826-5.714c-2.286-.553-3.958-2.52-4.484-5.268a12.184 12.184 0 0 0-.068 3.073c.377 3.298 2.219 5.685 4.816 6.32l57.46 6.063c1.45.186 2.847-.667 3.509-2.146l7.128-16.053c1.354-2.745-.39-8.433-4.074-10.395l-.286.005c1.394 2.317 1.83 5.224.976 6.929"/>
        <path fill="#7E838C" d="M315.204 39.354l-5.462 12.102c-.634 1.396-1.965 2.206-3.35 2.027l-54.826-5.714c-2.185-.53-3.241-1.73-3.465-3.19-.334 1.604-.345 3.094-.093 4.404.524 2.751 2.198 4.715 4.484 5.27l54.823 5.712c1.386.18 2.72-.628 3.35-2.027l6.804-15.16c.851-1.704.415-4.61-.978-6.928-.724-1.204-1.705-2.255-2.906-2.888l-.426.008c2.115.849 3.228 3.26 2.045 6.384"/>
        <path fill="#3B4056" d="M253.66 30.583l-5.04 11.01c-.466 1.03-.66 2.06-.518 2.987.22 1.458 1.28 2.66 3.464 3.19l54.826 5.713c1.383.18 2.717-.63 3.35-2.029l5.462-12.1c1.184-3.125.07-5.535-2.044-6.386a4.55 4.55 0 0 0-1.24-.307l-1.864-.176-50.666-4.746c-3.363-.358-5.11 1.476-5.73 2.844"/>
        <path fill="#7E838C" d="M270.77 167.231c1.436.185 2.816-.65 3.47-2.101l7.048-15.702c.415-.833.534-1.939.397-3.127-.236-2.04-1.24-4.313-2.831-5.862.698 1.225.828 2.909.085 4.863l-5.657 12.536c-.653 1.448-2.034 2.286-3.469 2.102l-56.795-5.92c-2.1-.508-3.197-1.616-3.53-2.98-.877 3.86.034 7.125 1.993 8.928a5.614 5.614 0 0 0 2.494 1.344l56.796 5.92z"/>
        <path fill="#3B4056" d="M213.017 154.021l56.795 5.92c1.435.183 2.816-.655 3.47-2.103l5.66-12.536c.739-1.954.612-3.638-.086-4.863-.67-1.17-1.858-1.92-3.317-2.068l-54.416-5.102c-3.485-.37-5.296 1.531-5.937 2.948l-5.22 11.405c-.538 1.186-.73 2.377-.476 3.418.33 1.362 1.428 2.473 3.527 2.981"/>
    </g>
</svg>
