<svg xmlns="http://www.w3.org/2000/svg" width="360" height="176" viewBox="0 0 360 176">
    <g fill="none" fill-rule="evenodd">
        <path fill="#F21942" d="M0 0h360v176H0z"/>
        <path fill="#1C1C2D" d="M315.68 6.889c-.236-.063-48.373 3.451-48.598 3.322C246.58-1.569 161.914.042 161.914.042s-54.01-13.21-74.245 23.534l-57.13 97.397S5.322 175.678 50.94 185.286c39.329 8.282 176.554 23.683 188.194 25.334 29.775 4.221 50.534 2.32 68.985-34.173 2.86-6.352 34.319-104.805 37.576-116.083 2.182-7.557 6.484-43.802-30.015-53.475l-59.352 196.32"/>
        <path fill="#3B4056" d="M86.175 10.254l-53.69 102.769s-18.33 40.044 23.806 48.434c39.418 7.85 164.952 20.042 176.592 21.692 29.775 4.222 44.629-.652 63.08-37.146 2.86-6.352 35.242-91.686 37.317-96.754 2.01-4.912 7.449-29.316-13.26-40.731-20.71-11.415-166.036-23.23-166.036-23.23S106.41-26.49 86.175 10.254"/>
        <path fill="#07071C" d="M139.486 37.003l-36.723-5.5c-2.569-.4-3.682-1.132-2.413-3.53l9.113-17.984c.656-1.24 1.958-1.938 3.29-1.763l33.836 2.47c2.825.372 6.607 1.442 5.479 4.456l-9.217 20.095c-.669 1.268-2.009 1.967-3.365 1.756"/>
        <path fill="#7E838C" d="M135.518 31.982l-30.333-4.64c-2.989-.987-3.622-5.3-1.727-9.861l7.469-8.373c.632-1.194 1.884-1.865 3.167-1.696l28.821.677c4.668 1.098 6.205 4.304 4.539 8.576L140.87 29.27c-1.096 2.038-3.59 3.117-5.352 2.713"/>
        <path fill="#3B4056" d="M300.476 63.562l-46.326-5.705c-4.03-.561-7.179-4.412-7.412-9.288-.044-.931.007-1.868.17-2.774l.574-10.824c.344-3.124 7.887-9.533 10.477-9.22l28.323 3.55c7.066.92 23.7 2.77 26.665 13.05 2.233 7.748-1.866 15.858-1.866 15.858-1.994 4.482-6.885 5.813-10.605 5.353M136.061 26.142L106.53 22.02c-3.359-.885-3.812-3.268-2.59-5.577l5.137-9.607c.632-1.194 2.347-2.765 5.522-2.335l27.384 3.343c2.72.357 4.338 2.817 2.892 6.046L139.3 24.451c-.644 1.22-1.934 1.894-3.24 1.69"/>
        <path fill="#07071C" d="M185.502 44.793l-36.722-5.5c-2.569-.4-3.682-1.133-2.413-3.531l9.29-17.98c.656-1.24 1.957-1.938 3.289-1.763l33.836 2.47c2.826.371 6.607 1.442 5.48 4.455l-9.394 20.093c-.67 1.268-2.009 1.967-3.366 1.756"/>
        <path fill="#7E838C" d="M181.529 40.145l-30.334-4.64c-2.989-.986-3.438-5.67-1.543-10.231l7.469-8.373c.631-1.194 1.884-1.865 3.167-1.696l28.821.677c4.668 1.097 6.204 4.304 4.538 8.576l-6.767 12.975c-1.096 2.038-3.59 3.117-5.351 2.712"/>
        <path fill="#3B4056" d="M182.255 33.935l-29.533-4.122c-3.358-.885-3.811-3.268-2.59-5.577l5.138-9.607c.631-1.194 2.346-2.765 5.521-2.335l27.384 3.343c2.72.357 4.339 2.817 2.892 6.046l-5.572 10.561c-.644 1.22-1.934 1.894-3.24 1.69"/>
        <path fill="#07071C" d="M234.005 51.992l-36.723-5.5c-2.568-.4-3.682-1.132-2.413-3.531l9.29-17.98c.656-1.24 1.957-1.938 3.29-1.763l33.836 2.47c2.825.372 6.606 1.442 5.479 4.456l-9.394 20.092c-.668 1.268-2.008 1.967-3.365 1.756"/>
        <path fill="#7E838C" d="M230.205 47.534l-30.334-4.64c-2.989-.986-3.974-5.378-1.717-10.421l7.47-8.373c.631-1.194 1.884-1.865 3.166-1.696l28.822.677c4.667 1.098 6.203 4.304 4.538 8.576l-6.594 13.165c-1.096 2.038-3.59 3.117-5.351 2.712"/>
        <path fill="#3B4056" d="M230.757 41.134l-29.532-4.122c-3.359-.885-3.812-3.268-2.59-5.577l5.137-9.607c.632-1.194 2.347-2.765 5.522-2.335l27.384 3.343c2.72.357 4.338 2.817 2.892 6.046l-5.573 10.561c-.644 1.22-1.934 1.894-3.24 1.69"/>
        <path fill="#07071C" d="M124.531 69.266L87.239 63.68c-2.609-.406-3.74-1.15-2.45-3.585l9.254-18.263c.666-1.26 1.987-1.967 3.34-1.79l34.361 2.51c2.87.376 6.71 1.463 5.564 4.523l-9.36 20.408c-.679 1.287-2.04 1.997-3.417 1.783"/>
        <path fill="#7E838C" d="M120.502 64.167l-30.804-4.712c-3.035-1.003-3.678-5.382-1.753-10.014l7.585-8.503c.641-1.213 1.913-1.893 3.216-1.723l29.268.688c4.74 1.115 6.3 4.37 4.61 8.71l-6.687 12.799c-1.113 2.07-3.646 3.165-5.435 2.755"/>
        <path fill="#3B4056" d="M121.054 58.236L91.063 54.05c-3.41-.9-3.87-3.32-2.63-5.665l5.217-9.755c.641-1.212 2.383-2.808 5.607-2.372l27.809 3.396c2.762.362 4.405 2.86 2.937 6.14l-5.659 10.724c-.654 1.24-1.964 1.923-3.29 1.717"/>
        <path fill="#07071C" d="M171.262 77.176l-37.293-5.585c-2.608-.406-3.74-1.15-2.45-3.586l9.434-18.259c.666-1.26 1.987-1.967 3.34-1.79l34.361 2.51c2.87.376 6.71 1.463 5.564 4.523l-9.539 20.405c-.68 1.287-2.04 1.997-3.417 1.782"/>
        <path fill="#7E838C" d="M167.226 72.457l-30.804-4.712c-3.035-1.002-3.491-5.758-1.567-10.39l7.585-8.503c.641-1.212 1.913-1.894 3.216-1.723l29.268.688c4.74 1.115 6.3 4.37 4.609 8.71l-6.872 13.175c-1.113 2.07-3.646 3.166-5.435 2.755"/>
        <path fill="#3B4056" d="M167.964 66.15l-29.991-4.185c-3.41-.9-3.87-3.32-2.63-5.665l5.217-9.755c.641-1.213 2.382-2.808 5.607-2.372l27.809 3.395c2.762.363 4.406 2.86 2.937 6.14l-5.66 10.725c-.653 1.24-1.963 1.923-3.29 1.717"/>
        <path fill="#07071C" d="M220.516 84.487l-37.292-5.586c-2.608-.405-3.74-1.15-2.45-3.585l9.433-18.26c.667-1.259 1.988-1.966 3.34-1.789l34.362 2.509c2.87.377 6.71 1.464 5.564 4.524l-9.54 20.404c-.678 1.288-2.04 1.998-3.417 1.783"/>
        <path fill="#7E838C" d="M216.657 79.96l-30.804-4.711c-3.035-1.002-4.035-5.462-1.743-10.583l7.584-8.503c.642-1.213 1.914-1.894 3.216-1.723l29.269.687c4.74 1.115 6.3 4.371 4.609 8.71l-6.696 13.369c-1.113 2.07-3.646 3.165-5.435 2.755"/>
        <path fill="#3B4056" d="M217.218 73.46l-29.99-4.185c-3.41-.899-3.87-3.32-2.63-5.664l5.216-9.755c.642-1.213 2.383-2.808 5.608-2.372l27.808 3.395c2.763.363 4.406 2.86 2.938 6.14l-5.66 10.725c-.653 1.24-1.963 1.923-3.29 1.716"/>
        <path fill="#07071C" d="M107.557 102.351l-37.822-5.664c-2.645-.413-3.792-1.166-2.485-3.637l9.386-18.522c.676-1.277 2.015-1.995 3.388-1.814l34.849 2.544c2.91.382 6.804 1.484 5.643 4.588l-9.493 20.697c-.688 1.306-2.068 2.026-3.466 1.808"/>
        <path fill="#7E838C" d="M103.471 97.18L72.23 92.4c-3.079-1.016-3.73-5.457-1.778-10.155l7.692-8.623c.651-1.23 1.94-1.921 3.262-1.748l29.684.698c4.807 1.13 6.39 4.432 4.674 8.833l-6.78 12.981c-1.13 2.1-3.699 3.21-5.513 2.794"/>
        <path fill="#3B4056" d="M104.03 91.165L73.615 86.92c-3.46-.911-3.926-3.366-2.667-5.744l5.29-9.894c.651-1.23 2.417-2.848 5.688-2.406l28.203 3.444c2.801.368 4.468 2.9 2.978 6.227l-5.739 10.877c-.663 1.257-1.992 1.95-3.336 1.741"/>
        <path fill="#07071C" d="M154.952 110.374l-37.823-5.665c-2.645-.411-3.792-1.165-2.484-3.636l9.567-18.518c.676-1.278 2.016-1.996 3.388-1.815l34.849 2.544c2.91.382 6.805 1.484 5.643 4.588l-9.674 20.694c-.69 1.306-2.07 2.026-3.466 1.808"/>
        <path fill="#7E838C" d="M150.859 105.588l-31.242-4.78c-3.078-1.016-3.541-5.84-1.59-10.537l7.693-8.624c.65-1.229 1.94-1.92 3.262-1.746l29.684.697c4.808 1.13 6.39 4.433 4.674 8.833l-6.97 13.363c-1.128 2.1-3.697 3.21-5.511 2.794"/>
        <path fill="#3B4056" d="M151.607 99.191l-30.417-4.245c-3.46-.911-3.926-3.366-2.667-5.744l5.29-9.894c.651-1.23 2.417-2.847 5.688-2.406l28.203 3.444c2.801.368 4.468 2.901 2.979 6.227l-5.74 10.878c-.663 1.257-1.991 1.95-3.336 1.74"/>
        <path fill="#07071C" d="M88.94 135.88l-37.821-5.665c-2.645-.411-3.792-1.165-2.485-3.636l9.385-18.522c.677-1.277 2.016-1.995 3.389-1.814l34.849 2.544c2.91.382 6.804 1.484 5.642 4.588l-9.492 20.697c-.689 1.306-2.069 2.026-3.466 1.808"/>
        <path fill="#7E838C" d="M84.855 130.709l-31.242-4.78c-3.078-1.016-3.73-5.457-1.778-10.155l7.693-8.623c.65-1.23 1.94-1.921 3.261-1.748l29.684.698c4.808 1.13 6.39 4.433 4.675 8.833l-6.78 12.981c-1.13 2.1-3.699 3.21-5.513 2.794"/>
        <path fill="#3B4056" d="M85.414 124.694l-30.416-4.245c-3.46-.912-3.926-3.366-2.667-5.744l5.29-9.894c.65-1.23 2.417-2.848 5.687-2.406l28.204 3.444c2.801.368 4.468 2.9 2.978 6.227l-5.739 10.877c-.663 1.257-1.992 1.95-3.337 1.741"/>
        <path fill="#07071C" d="M136.335 143.903l-37.822-5.664c-2.645-.412-3.792-1.166-2.485-3.637l9.568-18.518c.676-1.278 2.016-1.996 3.387-1.815l34.85 2.544c2.91.382 6.804 1.484 5.643 4.588l-9.675 20.695c-.688 1.305-2.068 2.025-3.466 1.807"/>
        <path fill="#7E838C" d="M132.243 139.117L101 134.338c-3.079-1.016-3.542-5.84-1.59-10.538l7.693-8.623c.65-1.23 1.94-1.921 3.262-1.748l29.684.698c4.807 1.13 6.39 4.433 4.674 8.833l-6.97 13.363c-1.129 2.1-3.698 3.21-5.511 2.794"/>
        <path fill="#3B4056" d="M132.99 132.72l-30.416-4.244c-3.46-.912-3.926-3.367-2.667-5.745l5.29-9.894c.651-1.23 2.417-2.848 5.688-2.405l28.203 3.443c2.801.368 4.468 2.901 2.978 6.227l-5.739 10.878c-.663 1.257-1.992 1.95-3.337 1.74"/>
        <path fill="#07071C" d="M204.906 117.79l-37.822-5.666c-2.646-.412-3.793-1.166-2.485-3.636l9.567-18.519c.676-1.277 2.016-1.995 3.388-1.815l34.85 2.545c2.91.382 6.804 1.484 5.642 4.588l-9.674 20.694c-.689 1.306-2.069 2.025-3.466 1.808"/>
        <path fill="#7E838C" d="M200.992 113.198l-31.242-4.779c-3.078-1.016-4.093-5.539-1.768-10.733l7.692-8.624c.652-1.23 1.941-1.92 3.262-1.747l29.684.697c4.808 1.131 6.39 4.433 4.675 8.834l-6.791 13.558c-1.129 2.1-3.698 3.211-5.512 2.794"/>
        <path fill="#3B4056" d="M201.561 106.606l-30.417-4.245c-3.459-.912-3.925-3.367-2.666-5.745l5.29-9.894c.65-1.23 2.417-2.847 5.687-2.405l28.203 3.444c2.802.368 4.469 2.9 2.979 6.227l-5.74 10.877c-.662 1.257-1.991 1.95-3.336 1.74"/>
        <path fill="#07071C" d="M192.28 159.62l-48.212-7.603c-3.562-.598-5.106-1.7-3.34-5.323l10.37-22.364c.913-1.873 2.72-2.928 4.567-2.666l43.752 4.986c3.92.553 11.562 1.456 9.63 5.431l-12.095 24.883c-.93 1.915-2.791 2.973-4.672 2.657"/>
        <path fill="#F21942" d="M189.564 152.903l-41.173-6.071c-5.128-.547-9.023-5.631-5.081-14.191l9.66-9.996c.884-1.773 2.632-2.771 4.42-2.523l40.22-.987c4.457.865 8.111 8.13 5.015 14.776l-8.541 16.478c-.9 1.813-2.7 2.814-4.52 2.514"/>
        <path fill="#06FF6B" d="M188.457 145.243l-40.145-5.693c-3.436-.566-6.19-5.19-4.487-8.608l8.155-15.86c.88-1.768 2.621-2.763 4.404-2.516l40.33 5.593c3.78.525 5.872 5.19 4.01 8.942l-7.762 15.636c-.897 1.807-2.69 2.805-4.505 2.506"/>
        <path fill="#07071C" d="M182.786 132.356l-3.17-.869 1.819-3.123 3.293.812-1.942 3.18zm9.64-.97l1.725-3.278-4.17-1.143 2.806-4.298-3.795-.986-2.87 4.226-2.79-.765 2.827-4.336-3.794-.986-2.893 4.263-3.972-1.089-2.065 3.708 4.107 1.013-2.128 3.012-3.947-1.082-2.064 3.708 4.081 1.007-2.05 3.357 4.275 1.042 1.96-3.367 2.563.633-2.17 3.554 4.275 1.042 2.075-3.566 3.982.982 1.725-3.278-4.031-1.105 2.215-3.284 4.124 1.017zM295.82 96.093l-54.911-7.736c-3.562-1.002-5.505-5.423-3.825-10.787l5.63-6.878c.673-1.357 2.494-3.145 5.862-2.661l54.515 1.054c3.466 1.995 4.946 7.472 3.551 10.041l-7.383 15.042c-.685 1.388-2.055 2.154-3.44 1.925M289.456 136.493l-70.87-9.985c-4.598-1.293-7.105-7-4.936-13.922l7.267-8.877c.867-1.752 3.218-4.06 7.565-3.435l69.655.634c4.473 2.575 6.383 9.644 4.584 12.96l-8.825 20.14c-.884 1.792-2.652 2.78-4.44 2.485M268.094 169.01l-54.91-7.736c-3.563-1.002-5.505-5.423-3.825-10.787l5.63-6.878c.673-1.358 2.494-3.145 5.862-2.661l54.515 1.054c3.465 1.995 4.945 7.472 3.551 10.041l-7.384 15.042c-.684 1.388-2.054 2.154-3.44 1.925"/>
        <path fill="#F21942" d="M287.238 129.62l-70.084-10.048c-4.501-1.254-6.958-6.784-4.836-13.493l7.115-8.6c.848-1.698 3.15-3.933 7.406-3.328l68.89 1.331c4.38 2.496 5.893 9.34 4.131 12.553l-8.276 19.179c-.865 1.735-2.596 2.693-4.346 2.406"/>
        <path fill="#FFF" d="M286.368 121.397l-70.081-10.225c-4.501-1.279-5.104-4.736-3.461-8.089l6.905-13.948c.85-1.733 3.151-4.016 7.408-3.4l66.15 8.736c3.646.513 5.812 4.078 3.866 8.767l-6.44 15.7c-.866 1.772-2.597 2.751-4.347 2.459"/>
        <path fill="#7E838C" d="M294.142 90.507l-52.713-7.36c-3.42-.953-5.286-5.153-3.674-10.25l5.405-6.533c.645-1.29 2.393-2.988 5.626-2.528l52.332 1.011c3.327 1.896 4.749 7.1 3.41 9.541l-7.084 14.29c-.657 1.32-1.972 2.047-3.302 1.829"/>
        <path fill="#3B4056" d="M293.491 83.73l-52.713-7.36c-3.42-.952-3.878-3.525-2.63-6.019l5.24-10.377c.645-1.29 2.394-2.987 5.627-2.528l50.525 6.523c2.77.383 4.416 3.037 2.94 6.525l-5.687 11.408c-.657 1.319-1.972 2.047-3.302 1.829"/>
        <path fill="#07071C" d="M307.15 63.394l-54.91-7.736c-3.562-1.002-5.505-5.423-3.825-10.787l5.631-6.878c.672-1.357 2.493-3.145 5.862-2.661l54.514 1.054c3.465 1.995 4.946 7.472 3.551 10.041L310.59 61.47c-.685 1.387-2.054 2.154-3.44 1.924"/>
        <path fill="#7E838C" d="M304.522 59.035l-52.395-7.315c-3.399-.947-5.253-5.123-3.65-10.188l5.37-6.494c.642-1.282 2.38-2.97 5.593-2.513l52.017 1.005c3.307 1.885 4.72 7.058 3.39 9.483l-7.043 14.205c-.653 1.31-1.96 2.034-3.282 1.817"/>
        <path fill="#3B4056" d="M303.857 52.829l-52.395-7.316c-3.4-.947-3.855-3.504-2.616-5.983l5.21-10.314c.64-1.282 2.379-2.97 5.593-2.513l50.22 6.484c2.754.38 4.39 3.018 2.922 6.485l-5.652 11.34c-.654 1.31-1.96 2.034-3.282 1.817"/>
        <path fill="#7E838C" d="M265.401 162.478l-54.278-7.579c-3.52-.98-5.442-5.306-3.782-10.554l5.565-6.727c.664-1.328 2.464-3.076 5.794-2.603l53.884 1.041c3.426 1.953 4.89 7.311 3.512 9.824l-7.295 14.715c-.677 1.358-2.03 2.107-3.4 1.883"/>
        <path fill="#3B4056" d="M264.731 155.5l-54.278-7.579c-3.52-.98-3.993-3.63-2.709-6.198l5.398-10.684c.664-1.328 2.463-3.077 5.793-2.603l52.024 6.716c2.853.394 4.547 3.127 3.027 6.719l-5.855 11.747c-.677 1.357-2.03 2.106-3.4 1.882"/>
        <path fill="#1C1C2D" d="M236.092 96.85c-.377 2.054-3.167 1.44-4.379 1.07a.615.615 0 0 1-.42-.739l.656-2.593a.617.617 0 0 1 .664-.461c1.181.121 3.863.63 3.479 2.722m-6.562-5.335l-5.092 14.362a.615.615 0 0 0 .498.768l1.842.296a.617.617 0 0 0 .691-.434l2.4-5.328a.619.619 0 0 1 .787-.41c1.9.615 7.68 1.966 8.51-4.037.8-5.796-7.041-5.765-9.072-5.67a.614.614 0 0 0-.564.453M279.168 99.802l-5.007 13.754a.587.587 0 0 0 .457.779l8.628 1.455a.59.59 0 0 0 .653-.38l.603-1.663a.587.587 0 0 0-.44-.775l-5.475-1.082a.587.587 0 0 1-.439-.779l.99-2.688a.59.59 0 0 1 .668-.374l4.793.936a.59.59 0 0 0 .665-.366l.567-1.478a.587.587 0 0 0-.437-.786l-4.41-.862a.587.587 0 0 1-.441-.777l.799-2.184a.59.59 0 0 1 .648-.379l5.055.815a.591.591 0 0 0 .619-.31l.586-1.132a.587.587 0 0 0-.433-.85l-8.003-1.254a.59.59 0 0 0-.646.38M242.655 100.157l1.06-1.672c.33-.522 1.14-.289 1.14.327v1.932a.617.617 0 0 1-.764.597l-1.06-.26c-.41-.099-.601-.57-.376-.924m4.7 9.42l.097-15.352a.615.615 0 0 0-.49-.606l-2.757-.58a.618.618 0 0 0-.653.277l-8.617 13.867a.614.614 0 0 0 .397.925l2.37.499a.618.618 0 0 0 .668-.303l2.231-3.998a.62.62 0 0 1 .687-.299l2.11.516c.285.07.481.331.469.623l-.17 3.89c-.013.3.194.565.49.627l2.422.511a.617.617 0 0 0 .746-.597M253.575 94.671a.615.615 0 0 0-.703.38c-.804 2.081-3.826 10.279-2.892 13.53 1.073 3.737 6.6 4.592 9.228 1.014 1.552-2.11 3.997-9.833 4.692-12.087a.614.614 0 0 0-.444-.776l-1.86-.455a.615.615 0 0 0-.735.41c-.723 2.289-3.58 10.979-5.275 10.906-3.013-.13-2.392-2.451.91-11.588a.618.618 0 0 0-.45-.813l-2.47-.52zM271.15 97.46s-3.8-.8-5.186 1.683c-1.387 2.485-1.497 5.024 2.22 7.73 3.717 2.705.389 5.741-1.442 3.754-.764-.83-1.028-1.639-1.119-2.127a.61.61 0 0 0-.578-.491l-2.066-.09a.618.618 0 0 0-.644.602c-.04 1.381.303 4.611 4.269 5.28 5.076.856 6.49-2.263 6.6-4.803.11-2.54-4.91-4.665-4.827-6.57.082-1.873 1.372-3.08 3.183-1.83.059.04.117.09.158.147.233.325.209.756.12 1.118-.092.368.197.724.578.74l1.754.076a.614.614 0 0 0 .645-.587c.044-1.244-.257-3.996-3.665-4.632"/>
    </g>
</svg>
