<svg xmlns="http://www.w3.org/2000/svg" width="360" height="176" viewBox="0 0 360 176">
    <g fill="none" fill-rule="evenodd">
        <path fill="#F21942" d="M0-.5h360v176H0z"/>
        <path fill="#1C1C2D" d="M99.349 24.4l-56.342 92.437s-17.6 45.107 22.425 54.107c37.443 8.42 162.974 33.184 174.047 35.035 28.324 4.736 45.944-4.153 64.43-38.42 2.883-5.972 34.605-91.95 37.984-102.599 2.283-7.198 6.459-30.884-13.04-42.243C309.357 11.358 170.79 3.81 170.79 3.81S119.544-10.062 99.35 24.4"/>
        <path fill="#3B4056" d="M101.747 11.905L45.407 108.2s-19.33 37.593 20.693 46.593c37.444 8.42 156.995 23.054 168.068 24.906 28.324 4.735 44.824-1.075 63.31-35.341 2.883-5.973 38.563-81.24 40.665-86.011 2.037-4.623 7.2-27.122-12.299-38.481-19.497-11.36-161.046-30.207-161.046-30.207s-42.857-12.215-63.051 22.246"/>
        <path fill="#07071C" d="M148.44 44.574l-33.361-5.979c-2.333-.431-3.328-1.112-2.102-3.193l8.827-15.615a2.994 2.994 0 0 1 3.052-1.457l30.813 3.213c2.568.414 5.989 1.475 4.874 4.104l-8.982 17.478a2.993 2.993 0 0 1-3.122 1.449M142.53 138.947l-34.358-6.158c-2.403-.444-3.429-1.146-2.165-3.289l9.257-16.074a3.084 3.084 0 0 1 3.144-1.5l31.734 3.309c2.645.426 6.169 1.519 5.02 4.227l-9.416 17.992c-.666 1.133-1.946 1.727-3.215 1.493"/>
        <path fill="#7E838C" d="M144.961 40.016l-27.553-5.024c-2.7-.963-3.156-4.793-1.296-8.766l7.054-7.172a2.883 2.883 0 0 1 2.938-1.403l26.286 1.476c4.23 1.112 5.54 3.992 3.9 7.717l-6.367 10.938c-1.059 1.768-3.366 2.645-4.962 2.234"/>
        <path fill="#07071C" d="M193.207 157.073l-45.147-8.442c-3.335-.657-4.755-1.71-2.987-4.955l10.413-20.052c.914-1.678 2.644-2.582 4.376-2.286l41.027 5.916c3.671.628 10.837 1.69 8.903 5.252l-12.11 22.293c-.932 1.715-2.714 2.62-4.475 2.274"/>
        <path fill="#F21942" d="M190.848 150.867l-38.568-6.825c-4.81-.66-8.327-5.414-4.367-13.09l9.385-8.804c.883-1.588 2.556-2.442 4.231-2.16l37.88.363c4.168.928 7.394 7.662 4.286 13.62l-8.52 14.747c-.9 1.623-2.623 2.479-4.327 2.149"/>
        <path fill="#3B4056" d="M145.622 34.872l-26.837-4.541c-3.04-.885-3.386-3.005-2.205-5.008l4.96-8.333c.612-1.036 2.22-2.372 5.107-1.896l24.898 3.788c2.472.399 3.88 2.622 2.468 5.431l-5.386 9.164a2.881 2.881 0 0 1-3.005 1.395"/>
        <path fill="#07071C" d="M190.217 52.859l-33.36-5.979c-2.333-.431-3.329-1.112-2.102-3.193l8.988-15.607a2.994 2.994 0 0 1 3.053-1.457l30.812 3.213c2.568.414 5.989 1.475 4.874 4.104l-9.143 17.47a2.993 2.993 0 0 1-3.122 1.449"/>
        <path fill="#7E838C" d="M186.723 48.63l-27.554-5.023c-2.7-.963-2.978-5.115-1.118-9.089l7.054-7.171a2.883 2.883 0 0 1 2.938-1.403l26.287 1.476c4.229 1.112 5.54 3.992 3.898 7.717l-6.544 11.26c-1.058 1.767-3.365 2.645-4.961 2.234"/>
        <path fill="#3B4056" d="M187.562 43.165l-26.838-4.542c-3.04-.884-3.386-3.004-2.205-5.007l4.961-8.333c.61-1.036 2.22-2.372 5.106-1.896l24.898 3.788c2.472.398 3.88 2.621 2.468 5.431l-5.386 9.164a2.881 2.881 0 0 1-3.004 1.395"/>
        <path fill="#07071C" d="M234.281 60.697l-33.36-5.978c-2.333-.432-3.33-1.113-2.102-3.194l8.988-15.607a2.995 2.995 0 0 1 3.053-1.457l30.811 3.214c2.569.414 5.99 1.474 4.875 4.103l-9.144 17.47a2.993 2.993 0 0 1-3.121 1.45"/>
        <path fill="#7E838C" d="M230.94 56.643l-27.554-5.024c-2.7-.963-3.475-4.874-1.272-9.262l7.055-7.172a2.883 2.883 0 0 1 2.938-1.403l26.286 1.476c4.229 1.112 5.54 3.992 3.899 7.717L235.9 54.41c-1.059 1.767-3.366 2.645-4.962 2.234"/>
        <path fill="#3B4056" d="M231.625 51.003l-26.837-4.541c-3.04-.885-3.386-3.005-2.205-5.008l4.96-8.333c.611-1.036 2.22-2.371 5.106-1.896l24.898 3.789c2.473.398 3.88 2.62 2.468 5.43l-5.385 9.164a2.881 2.881 0 0 1-3.005 1.395"/>
        <path fill="#07071C" d="M133.875 72.63l-33.878-6.072c-2.369-.438-3.38-1.13-2.134-3.242l8.964-15.858a3.041 3.041 0 0 1 3.1-1.48l31.29 3.263c2.608.421 6.081 1.499 4.95 4.168l-9.122 17.749a3.039 3.039 0 0 1-3.17 1.471"/>
        <path fill="#7E838C" d="M130.343 68l-27.981-5.1c-2.742-.979-3.204-4.869-1.316-8.903l7.164-7.284a2.927 2.927 0 0 1 2.983-1.424l26.694 1.499c4.295 1.13 5.626 4.054 3.96 7.837l-6.466 11.107c-1.075 1.795-3.418 2.686-5.038 2.269"/>
        <path fill="#3B4056" d="M131.014 62.777l-27.254-4.612c-3.087-.898-3.438-3.051-2.239-5.085l5.038-8.462c.62-1.052 2.255-2.41 5.185-1.926l25.284 3.847c2.511.405 3.94 2.662 2.507 5.516l-5.47 9.305a2.926 2.926 0 0 1-3.05 1.417"/>
        <path fill="#07071C" d="M176.301 81.043l-33.878-6.071c-2.369-.439-3.38-1.13-2.134-3.243l9.127-15.85a3.04 3.04 0 0 1 3.1-1.479l31.29 3.263c2.608.42 6.082 1.498 4.95 4.167l-9.285 17.741a3.039 3.039 0 0 1-3.17 1.472"/>
        <path fill="#7E838C" d="M172.752 76.75l-27.981-5.102c-2.742-.978-3.023-5.195-1.135-9.23l7.163-7.283a2.928 2.928 0 0 1 2.984-1.425l26.694 1.5c4.295 1.128 5.626 4.053 3.96 7.836L177.79 74.48c-1.075 1.796-3.417 2.687-5.038 2.27"/>
        <path fill="#3B4056" d="M173.604 71.198l-27.254-4.611c-3.087-.899-3.438-3.052-2.239-5.086l5.038-8.462c.62-1.052 2.254-2.409 5.185-1.925l25.284 3.847c2.511.404 3.94 2.661 2.507 5.515l-5.47 9.306a2.926 2.926 0 0 1-3.051 1.416"/>
        <path fill="#07071C" d="M221.048 89.003l-33.878-6.071c-2.369-.439-3.38-1.13-2.134-3.243l9.127-15.85a3.041 3.041 0 0 1 3.1-1.479l31.29 3.263c2.608.42 6.082 1.498 4.95 4.167l-9.285 17.741a3.038 3.038 0 0 1-3.17 1.472"/>
        <path fill="#7E838C" d="M217.654 84.885l-27.98-5.101c-2.743-.978-3.529-4.95-1.291-9.406l7.163-7.283a2.927 2.927 0 0 1 2.984-1.424l26.694 1.498c4.295 1.13 5.626 4.054 3.96 7.837l-6.491 11.61c-1.075 1.796-3.418 2.687-5.039 2.27"/>
        <path fill="#3B4056" d="M218.351 79.158l-27.254-4.611c-3.087-.899-3.438-3.052-2.239-5.086L193.896 61c.62-1.052 2.255-2.409 5.185-1.925l25.284 3.847c2.511.404 3.94 2.662 2.506 5.515l-5.468 9.306a2.925 2.925 0 0 1-3.052 1.416"/>
        <path fill="#07071C" d="M117.445 101.35l-34.36-6.157c-2.402-.444-3.428-1.145-2.164-3.289l9.091-16.082a3.084 3.084 0 0 1 3.144-1.5l31.734 3.309c2.645.426 6.168 1.519 5.02 4.226l-9.25 18.001c-.667 1.133-1.947 1.728-3.215 1.493"/>
        <path fill="#7E838C" d="M113.862 96.656l-28.378-5.174c-2.781-.992-3.25-4.937-1.335-9.029l7.265-7.386a2.97 2.97 0 0 1 3.027-1.445l27.072 1.52c4.356 1.145 5.706 4.112 4.016 7.948l-6.557 11.265c-1.09 1.82-3.466 2.725-5.11 2.301"/>
        <path fill="#3B4056" d="M114.543 91.358l-27.64-4.677c-3.132-.911-3.488-3.094-2.272-5.158l5.11-8.582c.628-1.067 2.286-2.443 5.259-1.953l25.643 3.902c2.546.41 3.996 2.7 2.542 5.594l-5.547 9.437a2.967 2.967 0 0 1-3.095 1.437"/>
        <path fill="#07071C" d="M160.473 109.884l-34.36-6.158c-2.402-.444-3.427-1.146-2.164-3.289l9.258-16.074a3.083 3.083 0 0 1 3.143-1.5l31.735 3.309c2.645.426 6.168 1.519 5.02 4.226l-9.417 17.993c-.666 1.133-1.946 1.727-3.215 1.493"/>
        <path fill="#7E838C" d="M156.873 105.53l-28.378-5.175c-2.78-.992-3.066-5.269-1.152-9.36l7.266-7.387a2.969 2.969 0 0 1 3.026-1.445l27.073 1.52c4.356 1.146 5.706 4.112 4.015 7.948l-6.74 11.597c-1.09 1.82-3.466 2.725-5.11 2.301"/>
        <path fill="#3B4056" d="M157.738 99.9l-27.641-4.678c-3.131-.911-3.487-3.094-2.271-5.158l5.11-8.582c.628-1.067 2.286-2.443 5.258-1.952l25.643 3.901c2.547.41 3.996 2.7 2.542 5.594l-5.546 9.437a2.968 2.968 0 0 1-3.095 1.437"/>
        <path fill="#07071C" d="M99.502 130.414l-34.359-6.158c-2.402-.444-3.428-1.146-2.165-3.289l9.092-16.082a3.083 3.083 0 0 1 3.143-1.5l31.735 3.309c2.645.426 6.168 1.519 5.02 4.226l-9.25 18.001c-.667 1.133-1.947 1.728-3.216 1.493"/>
        <path fill="#7E838C" d="M95.92 125.72l-28.379-5.175c-2.78-.992-3.25-4.937-1.335-9.029l7.266-7.386a2.968 2.968 0 0 1 3.026-1.445l27.073 1.52c4.356 1.145 5.706 4.112 4.016 7.948l-6.557 11.265c-1.09 1.82-3.467 2.725-5.11 2.301"/>
        <path fill="#3B4056" d="M96.6 120.421l-27.64-4.677c-3.13-.911-3.487-3.095-2.27-5.158l5.108-8.582c.63-1.067 2.287-2.443 5.26-1.952l25.642 3.901c2.547.41 3.996 2.7 2.542 5.594l-5.546 9.437a2.967 2.967 0 0 1-3.095 1.437"/>
        <path fill="#7E838C" d="M138.931 134.592l-28.378-5.174c-2.78-.992-3.066-5.269-1.152-9.36l7.266-7.387a2.97 2.97 0 0 1 3.026-1.445l27.073 1.52c4.356 1.146 5.706 4.112 4.015 7.949l-6.74 11.596c-1.09 1.82-3.466 2.725-5.11 2.301"/>
        <path fill="#3B4056" d="M139.795 128.962l-27.64-4.677c-3.131-.911-3.487-3.094-2.271-5.158l5.11-8.582c.628-1.067 2.285-2.443 5.258-1.953l25.643 3.902c2.546.41 3.996 2.7 2.542 5.594l-5.547 9.437a2.967 2.967 0 0 1-3.095 1.437"/>
        <path fill="#07071C" d="M205.856 117.957l-34.36-6.158c-2.402-.445-3.428-1.146-2.165-3.289l9.258-16.074a3.083 3.083 0 0 1 3.144-1.5l31.734 3.309c2.645.426 6.168 1.519 5.02 4.226l-9.417 17.993c-.666 1.133-1.946 1.727-3.214 1.493"/>
        <path fill="#7E838C" d="M202.414 113.78l-28.379-5.173c-2.78-.992-3.578-5.02-1.31-9.54l7.266-7.386a2.968 2.968 0 0 1 3.027-1.445l27.072 1.52c4.356 1.146 5.706 4.112 4.016 7.948l-6.583 11.776c-1.09 1.82-3.466 2.724-5.11 2.3"/>
        <path fill="#3B4056" d="M203.12 107.972l-27.64-4.677c-3.132-.911-3.488-3.094-2.272-5.158l5.11-8.582c.629-1.067 2.286-2.443 5.258-1.952l25.644 3.901c2.546.41 3.996 2.7 2.542 5.594l-5.547 9.437a2.967 2.967 0 0 1-3.095 1.437"/>
        <path fill="#06FF6B" d="M190.03 143.852l-37.611-6.447c-3.217-.624-5.674-4.923-3.972-7.985l8.139-14.195c.88-1.583 2.548-2.435 4.218-2.154l37.789 6.363c3.541.596 5.374 4.914 3.512 8.274l-7.761 14.002c-.897 1.619-2.615 2.471-4.314 2.142"/>
        <path fill="#07071C" d="M185.07 131.932l-2.956-.89 1.802-2.79 3.076.844-1.921 2.836zm9.101-.58l1.72-2.934-3.891-1.172 2.766-3.828-3.542-1.018-2.825 3.76-2.604-.784 2.788-3.862-3.542-1.017-2.847 3.793-3.706-1.117-2.051 3.314 3.835 1.052-2.091 2.678-3.683-1.11-2.05 3.313 3.81 1.046-2.027 2.995 3.993 1.084 1.943-3.007 2.393.656-2.147 3.17 3.993 1.084 2.058-3.183 3.718 1.02 1.719-2.933-3.761-1.134 2.181-2.923 3.85 1.057zM314.861 82.49l-68.34-11.305c-4.418-1.374-6.72-7.087-4.472-13.915l7.222-8.668c.877-1.722 3.201-3.965 7.393-3.26l68.032 2.736c4.271 2.643 5.966 9.697 4.153 12.952l-9.64 19.082c-.893 1.76-2.624 2.708-4.348 2.379M269.598 132.038l-44.525-7.6c-2.877-.911-4.359-4.644-2.87-9.09l4.739-5.627c.577-1.12 2.1-2.575 4.831-2.101l44.353 2.01c2.776 1.739 3.857 6.344 2.664 8.46l-6.349 12.411c-.589 1.145-1.72 1.757-2.843 1.537M255.877 163.602l-45.834-7.823c-2.962-.938-4.488-4.78-2.955-9.356l4.878-5.794c.594-1.152 2.162-2.65 4.973-2.163l45.657 2.07c2.858 1.79 3.971 6.53 2.743 8.71l-6.536 12.775c-.605 1.178-1.771 1.808-2.926 1.581"/>
        <path fill="#7E838C" d="M267.888 127.31l-43.597-7.384c-2.817-.884-4.27-4.502-2.814-8.81l4.637-5.45c.565-1.086 2.055-2.495 4.73-2.035l43.425 1.968c2.72 1.686 3.78 6.149 2.613 8.2l-6.21 12.024c-.576 1.11-1.684 1.702-2.784 1.488"/>
        <path fill="#3B4056" d="M267.504 121.524l-43.598-7.385c-2.817-.883-3.138-3.085-2.046-5.183l4.59-8.73c.565-1.084 2.056-2.493 4.73-2.033l41.8 6.625c2.29.384 3.596 2.68 2.29 5.62l-4.983 9.599c-.576 1.109-1.684 1.701-2.783 1.487"/>
        <path fill="#F21942" d="M312.924 75.292l-65.607-10.768c-4.243-1.307-6.765-7.357-4.61-13.844l7.24-7.611c.842-1.636 3.072-3.767 7.096-3.095l65.309 2.625c4.1 2.512 5.73 9.216 3.991 12.308l-9.246 18.127c-.857 1.672-2.519 2.57-4.173 2.258"/>
        <path fill="#FFF" d="M312.301 66.594l-65.607-10.767c-4.242-1.307-4.743-4.614-3.116-7.778l6.834-13.16c.841-1.636 3.071-3.766 7.096-3.095l62.898 9.64c3.448.56 5.428 4.001 3.487 8.433l-7.419 14.47c-.857 1.671-2.519 2.57-4.173 2.257"/>
        <path fill="#07071C" d="M284.158 102.918l-46.105-7.87c-2.98-.943-4.514-4.808-2.973-9.412l4.907-5.827c.598-1.16 2.175-2.666 5.003-2.176l45.927 2.083c2.875 1.8 3.994 6.568 2.76 8.76l-6.575 12.851c-.61 1.185-1.782 1.819-2.944 1.59"/>
        <path fill="#7E838C" d="M282.045 99.091L238.05 91.64c-2.843-.892-4.31-4.543-2.84-8.89l4.679-5.501c.57-1.095 2.074-2.517 4.773-2.053l43.822 1.986c2.744 1.7 3.814 6.205 2.637 8.274l-6.268 12.134c-.581 1.12-1.7 1.717-2.808 1.501"/>
        <path fill="#3B4056" d="M281.628 93.71l-43.995-7.452c-2.843-.892-3.167-3.114-2.065-5.231l4.632-8.809c.57-1.095 2.074-2.517 4.773-2.053l42.18 6.686c2.313.388 3.63 2.704 2.312 5.671l-5.028 9.686c-.582 1.12-1.7 1.717-2.809 1.501"/>
        <path fill="#7E838C" d="M253.772 157.928l-45.308-7.674c-2.927-.918-4.437-4.678-2.925-9.155l4.82-5.665c.587-1.128 2.135-2.593 4.914-2.114l45.13 2.045c2.826 1.751 3.928 6.39 2.716 8.521l-6.455 12.496c-.598 1.153-1.75 1.769-2.892 1.546"/>
        <path fill="#3B4056" d="M253.372 151.915l-45.307-7.674c-2.928-.919-3.263-3.207-2.127-5.387l4.77-9.072c.588-1.128 2.136-2.592 4.915-2.114l43.44 6.885c2.38.4 3.737 2.785 2.38 5.841l-5.179 9.975c-.598 1.152-1.75 1.768-2.892 1.546"/>
        <path fill="#07071C" d="M252.525 37.246L248.07 48.73a.507.507 0 0 0 .376.681l7.181 1.388c.24.047.48-.085.568-.314l.53-1.37a.507.507 0 0 0-.362-.678l-4.543-1.012a.507.507 0 0 1-.361-.68l.874-2.228a.506.506 0 0 1 .58-.31l3.98.879a.505.505 0 0 0 .578-.304l.495-1.215a.507.507 0 0 0-.359-.686l-3.654-.806a.507.507 0 0 1-.363-.679l.704-1.806a.505.505 0 0 1 .564-.313l4.203.78a.506.506 0 0 0 .537-.255l.502-.923a.507.507 0 0 0-.354-.74l-6.66-1.208a.505.505 0 0 0-.561.315M262.313 39.221l-4.721 11.339c-.121.29.048.62.354.689l1.757.399a.506.506 0 0 0 .585-.317l1.848-4.952c.184-.492.903-.413.975.108l.782 5.625a.507.507 0 0 0 .37.419l1.422.385a.505.505 0 0 0 .603-.304l4.601-11.728a.507.507 0 0 0-.382-.684l-1.614-.29a.506.506 0 0 0-.563.32l-1.667 4.413c-.185.49-.901.41-.974-.11l-.68-4.866a.507.507 0 0 0-.408-.428l-1.729-.32a.505.505 0 0 0-.559.302M286.036 43.49l-.523 1.354a.506.506 0 0 0 .373.68l2.184.434a.507.507 0 0 1 .374.679l-3.505 9.135a.507.507 0 0 0 .386.682l1.758.304a.506.506 0 0 0 .562-.328l3.35-9.346a.506.506 0 0 1 .56-.329l2.106.354a.505.505 0 0 0 .556-.317l.529-1.369a.507.507 0 0 0-.372-.68l-7.766-1.567a.505.505 0 0 0-.572.314M305.906 47.35l-3.89 11.66a.507.507 0 0 0 .359.652l1.58.389a.506.506 0 0 0 .6-.332l3.89-11.66a.506.506 0 0 0-.359-.651l-1.58-.39a.506.506 0 0 0-.6.332M315.994 52.693c-.373 1.68-2.637 1.087-3.617.745a.507.507 0 0 1-.32-.622l.619-2.115a.506.506 0 0 1 .558-.359c.962.138 3.14.64 2.76 2.351m-5.499-4.616l-3.744 12.015a.507.507 0 0 0 .382.648l1.498.302c.25.05.499-.093.58-.336l1.553-4.643a.507.507 0 0 1 .658-.314c1.535.567 6.222 1.86 7.09-3.056.84-4.748-5.876-4.985-7.54-4.971a.504.504 0 0 0-.477.355M301.316 49.588c-.464 1.364-2.9.789-3.965.463a.506.506 0 0 1-.33-.652l.615-1.754a.504.504 0 0 1 .53-.336c.679.073 2.047.293 2.766.904.392.282.608.64.45 1.092-.013.09-.032.184-.066.283m-5.307-4.19l-4.62 11.547a.506.506 0 0 0 .377.686l1.48.275a.505.505 0 0 0 .56-.302l1.815-4.343a.5.5 0 0 1 .554-.304c.518.103 1.37.509 1.671 2.039l.431 3.474c.03.241.227.427.469.444l1.74.115a.506.506 0 0 0 .53-.595l-.856-4.748a.502.502 0 0 1 .461-.594c.967-.056 2.843-.634 3.114-4.233.275-3.65-5.761-3.798-7.266-3.779a.502.502 0 0 0-.46.318M276.987 47.822c-1.018 3.437-3.528 3.415-4.664 3.21a.505.505 0 0 1-.38-.675l2.197-5.921a.503.503 0 0 1 .531-.328c.951.116 3.207.707 2.316 3.714m-4.4-6.765l-4.536 11.921c-.1.266.033.56.3.657 1.76.636 7.906 2.362 10.407-3.47 3.07-7.16-1.217-9.189-5.673-9.436a.507.507 0 0 0-.498.328"/>
    </g>
</svg>
