<svg xmlns="http://www.w3.org/2000/svg" width="18" height="18" viewBox="0 0 18 18">
    <path fill="#8ADEFF" fill-rule="evenodd" d="M9.528 14.202H7.663v-1.295a1.39 1.39 0 01-.466-1.036 1.399 1.399 0 112.797 0c0 .413-.182.78-.466 1.036v1.295zm-3.73-6.527V5.663a2.8 2.8 0 012.797-2.798c1.157 0 2.056.804 2.578 1.71.335.582.823.703 1.275.58.451-.123.668-.693.514-1.127C12.329 2.238 10.592 1 8.595 1a4.668 4.668 0 00-4.662 4.663v2.27A1.86 1.86 0 003 9.54v5.595C3 16.164 3.836 17 4.865 17h7.46a1.867 1.867 0 001.865-1.865V9.54a1.867 1.867 0 00-1.865-1.865H5.798z"/>
</svg>
