<svg xmlns="http://www.w3.org/2000/svg" width="40" height="40" viewBox="0 0 40 40">
    <g fill="none" fill-rule="evenodd">
        <path fill="#8C99AC" d="M11.435 26.49v10.866c.723.377 1.474.701 2.247.99l-.196-14.619c-.716.397-1.43 3.346-2.051 2.762"/>
        <path fill="#1381E5" d="M15.565 11.075c.448-.54.665-1.17.665-1.926 0-.649-.168-1.151-.512-1.536-.331-.37-1.04-.558-2.108-.558h-1.722v4.797h.88c1.429 0 2.37-.262 2.797-.777"/>
        <path fill="#1381E5" d="M16.835 0c-.624.122-1.238.275-1.84.452l.032.033-.53.119a20.038 20.038 0 0 0-12.906 13l.171.82-.31-.31A19.77 19.77 0 0 0 1 16.065L11.387 26.45c.014.015.033.025.047.039a1.921 1.921 0 0 0 2.248.276c.153-.085.3-.185.431-.315l2.54-2.54a3.288 3.288 0 0 1-.334-.655c-.221-.644.924-1.77 1.356-2.768l-.623.624.893-1.544c.104-.596.131-1.27.553-2.763.62-2.196 4.822-4.956 6.118-5.678.061-.035.128-.056.19-.087-.026-.052.092-.243.252-.475.063.094.12.193.171.295.71-.245 1.487-.314 2.133-.332L16.835 0z"/>
        <path fill="#FFF" d="M12.75 24.52c.576 0 1.118-.226 1.525-.633l3.4-3.4c.008-.016.018-.034.024-.05.134-.323.198-.589.246-.87l-3.994 3.995a1.69 1.69 0 0 1-1.201.498c-.453 0-.88-.177-1.2-.498l-9.96-9.959c-.052.168-.09.342-.139.511l9.774 9.773c.407.407.948.632 1.525.632M24.806 11.039c.138-.066.278-.13.423-.18a2.123 2.123 0 0 0-.402-.574L14.995.452c-.168.05-.334.099-.499.152L24.502 10.61c.127.126.224.274.304.429"/>
        <path fill="#FFF" d="M13.57 5.126c1.475 0 2.499.15 3.125.46a3.178 3.178 0 0 1 1.444 1.396c.314.602.475 1.304.475 2.084 0 1.328-.459 2.458-1.364 3.358-.904.9-2.25 1.356-3.999 1.356h-1.363v4.968a.295.295 0 0 1-.294.295h-1.74a.295.295 0 0 1-.295-.295V5.42c0-.162.131-.294.295-.294zm.04 1.929h-1.722v4.797h.88c1.429 0 2.37-.262 2.797-.778.447-.54.665-1.169.665-1.925 0-.649-.168-1.152-.512-1.536-.331-.37-1.04-.558-2.108-.558z"/>
        <path fill="#FFC300" d="M33.999 27.83c1.702.055 3.232-4.604 3.646-2.965l-.152-.732c-.355-1.722-1.737-2.788-3.602-3.034 0 0-2.042-.446-4.136-.556 0 .282-2.954 4.935-2.936 5.235C28.97 25.87 34 27.83 34 27.83z"/>
        <path fill="#303D51" d="M36.226 25.105l-.048.113-.12.283-.155.366c-.084.197-.162.396-.245.593-.088.212-.175.443-.366.604a1.17 1.17 0 0 1-1.057.244c-.013-.003.24.052.225.05l-3.017-.668c-.52-.116-.858-.575-.756-1.024l.673-1.872c.181-.567.652-.882 1.17-.765l3.116.986c.518.116.682.64.58 1.09"/>
        <path fill="#303D51" d="M29.79 21.425c.007.13.009.254.02.388l.006-.001-6.074 2.94-3.077 9.231c.6-.016 11.42-5.601 12.01-5.313.453-.01.874-.014 1.216-.008 1.943.033 3.11.644 3.811 1.399.267-.434.521-.874.754-1.328l-.765-3.712c-.011-.053-.033-.103-.046-.155-.414-1.64-1.886-2.567-3.557-2.878 0 0-2.15-.47-4.299-.563z"/>
        <path fill="#303D51" d="M24.405 30.139a4.01 4.01 0 0 1 1.603-.954l-.928-4.469c-.041-.055-.067-.097-.067-.097l-.135-.446c-.003-.005.353-1.163.35-1.168-.453-.899-1.914-1.057-2.511-1.33-.224.026-2.874 6.471-3.304 6.342l-.42.91 1.648 7.987c.174-.199.36-.387.556-.57a.03.03 0 0 1-.01-.004s-1.847-4.01 2.93-6.092c.093-.041.194-.071.288-.109z"/>
        <path fill="#515E75" d="M27.715 25.284c-1.782.327-2.449-.319-2.634-.567l.927 4.469c.227-.075.466-.137.722-.184l3.75-.743c.137-.024.273-.022.409-.026l-1.035-4.983.004.132s.032 1.502-2.143 1.902"/>
        <path fill="#FFC300" d="M19.739 38.208c.091.163.707.71 1.411 1.391 5.598-.134 10.615-2.565 14.164-6.39-3.59.345-8.407 1.169-11.628 2.153-.15.222-.295.382-.426.419-1.02 1.275-.77 1.039-2.063.564a7.653 7.653 0 0 0-.567.583c-.338.387-.64.8-.876 1.253l-.015.027"/>
        <path fill="#515E75" d="M34.049 28.565c-.342-.006-1.607.05-1.523.097-.34-.017-1.552-.041-1.858 0 0 0-6.656 1.512-6.899 1.76-4.03 1.65-3.104 5.148-2.626 5.813.047.067.043.106.043.106.162-.199 1.458-.63 2.5-.979 3.222-.984 8.037-1.808 11.628-2.152l.11-.121c.526-.631 1.078-1.498 1.176-1.414.394-.519.76-1.057 1.103-1.614-.702-.755-1.71-1.463-3.654-1.496z"/>
        <path fill="#EDA420" d="M19.739 38.208a6.685 6.685 0 0 0-.491 1.345c.47.033.94.07 1.417.07.164 0 .323-.02.485-.024-.704-.68-1.32-1.228-1.411-1.39"/>
        <path fill="#FFC300" d="M30.889 28.233c-.137.004-.272.002-.407.026l-3.752.743a5.419 5.419 0 0 0-.722.184c-.644.21-1.173.53-1.602.953-.564.556-.961 1.287-1.222 2.181 0 0-.306 1.938-1.998 4.02a.05.05 0 0 1 .011.005c1.294.475 1.042.71 2.063-.564.13-.037.277-.197.426-.419.528-.79 1.08-2.408 1.08-2.408.46-1.435.685-2.212 2.186-2.554l3.223-.709c2.312-.314 3.727 2.298 5.25 3.397.411-.453.804-.923 1.174-1.413-1.243-1.065-2.566-2.34-3.924-3.005-.59-.288-1.186-.454-1.786-.437"/>
        <path fill="#303D51" d="M25.08 24.717c.187.248.853.894 2.634.567 2.176-.399 2.144-1.903 2.144-1.903l-.004-.13-.038-1.44-.006.001c.006.063.004.118.01.18-.043.119.275 1.544-1.623 2.602-1.006.56-2.923.317-3.319-.422l.136.447s.025.042.066.098"/>
        <path fill="#515E75" d="M35.645 24.015l-3.116-.986c-.518-.117-.988.198-1.17.765l-.673 1.872c-.101.45.237.908.756 1.024l3.019.668-.226-.05c.53.139.912-.123 1.056-.244.192-.161.28-.392.368-.604.083-.197.16-.396.244-.593l.155-.366.12-.283.048-.113c.101-.45-.062-.974-.58-1.09"/>
        <path fill="#DBB127" d="M32.958 24.01c.048.014.1-.002.131-.042l.155-.187a.126.126 0 0 0-.062-.203l-.539-.15a.128.128 0 0 0-.132.042l-.155.187a.127.127 0 0 0 .065.204l.537.15zM34.313 24.38c.048.014.1-.002.131-.041l.155-.188a.126.126 0 0 0-.062-.202l-.539-.15a.128.128 0 0 0-.132.041l-.155.188a.127.127 0 0 0 .065.203l.537.15zM35.192 24.253a.127.127 0 0 0-.133.042l-.155.187a.126.126 0 0 0 .064.202l.538.151a.126.126 0 0 0 .132-.042l.155-.188a.127.127 0 0 0-.064-.203l-.537-.15zM32.564 24.744c.049.014.1-.003.133-.042l.154-.187a.126.126 0 0 0-.063-.203l-.538-.15a.13.13 0 0 0-.133.04l-.155.19a.127.127 0 0 0 .065.203l.537.15zM33.92 25.115c.048.013.1-.003.132-.042l.155-.188a.127.127 0 0 0-.064-.203l-.538-.15a.13.13 0 0 0-.133.041l-.154.19a.127.127 0 0 0 .064.202l.538.15zM34.798 24.987a.127.127 0 0 0-.132.04l-.155.19a.126.126 0 0 0 .063.202l.539.15c.048.014.1-.003.132-.042l.154-.187a.127.127 0 0 0-.064-.203l-.537-.15zM31.856 24.896a.127.127 0 0 0-.132.042l-.154.187a.125.125 0 0 0 .063.202l.538.151c.048.013.1-.003.132-.042l.155-.188a.127.127 0 0 0-.064-.203l-.538-.15zM33.75 25.417l-.538-.15a.125.125 0 0 0-.133.04l-.154.188a.127.127 0 0 0 .063.204l.538.15c.048.014.1-.003.132-.042l.155-.187a.127.127 0 0 0-.064-.203M34.404 25.72a.125.125 0 0 0-.131.042l-.155.188a.125.125 0 0 0 .063.202l.538.151c.048.013.1-.003.132-.042l.155-.188a.127.127 0 0 0-.064-.203l-.538-.15zM31.463 25.63a.125.125 0 0 0-.132.04l-.155.19a.126.126 0 0 0 .063.202l.538.15c.049.014.1-.003.133-.042l.155-.187A.127.127 0 0 0 32 25.78l-.537-.15zM32.819 26a.126.126 0 0 0-.133.041l-.154.19a.126.126 0 0 0 .063.201l.539.151a.126.126 0 0 0 .13-.042l.156-.188a.127.127 0 0 0-.065-.203L32.82 26zM34.01 26.455a.125.125 0 0 0-.13.04l-.155.19a.126.126 0 0 0 .063.201l.538.151c.048.014.099-.003.132-.042l.155-.188a.127.127 0 0 0-.064-.203l-.538-.15z"/>
        <path fill="#FFC300" d="M17.1 24.149s4.523 1.007 4.591.603c.067-.404 2.695-3.042 4.103-5.128 1.407-2.085 1.685-1.327 3.077-2.051 1.39-.724 2.132-3.939 3.077-4.103.943-.163.037-3.977.037-3.977s-.32-.26-1.156.13c0 0-1.663.811-2.251.878-.23.026-.677.01-1.216.026-.646.019-1.423.088-2.133.332-.146.05-.285.114-.423.18-.062.031-.129.052-.19.086-1.296.723-5.498 3.483-6.118 5.68-.422 1.492-.45 2.165-.553 2.762a3.862 3.862 0 0 1-.245.87c-.007.017-.018.034-.024.05-.432.997-1.578 2.124-1.357 2.769.073.209.198.438.333.654.129.204.266.396.38.547 0-.117.02-.222.068-.308"/>
        <path fill="#49586D" d="M37.709 9.351c.023-.015.038-.039.06-.055a20 20 0 0 0-.95-1.43c-.008.003-.016.003-.023.007L32.994 9.93c.333.359.72.978.913 1.478l3.802-2.057z"/>
        <path fill="#303D51" d="M33.369 11.716c.04.257.07.48.1.685.085-.05.219-.124.441-.237.17-.087.137-.389-.004-.756a5.219 5.219 0 0 0-.912-1.478c-.2-.215-.38-.339-.484-.281l-.217.122c.364.359.936 1.046 1.076 1.945"/>
        <path fill="#515E75" d="M20.565 27.355c.54.015.984-.024 1.017-.143.414-.841 2.036-4.275 2.26-4.3.597.272.572.348 1.025 1.246.002.005.008.01.011.015.397.738 2.313.981 3.32.42 1.897-1.056 1.579-2.482 1.622-2.6-.006-.062-.004-.118-.01-.18-.01-.134-.013-.258-.021-.388-.017-.3-.034-.599-.034-.882.003-2.79.812-4.682 1.19-5.211.44-.617 2.652-1.66 2.652-1.66s-.015-.412-.129-1.272c-.029-.204-.06-.427-.1-.685-.139-.898-.711-1.585-1.075-1.944-.178-.176-.308-.278-.308-.278s-1.739 1.16-2.684 1.323c-.945.164-2.747-.256-4.139.467-1.39.725-3.88 2.763-5.287 4.848-1.406 2.085-.713 3.706-.781 4.11-.067.405-1.994 3.908-1.994 3.908a.636.636 0 0 0-.068.308c.001.335.18.774.418 1.196.473-.711 3.416.467 3.19 1.566l-.075.136z"/>
        <path fill="#303D51" d="M21.86 20.598c.619.096 2.882-.004 5.512-2.464 2.659-2.43 2.49-4.549 2.414-5.124-.122-.94-2.006-1.39-2.646-1.428-1.917.012-3.978 2.043-3.978 2.043s-2.803 2.305-2.979 4.227c-.016.645.517 2.566 1.676 2.746"/>
        <path fill="#8C99AC" d="M26.788 12.637c-.487-.08-.736.121-1.034.36-.342.275-1.947 1.752-1.947 1.752s-1.562 1.442-1.861 1.766c-.257.281-.476.516-.433 1.011.042.496.328 2.47 1.42 2.32 2.963-.412 5.826-3.644 6.044-5.608.122-1.105-1.7-1.52-2.189-1.601"/>
        <path fill="#49586D" d="M19.519 27.83c-.025-.007.189-.118.165-.126.128-.317-.136-.97-.82-1.319-.583-.296-1.07.234-1.26.395l-2.325 5.039a.829.829 0 0 0 .34 1.123l.446.238a.83.83 0 0 0 1.123-.34l1.796-3.892.009-.022.526-1.096z"/>
        <path fill="#303D51" d="M19.378 28.112c.43.13.811.049.903-.158.208-.47.222-.49.284-.599l.076-.136c.224-1.098-2.718-2.277-3.192-1.566-.28.556-.115.23-.364.74-.064.13.157.388.426.614 0 0 .03-.08.136-.17.19-.163.481-.347 1.097-.094.821.356.762 1.052.634 1.37z"/>
    </g>
</svg>
