<svg xmlns="http://www.w3.org/2000/svg" width="40" height="40" viewBox="0 0 40 40">
    <g fill="none" fill-rule="evenodd">
        <path fill="#919191" d="M11.435 26.49v10.866c.723.378 1.474.702 2.247.99l-.196-14.619c-.716.397-1.43 3.346-2.051 2.762"/>
        <path fill="#1381E5" d="M15.565 11.075c.448-.54.665-1.17.665-1.925 0-.65-.168-1.152-.512-1.537-.331-.37-1.04-.558-2.108-.558h-1.722v4.797h.88c1.429 0 2.37-.261 2.797-.777"/>
        <path fill="#B6B6B6" d="M16.835 0c-.624.122-1.238.275-1.84.452l.032.033-.53.12a20.038 20.038 0 0 0-12.906 13l.171.82-.31-.31A19.77 19.77 0 0 0 1 16.064L11.387 26.45c.014.016.033.025.047.04a1.921 1.921 0 0 0 2.248.275c.153-.085.3-.184.431-.315l2.54-2.54a3.288 3.288 0 0 1-.334-.655c-.221-.644.924-1.77 1.356-2.768l-.623.624.893-1.544c.104-.596.131-1.27.553-2.763.62-2.196 4.822-4.956 6.118-5.678.061-.035.128-.056.19-.087-.026-.051.092-.243.252-.475.063.094.12.193.171.295.71-.245 1.487-.313 2.133-.332L16.835 0z"/>
        <path fill="#FFF" d="M12.75 24.52c.576 0 1.118-.225 1.525-.633l3.4-3.4c.008-.016.018-.033.024-.05.134-.323.198-.588.246-.87l-3.994 3.995a1.69 1.69 0 0 1-1.201.498c-.453 0-.88-.177-1.2-.498l-9.96-9.959c-.052.169-.09.342-.139.511l9.774 9.773c.407.408.948.632 1.525.632M24.806 11.04c.138-.066.278-.13.423-.18a2.123 2.123 0 0 0-.402-.575L14.995.453c-.168.049-.334.098-.499.151L24.502 10.61c.127.127.224.274.304.43"/>
        <path fill="#FFF" d="M18.139 6.982c.314.602.475 1.304.475 2.084 0 1.329-.459 2.458-1.364 3.358-.904.9-2.25 1.356-3.999 1.356h-1.363v4.968a.295.295 0 0 1-.294.295h-1.74a.295.295 0 0 1-.295-.295V5.42c0-.162.131-.294.295-.294h3.715c1.476 0 2.5.15 3.126.46a3.178 3.178 0 0 1 1.444 1.396zm-6.25 4.87h.878c1.43 0 2.372-.262 2.798-.777.447-.54.665-1.17.665-1.926 0-.649-.168-1.151-.512-1.536-.331-.37-1.04-.558-2.108-.558h-1.722v4.797z"/>
        <path fill="#909090" d="M33.999 27.83c1.702.055 3.232-4.604 3.646-2.965l-.152-.732c-.355-1.722-1.737-2.787-3.602-3.034 0 0-2.042-.446-4.136-.556 0 .282-2.954 4.935-2.936 5.235 2.15.093 7.18 2.052 7.18 2.052z"/>
        <path fill="#303D51" d="M36.226 25.105l-.048.113-.12.283-.155.366c-.084.197-.162.396-.245.593-.088.212-.175.443-.366.604a1.17 1.17 0 0 1-1.057.244l.225.05-3.017-.668c-.52-.116-.858-.575-.756-1.024l.673-1.872c.181-.567.652-.882 1.17-.765l3.116.986c.518.116.682.641.58 1.09"/>
        <path fill="#515151" d="M29.79 21.425c.007.13.009.255.02.388l.006-.001-6.074 2.94-3.077 9.231c.6-.016 11.42-5.6 12.01-5.313.453-.01.874-.014 1.216-.008 1.943.033 3.11.644 3.811 1.4.267-.435.521-.875.754-1.33l-.765-3.71c-.011-.054-.033-.103-.046-.156-.414-1.64-1.886-2.567-3.557-2.878 0 0-2.15-.47-4.299-.563z"/>
        <path fill="#515151" d="M24.405 30.14a4.01 4.01 0 0 1 1.603-.955l-.928-4.468c-.041-.056-.067-.098-.067-.098l-.135-.446c-.003-.005.353-1.163.35-1.168-.453-.898-1.914-1.057-2.511-1.33-.224.026-2.874 6.471-3.304 6.342l-.42.91 1.648 7.988c.174-.2.36-.388.556-.57a.03.03 0 0 1-.01-.005s-1.847-4.01 2.93-6.092c.093-.041.194-.07.288-.109z"/>
        <path fill="#777" d="M27.715 25.285c-1.782.327-2.449-.32-2.634-.568l.927 4.47c.227-.076.466-.137.722-.185l3.75-.743c.137-.024.273-.022.409-.026l-1.035-4.982.004.13s.032 1.504-2.143 1.904"/>
        <path fill="#999" d="M19.739 38.209c.091.163.707.71 1.411 1.39 5.598-.134 10.615-2.565 14.164-6.39-3.59.345-8.407 1.169-11.628 2.153-.15.222-.295.382-.426.419-1.02 1.275-.77 1.039-2.063.564a7.653 7.653 0 0 0-.567.584c-.338.386-.64.8-.876 1.252l-.015.028"/>
        <path fill="#777" d="M34.049 28.565c-.342-.006-1.607.051-1.523.097-.34-.017-1.552-.04-1.858 0 0 0-6.656 1.512-6.899 1.76-4.03 1.65-3.104 5.148-2.626 5.814.047.066.043.105.043.105.162-.199 1.458-.63 2.5-.978 3.222-.985 8.037-1.809 11.628-2.153l.11-.121c.526-.63 1.078-1.498 1.176-1.414.394-.518.76-1.057 1.103-1.614-.702-.755-1.71-1.463-3.654-1.496z"/>
        <path fill="#999" d="M19.739 38.209a6.685 6.685 0 0 0-.491 1.344c.47.033.94.071 1.417.071.164 0 .323-.02.485-.025-.704-.68-1.32-1.227-1.411-1.39M30.889 28.233c-.137.004-.272.002-.407.026l-3.752.743a5.419 5.419 0 0 0-.722.184c-.644.21-1.173.53-1.602.953-.564.556-.961 1.287-1.222 2.181 0 0-.306 1.938-1.998 4.02a.05.05 0 0 1 .011.005c1.294.475 1.042.71 2.063-.564.13-.037.277-.197.426-.419.528-.79 1.08-2.408 1.08-2.408.46-1.435.685-2.212 2.186-2.554l3.223-.708c2.312-.315 3.727 2.297 5.25 3.397.411-.454.804-.923 1.174-1.414-1.243-1.064-2.566-2.34-3.924-3.005-.59-.288-1.186-.454-1.786-.437"/>
        <path fill="#515151" d="M25.08 24.717c.187.248.853.894 2.634.567 2.176-.399 2.144-1.902 2.144-1.902l-.004-.132-.038-1.439-.006.001c.006.063.004.118.01.18-.043.119.275 1.545-1.623 2.602-1.006.561-2.923.317-3.319-.422l.136.448s.025.042.066.097"/>
        <path fill="#717171" d="M35.645 24.015l-3.116-.986c-.518-.117-.988.198-1.17.765l-.673 1.872c-.101.45.237.908.756 1.024l3.019.669-.226-.05c.53.138.912-.124 1.056-.245.192-.16.28-.392.368-.604.083-.197.16-.396.244-.593l.155-.366.12-.283.048-.113c.101-.449-.062-.974-.58-1.09"/>
        <path fill="#929292" d="M32.958 24.01c.048.014.1-.002.131-.042l.155-.187a.126.126 0 0 0-.062-.202l-.539-.151a.128.128 0 0 0-.132.042l-.155.188a.127.127 0 0 0 .065.203l.537.15zM34.313 24.381c.048.013.1-.003.131-.042l.155-.188a.126.126 0 0 0-.062-.202l-.539-.15a.128.128 0 0 0-.132.042l-.155.187a.127.127 0 0 0 .065.203l.537.15zM35.192 24.253a.127.127 0 0 0-.133.042l-.155.188a.126.126 0 0 0 .064.202l.538.15a.126.126 0 0 0 .132-.042l.155-.187a.127.127 0 0 0-.064-.203l-.537-.15zM32.564 24.745c.049.013.1-.003.133-.042l.154-.188a.126.126 0 0 0-.063-.203l-.538-.15a.13.13 0 0 0-.133.041l-.155.189a.127.127 0 0 0 .065.203l.537.15zM33.92 25.115c.048.014.1-.003.132-.042l.155-.188a.127.127 0 0 0-.064-.203l-.538-.15a.13.13 0 0 0-.133.042l-.154.188a.127.127 0 0 0 .064.203l.538.15zM34.798 24.987a.127.127 0 0 0-.132.041l-.155.189a.126.126 0 0 0 .063.202l.539.15c.048.014.1-.003.132-.042l.154-.187a.127.127 0 0 0-.064-.203l-.537-.15zM31.856 24.896a.127.127 0 0 0-.132.042l-.154.188a.125.125 0 0 0 .063.202l.538.15c.048.014.1-.003.132-.042l.155-.187a.127.127 0 0 0-.064-.203l-.538-.15zM33.75 25.417l-.538-.15a.125.125 0 0 0-.133.041l-.154.188a.127.127 0 0 0 .063.203l.538.15c.048.014.1-.003.132-.042l.155-.187a.127.127 0 0 0-.064-.203M34.404 25.72a.125.125 0 0 0-.131.043l-.155.187a.125.125 0 0 0 .063.202l.538.151c.048.014.1-.003.132-.042l.155-.188a.127.127 0 0 0-.064-.203l-.538-.15zM31.463 25.63a.125.125 0 0 0-.132.041l-.155.189a.126.126 0 0 0 .063.202l.538.15c.049.014.1-.002.133-.041l.155-.188A.127.127 0 0 0 32 25.78l-.537-.15zM32.819 26a.126.126 0 0 0-.133.042l-.154.188a.126.126 0 0 0 .063.202l.539.151a.126.126 0 0 0 .13-.042l.156-.188a.127.127 0 0 0-.065-.203L32.82 26zM34.01 26.455a.125.125 0 0 0-.13.04l-.155.19a.126.126 0 0 0 .063.202l.538.15c.048.014.099-.003.132-.042l.155-.187a.127.127 0 0 0-.064-.203l-.538-.15z"/>
        <path fill="#909090" d="M17.1 24.15s4.523 1.006 4.591.602c.067-.404 2.695-3.042 4.103-5.128 1.407-2.085 1.685-1.327 3.077-2.051 1.39-.723 2.132-3.939 3.077-4.103.943-.163.037-3.977.037-3.977s-.32-.26-1.156.13c0 0-1.663.811-2.251.878-.23.027-.677.01-1.216.027-.646.018-1.423.087-2.133.33-.146.051-.285.115-.423.181-.062.031-.129.053-.19.087-1.296.723-5.498 3.483-6.118 5.679-.422 1.492-.45 2.166-.553 2.763a3.862 3.862 0 0 1-.245.87c-.007.016-.018.033-.024.05-.432.997-1.578 2.124-1.357 2.768.073.209.198.438.333.654.129.204.266.396.38.547 0-.117.02-.222.068-.308"/>
        <path fill="#656565" d="M37.709 9.351c.023-.015.038-.038.06-.055a20 20 0 0 0-.95-1.43c-.008.003-.016.003-.023.008L32.994 9.93c.333.359.72.978.913 1.478l3.802-2.057z"/>
        <path fill="#515151" d="M33.369 11.716c.04.257.07.48.1.685.085-.05.219-.124.441-.237.17-.087.137-.389-.004-.756a5.219 5.219 0 0 0-.912-1.478c-.2-.215-.38-.338-.484-.28l-.217.121c.364.36.936 1.046 1.076 1.945"/>
        <path fill="#777" d="M20.565 27.355c.54.015.984-.024 1.017-.143.414-.841 2.036-4.275 2.26-4.3.597.272.572.348 1.025 1.247.002.005.008.009.011.014.397.738 2.313.981 3.32.42 1.897-1.056 1.579-2.482 1.622-2.6-.006-.062-.004-.118-.01-.18-.01-.133-.013-.258-.021-.388-.017-.3-.034-.599-.034-.882.003-2.79.812-4.682 1.19-5.211.44-.617 2.652-1.66 2.652-1.66s-.015-.412-.129-1.271c-.029-.204-.06-.428-.1-.686-.139-.898-.711-1.585-1.075-1.944-.178-.176-.308-.278-.308-.278s-1.739 1.16-2.684 1.323c-.945.164-2.747-.255-4.139.468-1.39.724-3.88 2.762-5.287 4.847-1.406 2.085-.713 3.707-.781 4.11-.067.405-1.994 3.908-1.994 3.908a.636.636 0 0 0-.068.308c.001.335.18.774.418 1.196.473-.71 3.416.468 3.19 1.566l-.075.136z"/>
        <path fill="#515151" d="M21.86 20.598c.619.096 2.882-.004 5.512-2.464 2.659-2.43 2.49-4.548 2.414-5.124-.122-.94-2.006-1.39-2.646-1.427-1.917.01-3.978 2.043-3.978 2.043s-2.803 2.304-2.979 4.226c-.016.645.517 2.566 1.676 2.746"/>
        <path fill="#9B9B9B" d="M26.788 12.637c-.487-.08-.736.121-1.034.36-.342.275-1.947 1.752-1.947 1.752s-1.562 1.442-1.861 1.766c-.257.281-.476.516-.433 1.011.042.496.328 2.47 1.42 2.32 2.963-.412 5.826-3.644 6.044-5.608.122-1.104-1.7-1.52-2.189-1.6"/>
        <path fill="#656565" d="M19.519 27.83c-.025-.007.189-.118.165-.126.128-.317-.136-.969-.82-1.319-.583-.296-1.07.234-1.26.395l-2.325 5.039a.829.829 0 0 0 .34 1.123l.446.238a.83.83 0 0 0 1.123-.34l1.796-3.892.009-.021.526-1.097z"/>
        <path fill="#515151" d="M19.378 28.112c.43.13.811.049.903-.157.208-.471.222-.492.284-.6l.076-.136c.224-1.098-2.718-2.277-3.192-1.566-.28.556-.115.23-.364.74-.064.13.157.388.426.615 0 0 .03-.081.136-.172.19-.162.481-.346 1.097-.093.821.356.762 1.052.634 1.37z"/>
    </g>
</svg>
