<svg xmlns="http://www.w3.org/2000/svg" width="360" height="121" viewBox="0 0 360 121">
    <g fill="none" fill-rule="evenodd">
        <path fill="#DFE7EA" d="M360 120.496H0V11.9C0 5.329 5.373 0 12 0h336c6.627 0 12 5.329 12 11.9v108.596z"/>
        <path fill="#A9E3F7" d="M106.165 119.237l-.256-.296c-7.876-1.579-13.663-4.036-18.817-6.227-1.431-.608-2.817-1.197-4.188-1.741-21.196-6.627-41.271 1.648-51.192 7.046l.52 2.477h87.225c-4.941-.197-9.244-.724-13.055-1.46l-.237.2M236.94 94.595c-16.114 1.259-35.815 7.54-54.99 13.666-16.846 5.38-32.76 10.462-44.917 11.645-2.03.198-3.97.344-5.843.453l-.022.137h54.133c18.86-6.817 37.493-12.85 52.976-13.966l-1.337-11.935zM239.435 94.424l1.339 11.944-.364.04c1.615-.07 3.2-.088 4.739-.037 18.118.58 35.39 6.569 49.257 14.125h21.221c-20.337-15.585-43.605-24.319-69.487-26.03-2.142-.143-4.382-.148-6.704-.042"/>
        <path fill="#B4EF95" d="M146.572 61.927c-.917.262-1.543.838-1.92 1.287l10.587 6.342 1.919-2.608-6.163-4.075c-1.654-.983-3.153-1.309-4.423-.946"/>
        <path fill="#B4EF95" d="M146.132 60.505c1.693-.49 3.6-.117 5.664 1.112l6.247 4.13 4.99-6.782c-7.455-3.486-15.38-7.2-23.497-11.011l-2.16-.976-9.183 6.373 15.164 9.086c.493-.638 1.386-1.53 2.775-1.932M134.004 69.396c.647.429 1.646 1.073 2.827 1.832l5.48-7.33.164-.252-7.103-4.255-9.585 5.28c2.48 1.022 5.19 2.541 8.217 4.725M35.379 93.575l4.409-1.682c2.034-.853 4.585-1.921 7.492-3.135l-4.848-4.997-10.654 5.744 3.6 4.07zM30.518 90.335l-.059.382.956.63zM101.139 71.012l.768-.667a18.62 18.62 0 0 1 .067-2.282c-3.387 1.284-8.031 3.123-13.31 5.252l.853.485c1.302.664 3.098 1.585 5.199 2.672l6.423-5.46zM87.005 72.375l2.062-.83-2.352.666.29.164zM74.652 94.492c-1.055.743-2.17 1.53-3.322 2.346l11.124 11.118 3.297-2.372-11.1-11.092zM57.482 106.718c6.993-.992 14.643-.97 22.53.91l-9.918-9.914c-4.087 2.9-8.56 6.094-12.612 9.004M146.66 16.728c-.513.524-4.264 4.462-5.805 8.678l7.392 1.834-.138.548a646.412 646.412 0 0 0 5.752-9.728 91.414 91.414 0 0 0-7.12-1.393l-.081.06zM141.887 37.47c1.318-1.742 3.534-5.26 5.72-8.855l-7.175-1.78c-.02.088-.048.176-.066.263-.826 4.098-2.54 9.926-7.79 14.84l2.267 1.065c1.586-.915 5.271-3.187 7.044-5.532M278.512 80.247l-11.914 14.604.065.023c4.1.906 8.125 2.004 12.076 3.292l8.113-13.22-8.34-4.699zM288.156 85.681l-7.964 12.975a125.815 125.815 0 0 1 10.55 4.12c1.105-1.706 3.787-5.996 6.74-11.84l-9.326-5.255zM304.621 35.02l-23.142 5.218 26.286 4.17c-.6-3.254-1.619-6.408-3.144-9.388M192.595 58.13l-8.357-3.522-6.056-2.31.139-.183-14.15-5.964-1.73 2.787 27.624 12.329zM256.264 65.574l-6.327-7.417-6.14-6.819-4.265 3.173zM192.105 102.441c5.937-1.852 11.85-3.624 17.633-5.175l-12.594-1.825-5.04 7zM164.016 60.153l-2.79 3.79c1.3.73 5.302 2.997 7.179 4.293l1.068-6.263c-.044-.018-.087-.04-.131-.06l-5.326-1.76zM207.184 56.724l13.385 4.425 7.449-5.277-9.25-3.618-9.354-3.275zM58.797 37.95l-.29-.33 5.339-4.597L44.28 22.16l-5.07 6.208 19.308 9.574zM231.106 15.231l-.787-.483-18.792-10.65-5.117 6.766 24.286 12.616c.43-1.07 1.202-5.418.41-8.249M232.003 24.155l-.002.003.002.001v-.004zM304.127 29.45c.842 1.159 1.584 2.385 2.271 3.644l1.346-.303 8.62-2.138c-3.678-7.447-7.87-12.123-9.21-13.516a849.56 849.56 0 0 0-12.377 2.515c3.512 2.899 6.703 6.15 9.35 9.797"/>
        <path fill="#C7D4D8" d="M194.625 46.672l-9.751-3.223-5.626 7.439 14.105 5.945 1.185-1.764.087-8.397M184.237 54.608l-5.917-2.494-.139.185zM219.453 87.698l8.924 2.211v-2.576c-5.359-1.235-10.156-3.277-13.683-4.782l-.272-.117a65.126 65.126 0 0 0-1.478 7.513l5.394 1.07 1.115-3.32zM229.492 73.317h5.063l-1.115-9.956h-3.948zM241.763 77.742l8.923-1.106v-3.32l-8.923 1.106zM259.61 61.149l3.346 2.211.78-.386c.17-.597.322-1.164.463-1.698l-2.359-2.34-2.23 2.213zM160.334 84.379l2.231-3.319-6.692-3.318-2.231 3.318zM179.564 74.675l4.472-5.915a7905.19 7905.19 0 0 1-11.44-5.328l-1.107 8.78 8.075 2.463zM190.082 71.563c-1.491-.69-3.05-1.413-4.658-2.16l-4.337 5.736 4.903 1.497 4.092-5.073zM334.546 83.658l15.606 7.398L352 82.81l-16.043-7.386a99.05 99.05 0 0 1-1.25 6.958l-.161 1.276zM174.835 43.448l2.231-3.318 2.637.872 2.118-3.199-4.882-1.909-4.335 6.449zM83.368 77.742l-6.224 3.086 11.612 10.607 7.998-5.95zM115.716 98.76l-2.23-1.106-5.578 8.85 2.231 1.106 2.231-3.32 4.846 2.885a160.32 160.32 0 0 0 1.807-1.801l-5.538-3.295 2.231-3.319zM180.413 103.185l-1.116-3.32-5.273 1.636-12.375 5.078.863 5.135c2.52-.742 5.095-1.528 7.71-2.344l-.964-2.866 11.155-3.319zM275.226 41.236l-5.577-1.106-1.115 2.213-5.578-1.107-1.115 3.32 11.155 3.318zM335 39.174l6-1.984-1.529-4.707 4.237-.953-.562-4.477L332 29.256zM305.36 71.473l-3.649-1.73-.83 2.468-8.923-4.425-1.52 3.765 12.452 7.193a102.36 102.36 0 0 0 2.47-7.271M289.727 75.53l-2.23-1.107-4.462 6.638 2.23 1.105 1.115-2.212 2.232 1.107 1.598-1.585.443-.722-2.041-1.013zM314.505 91.955l-2.86-1.418-1.442 2.86-5.766-2.86 1.442-2.859-2.884-1.43-2.388 4.737 11.226 6.327 2.415-4.788c.086-.186.17-.381.257-.569M269 31.24l7-2.976-2.706-3.578c-2.883.803-5.181 1.551-6.434 2.172a28.65 28.65 0 0 0-1.236.653c.539.651 1.268 1.516 2.128 2.491L269 31.24zM285.265 19.112l-13.385-4.425-5.578 3.318 8.449 3.725c3.044-.803 6.505-1.633 10.013-2.432l.5-.186zM243.993 12.474l6.692-4.425 6.694 3.32 3.345-3.32-12.269-4.425-8.924 6.638zM210.53 39.023l-7.809 1.107.125.495 2.02 3.785 6.78-.961zM36.583 38.87l-15.896-.407-.349 6.91h17.498c-.203-2.31-.61-4.52-1.253-6.504M164.796 34.599l-4.91-1.948-2.277 3.3 4.956 1.966zM120.178 30.174l-5.813-2.882-3.75 3.558 6.217 2.642zM105.99 32.18l-4-1.883 3.687 2.09.312-.207zM99.684 26.462l8.733 4.113.607-.4.09.038 3.826-3.628-8.378-4.154-4.878 4.031zM92.292 33.492l6.693 4.426 2.231-2.213-6.693-4.425zM74.445 64.467v-3.319h8.83c.015-.236.035-.472.04-.71.036-1.351-.067-2.6-.237-3.715h-8.633v-3.979l-4.91.15-.667 4.403v7.17h5.577zM91.177 46.767v-3.319H87.83v2.213h-5.577v4.366l18.963-.574v-2.686zM74.514 14.596l6.783 3.199 3.187-4.215-5.615-2.784-.526.006-3.77 3.714-.06.08zM30 82.81l7.118-4.524-5.791-5.967-2.158.795-6.179 2.724zM33.378 72.286l.774.799-.625-.93c-.05.043-.098.09-.149.131M128 88.76l9.604 4.764 5.869-7.976L133 80.826zM48 95.702l6 5.95 4.185-1.66-9.788-10.084c-3.114 1.3-5.835 2.438-7.98 3.337L44 97.686l4-1.984z"/>
        <path fill="#F5FBFF" d="M351.425 22.944l-20.708 4.668 9.265-15.718 11.443 11.05zm5.372 44.13l-.071-.018-7.368-2.527-4.83-38.505 7.95-1.792 4.319 42.843zm-19.88-5.118c.074-13.012-2.284-23.916-5.79-32.911l11.933-2.69.087.698.56 4.477 4.17 33.249-10.96-2.823zm7.48 28.02l-9.012 20.607-8.684-4.892a106.76 106.76 0 0 0 7.384-20.602l10.312 4.887zm7.23 3.648l-7.41 21.937-7.521-4.239 8.97-20.513 5.96 2.815zm7.442 3.307l-8.008 22.486-5.516-3.107 7.509-22.23 6.015 2.851zm-34.542 7.534l-10.45-5.888a92.73 92.73 0 0 0 7.737-19.305l9.966 4.725a104 104 0 0 1-7.253 20.468zm-12.68-7.144l-.014-.01-11.226-6.325-.253-.142c1.882-3.793 3.829-8.151 5.527-12.822.672-1.85 1.254-3.66 1.793-5.453l11.822 5.603a91.584 91.584 0 0 1-4.991 13.784c-.086.187-.171.382-.257.568a90.367 90.367 0 0 1-2.4 4.797zm-8.042 12.19a126.943 126.943 0 0 0-10.771-5.684c1.236-1.916 3.82-6.094 6.65-11.65l11.446 6.45c-3.241 5.788-6.186 9.524-7.325 10.883zm-23.612-10.854l7.963-12.975 9.327 5.255c-2.954 5.843-5.635 10.133-6.742 11.84a125.454 125.454 0 0 0-10.548-4.12zm-13.53-3.783l-.072-.016.007-.008 11.914-14.603 8.34 4.7-8.114 13.22a127.51 127.51 0 0 0-12.075-3.293zm-11.604-2.018l7.144-14.17 10.19 5.117-8.552 10.484a133.62 133.62 0 0 0-8.782-1.431zm-8.752-.864c-2.286-.15-4.675-.154-7.148-.035l-.401-3.58c7.13-.345 14.454-3.209 20.66-11.09l1.447.726-7.381 14.642a141.32 141.32 0 0 0-7.177-.663zm-7.824-6.075l-3.04-27.132 26.06 10.573c-.561 1.273-1.176 2.423-1.833 3.293-6.16 9.6-13.748 12.918-21.187 13.266zm-26.474 10.746l.034-.115h.353c0-.07.015-2.707.549-6.6a64.893 64.893 0 0 1 1.477-7.514l.273.117c3.526 1.505 8.324 3.547 13.682 4.782 2.523.581 5.168.978 7.867 1.058l.419 3.739c-7.616.604-15.96 2.281-24.654 4.533zm-16.274-5.399l-.066.089c.02-2.276.09-9.208.172-17.13 8.312 3.826 13.9 6.346 15.365 6.89.534.2 1.134.444 1.786.716-1.65 6.242-2.003 11.658-2.076 13.78l-15.181-4.345zm14.003 6.002c-5.784 1.551-11.697 3.323-17.633 5.175-1.203.376-2.406.754-3.61 1.134l7.829-10.593 14.216 4.069c-.266.07-.534.144-.802.215zm-28.555 8.634a1532.043 1532.043 0 0 1-10.961 3.47 508.255 508.255 0 0 1-7.711 2.344c-9.588 2.822-18.397 5.011-25.723 5.724-.694.069-1.373.127-2.05.184l26.91-11.043 12.376-5.078 20.302-8.332-7.891 10.678.364.265c-1.875.595-3.748 1.192-5.616 1.788zm-48.605 4.035c.244-2.662.194-4.95-.128-6.987l2.39-3.16 14.464 10.246-17.634 7.237c.383-2.597.703-5.1.908-7.336zm-16.302-23.346c-12.822-6.358-12.143-16.428-11.732-19.005l38.982 17.892-.053.072-5.868 7.975-3.526 4.79-2.042 2.701c-1.738-6.352-6.824-9.993-15.761-14.425zm13.813 23.12c-.23 2.5-.605 5.343-1.054 8.277-8.065.349-14.648-.118-20.202-1.044 6.624-5.766 16.678-15.04 18.568-19.74 2.449 3.129 3.203 6.886 2.688 12.508zm-42.012.727a191.834 191.834 0 0 0-4.131-1.715l29.032-20.885c5.967 3.262 10.763 6.025 12.554 7.375.265.24.507.483.748.728.372.986-2.492 4.602-7.257 9.435-.575.584-1.178 1.185-1.806 1.802-2.95 2.895-6.456 6.12-10.275 9.426-7.947-1.53-13.73-3.985-18.865-6.166zm-5.623-2.48L71.33 96.84a1619.02 1619.02 0 0 1 3.322-2.347l11.099 11.092-3.297 2.372zm-24.972-1.238c4.053-2.91 8.526-6.105 12.612-9.003l9.919 9.914c-7.888-1.881-15.538-1.902-22.531-.91zm-9.135 1.907l.194-.17-12.011-13.58 3.888-1.63c2.144-.899 4.865-2.037 7.979-3.337l9.788 10.085 2.507 2.584a3738.85 3738.85 0 0 0-6.528 4.69c-2.008.384-3.95.842-5.817 1.358zm-22.108 9.719l4.22-27.627.059-.382.897 1.014 15.614 17.65c-9.658 2.847-17.128 7.044-20.79 9.345zm-7.194-41.5l10.125-3.73 2.157-.795 5.79 5.967 3.516 3.622-10.677 5.756-10.911-10.82zm-5.606 19.722l-2.53-16.727 6.589-2.425L28.58 88.405l-15.142 8.161zm-2.38-30.921l6.78-.485-.541 10.74-6.535 2.406.296-12.661zm.223-9.56l7.018-.076-.385 7.655-6.822.487.189-8.066zm8.064 8.968l16.263-1.162c-1.056 2.994-2.396 5.352-3.893 6.55l.093.114-.082.03-.186-.192-.444.424-12.27 4.519.519-10.283zm.457-9.06l17.713-.192c-.325 2.322-.805 4.553-1.41 6.564l-16.684 1.191.38-7.563zm.46-9.134h17.678a47.275 47.275 0 0 1-.237 7.452l-17.826.194.386-7.646zm.424-8.397l15.896.408c.643 1.983 1.05 4.192 1.253 6.502H20.339l.348-6.91zm15.15-5.962l3.374-4.13 5.069-6.209 19.566 10.862-5.338 4.597.289.33-.28-.007-19.79-.506c-.03-.087-.057-.179-.09-.264-.73-1.596-1.677-3.158-2.8-4.673zm17.045-15.71l18.063 10.118-5.896 5.078-19.422-10.78 7.255-4.416zm8.936-5.438c5.308 2.506 11.23 5.301 17.563 8.288l-7.235 6.232L54.343 15.9l7.475-4.548zm14.368-.522l-3.126 3.08-6.277-2.962 9.403-.118zm2.156-.027l.527-.007 10.958-.137c1.622 3.135 2.607 6.201 3.208 8.751a310.991 310.991 0 0 0-5.526 1.314l-6.212-2.928-6.783-3.2-.014-.007.073-.072 3.769-3.714zm6.918-6.816a32.021 32.021 0 0 1 3.752 5.194l-9.14.114 5.388-5.308zm37.719 6.255l.804 3.988c-9.93.802-21.581 3.125-29.291 4.85a40.1 40.1 0 0 0-3.01-8.442l31.497-.396zm1.468 5.43L112.94 26.583l-3.825 3.629-.487.461-.211-.099-8.733-4.113c-1.444-.68-2.878-1.355-4.301-2.027a37.886 37.886 0 0 0-.574-3.901c7.808-1.749 19.682-4.114 29.638-4.863zm24.424-5.755l.132 1.969-3.92 2.915-.122.106a110.495 110.495 0 0 0-14.744-.964c-1.56 0-3.211.062-4.927.175l-.785-3.894 24.366-.307zm2.717 3.146l-.01-.131c5.023-.575 22.318-1.638 37.805 8.231l-8.288 1.494a3.235 3.235 0 0 0-2.312-.97 3.22 3.22 0 0 0-3.221 3.07c-2.673-1.198-12.07-5.386-14.99-6.35-3.06-1.012-7.134-2.119-12.166-2.979l3.182-2.365zm39.789 9.252l8.737 16.371-13.663-5.807-5.093-6.06a3.164 3.164 0 0 0 .66-1.924c0-.302-.056-.59-.135-.867l9.494-1.713zm16.742-8.884l21.26 11.044c-2.361 1.453-7.566 4.45-11.48 6.671l-5.481-1.877-.308.535c-3.73 6.474-10.7 5.542-12.24 5.245l-6.962-13.045 15.21-8.573zm22.779 11.833l14.834 7.706 8.262 10.543-34.213-11.721c3.762-2.14 9.092-5.206 11.117-6.528zm1.105-1.108c.574-1.334 1.126-4.487.893-7.284 2.203 1.87 5.99 4.613 9.882 7.321l-.012.079.159.023a613.738 613.738 0 0 0 12.864 8.672c-1.58 2.522-2.26 5.223-1.935 7.943l-7.138-9.107-14.713-7.644H232c0-.002 0-.003.002-.003zm29.583 2.939c-2.028 1.42-3.683 2.986-4.946 4.647a599.15 599.15 0 0 1-10.354-6.942l15.3 2.295zm2.734 1.19c2.172 2.655 7.85 9.263 12.822 12.327l-2.896 9.84-16.48-5.647c-.687-1.323-1.19-2.61-1.385-3.773-1.01-6.01 4.259-10.44 7.939-12.748zm2.54-1.427c1.253-.62 3.55-1.37 6.434-2.172 2.683-.746 5.87-1.538 9.217-2.322l-4.934 16.769c-3.414-2.213-7.221-6.18-9.825-9.131-.86-.975-1.59-1.839-2.128-2.491a29.21 29.21 0 0 1 1.237-.653zm24.735-6.528c4 3.079 7.61 6.585 10.503 10.568.653.9 1.244 1.822 1.785 2.763l-24.777 5.586 5.082-17.271c2.466-.567 4.98-1.122 7.407-1.646zm15.559-3.192c1.34 1.392 5.532 6.068 9.21 13.515.03.059.059.115.088.175l-8.708 1.963-1.346.303c-.687-1.26-1.43-2.485-2.271-3.645-2.647-3.646-5.838-6.898-9.35-9.797a845.65 845.65 0 0 1 12.377-2.514zm15.403 41.12l-11.701-3.014c.403-7.837-.84-14.827-3.743-20.785l9.99-2.253c3.105 6.758 5.648 15.552 5.454 26.052zm2.187 5.336a64.21 64.21 0 0 0 .236-3.176l9.43 2.43c-.021 1.48-.07 2.984-.158 4.52a94.364 94.364 0 0 1-2.124 15.143l-9.93-4.706a94.222 94.222 0 0 0 2.546-14.211zm-13.966-6.832L322.5 59.78a62.575 62.575 0 0 1-.245 3.567 90.3 90.3 0 0 1-2.375 13.359l-11.775-5.582c1.425-5.038 2.32-9.839 2.672-14.363zm-17.99.803l1.194-5.128 14.324 3.688a63.875 63.875 0 0 1-.927 7.041l-14.591-5.6zm-1.32 5.674l.98-4.21 14.639 5.62a82.702 82.702 0 0 1-1.308 5.373l-14.31-6.783zm-1.03 8.313l-.796-.46 1.48-6.368 10.589 5.019 3.65 1.73a103.726 103.726 0 0 1-2.47 7.272l-12.452-7.193zm3.419 4.842l8.117 4.69a129.781 129.781 0 0 1-3.825 8.517l-9.212-5.19 4.92-8.017zm-8.294-4.79l6.997 4.042-1.907 3.108-.443.722-2.578 4.199-8.164-4.6 6.095-7.47zm-21.726-1.337c1.586-3.616 2.734-8.019 3.299-10.426l16.282 10.448-6.154 7.544-13.427-7.566zm7.687-10.563l-4.427-2.84c-.613-.619-5.187-5.304-8.191-10.094l14.919 5.111-2.301 7.823zm18.213 4.363l-1.452 6.24-2.366-1.366-13.081-8.394 1.159-3.94 15.74 7.46zm1.298-5.58l-.953 4.095-15.66-7.423.808-2.74 15.805 6.067zm1.495-6.424l-1.154 4.96-15.724-6.037.893-3.039 15.985 4.116zm1.85-7.956l-1.513 6.506-15.901-4.095 1.55-5.27c1.567.478 5.542 1.296 15.865 2.86zm13.655 1.975c.392 2.795.492 5.654.36 8.53l-14.075-3.625 1.548-6.657c3.387.507 7.406 1.087 12.167 1.752zm-27.062-5.73l.507-.115 23.14-5.217c1.527 2.981 2.545 6.134 3.145 9.389l.026.137c-9.058-1.275-21.554-3.147-26.818-4.194zm-46.954-2.108l21.356 7.316c2.66 5.338 7.933 10.983 9.565 12.662a86.479 86.479 0 0 1-1.204 4.752c-.548 1.919-1.247 4.072-2.062 5.988l-27.655-30.718zm8.723 11.923l1.055 1.171 6.14 6.82 6.949 7.719-21.28-8.633 7.136-7.077zm-8.655 6.479L205.41 45.43l-.545-1.02-2.02-3.785-2.118-3.97c2.799.257 8.773.05 12.362-5.581l4.207 1.44.298.519.457-.26 13.145 4.504-.033.03 10.577 11.749-7.654 7.59zm-15.6 15.11l16.836 8.414.645 5.753c-7.724-.296-15.09-3.43-20.284-5.65l-.58-.246c.84-2.737 1.94-5.564 3.383-8.271zm-7.067-7.736l7.644 3.843c-2.46 3.68-4.18 7.711-5.38 11.565a48.765 48.765 0 0 0-1.6-.636c-.723-.269-2.515-1.048-5.183-2.25l4.519-12.522zM232 57.428l.812.319.629 5.614 1.115 9.956.57 5.088-15.911-7.952a33.23 33.23 0 0 1 3.056-4.415c3.996-4.953 8.963-8.134 9.729-8.61zm-26.552-10.383l13.32 5.21 9.25 3.616 2.27.889c-1.85 1.244-5.805 4.155-9.183 8.343a33.092 33.092 0 0 0-1.178 1.527l-9.347-4.7-5.05 13.995c-1.522-.688-3.27-1.487-5.221-2.381l5.139-26.5zm-9.29-3.634l7.87 3.078-5.122 26.411-3.038-1.398c.129-12.493.274-26.347.29-28.091zm-10.365-5.653l1.47-2.915 13.97 5.937 2.034 3.812-17.474-6.834zm7.56 19.075l-14.105-5.944-3.36-1.416 7.359-11.112 12.44 4.866-1.026-.011-.036 3.456-.087 8.398-.023 2.253-1.162-.49zm-6.324 10.578l7.477-9.269-.131 12.67a6191.37 6191.37 0 0 1-7.346-3.401zm-2.213 18.873l8.052-13.432 1.48.683c-.08 7.761-.15 14.679-.175 17.39l-9.357-4.641zm-17.363 9.776l16.318-8.632 9.337 4.63-40.186 16.491 14.53-12.489zm-9.798 6.452l-7.404 6.364-14.52-10.285 3.942-5.355 17.982 9.276zm-12.741-16.4l20.745 9.522-6.785 5.831-18.307-9.445 4.347-5.908zm-37.915-19.824l.57-.161c7.447-2.119 13.878-3.948 25.579 4.49 2.716 1.796 11.392 7.287 14.503 9.252l-3.223 4.38-38.44-17.642c.4-.133.743-.242 1.01-.319zm-17.932 5.257c-.678.271-1.363.548-2.062.83a2301.737 2301.737 0 0 0-9.398 3.824c3.02-2.982 4.862-6.069 5.917-9.02l.066.211 43.155-13.169 7.148 4.282-9.671 5.329.175.312c-6.854-2.396-11.945-.954-17.241.554l-.57.161c-2.246.636-9 3.258-17.52 6.686zm7.158 5.709l5.827-5.058a19.3 19.3 0 0 0 .463 2.398c.639 2.455 1.98 5.492 4.707 8.437a1101.979 1101.979 0 0 0-10.997-5.777zm-7.613-3.917a.815.815 0 0 0 .052-.022c5.279-2.128 9.923-3.968 13.31-5.251a18.613 18.613 0 0 0-.067 2.282l-.768.666-6.341 5.503-.082-.042a1255.462 1255.462 0 0 0-6.104-3.136zm.144 18.098L77.145 80.828l-2.134-1.95c4.125-1.693 8.188-3.353 11.976-4.885l-.077.148c7.258 3.691 16.76 8.638 24.614 12.902L96.098 98.14l-7.342-6.705zm-5.4-2.909L94.86 99.033l-7.88 5.667-11.087-11.08c3.755-2.635 6.577-4.575 7.465-5.094zm-9.873-9.02l8.775 8.015c-1.941 1.144-6.9 4.548-20.338 14.175L49.88 89.29c6.834-2.85 15.285-6.362 23.603-9.783zm-29.8 3.4l24.683-23.5-.522-.538.417-.154.415-.153.192-1.264.668-4.404 4.909-.149 7.553-.228c.338.898.8 2.361 1.08 4.208.17 1.114.273 2.362.238 3.714-.006.238-.026.474-.04.71-.388 6.503-3.771 12.169-10.07 16.858a5003.428 5003.428 0 0 0-24.443 10.132l-5.08-5.232zm-1.251.856l4.848 4.995c-2.907 1.215-5.458 2.283-7.492 3.135l-4.3 1.806-.11-.123-3.6-4.071 10.654-5.742zm21.298-23.38L41.95 81.12l-7.797-8.034-.774-.799c.05-.041.099-.088.149-.131a9.756 9.756 0 0 0 1.024-1.024L63.73 60.383zm-23.55-6.6l27.832-.842-.688 4.532-.612.226-.078-.08-.185.177-30.396 11.197c2.225-3.817 3.63-9.453 4.128-15.21zM72.05 39.776c-2.65 4.13-3.033 8.274-2.978 10.65l-28.731.87c.184-4.465-.187-8.848-1.146-12.36l32.855.84zm1.127-1.574l-.09.114-12.72-.326 4.87-4.196 7.94 4.408zm7.246-5.988a30.553 30.553 0 0 0-4.226 2.92 21.166 21.166 0 0 0-2.028 1.914l-7.728-4.29 5.89-5.075 8.092 4.531zm47.64 10.351l-7.254 6.296-19.592.593-18.963.574-11.663.353c-.043-3.004.668-9.23 6.566-14.105 6.347-5.244 15.218-7.806 23.107-6.793l1.727.814 3.999 1.883c7.262 3.42 14.686 6.913 22.074 10.385zm10.044-16.72c-.068.256-.14.51-.19.767-1.261 6.248-3.685 10.644-7.798 14.17-6.69-3.144-13.422-6.31-20.04-9.426l.536-.506 3.75-3.559 11.258-10.675c3.23 2.333 10.427 7.57 12.484 9.23zm.487-1.515c-2.784-2.18-9.745-7.223-11.87-8.759l.05-.048c1.188-.06 2.34-.093 3.444-.093 4.99 0 9.494.319 13.505.815-1.457 1.669-3.84 4.716-5.13 8.085zm9.516 3.458l.138-.548-7.392-1.833c1.54-4.218 5.292-8.154 5.805-8.68l.08-.06c2.623.409 4.998.887 7.12 1.393a651.662 651.662 0 0 1-5.751 9.728zm.4 9.797c-1.837 3.644-6.125 6.732-8.002 8.077-1.34-.628-2.682-1.258-4.03-1.892 1.906-1.157 4.948-3.208 6.61-5.406 3.273-4.327 11.623-18.78 12.286-19.928 1.405.363 2.684.733 3.833 1.096-2.035 3.369-9.71 16.095-10.697 18.053zm22.659-5.547l-14.362-5.617c1.71-2.85 3.224-5.359 3.857-6.406 3.299 1.204 11.62 4.908 14.203 6.063l-3.698 5.96zm-8.726 16.901l1.73-2.788 14.149 5.964 5.917 2.494 8.357 3.521-2.53 3.137-27.623-12.328zm-3.37 5.429l2.577-4.152 27.449 12.25-3.465 4.296c-7.788-3.618-16.84-7.844-26.56-12.394zM175.976 81.9l5.112-6.76 4.337-5.736c1.608.746 3.167 1.47 4.658 2.158.482.225.95.442 1.42.659l-8.031 13.396-7.496-3.717zm-.94 1.197l7.09 3.516-15.121 7.998-1.064-.489 9.096-11.025zm-19.394-11.562l18.067 10.824-9.173 11.119-18.72-8.592 9.826-13.351zm-11.86-7.106l10.57 6.334-5.814 7.903a2796.297 2796.297 0 0 1-10.443-6.63l5.687-7.607zm-1.306-.783l.017.01-.181.242-5.48 7.33a299.338 299.338 0 0 1-2.826-1.832c-3.027-2.183-5.738-3.704-8.218-4.725l9.585-5.281 7.103 4.256zm12.764 5.91l-10.586-6.343c.376-.448 1.002-1.024 1.919-1.285 1.27-.364 2.769-.038 4.423.946l6.163 4.075-1.92 2.607zm15.643-6.923l1.714.8c4.03 1.88 7.869 3.668 11.44 5.327l-4.472 5.915-4.921 6.508-6.281-3.763 2.52-14.787zm-2.477 5.603l-1.424 8.357-10.453-6.264 4.698-6.385 2.79-3.791.398-.542 4.928 2.303.13.06-1.067 6.262zm-18.76-23.376l-2.652 3.846-4.942-2.319c1.053-.766 2.483-1.856 3.888-3.181l3.707 1.654zm2.583-3.743l-1.721 2.495-3.44-1.535c.686-.73 1.337-1.51 1.899-2.335l3.262 1.375zm.864-1.252l-3.352-1.414c.037-.067.077-.134.11-.201.563-1.115 3.475-6.019 6.179-10.534l4.288 1.677-7.225 10.472zm1.409.593l3.109-4.507 2.276-3.3 1.862-2.698 8.62 3.372-6.797 10.956-9.07-3.823zm5.769 9.142l-2.561 4.13-9.343-4.38 2.67-3.87 9.234 4.12zm-8.373-5.368l1.739-2.522 9.14 3.853-1.713 2.76-9.166-4.09zm-14.52 2.746l.032-.022 2.127.998c8.118 3.81 16.042 7.524 23.497 11.01l-4.99 6.782-6.246-4.13c-2.066-1.228-3.972-1.601-5.664-1.11-1.39.402-2.283 1.294-2.775 1.93l-15.164-9.085 9.183-6.373zm-4.801-5.04c5.249-4.914 6.964-10.741 7.79-14.84.018-.087.046-.175.066-.263l7.175 1.78c-2.186 3.595-4.402 7.114-5.72 8.856-1.773 2.345-5.457 4.618-7.044 5.532l-2.267-1.066zm-9.567 8.306l7.516-6.523 5.328 2.504-9.031 6.304-3.813-2.285zM83.56 52.47l38.219-1.158.044-.038 3.2 1.918-41.038 12.522c1.595-5.735.413-10.777-.425-13.244zm91.13-3.5l-9.724-4.1 6.82-10.99 5.152 2.016 4.882 1.909-2.117 3.198-5.196 7.847.184.12zm2.357-24.074c0-.949.778-1.721 1.735-1.721.957 0 1.736.772 1.736 1.721 0 .95-.78 1.722-1.736 1.722a1.73 1.73 0 0 1-1.735-1.722zm1.735 3.21c.51 0 .989-.13 1.419-.34l5.327 6.34.353.15-1.49 2.955-11.807-4.618 3.6-5.802a3.23 3.23 0 0 0 2.598 1.315zm-89.134-6.372a300.29 300.29 0 0 1 3.702-.87c.215 1.094.357 2.052.449 2.826l-4.151-1.956zm7.01 6.052c-4.982.027-10.12 1.282-14.685 3.591l-8.442-4.727 7.327-6.312c5.049 2.381 10.348 4.88 15.8 7.448zm163.684 48.299c.468-.644.929-1.317 1.382-2.023.52-.69 1.013-1.524 1.476-2.441l13.107 7.385-3.03 3.714.056-.11-12.991-6.525zM328.66 29.6c3.413 8.649 5.736 19.15 5.743 31.708l-9.37-2.413a61.854 61.854 0 0 0-5.454-27.248l9.08-2.047zm-6.15-16.73l16.084-1.572-8.702 14.764a76.864 76.864 0 0 0-7.382-13.191zM346.99 0h-1.736l-1.12 1.9-.143-.147-1.901 3.614-2.561 4.345-18.017 1.762A73.729 73.729 0 0 0 311.126 0h-3.792c5.73 4.663 14.738 13.72 20.779 28.199l-9.177 2.069c-3.208-6.694-6.872-11.362-8.914-13.682l.013-.003-.238-.251a27.729 27.729 0 0 0-1.327-1.405c-.581-.612-8.735-9.065-21.157-14.927h-6.525c11.716 4.257 20.663 11.753 24.21 15.032a838.66 838.66 0 0 0-12.762 2.62C279.215 7.912 262.726 2.579 252.526 0h-9.778l-.068.423c.335.054 26.796 4.423 46.234 17.949-1.375.3-2.765.61-4.15.926-3.508.798-6.97 1.628-10.013 2.432-4.037 1.065-7.337 2.081-9.008 2.91-.791.392-1.535.808-2.254 1.235l-19.982-2.997c-5.53-3.855-10.218-7.329-11.11-8.54l-.052-.155-.066-.038c-.672-1.074-.837-2.287-.451-3.525.663-2.117 2.76-4.012 5.769-5.205 2.764-1.176 4.418-2.77 4.915-4.738.058-.229.093-.454.117-.677H241.1c-.018.109-.02.216-.047.326-.381 1.489-1.743 2.741-4.031 3.714-3.414 1.354-5.83 3.592-6.627 6.139a5.738 5.738 0 0 0-.167 2.805L207.319 0h-3.023l7.23 4.098 18.793 10.649.776.44.01.045c.793 2.83.02 7.177-.41 8.248L206.41 10.863 185.497 0h-3.232l24.278 12.613-14.121 8.002-.233.042L181.164 0h-1.698l10.574 19.812c-15.73-9.942-33.244-8.956-38.56-8.364l-.135-1.996L169.61 0h-3.243l-15.131 7.83L150.71 0h-2.506l.567 8.43-24.416.307L125.823 0h-1.52l-1.145 6.814L119.738 0h-1.667l4.416 8.76-31.772.4c-1.743-3.172-4.128-6.366-7.38-9.16h-2.387a30.39 30.39 0 0 1 3.29 2.895l-6.522 6.428-14.004.176c-8.465-3.996-15.422-7.284-20.11-9.5H37.79c3.576 1.692 11.628 5.498 22.412 10.59l-7.353 4.475L25.952 0h-3.05l28.486 15.954-7.26 4.418L8.408.544c-.615.19-1.202.44-1.77.721l36.35 20.18-8.094 9.847c-2.96-3.612-6.95-6.912-11.598-9.674l2.745-4.538L2.856 4.205c-.327.38-.628.782-.905 1.202L23.96 17.63l-1.961 3.24c-6.5-3.628-14.151-6.21-22-7.174v2.496c15.588 2.014 30.777 11.002 35.96 21.173l-15.24-.39-.014-.039C20.54 36.49 16.629 26.346 0 23.812v1.51c13.439 2.14 18.045 9.59 19.06 11.612L.02 36.447 0 37.19v.744l19.187.49-.35 6.948H0v1.487h18.762l-.386 7.661L0 54.72v1.487l9.78-.105-.19 8.156-9.59.686v1.491l9.555-.683-.306 13.113-9.25 3.406v1.588l9.474-3.49 2.565 16.953L0 103.81v2.822l12.37-6.667 1.884 19.61 1.493-.141-1.945-20.24L28.89 91.06l-4.335 28.377c-.503.34-.778.543-.805.562l.375.496h3.359a74.863 74.863 0 0 1 4.228-2.477c9.92-5.398 29.996-13.673 51.192-7.046 1.372.544 2.757 1.133 4.188 1.742 5.155 2.19 10.94 4.648 18.818 6.227l.256.295c.075-.065.158-.136.236-.201 3.81.737 8.114 1.263 13.056 1.46h8.749c.147-.006.284-.006.432-.011a.035.035 0 0 0-.002.01h2.53l.024-.135c1.873-.11 3.812-.256 5.84-.453 12.16-1.184 28.072-6.265 44.918-11.646 19.176-6.124 38.876-12.407 54.99-13.666l1.338 11.935c-15.484 1.116-34.117 7.15-52.975 13.966h7.41c7.264-2.544 14.434-4.899 21.33-6.814l1.815 6.814h1.552l-1.92-7.21c8.138-2.198 15.87-3.754 22.906-4.272l.019.231-5.835 11.25h1.687l4.384-8.45.71 8.45h2.509l-.061-.73c.433.165 1.056.411 1.834.73h3.753c-3.172-1.421-5.235-2.193-5.725-2.37l-.778-9.252a59.475 59.475 0 0 1 4.177-.024c15.97.511 31.24 5.313 44.005 11.647h5.33c-13.866-7.556-31.137-13.545-49.255-14.125a62.736 62.736 0 0 0-4.74.036l.365-.04-1.338-11.943c2.322-.106 4.562-.1 6.705.042 25.882 1.711 49.15 10.445 69.487 26.03h4.026a135.283 135.283 0 0 0-13.68-9.683c1.373-1.645 4.253-5.356 7.384-10.93l10.515 5.925c-3.516 7.108-6.577 11.228-6.645 11.32l2 1.487c.07-.093 3.207-4.309 6.818-11.583l8.738 4.924-3.734 8.54h1.636l3.41-7.8 7.635 4.302-1.182 3.498h1.582l.929-2.75 4.88 2.75h3.036l-.59-.333L360 98.782v-3.058l-9.847-4.668-15.607-7.397-.107-.052c.092-.405.179-.815.268-1.225a99.05 99.05 0 0 0 1.25-6.958c.364-2.56.636-5.2.79-7.916.079-1.363.124-2.7.15-4.02l19.38 4.99 2.248.77-.02-.197 1.495.385V67.9l-1.654-.426L353.95 23.9 360 22.536v-1.525l-6.833 1.54-12.218-11.798 2.458-4.67 1.024-1.737L360 20.339v-2.143L345.217 3.011 346.992 0z"/>
        <g>
            <path fill="#FF4C5A" fill-opacity=".44" d="M239 93.224l-6-35.703-28-10.909-5 28.76-34-15.867-10 13.884 53 25.785z"/>
            <path fill="#FF4C5A" d="M209 100.166a.987.987 0 0 1-.44-.102l-53-25.785a.987.987 0 0 1-.374-1.466l10-13.884c.281-.39.804-.526 1.24-.322l32.811 15.314 4.778-27.477a1.003 1.003 0 0 1 1.35-.755l28 10.91a.992.992 0 0 1 .621.759l6 35.703a.99.99 0 0 1-.79 1.135l-30 5.95a1.01 1.01 0 0 1-.196.02zm-51.501-27.152l51.637 25.122 28.718-5.697-5.748-34.2-26.329-10.26-4.792 27.562a.992.992 0 0 1-.523.711c-.276.142-.606.15-.888.018l-33.245-15.516-8.83 12.26z"/>
            <path fill="#FF4C5A" fill-opacity=".44" d="M124 14.877l15 10.909-8 16.86-43-20.827z"/>
            <path fill="#FF4C5A" d="M131 43.637c-.15 0-.3-.034-.44-.1l-43-20.827a.99.99 0 0 1 .249-1.865l36-6.942a.998.998 0 0 1 .783.174l15 10.909c.385.28.517.793.313 1.222l-8 16.86a.998.998 0 0 1-.905.569zm-39.878-21.41l39.406 19.086 7.217-15.21-13.983-10.17-32.64 6.294z"/>
            <path fill="#FF4C5A" fill-opacity=".44" d="M145 85.29l-14 13.884 20 11.901 15-14.876s-20-10.91-21-10.91"/>
            <path fill="#FF4C5A" d="M151 112.067c-.177 0-.355-.047-.514-.141l-20-11.901a.985.985 0 0 1-.193-1.552l14-13.885c.188-.185.442-.29.707-.29.31 0 1.257 0 21.482 11.032a.984.984 0 0 1 .225 1.57l-15 14.876c-.193.191-.448.29-.707.29zm-18.387-13.09l18.232 10.85 13.506-13.394c-6.831-3.715-16.707-8.987-19.083-10.006l-12.655 12.55z"/>
            <path fill="#FF4C5A" fill-opacity=".44" d="M278 40.662l-7 21.818 17 9.917 8-28.76s-17-2.975-18-2.975"/>
            <path fill="#FF4C5A" d="M288 73.389a1.01 1.01 0 0 1-.507-.137l-17-9.917a.988.988 0 0 1-.446-1.156l7-21.818a.998.998 0 0 1 .953-.691c1.035 0 15.32 2.491 18.174 2.99a1 1 0 0 1 .671.447.982.982 0 0 1 .12.794l-8 28.76a.998.998 0 0 1-.965.728zm-15.805-11.362l15.188 8.86 7.36-26.463c-5.644-.983-13.564-2.334-16.039-2.685l-6.509 20.288z"/>
            <path fill="#E0E1E2" d="M195 69.422c0 2.19-8.059 3.967-18 3.967s-18-1.776-18-3.967c0-2.19 8.059-3.967 18-3.967s18 1.776 18 3.967" style="mix-blend-mode:multiply"/>
            <path fill="#F7F6F7" d="M180 26.145c-12.483 0-22.638 10.071-22.638 22.45 0 12.38 10.155 22.45 22.638 22.45 12.482 0 22.637-10.07 22.637-22.45 0-12.379-10.155-22.45-22.637-22.45"/>
            <path fill="#141414" d="M173.806 59.581v-21.97h7.503c1.013 0 1.96.169 2.844.506a6.975 6.975 0 0 1 2.308 1.427 6.693 6.693 0 0 1 1.548 2.194c.378.849.566 1.785.566 2.807 0 1.044-.188 1.99-.566 2.839a6.683 6.683 0 0 1-1.548 2.193 6.99 6.99 0 0 1-2.308 1.428 7.909 7.909 0 0 1-2.844.505h-3.483v8.071h-4.02zm7.563-11.998c1.052 0 1.846-.307 2.382-.92.536-.614.804-1.32.804-2.118 0-.388-.065-.766-.194-1.135a2.606 2.606 0 0 0-.596-.967 2.902 2.902 0 0 0-.997-.66c-.397-.163-.863-.245-1.399-.245h-3.543v6.045h3.543z"/>
            <path fill="#FF4C5A" d="M180 29.12c10.83 0 19.637 8.737 19.637 19.477 0 10.738-8.808 19.474-19.637 19.474-10.828 0-19.638-8.736-19.638-19.474 0-10.74 8.81-19.477 19.638-19.477zm-12.97 12.27a14.559 14.559 0 0 0-1.908 7.207c0 8.135 6.674 14.754 14.878 14.754 3.5 0 6.713-1.212 9.256-3.224L167.03 41.39zm27.848 7.207c0-8.137-6.674-14.756-14.878-14.756-3.85 0-7.353 1.471-9.998 3.86l22.458 18.933a14.574 14.574 0 0 0 2.418-8.037z"/>
        </g>
    </g>
</svg>
