<svg xmlns="http://www.w3.org/2000/svg" width="40" height="24" viewBox="0 0 40 24">
    <g fill="none" fill-rule="evenodd">
        <rect width="40" height="24" fill="#FFEEEF" rx="2"/>
        <path fill="#FF4C5A" d="M29 7.85v8.55h-3.05a1 1 0 0 0-1 1v3.05H12.2c-.663 0-1.2-.501-1.2-1.12V7.85h18zm-.45 9.45l-2.7 2.699V18.3a1 1 0 0 1 1-1h1.7zm-6.174-7.65h-5.414a.562.562 0 0 0-.091 1.116l.09.008h1.091l.123.005c.686.047 1.268.44 1.537.99l.057.129h-1.99l-.091.007a.562.562 0 0 0 0 1.109l.091.007h1.99c-.236.611-.845 1.06-1.576 1.118l-.158.006h-1.073a.562.562 0 0 0-.562.562c0 .307.134.597.362.796l.104.08 4.063 2.743a.62.62 0 0 0 .764-.055l.073-.078.022-.03a.541.541 0 0 0-.071-.69l-.076-.061-3.16-2.128a.048.048 0 0 1-.021-.042c1.224-.156 2.218-.975 2.534-2.049l.044-.171h.522c.28 0 .511-.205.555-.472l.007-.09-.008-.092a.562.562 0 0 0-.463-.463l-.091-.007h-.522a2.667 2.667 0 0 0-.424-.957l-.128-.167h1.89l.091-.008a.562.562 0 0 0-.09-1.116zM12.8 3.8l.001.225c0 .38.135.73.36 1.002l.101.112a1.57 1.57 0 0 0 1.114.461 1.57 1.57 0 0 0 1.114-.461c.25-.25.415-.582.453-.953l.008-.161-.001-.225h2.475l.001.225c0 .38.135.73.36 1.002l.101.112A1.57 1.57 0 0 0 20 5.6a1.57 1.57 0 0 0 1.114-.461c.25-.25.415-.582.453-.953l.008-.161V3.8h2.475v.225c0 .38.135.73.36 1.002l.101.112a1.57 1.57 0 0 0 1.114.461 1.57 1.57 0 0 0 1.114-.461c.25-.25.415-.582.453-.953l.008-.161V3.8h.6A1.2 1.2 0 0 1 29 5v1.5H11V5a1.2 1.2 0 0 1 1.2-1.2h.599zM25.625 2c.373 0 .675.302.675.675v1.35a.675.675 0 0 1-1.35 0v-1.35c0-.373.302-.675.675-.675zM20 2c.373 0 .675.302.675.675v1.35a.675.675 0 0 1-1.35 0v-1.35c0-.373.302-.675.675-.675zm-5.625 0c.373 0 .675.302.675.675v1.35a.675.675 0 0 1-1.35 0v-1.35c0-.373.302-.675.675-.675z"/>
    </g>
</svg>
