<svg xmlns="http://www.w3.org/2000/svg" width="40" height="24" viewBox="0 0 40 24">
    <g fill="none" fill-rule="evenodd">
        <rect width="40" height="24" fill="#FF4C5A" rx="2"/>
        <path fill="#F9F9F9" d="M29 8.3v8.55h-3.05c-.552 0-1 .448-1 1v3.05H12.2c-.663 0-1.2-.501-1.2-1.12V8.3h18zm-.45 9.45l-2.7 2.699V18.75c0-.552.448-1 1-1h1.7zm-6.174-7.65h-5.414c-.31 0-.562.252-.562.562 0 .28.204.51.47.554l.092.008H18.052l.123.005c.686.047 1.268.44 1.537.99l.057.129h-1.99l-.091.007c-.267.043-.47.275-.47.554 0 .28.203.511.47.555l.091.007h1.99c-.236.611-.845 1.06-1.576 1.118l-.158.006h-1.073c-.31 0-.562.251-.562.562 0 .307.134.597.362.796l.104.08 4.063 2.743c.24.162.556.134.764-.055l.073-.078.022-.03c.148-.22.113-.51-.071-.69l-.076-.061-3.16-2.128c-.014-.01-.022-.026-.021-.042 1.224-.156 2.218-.975 2.534-2.049l.044-.171h.522c.28 0 .511-.205.555-.472l.007-.09-.008-.092c-.038-.237-.226-.424-.463-.463l-.091-.007h-.522c-.077-.346-.223-.67-.424-.957l-.128-.167h1.89l.091-.008c.267-.043.471-.275.471-.554 0-.31-.251-.562-.562-.562zM12.8 3.8l.001.225c0 .38.135.73.36 1.002l.101.112c.285.285.68.461 1.114.461.435 0 .829-.176 1.114-.461.25-.25.415-.582.453-.953l.008-.161-.001-.225h2.475l.001.225c0 .38.135.73.36 1.002l.101.112c.285.285.68.461 1.114.461.435 0 .829-.176 1.114-.461.25-.25.415-.582.453-.953l.008-.161V3.8h2.475v.225c0 .38.135.73.36 1.002l.101.112c.285.285.68.461 1.114.461.435 0 .829-.176 1.114-.461.25-.25.415-.582.453-.953l.008-.161V3.8h.6c.663 0 1.2.537 1.2 1.2v1.5H11V5c0-.663.537-1.2 1.2-1.2h.599zM25.625 2c.373 0 .675.302.675.675v1.35c0 .373-.302.675-.675.675-.373 0-.675-.302-.675-.675v-1.35c0-.373.302-.675.675-.675zM20 2c.373 0 .675.302.675.675v1.35c0 .373-.302.675-.675.675-.373 0-.675-.302-.675-.675v-1.35c0-.373.302-.675.675-.675zm-5.625 0c.373 0 .675.302.675.675v1.35c0 .373-.302.675-.675.675-.373 0-.675-.302-.675-.675v-1.35c0-.373.302-.675.675-.675z"/>
    </g>
</svg>
