<svg xmlns="http://www.w3.org/2000/svg" width="40" height="23" viewBox="0 0 40 23">
    <g fill="none" fill-rule="evenodd">
        <rect width="40" height="23" fill="#E3E8FB" rx="2"/>
        <path fill="#2754FF" d="M22.374 6.239L14.919 6.239 14.919 15.772 13.102 16.895 12.959 4.225 22.374 4.225z"/>
        <g fill="#141414">
            <path d="M10.058 10.029h-.004l-3.481-.017c-.407-.002-.734-.32-.732-.708.002-.388.33-.7.735-.7h.003l3.483.016c.405.002.733.318.73.708-.002.387-.33.7-.734.7M10.058 6.69h-.004l-3.481-.016c-.407-.003-.734-.32-.732-.708.002-.389.33-.7.735-.7h.003l3.483.015c.405.002.733.32.73.709-.002.387-.33.7-.734.7" transform="translate(10 2.875)"/>
            <path d="M17.768 16.364c-.134 0-.27-.006-.404-.02-2.3-.208-3.992-2.172-3.772-4.375.206-2.071 1.995-3.633 4.162-3.633.134 0 .269.006.405.019 1.113.102 2.119.612 2.832 1.44.712.825 1.046 1.87.939 2.936-.206 2.07-1.995 3.633-4.162 3.633zm-5.695-3.282l-1.384-.777c-.235-.131-.527-.128-.76.009L7.946 13.49 5.96 12.374c-.114-.064-.243-.097-.371-.097-.124 0-.247.03-.358.09l-1.394.744V4.288c.017-.24.027-.592 0-.993.002-.163-.004-.552-.102-.95h7.847c.27 0 .49.215.49.48v10.257zM1.783 3.673c0-.513.005-.818.022-1 .05-.525.563-.642.563.011v.99h-.584zm16.518 3.25c-.183-.016-.366-.025-.547-.025-1.658 0-3.162.708-4.212 1.827v-5.9c0-1.041-.878-1.889-1.96-1.889 0 0-9.463-.004-9.493-.002C1.532.89.713 1.164.438 2.124c-.17.594-.12 2.005-.108 2.283.016.377.339.675.734.675h1.304v9.229c0 .25.138.481.363.608.114.065.243.097.372.097.123 0 .246-.03.357-.09l2.12-1.133 2.003 1.127c.235.13.527.128.758-.01l1.986-1.175 2.109 1.185c.113.064.24.095.366.096.883 1.504 2.49 2.584 4.419 2.76.184.017.366.025.547.025 2.897 0 5.375-2.113 5.655-4.933.299-2.997-1.995-5.66-5.122-5.945z" transform="translate(10 2.875)"/>
            <path d="M19.832 10.748H16.01c-.277 0-.5-.214-.5-.479 0-.264.223-.479.5-.479h3.822c.276 0 .5.215.5.48 0 .264-.224.478-.5.478M19.856 12.325h-3.822c-.277 0-.5-.214-.5-.479 0-.264.223-.479.5-.479h3.822c.276 0 .5.215.5.48 0 .264-.224.478-.5.478" transform="translate(10 2.875)"/>
            <path d="M19.295 12.292c.199-.999-.615-2.087-1.854-2.478-.26-.083-.544.055-.63.305-.086.252.056.523.318.606.849.268 1.275.928 1.184 1.387-.1.499-.832.77-1.92.707-.216-.01-.402.1-.487.282-.085.18-.044.393.103.534.015.015.038.036 2.387 2.013l.004-.005c.205.156.49.137.673-.05.185-.189.162-.476-.021-.661l.004-.005-.023-.02-1.43-1.2c1.34-.265 1.63-1.11 1.692-1.415" transform="translate(10 2.875)"/>
        </g>
    </g>
</svg>
