<svg xmlns="http://www.w3.org/2000/svg" width="64" height="40" viewBox="0 0 64 40">
    <g fill="none" fill-rule="evenodd">
        <rect width="64" height="40" fill="#E5F5FB" rx="2"/>
        <path fill="#233375" d="M8.213 15.367c.001-.33.223-.495.496-.495h4.83c1.481.169 2.517.924 2.618 2.907v2.683c0 .398-.024.734-.138 1.121-.384 1.292-1.308 1.933-2.687 2.023H11.26v3.285c0 .247-.207.37-.457.37H8.628c-.265 0-.46-.148-.46-.444l.045-11.45zm3.07 2.55h1.285c.289 0 .526.237.526.527v1.55a.53.53 0 0 1-.526.528h-1.285v-2.606zM18.537 14.887h3.375c1.976.115 3.045 1.152 3.018 3.303v7.966c0 .618-.624 1.086-1.158 1.086h-4.424c-1.343 0-2.229-1.046-2.45-2.072-.212-.985-.054-2.177-.054-3.183 0-1.553 1.029-3.093 2.744-3.093h1.8c.524-.028.5-1.173 0-1.133h-2.815c-.285 0-.485-.151-.512-.442v-2.086c0-.267.22-.346.476-.346zm1.861 6.887h1.03c.242 0 .442.2.442.443v1.794c0 .244-.2.443-.442.443h-1.03c-.243 0-.44-.199-.44-.443v-1.794c0-.244.197-.443.44-.443zM25.965 15.448v5.032c.123 1.578 1.539 2.76 3.08 2.76h1.424c.59 0 .554.99 0 .99h-3.082c-.335 0-.456.174-.456.469v2.215c0 .223.18.39.417.39h2.856c2.382 0 3.738-1.142 3.738-3.704v-8.347c0-.273-.172-.378-.338-.378H31.21c-.222 0-.35.24-.35.416v4.574c0 .196-.11.312-.286.312h-1.133c-.26 0-.404-.141-.404-.39V15.37c0-.293-.117-.508-.44-.508h-2.304c-.261 0-.328.26-.328.586"/>
        <path fill="#00A3DA" d="M35.146 17.516V15.34c0-.233.192-.424.425-.424h.523c1.35-.281 1.67-1.072 2.495-1.962.507-.55.952-.694 1.28-.111v2.073h1.237c.234 0 .424.19.424.424v2.176a.426.426 0 0 1-.424.425h-1.238v8.916a.426.426 0 0 1-.424.425h-2.176a.425.425 0 0 1-.424-.425V17.94h-1.273a.427.427 0 0 1-.425-.425M50.56 26.715c0 .29-.24.527-.532.527H47.99a.53.53 0 0 1-.531-.527v-8.183c.016-.885-1.767-1.023-1.767 0v8.183a.53.53 0 0 1-.531.527h-2.037a.532.532 0 0 1-.533-.527V15.37c0-.293.24-.53.533-.53h2.037c.292 0 .531.237.531.53v.155c1.192-1.14 3.256-.959 4.355.225 2.068-2.371 5.61-.258 5.446 2.342 0 2.876-.025 5.723-.025 8.623 0 .29-.24.527-.531.527h-2.038a.53.53 0 0 1-.532-.527v-8.13c-.116-1.134-1.831-.87-1.828 0 0 2.702.02 5.403.02 8.13"/>
    </g>
</svg>
