<svg xmlns="http://www.w3.org/2000/svg" width="20" height="20" viewBox="0 0 20 20">
    <path fill="#7A7A7A" fill-rule="evenodd" d="M16.258 10.672h-2.17c-1.227 0-2.226.987-2.226 2.21 0 1.223.999 2.219 2.227 2.219h2.169v1.484H3.585V8.959c.325.142.681.22 1.062.22h11.611v1.493zm0 2.85h-2.17c-.356 0-.642-.285-.642-.64 0-.347.286-.631.643-.631h2.169v1.271zM4.647 5.485H7.43L5.833 7.601H4.647c-.579 0-1.062-.482-1.062-1.058 0-.568.483-1.058 1.062-1.058zm6.923-2.808c.044-.059.162-.076.22-.032l3.316 2.471c.07.052.084.15.032.22l-1.687 2.265H7.853l3.717-4.924zm5.48 4.924h-1.588l.97-1.301c.583-.783.42-1.893-.362-2.477l-3.316-2.471c-.379-.282-.844-.403-1.314-.332-.468.069-.881.315-1.16.69L8.621 3.907H4.647c-.381 0-.737.079-1.062.22C2.658 4.539 2.009 5.462 2 6.52v10.855c0 .435.357.79.793.79H17.05c.437 0 .793-.355.793-.79V8.391c0-.435-.356-.79-.793-.79z"/>
</svg>
