<svg xmlns="http://www.w3.org/2000/svg" width="64" height="40" viewBox="0 0 64 40">
    <g fill="none" fill-rule="evenodd">
        <rect width="64" height="40" fill="#F1F1F1" rx="2"/>
        <path fill="#70706E" d="M28.212 14.666h13.966c.371 0 .643.126.817.379.152.22.198.491.133.821l-.035.145-1.412 5.296a1.76 1.76 0 0 1-.62.937c-.268.216-.553.34-.855.37l-.152.008H28.63l-1.413 5.297h-2.542l2.108-7.897h2.541v.007h10.162l.741-2.768H27.524l.688-2.595h13.966zm-14.417 0L10.94 25.33h10.168l2.855-10.664h2.541L23.192 27.03c-.139.522-.602.889-1.123.889H8.966c-.359 0-.625-.127-.799-.379-.174-.252-.214-.564-.11-.936l3.196-11.938h2.542zm34.052-.036l-3.532 13.228h-2.542l3.532-13.228h2.542z"/>
        <path fill="#098041" d="M52.236 14.654l3.214 6.63-6.757 6.629z"/>
        <path fill="#E97626" d="M49.978 14.654l3.213 6.63-6.762 6.629z"/>
    </g>
</svg>
