<svg width="178" height="226" viewBox="0 0 178 226" fill="none" xmlns="http://www.w3.org/2000/svg">
<path d="M131.039 163.968H55.0389C52.2789 163.968 50.0389 161.728 50.0389 158.968V58.3984C50.0389 55.6384 52.2789 53.3984 55.0389 53.3984H131.039C133.799 53.3984 136.039 55.6384 136.039 58.3984V158.968C136.039 161.728 133.799 163.968 131.039 163.968Z" fill="#ADD3EA"/>
<path d="M111.039 183.398H30.0389C27.2789 183.398 25.0389 181.158 25.0389 178.398V71.3984C25.0389 68.6384 27.2789 66.3984 30.0389 66.3984H90.5989L116.039 92.3984V178.398C116.039 181.158 113.799 183.398 111.039 183.398Z" fill="#D0E9F4"/>
<path d="M90.5989 66.3984L116.039 92.3984H96.0489C93.3289 92.3984 91.1089 90.2284 91.0489 87.5084L90.5989 66.3984Z" fill="#86B8E0"/>
<path d="M177.039 217.478C177.039 222.058 173.179 225.918 168.599 225.918C166.189 225.918 164.019 224.958 162.329 223.268L135.329 193.858C134.369 192.898 134.369 191.448 135.329 190.488L141.599 184.218C142.559 183.258 144.009 183.258 144.969 184.218L174.379 211.458C176.069 212.898 177.039 215.308 177.039 217.478Z" fill="#77A3D8"/>
<path d="M133.647 177.757L128.874 182.53L136.03 189.686L140.803 184.913L133.647 177.757Z" fill="#77A3D8"/>
<path d="M137.259 186.138L138.469 187.348L140.879 184.938L133.649 177.708L128.829 182.528L132.449 186.148C133.879 184.688 135.809 184.688 137.259 186.138Z" fill="#5C8ED6"/>
<path d="M107.129 119.838C87.1189 119.838 70.9689 135.988 70.9689 155.998C70.9689 176.008 87.1189 192.158 107.129 192.158C127.139 192.158 143.289 176.008 143.289 155.998C143.289 135.988 127.129 119.838 107.129 119.838ZM107.129 184.928C91.2189 184.928 78.1989 171.908 78.1989 155.998C78.1989 140.088 91.2189 127.068 107.129 127.068C123.039 127.068 136.059 140.088 136.059 155.998C136.059 171.908 123.039 184.928 107.129 184.928Z" fill="#92BFE8"/>
<path d="M107.129 184.928C123.107 184.928 136.059 171.976 136.059 155.998C136.059 140.021 123.107 127.068 107.129 127.068C91.1513 127.068 78.1989 140.021 78.1989 155.998C78.1989 171.976 91.1513 184.928 107.129 184.928Z" fill="#D0E9F4"/>
<path d="M123.549 131.918V180.078C131.339 174.878 136.499 166.018 136.499 155.998C136.499 145.978 131.339 137.118 123.549 131.918Z" fill="#ADD3EA"/>
<path d="M89.9289 157.568C89.7889 148.878 95.5189 141.158 103.879 138.778L104.099 138.748C107.849 137.738 108.279 133.018 104.649 132.968C102.339 132.848 100.099 133.178 97.8889 133.738C89.3389 136.378 83.4189 144.358 83.5589 153.038C83.4389 155.348 84.0289 157.778 84.7789 159.728C86.0189 163.438 90.1689 161.438 90.0489 157.558C89.9589 157.608 89.9289 157.568 89.9289 157.568Z" fill="white"/>
<path d="M174.139 211.208L172.699 209.998C173.909 211.448 174.629 213.368 174.629 215.298C174.629 218.428 170.769 219.638 168.599 217.468L143.289 192.158C141.839 190.708 139.669 190.708 138.229 192.158L135.819 194.568L162.099 222.768C163.549 224.218 165.469 225.418 167.399 225.658C170.049 225.898 172.699 224.938 174.389 223.248C176.079 221.558 177.039 218.908 176.799 216.258C176.789 214.338 175.589 212.648 174.139 211.208Z" fill="#5C8ED6"/>
<path d="M100.039 28.8984C99.4189 28.8984 98.839 28.5084 98.619 27.8884C98.349 27.1084 98.769 26.2484 99.549 25.9784C99.549 25.9784 99.7289 25.9184 100.069 25.8084C100.859 25.5584 101.699 26.0084 101.949 26.7984C102.199 27.5884 101.749 28.4284 100.959 28.6784C100.689 28.7584 100.539 28.8084 100.529 28.8184C100.359 28.8684 100.199 28.8984 100.039 28.8984Z" fill="#93B6D8"/>
<path d="M129.119 106.878C128.449 106.878 127.849 106.428 127.669 105.758C127.459 104.958 127.939 104.138 128.739 103.928C129.049 103.848 129.359 103.758 129.689 103.668C130.489 103.438 131.319 103.898 131.549 104.698C131.779 105.498 131.319 106.328 130.519 106.558C130.179 106.658 129.839 106.748 129.509 106.838C129.379 106.858 129.249 106.878 129.119 106.878ZM137.679 103.768C137.119 103.768 136.579 103.458 136.329 102.918C135.969 102.168 136.289 101.278 137.039 100.918C137.329 100.778 137.619 100.638 137.909 100.488C138.649 100.118 139.549 100.408 139.929 101.148C140.309 101.888 140.009 102.788 139.269 103.168C138.959 103.328 138.639 103.478 138.329 103.628C138.119 103.718 137.899 103.768 137.679 103.768ZM145.349 98.8984C144.919 98.8984 144.489 98.7184 144.199 98.3584C143.669 97.7184 143.759 96.7784 144.389 96.2484C144.639 96.0484 144.879 95.8384 145.119 95.6184C145.739 95.0684 146.689 95.1184 147.239 95.7384C147.789 96.3584 147.739 97.3084 147.119 97.8584C146.849 98.0984 146.589 98.3284 146.309 98.5584C146.029 98.7784 145.689 98.8984 145.349 98.8984ZM151.319 92.0684C151.049 92.0684 150.779 91.9984 150.529 91.8484C149.829 91.4084 149.609 90.4884 150.039 89.7784C150.209 89.5084 150.369 89.2384 150.529 88.9584C150.939 88.2384 151.859 87.9884 152.569 88.3884C153.289 88.7984 153.539 89.7084 153.139 90.4284C152.959 90.7384 152.779 91.0484 152.589 91.3484C152.309 91.8184 151.819 92.0684 151.319 92.0684ZM154.739 83.6884C154.629 83.6884 154.519 83.6784 154.409 83.6484C153.599 83.4684 153.099 82.6584 153.279 81.8484C153.349 81.5384 153.419 81.2284 153.479 80.9084C153.639 80.0984 154.429 79.5584 155.239 79.7284C156.049 79.8884 156.579 80.6784 156.419 81.4884C156.349 81.8384 156.279 82.1784 156.199 82.5284C156.039 83.2184 155.419 83.6884 154.739 83.6884ZM155.529 74.6484C154.729 74.6484 154.069 74.0184 154.029 73.2084C154.019 72.8884 153.999 72.5584 153.969 72.2484C153.909 71.4184 154.529 70.7084 155.359 70.6384C156.179 70.5784 156.899 71.1984 156.969 72.0284C156.999 72.3784 157.019 72.7284 157.029 73.0784C157.069 73.9084 156.419 74.6084 155.599 74.6384C155.569 74.6484 155.549 74.6484 155.529 74.6484ZM112.969 72.9284C112.929 72.9284 112.889 72.9284 112.849 72.9284C112.479 72.8984 112.119 72.8584 111.749 72.8084C110.929 72.6884 110.359 71.9384 110.469 71.1184C110.579 70.2984 111.349 69.7284 112.159 69.8384C112.459 69.8784 112.769 69.9184 113.079 69.9384C113.909 69.9984 114.519 70.7284 114.459 71.5484C114.399 72.3284 113.749 72.9284 112.969 72.9284ZM120.889 71.6484C120.299 71.6484 119.729 71.2884 119.499 70.7084C119.189 69.9384 119.569 69.0684 120.329 68.7584C120.619 68.6384 120.909 68.5184 121.209 68.3884C121.969 68.0484 122.849 68.3884 123.189 69.1484C123.529 69.9084 123.189 70.7884 122.429 71.1284C122.099 71.2784 121.769 71.4184 121.439 71.5484C121.259 71.6184 121.079 71.6484 120.889 71.6484ZM104.569 69.7584C104.229 69.7584 103.899 69.6484 103.619 69.4184C103.319 69.1684 103.029 68.9084 102.759 68.6384C102.179 68.0484 102.179 67.0984 102.769 66.5184C103.359 65.9384 104.309 65.9384 104.889 66.5284C105.089 66.7284 105.299 66.9284 105.529 67.1084C106.169 67.6384 106.259 68.5784 105.729 69.2184C105.429 69.5784 104.999 69.7584 104.569 69.7584ZM128.609 66.8984C128.189 66.8984 127.759 66.7184 127.469 66.3684C126.929 65.7384 127.009 64.7884 127.639 64.2484C127.879 64.0384 128.119 63.8284 128.359 63.6084C128.969 63.0484 129.919 63.0984 130.479 63.7084C131.039 64.3184 130.989 65.2684 130.379 65.8284C130.119 66.0684 129.849 66.2984 129.579 66.5284C129.299 66.7784 128.959 66.8984 128.609 66.8984ZM153.779 65.7584C153.169 65.7584 152.599 65.3884 152.379 64.7884C152.269 64.4884 152.149 64.1984 152.029 63.9084C151.699 63.1484 152.059 62.2684 152.819 61.9384C153.579 61.6184 154.459 61.9684 154.789 62.7284C154.929 63.0584 155.059 63.3884 155.189 63.7284C155.479 64.5084 155.089 65.3684 154.319 65.6584C154.129 65.7284 153.949 65.7584 153.779 65.7584ZM101.489 61.6884C101.399 61.6884 101.299 61.6784 101.199 61.6584C100.389 61.4984 99.8589 60.7084 100.009 59.8984C100.079 59.5284 100.169 59.1484 100.289 58.7684C100.529 57.9784 101.369 57.5284 102.159 57.7584C102.949 57.9984 103.409 58.8284 103.169 59.6284C103.089 59.9084 103.019 60.1884 102.959 60.4684C102.829 61.1884 102.199 61.6884 101.489 61.6884ZM134.579 60.0584C134.299 60.0584 134.029 59.9784 133.779 59.8184C133.079 59.3784 132.879 58.4484 133.319 57.7484C133.489 57.4784 133.659 57.2084 133.819 56.9284C134.239 56.2184 135.159 55.9784 135.869 56.3984C136.579 56.8184 136.819 57.7384 136.399 58.4484C136.219 58.7584 136.029 59.0584 135.839 59.3584C135.559 59.8084 135.079 60.0584 134.579 60.0584ZM149.019 58.0684C148.619 58.0684 148.209 57.9084 147.919 57.5884C147.699 57.3584 147.479 57.1284 147.259 56.9084C146.669 56.3284 146.669 55.3784 147.259 54.7884C147.839 54.1984 148.789 54.1984 149.379 54.7884C149.629 55.0384 149.879 55.2984 150.119 55.5584C150.679 56.1684 150.649 57.1184 150.039 57.6784C149.749 57.9384 149.389 58.0684 149.019 58.0684ZM106.129 54.0084C105.719 54.0084 105.309 53.8384 105.009 53.5084C104.459 52.8884 104.509 51.9384 105.129 51.3884C105.399 51.1384 105.689 50.9084 105.999 50.6684C106.659 50.1684 107.599 50.2884 108.099 50.9484C108.599 51.6084 108.479 52.5484 107.819 53.0484C107.579 53.2384 107.349 53.4284 107.129 53.6184C106.839 53.8784 106.479 54.0084 106.129 54.0084ZM141.789 52.6084C141.559 52.6084 141.319 52.5584 141.099 52.4384C140.819 52.2884 140.529 52.1484 140.239 52.0084C139.809 51.7984 139.519 51.4084 139.419 50.9684C139.099 51.5184 138.449 51.8184 137.789 51.6684C136.979 51.4884 136.479 50.6784 136.659 49.8784C136.729 49.5684 136.789 49.2584 136.849 48.9484C136.999 48.1284 137.789 47.5884 138.599 47.7484C139.409 47.8984 139.949 48.6784 139.799 49.4984C139.789 49.5484 139.779 49.5984 139.769 49.6584C140.199 49.1784 140.919 49.0184 141.529 49.3184C141.849 49.4684 142.169 49.6284 142.479 49.7984C143.209 50.1784 143.499 51.0884 143.109 51.8184C142.849 52.3184 142.329 52.6084 141.789 52.6084ZM114.189 49.9384C113.539 49.9384 112.929 49.5084 112.749 48.8484C112.519 48.0484 112.989 47.2184 113.789 46.9984C114.129 46.8984 114.469 46.8084 114.819 46.7284C115.629 46.5284 116.439 47.0184 116.639 47.8284C116.839 48.6284 116.349 49.4484 115.539 49.6484C115.229 49.7284 114.919 49.8084 114.609 49.8984C114.459 49.9184 114.329 49.9384 114.189 49.9384ZM133.239 49.5484C133.129 49.5484 133.029 49.5384 132.919 49.5084C132.599 49.4384 132.279 49.3684 131.959 49.3084C131.149 49.1484 130.619 48.3584 130.769 47.5484C130.929 46.7384 131.719 46.2084 132.529 46.3584C132.869 46.4284 133.209 46.4984 133.559 46.5684C134.369 46.7484 134.879 47.5484 134.699 48.3584C134.549 49.0684 133.929 49.5484 133.239 49.5484ZM123.179 48.6184C122.369 48.6184 121.709 47.9784 121.679 47.1584C121.659 46.3284 122.309 45.6384 123.139 45.6184C123.489 45.6084 123.839 45.5984 124.189 45.5984H124.199C125.019 45.5984 125.699 46.2684 125.699 47.0884C125.699 47.9184 125.039 48.5884 124.209 48.5984C123.879 48.5984 123.559 48.6084 123.229 48.6184C123.209 48.6184 123.189 48.6184 123.179 48.6184ZM138.339 42.6784C137.689 42.6784 137.079 42.2484 136.899 41.5884C136.809 41.2784 136.719 40.9684 136.619 40.6684C136.369 39.8784 136.799 39.0384 137.589 38.7784C138.379 38.5284 139.219 38.9584 139.479 39.7484C139.589 40.0784 139.689 40.4184 139.789 40.7684C140.019 41.5684 139.549 42.3984 138.749 42.6184C138.609 42.6684 138.479 42.6784 138.339 42.6784ZM134.359 34.5684C133.919 34.5684 133.479 34.3684 133.179 33.9984C132.979 33.7484 132.789 33.5084 132.579 33.2784C132.039 32.6584 132.099 31.7084 132.719 31.1584C133.349 30.6084 134.289 30.6784 134.839 31.2984C135.079 31.5684 135.309 31.8484 135.529 32.1284C136.039 32.7784 135.929 33.7184 135.279 34.2384C135.009 34.4584 134.679 34.5684 134.359 34.5684ZM127.269 28.9884C127.059 28.9884 126.839 28.9384 126.629 28.8484C126.349 28.7184 126.059 28.5884 125.769 28.4684C124.999 28.1484 124.639 27.2784 124.959 26.5084C125.279 25.7484 126.149 25.3784 126.919 25.6984C127.249 25.8384 127.579 25.9784 127.909 26.1384C128.659 26.4884 128.979 27.3884 128.629 28.1384C128.379 28.6684 127.839 28.9884 127.269 28.9884ZM108.409 27.0184C107.669 27.0184 107.029 26.4784 106.929 25.7284C106.809 24.9084 107.389 24.1484 108.209 24.0284C108.549 23.9784 108.889 23.9384 109.239 23.8884C110.069 23.7884 110.809 24.3784 110.909 25.1984C111.009 26.0184 110.419 26.7684 109.599 26.8684C109.269 26.9084 108.939 26.9484 108.629 26.9984C108.549 27.0084 108.479 27.0184 108.409 27.0184ZM118.509 26.7084C118.459 26.7084 118.409 26.7084 118.359 26.6984C118.039 26.6684 117.719 26.6384 117.399 26.6184C116.569 26.5584 115.949 25.8484 115.999 25.0184C116.059 24.1884 116.799 23.5684 117.599 23.6184C117.949 23.6384 118.299 23.6684 118.649 23.7084C119.479 23.7884 120.079 24.5184 119.999 25.3484C119.919 26.1284 119.269 26.7084 118.509 26.7084Z" fill="#93B6D8"/>
<path d="M120.539 108.398C119.749 108.398 119.089 107.778 119.039 106.978C118.989 106.148 119.619 105.448 120.449 105.398C120.459 105.398 120.619 105.388 120.889 105.358C121.709 105.278 122.449 105.888 122.519 106.708C122.599 107.528 121.989 108.268 121.169 108.338C120.809 108.368 120.619 108.378 120.619 108.378C120.589 108.398 120.559 108.398 120.539 108.398Z" fill="#93B6D8"/>
<path d="M15.5289 202.398C15.1989 202.398 14.8689 202.288 14.5989 202.068L14.1989 201.748C13.5589 201.228 13.4589 200.278 13.9789 199.638C14.4989 198.998 15.4389 198.898 16.0889 199.418L16.4689 199.718C17.1189 200.238 17.2289 201.178 16.7089 201.828C16.4089 202.208 15.9789 202.398 15.5289 202.398Z" fill="#93B6D8"/>
<path d="M9.17894 196.218C8.74894 196.218 8.31894 196.028 8.01894 195.678C7.78894 195.398 7.55894 195.108 7.33894 194.828C6.82894 194.178 6.94894 193.228 7.59894 192.718C8.24894 192.208 9.19894 192.328 9.70894 192.978C9.90894 193.238 10.1189 193.498 10.3389 193.758C10.8689 194.398 10.7789 195.338 10.1389 195.868C9.85894 196.108 9.51894 196.218 9.17894 196.218ZM4.19894 188.258C3.62894 188.258 3.07894 187.928 2.82894 187.368C2.67894 187.038 2.53894 186.698 2.39894 186.358C2.08894 185.588 2.44894 184.718 3.21894 184.398C3.98894 184.078 4.85894 184.448 5.17894 185.218C5.29894 185.528 5.43894 185.828 5.56894 186.138C5.90894 186.898 5.56894 187.778 4.80894 188.118C4.60894 188.208 4.39894 188.258 4.19894 188.258ZM1.61894 179.218C0.878936 179.218 0.238936 178.678 0.138936 177.918C0.0889363 177.558 0.0489363 177.188 0.0089363 176.828C-0.0810637 176.008 0.518936 175.268 1.34894 175.178C2.17894 175.098 2.90894 175.688 2.99894 176.518C3.02894 176.848 3.06894 177.178 3.11894 177.508C3.22894 178.328 2.65894 179.088 1.83894 179.198C1.75894 179.218 1.68894 179.218 1.61894 179.218ZM1.61894 169.818C1.55894 169.818 1.48894 169.818 1.42894 169.808C0.608936 169.698 0.0289363 168.948 0.128936 168.128C0.178936 167.768 0.228936 167.408 0.278936 167.048C0.408936 166.228 1.17894 165.668 1.98894 165.798C2.80894 165.928 3.36894 166.698 3.23894 167.508C3.18894 167.838 3.13894 168.168 3.09894 168.508C3.00894 169.268 2.35894 169.818 1.61894 169.818ZM3.90894 160.698C3.72894 160.698 3.55894 160.668 3.37894 160.598C2.59894 160.308 2.20894 159.438 2.49894 158.668C2.62894 158.328 2.75894 157.988 2.88894 157.658C3.19894 156.888 4.07894 156.518 4.83894 156.828C5.60894 157.138 5.97894 158.018 5.66894 158.778C5.53894 159.088 5.41894 159.398 5.29894 159.718C5.08894 160.328 4.51894 160.698 3.90894 160.698ZM8.16894 152.308C7.88894 152.308 7.59894 152.228 7.34894 152.058C6.65894 151.608 6.45894 150.678 6.91894 149.978C7.11894 149.678 7.31894 149.368 7.52894 149.078C7.99894 148.398 8.93894 148.228 9.61894 148.698C10.2989 149.168 10.4689 150.108 9.99894 150.788C9.80894 151.058 9.61894 151.338 9.43894 151.618C9.13894 152.078 8.65894 152.308 8.16894 152.308ZM14.2889 145.178C13.8689 145.178 13.4589 145.008 13.1589 144.668C12.6189 144.048 12.6789 143.098 13.3089 142.548C13.5889 142.298 13.8689 142.068 14.1589 141.838C14.8089 141.318 15.7489 141.418 16.2689 142.068C16.7889 142.718 16.6889 143.658 16.0389 144.178C15.7889 144.378 15.5289 144.598 15.2789 144.808C14.9889 145.058 14.6389 145.178 14.2889 145.178Z" fill="#93B6D8"/>
<path d="M22.5289 140.848C21.7989 140.848 21.1589 140.318 21.0489 139.578C20.9189 138.758 21.4889 137.998 22.2989 137.868C22.4889 137.838 22.6889 137.818 22.8789 137.798C23.6889 137.718 24.4389 138.328 24.5189 139.148C24.5989 139.968 23.9889 140.708 23.1689 140.788C23.0289 140.798 22.8989 140.818 22.7589 140.838C22.6889 140.848 22.6089 140.848 22.5289 140.848Z" fill="#93B6D8"/>
<path d="M77.039 26.3984C77.039 26.3984 71.039 23.3984 72.039 19.3984C73.039 15.3984 88.039 14.3984 92.039 22.3984L96.039 25.3984C96.739 25.9584 95.939 26.3984 95.039 26.3984H91.039C90.039 27.3984 85.039 30.3984 77.039 26.3984Z" fill="#9FC1D3"/>
<path d="M86.039 15.3983C85.039 14.3983 87.039 9.39833 91.039 7.39833C95.039 5.39833 99.039 8.39833 99.039 10.3983C99.039 14.3983 87.039 16.3983 86.039 15.3983Z" fill="#C2E1EF"/>
<path d="M84.039 15.3984C82.779 16.3384 77.199 13.0184 75.649 8.30839C74.099 3.59839 78.039 -0.301611 80.229 0.0183893C84.619 0.668389 85.289 14.4684 84.039 15.3984Z" fill="#C2E1EF"/>
<path d="M78.779 16.3984C78.789 16.4284 80.319 22.4284 76.189 25.9084C76.699 26.2184 77.039 26.3984 77.039 26.3984C78.059 26.9084 79.029 27.2984 79.949 27.6084C79.969 27.5884 84.039 23.3984 82.769 16.6084C81.419 16.3884 80.059 16.3284 78.779 16.3984Z" fill="#C2E1EF"/>
<path d="M83.689 28.3684C85.139 28.4884 86.409 28.3684 87.459 28.1184C90.039 24.3984 89.089 19.0084 88.949 18.9184C88.029 18.2884 87.009 17.7784 85.929 17.3984C86.039 25.3984 83.499 28.3484 83.689 28.3684Z" fill="#C2E1EF"/>
<path d="M75.039 21.3984C75.5913 21.3984 76.039 20.9507 76.039 20.3984C76.039 19.8462 75.5913 19.3984 75.039 19.3984C74.4867 19.3984 74.039 19.8462 74.039 20.3984C74.039 20.9507 74.4867 21.3984 75.039 21.3984Z" fill="#CCE7F2"/>
<path d="M39.399 216.708C39.399 216.708 46.099 216.948 47.139 212.958C48.179 208.968 35.489 200.898 28.149 206.008L23.199 206.728C22.319 206.888 22.809 207.658 23.599 208.088L27.109 210.008C27.519 211.358 30.469 216.388 39.399 216.708Z" fill="#9FC1D3"/>
<path d="M36.779 202.738C38.139 202.338 38.779 196.988 36.229 193.318C33.679 189.648 28.729 190.358 27.769 192.118C25.849 195.628 35.419 203.138 36.779 202.738Z" fill="#C2E1EF"/>
<path d="M38.529 203.698C39.189 205.118 45.679 204.888 49.289 201.488C52.899 198.088 51.319 192.788 49.239 192.018C45.079 190.488 37.879 202.278 38.529 203.698Z" fill="#C2E1EF"/>
<path d="M42.669 207.098C42.649 207.118 38.419 211.648 40.389 216.688C39.799 216.718 39.409 216.708 39.409 216.708C38.269 216.668 37.229 216.548 36.269 216.368C36.259 216.348 34.699 210.718 39.059 205.358C40.359 205.818 41.579 206.418 42.669 207.098Z" fill="#C2E1EF"/>
<path d="M32.629 215.248C31.299 214.658 30.249 213.938 29.439 213.228C28.949 208.728 32.379 204.458 32.549 204.438C33.659 204.318 34.799 204.368 35.929 204.548C31.979 211.518 32.799 215.318 32.629 215.248Z" fill="#C2E1EF"/>
<path d="M44.039 213.398C44.5913 213.398 45.039 212.951 45.039 212.398C45.039 211.846 44.5913 211.398 44.039 211.398C43.4867 211.398 43.039 211.846 43.039 212.398C43.039 212.951 43.4867 213.398 44.039 213.398Z" fill="#CCE7F2"/>
<path d="M32.5389 50.1484C31.9889 50.1484 31.5389 49.6984 31.5389 49.1484V42.1484C31.5389 41.5984 31.9889 41.1484 32.5389 41.1484C33.0889 41.1484 33.5389 41.5984 33.5389 42.1484V49.1484C33.5389 49.6984 33.0889 50.1484 32.5389 50.1484Z" fill="#D3E0E5"/>
<path d="M36.0389 46.6484H29.0389C28.4889 46.6484 28.0389 46.1984 28.0389 45.6484C28.0389 45.0984 28.4889 44.6484 29.0389 44.6484H36.0389C36.5889 44.6484 37.0389 45.0984 37.0389 45.6484C37.0389 46.1984 36.5889 46.6484 36.0389 46.6484Z" fill="#D3E0E5"/>
<path d="M9.03894 64.3984C6.82894 64.3984 5.03894 62.6084 5.03894 60.3984C5.03894 58.1884 6.82894 56.3984 9.03894 56.3984C11.2489 56.3984 13.0389 58.1884 13.0389 60.3984C13.0389 62.6084 11.2389 64.3984 9.03894 64.3984ZM9.03894 58.3984C7.93894 58.3984 7.03894 59.2984 7.03894 60.3984C7.03894 61.4984 7.93894 62.3984 9.03894 62.3984C10.1389 62.3984 11.0389 61.4984 11.0389 60.3984C11.0389 59.2984 10.1389 58.3984 9.03894 58.3984Z" fill="#D3E0E5"/>
<path d="M16.5389 82.3984C15.1589 82.3984 14.0389 81.2784 14.0389 79.8984C14.0389 78.5184 15.1589 77.3984 16.5389 77.3984C17.9189 77.3984 19.0389 78.5184 19.0389 79.8984C19.0389 81.2784 17.9089 82.3984 16.5389 82.3984ZM16.5389 79.3984C16.2589 79.3984 16.0389 79.6184 16.0389 79.8984C16.0389 80.1784 16.2589 80.3984 16.5389 80.3984C16.8189 80.3984 17.0389 80.1784 17.0389 79.8984C17.0389 79.6184 16.8089 79.3984 16.5389 79.3984Z" fill="#D3E0E5"/>
<path d="M152.539 125.148C151.989 125.148 151.539 124.698 151.539 124.148V117.148C151.539 116.598 151.989 116.148 152.539 116.148C153.089 116.148 153.539 116.598 153.539 117.148V124.148C153.539 124.698 153.089 125.148 152.539 125.148Z" fill="#D3E0E5"/>
<path d="M156.039 121.648H149.039C148.489 121.648 148.039 121.198 148.039 120.648C148.039 120.098 148.489 119.648 149.039 119.648H156.039C156.589 119.648 157.039 120.098 157.039 120.648C157.039 121.198 156.589 121.648 156.039 121.648Z" fill="#D3E0E5"/>
<path d="M101.749 212.358C101.459 212.358 101.169 212.238 100.969 211.988L96.539 206.568C96.189 206.138 96.2489 205.508 96.6789 205.158C97.109 204.808 97.7389 204.868 98.0889 205.298L102.519 210.718C102.869 211.148 102.809 211.778 102.379 212.128C102.199 212.288 101.969 212.358 101.749 212.358Z" fill="#D3E0E5"/>
<path d="M96.829 211.868C96.539 211.868 96.249 211.748 96.049 211.498C95.699 211.068 95.759 210.438 96.189 210.088L101.609 205.658C102.039 205.308 102.669 205.368 103.019 205.798C103.369 206.228 103.309 206.858 102.879 207.208L97.4589 211.638C97.2689 211.788 97.049 211.868 96.829 211.868Z" fill="#D3E0E5"/>
<path d="M161.039 135.898C159.659 135.898 158.539 134.778 158.539 133.398C158.539 132.018 159.659 130.898 161.039 130.898C162.419 130.898 163.539 132.018 163.539 133.398C163.539 134.778 162.409 135.898 161.039 135.898ZM161.039 132.898C160.759 132.898 160.539 133.118 160.539 133.398C160.539 133.678 160.759 133.898 161.039 133.898C161.319 133.898 161.539 133.678 161.539 133.398C161.539 133.118 161.309 132.898 161.039 132.898Z" fill="#D3E0E5"/>
</svg>
