<svg xmlns="http://www.w3.org/2000/svg" width="48" height="48" viewBox="0 0 48 48">
    <defs>
        <linearGradient id="prefix__a" x1="50%" x2="50%" y1="14.674%" y2="190.081%">
            <stop offset="0%" stop-color="#FFF"/>
            <stop offset="100%" stop-color="#FFD76B"/>
        </linearGradient>
    </defs>
    <g fill="none" fill-rule="evenodd">
        <path fill="#FFF" d="M48 23.997c0 10.547-6.796 19.5-16.252 22.722C29.316 47.553 26.71 48 24 48c-2.275 0-4.483-.317-6.572-.908C7.368 44.232 0 34.98 0 23.997 0 10.746 10.744 0 24 0s24 10.746 24 23.997"/>
        <g>
            <path fill="#FFD35B" d="M43.252 21.873c0 9.39-6.057 17.369-14.48 20.234-.11.04-.221.078-.333.106-1.304.433-2.664.732-4.07.888-.815.1-1.648.15-2.492.15-.2 0-.405 0-.605-.006-1.405-.038-2.782-.216-4.108-.516-.384-.083-.767-.183-1.144-.289-.028-.011-.062-.016-.09-.028-.188-.05-.366-.11-.555-.166-.322-.106-.637-.211-.949-.328-.244-.094-.483-.188-.722-.283C5.954 38.425.502 30.791.502 21.873.502 10.068 10.068.501 21.877.501c11.804 0 21.375 9.567 21.375 21.372" transform="translate(2.25 2.25)"/>
            <path fill="url(#prefix__a)" d="M13.58 19.683c8.909 0 12.556 4.112 12.667 6.68l.003.12V31.3c-1.665 1.184-3.507 2.136-5.48 2.807-.11.04-.221.077-.333.106-1.304.432-2.664.732-4.07.888-.815.1-1.648.15-2.492.15-.2 0-.405 0-.605-.006-1.405-.038-2.782-.217-4.108-.516-.384-.084-.767-.184-1.144-.29-.028-.01-.061-.015-.09-.027-.188-.05-.366-.11-.554-.166-.322-.106-.638-.211-.95-.328-.243-.094-.483-.188-.721-.283C3.98 32.92 2.37 31.989.91 30.872v-3.949c0-3.079 3.62-7.24 12.67-7.24zM13.58 0c3.999 0 7.313 3.243 7.24 7.24-.113 6.222-3.241 9.615-7.24 9.615-3.998 0-7.126-3.393-7.24-9.615C6.268 3.243 9.582 0 13.58 0z" transform="translate(2.25 2.25) translate(8.002 8.001)"/>
        </g>
    </g>
</svg>
