<svg xmlns="http://www.w3.org/2000/svg" xmlns:xlink="http://www.w3.org/1999/xlink" width="40" height="40" viewBox="0 0 40 40">
    <defs>
        <path id="a" d="M39.333 20c0 10.678-8.655 19.333-19.333 19.333C9.322 39.333.667 30.678.667 20 .667 9.322 9.322.667 20 .667 30.678.667 39.333 9.322 39.333 20"/>
    </defs>
    <g fill="none" fill-rule="evenodd">
        <path fill="#DCDFE2" d="M39.333 20c0 10.678-8.655 19.333-19.333 19.333C9.322 39.333.667 30.678.667 20 .667 9.322 9.322.667 20 .667 30.678.667 39.333 9.322 39.333 20"/>
        <mask id="b" fill="#fff">
            <use xlink:href="#a"/>
        </mask>
        <use fill="#141414" xlink:href="#a"/>
        <path fill="#505661" d="M19.08 29.806l4.126-2.112s-.198-1.155 1.023-2.013c.676-.452 2.079-.363 2.87.297.265-.165.99-2.706.232-3.927-.26.072-6.402 1.815-8.514-3.927-.097-.11-1.96 1.16-3.3 2.739.363.264 2.244 1.22 2.244 1.22s2.395 3.03 2.409 3.598c-.215.214-2.805 2.706-2.805 2.706l1.716 1.419z" mask="url(#b)"/>
        <path fill="#939DAD" d="M15.117 23.708c0-3.226 2.725-5.841 6.086-5.841 3.36 0 6.085 2.615 6.085 5.841 0 3.227-2.333 5.636-5.798 5.636-3.361 0-6.373-2.41-6.373-5.636m6.076-10.237c5.59 0 9.793 4.447 9.793 10.039 0 2.975-.562 4.563-1.246 5.438-.266.34 1.637.947 1.353 1.848-.198.627-6.92.522-9.751.545-2.555.021-12.105-.287-12.26-.908-.264-1.056 3.64-2.073 3.498-2.607-.213-.805-.52-1.23-.657-2.42-.225-1.052-.368-2.235-.267-3.355.063-.707-2.225-.613-1.75-1.09.166-.164 2.049-.43 2.146-.725.071-.219-.169-1.171-.033-1.42.104-.19.954-.128 1.089-.33.084-.125.11-.426.066-.725-.036-.24-.491-3.124-.363-3.201.33-.198.867 1.71 1.386 1.65.245-.03.464-.152.656-.296l.103-.1c1.848-1.65 3.809-2.343 6.237-2.343z" mask="url(#b)"/>
        <path fill="#505661" d="M22.17 20.538a3.22 3.22 0 1 1-.39 6.429 3.22 3.22 0 0 1 .39-6.429" mask="url(#b)"/>
        <path fill="#505661" d="M30.25 2.996c.021.472.03.945.052 1.418l-2.478-.707s-4.739 13.825-5.126 14.94c-.232.567.067 1.09.584 1.484a563.743 563.743 0 0 0-1.05 2.93c-.678 1.663 1.064 2.277 1.619 1.015.043-.038.516-1.376 1.165-3.256.657.081 1.24-.05 1.432-.485.104-.093 2.849-7.827 4.435-12.312.41 1.483.987 2.93 1.56 4.363.497 1.239.994 2.48 1.573 3.683.715 1.487 1.74 3.051 3.305 3.48-.201.72-.127 1.243.463 1.318.66.083 1.322.147 1.984.195a19.25 19.25 0 0 0 .064-1.557c0-7.067-3.858-13.234-9.582-16.509" mask="url(#b)"/>
        <path fill="#FFC300" d="M33.219 10.466c-.52-1.213-1.114-2.454-1.505-3.738a10.53 10.53 0 0 1-.333-1.415 5.439 5.439 0 0 1-.061-1.192A18.904 18.904 0 0 0 22.696.667c-4.17 4.474-8.032 8.696-8.483 9.373l-.006.008a1.066 1.066 0 0 0-.207.633c0 .592.578 1.143 6.206-.788 7.861-2.697 15.603 12.372 18.035 13.77.112.07.922.593 1.092.65.317-1.356.657-2.884.667-4.334-1.43-.74-2.74-2.058-3.029-2.568-.068-.118-3.627-6.654-3.752-6.945z" mask="url(#b)"/>
        <path fill="#A1A9B4" d="M11.2 15.042l-2.266-5.027c-.082-.174-.345-.085-.347.116l-.034 5.592c-.002.12-.108.22-.22.208l-4.222-.435c-.17-.017-.288.203-.177.328L6.5 18.692c.08.09.044.246-.072.307l-2.668 1.487c-.166.086-.149.334.025.358l4.373.348c.202.027.314-.271.135-.362l-1.718-.71c-.136-.07-.11-.285.042-.349l1.522-.497c.128-.054.173-.223.084-.317l-1.523-1.574c-.124-.131.017-.37.194-.328l2.883.51c.13.03.26-.1.237-.24l-.15-2.761c-.03-.18.183-.319.309-.201l.735.926c.143.134.38-.064.294-.247" mask="url(#b)"/>
    </g>
</svg>
