<svg xmlns="http://www.w3.org/2000/svg" width="20" height="20" viewBox="0 0 20 20">
    <path fill="#FF4C5A" fill-rule="evenodd" d="M15.103 11.468v5.159c0 .57-.48 1.032-1.07 1.032h-3.408v-6.19h4.478zm-5.899 0v6.19h-3.73c-.592 0-1.07-.461-1.07-1.031v-5.159h4.8zm0-4.127v3.096h-5.87V8.373c0-.57.478-1.032 1.07-1.032h4.8zm5.899 0c.59 0 1.07.462 1.07 1.032v2.064h-5.547V7.34zM6.543 6.31c-1.464 0-2.675-.779-2.675-2.064 0-1.504.93-2.58 2.676-2.58 1.382 0 2.445.889 3.21 2.582.764-1.693 1.827-2.581 3.21-2.581 1.745 0 2.674 1.075 2.674 2.579 0 1.285-1.21 2.064-2.675 2.064zm0-3.612c-1.107 0-1.605.577-1.605 1.548 0 .606.662 1.032 1.606 1.032h2.48l-.071-.19C8.353 3.525 7.58 2.76 6.66 2.701zm6.42 0c-.973 0-1.784.762-2.41 2.39l-.07.19h2.48c.894 0 1.535-.382 1.6-.938l.005-.094c0-.972-.497-1.548-1.605-1.548z"/>
</svg>
