<?xml version="1.0" encoding="UTF-8"?>
<svg width="48px" height="48px" viewBox="0 0 48 48" version="1.1" xmlns="http://www.w3.org/2000/svg" xmlns:xlink="http://www.w3.org/1999/xlink">
    <!-- Generator: Sketch 60.1 (88133) - https://sketch.com -->
    <title>Group</title>
    <desc>Created with Sketch.</desc>
    <g id="Page-1" stroke="none" stroke-width="1" fill="none" fill-rule="evenodd">
        <g id="ETA-Successful-Appstore-Rating01_selected" transform="translate(-24.000000, -463.000000)">
            <g id="Group" transform="translate(24.000000, 463.000000)">
                <path d="M24,0 C10.745,0 0,10.745 0,24 C0,37.255 10.745,48 24,48 C37.255,48 48,37.255 48,24 C48,10.745 37.255,0 24,0" id="Fill-1-Copy-2" fill="#FFD447"></path>
                <line x1="19" y1="24" x2="12" y2="21" id="Path-4-Copy-4" stroke="#771B1B" stroke-width="3" stroke-linecap="round" stroke-linejoin="round"></line>
                <line x1="36" y1="24" x2="29" y2="21" id="Path-4-Copy-5" stroke="#771B1B" stroke-width="3" stroke-linecap="round" stroke-linejoin="round" transform="translate(32.500000, 22.500000) scale(1, -1) translate(-32.500000, -22.500000) "></line>
                <circle id="Oval-Copy-4" fill="#771B1B" cx="16" cy="28" r="3"></circle>
                <circle id="Oval-Copy-5" fill="#771B1B" cx="32" cy="28" r="3"></circle>
                <path d="M18,36 C19,34.5 21,33 24,33 C27,33 29,34.5 30,36" id="Path-3-Copy-2" stroke="#DD3E3E" stroke-width="3" stroke-linecap="round" stroke-linejoin="round"></path>
            </g>
        </g>
    </g>
</svg>