<?xml version="1.0" encoding="UTF-8"?>
<svg width="48px" height="48px" viewBox="0 0 48 48" version="1.1" xmlns="http://www.w3.org/2000/svg" xmlns:xlink="http://www.w3.org/1999/xlink">
    <!-- Generator: Sketch 60.1 (88133) - https://sketch.com -->
    <title>Group 10</title>
    <desc>Created with Sketch.</desc>
    <g id="Page-1" stroke="none" stroke-width="1" fill="none" fill-rule="evenodd">
        <g id="ETA-Successful-Appstore-Rating05_selected" transform="translate(-288.000000, -464.000000)">
            <g id="Group-10" transform="translate(288.000000, 464.000000)">
                <g id="Group">
                    <path d="M24,0 C10.745,0 0,10.745 0,24 C0,37.255 10.745,48 24,48 C37.255,48 48,37.255 48,24 C48,10.745 37.255,0 24,0" id="Fill-1-Copy-5" fill="#FFD447"></path>
                    <path d="M17,27.5009461 C17,30.8288888 20.1715729,34 24.5,34 C28.8284271,34 32,30.8288888 32,27.5009461 C32,26.4947317 31.0285774,25.7739546 30.065385,26.0654985 L29.6028043,26.2055148 C28.0086365,26.6628366 26.1726443,27.0010189 24.5,27.0010189 C23.2991369,27.0010189 21.9947386,26.827428 20.6914656,26.5370075 C20.3466017,26.4601583 20.0209307,26.3792658 19.7195314,26.2975939 L19.1934394,26.1471827 L18.9781022,26.0793872 C18.006083,25.7525705 17,26.4755899 17,27.5009461 Z" id="Path-3-Copy" fill="#DD3E3E" fill-rule="nonzero"></path>
                    <path d="M18,22 C18,20.3431458 16.6568542,19 15,19 C13.3431458,19 12,20.3431458 12,22" id="Oval-Copy-2" stroke="#771B1B" stroke-width="3" stroke-linecap="round" stroke-linejoin="round"></path>
                    <path d="M36,22 C36,20.3431458 34.6568542,19 33,19 C31.3431458,19 30,20.3431458 30,22" id="Oval-Copy-3" stroke="#771B1B" stroke-width="3" stroke-linecap="round" stroke-linejoin="round"></path>
                </g>
            </g>
        </g>
    </g>
</svg>