<?xml version="1.0" encoding="UTF-8"?>
<svg width="48px" height="48px" viewBox="0 0 48 48" version="1.1" xmlns="http://www.w3.org/2000/svg" xmlns:xlink="http://www.w3.org/1999/xlink">
    <!-- Generator: Sketch 60.1 (88133) - https://sketch.com -->
    <title>Group</title>
    <desc>Created with Sketch.</desc>
    <g id="Page-1" stroke="none" stroke-width="1" fill="none" fill-rule="evenodd">
        <g id="ETA-Successful-Appstore-Rating02_selected" transform="translate(-90.000000, -464.000000)">
            <g id="Group" transform="translate(90.000000, 464.000000)">
                <path d="M24,0 C10.745,0 0,10.745 0,24 C0,37.255 10.745,48 24,48 C37.255,48 48,37.255 48,24 C48,10.745 37.255,0 24,0" id="Fill-1-Copy" fill="#FFD447"></path>
                <path d="M18,34 C19,32.5 21,31 24,31 C27,31 29,32.5 30,34" id="Path-3-Copy" stroke="#DD3E3E" stroke-width="3" stroke-linecap="round" stroke-linejoin="round"></path>
                <path d="M18,26 C18,24.3431458 16.6568542,23 15,23 C13.3431458,23 12,24.3431458 12,26" id="Oval-Copy-2" stroke="#771B1B" stroke-width="3" stroke-linecap="round" stroke-linejoin="round" transform="translate(15.000000, 24.500000) scale(1, -1) translate(-15.000000, -24.500000) "></path>
                <path d="M36,26 C36,24.3431458 34.6568542,23 33,23 C31.3431458,23 30,24.3431458 30,26" id="Oval-Copy-3" stroke="#771B1B" stroke-width="3" stroke-linecap="round" stroke-linejoin="round" transform="translate(33.000000, 24.500000) scale(1, -1) translate(-33.000000, -24.500000) "></path>
            </g>
        </g>
    </g>
</svg>