<svg xmlns="http://www.w3.org/2000/svg" width="72" height="72" viewBox="0 0 72 72">
    <g fill="none" fill-rule="evenodd">
        <path fill="#F0F0F0" d="M36 0C16.118 0 0 16.118 0 36c0 19.883 16.118 36 36 36s36-16.117 36-36C72 16.118 55.882 0 36 0"/>
        <path fill="#DFE0ED" d="M63.91 26.762v-4.74a.506.506 0 0 0-.863-.357l-4.137 4.137V63.77a36.23 36.23 0 0 0 5-5.037V26.762z"/>
        <path fill="#FFC300" d="M23.734 17.351a.78.78 0 0 1 1.1 0l5.41 5.411 5.41-5.411a.78.78 0 0 1 1.1 0l5.41 5.411 5.41-5.411a.78.78 0 0 1 1.1 0l4.843 4.843 4.53-4.529a.505.505 0 0 1 .863.357V63.77A35.855 35.855 0 0 1 36 72c-8.939 0-17.11-3.265-23.405-8.658V18.028c0-.453.547-.68.867-.359l4.977 4.977zm21.988 43.952H42.59l-.115.006a.983.983 0 0 0-.87.977v.808l.007.115c.057.49.473.87.978.87h3.13l.115-.007a.984.984 0 0 0 .87-.978v-.808l-.007-.114a.984.984 0 0 0-.977-.87zm8.073 0h-3.13l-.115.006a.983.983 0 0 0-.87.977v.808l.007.115c.057.49.472.87.977.87h3.131l.115-.007a.984.984 0 0 0 .87-.978v-.808l-.007-.114a.984.984 0 0 0-.978-.87zm-17.522 0h-16.37l-.115.006a.983.983 0 0 0-.869.977v.808l.007.115c.057.49.472.87.977.87h16.37l.115-.007a.984.984 0 0 0 .87-.978v-.808l-.007-.114a.984.984 0 0 0-.977-.87zm-17.354-5.85l-.09.009a.5.5 0 0 0 .09.992h34.86l.09-.008a.5.5 0 0 0-.09-.992zm18.483-7.569h-17.5l-.114.007a.983.983 0 0 0-.868.977v.808l.007.115a.983.983 0 0 0 .976.868h17.499l.115-.007a.984.984 0 0 0 .869-.976v-.808l-.007-.115a.984.984 0 0 0-.977-.869zm8.32 0H42.59l-.115.006a.983.983 0 0 0-.87.978v.808l.007.114a.983.983 0 0 0 .978.869h3.13l.115-.007a.984.984 0 0 0 .87-.976v-.808l-.007-.115a.984.984 0 0 0-.977-.87zm8.073 0h-3.13l-.115.006a.983.983 0 0 0-.87.978v.808l.007.114a.983.983 0 0 0 .977.869h3.131l.115-.007a.984.984 0 0 0 .87-.976v-.808l-.007-.115a.984.984 0 0 0-.978-.87zM34.358 41.27H19.903l-.115.006a.984.984 0 0 0-.868.978v.808l.007.115c.056.49.472.869.976.869h14.455l.115-.007a.983.983 0 0 0 .869-.977v-.808l-.007-.115a.984.984 0 0 0-.977-.87zm11.364 0H42.59l-.115.006a.984.984 0 0 0-.87.978v.808l.007.115c.057.49.472.869.978.869h3.13l.115-.007a.983.983 0 0 0 .87-.977v-.808l-.007-.115a.984.984 0 0 0-.977-.87zm8.073 0h-3.13l-.115.006a.984.984 0 0 0-.87.977v.808l.007.115c.057.49.472.87.977.87h3.131l.115-.007a.984.984 0 0 0 .87-.978v-.808l-.007-.114a.985.985 0 0 0-.978-.87zM45.722 34.7H42.59l-.115.007a.983.983 0 0 0-.87.976v.808l.007.115c.057.49.472.87.978.87h3.13l.115-.007a.983.983 0 0 0 .87-.978v-.808l-.007-.114a.983.983 0 0 0-.977-.869zm-8.32 0h-17.5l-.114.007a.983.983 0 0 0-.868.976v.808l.006.115c.057.49.473.87.977.87h17.499l.115-.007a.983.983 0 0 0 .869-.978v-.808l-.007-.114a.983.983 0 0 0-.977-.869zm16.393 0h-3.13l-.115.007a.983.983 0 0 0-.87.976v.808l.007.115c.057.49.472.869.977.869h3.131l.115-.007a.984.984 0 0 0 .87-.977v-.808l-.007-.115a.984.984 0 0 0-.978-.868zm-5.2-7.96H24.104l-.115.007a.983.983 0 0 0-.868.977v1.301l.006.115a.983.983 0 0 0 .977.868h24.49l.115-.006a.984.984 0 0 0 .87-.977v-1.3l-.007-.115a.984.984 0 0 0-.977-.87z"/>
    </g>
</svg>
