<svg xmlns="http://www.w3.org/2000/svg" xmlns:xlink="http://www.w3.org/1999/xlink" width="222" height="126" viewBox="0 0 222 126">
    <defs>
        <path id="prefix__a" d="M51.882 110.25c28.72-3.706 49.103-3.706 76.897-1.853 27.795 1.853 62.244-3.973 62.244-39.373 0-37.75-12.939-66.88-50.45-68.2-31.1-1.092-41.388 32.238-76.647 26.044-14.733-2.59-46.553-13.376-57.44 13.897C1.535 53.16-.927 69.485.497 86.834c4.846 17.835 22.664 27.122 51.384 23.416z"/>
        <path id="prefix__c" d="M0 0.888L43.391 0.888 43.391 36.3 0 36.3z"/>
    </defs>
    <g fill="none" fill-rule="evenodd">
        <path fill="#EBC6EB" d="M178.005 92.974l3.643 9.373c-3.763 1.325-15.63 6.698-16.958 5.814-1.55-4.633-3.435-4.869-7.419-5.97l.373 3.349c-3.097.44-8.396-.883-9.515-2.43l-.295-.95c-.796-.088-2.647 1.936-1.766 2.904.882.969 2.558 1.76 2.558 1.76-.175 1.408 1.324 2.552 1.856 2.728.706 1.322 2.956 4.597 9.175 5.457 7.046.975 14.942.414 27.29-1.563 7.738-1.374 9.96-4.967 10.133-6.2.175-1.23-1.174-9.356-4.47-15.815 0-.003-13.821 1.176-14.605 1.543"/>
        <path fill="#B4E6F7" d="M31.98 80.874c-2.51 2.196-13.481 19.39-14.735 30.173 0 2.5 10.188 4.059 18.028 4.059 7.842 0 17.869 0 19.123-.783 1.255-.783 2.816-3.896 2.816-3.896 1.255.154 2.036-1.876 1.881-2.97 1.41-.313 2.037-2.032 1.096-2.97-.338-.266-.75-.424-1.18-.454l-.246 1.022c-1.68.818-6.802 1.725-9.546 1.308.287-1.512.778-4.248.778-4.248-1.68.367-3.81 1.598-4.217 2.778-.408 1.18-1.693 4.127-1.693 4.127-4.892-.133-9.123-3.427-14.163-4.74 2.5-3.597 7.023-9.895 9.668-12.533 4.99-4.978.585-15.59-7.61-10.873"/>
        <g transform="translate(12.97 6.485)">
            <mask id="prefix__b" fill="#fff">
                <use xlink:href="#prefix__a"/>
            </mask>
            <use fill="#F8ECEC" xlink:href="#prefix__a"/>
            <circle cx="33.499" cy="3.023" r="39.302" fill="#FFFCFC" mask="url(#prefix__b)" opacity=".595"/>
            <circle cx="150.901" cy="32.752" r="15.62" fill="#FFFCFC" mask="url(#prefix__b)" opacity=".595"/>
            <circle cx="107.064" cy="88.681" r="39.302" fill="#FFFCFC" mask="url(#prefix__b)" opacity=".595"/>
            <g mask="url(#prefix__b)">
                <g>
                    <path fill="#F2E4E4" d="M72.026 22.72c-.073-1.646-.664-4.958-1.002-5.716-.373-.835-1.02-1.113-1.02-.276 0 .836.534 4.69-.212 4.6-.746-.09-.652-1.3-1.022-2.88-.371-1.582-1.548-4.495-2.293-4.867-.555-.278-.693.534-.728.96-.027-.006-.056-.006-.083 0-.341-.87-1.548-1.768-2.062-1.342-.56.465.185 1.849.647 3.694.266 1.054 1.054 4.281.65 4.532-.74.466-2.316-4.344-3.34-5.365-.494-.493-1.205-.373-.926.275.183.43 2.172 7.016 2.172 7.016.183.955.417 1.901.694 2.834l-.226.044c-1.399.278-2.94-1.78-4.28-1.628-1.17.133-.193.985 1.262 2.325.897.825 4.035 4.456 6.285 5.023.595 4.163-1.481 13.373-1.196 17.748-.347-.08-.69-.185-1.022-.318l-.393-.16c-1.741-.74-4.133-2.12-6.633-3.573l-.04-.023-.378-.22-.363-.211-.33-.192-.327-.187-.332-.192-.322-.185-.33-.19-.32-.18-.327-.186-.314-.175-.325-.18-.313-.174-.319-.174-.306-.166-.318-.168-.296-.157-.314-.163-.292-.149-.306-.152-.278-.138-.304-.145-.267-.125-.3-.136-.246-.114c-.098-.044-.195-.083-.294-.122-.099-.04-.158-.07-.233-.1l-.3-.115-.207-.079c-.11-.042-.213-.075-.32-.111-.051-.016-.107-.038-.16-.053-.153-.05-.303-.094-.447-.133-.827-.345-1.84-.414-3.458-.268h-.082l-.399.04h-.086l-.443.052-.383.05h-.038l-.185.024h-.04l-.107.016h-.07l-.326.043-.088.015h-.118l-.22.032-.094.012-.363.058h-.067c-.362.053-.741.112-1.15.178-.023-.972.02-1.945.131-2.913.041-.388.088-.76.14-1.108l.051-.015c4.639-1.511 5.633-8.324 5.009-14.182.386-1.805.882-3.608 1.003-5.245 1.58 1.97 1.035 4.772.855 6.979-.277 3.398 1.075 4.219 1.933 4.131.923-.092 1.382-1.102 1.197-1.194-.524-.263-.367.553-1.288.553-.922 0-.922-2.114-.83-3.857.092-1.745.37-4.96-.092-6.612-.546-1.864-1.716-3.483-3.313-4.59v.078c-.766-.656-1.865-1.185-3.405-1.55-6.13-2.837-12.432-1.23-16.053 2.16-.599-3.017-3.112-5.283-6.127-5.283-3.458 0-3.259 2.885-3.259 6.56 0 3.679.418 7.405 3.876 7.405.75.003 1.492-.176 2.16-.517.137 2.155.982 4.205 2.409 5.831-.205.502-.244 1.054-.115 1.579.294 1.114 1.102 2.02 2.176 2.44.116.382.52.598.902.483.258-.079.45-.289.502-.552.062-.039.12-.086.173-.137.747 1.085 1.62 2.077 2.606 2.955 0 .233 0 .476.015.727v.35c.033 2.256-.147 4.513-.54 6.736h-.11l-.26.019-.741.062-.156.013c-.38.032-.74.068-1.104.109h-.109l-.406.047-.164.02h-.079l-.718.093c-5.337.74-7.869 2.135-9.592 4.098-.049.044-.106.098-.164.156l-.047.044c-.052.053-.108.11-.165.174l-.023.022c-.067.073-.135.151-.208.247l-.051.059-.2.246-.034.04c-.082.098-.165.203-.247.312l-.044.058-.247.313-.038.048-.295.397c-.008.006-.015.017-.022.026-.097.133-.197.27-.297.413l-.033.044c-.22.305-.45.633-.687.984l-.02.033c-.243.35-.49.721-.742 1.113l-.017.027c-.259.393-.524.807-.796 1.23v.014c-.274.432-.551.883-.838 1.35-4 6.548-8.724 15.992-9.52 22.848 0 1.13 2.086 2.07 5.097 2.761 25.44 2.566 39.309 3.756 41.605 3.571-.32-.928-.53-2.118-.63-3.57 1.314-3.232 3.506-8.544 4.866-11.36.063-.13.122-.26.181-.392.025-.054.047-.11.07-.165.021-.053.064-.148.093-.22l.08-.204c.024-.07.048-.118.068-.177l.082-.233c.027-.076.035-.101.05-.15.029-.086.055-.174.079-.258l.036-.121c.026-.09.044-.177.067-.266l.029-.11c.022-.096.04-.188.06-.282 0-.031 0-.065.02-.098.017-.097.035-.195.049-.295v-.081c.015-.103.025-.203.034-.304v-.076c0-.107.016-.21.023-.316V63.794c0-.113-.015-.227-.027-.343v-.05c0-.115-.026-.23-.041-.346v-.05c-.018-.118-.038-.247-.06-.357v-.044c-.022-.12-.05-.246-.076-.367v-.042c-.028-.126-.06-.247-.094-.377v-.036c-.035-.129-.073-.246-.114-.387v-.036c-.043-.132-.088-.265-.134-.398v-.036c-.05-.133-.098-.27-.153-.407-.003-.012-.007-.022-.012-.032-.051-.137-.109-.278-.17-.42l-.013-.033c-.06-.14-.123-.284-.19-.43-.006-.008-.01-.019-.012-.031l-.213-.443-.013-.029c-.072-.15-.15-.303-.232-.456-.015-.01-.028-.017-.044-.023l-.247-.471-.015-.026c-.086-.159-.18-.325-.274-.491v-.022c-.096-.166-.196-.335-.299-.507v-.017l-.318-.525v-.015c-.11-.177-.224-.358-.343-.542-.122-.185-.248-.375-.37-.564.854.31 1.836.656 2.903 1.02 6.546 2.237 16.256 5.072 18.77 3.203 3.866-2.89 3.293-16.121.266-28.497.062-.376.757-4.805-.403-8.447zM173.383 57.29c-3.54-8.165-5.975-15.448-14.385-18.537 0 0-4.25-1.586-11.342-2.12l-.429-.028h-.19l-.578-.035h-.193l-.594-.026h-.197l-.802-.029h-.467c-.762-2.767-1.645-6.137-2.253-8.487 1.15-.386 2.026-1.323 2.329-2.494.188-.735.032-1.518-.428-2.124.141.103.258.233.344.384 2.717.152 1.54-2.69 1.54-2.69 2.314-.492 2.314-2.977.29-3.94 2.985-1.633 2.12-3.843.387-4.803 1.347-3.448-.387-6.156-3.18-4.799-2.405-4.266-6.45-4.553-8.001-3.017-2.504-2.216-6.935-2.305-6.55.864-4.622-1.248-8.572 1.92-5.201 4.513-3.179-.194-4.43 4.802.097 5.762.246-.924.577-1.825.577-1.825s.023-.042.064-.107c-2.32 6.234-3.61 19.001 3.115 21.237.885.293 1.82.408 2.751.338l.65 2.312-.774.154-.226.045c-.426.086-.855.177-1.288.277-3.62.819-7.169 1.916-10.619 3.284-2.111 1.186-7.829 4.402-12.348 6.384 0 0 .01.092.04.246-1.042.53-2.383 1.163-3.835 1.725l-.317-2.2-.027.023c-.875-5.27-1.918-10.221-1.283-16.568 2.501-.455 6.138-4.679 7.162-5.608 1.612-1.479 2.694-2.43 1.4-2.578-1.483-.17-3.194 2.116-4.743 1.805-.087-.02-.17-.035-.246-.048.31-1.034.565-2.082.77-3.141 0 0 2.47-7.453 2.682-7.924.31-.723-.89-1.377-1.445-.824-1.134 1.13-2.89 6.997-3.705 6.482-.447-.278.722-5.042 1.137-6.174.414-1.133.72-2.367.1-2.88-.57-.475-1.75 0-2.093.896-.091-.022-.188.01-.247.083-.388-.3-.91-.359-1.355-.155-.825.412-1.236 3.293-1.653 5.043-.417 1.752-.309 3.088-1.134 3.19-.824.101-.413-3.91-.413-4.837 0-.926-1.136-1.337-1.548-.412-.375.842-.725 4.733-.515 6.794-1.345 4.22-.443 9.39-.443 9.39-.741 6.587-2.576 15.268-2.979 19.62-.401 4.35-.19 12.822 2.798 14.262 2.964.897 12.44-1.156 16.892-3.047.398.47.858.887 1.362 1.244 0 0 4.595-1.477 7.872-1.985.049.126.085.247.141.381 2.47 5.542 4.364 14.346 4.364 20.678 3.111.479 4.91.718 5.395.718 8.134 0 18.854-.753 32.159-2.26l.015-.127c0-.035 0-.07.012-.105l.033-1.19c5.442.746 12.435.175 14.62-1.224 1.89-1.207 1.388-3.966 1.388-3.966.177-1.23-1.165-9.37-4.46-15.82z" transform="translate(4.275 30.297)"/>
                    <path fill="#A3DCEF" d="M45.764 38.161c4.592 1.214 14.122 8.127 17.59 8.846-.29-4.465 1.877-13.968 1.152-18.003.29-1.294 4.623-2.015 5.927-.574 3.033 12.384 3.61 25.634-.288 28.515-3.899 2.88-24.987-5.465-24.987-5.465s-3.693-7.333.606-13.319" transform="translate(4.275 30.297)"/>
                    <path fill="#A3DCEF" d="M70.43 28.485s-3.193 1.478-5.71.813c-2.696-1.856-3.909-8.637-3.909-8.637 2.051-1.856 7.731-1.763 9.223-.65 1.21 3.808.397 8.474.397 8.474" transform="translate(4.275 30.297)"/>
                    <path fill="#A3DCEF" d="M70.034 20.011c-.077-1.645-.667-4.958-1.005-5.717-.373-.834-1.02-1.112-1.02-.275 0 .837.534 4.678-.21 4.601-.744-.08-.651-1.301-1.024-2.882-.373-1.581-1.548-4.494-2.29-4.866-.743-.372-.74 1.203-.74 1.203-.187-.928-1.577-2.036-2.136-1.574-.558.465.185 1.85.65 3.695.264 1.055 1.052 4.28.65 4.532-.74.465-2.314-4.345-3.339-5.364-.494-.492-1.208-.374-.929.276.182.427 2.174 7.013 2.174 7.013s8.006 1.124 9.22-.642M66.307 25.128c-1.116-1.578-2.979-2.042-5.027-1.578-1.399.278-2.942-1.78-4.282-1.628-1.169.133-.19.984 1.263 2.325.921.845 4.198 4.65 6.46 5.06 3.077-1.4 1.586-4.179 1.586-4.179" transform="translate(4.275 30.297)"/>
                    <path fill="#6CB2CA" d="M66.79 26.919c-.139 0-.248-.11-.248-.247 0-1.433-1.235-2.565-3.151-2.882-.135-.024-.226-.151-.203-.284.024-.135.15-.224.285-.203 2.164.36 3.562 1.682 3.562 3.37 0 .135-.11.246-.246.246M65.322 18.37c-.136 0-.247-.11-.247-.245-.074-2.611-1.544-5.91-1.558-5.958-.056-.124 0-.269.124-.325.123-.056.269-.001.325.123l.001.003c.062.137 1.525 3.448 1.6 6.141 0 .136-.108.247-.245.247v.015zM63.223 21.006c-.138.008-.255-.095-.262-.231-.01-.136.095-.254.232-.262 1.134-.137 4.199-.542 4.725-.739.127-.048.27.017.318.144.049.127-.015.269-.142.317-.68.246-4.416.717-4.84.768l-.03.003z" transform="translate(4.275 30.297)"/>
                    <path fill="#675673" d="M55.305 42.956c-3.49-2.027-7.162-4.169-9.54-4.795-4.3 5.986-.607 13.319-.607 13.319s2.63 1.042 6.204 2.263l.293.04c.14-3.963 1.813-8.612 3.65-10.827" transform="translate(4.275 30.297)"/>
                    <path fill="#675673" d="M14.734 44.091c2.418-2.755 6.421-4.376 17.552-4.68 8.777-1.404 11.607-2.03 13.479-1.248 1.872.784 1.728 13.13 1.728 13.13 4.693 6.717 5.484 10.158 3.459 14.377-2.028 4.218-5.956 14.067-5.956 14.067H22.57s-2.82-12.662-4.691-18.444c-1.87-5.782-5.34-14.692-3.144-17.202" transform="translate(4.275 30.297)"/>
                    <path fill="#A3DCEF" d="M24.326 40c1.409 2.833 4.916 7.34 11.113 6.39 5.05-.777 5.534-5.748 5.433-8.332-1.975.262-4.692.738-8.589 1.352-2.662.053-5.317.248-7.957.59" transform="translate(4.275 30.297)"/>
                    <path fill="#E38A92" d="M46.809 50.478c-.71-5.894-3.838-11.467-4.504-12.586-.673.062-1.449.16-2.366.295 2.677 4.604 3.83 11.103 3.83 11.103-4.892 1.971-14.412 1.844-14.412 1.844-.264-3.693-1.45-8.41-3.556-11.328l-.741.085-1.932.287c5.818 7.78 4.528 26.642-5.272 21.1 1.878 5.782 4.69 18.444 4.69 18.444-.25.675-.534 1.289-.85 1.84 3.819.813 11.529 3.251 23.557 2.021-.196-1.606-.293-2.894-.293-3.861 0 0 4.128-9.052 6.108-13.643 1.98-4.59 1.137-7.995-3.42-14.563l-.839-1.038z" transform="translate(4.275 30.297)"/>
                    <g transform="translate(4.275 30.297) translate(0 42.023)">
                        <mask id="prefix__d" fill="#fff">
                            <use xlink:href="#prefix__c"/>
                        </mask>
                        <path fill="#B4E6F7" d="M14.734 2.068C12.225 4.265 1.254 21.458 0 32.241c0 2.5 10.188 4.06 18.028 4.06 7.841 0 17.869 0 19.122-.784 1.255-.783 2.817-3.895 2.817-3.895 1.255.154 2.035-1.876 1.88-2.97 1.41-.314 2.038-2.032 1.097-2.971-.338-.266-.75-.423-1.18-.453l-.247 1.021c-1.68.818-6.801 1.725-9.545 1.308.287-1.512.778-4.248.778-4.248-1.68.368-3.811 1.598-4.217 2.779-.408 1.179-1.694 4.126-1.694 4.126-4.891-.133-9.122-3.426-14.162-4.74 2.5-3.596 7.023-9.895 9.668-12.533 4.99-4.978.585-15.589-7.611-10.873" mask="url(#prefix__d)"/>
                    </g>
                    <path fill="#6CB2CA" d="M37.879 72.555c-.135.43 2.912-.445 3.951-1.243.084-.205.09-.433.016-.642-1.497.66-3.834 1.46-3.967 1.885M37.697 74.33c.218-.46 2.269-.69 2.269-.69-.134.311-.18.3-.388.738-.676.228-2.1.412-1.881-.047" transform="translate(4.275 30.297)"/>
                    <path fill="#ABDFEF" d="M37.427 76.088c.026.29 1.005.102 1.005.102l.522-.725s-1.553.332-1.527.623" transform="translate(4.275 30.297)"/>
                    <path fill="#675673" d="M9.523 51.531c4.157.442 8.995 3.67 9.383 7.253l.162-.012c1.022-1.33 2.115-2.603 3.278-3.813 4.985-4.971.582-15.584-7.614-10.86-.914.798-2.952 3.585-5.232 7.33l.023.102" transform="translate(4.275 30.297)"/>
                    <path fill="#A3DCEF" d="M28.525 28.938s.785 7.19-.784 12.503c3.292 5.16 10.188.784 10.814-.313-1.254-2.653.158-8.907.158-8.907l-10.188-3.283z" transform="translate(4.275 30.297)"/>
                    <path fill="#6CB2CA" d="M28.72 32.87c0-.891-.036-1.683-.073-2.318.556.346.92.878 1.507 1.249.81.471 1.648.903 2.506 1.29 1.796.824 3.806 1.077 5.754.721-.082.51-.17 1.11-.249 1.752-3.679 1.857-7.673.135-9.445-2.693" transform="translate(4.275 30.297)"/>
                    <path fill="#A3DCEF" d="M41.057 12.268c2.882 4.203 4.63 19.791-2.688 22.164-6.947 2.27-14.341-5.46-15.155-13.08-.83-7.582 4.484-15.503 17.843-9.084" transform="translate(4.275 30.297)"/>
                    <path fill="#47ADD0" d="M37.09 22.42l-1.274-.096c-.288 3.073-.357 5.141 2.154 6.403.784.389 1.697-.025.639-1.37-.811-1.042-1.906-2.543-1.52-4.938" transform="translate(4.275 30.297)"/>
                    <path fill="#297CBE" d="M23.78 26.218c-2.763-1.93-5.25-6.896-2.672-12.124 2.578-5.225 10.59-8.722 18.326-5.14-1.564 2.215-3.685 14.233-13.351 13.958-.46 1.561-2.303 3.306-2.303 3.306" transform="translate(4.275 30.297)"/>
                    <path fill="#297CBE" d="M37.785 12.076c1.66 1.194 4.974 3.123 5.527 8.54 1.013-4.96 3.129-10.011-3.867-11.663-3.785-.458-1.66 3.123-1.66 3.123" transform="translate(4.275 30.297)"/>
                    <path fill="#A3DCEF" d="M22.346 26.606c.365 1.527 1.896 2.668 3 2.564 1.103-.103 1.41-1.28 1.264-2.845-.146-1.563-1.386-2.756-2.49-2.652-1.104.103-2.14 1.4-1.774 2.933" transform="translate(4.275 30.297)"/>
                    <path fill="#297CBE" d="M42.84 10.423c1.6 1.108 2.769 2.729 3.316 4.59.46 1.653.185 4.867.092 6.614-.09 1.746-.092 3.855.828 3.855.92 0 .764-.815 1.29-.55.185.09-.278 1.1-1.196 1.194-.863.086-2.212-.74-1.934-4.133.207-2.579.92-5.97-1.842-7.898-.646-1.468-.553-3.672-.553-3.672M23.503 12.49c0 3.676-2.158 7.209-5.617 7.209-3.461 0-6.526-3.303-6.526-6.98 0-3.677 2.436-6.897 5.893-6.897s6.25 2.99 6.25 6.668" transform="translate(4.275 30.297)"/>
                    <path fill="#FFF" d="M25.656 29.8c.413 0 .75.377.75.842 0 .464-.337.842-.75.842-.414 0-.75-.378-.75-.842 0-.465.336-.842.75-.842" transform="translate(4.275 30.297)"/>
                    <path fill="#6694A4" d="M31.974 69.576s1.152-6.72 1.447-7.212c.296-.49 8.74-.685 9.035-.293.292.393-.937 6.197-.937 6.197s-5.1 2.052-9.545 1.308" transform="translate(4.275 30.297)"/>
                    <path fill="#3B5C67" d="M38.665 64.621c0 .432-.311.783-.695.783-.383 0-.694-.35-.694-.783 0-.434.31-.783.694-.783.384 0 .695.35.695.783zM32.706 69.269L33.978 62.843 34.219 62.891 32.949 69.316z" transform="translate(4.275 30.297)"/>
                    <path fill="#6CB2CA" d="M12.68 67.487c-1.52-1.013-3.64-.834-3.64-.834 1.422-.478 2.939-.599 4.42-.352l-.78 1.186zM63.29 47.076c0 1.342.245 3.855-.044 3.554-.293-.3-2.051-4.399-2.051-4.399l2.095.845z" transform="translate(4.275 30.297)"/>
                    <path fill="#EBC6EB" d="M113.253 57.936c-3.976 1.971-14.541 4.38-17.71 3.424-2.987-1.44-2.767-10.043-2.437-14.42.461-6.073 2.003-13.632 2.62-19.457 1.987-1.803 6.322.901 6.322.901-.723 7.21.725 12.615 1.63 18.741 2.057-.81 4.05-1.774 5.963-2.884 0 0 3.796 6.307 3.612 13.695" transform="translate(4.275 30.297)"/>
                    <path fill="#EF945C" d="M121.813 57.966c3.541 9.502 5.675 16.907 5.08 23.684 5.657.442 10.683.442 15.076 0 4.26-.429 10.778-1.045 19.553-1.848 0 0 4.34-17.642 3.454-28.456-.887-10.814-3.984-15.225-3.984-15.225s-17.714-6.634-41.172 2.637c-2.222 2.216-1.548 9.707 1.993 19.208z" transform="translate(4.275 30.297)"/>
                    <path fill="#E17F43" d="M156.04 66.445c-.69 3.586-4.02 14.086-4.02 14.086l9.502-.73s3.621-12.597 3.635-23.027c-2.437-1.808-5.4-2.772-8.437-2.745.932 4.22.008 8.832-.68 12.416z" transform="translate(4.275 30.297)"/>
                    <path fill="#EBC6EB" d="M137.745 43.17c6.468.35 11.131-5.115 11.895-9.18-6.438-.46-12.907.036-19.197 1.477-.595 3.206.65 7.345 7.302 7.703" transform="translate(4.275 30.297)"/>
                    <path fill="#EF945C" d="M123.56 57.39c-2.964-.018-9.76 2.165-9.76 2.165-4.693-3.246-6.325-14.42-6.325-14.42 4.517-1.97 10.235-5.198 12.348-6.383 3.736 6.75 3.736 18.638 3.736 18.638" transform="translate(4.275 30.297)"/>
                    <path fill="#EBC6EB" d="M131.445 30.423l1.83 6.526s7.994 2.978 13.195-2.112c-1.349-4.804-3.274-12.39-3.274-12.39l-11.75 7.976z" transform="translate(4.275 30.297)"/>
                    <path fill="#D298F0" d="M144.137 26.343c-.494-1.85-.56-2.402-.776-3.244l-.07-.168-11.31 9.401.652 1.451c1.806.33 7.589.023 11.504-7.44" transform="translate(4.275 30.297)"/>
                    <path fill="#EBC6EB" d="M127.417 8.628c-2.881 4.204-5.927 21.11 1.912 23.714 6.932 2.304 15.119-7.012 15.94-14.632.83-7.58-4.491-15.5-17.852-9.082" transform="translate(4.275 30.297)"/>
                    <path fill="#EBC6EB" d="M146.267 22.848c-.366 1.53-1.896 2.668-3 2.566-1.109-.101-1.41-1.28-1.264-2.848.146-1.566 1.383-2.752 2.49-2.651 1.106.1 2.143 1.406 1.774 2.933" transform="translate(4.275 30.297)"/>
                    <path fill="#D298F0" d="M130.092 19.085h1.637c.29 3.073.673 5.38-1.73 6.82-1.515.907-2.405-.385-1.347-1.725.805-1.023 1.825-2.695 1.44-5.095" transform="translate(4.275 30.297)"/>
                    <path fill="#A9454E" d="M125.476 7.278c-3.178-.192-4.43 4.803.096 5.764.249-.924.577-1.826.577-1.826s.99-1.915 2.787-.647c1.482 1.038 5.291 1.323 7.615.936 3.634-.608 5.297 1.248 5.297 1.248-1.73 2.785-1.73 6.338.771 9.218.555-2.134 2.997-1.908 3.562-.865 2.717.156 1.542-2.686 1.542-2.686 2.312-.48 2.312-2.978.288-3.94 2.986-1.633 2.12-3.842.385-4.803 1.35-3.448-.385-6.157-3.179-4.802-2.405-4.227-6.451-4.514-7.993-2.978-2.504-2.216-6.935-2.304-6.548.864-4.622-1.245-8.57 1.926-5.2 4.517" transform="translate(4.275 30.297)"/>
                    <path fill="#EBC6EB" d="M95.719 27.48s3.543 1.62 6.326.902c2.99-2.06 4.33-9.573 4.33-9.573-2.269-2.059-8.564-1.956-10.216-.72-1.334 4.22-.44 9.39-.44 9.39" transform="translate(4.275 30.297)"/>
                    <path fill="#EBC6EB" d="M96.166 18.088c-.205-2.056.141-5.95.517-6.794.412-.925 1.548-.514 1.548.413 0 .925-.413 4.94.413 4.839.825-.102.722-1.44 1.136-3.202.412-1.761.824-4.63 1.65-5.044.825-.413 1.547.328 1.547.328.209-1.03 1.549-1.648 2.169-1.132.62.514.31 1.75-.105 2.88-.41 1.13-1.58 5.911-1.135 6.177.828.514 2.581-5.35 3.718-6.485.555-.553 1.753.105 1.445.823-.203.473-2.686 7.925-2.686 7.925s-8.875 1.226-10.217-.728M100.296 23.75c1.234-1.753 3.302-2.267 5.571-1.753 1.548.312 3.26-1.97 4.745-1.804 1.296.148.209 1.099-1.401 2.58-1.02.934-4.657 5.151-7.162 5.608-3.405-1.546-1.753-4.632-1.753-4.632" transform="translate(4.275 30.297)"/>
                    <path fill="#D298F0" d="M99.834 25.103c-.02.003-.037.003-.057 0-.132-.032-.214-.162-.182-.295.45-1.883 2.372-3.256 4.693-3.337.135-.005.25.102.253.237.006.138-.101.25-.238.255-2.086.074-3.821 1.291-4.22 2.956-.027.113-.133.19-.249.184" transform="translate(4.275 30.297)"/>
                    <path fill="#DCB7D7" d="M101.543 16.448c-.137 0-.247-.11-.247-.247-.061-2.07 1.383-7.425 1.444-7.652.035-.131.17-.208.302-.175.132.035.21.17.176.3l-.002.004c-.014.054-1.48 5.513-1.426 7.508 0 .136-.111.246-.247.246v.016z" transform="translate(4.275 30.297)"/>
                    <path fill="#D298F0" d="M98.619 20.356c-.476.027-.953-.065-1.385-.266-.119-.068-.16-.22-.09-.337.068-.118.22-.158.338-.09.664.387 3.01.274 5.516-.943.125-.056.27 0 .326.124.055.12.005.259-.112.319-1.695.825-3.388 1.193-4.593 1.193" transform="translate(4.275 30.297)"/>
                    <path fill="#A9454E" d="M130.588 65.378l-.958-6.044c-.055-.337.047-.68.277-.935.257-.283.639-.42 1.018-.362l7.183 1.102c.676.103 1.202.644 1.286 1.322l1.006 8.295c-1.147 1.953-9.542 1.397-9.812-3.378" transform="translate(4.275 30.297)"/>
                    <path fill="#71002A" d="M133.999 60.905c.394-.04.75.292.797.744.047.453-.233.852-.628.893-.392.04-.75-.293-.797-.745-.047-.452.234-.851.628-.892" transform="translate(4.275 30.297)"/>
                    <path fill="#71002A" d="M139.412 68.836c-.224-3.201-.703-8.127-1.097-8.552-.296-.331-5.07-1.033-8.009-1.4l.03-.246c1.285.16 7.718.984 8.162 1.476.578.638 1.105 7.882 1.161 8.701l-.247.021z" transform="translate(4.275 30.297)"/>
                    <path fill="#EBC6EB" d="M160.76 56.191l3.642 9.374c-3.762 1.324-15.63 6.698-16.958 5.814-1.549-4.634-3.434-4.87-7.418-5.971l.373 3.35c-3.097.44-8.396-.883-9.515-2.43l-.296-.95c-.796-.088-2.646 1.936-1.766 2.903.883.97 2.56 1.761 2.56 1.761-.177 1.408 1.322 2.552 1.854 2.727.707 1.323 2.956 4.597 9.176 5.457 7.046.975 14.942.414 27.29-1.563 7.738-1.374 9.959-4.967 10.133-6.199.174-1.23-1.175-9.357-4.47-15.816 0-.003-13.822 1.176-14.605 1.543" transform="translate(4.275 30.297)"/>
                    <path fill="#EBC6EB" d="M160.76 56.191l3.642 9.374c-3.762 1.324-15.63 6.698-16.958 5.814-1.549-4.634-3.434-4.87-7.418-5.971l.373 3.35c-3.097.44-8.396-.883-9.515-2.43l-.296-.95c-.796-.088-2.646 1.936-1.766 2.903.883.97 2.56 1.761 2.56 1.761-.177 1.408 1.322 2.552 1.854 2.727.707 1.323 2.956 4.597 9.176 5.457 7.046.975 14.942.414 27.29-1.563 7.738-1.374 9.959-4.967 10.133-6.199.174-1.23-1.175-9.357-4.47-15.816 0-.003-13.822 1.176-14.605 1.543" transform="translate(4.275 30.297)"/>
                    <path fill="#D2A5E9" d="M131.381 70.042c.673.42 2.317.6 2.444.764.399.512-1.77.682-2.457-.06-.03-.232-.026-.47.013-.704M133.236 72.769c.59.246 1.56.03 1.616.314.058.286-.685.57-1.199.285-.17-.177-.312-.378-.417-.6" transform="translate(4.275 30.297)"/>
                    <path fill="#EF945C" d="M155.67 52.22l3.704 5.825c.295.464.87.666 1.39.493 2.863-.96 11.83-3.894 14.606-3.894-3.542-8.165-5.977-15.446-14.385-18.534-7.305 1.333-7.97 11.252-5.315 16.11" transform="translate(4.275 30.297)"/>
                    <path fill="#D298F0" d="M164.425 65.56c2.177-.592 5.593-.035 6.474.052-.829-.889-3.574-2.068-7.062-1.232l.588 1.18zM162.404 60.619c3.06-1.746 7.45-4.076 10.972-5.793 0 0-8.496 2.27-11.854 3.448l.882 2.345zM103.679 47.123s.579 1.35.627 3.197c.717-.967 1.236-3.98 1.236-3.98l-1.863.783z" transform="translate(4.275 30.297)"/>
                </g>
            </g>
        </g>
        <g>
            <path fill="#F2E4E4" d="M43.635 14.994c6.777 0 12.27 5.48 12.27 12.238 0 6.758-5.493 12.236-12.27 12.236-6.778 0-12.27-5.478-12.27-12.236 0-6.758 5.492-12.238 12.27-12.238" transform="translate(54.662 12.044)"/>
            <path fill="#FFBA44" d="M43.392 13.407c6.778 0 12.27 5.478 12.27 12.236 0 6.76-5.492 12.238-12.27 12.238-6.777 0-12.27-5.478-12.27-12.238 0-6.758 5.493-12.236 12.27-12.236" transform="translate(54.662 12.044)"/>
            <path fill="#FFDC54" d="M43.392 15.469c5.635 0 10.205 4.555 10.205 10.174 0 5.62-4.57 10.176-10.205 10.176-5.634 0-10.202-4.555-10.202-10.176 0-5.619 4.568-10.174 10.202-10.174" transform="translate(54.662 12.044)"/>
            <path fill="#FFF" d="M47.015 21.828h-1.823c.293.442.483.944.552 1.471h1.69l-.419 1.517h-1.262c-.074.823-.476 1.582-1.113 2.107-.612.484-1.481.778-2.602.883l3.905 4.535v.109h-2.4l-4.26-4.947v-1.277h2.112c.522.027 1.038-.11 1.476-.388.357-.247.615-.609.733-1.024H39.11l.424-1.518h4.043c-.273-.862-1.014-1.291-2.216-1.291h-2.25l.45-1.694h7.882l-.428 1.517z" transform="translate(54.662 12.044)"/>
            <path fill="#FFC33E" d="M47.443 19.722H39.56c-.268 0-.503.18-.572.438l-.451 1.701c-.085.313.103.636.418.72.05.013.102.02.154.02h2.253c.293-.007.586.033.869.116h-2.696c-.265 0-.496.175-.567.428l-.427 1.522c-.05.175-.015.365.097.511.11.148.286.233.471.233h3.357c-.33.173-.7.254-1.074.235h-2.118c-.158 0-.308.063-.418.173-.11.112-.172.262-.17.419v1.276c0 .14.048.273.14.38l4.261 4.948c.11.13.275.205.447.205h2.401c.328 0 .59-.264.59-.587v-.12c0-.138-.049-.274-.14-.38l-3.204-3.745c.666-.143 1.293-.432 1.834-.845.623-.502 1.056-1.199 1.228-1.979h.773c.264.004.5-.168.574-.42l.411-1.488c.02-.062.029-.123.029-.188 0-.323-.264-.587-.59-.587h-1.213c-.028-.1-.057-.199-.09-.294h.888c.263 0 .493-.174.565-.426l.427-1.53c.082-.316-.107-.635-.422-.716-.049-.015-.101-.02-.152-.02m0 .588l-.427 1.526h-1.823c.293.444.481.946.552 1.471h1.69l-.419 1.519h-1.264c-.076.818-.476 1.573-1.112 2.096-.613.486-1.48.78-2.601.883l3.905 4.536v.11h-2.4l-4.261-4.947v-1.277h2.113c.52.025 1.036-.11 1.476-.39.356-.246.613-.607.733-1.024h-4.496l.426-1.518h4.04c-.27-.861-1.011-1.29-2.213-1.29h-2.253l.451-1.695h7.883" transform="translate(54.662 12.044)"/>
            <path fill="#FFBA44" d="M40.001 17.877c-.246 0-.444-.195-.445-.438 0-.181.108-.343.277-.412 1.128-.466 2.337-.704 3.56-.702.246 0 .443.196.445.44.003.242-.189.439-.43.44-.003.002-.005.002-.007.002-1.104-.001-2.201.215-3.223.634-.056.03-.115.045-.177.049v-.013zm9.681 1.93c-.117 0-.23-.047-.313-.13-.784-.783-1.713-1.404-2.738-1.829-.226-.088-.335-.344-.248-.568l.01-.02c.094-.228.354-.336.582-.242.002.002.004.002.008.003 1.13.47 2.16 1.156 3.023 2.023.172.171.172.451-.001.623-.084.083-.194.128-.31.128l-.013.012zm-14.499 2.857c-.24-.002-.434-.197-.434-.437 0-.053.009-.103.027-.152.469-1.128 1.158-2.152 2.026-3.011.166-.18.447-.188.626-.022.18.164.19.444.022.623l-.022.021c-.786.78-1.408 1.707-1.836 2.727-.074.157-.233.254-.409.25zm17.094 3.456c-.243 0-.442-.197-.442-.441v-.036c.002-1.105-.215-2.2-.64-3.221-.095-.226.008-.486.234-.582.227-.095.49.01.587.235.47 1.129.706 2.338.703 3.559v.036c.005.244-.189.444-.433.45H52.277zm-17.108 3.34c-.18 0-.34-.11-.408-.275-.463-1.12-.702-2.318-.7-3.53 0-.245.195-.445.441-.449.24-.005.437.184.442.422V25.656c.002 1.092.217 2.173.636 3.185.097.223-.004.483-.227.583l-.016.005c-.053.02-.112.03-.168.03zm14.486 2.91c-.244 0-.442-.198-.442-.44 0-.118.046-.23.129-.313.79-.778 1.416-1.702 1.845-2.722.092-.226.351-.334.576-.242l.014.005c.223.089.333.341.246.565-.003.01-.007.017-.01.024-.475 1.126-1.165 2.148-2.032 3.01-.09.079-.208.12-.326.113zm-9.69 1.896c-.058 0-.114-.01-.167-.032-1.131-.473-2.158-1.161-3.022-2.028-.172-.173-.172-.453.002-.625.172-.171.455-.171.627.002.78.786 1.709 1.41 2.73 1.835.226.095.331.355.235.58-.07.162-.23.266-.405.268zm3.427.683c-.248.001-.45-.195-.456-.443-.007-.236.181-.435.418-.44h.046c1.095 0 2.183-.213 3.2-.627.22-.105.484-.012.59.208.104.218.012.482-.21.588l-.044.019c-1.125.46-2.329.696-3.544.695z" transform="translate(54.662 12.044)"/>
            <path fill="#F2E4E4" d="M9.868 1.813c5.417 0 9.81 4.38 9.81 9.783 0 5.404-4.393 9.784-9.81 9.784C4.45 21.38.056 17 .056 11.596c0-5.402 4.393-9.783 9.812-9.783" transform="translate(54.662 12.044)"/>
            <path fill="#FFBA44" d="M9.81 0c5.419 0 9.811 4.38 9.811 9.782 0 5.404-4.392 9.785-9.811 9.785-5.418 0-9.81-4.38-9.81-9.785C0 4.38 4.392 0 9.81 0" transform="translate(54.662 12.044)"/>
            <path fill="#FFDC54" d="M9.81 1.648c4.506 0 8.158 3.641 8.158 8.135 0 4.493-3.652 8.136-8.158 8.136-4.505 0-8.157-3.643-8.157-8.136 0-4.494 3.652-8.135 8.157-8.135" transform="translate(54.662 12.044)"/>
            <path fill="#FFF" d="M12.04 6.218l-1.429.29c.297.302.525.663.664 1.062l1.328-.269-.084 1.259-.994.197c.078.655-.11 1.312-.52 1.829-.519.549-1.19.931-1.928 1.1l3.785 2.937v.088l-1.882.378-4.157-3.19-.208-1.003 1.658-.336c.415-.061.8-.25 1.101-.543.24-.25.382-.574.406-.917l-3.524.72.087-1.26 3.17-.643c-.345-.632-.993-.85-1.947-.657l-1.76.357.083-1.404 6.172-1.259-.021 1.264z" transform="translate(54.662 12.044)"/>
            <path fill="#FFC33E" d="M11.967 4.493L5.862 5.75c-.21.04-.366.217-.38.432L5.403 7.59c-.011.146.048.289.16.383.111.092.258.132.403.105l1.765-.358c.228-.056.463-.072.697-.052l-2.11.43c-.208.043-.361.218-.374.43L5.85 9.793c-.03.262.163.496.425.523.047.006.094.004.141-.005l2.63-.518c-.23.186-.508.307-.8.352l-1.665.336c-.12.027-.226.099-.295.202-.07.105-.094.235-.067.357l.207.995c.027.11.088.206.177.276l4.126 3.196c.109.085.25.12.384.089l1.881-.385c.256-.05.422-.3.37-.552v-.085c-.022-.109-.082-.206-.17-.273l-3.12-2.426c.498-.214.943-.537 1.3-.943.41-.491.635-1.107.643-1.746l.608-.12c.208-.044.358-.22.375-.429l.083-1.233c.007-.05.007-.101 0-.152-.052-.252-.3-.419-.556-.366l-.95.197c-.037-.078-.073-.147-.114-.219l.691-.139c.207-.041.359-.215.373-.426l.087-1.264c.013-.146-.045-.29-.156-.388-.11-.096-.259-.135-.403-.11l-.09-.045zm.161.46L12.04 6.22l-1.428.289c.297.301.525.664.664 1.063l1.327-.27-.083 1.26-.994.196c.078.654-.11 1.313-.52 1.83-.52.546-1.19.93-1.928 1.097l3.784 2.938v.088l-1.88.38-4.158-3.193-.208-1 1.658-.338c.415-.06.8-.25 1.101-.543.24-.25.382-.573.406-.917l-3.524.72.089-1.258 3.17-.643c-.347-.632-.995-.852-1.95-.66l-1.76.358.084-1.403 6.172-1.26h.067z" transform="translate(54.662 12.044)"/>
            <path fill="#FFBA44" d="M5.929 4.243c-.194.034-.38-.097-.415-.292-.022-.134.033-.271.145-.349.81-.545 1.72-.922 2.676-1.116.192-.041.378.08.422.271.04.19-.08.378-.272.42-.863.176-1.689.52-2.42 1.01-.046.03-.098.054-.153.067l.017-.01zm7.887-.03c-.09.016-.185-.002-.265-.053-.737-.49-1.566-.829-2.437-1-.188-.036-.315-.219-.28-.408.04-.192.224-.314.416-.28.958.188 1.867.563 2.676 1.103.161.105.208.32.105.48l-.005.008c-.05.08-.132.139-.223.16l.013-.01zM2.906 8.756c-.044.01-.091.01-.137 0-.19-.034-.315-.215-.28-.403l.001-.007c.185-.959.562-1.872 1.107-2.683.107-.162.326-.206.487-.1.16.106.208.32.103.481l-.004.007c-.488.737-.829 1.562-.997 2.43-.027.141-.14.25-.28.275zm13.966 0c-.192.038-.378-.083-.42-.274v-.031c-.181-.869-.534-1.692-1.04-2.421-.108-.161-.066-.381.097-.49.163-.108.382-.065.49.096.549.809.93 1.719 1.128 2.674v.033c.037.182-.074.362-.255.413zM3.975 14.073c-.141.028-.288-.03-.367-.15-.542-.807-.92-1.712-1.112-2.664-.044-.19.076-.377.268-.418.185-.046.37.068.413.252.001.004.001.008.003.011.176.861.518 1.68 1.009 2.41.108.161.067.382-.094.492-.031.032-.07.057-.109.077l-.01-.01zm11.81-.026c-.092.016-.188-.002-.27-.052-.158-.11-.202-.327-.099-.491.498-.733.84-1.558 1.01-2.425.044-.186.232-.302.419-.256l.027.007c.192.036.319.22.28.411v.002c-.19.959-.568 1.869-1.111 2.68-.06.075-.149.124-.244.135l-.011-.01zm-7.273 3.026c-.047.011-.094.011-.14 0-.96-.19-1.873-.563-2.688-1.103-.163-.106-.208-.327-.1-.49.108-.163.327-.209.49-.1.737.487 1.564.828 2.433 1 .19.038.315.222.28.413-.021.147-.131.262-.275.291v-.01zm2.79 0c-.193.038-.381-.083-.427-.274-.043-.182.07-.368.256-.412l.01-.002h.017c.858-.175 1.675-.514 2.404-1.002.161-.106.38-.065.49.094.108.163.064.381-.093.493-.808.536-1.71.91-2.656 1.103z" transform="translate(54.662 12.044)"/>
            <path fill="#F2E4E4" d="M75.926 2.067c4.873 0 8.823 3.94 8.823 8.798 0 4.857-3.95 8.797-8.823 8.797-4.87 0-8.82-3.94-8.82-8.797 0-4.859 3.95-8.798 8.82-8.798" transform="translate(54.662 12.044)"/>
            <path fill="#FFBA44" d="M75.73.703c4.87 0 8.821 3.938 8.821 8.798 0 4.857-3.95 8.797-8.82 8.797-4.873 0-8.824-3.94-8.824-8.797 0-4.86 3.95-8.798 8.823-8.798" transform="translate(54.662 12.044)"/>
            <path fill="#FFDC54" d="M75.73 2.188c4.049 0 7.333 3.274 7.333 7.313 0 4.037-3.284 7.312-7.333 7.312-4.05 0-7.333-3.275-7.333-7.312 0-4.04 3.283-7.313 7.333-7.313" transform="translate(54.662 12.044)"/>
            <path fill="#FFF" d="M79.074 7.726l-1.246-.413c.1.366.114.751.04 1.127l1.155.382-.634.941-.861-.289c-.236.544-.681.97-1.235 1.183-.645.193-1.331.193-1.972 0l1.611 3.992-.025.072-1.637-.547-1.769-4.34.288-.874 1.445.48c.35.14.733.168 1.1.076.301-.087.56-.275.736-.531L73 7.974l.615-.95 2.76.92c0-.653-.397-1.113-1.218-1.384l-1.52-.506.698-1.056 5.363 1.768-.624.96z" transform="translate(54.662 12.044)"/>
            <path fill="#FFC33E" d="M79.834 6.347l-5.356-1.764c-.19-.069-.4.002-.507.171l-.699 1.057c-.07.11-.086.245-.045.37.042.124.141.222.268.262l1.52.505c.204.06.396.154.566.278l-1.832-.616c-.189-.07-.399-.001-.51.167l-.636.935c-.133.193-.082.457.112.588.032.024.067.04.107.053l2.314.773c-.263.043-.536.012-.784-.085l-1.44-.48c-.107-.044-.223-.044-.33 0-.1.052-.177.14-.213.247l-.272.893c-.036.094-.036.195 0 .29l1.784 4.354c.043.118.14.206.257.244l1.637.55c.222.073.463-.046.537-.268l.024-.074c.034-.096.034-.199 0-.295l-1.33-3.284c.486.06.979.011 1.444-.146.538-.202.992-.58 1.286-1.073l.507.18c.188.07.4.001.507-.169l.622-.919c.028-.038.047-.077.062-.12.061-.216-.058-.438-.268-.506l-.822-.275v-.216l.6.196c.184.074.398.006.504-.16l.645-.946c.072-.11.089-.248.05-.374-.045-.123-.142-.22-.27-.262l-.039-.081zm-.136.419l-.64.946-1.246-.415c.1.366.114.752.04 1.126l1.156.385-.633.939-.862-.287c-.237.543-.68.97-1.237 1.182-.64.193-1.327.193-1.971 0l1.613 3.992-.027.07-1.635-.545-1.771-4.34.291-.876 1.443.482c.35.141.736.168 1.1.076.3-.087.559-.274.735-.53l-3.071-1.012.632-.935 2.759.919c0-.652-.397-1.11-1.217-1.383l-1.52-.506.698-1.056 5.363 1.768z" transform="translate(54.662 12.044)"/>
            <path fill="#FFBA44" d="M75.193 3.426c-.12-.042-.203-.152-.214-.278-.016-.17.107-.321.277-.338h.018c.876-.061 1.756.053 2.59.333.166.056.256.234.202.402v.002c-.054.164-.234.253-.398.199l-.004-.002c-.753-.251-1.546-.354-2.341-.304-.042.013-.089.013-.13 0v-.014zm6.156 3.537c-.08-.027-.145-.083-.181-.155-.36-.715-.862-1.35-1.47-1.87-.131-.118-.145-.317-.031-.45.115-.134.316-.147.45-.031.667.578 1.214 1.278 1.606 2.067.08.154.022.342-.132.423-.078.04-.17.047-.251.016h.009zM70.815 5.609c-.038-.015-.076-.034-.109-.061-.132-.116-.147-.316-.029-.448v-.002c.58-.66 1.284-1.203 2.071-1.59.16-.08.352-.015.431.144.078.157.013.348-.145.426-.717.352-1.356.841-1.879 1.44-.085.095-.22.13-.34.09zm10.863 6.242c-.165-.053-.257-.23-.204-.394.001-.002.001-.005.003-.007v-.025c.252-.752.357-1.548.303-2.339-.017-.17.106-.321.277-.337.005-.002.01-.002.018-.002.172-.013.324.12.338.292.06.878-.052 1.757-.333 2.588v.025c-.058.164-.233.253-.398.199h-.004zm-12.424-1.624c-.125-.037-.21-.15-.217-.278-.062-.872.054-1.747.333-2.576.054-.168.235-.258.404-.204l.001.002c.165.048.256.222.207.384-.002.004-.004.007-.004.01-.253.749-.355 1.541-.304 2.33.01.174-.12.323-.293.338-.042.007-.087.005-.127-.006zm9.221 5.307c-.165-.052-.255-.23-.204-.394.027-.083.087-.15.164-.187.717-.354 1.355-.844 1.88-1.441.125-.123.327-.123.45 0 .131.115.144.312.03.442l-.002.004c-.594.646-1.311 1.171-2.11 1.54-.07.034-.152.04-.228.014l.02.022zm-7.038-.915c-.04-.015-.074-.038-.106-.065-.663-.576-1.204-1.279-1.592-2.068-.08-.153-.016-.343.136-.42l.005-.004c.158-.078.348-.015.428.14.35.716.843 1.353 1.444 1.877.129.113.144.312.03.444-.095.097-.24.128-.364.076l.02.02zm2.179 1.244c-.169-.056-.261-.237-.207-.405.05-.162.223-.255.388-.204l.001.002h.026c.748.25 1.539.356 2.325.303.175-.009.324.121.34.293.013.175-.121.326-.297.337h-.002c-.87.062-1.745-.05-2.574-.326z" transform="translate(54.662 12.044)"/>
        </g>
        <g fill="#FFDC54">
            <path d="M2.263.05c.391 0 .71.315.71.705 0 .392-.319.707-.71.707-.39 0-.71-.315-.71-.707 0-.39.32-.706.71-.706M66.949 2.413c.35 0 .636.284.636.635 0 .35-.286.637-.636.637-.352 0-.638-.286-.638-.637 0-.35.286-.635.638-.635M29.572 24.239c.42 0 .761.34.761.757 0 .419-.341.759-.76.759-.42 0-.762-.34-.762-.759 0-.417.341-.757.761-.757M.758 30.54c.285 0 .517.23.517.514 0 .285-.232.516-.517.516-.285 0-.517-.231-.517-.516 0-.284.232-.514.517-.514M64.524 29.703c.285 0 .517.23.517.516 0 .283-.232.514-.517.514-.285 0-.517-.231-.517-.514 0-.286.232-.516.517-.516M33.103 45.974c.271 0 .49.22.49.49s-.219.49-.49.49c-.272 0-.491-.22-.491-.49s.22-.49.49-.49" transform="translate(70.696 35.256)"/>
        </g>
    </g>
</svg>
