<svg xmlns="http://www.w3.org/2000/svg" xmlns:xlink="http://www.w3.org/1999/xlink" width="360" height="121" viewBox="0 0 360 121">
    <defs>
        <path id="prefix__c" d="M0 0L45.605 0 45.605 34.717 0 34.717z"/>
        <path id="prefix__e" d="M0 0.8L15.724 0.8 15.724 16.524 0 16.524z"/>
        <path id="prefix__g" d="M.169 2.556c-.408.942 1.127 1.405 1.53.472.2-.465.503-.79.87-.99 0 .004-.005.009-.004.018l-.238 6.667-.639-.04C.66 8.598.604 10.178 1.633 10.265c2.764.225 7.158-.016 8.219-3.09.808-2.367-1.182-3.318-3.19-3.48.477-.963.286-2.048-.988-2.896C5.034.374 4.344.18 3.67.18 2.192.18.792 1.11.17 2.556zm3.994-.445c.005-.088-.012-.167-.028-.246.077.02.158.039.239.062 1.49.447.926 1.404-.125 1.974-.057.029-.104.066-.152.103.024-.63.047-1.262.066-1.893zm-.105 3.023c.173.195.436.308.755.234.874-.198 1.76-.246 2.633-.034 1.314.322 1.064 1.733.137 2.382-.984.687-2.333.952-3.655 1.014.045-1.2.085-2.4.13-3.596z"/>
        <path id="prefix__i" d="M5.38 73.503c8.478 5.548 81.86 18.113 83.51-13.462h15.193V34.026H88.356c-5.365-20.305-19-31.22-40.904-32.748C27.65-.103 15.001 11.778 7.374 27.229-1.864 45.946.736 70.464 5.38 73.503z"/>
        <path id="prefix__k" d="M0 0L45.605 0 45.605 34.717 0 34.717z"/>
        <path id="prefix__m" d="M0 0.8L15.724 0.8 15.724 16.524 0 16.524z"/>
        <path id="prefix__o" d="M.169 2.556c-.408.942 1.127 1.405 1.53.472.2-.465.503-.79.87-.99 0 .004-.005.009-.004.018l-.238 6.667-.639-.04C.66 8.598.604 10.178 1.633 10.265c2.764.225 7.158-.016 8.219-3.09.808-2.367-1.182-3.318-3.19-3.48.477-.963.286-2.048-.988-2.896C5.034.374 4.344.18 3.67.18 2.192.18.792 1.11.17 2.556zm3.994-.445c.005-.088-.012-.167-.028-.246.077.02.158.039.239.062 1.49.447.926 1.404-.125 1.974-.057.029-.104.066-.152.103.024-.63.047-1.262.066-1.893zm-.105 3.023c.173.195.436.308.755.234.874-.198 1.76-.246 2.633-.034 1.314.322 1.064 1.733.137 2.382-.984.687-2.333.952-3.655 1.014.045-1.2.085-2.4.13-3.596z"/>
        <path id="prefix__q" d="M0.217 1.029L42.402 1.029 42.402 71.088 0.217 71.088z"/>
        <circle id="prefix__a" cx="42.072" cy="42.072" r="42.072"/>
    </defs>
    <g fill="none" fill-rule="evenodd">
        <path stroke="#FFF" stroke-width="2" d="M50 51c7.351-34.85 43.523-25.186 83.698-10.101 59.382 22.296 66.05 28.647 104.218 45.903C276.083 104.06 308.425 104.604 314 76" opacity=".408"/>
        <g>
            <path fill="#B35410" d="M12.06 65.649V38.084c0-1.408.19-2.98 1.59-2.98h42.456c1.409 0 2.55 1.15 2.55 2.568v25.409c0 1.418-1.141 2.568-2.55 2.568H12.059z" transform="translate(279 16)"/>
            <path fill="#FFAC1B" d="M45.394 32.295c-3.297-2.452-7.891-1.864-10.388 1.373s-1.898 7.749 1.398 10.201c3.296 2.452 7.89 1.864 10.388-1.373 2.497-3.139 1.898-7.749-1.398-10.201" transform="translate(279 16)"/>
            <path fill="#FFBF2B" d="M45.71 42.3c-2.06 2.648-5.786 3.138-8.435 1.079-2.648-2.06-3.138-5.787-1.079-8.436 2.06-2.648 5.787-3.139 8.436-1.079 2.648 1.962 3.139 5.787 1.079 8.436" transform="translate(279 16)"/>
            <path fill="#E8882F" d="M50.703 68.629h-36.52c-1.958 0-3.545-1.609-3.545-3.592V39.631l-.02-.73c-.194-3.189 1.54-3.915 3.52-3.798l-.01.044c-.642 4.965 2.063 4.524 4.925 4.484h31.65c1.98 0 3.585 1.627 3.585 3.633v21.732c0 2.005-1.605 3.633-3.585 3.633" transform="translate(279 16)"/>
            <path fill="#FFAC1B" d="M29.47 23.83c-3.296-2.497-7.89-1.898-10.388 1.399-2.497 3.296-1.897 7.89 1.399 10.388 3.296 2.497 7.89 1.897 10.388-1.399 2.497-3.196 1.898-7.89-1.399-10.388" transform="translate(279 16)"/>
            <path fill="#FFBF2B" d="M29.831 33.473c-1.989 2.558-5.588 3.031-8.145 1.042-2.557-1.989-3.03-5.588-1.042-8.145 1.99-2.557 5.588-3.031 8.146-1.042 2.557 1.894 3.03 5.588 1.041 8.145" transform="translate(279 16)"/>
            <path fill="#FFAC1B" d="M42.209 10.03c-3.296-2.497-7.89-1.898-10.388 1.398-2.497 3.297-1.898 7.891 1.398 10.388 3.297 2.498 7.891 1.898 10.388-1.398 2.498-3.196 1.898-7.89-1.398-10.388" transform="translate(279 16)"/>
            <path fill="#FFBF2B" d="M42.864 19.964c-1.989 2.558-5.588 3.031-8.145 1.042-2.558-1.989-3.031-5.588-1.042-8.145 1.989-2.558 5.588-3.031 8.145-1.042 2.558 1.894 3.031 5.588 1.042 8.145" transform="translate(279 16)"/>
            <path fill="#FF8A8A" d="M43.765 29.373c-.446 0-.743-.223-.743-.594v-4.83c0-.298.297-.595.743-.595s.743.223.743.595v4.83c0 .371-.297.594-.743.594M24.668 20.636c-.446 0-.743-.222-.743-.594v-4.83c0-.297.297-.594.743-.594s.743.222.743.594v4.83c0 .372-.297.594-.743.594M48.011 25.127c-.446 0-.743-.223-.743-.595v-4.83c0-.297.297-.594.743-.594s.743.223.743.594v4.83c0 .372-.297.595-.743.595M38.425 6.019c-.445 0-.743-.223-.743-.594V.595c0-.298.298-.595.743-.595.446 0 .744.223.744.594v4.83c0 .372-.298.595-.744.595M19.35 21.019c-.446 0-.744-.223-.744-.52v-1.933c0-.297.298-.52.743-.52.446 0 .744.223.744.52v1.932c0 .298-.298.52-.744.52M34.211 7.219c-.446 0-.743-.223-.743-.52V4.765c0-.297.297-.52.743-.52s.743.223.743.52v1.932c0 .298-.297.52-.743.52M24.954 11.857c-.446 0-.743-.297-.743-.668v-.966c0-.372.297-.67.743-.67s.743.298.743.67v.966c0 .371-.297.668-.743.668M47.555 31.677c-.446 0-.743-.298-.743-.67v-.965c0-.372.297-.669.743-.669s.743.297.743.669v.966c0 .371-.297.669-.743.669" transform="translate(279 16)"/>
            <path fill="#FDFDFD" d="M7.608 31.626c.23.012.427-.165.439-.394.012-.231-.165-.428-.395-.44-.23-.012-.427.165-.439.396-.012.229.166.426.395.438m.11-2.106c.932.05 1.65.846 1.6 1.778-.048.93-.845 1.649-1.776 1.6-.932-.049-1.65-.846-1.601-1.777.049-.932.846-1.65 1.778-1.6M58.891 20.599c-.23 0-.416.187-.416.417 0 .23.186.417.416.417.23 0 .418-.186.418-.417 0-.23-.187-.417-.418-.417m0 2.108c-.932 0-1.69-.758-1.69-1.691 0-.932.758-1.691 1.69-1.691.934 0 1.692.759 1.692 1.69 0 .934-.758 1.692-1.692 1.692M62.187 12.232h-1.008v-1.007c0-.352-.284-.637-.637-.637-.351 0-.637.285-.637.637v1.007H58.9c-.351 0-.637.285-.637.637 0 .351.286.637.637.637h1.006v1.008c0 .351.286.637.637.637.353 0 .637-.286.637-.637v-1.008h1.008c.351 0 .636-.286.636-.637 0-.352-.285-.637-.636-.637M3.394 36.866c-1.32.354-.772 2.405.55 2.05 1.318-.353.771-2.404-.55-2.05M1.4 29.92c-1.319.354-.772 2.405.55 2.051 1.319-.353.772-2.405-.55-2.05M64.595 16.957c1.366 0 1.368-2.123 0-2.123-1.365 0-1.368 2.123 0 2.123" opacity=".593" transform="translate(279 16)"/>
            <g transform="translate(279 16) translate(40.644 51.041)">
                <rect width="15.123" height="7.562" fill="#FFAC1B" rx="3"/>
                <circle cx="3.781" cy="3.781" r="1.89" fill="#E8882F"/>
            </g>
        </g>
        <g transform="translate(92 16)">
            <rect width="64.324" height="34.919" fill="#F2A554" rx="8"/>
            <text fill="#FFF" font-family="Roboto-Medium, Roboto" font-size="14" font-weight="400">
                <tspan x="10.529" y="15.824">signup</tspan>
            </text>
            <g fill="#FCE3E3">
                <path d="M21.788 38.604c3.976-3.896 6.202-7.921 8.667-8.955.954-1.193-1.988-5.964-8.667 2.386 2.407-2.825 3.912-6.043 4.979-9.384.765-2.396 2.108-8.03 1.657-10.289-.581-1.85-2.11-1.225-2.546 0-.436 1.226-3.613 10.608-5.044 12.596 0 0 .715-2.704-1.194-3.26-1.908-.557-3.18 1.51-3.18 1.51s-.795-1.829-2.385-1.908c-1.591-.08-2.465 1.272-2.624 1.431-.16-.715-2.466-1.75-3.897-.08-1.432 1.67-2.972 7.163-4.214 11.69C2.226 38.395 0 43.405 0 43.405c.44.722 1.997 2.52 5.056 4 3.058 1.48 5.548 2.123 6.395 1.853 1.853-3.242 7.286-7.666 10.337-10.655z" transform="translate(11.946 18.378)"/>
                <path fill-rule="nonzero" d="M18.577 5.861c.291-.367.806-.452 1.197-.215l.094.067 3.12 2.474c.398.316.465.894.15 1.291-.291.367-.806.452-1.197.215l-.094-.066-3.12-2.475c-.398-.315-.465-.893-.15-1.29zM27.159 1.087c.468-.021.87.312.947.762l.012.115.18 3.978c.022.507-.37.937-.877.96-.468.02-.87-.312-.947-.762l-.012-.115-.18-3.979c-.023-.507.37-.936.877-.96zM35.648 5.488c.351.31.409.828.152 1.205l-.071.092-2.635 2.986c-.336.38-.916.417-1.297.081-.351-.31-.41-.828-.152-1.206l.07-.09 2.636-2.987c.335-.38.916-.417 1.297-.081z" transform="translate(11.946 18.378)"/>
            </g>
        </g>
        <g transform="translate(165 13)">
            <g transform="translate(5.38 11.82)">
                <mask id="prefix__b" fill="#fff">
                    <use xlink:href="#prefix__a"/>
                </mask>
                <use fill="#FFE4E4" xlink:href="#prefix__a"/>
                <g mask="url(#prefix__b)">
                    <g>
                        <g>
                            <path fill="#E29F0A" d="M54.766 63.027c-.263 1.965 12.308 1.062 11.359-.237-.95-1.299 1.434-5.09 4.047-8.523 1.573-2.067-21.665.305-21.665.305s6.895 3.717 6.26 8.455zM43.515 86.139s-6.099 33.878 2.562 33.878c10.27 0-5.65 5.948-5.65 5.948l-13.421-3.206-5.162-26.529 5.457-10.494 16.214.403z" transform="translate(1.169 -7.012) translate(8.716)"/>
                            <path fill="#E29F0A" d="M39.755 64.449s7.817-2.336 13.635-1.797c5.817.539-6.45 58.22-6.45 58.22l-5.308-2.498s1.031-52.308-1.877-53.925" transform="translate(1.169 -7.012) translate(8.716)"/>
                            <path fill="#1F609B" d="M39.755 64.449s7.817-2.336 13.635-1.797c2.909.27 1.296 14.825-1.043 29.312-1.157.103-10.656 1.016-10.56.493-.098-13.42-.562-27.19-2.032-28.008" transform="translate(1.169 -7.012) translate(8.716)"/>
                            <path fill="#FFDD47" d="M70.174 62.778c-3.019-1.618-13.311-2.11-19.406 1.161-4.586 2.46-3.512 7.097-3.336 10.483.243 4.688 1.242 14.296.272 27.061-.526 6.937-1.336 18.73-6.374 21.606-1.234.704-7.681-1.022-8-1.56-4.058-6.817-4.66-27.45.548-33.823l-24.734-.702s-2.1 2.768-3.563 9.077c-1.368 5.902.67 15.578 2.15 18.943 5.859-.168 15.43 9.558 24.702 12.508 11.22 1.534 22.818-3.026 22.818-3.026s-.58-13.488 18.207-19.72c5.025-1.667 10.203 4.32 10.286 4.434-.629-23.221-8.082-43.502-13.57-46.442" transform="translate(1.169 -7.012) translate(8.716)"/>
                            <path fill="#E29F0A" d="M52.977 119.108c-.492 2.467-.121 4.365 3.76 4.256 17.227-3.287 12.999-4.683 18.555-6.986 4.12-.301 9.318-8.565 7.526-11.399-3.295-5.889-17.571-4.091-23.118.402-3.651 2.958-5.172 5.948-6.723 13.727" transform="translate(1.169 -7.012) translate(8.716)"/>
                            <g transform="translate(1.169 -7.012) translate(8.716) translate(0 15.976)">
                                <mask id="prefix__d" fill="#fff">
                                    <use xlink:href="#prefix__c"/>
                                </mask>
                                <path fill="#2D2DA0" d="M20.319.696s-1.574 2.625-6.197 4.18c-4.623 1.555-7.08 1.846-7.77 4.958-.197.777-3.714 1.708-5.182 4.03-1.8 2.845-1.603 6.37 1.15 6.953.295.195-3.441 4.763-1.278 9.04 2.164 4.278 7.671 4.86 7.671 4.86l21.834-5.54 7.446-2.645s8.97-7.194 7.436-13.415c-1.033-4.184-5.617-2.973-6.142-6.385-.485-3.15-2.587-4.767-3.598-5.758-3.181-2.015-15.37-.278-15.37-.278" mask="url(#prefix__d)"/>
                            </g>
                            <g>
                                <path fill="#E1BEE1" d="M15.317 11.541c1.504 2.067 5.262 8.173 6.858 8.549 1.596.376 18.412 3.193 18.412 3.193l-.093 3.947c-7.421 2.254-21.795.187-24.239-.564-2.441-.751-8.265-10.147-8.265-10.147.65-.848 1.71-2.032 3.287-3.1 1.552-1.049 3.019-1.589 4.04-1.878" transform="translate(1.169 -7.012) translate(8.716) translate(31.958 24.692)"/>
                                <path fill="#BD76C5" d="M8.848 18.07c2.137-.62 6.726-4.82 7.002-5.717l-.315-.584-7.066 5.336.38.966z" transform="translate(1.169 -7.012) translate(8.716) translate(31.958 24.692)"/>
                                <g transform="translate(1.169 -7.012) translate(8.716) translate(31.958 24.692) translate(0 .652)">
                                    <mask id="prefix__f" fill="#fff">
                                        <use xlink:href="#prefix__e"/>
                                    </mask>
                                    <path fill="#FF5F2E" d="M6.702.93c2.089.408 7.04 7.034 9.022 10.079-1.373 2.263-8.58 5.515-8.58 5.515S-.197 7.89.003 5.44C.38.837 4.613.522 6.702.93" mask="url(#prefix__f)"/>
                                </g>
                            </g>
                            <path fill="#464A66" d="M39.581 78.597c-6.943 0-30.446-3.117-33.392-.581-1.833 1.293-.19 8.641 2.64 9.844 1.543.657 15.334 1.555 24.243 1.996 2.17.107 9.189-.033 10.09-.965 2.032-3.145 4.448-9.865-3.58-10.294" transform="translate(1.169 -7.012) translate(8.716)"/>
                            <path fill="#E1BEE1" d="M23.615 26.102c-.353.697-5.562.59-10.11 2.44C8.96 30.393 5.513 37.14 2.928 46.318c-1.059 3.601-.118 6.854 1.057 7.086 1.176.233 14.474.647 21.275-3.872l7.153-1.686-1.05-2.983s-7.426 1.782-12.833 1.085c-4.232-.813-6.142.158-6.142.158l4.88-7.92 20.571.232 1.998-8.133-1.998-3.937-4.427-.403s-1.17-4.932-1.66-7.457c-.118-.233-9.738 1.241-9.738 1.241s2.19 4.863 1.602 6.373z" transform="translate(1.169 -7.012) translate(8.716)"/>
                            <path fill="#BD76C5" d="M32.9 23.745s-3.804 4.338-9.912-1.334c.284-.42 9.397-.939 9.397-.939l.515 2.273z" transform="translate(1.169 -7.012) translate(8.716)"/>
                            <path fill="#2C2435" d="M21.14 21.15s3.865 3.23 8.064 2.497c1.36-.237 5.534-1.956 5.202-7.137l-11.999 3.056-1.267 1.585z" transform="translate(1.169 -7.012) translate(8.716)"/>
                            <path fill="#E1BEE1" d="M19.514 7.842s1.587 10.236 3.065 12.263c1.478 2.026 5.247 3.157 6.419 3.042 1.692-.166 3.49-2.433 4.315-4.543.824-2.11-2.307-12.387-2.307-12.387L19.514 7.842z" transform="translate(1.169 -7.012) translate(8.716)"/>
                            <path fill="#EAA471" d="M34.256 26.025s3.323 6.305 3.072 6.997c-.643 1.773-1.923 3.254-4.974 3.48-3.182.233-8.203-2.005-8.203-2.005l2.346 3.032 9.88.356 2.887-3.166-.09-3.388-2.211-3.968-1.67-1.605-1.037.267z" transform="translate(1.169 -7.012) translate(8.716)"/>
                            <path fill="#BD76C5" d="M5.009 39.978s5.292-.185 9.148 3.256l.265-.42-2.802-3.178-6.007-1.321-.604 1.663z" transform="translate(1.169 -7.012) translate(8.716)"/>
                            <path fill="#FF5F2E" d="M23.924 33.942c1.62 2.391 7.744 3.615 10.971 2.66 2.245-.849 3.029-3.193 3.096-3.592.067-.399-2.033-4.92-3.186-7.18 0-.067 2.238.315 2.964.315.27 0 2.376 5.269 3.722 7.464 1.346 2.195 2.827 4.058 2.423 6.453-.404 2.394-3.5 8.58-4.98 12.639-1.481 4.057-1.513 8.316-.84 9.713.135.2-20.95 2.333-20.95 2.333l-4.52-1.399s5.74-6.483 6.595-9.368c.79-2.664-.24-9.626-2.992-13.703l-1.828 2.656S13.091 41.23 10.29 40c-3.138-1.379-6.01-.374-6.01-.374s3.216-6.87 6.12-9.947c1.35-1.538 9.008-2.778 9.008-2.778s2.903 4.126 4.517 7.042z" transform="translate(1.169 -7.012) translate(8.716)"/>
                            <path fill="#1E5B84" d="M34.224 25.72s-.23 9.12-1.644 12.298c-3.92 8.816-10.423 20.27-10.423 20.27l1.888.135s8.377-15.04 10.318-19.718c1.942-4.676 1.383-11.749 1.23-13.307-.116 0-1.37.322-1.37.322" transform="translate(1.169 -7.012) translate(8.716)"/>
                            <path fill="#E1BEE1" d="M3.478 47.256c-1.004 3.418-.212 5.506.903 5.726 1.116.22 14.696 1.617 22.006-2.97l5.076-1.306 2.8-2.423s-3.302-.75-5.428-.535c-2.38.24-7.001-.031-10.014-.58-4.016-.772-5.748-.669-5.748-.669s-7.14-5.954-9.595 2.757" transform="translate(1.169 -7.012) translate(8.716)"/>
                            <path fill="#595E70" d="M73.749 47.396l7.923.723c.875.08 1.51.935 1.42 1.91-.091.975-.874 1.7-1.75 1.621l-7.923-.723c-.715-.066-1.235-.765-1.16-1.562l.06-.644c.074-.797.714-1.39 1.43-1.325" transform="translate(1.169 -7.012) translate(8.716)"/>
                            <g>
                                <path fill="#E1BEE1" d="M10.352.113c.96.095 2.914 1.581 3.086 2.486.097.51.067 2.227-.528 3.049-.375.518-1.158.483-1.539.257-1.143.628-1.651.176-2.007 0-.778.441-1.346.352-1.88.05-.304.176-.94.528-1.752.126.355-.477.51-1.505.406-2.56-.067-.682-.81-.845-1.306-.805-1.942.164-2.4 4.825-4.628 1.797C-.853 3.077 2.148-.698 10.352.113" transform="translate(1.169 -7.012) translate(8.716) translate(68.275 46.482)"/>
                                <path fill="#BD76C5" d="M9.334 5.96c.454-.51 1.71-1.885.763-4.025 1.775 1.881.098 4.133-.763 4.025M7.413 6.04s1.563-2.195.905-3.685c1.586 2.14-.905 3.685-.905 3.685M11.257 5.965s1.488-1.967.386-3.763c2.054 1.76-.386 3.763-.386 3.763" transform="translate(1.169 -7.012) translate(8.716) translate(68.275 46.482)"/>
                            </g>
                            <path fill="#FFDD47" d="M36.749 47.02c.157-1.181 1.189-1.058 2.365-1.104 2.582-.1 6.814-2.009 8.764-3.302 2.807-1.863 5.259-2.752 8.145-2.881 2.886-.129 7.101.097 8.555.434 3.14.729 5.479 3.903 6.511 4.88 1.033.976 3.829 1.433 4.61 1.677 1.219.313 1.718 2.757.493 4.94-.633.99-2.138.494-4.2 1.816-1.76 1.129-4.895 5.208-9.238 5.491-5.166.338-9.065-1.773-13.521-4.053-2.455-1.256-6.604-1.96-9.63-1.823-.993.044-2.018-.25-2.4-1.18-.423-1.03-.757-2.616-.454-4.895" transform="translate(1.169 -7.012) translate(8.716)"/>
                            <path fill="#595E70" d="M37.975 51.496l-9.835.447c-1.086.05-2.013-.892-2.07-2.102-.057-1.21.779-2.232 1.865-2.281l9.835-.448c.888-.04 1.646.729 1.692 1.718l.038.8c.046.99-.636 1.825-1.525 1.866" transform="translate(1.169 -7.012) translate(8.716)"/>
                            <path fill="#FFF" d="M51.472 45.007s-1.116.519-1.154 2.261c-.076 3.53 5.776 7.833 11.7 7.96 3.496.075 9.954-6.083 7.75-9.011-1.792-2.383-15.803-2.703-18.296-1.21" transform="translate(1.169 -7.012) translate(8.716)"/>
                            <path fill="#E1BEE1" d="M34.884 88.19c.054 2.352.297 5.07.871 8.063 2 10.421-.846 23.527-.846 23.527s3.348 1.884 5.253 1.384c1.761-2.785 4.335-19.61 5.628-33.779.71-7.772-11.04-4.987-10.906.805" transform="translate(1.169 -7.012) translate(8.716)"/>
                            <path fill="#2982CC" d="M11.757 76.487s1.818 4.313 14.18 3.055c8.546-.539 9.818-.719 9.818-.719s-1.745 5.23-.555 13.738l-.727.211c.086.444.382 2.754.511 3.429.997.164 6.41.071 10.574.164.146-.493.586-2.562.753-3.18l-.624-.367c1.333-10.28 1.295-19.636.722-23.438-1.272-8.444-9.847-10.779-27.958-6.356-2.354.423-4.64.138-5.412-.175-1.228 1.463-2.133 4.226-2.327 5.778-.562 4.502 1.045 7.86 1.045 7.86" transform="translate(1.169 -7.012) translate(8.716)"/>
                            <path fill="#A7D0EA" d="M35.2 92.561l-.727.211c.086.444.382 2.754.511 3.429.997.164 6.41.071 10.574.164.146-.493.586-2.562.753-3.18l-.624-.367-10.51-.48c.007.075.014.148.023.223" transform="translate(1.169 -7.012) translate(8.716)"/>
                            <path fill="#E1BEE1" d="M33.703 46.12c.96.094 2.914 1.58 3.086 2.486.097.51.067 2.226-.528 3.049-.375.518-1.158.483-1.539.257-1.143.628-1.651.176-2.007 0-.778.44-1.346.351-1.88.05-.304.176-.94.528-1.752.126.355-.478.51-1.505.406-2.561-.067-.681-.81-.845-1.306-.804-1.942.163-2.4 4.825-4.628 1.797-1.057-1.437 1.944-5.211 10.148-4.4" transform="translate(1.169 -7.012) translate(8.716)"/>
                            <path fill="#BD76C5" d="M32.685 51.966c.454-.509 1.71-1.885.763-4.025 1.775 1.882.098 4.133-.763 4.025M30.764 52.047s1.563-2.195.905-3.685c1.586 2.14-.905 3.685-.905 3.685M34.608 51.972s1.488-1.967.386-3.763c2.054 1.76-.386 3.763-.386 3.763" transform="translate(1.169 -7.012) translate(8.716)"/>
                            <path fill="#E1BEE1" d="M33.703 46.12c.96.094 2.914 1.58 3.086 2.486.097.51.067 2.226-.528 3.049-.375.518-1.158.483-1.539.257-1.143.628-1.651.176-2.007 0-.778.44-1.346.351-1.88.05-.304.176-.94.528-1.752.126.355-.478.51-1.505.406-2.561-.067-.681-.81-.845-1.306-.804-1.942.163-2.4 4.825-4.628 1.797-1.057-1.437 1.944-5.211 10.148-4.4" transform="translate(1.169 -7.012) translate(8.716)"/>
                            <path fill="#BD76C5" d="M32.685 51.966c.454-.509 1.71-1.885.763-4.025 1.775 1.882.098 4.133-.763 4.025M30.764 52.047s1.563-2.195.905-3.685c1.586 2.14-.905 3.685-.905 3.685M34.608 51.972s1.488-1.967.386-3.763c2.054 1.76-.386 3.763-.386 3.763" transform="translate(1.169 -7.012) translate(8.716)"/>
                            <path fill="#2D2DA0" d="M32.573 10.842s-.854-.489-1.737-.332c-.013-.093-1.291-2.607-2.414-2.687.006.047.106 1.628-.58 3.04-.234.058-2.31.435-2.31.435.336-1.12-.329-3.286-.329-3.286s-.631 2.573-.843 3.301c-.21.086-.695.65-1.25 1.122l-.393-3.042s-.114 2.876-.114 3.21c-.007-.047-2.106 1.706-2.106 1.706l-.912-3.568 3.773-4.251 2.693-1.716 3.7-.428.416-.203 2.677 3.245-.271 3.454z" transform="translate(1.169 -7.012) translate(8.716)"/>
                            <path fill="#2C2435" d="M23.033 20.643s.345-.728-.94-4.527c-.35-1.035-.594-2.11-.748-2.906-.23-1.184.143-2.415 1.027-3.246.585-.55 1.444-1.12 2.701-1.576 1.284-.466 2.432-.59 3.394-.547 1.814.082 3.363 1.322 3.816 3.06.39 1.494.9 3.76 1.363 6.816 1.156-1.006.563-7.08.563-7.08l-2.133-5.375-7.39-.77L19.4 9.29l-1.152 3.664L20.26 20.8s1.957 1.198 2.773-.158" transform="translate(1.169 -7.012) translate(8.716)"/>
                            <path fill="#FFCD3A" d="M21.332 21.37c1.424-.747-1.889-7.37-2.016-9.45-.133-2.171 1.302-3.849 4.23-5.213 3.873-1.805 7.46-1.11 9.119.98 1.016 1.273 1.543 6.517 1.341 9.879.691.921 1.945-1.75 1.54-5.657-.406-3.906-1.68-8.975-7.777-10.977C21.67-1.07 14.676 3.275 14.205 9.361c-.591 7.644 5.02 13.112 7.127 12.008" transform="translate(1.169 -7.012) translate(8.716)"/>
                            <path fill="#FFF" d="M15.497 9.484s.13-4.364 4.842-6.613c.32 0 1.344.6 1.344.6s-4.442 2.274-4.725 6.603l-1.46-.59z" transform="translate(1.169 -7.012) translate(8.716)"/>
                            <path stroke="#2F64A3" stroke-width=".5" d="M13.791 63.264c-1.167 3.59-.85 10.012 1.56 11.331 3.46 1.203 11.232 2.009 18.555.816.478-.299 1.304-1.314 1.541-1.567.125.611.186 1.188.206 1.805.362-.219 1.42-.812 1.882-1.05.02.318-.069 1.359-.114 1.956-.465 5.437-.484 10.221-.2 15.67" transform="translate(1.169 -7.012) translate(8.716)"/>
                            <path fill="#231F20" d="M24.79 61.655s.137 6.311-2.528 11.776c-.866 1.776-3.11 3.552-6.172 3.885-2.279.248-6.96-1.724-9.021-7.065-1.28-3.315 15.102-7.949 15.102-7.949l2.619-.647z" opacity=".264" transform="translate(1.169 -7.012) translate(8.716)"/>
                            <path fill="#257E99" d="M24.045 58.423s.614 7.844-2.531 14.27c-.869 1.773-3.11 3.551-6.172 3.884-2.28.248-9.73-2.296-11.792-7.637-1.28-3.315 17.99-10.664 17.99-10.664l2.505.147z" transform="translate(1.169 -7.012) translate(8.716)"/>
                            <path fill="#66D3C8" d="M12.104 56.137s-6.49 7.643-7.594 9.417c-1.105 1.774-1.934 3.685.69 5.323 2.623 1.637 7.87 5.868 12.704 2.047 4.833-3.822 4.557-14.603 4.557-14.603s-7.457-.41-10.357-2.184" transform="translate(1.169 -7.012) translate(8.716)"/>
                            <path fill="#257E99" d="M12.104 56.137s-4.792 6-3.01 8.988c2.015 3.38 8.796 3.365 13.063-6.837l.304.033s-4.194 12.902-12.528 8.818c-5.317-3.633 2.171-11.002 2.171-11.002" transform="translate(1.169 -7.012) translate(8.716)"/>
                            <path fill="#1E5B84" d="M12.104 56.137l2.555-2.928 1.503-.12-2.308 3.776s-1.14-.277-1.75-.728" transform="translate(1.169 -7.012) translate(8.716)"/>
                            <path fill="#FFDD47" d="M83.9 33.59c.538 1.96-.948 4.064-3.32 4.7-2.37.636-4.73-.437-5.267-2.396-.538-1.96.948-4.064 3.32-4.7 2.37-.635 4.729.437 5.267 2.397" transform="translate(1.169 -7.012) translate(8.716)"/>
                            <path fill="#FFDD47" d="M69.367 45.39s2.371-5.613 3.302-7.314c.931-1.7 4.05-3.297 4.05-3.297l.314 1.415s-2.454 1.186-3.249 2.555c-.697 1.201-3.26 7.768-3.26 7.768l-1.157-1.126z" transform="translate(1.169 -7.012) translate(8.716)"/>
                            <path fill="#FF4C5A" d="M72.987 93.416c5.201-.741 5.26-7.087 2.668-10.529-2.487-3.301-6.805-5.547-10.909-3.558-4.24 1.75-6.398 7.586-4.886 11.69 1.923 5.221 8.964 2.99 13.127 2.397" transform="translate(1.169 -7.012) translate(8.716)"/>
                        </g>
                        <g transform="translate(1.169 -7.012) translate(72.633 81.348)">
                            <mask id="prefix__h" fill="#fff">
                                <use xlink:href="#prefix__g"/>
                            </mask>
                            <path fill="#FFF" d="M0.159 10.718L10.468 10.309 10.035 -0.333 -0.274 0.077z" mask="url(#prefix__h)"/>
                        </g>
                        <g>
                            <path fill="#BD76C5" d="M24.437.953c.032 2.812 2.87 3.82 2.3 4.434-.176.189-1.23.32-2.205-.31-1.43-.922-1.274-4.233-1.274-4.233l1.18.109zM9.22 32.47s-4.336-.938-7.17 1.867c.146-.685 2.698-3.932 7.552-2.49-.068.107-.382.623-.382.623" transform="translate(1.169 -7.012) translate(13.074 11.621)"/>
                            <path fill="#EAA471" d="M31.736 85.098L40.538 85.544 40.679 84.325 31.591 84.232z" transform="translate(1.169 -7.012) translate(13.074 11.621)"/>
                            <path fill="#231F20" d="M23.485 28.501c.54 2.265 3.199 3.584 5.94 2.946 2.741-.637 4.526-2.99 3.986-5.256-.539-2.265-3.199-3.584-5.94-2.946-2.741.638-4.526 2.991-3.986 5.256" opacity=".264" transform="translate(1.169 -7.012) translate(13.074 11.621)"/>
                            <path fill="#E29F0A" d="M72.04 23.092s.652-1.212 1.483-.908c.83.304 1.148 1.508.5 2.07-.647.562-1.382.5-1.382.5s.743.601 1.75-.259c1.008-.86.446-2.14-.128-2.53-.574-.388-1.769-.138-2.223 1.127" transform="translate(1.169 -7.012) translate(13.074 11.621)"/>
                            <path fill="#FFDD47" d="M24.495 28.127c.47 1.976 2.79 3.127 5.183 2.57 2.391-.556 3.948-2.609 3.477-4.585-.47-1.977-2.79-3.127-5.182-2.57-2.392.556-3.949 2.609-3.478 4.585" transform="translate(1.169 -7.012) translate(13.074 11.621)"/>
                            <path fill="#FFDD47" d="M41.745 34.098s-3.104-4.715-4.465-6.257c-1.287-1.456-4.679-2.52-4.679-2.52l.135 1.71s2.622.817 3.587 1.722c1.197 1.123 4.282 6.488 4.282 6.488l1.14-1.143z" transform="translate(1.169 -7.012) translate(13.074 11.621)"/>
                            <path fill="#E29F0A" d="M31.996 25.844s-1.157-.76-1.741-.101c-.584.658-.283 1.867.557 2.056.84.19 1.456-.21 1.456-.21s-.363.878-1.664.596c-1.3-.282-1.423-1.673-1.105-2.285.317-.613 1.489-.954 2.497-.056" transform="translate(1.169 -7.012) translate(13.074 11.621)"/>
                            <path fill="#9B93B5" d="M.115 27.603s.043.368.587.733c0-.008.361-.96.361-.96s-.623.11-.948.227" transform="translate(1.169 -7.012) translate(13.074 11.621)"/>
                        </g>
                    </g>
                </g>
            </g>
            <mask id="prefix__j" fill="#fff">
                <use xlink:href="#prefix__i"/>
            </mask>
            <g mask="url(#prefix__j)">
                <g>
                    <g>
                        <path fill="#E29F0A" d="M54.766 63.027c-.263 1.965 12.308 1.062 11.359-.237-.95-1.299 1.434-5.09 4.047-8.523 1.573-2.067-21.665.305-21.665.305s6.895 3.717 6.26 8.455zM43.515 86.139s-6.099 33.878 2.562 33.878c10.27 0-5.65 5.948-5.65 5.948l-13.421-3.206-5.162-26.529 5.457-10.494 16.214.403z" transform="translate(6.548 4.809) translate(8.716)"/>
                        <path fill="#E29F0A" d="M39.755 64.449s7.817-2.336 13.635-1.797c5.817.539-6.45 58.22-6.45 58.22l-5.308-2.498s1.031-52.308-1.877-53.925" transform="translate(6.548 4.809) translate(8.716)"/>
                        <path fill="#1F609B" d="M39.755 64.449s7.817-2.336 13.635-1.797c2.909.27 1.296 14.825-1.043 29.312-1.157.103-10.656 1.016-10.56.493-.098-13.42-.562-27.19-2.032-28.008" transform="translate(6.548 4.809) translate(8.716)"/>
                        <path fill="#FFDD47" d="M70.174 62.778c-3.019-1.618-13.311-2.11-19.406 1.161-4.586 2.46-3.512 7.097-3.336 10.483.243 4.688 1.242 14.296.272 27.061-.526 6.937-1.336 18.73-6.374 21.606-1.234.704-7.681-1.022-8-1.56-4.058-6.817-4.66-27.45.548-33.823l-24.734-.702s-2.1 2.768-3.563 9.077c-1.368 5.902.67 15.578 2.15 18.943 5.859-.168 15.43 9.558 24.702 12.508 11.22 1.534 22.818-3.026 22.818-3.026s-.58-13.488 18.207-19.72c5.025-1.667 10.203 4.32 10.286 4.434-.629-23.221-8.082-43.502-13.57-46.442" transform="translate(6.548 4.809) translate(8.716)"/>
                        <path fill="#E29F0A" d="M52.977 119.108c-.492 2.467-.121 4.365 3.76 4.256 17.227-3.287 12.999-4.683 18.555-6.986 4.12-.301 9.318-8.565 7.526-11.399-3.295-5.889-17.571-4.091-23.118.402-3.651 2.958-5.172 5.948-6.723 13.727" transform="translate(6.548 4.809) translate(8.716)"/>
                        <g transform="translate(6.548 4.809) translate(8.716) translate(0 15.976)">
                            <mask id="prefix__l" fill="#fff">
                                <use xlink:href="#prefix__k"/>
                            </mask>
                            <path fill="#2D2DA0" d="M20.319.696s-1.574 2.625-6.197 4.18c-4.623 1.555-7.08 1.846-7.77 4.958-.197.777-3.714 1.708-5.182 4.03-1.8 2.845-1.603 6.37 1.15 6.953.295.195-3.441 4.763-1.278 9.04 2.164 4.278 7.671 4.86 7.671 4.86l21.834-5.54 7.446-2.645s8.97-7.194 7.436-13.415c-1.033-4.184-5.617-2.973-6.142-6.385-.485-3.15-2.587-4.767-3.598-5.758-3.181-2.015-15.37-.278-15.37-.278" mask="url(#prefix__l)"/>
                        </g>
                        <g>
                            <path fill="#E1BEE1" d="M15.317 11.541c1.504 2.067 5.262 8.173 6.858 8.549 1.596.376 18.412 3.193 18.412 3.193l-.093 3.947c-7.421 2.254-21.795.187-24.239-.564-2.441-.751-8.265-10.147-8.265-10.147.65-.848 1.71-2.032 3.287-3.1 1.552-1.049 3.019-1.589 4.04-1.878" transform="translate(6.548 4.809) translate(8.716) translate(31.958 24.692)"/>
                            <path fill="#BD76C5" d="M8.848 18.07c2.137-.62 6.726-4.82 7.002-5.717l-.315-.584-7.066 5.336.38.966z" transform="translate(6.548 4.809) translate(8.716) translate(31.958 24.692)"/>
                            <g transform="translate(6.548 4.809) translate(8.716) translate(31.958 24.692) translate(0 .652)">
                                <mask id="prefix__n" fill="#fff">
                                    <use xlink:href="#prefix__m"/>
                                </mask>
                                <path fill="#FF5F2E" d="M6.702.93c2.089.408 7.04 7.034 9.022 10.079-1.373 2.263-8.58 5.515-8.58 5.515S-.197 7.89.003 5.44C.38.837 4.613.522 6.702.93" mask="url(#prefix__n)"/>
                            </g>
                        </g>
                        <path fill="#464A66" d="M39.581 78.597c-6.943 0-30.446-3.117-33.392-.581-1.833 1.293-.19 8.641 2.64 9.844 1.543.657 15.334 1.555 24.243 1.996 2.17.107 9.189-.033 10.09-.965 2.032-3.145 4.448-9.865-3.58-10.294" transform="translate(6.548 4.809) translate(8.716)"/>
                        <path fill="#E1BEE1" d="M23.615 26.102c-.353.697-5.562.59-10.11 2.44C8.96 30.393 5.513 37.14 2.928 46.318c-1.059 3.601-.118 6.854 1.057 7.086 1.176.233 14.474.647 21.275-3.872l7.153-1.686-1.05-2.983s-7.426 1.782-12.833 1.085c-4.232-.813-6.142.158-6.142.158l4.88-7.92 20.571.232 1.998-8.133-1.998-3.937-4.427-.403s-1.17-4.932-1.66-7.457c-.118-.233-9.738 1.241-9.738 1.241s2.19 4.863 1.602 6.373z" transform="translate(6.548 4.809) translate(8.716)"/>
                        <path fill="#BD76C5" d="M32.9 23.745s-3.804 4.338-9.912-1.334c.284-.42 9.397-.939 9.397-.939l.515 2.273z" transform="translate(6.548 4.809) translate(8.716)"/>
                        <path fill="#2C2435" d="M21.14 21.15s3.865 3.23 8.064 2.497c1.36-.237 5.534-1.956 5.202-7.137l-11.999 3.056-1.267 1.585z" transform="translate(6.548 4.809) translate(8.716)"/>
                        <path fill="#E1BEE1" d="M19.514 7.842s1.587 10.236 3.065 12.263c1.478 2.026 5.247 3.157 6.419 3.042 1.692-.166 3.49-2.433 4.315-4.543.824-2.11-2.307-12.387-2.307-12.387L19.514 7.842z" transform="translate(6.548 4.809) translate(8.716)"/>
                        <path fill="#EAA471" d="M34.256 26.025s3.323 6.305 3.072 6.997c-.643 1.773-1.923 3.254-4.974 3.48-3.182.233-8.203-2.005-8.203-2.005l2.346 3.032 9.88.356 2.887-3.166-.09-3.388-2.211-3.968-1.67-1.605-1.037.267z" transform="translate(6.548 4.809) translate(8.716)"/>
                        <path fill="#BD76C5" d="M5.009 39.978s5.292-.185 9.148 3.256l.265-.42-2.802-3.178-6.007-1.321-.604 1.663z" transform="translate(6.548 4.809) translate(8.716)"/>
                        <path fill="#FF5F2E" d="M23.924 33.942c1.62 2.391 7.744 3.615 10.971 2.66 2.245-.849 3.029-3.193 3.096-3.592.067-.399-2.033-4.92-3.186-7.18 0-.067 2.238.315 2.964.315.27 0 2.376 5.269 3.722 7.464 1.346 2.195 2.827 4.058 2.423 6.453-.404 2.394-3.5 8.58-4.98 12.639-1.481 4.057-1.513 8.316-.84 9.713.135.2-20.95 2.333-20.95 2.333l-4.52-1.399s5.74-6.483 6.595-9.368c.79-2.664-.24-9.626-2.992-13.703l-1.828 2.656S13.091 41.23 10.29 40c-3.138-1.379-6.01-.374-6.01-.374s3.216-6.87 6.12-9.947c1.35-1.538 9.008-2.778 9.008-2.778s2.903 4.126 4.517 7.042z" transform="translate(6.548 4.809) translate(8.716)"/>
                        <path fill="#1E5B84" d="M34.224 25.72s-.23 9.12-1.644 12.298c-3.92 8.816-10.423 20.27-10.423 20.27l1.888.135s8.377-15.04 10.318-19.718c1.942-4.676 1.383-11.749 1.23-13.307-.116 0-1.37.322-1.37.322" transform="translate(6.548 4.809) translate(8.716)"/>
                        <path fill="#E1BEE1" d="M3.478 47.256c-1.004 3.418-.212 5.506.903 5.726 1.116.22 14.696 1.617 22.006-2.97l5.076-1.306 2.8-2.423s-3.302-.75-5.428-.535c-2.38.24-7.001-.031-10.014-.58-4.016-.772-5.748-.669-5.748-.669s-7.14-5.954-9.595 2.757" transform="translate(6.548 4.809) translate(8.716)"/>
                        <path fill="#595E70" d="M73.749 47.396l7.923.723c.875.08 1.51.935 1.42 1.91-.091.975-.874 1.7-1.75 1.621l-7.923-.723c-.715-.066-1.235-.765-1.16-1.562l.06-.644c.074-.797.714-1.39 1.43-1.325" transform="translate(6.548 4.809) translate(8.716)"/>
                        <g>
                            <path fill="#E1BEE1" d="M10.352.113c.96.095 2.914 1.581 3.086 2.486.097.51.067 2.227-.528 3.049-.375.518-1.158.483-1.539.257-1.143.628-1.651.176-2.007 0-.778.441-1.346.352-1.88.05-.304.176-.94.528-1.752.126.355-.477.51-1.505.406-2.56-.067-.682-.81-.845-1.306-.805-1.942.164-2.4 4.825-4.628 1.797C-.853 3.077 2.148-.698 10.352.113" transform="translate(6.548 4.809) translate(8.716) translate(68.275 46.482)"/>
                            <path fill="#BD76C5" d="M9.334 5.96c.454-.51 1.71-1.885.763-4.025 1.775 1.881.098 4.133-.763 4.025M7.413 6.04s1.563-2.195.905-3.685c1.586 2.14-.905 3.685-.905 3.685M11.257 5.965s1.488-1.967.386-3.763c2.054 1.76-.386 3.763-.386 3.763" transform="translate(6.548 4.809) translate(8.716) translate(68.275 46.482)"/>
                        </g>
                        <path fill="#FFDD47" d="M36.749 47.02c.157-1.181 1.189-1.058 2.365-1.104 2.582-.1 6.814-2.009 8.764-3.302 2.807-1.863 5.259-2.752 8.145-2.881 2.886-.129 7.101.097 8.555.434 3.14.729 5.479 3.903 6.511 4.88 1.033.976 3.829 1.433 4.61 1.677 1.219.313 1.718 2.757.493 4.94-.633.99-2.138.494-4.2 1.816-1.76 1.129-4.895 5.208-9.238 5.491-5.166.338-9.065-1.773-13.521-4.053-2.455-1.256-6.604-1.96-9.63-1.823-.993.044-2.018-.25-2.4-1.18-.423-1.03-.757-2.616-.454-4.895" transform="translate(6.548 4.809) translate(8.716)"/>
                        <path fill="#595E70" d="M37.975 51.496l-9.835.447c-1.086.05-2.013-.892-2.07-2.102-.057-1.21.779-2.232 1.865-2.281l9.835-.448c.888-.04 1.646.729 1.692 1.718l.038.8c.046.99-.636 1.825-1.525 1.866" transform="translate(6.548 4.809) translate(8.716)"/>
                        <path fill="#FFF" d="M51.472 45.007s-1.116.519-1.154 2.261c-.076 3.53 5.776 7.833 11.7 7.96 3.496.075 9.954-6.083 7.75-9.011-1.792-2.383-15.803-2.703-18.296-1.21" transform="translate(6.548 4.809) translate(8.716)"/>
                        <path fill="#E1BEE1" d="M34.884 88.19c.054 2.352.297 5.07.871 8.063 2 10.421-.846 23.527-.846 23.527s3.348 1.884 5.253 1.384c1.761-2.785 4.335-19.61 5.628-33.779.71-7.772-11.04-4.987-10.906.805" transform="translate(6.548 4.809) translate(8.716)"/>
                        <path fill="#2982CC" d="M11.757 76.487s1.818 4.313 14.18 3.055c8.546-.539 9.818-.719 9.818-.719s-1.745 5.23-.555 13.738l-.727.211c.086.444.382 2.754.511 3.429.997.164 6.41.071 10.574.164.146-.493.586-2.562.753-3.18l-.624-.367c1.333-10.28 1.295-19.636.722-23.438-1.272-8.444-9.847-10.779-27.958-6.356-2.354.423-4.64.138-5.412-.175-1.228 1.463-2.133 4.226-2.327 5.778-.562 4.502 1.045 7.86 1.045 7.86" transform="translate(6.548 4.809) translate(8.716)"/>
                        <path fill="#A7D0EA" d="M35.2 92.561l-.727.211c.086.444.382 2.754.511 3.429.997.164 6.41.071 10.574.164.146-.493.586-2.562.753-3.18l-.624-.367-10.51-.48c.007.075.014.148.023.223" transform="translate(6.548 4.809) translate(8.716)"/>
                        <path fill="#E1BEE1" d="M33.703 46.12c.96.094 2.914 1.58 3.086 2.486.097.51.067 2.226-.528 3.049-.375.518-1.158.483-1.539.257-1.143.628-1.651.176-2.007 0-.778.44-1.346.351-1.88.05-.304.176-.94.528-1.752.126.355-.478.51-1.505.406-2.561-.067-.681-.81-.845-1.306-.804-1.942.163-2.4 4.825-4.628 1.797-1.057-1.437 1.944-5.211 10.148-4.4" transform="translate(6.548 4.809) translate(8.716)"/>
                        <path fill="#BD76C5" d="M32.685 51.966c.454-.509 1.71-1.885.763-4.025 1.775 1.882.098 4.133-.763 4.025M30.764 52.047s1.563-2.195.905-3.685c1.586 2.14-.905 3.685-.905 3.685M34.608 51.972s1.488-1.967.386-3.763c2.054 1.76-.386 3.763-.386 3.763" transform="translate(6.548 4.809) translate(8.716)"/>
                        <path fill="#E1BEE1" d="M33.703 46.12c.96.094 2.914 1.58 3.086 2.486.097.51.067 2.226-.528 3.049-.375.518-1.158.483-1.539.257-1.143.628-1.651.176-2.007 0-.778.44-1.346.351-1.88.05-.304.176-.94.528-1.752.126.355-.478.51-1.505.406-2.561-.067-.681-.81-.845-1.306-.804-1.942.163-2.4 4.825-4.628 1.797-1.057-1.437 1.944-5.211 10.148-4.4" transform="translate(6.548 4.809) translate(8.716)"/>
                        <path fill="#BD76C5" d="M32.685 51.966c.454-.509 1.71-1.885.763-4.025 1.775 1.882.098 4.133-.763 4.025M30.764 52.047s1.563-2.195.905-3.685c1.586 2.14-.905 3.685-.905 3.685M34.608 51.972s1.488-1.967.386-3.763c2.054 1.76-.386 3.763-.386 3.763" transform="translate(6.548 4.809) translate(8.716)"/>
                        <path fill="#2D2DA0" d="M32.573 10.842s-.854-.489-1.737-.332c-.013-.093-1.291-2.607-2.414-2.687.006.047.106 1.628-.58 3.04-.234.058-2.31.435-2.31.435.336-1.12-.329-3.286-.329-3.286s-.631 2.573-.843 3.301c-.21.086-.695.65-1.25 1.122l-.393-3.042s-.114 2.876-.114 3.21c-.007-.047-2.106 1.706-2.106 1.706l-.912-3.568 3.773-4.251 2.693-1.716 3.7-.428.416-.203 2.677 3.245-.271 3.454z" transform="translate(6.548 4.809) translate(8.716)"/>
                        <path fill="#2C2435" d="M23.033 20.643s.345-.728-.94-4.527c-.35-1.035-.594-2.11-.748-2.906-.23-1.184.143-2.415 1.027-3.246.585-.55 1.444-1.12 2.701-1.576 1.284-.466 2.432-.59 3.394-.547 1.814.082 3.363 1.322 3.816 3.06.39 1.494.9 3.76 1.363 6.816 1.156-1.006.563-7.08.563-7.08l-2.133-5.375-7.39-.77L19.4 9.29l-1.152 3.664L20.26 20.8s1.957 1.198 2.773-.158" transform="translate(6.548 4.809) translate(8.716)"/>
                        <path fill="#FFCD3A" d="M21.332 21.37c1.424-.747-1.889-7.37-2.016-9.45-.133-2.171 1.302-3.849 4.23-5.213 3.873-1.805 7.46-1.11 9.119.98 1.016 1.273 1.543 6.517 1.341 9.879.691.921 1.945-1.75 1.54-5.657-.406-3.906-1.68-8.975-7.777-10.977C21.67-1.07 14.676 3.275 14.205 9.361c-.591 7.644 5.02 13.112 7.127 12.008" transform="translate(6.548 4.809) translate(8.716)"/>
                        <path fill="#FFF" d="M15.497 9.484s.13-4.364 4.842-6.613c.32 0 1.344.6 1.344.6s-4.442 2.274-4.725 6.603l-1.46-.59z" transform="translate(6.548 4.809) translate(8.716)"/>
                        <path stroke="#2F64A3" stroke-width=".5" d="M13.791 63.264c-1.167 3.59-.85 10.012 1.56 11.331 3.46 1.203 11.232 2.009 18.555.816.478-.299 1.304-1.314 1.541-1.567.125.611.186 1.188.206 1.805.362-.219 1.42-.812 1.882-1.05.02.318-.069 1.359-.114 1.956-.465 5.437-.484 10.221-.2 15.67" transform="translate(6.548 4.809) translate(8.716)"/>
                        <path fill="#231F20" d="M24.79 61.655s.137 6.311-2.528 11.776c-.866 1.776-3.11 3.552-6.172 3.885-2.279.248-6.96-1.724-9.021-7.065-1.28-3.315 15.102-7.949 15.102-7.949l2.619-.647z" opacity=".264" transform="translate(6.548 4.809) translate(8.716)"/>
                        <path fill="#257E99" d="M24.045 58.423s.614 7.844-2.531 14.27c-.869 1.773-3.11 3.551-6.172 3.884-2.28.248-9.73-2.296-11.792-7.637-1.28-3.315 17.99-10.664 17.99-10.664l2.505.147z" transform="translate(6.548 4.809) translate(8.716)"/>
                        <path fill="#66D3C8" d="M12.104 56.137s-6.49 7.643-7.594 9.417c-1.105 1.774-1.934 3.685.69 5.323 2.623 1.637 7.87 5.868 12.704 2.047 4.833-3.822 4.557-14.603 4.557-14.603s-7.457-.41-10.357-2.184" transform="translate(6.548 4.809) translate(8.716)"/>
                        <path fill="#257E99" d="M12.104 56.137s-4.792 6-3.01 8.988c2.015 3.38 8.796 3.365 13.063-6.837l.304.033s-4.194 12.902-12.528 8.818c-5.317-3.633 2.171-11.002 2.171-11.002" transform="translate(6.548 4.809) translate(8.716)"/>
                        <path fill="#1E5B84" d="M12.104 56.137l2.555-2.928 1.503-.12-2.308 3.776s-1.14-.277-1.75-.728" transform="translate(6.548 4.809) translate(8.716)"/>
                        <path fill="#FFDD47" d="M83.9 33.59c.538 1.96-.948 4.064-3.32 4.7-2.37.636-4.73-.437-5.267-2.396-.538-1.96.948-4.064 3.32-4.7 2.37-.635 4.729.437 5.267 2.397" transform="translate(6.548 4.809) translate(8.716)"/>
                        <path fill="#FFDD47" d="M69.367 45.39s2.371-5.613 3.302-7.314c.931-1.7 4.05-3.297 4.05-3.297l.314 1.415s-2.454 1.186-3.249 2.555c-.697 1.201-3.26 7.768-3.26 7.768l-1.157-1.126z" transform="translate(6.548 4.809) translate(8.716)"/>
                        <path fill="#FF4C5A" d="M72.987 93.416c5.201-.741 5.26-7.087 2.668-10.529-2.487-3.301-6.805-5.547-10.909-3.558-4.24 1.75-6.398 7.586-4.886 11.69 1.923 5.221 8.964 2.99 13.127 2.397" transform="translate(6.548 4.809) translate(8.716)"/>
                    </g>
                    <g transform="translate(6.548 4.809) translate(72.633 81.348)">
                        <mask id="prefix__p" fill="#fff">
                            <use xlink:href="#prefix__o"/>
                        </mask>
                        <path fill="#FFF" d="M0.159 10.718L10.468 10.309 10.035 -0.333 -0.274 0.077z" mask="url(#prefix__p)"/>
                    </g>
                    <g>
                        <path fill="#BD76C5" d="M24.437.953c.032 2.812 2.87 3.82 2.3 4.434-.176.189-1.23.32-2.205-.31-1.43-.922-1.274-4.233-1.274-4.233l1.18.109zM9.22 32.47s-4.336-.938-7.17 1.867c.146-.685 2.698-3.932 7.552-2.49-.068.107-.382.623-.382.623" transform="translate(6.548 4.809) translate(13.074 11.621)"/>
                        <path fill="#EAA471" d="M31.736 85.098L40.538 85.544 40.679 84.325 31.591 84.232z" transform="translate(6.548 4.809) translate(13.074 11.621)"/>
                        <path fill="#231F20" d="M23.485 28.501c.54 2.265 3.199 3.584 5.94 2.946 2.741-.637 4.526-2.99 3.986-5.256-.539-2.265-3.199-3.584-5.94-2.946-2.741.638-4.526 2.991-3.986 5.256" opacity=".264" transform="translate(6.548 4.809) translate(13.074 11.621)"/>
                        <path fill="#E29F0A" d="M72.04 23.092s.652-1.212 1.483-.908c.83.304 1.148 1.508.5 2.07-.647.562-1.382.5-1.382.5s.743.601 1.75-.259c1.008-.86.446-2.14-.128-2.53-.574-.388-1.769-.138-2.223 1.127" transform="translate(6.548 4.809) translate(13.074 11.621)"/>
                        <path fill="#FFDD47" d="M24.495 28.127c.47 1.976 2.79 3.127 5.183 2.57 2.391-.556 3.948-2.609 3.477-4.585-.47-1.977-2.79-3.127-5.182-2.57-2.392.556-3.949 2.609-3.478 4.585" transform="translate(6.548 4.809) translate(13.074 11.621)"/>
                        <path fill="#FFDD47" d="M41.745 34.098s-3.104-4.715-4.465-6.257c-1.287-1.456-4.679-2.52-4.679-2.52l.135 1.71s2.622.817 3.587 1.722c1.197 1.123 4.282 6.488 4.282 6.488l1.14-1.143z" transform="translate(6.548 4.809) translate(13.074 11.621)"/>
                        <path fill="#E29F0A" d="M31.996 25.844s-1.157-.76-1.741-.101c-.584.658-.283 1.867.557 2.056.84.19 1.456-.21 1.456-.21s-.363.878-1.664.596c-1.3-.282-1.423-1.673-1.105-2.285.317-.613 1.489-.954 2.497-.056" transform="translate(6.548 4.809) translate(13.074 11.621)"/>
                        <path fill="#9B93B5" d="M.115 27.603s.043.368.587.733c0-.008.361-.96.361-.96s-.623.11-.948.227" transform="translate(6.548 4.809) translate(13.074 11.621)"/>
                    </g>
                </g>
            </g>
        </g>
        <g transform="rotate(11 -153.222 197.865)">
            <mask id="prefix__r" fill="#fff">
                <use xlink:href="#prefix__q"/>
            </mask>
            <path fill="#F2A554" d="M36.856 71.088H5.763c-3.064 0-5.546-2.484-5.546-5.546V6.574c0-3.06 2.482-5.546 5.546-5.546h31.093c3.063 0 5.546 2.485 5.546 5.546v58.968c0 3.062-2.483 5.546-5.546 5.546" mask="url(#prefix__r)"/>
            <path fill="#331A00" d="M1.94 61.511V7.529c0-1.347 1.093-2.443 2.442-2.443h33.855c1.347 0 2.441 1.096 2.441 2.443v53.982c0 1.349-1.094 2.442-2.441 2.442H4.382c-1.349 0-2.442-1.093-2.442-2.442"/>
            <path fill="#FFF" d="M23.532 67.553c0-1.228-.995-2.223-2.223-2.223-1.227 0-2.224.995-2.224 2.223 0 1.228.997 2.224 2.224 2.224 1.228 0 2.223-.996 2.223-2.224M26.006 3.616h-9.394c-.27 0-.487-.219-.487-.486 0-.27.217-.489.487-.489h9.394c.27 0 .487.22.487.49 0 .266-.217.485-.487.485"/>
        </g>
        <g>
            <path fill="#4CAF50" d="M16.999 0C10.612-.003 4.763 3.576 1.859 9.264c-2.905 5.688-2.374 12.525 1.374 17.697l-2.125 6.315 6.541-2.09c2.77 1.841 6.024 2.82 9.35 2.814 9.389 0 17-7.611 17-17s-7.611-17-17-17z" transform="rotate(11 -240.906 277.671)"/>
            <path fill="#FFF" d="M26.893 24.005c-.697 1.258-1.92 2.137-3.333 2.397-.89.186-2.046.339-5.95-1.275-4.994-2.072-8.217-7.145-8.468-7.477-1.152-1.479-1.853-3.259-2.019-5.127-.042-1.565.592-3.072 1.74-4.136.48-.42 1.103-.639 1.74-.61.212 0 .398.012.566.019.5.02.751.052 1.083.837.412.992 1.408 3.427 1.527 3.684.169.279.196.62.074.923-.14.288-.326.55-.551.777-.253.283-.492.51-.737.823-.232.272-.492.558-.2 1.055.747 1.27 1.675 2.425 2.756 3.427 1.16 1.063 2.513 1.897 3.985 2.456.398.193.874.12 1.195-.185.474-.563.917-1.15 1.33-1.76.252-.416.778-.576 1.22-.37.458.158 2.889 1.36 3.388 1.606.498.245.83.372.949.578.128.798.026 1.616-.295 2.358z" transform="rotate(11 -240.906 277.671)"/>
        </g>
    </g>
</svg>
