<svg xmlns="http://www.w3.org/2000/svg" xmlns:xlink="http://www.w3.org/1999/xlink" width="80" height="80" viewBox="0 0 80 80">
    <defs>
        <linearGradient id="a" x1="50%" x2="50%" y1="0%" y2="100%">
            <stop offset="0%" stop-color="#EC2DFF"/>
            <stop offset="100%" stop-color="#2D0075"/>
        </linearGradient>
        <path id="b" d="M.08.859h42.668v22a2 2 0 0 1-2 2H2.08a2 2 0 0 1-2-2v-22z"/>
        <rect id="d" width="48" height="12.444" rx="2"/>
        <filter id="f" width="140%" height="140%" x="-20%" y="-20%" filterUnits="objectBoundingBox">
            <feOffset in="SourceAlpha" result="shadowOffsetOuter1"/>
            <feGaussianBlur in="shadowOffsetOuter1" result="shadowBlurOuter1" stdDeviation="1"/>
            <feColorMatrix in="shadowBlurOuter1" result="shadowMatrixOuter1" values="0 0 0 0 1 0 0 0 0 0.482444574 0 0 0 0 0.270102896 0 0 0 0.5 0"/>
            <feMerge>
                <feMergeNode in="shadowMatrixOuter1"/>
                <feMergeNode in="SourceGraphic"/>
            </feMerge>
        </filter>
        <path id="g" d="M47.7 39.444l-.118.416.846.47a3.054 3.054 0 0 1 0 5.34l-.846.47.266.931a3.054 3.054 0 0 1-3.777 3.777l-.93-.266-.47.846a3.054 3.054 0 0 1-5.341 0l-.47-.846-.931.266a3.054 3.054 0 0 1-3.777-3.777l.266-.93-.846-.47a3.054 3.054 0 0 1 0-5.341l.846-.47-.119-.416h2.78a2.001 2.001 0 1 0 3.842 0h2.807L36.4 46.55l-.06.094a.75.75 0 0 0 1.187.89l.073-.084 6-8 .002-.006H47.7zM43 44a2 2 0 1 0 0 4 2 2 0 0 0 0-4z"/>
    </defs>
    <g fill="none" fill-rule="evenodd">
        <circle cx="40" cy="40" r="40" fill="url(#a)"/>
        <path fill="#FFE100" d="M58.53 17.72c1.144 5.38-1.088 7.589-6.065 8.602l-.26.05-1.463.276-8.542 1.813.772 1.06-2.878-.612-2.876.612.77-1.06-8.541-1.813-1.462-.275-.26-.051c-4.977-1.013-7.21-3.222-6.066-8.601.85-4.003 3.143-5.945 5.979-5.343 2.507.533 3.97 1.849 6.063 4.517l.744.978a457.859 457.859 0 0 1 3.22 4.36l-.249-.342A3.546 3.546 0 0 1 40 20.778c1.074 0 2.038.476 2.69 1.23l-.166.225a457.857 457.857 0 0 1 3.22-4.36l.745-.978c2.092-2.668 3.555-3.984 6.062-4.517 2.837-.602 5.128 1.34 5.98 5.343zm-6.007-1.7c-.87.184-1.307.609-3.193 3.014l-.437.57c-.306.403-.676.898-1.11 1.483l-2.23 3.027 4.374-.929 2.034-.389.406-.088c2.607-.594 3.228-1.356 2.762-3.867l-.077-.38c-.352-1.661-1.66-2.627-2.53-2.442zm-24.856 0c-.87-.186-2.177.78-2.53 2.44l-.076.38c-.467 2.512.154 3.274 2.761 3.868l.406.088 2.034.39 4.374.928-2.23-3.027c-.434-.585-.804-1.08-1.11-1.484l-.436-.569c-1.887-2.405-2.324-2.83-3.193-3.015z"/>
        <path fill="#FFA624" d="M18.667 39.444h42.666v22a2 2 0 0 1-2 2H20.667a2 2 0 0 1-2-2v-22z"/>
        <g transform="translate(18.586 38.586)">
            <mask id="c" fill="#fff">
                <use xlink:href="#b"/>
            </mask>
            <use fill="#FFA624" xlink:href="#b"/>
            <path fill="#FF9B0B" fill-rule="nonzero" d="M-23.586-8l37.414 37.414-1.414 1.414L-25-6.586-23.586-8zm7.414 0l37.415 37.414-1.415 1.414-37.414-37.414L-16.172-8zm7 0l37.415 37.414-1.415 1.414-37.414-37.414L-9.172-8zm7 0l37.415 37.414-1.415 1.414L-3.586-6.586-2.172-8zm7 0l37.415 37.414-1.415 1.414L3.414-6.586 4.828-8zm7 0l37.415 37.414-1.415 1.414L10.414-6.586 11.828-8zm7 0l37.415 37.414-1.415 1.414L17.414-6.586 18.828-8zm7 0l37.415 37.414-1.415 1.414L24.414-6.586 25.828-8zm7 0l37.415 37.414-1.415 1.414L31.414-6.586 32.828-8z" mask="url(#c)"/>
        </g>
        <g transform="translate(16 27)">
            <rect width="48" height="12.444" fill="#FFB636" rx="2"/>
            <path fill="#FF7E1D" d="M2.667 12.444h42.667v1.778H2.667z"/>
            <path fill="#FFE100" d="M21.333 12.444h5.333v24h-5.333z"/>
            <path fill="#F44" d="M20.444 0h7.111v12.444h-7.111z"/>
            <path fill="#FF9F1C" d="M21.333 12.444h5.333v1.778h-5.333z"/>
        </g>
        <g transform="translate(16 27)">
            <mask id="e" fill="#fff">
                <use xlink:href="#d"/>
            </mask>
            <use fill="#FFB636" xlink:href="#d"/>
            <path fill="#FFAC19" fill-rule="nonzero" d="M-20.586-13l37.414 37.414-1.414 1.414L-22-11.586-20.586-13zm7.414 0l37.415 37.414-1.415 1.414-37.414-37.414L-13.172-13zm7 0l37.415 37.414-1.415 1.414-37.414-37.414L-6.172-13zm7 0l37.415 37.414-1.415 1.414L-.586-11.586.828-13zm7 0l37.415 37.414-1.415 1.414L6.414-11.586 7.828-13zm7 0l37.415 37.414-1.415 1.414-37.414-37.414L14.828-13zm7 0l37.415 37.414-1.415 1.414-37.414-37.414L21.828-13zm7 0l37.415 37.414-1.415 1.414-37.414-37.414L28.828-13zm7 0l37.415 37.414-1.415 1.414-37.414-37.414L35.828-13z" mask="url(#e)"/>
            <path fill="#FFE736" d="M20.444 0h7.111v12.444h-7.111z" mask="url(#e)"/>
        </g>
        <g filter="url(#f)" transform="translate(30 33)">
            <circle cx="10" cy="10" r="7" fill="#FFE736"/>
            <path fill="#0B7951" d="M11.483.385c.499.277.91.688 1.187 1.187l.47.846.931-.266a3.054 3.054 0 0 1 3.777 3.777l-.266.93.846.47a3.054 3.054 0 0 1 0 5.341l-.846.47.266.931a3.054 3.054 0 0 1-3.777 3.777l-.93-.266-.47.846a3.054 3.054 0 0 1-5.341 0l-.47-.846-.931.266a3.054 3.054 0 0 1-3.777-3.777l.266-.93-.846-.47a3.054 3.054 0 0 1 0-5.341l.846-.47-.266-.931A3.054 3.054 0 0 1 5.93 2.152l.93.266.47-.846A3.054 3.054 0 0 1 11.484.385zM13 11a2 2 0 1 0 0 4 2 2 0 0 0 0-4zm.45-5.6a.75.75 0 0 0-1.05.15l-6 8-.06.094a.75.75 0 0 0 1.26.806l6-8 .06-.094a.75.75 0 0 0-.21-.956zM7 5a2 2 0 1 0 0 4 2 2 0 0 0 0-4z"/>
        </g>
        <use fill="#075E3E" xlink:href="#g"/>
    </g>
</svg>
