<svg xmlns="http://www.w3.org/2000/svg" width="80" height="80" viewBox="0 0 80 80">
    <defs>
        <linearGradient id="a" x1="50%" x2="50%" y1="0%" y2="100%">
            <stop offset="0%" stop-color="#EC2DFF"/>
            <stop offset="100%" stop-color="#2D0075"/>
        </linearGradient>
    </defs>
    <g fill="none" fill-rule="evenodd" transform="translate(0 -11)">
        <circle cx="40" cy="51" r="40" fill="url(#a)"/>
        <path fill="#F3AFFF" d="M11.073 48.84l3.177 3.067C7.809 58.577 3.806 62.694 2.243 64.261a41.082 41.082 0 0 1-1.375-4.935l10.205-10.487z"/>
        <path fill="#BE18D7" d="M59.336 74.87c.641.067.535 1.06-.105.994-.641-.068-.536-1.062.105-.995zm-8.432-2.98c.641.068.535 1.062-.105.995-.641-.067-.535-1.062.105-.995zm8.608-2.803l.118 2.95a.5.5 0 1 1-.998.04l-.119-2.95a.5.5 0 1 1 .999-.04zm7.595 2.156c.641.067.536 1.062-.105.994-.641-.067-.536-1.062.105-.994zM55.742 67.07a.5.5 0 0 1 .028.706l-2.238 2.423a.498.498 0 0 1-.705.027.499.499 0 0 1-.029-.705l2.237-2.423a.5.5 0 0 1 .707-.028zm7.383 0l2.116 1.954a.499.499 0 1 1-.677.733l-2.117-1.953a.499.499 0 1 1 .678-.734zm-16.75-3.312c.642.068.536 1.062-.104.995-.642-.068-.536-1.062.104-.995zm13.716-1.449a1.91 1.91 0 0 1-1.495 3.298 1.91 1.91 0 0 1-1.705-1.82c-.02-.51.159-.996.505-1.37a1.89 1.89 0 0 1 1.325-.612c.509-.02.995.158 1.37.504zm-6.004 1.636a.501.501 0 0 1-.48.52l-3.087.124a.499.499 0 0 1-.04-1l3.087-.123a.506.506 0 0 1 .52.479zm4.807-1.136a.896.896 0 0 0-.763.286.9.9 0 0 0-.24.652c.02.5.44.894.942.87a.91.91 0 0 0 .871-.943.9.9 0 0 0-.292-.63.899.899 0 0 0-.518-.235zm8.703.596a.5.5 0 0 1-.479.52l-3.206.129a.5.5 0 0 1-.04-1l3.207-.128a.504.504 0 0 1 .518.48zm2.77-.652c.64.067.535 1.061-.105.994-.642-.067-.535-1.062.104-.994zm-17.332-4.996l2.06 1.901a.499.499 0 1 1-.677.734l-2.061-1.901a.5.5 0 0 1 .678-.734zm11.737-.47a.5.5 0 0 1 .029.706l-2.088 2.262a.497.497 0 0 1-.706.027.499.499 0 0 1-.028-.706l2.087-2.261a.5.5 0 0 1 .706-.027zm-5.805-1.849l.127 3.2a.5.5 0 1 1-.998.039l-.129-3.199a.5.5 0 0 1 .48-.52.507.507 0 0 1 .52.48zm-8.794-1.346c.641.068.535 1.062-.105.995-.641-.068-.536-1.062.105-.995zm17.293.578c.642.067.536 1.062-.104.994-.642-.067-.536-1.061.104-.994zm-9.107-3.738c.641.067.535 1.062-.105.994-.641-.067-.536-1.062.105-.994z"/>
        <path fill="#A91DCF" d="M20.392 76a.393.393 0 0 0 0 .784.392.392 0 0 0 0-.784m0 1.784a1.393 1.393 0 0 1 0-2.784 1.393 1.393 0 0 1 0 2.784"/>
        <path fill="#9719C2" d="M20.725 69.5c.965 0 .967-1.5 0-1.5-.965 0-.967 1.5 0 1.5"/>
        <path fill="#C523EE" d="M50.666 39.274l.508 1.008 1.008-.509a.5.5 0 0 1 .451.893l-1.008.509.51 1.007a.5.5 0 0 1-.893.452l-.51-1.008-1.007.508a.503.503 0 0 1-.672-.22.5.5 0 0 1 .221-.672l1.007-.509-.508-1.008a.5.5 0 0 1 .893-.451z"/>
        <path fill="#A91DCF" d="M15.5 72c.644 0 .645-1 0-1-.644 0-.645 1 0 1"/>
        <g>
            <path fill="#FFCB1A" d="M62.997 36c-4.467 4.503-6.136 13.636-.24 13.74 5.896.102 4.827-9.079.24-13.74z"/>
            <path fill="#F3AFFF" d="M62.238 31.808a1.89 1.89 0 0 1-2.742-.312l-1.568-2.108a9.245 9.245 0 0 0-7.419-3.729H25.763l6.172-3.835h18.469c3.666 0 7.154 1.58 9.57 4.338l2.47 2.82a1.99 1.99 0 0 1-.206 2.826z"/>
            <path fill="#401978" d="M45.16 21.605l.183 10.5a3.927 3.927 0 0 1-3.178 3.923l.042 2.437a7.852 7.852 0 0 1-2.202 5.591L29.65 54.778a3.926 3.926 0 0 1-5.552.097l-3.845-3.715a1.954 1.954 0 0 1-.499.91l-1.363 1.413a1.963 1.963 0 0 1-2.776.048l-5.648-5.454a1.963 1.963 0 0 1-.049-2.776l1.364-1.412a1.963 1.963 0 0 1 2.776-.049l.706.682 9.886-10.237a1.963 1.963 0 0 0-.049-2.776l-.706-.682a2.945 2.945 0 0 1-.072-4.163l2.75-2.85a7.852 7.852 0 0 1 5.763-2.396l12.823.187zm-6.118 14.449l-6.058-.117a3.926 3.926 0 0 0-2.9 1.199l-9.706 10.051 3.649 3.525a3.926 3.926 0 0 0 5.551-.097l7.286-7.545a7.852 7.852 0 0 0 2.203-5.592l-.025-1.424z"/>
            <path fill="#151055" d="M24.174 43.256l1.85 1.787a3.926 3.926 0 0 0 6.032-.704l5.522-8.605-6.245.109-7.159 7.413z"/>
        </g>
        <g>
            <path fill="#E1E8F9" d="M27.344 46.036A3.344 3.344 0 0 0 24 49.38v48.44a3.344 3.344 0 0 0 3.344 3.344h25.484a3.344 3.344 0 0 0 3.344-3.344V49.38a3.344 3.344 0 0 0-3.344-3.344H27.344z"/>
            <path fill="#FAFAFA" d="M27.344 46.036A3.344 3.344 0 0 0 24 49.38v48.44l27.401-51.784H27.344z"/>
            <path fill="#234B7A" d="M53.926 89.66c0 .717-.582 1.298-1.299 1.298H27.545a1.298 1.298 0 0 1-1.299-1.299V49.5c0-.717.582-1.298 1.299-1.298h25.082c.717 0 1.299.581 1.299 1.298v40.16z"/>
            <path fill="#17285B" d="M53.926 89.66c0 .717-.582 1.298-1.299 1.298H27.545c-.171 0-.171.014 0 .042l22.757-42.799h2.325c.717 0 1.299.581 1.299 1.298v40.16z"/>
            <path fill="#FAFAFA" d="M32.425 66.744c1.743-3.57 4.37-3.15 5.817-2.783 1.448.368 2.467.42 4.477-.052 3.512-.788 4.772 1.811 4.772 1.811s-2.091.656-2.225 3.491C45.123 72.23 48 73.175 48 73.175s-.375 1.654-1.742 3.491c-1.368 1.837-3.23 1.344-3.73 1.024-.458-.292-1.623-.865-3.32-.079-1.204.557-3.11.472-4.504-1.024-2.466-2.73-3.297-7.612-2.279-9.843zM46.97 56s.341 2.227-1.238 3.952C43.953 61.894 41.037 62 41.037 62s-.427-2.479 1.622-4.204c2.176-1.832 4.31-1.796 4.31-1.796zM34 47h12v1.8a1.2 1.2 0 0 1-1.2 1.2h-9.6a1.2 1.2 0 0 1-1.2-1.2V47z"/>
        </g>
    </g>
</svg>
