<svg xmlns="http://www.w3.org/2000/svg" xmlns:xlink="http://www.w3.org/1999/xlink" width="80" height="80" viewBox="0 0 80 80">
    <defs>
        <linearGradient id="b" x1="50%" x2="50%" y1="0%" y2="100%">
            <stop offset="0%" stop-color="#EC2DFF"/>
            <stop offset="100%" stop-color="#2D0075"/>
        </linearGradient>
        <circle id="a" cx="40" cy="40" r="40"/>
    </defs>
    <g fill="none" fill-rule="evenodd">
        <mask id="c" fill="#fff">
            <use xlink:href="#a"/>
        </mask>
        <use fill="url(#b)" xlink:href="#a"/>
        <g mask="url(#c)">
            <path fill="#D540EB" d="M69.534 47.704c.645 0 .643 1 0 1-.645 0-.644-1 0-1zm-8.697-2.08c.645 0 .644 1 0 1-.645 0-.643-1 0-1zm8.268-3.688l.426 2.92a.5.5 0 1 1-.989.145l-.426-2.921a.5.5 0 1 1 .99-.144zm7.779 1.35c.645 0 .644 1 0 1-.645 0-.644-1 0-1zm-11.74-2.963a.5.5 0 0 1 .102.7l-1.972 2.643a.498.498 0 0 1-.699.101.499.499 0 0 1-.102-.699l1.971-2.643a.5.5 0 0 1 .7-.102zm7.343-.771l2.31 1.722a.499.499 0 1 1-.598.8l-2.309-1.721a.499.499 0 1 1 .597-.801zm-17.004-1.543c.645 0 .644 1 0 1-.645 0-.644-1 0-1zm13.49-2.875a1.91 1.91 0 0 1-1.142 3.436 1.91 1.91 0 0 1-1.887-1.631 1.896 1.896 0 0 1 .36-1.416 1.89 1.89 0 0 1 1.253-.747 1.895 1.895 0 0 1 1.415.358zm-5.8 2.254a.501.501 0 0 1-.423.568l-3.057.445a.499.499 0 0 1-.145-.99l3.058-.445a.506.506 0 0 1 .567.422zm4.661-1.632a.896.896 0 0 0-.729.364.9.9 0 0 0-.17.674.904.904 0 0 0 1.027.767.91.91 0 0 0 .768-1.03.9.9 0 0 0-.356-.595.899.899 0 0 0-.54-.18zm8.718-.316a.5.5 0 0 1-.422.567l-3.175.463a.5.5 0 0 1-.145-.99l3.176-.463a.504.504 0 0 1 .566.423zm2.686-.939c.645 0 .644 1 0 1-.645 0-.643-1 0-1zM61.48 31.344l2.247 1.676a.499.499 0 1 1-.597.8l-2.248-1.675a.5.5 0 0 1 .598-.801zm11.623-1.693a.5.5 0 0 1 .102.699l-1.84 2.467a.497.497 0 0 1-.699.1.499.499 0 0 1-.102-.698l1.84-2.467a.5.5 0 0 1 .7-.101zm-5.967-1.233l.461 3.168a.5.5 0 1 1-.989.144l-.462-3.168a.5.5 0 0 1 .423-.567.507.507 0 0 1 .567.423zM58.25 28c.645 0 .644 1 0 1-.645 0-.644-1 0-1zm17.26-1.233c.645 0 .644 1 0 1-.645 0-.644-1 0-1zM66.06 24c.645 0 .643 1 0 1-.645 0-.644-1 0-1z"/>
            <path fill="#9919C3" d="M20.767 20.502l.775 2.834a.5.5 0 1 1-.965.264l-.775-2.834a.5.5 0 1 1 .965-.264zm-5.952-.943a.5.5 0 0 1 .186.683l-1.413 2.477a.5.5 0 0 1-.869-.496l1.414-2.478a.502.502 0 0 1 .682-.186zm10.311-2.822l2.686 1.532a.501.501 0 0 1-.495.87l-2.686-1.533a.5.5 0 1 1 .495-.869zm-5.527.675c.645 0 .644 1 0 1-.645 0-.644-1 0-1zm-3.52-.399c.645 0 .643 1 0 1-.645 0-.644-1 0-1zm-4.277-1.805a.5.5 0 0 1-.35.614l-2.82.771a.5.5 0 1 1-.263-.964l2.819-.772a.504.504 0 0 1 .614.351zm10.473.111c.645 0 .644 1 0 1-.645 0-.644-1 0-1zm-1.837-2.265a1.88 1.88 0 0 1-1.853 2.165 1.878 1.878 0 0 1-1.852-1.586 1.879 1.879 0 0 1 1.562-2.143 1.885 1.885 0 0 1 2.143 1.564zm-6.349 1.163c.645 0 .643 1 0 1-.645 0-.644-1 0-1zm4.496-1.75a.877.877 0 0 0-.864 1.011.878.878 0 0 0 1 .73.877.877 0 0 0 .729-1 .878.878 0 0 0-.865-.74zm4.191-.716c.645 0 .644 1 0 1-.645 0-.644-1 0-1zm6.284-1.264a.5.5 0 0 1-.35.614l-3.024.827a.5.5 0 1 1-.263-.964l3.023-.828a.503.503 0 0 1 .614.351zm-14.645.043c.645 0 .644 1 0 1-.645 0-.644-1 0-1zm-5.14-2.835l2.877 1.641a.501.501 0 0 1-.495.87L8.78 8.564a.5.5 0 0 1 .495-.869zm11.653 1.402c.645 0 .644 1 0 1-.645 0-.644-1 0-1zm-3.705-.648c.645 0 .643 1 0 1-.645 0-.644-1 0-1zM23.8 3.775a.5.5 0 0 1 .229.669L22.67 7.22a.501.501 0 0 1-.9-.44l1.36-2.775a.502.502 0 0 1 .669-.23zm-7.486-.408l.858 3.136a.5.5 0 1 1-.965.264l-.858-3.136a.5.5 0 1 1 .965-.264z"/>
            <path fill="#AA1DCF" d="M47.885 4a.885.885 0 1 0 0 1.77.885.885 0 0 0 0-1.77m0 2.769A1.887 1.887 0 0 1 46 4.885C46 3.846 46.846 3 47.885 3c1.039 0 1.885.846 1.885 1.885a1.887 1.887 0 0 1-1.885 1.884"/>
            <path fill="#A91DCF" d="M20.392 58a.393.393 0 0 0 0 .784.392.392 0 0 0 0-.784m0 1.784a1.393 1.393 0 0 1 0-2.784 1.393 1.393 0 0 1 0 2.784"/>
            <path fill="#9719C2" d="M39.725 13.5c.965 0 .967-1.5 0-1.5-.965 0-.967 1.5 0 1.5"/>
            <path fill="#9E1BC7" d="M59.666 11.274l.508 1.008 1.008-.509a.5.5 0 0 1 .451.893l-1.008.509.51 1.007a.5.5 0 0 1-.893.452l-.51-1.008-1.007.508a.503.503 0 0 1-.672-.22.5.5 0 0 1 .221-.672l1.007-.509-.508-1.008a.5.5 0 0 1 .893-.451z"/>
            <path fill="#D427EE" d="M8.5 40c.644 0 .645-1 0-1-.644 0-.645 1 0 1"/>
        </g>
        <g mask="url(#c)">
            <path fill="#FF9100" d="M38.41 64.66l6.444-.564-.564-6.445-6.444.564z"/>
            <path fill="#FFC300" d="M30.248 51.084l-5.783.506c-5.438.476-10.249-3.547-10.723-8.967l-1.081-12.357a1.575 1.575 0 0 1 1.432-1.707l12.255-1.073a1.575 1.575 0 1 1 .275 3.14l-10.685.935.944 10.787c.322 3.69 3.602 6.427 7.308 6.102l5.783-.506a1.575 1.575 0 1 1 .275 3.14M55.921 48.94l-5.783.505a1.575 1.575 0 1 1-.275-3.14l5.783-.505c3.707-.325 6.461-3.59 6.138-7.279l-.943-10.787-10.686.934a1.575 1.575 0 1 1-.275-3.139l12.256-1.072a1.575 1.575 0 0 1 1.707 1.432l1.08 12.357c.475 5.42-3.564 10.217-9.002 10.693"/>
            <path fill="#FF9100" d="M31.88 69.5l19.914-1.743a1.891 1.891 0 0 0 1.72-2.049l-.134-1.522a1.892 1.892 0 0 0-2.049-1.72L31.417 64.21a1.891 1.891 0 0 0-1.719 2.049l.134 1.522a1.89 1.89 0 0 0 2.048 1.72"/>
            <path fill="#FFCB27" d="M32.873 67.576l-.144-1.646a1.83 1.83 0 0 1 1.663-1.981l17-1.488a1.83 1.83 0 0 1 1.982 1.663l.144 1.645a1.829 1.829 0 0 1-1.663 1.982l-17 1.488a1.829 1.829 0 0 1-1.982-1.663"/>
            <path fill="#FF9100" d="M55.689 20.01l-1.846 2.122-31.605 2.765-2.075-2.782z"/>
            <path fill="#FFCB27" d="M41.54 63.323l3.223-.282-.51-5.83-3.223.282z"/>
            <path fill="#FF9100" d="M41.081 58.258c8.728-.763 15.184-8.459 14.42-17.185l-1.657-18.941-31.605 2.765 1.657 18.94c.763 8.727 8.457 15.185 17.185 14.421"/>
            <path fill="#FFCB27" d="M42.692 58.034c-7.656 1.166-14.844-6.299-15.56-14.48l-1.656-18.94 28.368-2.482 1.657 18.94c.716 8.181-4.911 15.453-12.809 16.962"/>
            <path fill="#FF9100" d="M19.174 23.204L56.6 19.93a1.746 1.746 0 1 0-.305-3.479L18.87 19.725a1.746 1.746 0 1 0 .304 3.479"/>
            <path fill="#FFCB27" d="M21.953 21.208a1.745 1.745 0 0 1 1.587-1.89l32.755-2.866a1.745 1.745 0 1 1 .304 3.477l-32.755 2.866a1.746 1.746 0 0 1-1.891-1.587"/>
            <path fill="#FF9100" d="M55.423 68.074l-2.003-1.756-23.391 2.047-1.763 2.085z"/>
            <path fill="#7B197F" d="M29.651 82.96l26.841-2.348a3.153 3.153 0 0 0 2.865-3.414l-.55-6.284a3.153 3.153 0 0 0-3.414-2.865l-26.841 2.348a3.153 3.153 0 0 0-2.865 3.414l.55 6.284a3.153 3.153 0 0 0 3.414 2.865"/>
            <path fill="#8F2C93" d="M29.282 79.934l-.568-6.491a3.048 3.048 0 0 1 2.77-3.302l24.013-2.1a3.048 3.048 0 0 1 3.302 2.77l.568 6.49a3.048 3.048 0 0 1-2.77 3.302l-24.013 2.101a3.048 3.048 0 0 1-3.302-2.77"/>
            <path fill="#E82E4A" d="M59.702 78.193L25.573 81.18a1.072 1.072 0 1 0 .187 2.138L59.89 80.33a1.072 1.072 0 1 0-.187-2.138"/>
            <path fill="#8F2C93" d="M27.634 82.077a1.075 1.075 0 0 1 .975-1.164l31.092-2.72a1.075 1.075 0 0 1 .187 2.14l-31.092 2.72a1.073 1.073 0 0 1-1.162-.976"/>
            <path fill="#075E3E" d="M40.664 29.696l-1.775 4.559a.757.757 0 0 1-.53.462l-4.763 1.122a.757.757 0 0 0-.305 1.323l3.787 3.096c.194.157.296.4.276.646l-.403 4.878a.757.757 0 0 0 1.162.698l4.115-2.647a.762.762 0 0 1 .702-.061l4.51 1.892a.758.758 0 0 0 1.025-.89l-1.245-4.733a.754.754 0 0 1 .159-.684l3.192-3.707a.757.757 0 0 0-.53-1.25l-4.884-.278a.76.76 0 0 1-.604-.363l-2.538-4.181a.757.757 0 0 0-1.351.118"/>
            <path fill="#0B7951" d="M33.291 37.161a.756.756 0 0 1 .305-1.32l4.761-1.124a.755.755 0 0 0 .532-.461l1.523-3.914 2.179 3.59c.13.212.524.64.774.655l4.883.278c.627.037.769.482.36.956l-3.193 3.707a.761.761 0 0 0-.158.686l1.244 4.731a.689.689 0 0 1-.008.32l-3.563-1.492a.762.762 0 0 0-.702.061l-.602.388s-3.197 2.141-3.513 2.258a.75.75 0 0 1-1.164-.699l.404-4.875a.757.757 0 0 0-.275-.649l-3.787-3.096z"/>
            <path fill="#FF9100" d="M23.844 22.795l1.632 1.819-3.238.283-1.373-1.841zM33.007 68.104L31.26 70.16l-2.994.29 1.763-2.085z"/>
        </g>
    </g>
</svg>
