<svg xmlns="http://www.w3.org/2000/svg" width="24" height="20" viewBox="0 0 24 20">
    <path fill="#FFC300" fill-rule="evenodd" d="M12.625 6.378c.395 0 .716.313.716.7 0 .387-.321.7-.716.7h-1.203a1.802 1.802 0 0 1-1.586.943c-.691 0-1.284-.385-1.587-.942H6.946a.708.708 0 0 1-.715-.7c0-.388.32-.701.715-.701h1.192c.244-.69.908-1.19 1.698-1.19.788 0 1.452.5 1.697 1.19h1.092zm-2.436 3.086c1.64 0 2.97 1.302 2.97 2.908v3.909a1.19 1.19 0 0 1-1.203 1.178v-.868c0-1.163-.963-2.106-2.152-2.106-1.19 0-2.153.943-2.153 2.106v.868a1.127 1.127 0 0 1-1.14-1.116v-3.971c0-1.606 1.33-2.908 2.97-2.908h.708zm-.216 5.95c.57 0 1.034.453 1.034 1.012v2.562c0 .558-.464 1.012-1.034 1.012h-.402c-.57 0-1.034-.454-1.034-1.012v-2.562c0-.56.463-1.012 1.034-1.012h.402zm11.424-9.036c.394 0 .715.313.715.7 0 .387-.32.7-.715.7h-1.204a1.802 1.802 0 0 1-1.586.943c-.69 0-1.283-.385-1.587-.942h-1.302a.708.708 0 0 1-.715-.7c0-.388.32-.701.715-.701h1.191c.245-.69.909-1.19 1.698-1.19.789 0 1.453.5 1.698 1.19h1.092zM18.96 9.464c1.64 0 2.97 1.302 2.97 2.908v3.909a1.19 1.19 0 0 1-1.202 1.178v-.868c0-1.163-.964-2.106-2.152-2.106-1.19 0-2.154.943-2.154 2.106v.868a1.127 1.127 0 0 1-1.138-1.116v-3.971c0-1.606 1.33-2.908 2.97-2.908h.706zm-.215 5.95c.57 0 1.033.453 1.033 1.012v2.562c0 .558-.463 1.012-1.033 1.012h-.402c-.571 0-1.034-.454-1.034-1.012v-2.562c0-.56.463-1.012 1.034-1.012h.402zM23.086 0c.505 0 .914.4.914.894s-.41.895-.914.895H4.203v16.995c0 .494-.41.895-.914.895a.905.905 0 0 1-.913-.895V1.79H.914A.905.905 0 0 1 0 .894C0 .401.41 0 .914 0h22.172z"/>
</svg>
