<svg xmlns="http://www.w3.org/2000/svg" width="20" height="20" viewBox="0 0 20 20">
    <path fill="#7A7A7A" fill-rule="evenodd" d="M5.086 5.084c2.708-2.705 7.12-2.705 9.828 0 2.708 2.705 2.708 7.114 0 9.82-1.3 1.303-3.064 2.036-4.905 2.037-1.845-.004-3.615-.736-4.923-2.038-2.708-2.706-2.708-7.114 0-9.82v.001zM10 4.598c-1.432 0-2.805.567-3.82 1.577-1.545 1.545-2.007 3.869-1.171 5.888.836 2.019 2.806 3.335 4.991 3.335 2.186 0 4.156-1.316 4.992-3.335.836-2.02.373-4.343-1.172-5.888-1.016-1.008-2.389-1.574-3.82-1.577zm.386 1.543c.396 0 .722.297.767.681l.005.09v3.857c0 .392-.293.721-.682.767l-.09.005h-2.7c-.407-.002-.743-.32-.767-.726-.024-.407.272-.762.676-.812l.09-.005h1.93V6.913c0-.396.297-.722.68-.767l.09-.005z"/>
</svg>
