<svg xmlns="http://www.w3.org/2000/svg" width="16" height="16" viewBox="0 0 16 16">
    <g fill="none" fill-rule="evenodd">
        <circle cx="8" cy="8" r="8" fill="#E5B000"/>
        <path fill="#FFF" d="M10.475 6.188h-.941c-.08-.387-.24-.755-.465-1.072h1.406c.29 0 .525-.25.525-.558C11 4.25 10.765 4 10.475 4h-4.95C5.236 4 5 4.25 5 4.558c0 .308.236.558.526.558h1.417c.683 0 1.276.442 1.5 1.072H5.527c-.29 0-.526.25-.526.558 0 .308.236.559.526.559h2.92c-.223.643-.818 1.094-1.503 1.096h-1.42c-.144.002-.277.065-.376.176-.096.107-.147.248-.144.389 0 .149.059.296.168.408l3.538 3.479c.1.098.227.147.356.147.138 0 .277-.057.38-.17.097-.11.149-.252.145-.401-.003-.151-.062-.292-.168-.4L6.867 9.518h.073c1.276 0 2.348-.933 2.596-2.212h.94c.29 0 .524-.25.524-.56 0-.306-.235-.557-.525-.557"/>
    </g>
</svg>
