<svg xmlns="http://www.w3.org/2000/svg" width="32" height="23" viewBox="0 0 32 23">
    <g fill="#4A4A4A" fill-rule="evenodd">
        <path d="M32 5V2.096C32 .939 31.283 0 30.4 0H1.6C.717 0 0 .939 0 2.096V5h32zM25.139 19.723A2.845 2.845 0 0 1 23 18.745a2.841 2.841 0 0 1-2.138.978 2.862 2.862 0 1 1 0-5.723c.855 0 1.614.383 2.138.978A2.845 2.845 0 0 1 25.139 14a2.862 2.862 0 0 1 0 5.723zM11.2 16H4.8c-.442 0-.8-.447-.8-1 0-.552.358-1 .8-1h6.4c.442 0 .8.448.8 1 0 .553-.358 1-.8 1zm0 4H4.8c-.442 0-.8-.447-.8-1 0-.552.358-1 .8-1h6.4c.442 0 .8.448.8 1 0 .553-.358 1-.8 1zM0 8v13.03C0 22.118.717 23 1.6 23h28.8c.884 0 1.6-.882 1.6-1.97V8H0z"/>
    </g>
</svg>
