<svg xmlns="http://www.w3.org/2000/svg" width="360" height="640" viewBox="0 0 360 640">
    <g fill="none" fill-rule="evenodd">
        <path fill="#FFC941" d="M0 0h360v640H0z"/>
        <path fill="#F2B01C" d="M-4.023 219.268s23.483-65.445 103.96-38.1c47.496 16.138 98.162 40.017 164.046 24.547 38.34-9.004 100.54-17.222 102.608 49.715l-2.222 76.96-367.678 2.71-.714-115.832z"/>
        <path fill="#CE890F" d="M317.602 260.385s4.37-9.384 13.277-11.495c3.937-.934 6.994-.803 10.86-3.082 4.297-2.535 2.798-8.596 12.584-10.8 8.294-1.87 6.35-5.452 10.404-5.253 7.877.386-.349 35.758-.349 35.758l-55.033 5.765s-1.701-3.556 8.257-10.893"/>
        <path fill="#C9800D" d="M264.898 276.358s-1.371-16.583 12.34-19.202c8.228-1.745 10.97 2.128 10.97 2.128s3.428-12.984 13.712-13.857c10.284-.872 13.027 4.747 13.027 4.747s8.227-4.364 13.712.873c5.485 5.236 6.17 18.328 6.17 18.328l-69.931 6.983zM61.053 287.273s-3.678-12.473-13.232-21.49c-5.65-5.532-12.119-6.357-12.119-6.357s-.256-6.672-4.96-10.047c-7.925-5.685-13.04-3.459-13.04-3.459s-4.008-15.127-23.158-13.714c-6.791.501-1.733 16.538-1.733 16.538l1.854 69.84 66.388-31.31z"/>
        <path fill="#DD970B" d="M292.66 295.032s2.847-26.337 12.1-29.184c9.254-2.847 11.39 1.424 14.949-1.424 3.559-2.847 3.559-9.965 11.389-10.677 7.83-.711 13.524-.711 14.948-4.27 1.423-3.56 6.406-12.101 17.083-9.254 10.677 2.847 6.335 78.993 6.335 78.993l-76.804-24.184z"/>
    </g>
</svg>
